<?xml version="1.0" standalone="no"?>
<!DOCTYPE svg PUBLIC "-//W3C//DTD SVG 1.1//EN" "http://www.w3.org/Graphics/SVG/1.1/DTD/svg11.dtd">
<svg width="2562mm" height="2677mm" viewBox="-1163 -2432 2562 2677" xmlns="http://www.w3.org/2000/svg" version="1.1">
<title>OpenSCAD Model</title>
<path d="
M -856,-2431 L -871,-2431 L -871,-2188 L -856,-2188 z
M -828.5,-2431 L -843.5,-2431 L -843.5,-2188 L -828.5,-2188 z
M -801,-2431 L -816,-2431 L -816,-2188 L -801,-2188 z
M -773.5,-2431 L -788.5,-2431 L -788.5,-2188 L -773.5,-2188 z
M -746,-2431 L -761,-2431 L -761,-2188 L -746,-2188 z
M -718.5,-2431 L -733.5,-2431 L -733.5,-2188 L -718.5,-2188 z
M -691,-2431 L -706,-2431 L -706,-2188 L -691,-2188 z
M -663.5,-2431 L -678.5,-2431 L -678.5,-2188 L -663.5,-2188 z
M -636,-2431 L -651,-2431 L -651,-2188 L -636,-2188 z
M -608.5,-2431 L -623.5,-2431 L -623.5,-2188 L -608.5,-2188 z
M -581,-2431 L -596,-2431 L -596,-2188 L -581,-2188 z
M 886,-2431 L 871,-2431 L 871,-2188 L 886,-2188 z
M 915.778,-2431 L 900.778,-2431 L 900.778,-2188 L 915.778,-2188 z
M 945.556,-2431 L 930.556,-2431 L 930.556,-2188 L 945.556,-2188 z
M 975.333,-2431 L 960.333,-2431 L 960.333,-2188 L 975.333,-2188 z
M 1005.11,-2431 L 990.111,-2431 L 990.111,-2188 L 1005.11,-2188 z
M 1034.89,-2431 L 1019.89,-2431 L 1019.89,-2188 L 1034.89,-2188 z
M 1064.67,-2431 L 1049.67,-2431 L 1049.67,-2188 L 1064.67,-2188 z
M 1094.44,-2431 L 1079.44,-2431 L 1079.44,-2188 L 1094.44,-2188 z
M 1124.22,-2431 L 1109.22,-2431 L 1109.22,-2188 L 1124.22,-2188 z
M 1154,-2431 L 1139,-2431 L 1139,-2188 L 1154,-2188 z
M 240.55,-2222.45 L 240.55,-2224.55 L 238.45,-2224.55 L 236,-2227 L 7,-2227 L 4.55,-2224.55
 L 2.45,-2224.55 L 2.45,-2222.45 L 0,-2220 L 243,-2220 z
M 240.55,-2214.45 L 240.55,-2216.55 L 238.45,-2216.55 L 236,-2219 L 7,-2219 L 4.55,-2216.55
 L 2.45,-2216.55 L 2.45,-2214.45 L 0,-2212 L 243,-2212 z
M 285.45,-2199.45 L 285.45,-2201.55 L 287.55,-2201.55 L 290,-2204 L 287.55,-2206.45 L 285.45,-2206.45
 L 285.45,-2208.55 L 283,-2211 L 7,-2211 L 4.55,-2208.55 L 4.55,-2206.45 L 2.45,-2206.45
 L 0,-2204 L 2.45,-2201.55 L 4.55,-2201.55 L 4.55,-2199.45 L 7,-2197 L 283,-2197
 z
M -1147,-2187 L -1162,-2187 L -1162,-1944 L -1147,-1944 z
M -1124.2,-2187 L -1139.2,-2187 L -1139.2,-1944 L -1124.2,-1944 z
M -1101.4,-2187 L -1116.4,-2187 L -1116.4,-1944 L -1101.4,-1944 z
M -1078.6,-2187 L -1093.6,-2187 L -1093.6,-1944 L -1078.6,-1944 z
M -1055.8,-2187 L -1070.8,-2187 L -1070.8,-1944 L -1055.8,-1944 z
M -1033,-2187 L -1048,-2187 L -1048,-1944 L -1033,-1944 z
M -1010.2,-2187 L -1025.2,-2187 L -1025.2,-1944 L -1010.2,-1944 z
M -987.4,-2187 L -1002.4,-2187 L -1002.4,-1944 L -987.4,-1944 z
M -964.6,-2187 L -979.6,-2187 L -979.6,-1944 L -964.6,-1944 z
M -941.8,-2187 L -956.8,-2187 L -956.8,-1944 L -941.8,-1944 z
M -919,-2187 L -934,-2187 L -934,-1944 L -919,-1944 z
M -565,-2187 L -580,-2187 L -580,-1944 L -565,-1944 z
M -542.2,-2187 L -557.2,-2187 L -557.2,-1944 L -542.2,-1944 z
M -519.4,-2187 L -534.4,-2187 L -534.4,-1944 L -519.4,-1944 z
M -496.6,-2187 L -511.6,-2187 L -511.6,-1944 L -496.6,-1944 z
M -473.8,-2187 L -488.8,-2187 L -488.8,-1944 L -473.8,-1944 z
M -451,-2187 L -466,-2187 L -466,-1944 L -451,-1944 z
M -428.2,-2187 L -443.2,-2187 L -443.2,-1944 L -428.2,-1944 z
M -405.4,-2187 L -420.4,-2187 L -420.4,-1944 L -405.4,-1944 z
M -382.6,-2187 L -397.6,-2187 L -397.6,-1944 L -382.6,-1944 z
M -359.8,-2187 L -374.8,-2187 L -374.8,-1944 L -359.8,-1944 z
M -337,-2187 L -352,-2187 L -352,-1944 L -337,-1944 z
M 595,-2187 L 580,-2187 L 580,-1944 L 595,-1944 z
M 619.556,-2187 L 604.556,-2187 L 604.556,-1944 L 619.556,-1944 z
M 644.111,-2187 L 629.111,-2187 L 629.111,-1944 L 644.111,-1944 z
M 668.667,-2187 L 653.667,-2187 L 653.667,-1944 L 668.667,-1944 z
M 693.222,-2187 L 678.222,-2187 L 678.222,-1944 L 693.222,-1944 z
M 717.778,-2187 L 702.778,-2187 L 702.778,-1944 L 717.778,-1944 z
M 742.333,-2187 L 727.333,-2187 L 727.333,-1944 L 742.333,-1944 z
M 766.889,-2187 L 751.889,-2187 L 751.889,-1944 L 766.889,-1944 z
M 791.444,-2187 L 776.444,-2187 L 776.444,-1944 L 791.444,-1944 z
M 816,-2187 L 801,-2187 L 801,-1944 L 816,-1944 z
M 1177,-2187 L 1162,-2187 L 1162,-1944 L 1177,-1944 z
M 1201.56,-2187 L 1186.56,-2187 L 1186.56,-1944 L 1201.56,-1944 z
M 1226.11,-2187 L 1211.11,-2187 L 1211.11,-1944 L 1226.11,-1944 z
M 1250.67,-2187 L 1235.67,-2187 L 1235.67,-1944 L 1250.67,-1944 z
M 1275.22,-2187 L 1260.22,-2187 L 1260.22,-1944 L 1275.22,-1944 z
M 1299.78,-2187 L 1284.78,-2187 L 1284.78,-1944 L 1299.78,-1944 z
M 1324.33,-2187 L 1309.33,-2187 L 1309.33,-1944 L 1324.33,-1944 z
M 1348.89,-2187 L 1333.89,-2187 L 1333.89,-1944 L 1348.89,-1944 z
M 1373.44,-2187 L 1358.44,-2187 L 1358.44,-1944 L 1373.44,-1944 z
M 1398,-2187 L 1383,-2187 L 1383,-1944 L 1398,-1944 z
M -50.45,-1978.45 L -50.45,-1980.55 L -52.55,-1980.55 L -55,-1983 L -284,-1983 L -286.45,-1980.55
 L -288.55,-1980.55 L -288.55,-1978.45 L -291,-1976 L -48,-1976 z
M 531.55,-1978.45 L 531.55,-1980.55 L 529.45,-1980.55 L 527,-1983 L 298,-1983 L 295.55,-1980.55
 L 293.45,-1980.55 L 293.45,-1978.45 L 291,-1976 L 534,-1976 z
M -50.45,-1970.45 L -50.45,-1972.55 L -52.55,-1972.55 L -55,-1975 L -284,-1975 L -286.45,-1972.55
 L -288.55,-1972.55 L -288.55,-1970.45 L -291,-1968 L -48,-1968 z
M 531.55,-1970.45 L 531.55,-1972.55 L 529.45,-1972.55 L 527,-1975 L 298,-1975 L 295.55,-1972.55
 L 293.45,-1972.55 L 293.45,-1970.45 L 291,-1968 L 534,-1968 z
M -58.55,-1955.45 L -58.55,-1957.55 L -56.45,-1957.55 L -54,-1960 L -56.45,-1962.45 L -58.55,-1962.45
 L -58.55,-1964.55 L -61,-1967 L -284,-1967 L -286.45,-1964.55 L -286.45,-1962.45 L -288.55,-1962.45
 L -291,-1960 L -288.55,-1957.55 L -286.45,-1957.55 L -286.45,-1955.45 L -284,-1953 L -61,-1953
 z
M 523.45,-1955.45 L 523.45,-1957.55 L 525.55,-1957.55 L 528,-1960 L 525.55,-1962.45 L 523.45,-1962.45
 L 523.45,-1964.55 L 521,-1967 L 298,-1967 L 295.55,-1964.55 L 295.55,-1962.45 L 293.45,-1962.45
 L 291,-1960 L 293.45,-1957.55 L 295.55,-1957.55 L 295.55,-1955.45 L 298,-1953 L 521,-1953
 z
M -856,-1943 L -871,-1943 L -871,-1700 L -856,-1700 z
M -828.5,-1943 L -843.5,-1943 L -843.5,-1700 L -828.5,-1700 z
M -801,-1943 L -816,-1943 L -816,-1700 L -801,-1700 z
M -773.5,-1943 L -788.5,-1943 L -788.5,-1700 L -773.5,-1700 z
M -746,-1943 L -761,-1943 L -761,-1700 L -746,-1700 z
M -718.5,-1943 L -733.5,-1943 L -733.5,-1700 L -718.5,-1700 z
M -691,-1943 L -706,-1943 L -706,-1700 L -691,-1700 z
M -663.5,-1943 L -678.5,-1943 L -678.5,-1700 L -663.5,-1700 z
M -636,-1943 L -651,-1943 L -651,-1700 L -636,-1700 z
M -608.5,-1943 L -623.5,-1943 L -623.5,-1700 L -608.5,-1700 z
M -581,-1943 L -596,-1943 L -596,-1700 L -581,-1700 z
M 886,-1943 L 871,-1943 L 871,-1700 L 886,-1700 z
M 915.778,-1943 L 900.778,-1943 L 900.778,-1700 L 915.778,-1700 z
M 945.556,-1943 L 930.556,-1943 L 930.556,-1700 L 945.556,-1700 z
M 975.333,-1943 L 960.333,-1943 L 960.333,-1700 L 975.333,-1700 z
M 1005.11,-1943 L 990.111,-1943 L 990.111,-1700 L 1005.11,-1700 z
M 1034.89,-1943 L 1019.89,-1943 L 1019.89,-1700 L 1034.89,-1700 z
M 1064.67,-1943 L 1049.67,-1943 L 1049.67,-1700 L 1064.67,-1700 z
M 1094.44,-1943 L 1079.44,-1943 L 1079.44,-1700 L 1094.44,-1700 z
M 1124.22,-1943 L 1109.22,-1943 L 1109.22,-1700 L 1124.22,-1700 z
M 1154,-1943 L 1139,-1943 L 1139,-1700 L 1154,-1700 z
M 240.55,-1734.45 L 240.55,-1736.55 L 238.45,-1736.55 L 236,-1739 L 7,-1739 L 4.55,-1736.55
 L 2.45,-1736.55 L 2.45,-1734.45 L 0,-1732 L 243,-1732 z
M 240.55,-1726.45 L 240.55,-1728.55 L 238.45,-1728.55 L 236,-1731 L 7,-1731 L 4.55,-1728.55
 L 2.45,-1728.55 L 2.45,-1726.45 L 0,-1724 L 243,-1724 z
M 285.45,-1711.45 L 285.45,-1713.55 L 287.55,-1713.55 L 290,-1716 L 287.55,-1718.45 L 285.45,-1718.45
 L 285.45,-1720.55 L 283,-1723 L 7,-1723 L 4.55,-1720.55 L 4.55,-1718.45 L 2.45,-1718.45
 L 0,-1716 L 2.45,-1713.55 L 4.55,-1713.55 L 4.55,-1711.45 L 7,-1709 L 283,-1709
 z
M -856,-487 L -871,-487 L -871,-244 L -856,-244 z
M -828.5,-487 L -843.5,-487 L -843.5,-244 L -828.5,-244 z
M -801,-487 L -816,-487 L -816,-244 L -801,-244 z
M -773.5,-487 L -788.5,-487 L -788.5,-244 L -773.5,-244 z
M -746,-487 L -761,-487 L -761,-244 L -746,-244 z
M -718.5,-487 L -733.5,-487 L -733.5,-244 L -718.5,-244 z
M -691,-487 L -706,-487 L -706,-244 L -691,-244 z
M -663.5,-487 L -678.5,-487 L -678.5,-244 L -663.5,-244 z
M -636,-487 L -651,-487 L -651,-244 L -636,-244 z
M -608.5,-487 L -623.5,-487 L -623.5,-244 L -608.5,-244 z
M -581,-487 L -596,-487 L -596,-244 L -581,-244 z
M 886,-487 L 871,-487 L 871,-244 L 886,-244 z
M 915.778,-487 L 900.778,-487 L 900.778,-244 L 915.778,-244 z
M 945.556,-487 L 930.556,-487 L 930.556,-244 L 945.556,-244 z
M 975.333,-487 L 960.333,-487 L 960.333,-244 L 975.333,-244 z
M 1005.11,-487 L 990.111,-487 L 990.111,-244 L 1005.11,-244 z
M 1034.89,-487 L 1019.89,-487 L 1019.89,-244 L 1034.89,-244 z
M 1064.67,-487 L 1049.67,-487 L 1049.67,-244 L 1064.67,-244 z
M 1094.44,-487 L 1079.44,-487 L 1079.44,-244 L 1094.44,-244 z
M 1124.22,-487 L 1109.22,-487 L 1109.22,-244 L 1124.22,-244 z
M 1154,-487 L 1139,-487 L 1139,-244 L 1154,-244 z
M 240.55,-278.45 L 240.55,-280.55 L 238.45,-280.55 L 236,-283 L 7,-283 L 4.55,-280.55
 L 2.45,-280.55 L 2.45,-278.45 L 0,-276 L 243,-276 z
M 240.55,-270.45 L 240.55,-272.55 L 238.45,-272.55 L 236,-275 L 7,-275 L 4.55,-272.55
 L 2.45,-272.55 L 2.45,-270.45 L 0,-268 L 243,-268 z
M 285.45,-255.45 L 285.45,-257.55 L 287.55,-257.55 L 290,-260 L 287.55,-262.45 L 285.45,-262.45
 L 285.45,-264.55 L 283,-267 L 7,-267 L 4.55,-264.55 L 4.55,-262.45 L 2.45,-262.45
 L 0,-260 L 2.45,-257.55 L 4.55,-257.55 L 4.55,-255.45 L 7,-253 L 283,-253
 z
M 287.55,-246.45 L 285.45,-246.45 L 285.45,-248.55 L 283,-251 L 7,-251 L 4.55,-248.55
 L 4.55,-246.45 L 2.45,-246.45 L 0,-244 L 290,-244 z
M -1147,-243 L -1162,-243 L -1162,-0 L -1147,-0 z
M -1124.2,-243 L -1139.2,-243 L -1139.2,-0 L -1124.2,-0 z
M -1101.4,-243 L -1116.4,-243 L -1116.4,-0 L -1101.4,-0 z
M -1078.6,-243 L -1093.6,-243 L -1093.6,-0 L -1078.6,-0 z
M -1055.8,-243 L -1070.8,-243 L -1070.8,-0 L -1055.8,-0 z
M -1033,-243 L -1048,-243 L -1048,-0 L -1033,-0 z
M -1010.2,-243 L -1025.2,-243 L -1025.2,-0 L -1010.2,-0 z
M -987.4,-243 L -1002.4,-243 L -1002.4,-0 L -987.4,-0 z
M -964.6,-243 L -979.6,-243 L -979.6,-0 L -964.6,-0 z
M -941.8,-243 L -956.8,-243 L -956.8,-0 L -941.8,-0 z
M -919,-243 L -934,-243 L -934,-0 L -919,-0 z
M -565,-243 L -580,-243 L -580,-0 L -565,-0 z
M -542.2,-243 L -557.2,-243 L -557.2,-0 L -542.2,-0 z
M -519.4,-243 L -534.4,-243 L -534.4,-0 L -519.4,-0 z
M -496.6,-243 L -511.6,-243 L -511.6,-0 L -496.6,-0 z
M -473.8,-243 L -488.8,-243 L -488.8,-0 L -473.8,-0 z
M -451,-243 L -466,-243 L -466,-0 L -451,-0 z
M -428.2,-243 L -443.2,-243 L -443.2,-0 L -428.2,-0 z
M -405.4,-243 L -420.4,-243 L -420.4,-0 L -405.4,-0 z
M -382.6,-243 L -397.6,-243 L -397.6,-0 L -382.6,-0 z
M -359.8,-243 L -374.8,-243 L -374.8,-0 L -359.8,-0 z
M -337,-243 L -352,-243 L -352,-0 L -337,-0 z
M 595,-243 L 580,-243 L 580,-0 L 595,-0 z
M 619.556,-243 L 604.556,-243 L 604.556,-0 L 619.556,-0 z
M 644.111,-243 L 629.111,-243 L 629.111,-0 L 644.111,-0 z
M 668.667,-243 L 653.667,-243 L 653.667,-0 L 668.667,-0 z
M 693.222,-243 L 678.222,-243 L 678.222,-0 L 693.222,-0 z
M 717.778,-243 L 702.778,-243 L 702.778,-0 L 717.778,-0 z
M 742.333,-243 L 727.333,-243 L 727.333,-0 L 742.333,-0 z
M 766.889,-243 L 751.889,-243 L 751.889,-0 L 766.889,-0 z
M 791.444,-243 L 776.444,-243 L 776.444,-0 L 791.444,-0 z
M 816,-243 L 801,-243 L 801,-0 L 816,-0 z
M 1177,-243 L 1162,-243 L 1162,-0 L 1177,-0 z
M 1201.56,-243 L 1186.56,-243 L 1186.56,-0 L 1201.56,-0 z
M 1226.11,-243 L 1211.11,-243 L 1211.11,-0 L 1226.11,-0 z
M 1250.67,-243 L 1235.67,-243 L 1235.67,-0 L 1250.67,-0 z
M 1275.22,-243 L 1260.22,-243 L 1260.22,-0 L 1275.22,-0 z
M 1299.78,-243 L 1284.78,-243 L 1284.78,-0 L 1299.78,-0 z
M 1324.33,-243 L 1309.33,-243 L 1309.33,-0 L 1324.33,-0 z
M 1348.89,-243 L 1333.89,-243 L 1333.89,-0 L 1348.89,-0 z
M 1373.44,-243 L 1358.44,-243 L 1358.44,-0 L 1373.44,-0 z
M 1398,-243 L 1383,-243 L 1383,-0 L 1398,-0 z
M -50.45,-34.45 L -50.45,-36.55 L -52.55,-36.55 L -55,-39 L -284,-39 L -286.45,-36.55
 L -288.55,-36.55 L -288.55,-34.45 L -291,-32 L -48,-32 z
M 531.55,-34.45 L 531.55,-36.55 L 529.45,-36.55 L 527,-39 L 298,-39 L 295.55,-36.55
 L 293.45,-36.55 L 293.45,-34.45 L 291,-32 L 534,-32 z
M -50.45,-26.45 L -50.45,-28.55 L -52.55,-28.55 L -55,-31 L -284,-31 L -286.45,-28.55
 L -288.55,-28.55 L -288.55,-26.45 L -291,-24 L -48,-24 z
M 531.55,-26.45 L 531.55,-28.55 L 529.45,-28.55 L 527,-31 L 298,-31 L 295.55,-28.55
 L 293.45,-28.55 L 293.45,-26.45 L 291,-24 L 534,-24 z
M -58.55,-11.45 L -58.55,-13.55 L -56.45,-13.55 L -54,-16 L -56.45,-18.45 L -58.55,-18.45
 L -58.55,-20.55 L -61,-23 L -284,-23 L -286.45,-20.55 L -286.45,-18.45 L -288.55,-18.45
 L -291,-16 L -288.55,-13.55 L -286.45,-13.55 L -286.45,-11.45 L -284,-9 L -61,-9
 z
M 523.45,-11.45 L 523.45,-13.55 L 525.55,-13.55 L 528,-16 L 525.55,-18.45 L 523.45,-18.45
 L 523.45,-20.55 L 521,-23 L 298,-23 L 295.55,-20.55 L 295.55,-18.45 L 293.45,-18.45
 L 291,-16 L 293.45,-13.55 L 295.55,-13.55 L 295.55,-11.45 L 298,-9 L 521,-9
 z
M -56.45,-2.45 L -58.55,-2.45 L -58.55,-4.55 L -61,-7 L -284,-7 L -286.45,-4.55
 L -286.45,-2.45 L -288.55,-2.45 L -291,-0 L -54,-0 z
M 525.55,-2.45 L 523.45,-2.45 L 523.45,-4.55 L 521,-7 L 298,-7 L 295.55,-4.55
 L 295.55,-2.45 L 293.45,-2.45 L 291,-0 L 528,-0 z
M -856,1 L -871,1 L -871,244 L -856,244 z
M -828.5,1 L -843.5,1 L -843.5,244 L -828.5,244 z
M -801,1 L -816,1 L -816,244 L -801,244 z
M -773.5,1 L -788.5,1 L -788.5,244 L -773.5,244 z
M -746,1 L -761,1 L -761,244 L -746,244 z
M -718.5,1 L -733.5,1 L -733.5,244 L -718.5,244 z
M -691,1 L -706,1 L -706,244 L -691,244 z
M -663.5,1 L -678.5,1 L -678.5,244 L -663.5,244 z
M -636,1 L -651,1 L -651,244 L -636,244 z
M -608.5,1 L -623.5,1 L -623.5,244 L -608.5,244 z
M -581,1 L -596,1 L -596,244 L -581,244 z
M 886,1 L 871,1 L 871,244 L 886,244 z
M 915.778,1 L 900.778,1 L 900.778,244 L 915.778,244 z
M 945.556,1 L 930.556,1 L 930.556,244 L 945.556,244 z
M 975.333,1 L 960.333,1 L 960.333,244 L 975.333,244 z
M 1005.11,1 L 990.111,1 L 990.111,244 L 1005.11,244 z
M 1034.89,1 L 1019.89,1 L 1019.89,244 L 1034.89,244 z
M 1064.67,1 L 1049.67,1 L 1049.67,244 L 1064.67,244 z
M 1094.44,1 L 1079.44,1 L 1079.44,244 L 1094.44,244 z
M 1124.22,1 L 1109.22,1 L 1109.22,244 L 1124.22,244 z
M 1154,1 L 1139,1 L 1139,244 L 1154,244 z
M 240.55,209.55 L 240.55,207.45 L 238.45,207.45 L 236,205 L 7,205 L 4.55,207.45
 L 2.45,207.45 L 2.45,209.55 L 0,212 L 243,212 z
M 240.55,217.55 L 240.55,215.45 L 238.45,215.45 L 236,213 L 7,213 L 4.55,215.45
 L 2.45,215.45 L 2.45,217.55 L 0,220 L 243,220 z
M 285.45,232.55 L 285.45,230.45 L 287.55,230.45 L 290,228 L 287.55,225.55 L 285.45,225.55
 L 285.45,223.45 L 283,221 L 7,221 L 4.55,223.45 L 4.55,225.55 L 2.45,225.55
 L 0,228 L 2.45,230.45 L 4.55,230.45 L 4.55,232.55 L 7,235 L 283,235
 z
M 287.55,241.55 L 285.45,241.55 L 285.45,239.45 L 283,237 L 7,237 L 4.55,239.45
 L 4.55,241.55 L 2.45,241.55 L 0,244 L 290,244 z
" stroke="#000000" fill="none" stroke-width="0.35"/>
</svg>
