<?xml version="1.0" standalone="no"?>
<!DOCTYPE svg PUBLIC "-//W3C//DTD SVG 1.1//EN" "http://www.w3.org/Graphics/SVG/1.1/DTD/svg11.dtd">
<svg width="819mm" height="733mm" viewBox="-291 -510 819 733" xmlns="http://www.w3.org/2000/svg" version="1.1">
<title>OpenSCAD Model</title>
<path d="
M 233.5,-503.5 L 233.5,-506.5 L 230.5,-506.5 L 227,-510 L 10,-510 L 6.5,-506.5
 L 3.5,-506.5 L 3.5,-503.5 L 0,-500 L 237,-500 z
M 233.5,-492.5 L 233.5,-495.5 L 230.5,-495.5 L 227,-499 L 10,-499 L 6.5,-495.5
 L 3.5,-495.5 L 3.5,-492.5 L 0,-489 L 237,-489 z
M 280.5,-481.5 L 277.5,-481.5 L 277.5,-484.5 L 274,-488 L 10,-488 L 6.5,-484.5
 L 6.5,-481.5 L 3.5,-481.5 L 0,-478 L 284,-478 z
M 280.5,-470.5 L 277.5,-470.5 L 277.5,-473.5 L 274,-477 L 10,-477 L 6.5,-473.5
 L 6.5,-470.5 L 3.5,-470.5 L 0,-467 L 284,-467 z
M 218.5,-280.5 L 218.5,-283.5 L 215.5,-283.5 L 212,-287 L 10,-287 L 6.5,-283.5
 L 3.5,-283.5 L 3.5,-280.5 L 0,-277 L 222,-277 z
M 218.5,-269.5 L 218.5,-272.5 L 215.5,-272.5 L 212,-276 L 10,-276 L 6.5,-272.5
 L 3.5,-272.5 L 3.5,-269.5 L 0,-266 L 222,-266 z
M 286.5,-258.5 L 283.5,-258.5 L 283.5,-261.5 L 280,-265 L 10,-265 L 6.5,-261.5
 L 6.5,-258.5 L 3.5,-258.5 L 0,-255 L 290,-255 z
M 286.5,-247.5 L 283.5,-247.5 L 283.5,-250.5 L 280,-254 L 10,-254 L 6.5,-250.5
 L 6.5,-247.5 L 3.5,-247.5 L 0,-244 L 290,-244 z
M 233.5,-36.5 L 233.5,-39.5 L 230.5,-39.5 L 227,-43 L 10,-43 L 6.5,-39.5
 L 3.5,-39.5 L 3.5,-36.5 L 0,-33 L 237,-33 z
M 524.5,-36.5 L 524.5,-39.5 L 521.5,-39.5 L 518,-43 L 301,-43 L 297.5,-39.5
 L 294.5,-39.5 L 294.5,-36.5 L 291,-33 L 528,-33 z
M -57.5,-36.5 L -57.5,-39.5 L -60.5,-39.5 L -64,-43 L -281,-43 L -284.5,-39.5
 L -287.5,-39.5 L -287.5,-36.5 L -291,-33 L -54,-33 z
M 233.5,-25.5 L 233.5,-28.5 L 230.5,-28.5 L 227,-32 L 10,-32 L 6.5,-28.5
 L 3.5,-28.5 L 3.5,-25.5 L 0,-22 L 237,-22 z
M 524.5,-25.5 L 524.5,-28.5 L 521.5,-28.5 L 518,-32 L 301,-32 L 297.5,-28.5
 L 294.5,-28.5 L 294.5,-25.5 L 291,-22 L 528,-22 z
M -57.5,-25.5 L -57.5,-28.5 L -60.5,-28.5 L -64,-32 L -281,-32 L -284.5,-28.5
 L -287.5,-28.5 L -287.5,-25.5 L -291,-22 L -54,-22 z
M -72.5,-14.5 L -75.5,-14.5 L -75.5,-17.5 L -79,-21 L -281,-21 L -284.5,-17.5
 L -284.5,-14.5 L -287.5,-14.5 L -291,-11 L -69,-11 z
M 280.5,-14.5 L 277.5,-14.5 L 277.5,-17.5 L 274,-21 L 10,-21 L 6.5,-17.5
 L 6.5,-14.5 L 3.5,-14.5 L 0,-11 L 284,-11 z
M 509.5,-14.5 L 506.5,-14.5 L 506.5,-17.5 L 503,-21 L 301,-21 L 297.5,-17.5
 L 297.5,-14.5 L 294.5,-14.5 L 291,-11 L 513,-11 z
M -72.5,-3.5 L -75.5,-3.5 L -75.5,-6.5 L -79,-10 L -281,-10 L -284.5,-6.5
 L -284.5,-3.5 L -287.5,-3.5 L -291,-0 L -69,-0 z
M 280.5,-3.5 L 277.5,-3.5 L 277.5,-6.5 L 274,-10 L 10,-10 L 6.5,-6.5
 L 6.5,-3.5 L 3.5,-3.5 L 0,-0 L 284,-0 z
M 509.5,-3.5 L 506.5,-3.5 L 506.5,-6.5 L 503,-10 L 301,-10 L 297.5,-6.5
 L 297.5,-3.5 L 294.5,-3.5 L 291,-0 L 513,-0 z
M 218.5,186.5 L 218.5,183.5 L 215.5,183.5 L 212,180 L 10,180 L 6.5,183.5
 L 3.5,183.5 L 3.5,186.5 L 0,190 L 222,190 z
M 218.5,197.5 L 218.5,194.5 L 215.5,194.5 L 212,191 L 10,191 L 6.5,194.5
 L 3.5,194.5 L 3.5,197.5 L 0,201 L 222,201 z
M 286.5,208.5 L 283.5,208.5 L 283.5,205.5 L 280,202 L 10,202 L 6.5,205.5
 L 6.5,208.5 L 3.5,208.5 L 0,212 L 290,212 z
M 286.5,219.5 L 283.5,219.5 L 283.5,216.5 L 280,213 L 10,213 L 6.5,216.5
 L 6.5,219.5 L 3.5,219.5 L 0,223 L 290,223 z
" stroke="black" fill="lightgray" stroke-width="0.5"/>
</svg>
