<?xml version="1.0" encoding="UTF-8" standalone="no"?>
<svg
   width="749mm"
   height="496mm"
   viewBox="-222 -274 749 496"
   version="1.1"
   id="svg6"
   sodipodi:docname="main_export.svg"
   inkscape:version="1.2.2 (b0a8486541, 2022-12-01)"
   xmlns:inkscape="http://www.inkscape.org/namespaces/inkscape"
   xmlns:sodipodi="http://sodipodi.sourceforge.net/DTD/sodipodi-0.dtd"
   xmlns="http://www.w3.org/2000/svg"
   xmlns:svg="http://www.w3.org/2000/svg"
   xmlns:rdf="http://www.w3.org/1999/02/22-rdf-syntax-ns#"
   xmlns:cc="http://creativecommons.org/ns#"
   xmlns:dc="http://purl.org/dc/elements/1.1/">
  <defs
     id="defs10" />
  <sodipodi:namedview
     id="namedview8"
     pagecolor="#ffffff"
     bordercolor="#000000"
     borderopacity="0.25"
     inkscape:showpageshadow="2"
     inkscape:pageopacity="0.0"
     inkscape:pagecheckerboard="0"
     inkscape:deskcolor="#d1d1d1"
     inkscape:document-units="mm"
     showgrid="false"
     inkscape:zoom="0.16585698"
     inkscape:cx="1709.304"
     inkscape:cy="1546.5132"
     inkscape:window-width="3374"
     inkscape:window-height="1371"
     inkscape:window-x="0"
     inkscape:window-y="0"
     inkscape:window-maximized="1"
     inkscape:current-layer="svg6" />
  <title
     id="title2">OpenSCAD Model</title>
  <path
     d="m 287.55,219.55 h -2.1 v -2.1 L 283,215 H 7 l -2.45001,2.45 v 2.1 H 2.45 L 0,222 h 290 z"
     id="path1240"
     style="fill:none;stroke:#ff0000;stroke-opacity:1;stroke-width:0.5;stroke-dasharray:none" />
  <path
     d="m 287.55,211.55 h -2.1 v -2.1 L 283,207 H 7 l -2.45001,2.45 v 2.1 H 2.45 L 0,214 h 290 z"
     id="path1238"
     style="fill:none;stroke:#ff0000;stroke-opacity:1;stroke-width:0.5;stroke-dasharray:none" />
  <path
     d="m 219.55,203.55 v -2.1 h -2.1 L 215,199 H 7 l -2.45001,2.45 H 2.45 v 2.1 L 0,206 h 222 z"
     id="path1236"
     style="fill:none;stroke:#ff0000;stroke-opacity:1;stroke-width:0.5;stroke-dasharray:none" />
  <path
     d="m 219.55,195.55 v -2.1 h -2.1 L 215,191 H 7 l -2.45001,2.45 H 2.45 v 2.1 L 0,198 h 222 z"
     id="path1234"
     style="fill:none;stroke:#ff0000;stroke-opacity:1;stroke-width:0.5;stroke-dasharray:none" />
  <path
     d="m 509.55,-2.45 h -2.1 V -4.54999 L 505,-7 H 297 l -2.45,2.45001 V -2.45 h -2.1 L 290,0 h 222 z"
     id="path1232"
     style="fill:none;stroke:#ff0000;stroke-opacity:1;stroke-width:0.5;stroke-dasharray:none" />
  <path
     d="M -2.45,-2.45 H -4.54999 V -4.54999 L -7,-7 h -208 l -2.45,2.45001 V -2.45 h -2.1 L -222,0 H 0 Z"
     id="path1230"
     style="fill:none;stroke:#ff0000;stroke-opacity:1;stroke-width:0.5;stroke-dasharray:none" />
  <path
     d="m 509.55,-10.45 h -2.1 v -2.1 L 505,-15 H 297 l -2.45,2.45 v 2.1 h -2.1 L 290,-8 h 222 z"
     id="path1228"
     style="fill:none;stroke:#ff0000;stroke-opacity:1;stroke-width:0.5;stroke-dasharray:none" />
  <path
     d="m -2.45,-10.45 h -2.09999 v -2.1 L -7,-15 h -208 l -2.45,2.45 v 2.1 h -2.1 L -222,-8 H 0 Z"
     id="path1226"
     style="fill:none;stroke:#ff0000;stroke-opacity:1;stroke-width:0.5;stroke-dasharray:none" />
  <path
     d="m 524.55,-18.45 v -2.1 h -2.1 L 520,-23 H 297 l -2.45,2.45 h -2.1 v 2.1 L 290,-16 h 237 z"
     id="path1224"
     style="fill:none;stroke:#ff0000;stroke-opacity:1;stroke-width:0.5;stroke-dasharray:none" />
  <path
     d="m 12.55,-18.45 v -2.1 h -2.1 L 8,-23 h -223 l -2.45,2.45 h -2.1 v 2.1 L -222,-16 H 15 Z"
     id="path1222"
     style="fill:none;stroke:#ff0000;stroke-opacity:1;stroke-width:0.5;stroke-dasharray:none" />
  <path
     d="m 524.55,-26.45 v -2.1 h -2.1 L 520,-31 H 297 l -2.45,2.45 h -2.1 v 2.1 L 290,-24 h 237 z"
     id="path1220"
     style="fill:none;stroke:#ff0000;stroke-opacity:1;stroke-width:0.5;stroke-dasharray:none" />
  <path
     d="m 12.55,-26.45 v -2.1 h -2.1 L 8,-31 h -223 l -2.45,2.45 h -2.1 v 2.1 L -222,-24 H 15 Z"
     id="path1218"
     style="fill:none;stroke:#ff0000;stroke-opacity:1;stroke-width:0.5;stroke-dasharray:none" />
  <path
     d="m 287.55,-245.45 h -2.1 v -2.1 L 283,-250 H 7 l -2.45001,2.45 v 2.1 H 2.45 L 0,-243 h 290 z"
     id="path1216"
     style="fill:none;stroke:#ff0000;stroke-opacity:1;stroke-width:0.5;stroke-dasharray:none" />
  <path
     d="m 287.55,-253.45 h -2.1 v -2.1 L 283,-258 H 7 l -2.45001,2.45 v 2.1 H 2.45 L 0,-251 h 290 z"
     id="path1214"
     style="fill:none;stroke:#ff0000;stroke-opacity:1;stroke-width:0.5;stroke-dasharray:none" />
  <path
     d="m 219.55,-261.45 v -2.1 h -2.1 L 215,-266 H 7 l -2.45001,2.45 H 2.45 v 2.1 L 0,-259 h 222 z"
     id="path1212"
     style="fill:none;stroke:#ff0000;stroke-opacity:1;stroke-width:0.5;stroke-dasharray:none" />
  <path
     d="m 219.55,-269.45 v -2.1 h -2.1 L 215,-274 H 7 l -2.45001,2.45 H 2.45 v 2.1 L 0,-267 h 222 z"
     id="path4"
     style="fill:none;stroke:#ff0000;stroke-opacity:1;stroke-width:0.5;stroke-dasharray:none" />
  <metadata
     id="metadata1258">
    <rdf:RDF>
      <cc:Work
         rdf:about="">
        <dc:title>OpenSCAD Model</dc:title>
      </cc:Work>
    </rdf:RDF>
  </metadata>
</svg>
