<?xml version="1.0" encoding="UTF-8" standalone="no"?>
<svg
   width="267mm"
   height="139mm"
   viewBox="5 -144 267 139"
   version="1.1"
   id="svg659"
   sodipodi:docname="bob_dishwasher_sheet_1.svg"
   inkscape:version="1.2.2 (b0a8486541, 2022-12-01)"
   xmlns:inkscape="http://www.inkscape.org/namespaces/inkscape"
   xmlns:sodipodi="http://sodipodi.sourceforge.net/DTD/sodipodi-0.dtd"
   xmlns="http://www.w3.org/2000/svg"
   xmlns:svg="http://www.w3.org/2000/svg"
   xmlns:rdf="http://www.w3.org/1999/02/22-rdf-syntax-ns#"
   xmlns:cc="http://creativecommons.org/ns#"
   xmlns:dc="http://purl.org/dc/elements/1.1/">
  <defs
     id="defs663" />
  <sodipodi:namedview
     id="namedview661"
     pagecolor="#ffffff"
     bordercolor="#000000"
     borderopacity="0.25"
     inkscape:showpageshadow="2"
     inkscape:pageopacity="0.0"
     inkscape:pagecheckerboard="0"
     inkscape:deskcolor="#d1d1d1"
     inkscape:document-units="mm"
     showgrid="false"
     inkscape:zoom="1.2981429"
     inkscape:cx="471.44269"
     inkscape:cy="236.10651"
     inkscape:window-width="1452"
     inkscape:window-height="1233"
     inkscape:window-x="518"
     inkscape:window-y="129"
     inkscape:window-maximized="0"
     inkscape:current-layer="svg659" />
  <title
     id="title655">OpenSCAD Model</title>
  <path
     style="stroke:#ff0000;fill:none"
     d="m 130.498,-9 -0.01,-0.41216 -0.03,-0.41117 -0.051,-0.40917 -0.07,-0.4062 -0.091,-0.4023 -0.11,-0.3974 -0.129,-0.3915 -0.148,-0.3846 -0.168,-0.3769 -0.185,-0.3683 -0.203,-0.3588 -0.221,-0.3483 -0.237,-0.3371 -0.254,-0.325 -0.269,-0.3122 -0.284,-0.2986 -0.299,-0.2843 -0.312,-0.2693 -0.325,-0.2536 -0.337,-0.2374 -0.349,-0.2206 -0.358,-0.2032 -0.369,-0.1854 -0.377,-0.1671 -0.384,-0.1484 -0.392,-0.1293 -0.397,-0.11 -0.402,-0.0903 -0.407,-0.0705 -0.409,-0.0504 -0.411,-0.0304 -0.412,-0.0101 H 77.649 l -0.4122,0.0101 -0.4112,0.0304 -0.4092,0.0504 -0.4062,0.0705 -0.4023,0.0903 -0.3973,0.11 -0.3915,0.1293 -0.3847,0.1484 -0.3769,0.1671 -0.3683,0.1854 -0.3587,0.2032 -0.3483,0.2206 -0.3371,0.2374 -0.325,0.2536 -0.3122,0.2693 -0.2986,0.2843 -0.2843,0.2986 -0.2693,0.3122 -0.2537,0.325 -0.2374,0.3371 -0.2206,0.3483 -0.2032,0.3588 -0.1853,0.3683 -0.1671,0.3769 -0.1484,0.3846 -0.1293,0.3915 -0.11,0.3974 -0.0903,0.4023 -0.0705,0.4062 -0.0505,0.40917 -0.0303,0.41117 -0.0101,0.41218 1.2,1.19998 h 1.6 v 1.59999 L 73.249,-5 v -4 l 0.0053,-0.21588 0.0159,-0.21538 0.0264,-0.21434 0.0369,-0.21278 0.0473,-0.21072 0.0576,-0.2081 0.0678,-0.2051 0.0777,-0.2015 0.0875,-0.1974 0.0971,-0.1929 0.1065,-0.1879 0.1155,-0.1825 0.1244,-0.1766 0.1328,-0.1702 0.1411,-0.1635 0.1489,-0.1565 0.1564,-0.1489 0.1635,-0.141 0.1703,-0.1329 0.1766,-0.1243 0.1824,-0.1156 0.1879,-0.1064 0.1929,-0.0971 0.1975,-0.0875 0.2015,-0.0778 0.205,-0.0677 0.2082,-0.0576 0.2107,-0.0473 0.2128,-0.037 0.2143,-0.0264 0.2154,-0.0159 0.2159,-0.0053 h 44.449 l 0.216,0.0053 0.215,0.0159 0.215,0.0264 0.212,0.037 0.211,0.0473 0.208,0.0576 0.205,0.0677 0.202,0.0778 0.197,0.0875 0.193,0.0971 0.188,0.1064 0.182,0.1156 0.177,0.1243 0.17,0.1329 0.164,0.141 0.156,0.1489 0.149,0.1565 0.141,0.1635 0.133,0.1702 0.124,0.1766 0.116,0.1825 0.106,0.1879 0.098,0.1929 0.087,0.1974 0.078,0.2015 0.067,0.2051 0.058,0.2081 0.047,0.21072 0.037,0.21278 0.027,0.21434 0.016,0.21538 0.005,0.2159 1.2,1.19998 h 1.6 v 1.59999 L 130.498,-5 Z"
     id="path792" />
  <path
     style="stroke:#ff0000;fill:none"
     d="m 258.996,-9 -0.01,-0.41216 -0.031,-0.41117 -0.05,-0.40917 -0.07,-0.4062 -0.091,-0.4023 -0.11,-0.3974 -0.129,-0.3915 -0.149,-0.3846 -0.167,-0.3769 -0.185,-0.3683 -0.203,-0.3588 -0.221,-0.3483 -0.237,-0.3371 -0.254,-0.325 -0.269,-0.3122 -0.284,-0.2986 -0.299,-0.2843 -0.312,-0.2693 -0.325,-0.2536 -0.337,-0.2374 -0.349,-0.2206 -0.358,-0.2032 -0.369,-0.1854 -0.377,-0.1671 -0.384,-0.1484 -0.392,-0.1293 -0.397,-0.11 -0.402,-0.0903 -0.407,-0.0705 -0.409,-0.0504 -0.411,-0.0304 -0.412,-0.0101 h -44.449 l -0.412,0.0101 -0.411,0.0304 -0.41,0.0504 -0.406,0.0705 -0.402,0.0903 -0.397,0.11 -0.392,0.1293 -0.385,0.1484 -0.377,0.1671 -0.368,0.1854 -0.359,0.2032 -0.348,0.2206 -0.337,0.2374 -0.325,0.2536 -0.312,0.2693 -0.299,0.2843 -0.284,0.2986 -0.269,0.3122 -0.254,0.325 -0.237,0.3371 -0.221,0.3483 -0.203,0.3588 -0.186,0.3683 -0.167,0.3769 -0.148,0.3846 -0.129,0.3915 -0.11,0.3974 -0.091,0.4023 -0.07,0.4062 -0.051,0.40917 -0.03,0.41117 -0.01,0.41218 1.2,1.19998 h 1.6 v 1.59999 L 201.747,-5 v -4 l 0.005,-0.21588 0.016,-0.21538 0.027,-0.21434 0.036,-0.21278 0.048,-0.21072 0.057,-0.2081 0.068,-0.2051 0.078,-0.2015 0.087,-0.1974 0.097,-0.1929 0.107,-0.1879 0.115,-0.1825 0.125,-0.1766 0.133,-0.1702 0.141,-0.1635 0.149,-0.1565 0.156,-0.1489 0.164,-0.141 0.17,-0.1329 0.176,-0.1243 0.183,-0.1156 0.188,-0.1064 0.193,-0.0971 0.197,-0.0875 0.202,-0.0778 0.205,-0.0677 0.208,-0.0576 0.211,-0.0473 0.212,-0.037 0.215,-0.0264 0.215,-0.0159 0.216,-0.0053 h 44.449 l 0.216,0.0053 0.215,0.0159 0.215,0.0264 0.212,0.037 0.211,0.0473 0.208,0.0576 0.205,0.0677 0.202,0.0778 0.197,0.0875 0.193,0.0971 0.188,0.1064 0.182,0.1156 0.177,0.1243 0.17,0.1329 0.164,0.141 0.156,0.1489 0.149,0.1565 0.141,0.1635 0.133,0.1702 0.124,0.1766 0.116,0.1825 0.106,0.1879 0.097,0.1929 0.088,0.1974 0.078,0.2015 0.067,0.2051 0.058,0.2081 0.047,0.21072 0.037,0.21278 0.027,0.21434 0.016,0.21538 0.005,0.2159 1.2,1.19998 h 1.6 v 1.59999 L 258.996,-5 Z"
     id="path790" />
  <path
     style="stroke:#ff0000;fill:none"
     d="m 186.759,-5.01012 0.411,-0.03032 0.409,-0.05047 0.407,-0.07048 0.402,-0.09033 0.397,-0.10997 0.392,-0.12934 0.384,-0.14837 0.377,-0.16709 0.369,-0.18536 0.358,-0.20322 0.349,-0.22058 0.337,-0.2374 0.325,-0.25366 0.312,-0.2693 0.299,-0.28429 0.284,-0.2986 0.269,-0.31219 0.254,-0.32503 0.237,-0.33708 0.221,-0.34833 0.203,-0.35873 0.185,-0.36827 0.168,-0.37697 0.148,-0.3846 0.129,-0.3915 0.11,-0.3974 0.091,-0.4022 0.07,-0.4063 0.05,-0.4091 0.031,-0.4112 0.01,-0.4122 v -4 l -1.2,1.2 v 1.6 h -1.6 l -1.2,1.2 -0.005,0.2159 -0.016,0.2154 -0.027,0.2143 -0.037,0.2128 -0.047,0.2107 -0.058,0.2082 -0.067,0.205 -0.078,0.2015 -0.088,0.1974 -0.097,0.1929 -0.106,0.188 -0.116,0.1824 -0.124,0.1766 -0.133,0.1702 -0.141,0.1636 -0.149,0.1564 -0.156,0.1489 -0.164,0.14105 -0.17,0.13287 -0.177,0.12435 -0.182,0.11554 -0.188,0.10644 -0.193,0.09711 -0.197,0.08751 -0.202,0.07773 -0.205,0.06775 -0.208,0.0576 -0.211,0.04732 -0.212,0.03691 -0.215,0.02644 -0.215,0.01589 L 186.347,-9 h -44.449 l -0.216,-0.00529 -0.215,-0.01589 -0.215,-0.02644 -0.212,-0.03691 -0.211,-0.04732 -0.208,-0.0576 -0.205,-0.06775 -0.202,-0.07773 -0.197,-0.08751 -0.193,-0.09711 -0.188,-0.10644 -0.183,-0.11554 -0.176,-0.12435 -0.17,-0.13287 -0.164,-0.14105 -0.156,-0.1489 -0.149,-0.1564 -0.141,-0.1636 -0.133,-0.1702 -0.125,-0.1766 -0.115,-0.1824 -0.106,-0.188 -0.098,-0.1929 -0.087,-0.1974 -0.078,-0.2015 -0.068,-0.205 -0.057,-0.2082 -0.048,-0.2107 -0.036,-0.2128 -0.027,-0.2143 -0.016,-0.2154 -0.005,-0.2159 v -4 l -1.2,1.2 v 1.6 h -1.6 l -1.2,1.2 0.01,0.4122 0.03,0.4112 0.051,0.4091 0.07,0.4063 0.091,0.4022 0.11,0.3974 0.129,0.3915 0.148,0.3846 0.167,0.37697 0.186,0.36827 0.203,0.35873 0.221,0.34833 0.237,0.33708 0.254,0.32503 0.269,0.31219 0.284,0.2986 0.299,0.28429 0.312,0.2693 0.325,0.25366 0.337,0.2374 0.348,0.22058 0.359,0.20322 0.368,0.18536 0.377,0.16709 0.385,0.14837 0.392,0.12934 0.397,0.10997 0.402,0.09033 0.406,0.07048 0.41,0.05047 0.411,0.03032 L 141.898,-5 h 44.449 z"
     id="path788" />
  <path
     style="stroke:#ff0000;fill:none"
     d="m 58.2611,-5.01012 0.4112,-0.03032 0.4092,-0.05047 0.4062,-0.07048 0.4023,-0.09033 0.3974,-0.10997 0.3914,-0.12934 0.3847,-0.14837 0.3769,-0.16709 0.3683,-0.18536 0.3587,-0.20322 0.3484,-0.22058 0.337,-0.2374 0.3251,-0.25366 0.3122,-0.2693 0.2986,-0.28429 0.2843,-0.2986 0.2693,-0.31219 0.2536,-0.32503 0.2374,-0.33708 0.2206,-0.34833 0.2032,-0.35873 0.1854,-0.36827 0.1671,-0.37697 0.1483,-0.3846 0.1294,-0.3915 0.1099,-0.3974 0.0904,-0.4022 0.0705,-0.4063 0.0504,-0.4091 0.0303,-0.4112 0.0102,-0.4122 v -4 l -1.2,1.2 v 1.6 h -1.6 l -1.2,1.2 -0.0053,0.2159 -0.0159,0.2154 -0.0265,0.2143 -0.0369,0.2128 -0.0473,0.2107 -0.0576,0.2082 -0.0677,0.205 -0.0778,0.2015 -0.0875,0.1974 -0.0971,0.1929 -0.1064,0.188 -0.1156,0.1824 -0.1243,0.1766 -0.1329,0.1702 -0.1411,0.1636 -0.1489,0.1564 -0.1564,0.1489 -0.1635,0.14105 -0.1703,0.13287 -0.1765,0.12435 -0.1825,0.11554 -0.1879,0.10644 -0.1929,0.09711 -0.1974,0.08751 -0.2015,0.07773 -0.2051,0.06775 -0.2081,0.0576 -0.2107,0.04732 -0.2128,0.03691 -0.2144,0.02644 -0.2153,0.01589 L 57.849,-9 H 13.4 l -0.2159,-0.00529 -0.2154,-0.01589 -0.2143,-0.02644 -0.2128,-0.03691 -0.2107,-0.04732 -0.2082,-0.0576 -0.205,-0.06775 -0.2015,-0.07773 -0.1974,-0.08751 -0.1929,-0.09711 -0.188,-0.10644 -0.1824,-0.11554 -0.1766,-0.12435 -0.1702,-0.13287 -0.1636,-0.14105 -0.1564,-0.1489 -0.1489,-0.1564 -0.14105,-0.1636 -0.13287,-0.1702 -0.12435,-0.1766 -0.11554,-0.1824 -0.10644,-0.188 -0.09711,-0.1929 -0.08751,-0.1974 -0.07773,-0.2015 -0.06775,-0.205 -0.0576,-0.2082 L 9.08453,-12.5416 9.04762,-12.7544 9.02118,-12.9687 9.00529,-13.1841 9,-13.4 v -4 l -1.20001,1.2 v 1.6 H 6.2 l -1.2,1.2 0.01012,0.4122 0.03032,0.4112 0.05047,0.4091 0.07048,0.4063 0.09033,0.4022 0.10997,0.3974 0.12934,0.3915 0.14837,0.3846 0.16709,0.37697 0.18536,0.36827 0.20322,0.35873 0.22058,0.34833 0.2374,0.33708 0.25366,0.32503 0.2693,0.31219 0.28429,0.2986 0.2986,0.28429 0.31219,0.2693 0.32503,0.25366 0.33708,0.2374 0.34833,0.22058 0.35873,0.20322 0.36827,0.18536 0.37697,0.16709 0.3846,0.14837 0.3915,0.12934 0.3974,0.10997 0.4022,0.09033 0.4063,0.07048 0.4091,0.05047 0.4112,0.03032 L 13.4,-5 h 44.449 z"
     id="path786" />
  <path
     style="stroke:#ff0000;fill:none"
     d="m 258.996,-24.4 -0.01,-0.4121 -0.031,-0.4112 -0.05,-0.4092 -0.07,-0.4062 -0.091,-0.4023 -0.11,-0.3974 -0.129,-0.3915 -0.149,-0.3846 -0.167,-0.3769 -0.185,-0.3683 -0.203,-0.3587 -0.221,-0.3484 -0.237,-0.3371 -0.254,-0.325 -0.269,-0.3122 -0.284,-0.2986 -0.299,-0.2843 -0.312,-0.2693 -0.325,-0.2536 -0.337,-0.2374 -0.349,-0.2206 -0.358,-0.2032 -0.369,-0.1854 -0.377,-0.1671 -0.384,-0.1483 -0.392,-0.1294 -0.397,-0.1099 -0.402,-0.0904 -0.407,-0.0705 -0.409,-0.0504 -0.411,-0.0304 -0.412,-0.0101 h -44.449 l -0.412,0.0101 -0.411,0.0304 -0.41,0.0504 -0.406,0.0705 -0.402,0.0904 -0.397,0.1099 -0.392,0.1294 -0.385,0.1483 -0.377,0.1671 -0.368,0.1854 -0.359,0.2032 -0.348,0.2206 -0.337,0.2374 -0.325,0.2536 -0.312,0.2693 -0.299,0.2843 -0.284,0.2986 -0.269,0.3122 -0.254,0.325 -0.237,0.3371 -0.221,0.3484 -0.203,0.3587 -0.186,0.3683 -0.167,0.3769 -0.148,0.3846 -0.129,0.3915 -0.11,0.3974 -0.091,0.4023 -0.07,0.4062 -0.051,0.4092 -0.03,0.4112 -0.01,0.4121 1.2,1.2 h 1.6 v 1.6 l 1.2,1.2 v -4 l 0.005,-0.2159 0.016,-0.2154 0.027,-0.2143 0.036,-0.2128 0.048,-0.2107 0.057,-0.2081 0.068,-0.2051 0.078,-0.2015 0.087,-0.1974 0.097,-0.1929 0.107,-0.1879 0.115,-0.1825 0.125,-0.1766 0.133,-0.1702 0.141,-0.1635 0.149,-0.1564 0.156,-0.149 0.164,-0.141 0.17,-0.1329 0.176,-0.1243 0.183,-0.1156 0.188,-0.1064 0.193,-0.0971 0.197,-0.0875 0.202,-0.0778 0.205,-0.0677 0.208,-0.0576 0.211,-0.0473 0.212,-0.0369 0.215,-0.0265 0.215,-0.0159 0.216,-0.0053 h 44.449 l 0.216,0.0053 0.215,0.0159 0.215,0.0265 0.212,0.0369 0.211,0.0473 0.208,0.0576 0.205,0.0677 0.202,0.0778 0.197,0.0875 0.193,0.0971 0.188,0.1064 0.182,0.1156 0.177,0.1243 0.17,0.1329 0.164,0.141 0.156,0.149 0.149,0.1564 0.141,0.1635 0.133,0.1702 0.124,0.1766 0.116,0.1825 0.106,0.1879 0.097,0.1929 0.088,0.1974 0.078,0.2015 0.067,0.2051 0.058,0.2081 0.047,0.2107 0.037,0.2128 0.027,0.2143 0.016,0.2154 0.005,0.2159 1.2,1.2 h 1.6 v 1.6 l 1.2,1.2 z"
     id="path784" />
  <path
     style="stroke:#ff0000;fill:none"
     d="m 130.498,-24.4 -0.01,-0.4121 -0.03,-0.4112 -0.051,-0.4092 -0.07,-0.4062 -0.091,-0.4023 -0.11,-0.3974 -0.129,-0.3915 -0.148,-0.3846 -0.168,-0.3769 -0.185,-0.3683 -0.203,-0.3587 -0.221,-0.3484 -0.237,-0.3371 -0.254,-0.325 -0.269,-0.3122 -0.284,-0.2986 -0.299,-0.2843 -0.312,-0.2693 -0.325,-0.2536 -0.337,-0.2374 -0.349,-0.2206 -0.358,-0.2032 -0.369,-0.1854 -0.377,-0.1671 -0.384,-0.1483 -0.392,-0.1294 -0.397,-0.1099 -0.402,-0.0904 -0.407,-0.0705 -0.409,-0.0504 -0.411,-0.0304 -0.412,-0.0101 H 77.649 l -0.4122,0.0101 -0.4112,0.0304 -0.4092,0.0504 -0.4062,0.0705 -0.4023,0.0904 -0.3973,0.1099 -0.3915,0.1294 -0.3847,0.1483 -0.3769,0.1671 -0.3683,0.1854 -0.3587,0.2032 -0.3483,0.2206 -0.3371,0.2374 -0.325,0.2536 -0.3122,0.2693 -0.2986,0.2843 -0.2843,0.2986 -0.2693,0.3122 -0.2537,0.325 -0.2374,0.3371 -0.2206,0.3484 -0.2032,0.3587 -0.1853,0.3683 -0.1671,0.3769 -0.1484,0.3846 -0.1293,0.3915 -0.11,0.3974 -0.0903,0.4023 -0.0705,0.4062 -0.0505,0.4092 -0.0303,0.4112 -0.0101,0.4121 1.2,1.2 h 1.6 v 1.6 l 1.2,1.2 v -4 l 0.0053,-0.2159 0.0159,-0.2154 0.0264,-0.2143 0.0369,-0.2128 0.0473,-0.2107 0.0576,-0.2081 0.0678,-0.2051 0.0777,-0.2015 0.0875,-0.1974 0.0971,-0.1929 0.1065,-0.1879 0.1155,-0.1825 0.1244,-0.1766 0.1328,-0.1702 0.1411,-0.1635 0.1489,-0.1564 0.1564,-0.149 0.1635,-0.141 0.1703,-0.1329 0.1766,-0.1243 0.1824,-0.1156 0.1879,-0.1064 0.1929,-0.0971 0.1975,-0.0875 0.2015,-0.0778 0.205,-0.0677 0.2082,-0.0576 0.2107,-0.0473 0.2128,-0.0369 0.2143,-0.0265 0.2154,-0.0159 0.2159,-0.0053 h 44.449 l 0.216,0.0053 0.215,0.0159 0.215,0.0265 0.212,0.0369 0.211,0.0473 0.208,0.0576 0.205,0.0677 0.202,0.0778 0.197,0.0875 0.193,0.0971 0.188,0.1064 0.182,0.1156 0.177,0.1243 0.17,0.1329 0.164,0.141 0.156,0.149 0.149,0.1564 0.141,0.1635 0.133,0.1702 0.124,0.1766 0.116,0.1825 0.106,0.1879 0.098,0.1929 0.087,0.1974 0.078,0.2015 0.067,0.2051 0.058,0.2081 0.047,0.2107 0.037,0.2128 0.027,0.2143 0.016,0.2154 0.005,0.2159 1.2,1.2 h 1.6 v 1.6 l 1.2,1.2 z"
     id="path782" />
  <path
     style="stroke:#ff0000;fill:none"
     d="m 58.2611,-20.4101 0.4112,-0.0303 0.4092,-0.0505 0.4062,-0.0705 0.4023,-0.0903 0.3974,-0.11 0.3914,-0.1293 0.3847,-0.1484 0.3769,-0.1671 0.3683,-0.1853 0.3587,-0.2033 0.3484,-0.2205 0.337,-0.2374 0.3251,-0.2537 0.3122,-0.2693 0.2986,-0.2843 0.2843,-0.2986 0.2693,-0.3122 0.2536,-0.325 0.2374,-0.3371 0.2206,-0.3483 0.2032,-0.3588 0.1854,-0.3682 0.1671,-0.3769 0.1483,-0.3847 0.1294,-0.3915 0.1099,-0.3974 0.0904,-0.4022 0.0705,-0.4063 0.0504,-0.4091 0.0303,-0.4112 0.0102,-0.4122 v -4 l -1.2,1.2 v 1.6 h -1.6 l -1.2,1.2 -0.0053,0.2159 -0.0159,0.2154 -0.0265,0.2143 -0.0369,0.2128 -0.0473,0.2107 -0.0576,0.2082 -0.0677,0.205 -0.0778,0.2015 -0.0875,0.1975 -0.0971,0.1929 -0.1064,0.1879 -0.1156,0.1824 -0.1243,0.1766 -0.1329,0.1702 -0.1411,0.1636 -0.1489,0.1564 -0.1564,0.1489 -0.1635,0.1411 -0.1703,0.1328 -0.1765,0.1244 -0.1825,0.1155 -0.1879,0.1065 -0.1929,0.0971 -0.1974,0.0875 -0.2015,0.0777 -0.2051,0.0678 -0.2081,0.0576 -0.2107,0.0473 -0.2128,0.0369 -0.2144,0.0264 -0.2153,0.0159 L 57.849,-24.4 H 13.4 l -0.2159,-0.0053 -0.2154,-0.0159 -0.2143,-0.0264 -0.2128,-0.0369 -0.2107,-0.0473 -0.2082,-0.0576 -0.205,-0.0678 -0.2015,-0.0777 -0.1974,-0.0875 -0.1929,-0.0971 -0.188,-0.1065 -0.1824,-0.1155 -0.1766,-0.1244 -0.1702,-0.1328 -0.1636,-0.1411 -0.1564,-0.1489 -0.1489,-0.1564 -0.14105,-0.1636 -0.13287,-0.1702 -0.12435,-0.1766 -0.11554,-0.1824 -0.10644,-0.1879 -0.09711,-0.1929 -0.08751,-0.1975 -0.07773,-0.2015 -0.06775,-0.205 -0.0576,-0.2082 L 9.08453,-27.9416 9.04762,-28.1544 9.02118,-28.3687 9.00529,-28.5841 9,-28.8 v -4 l -1.20001,1.2 V -30 H 6.2 l -1.2,1.2 0.01012,0.4122 0.03032,0.4112 0.05047,0.4091 0.07048,0.4063 0.09033,0.4022 0.10997,0.3974 0.12934,0.3915 0.14837,0.3847 0.16709,0.3769 0.18536,0.3682 0.20322,0.3588 0.22058,0.3483 0.2374,0.3371 0.25366,0.325 0.2693,0.3122 0.28429,0.2986 0.2986,0.2843 0.31219,0.2693 0.32503,0.2537 0.33708,0.2374 0.34833,0.2205 0.35873,0.2033 0.36827,0.1853 0.37697,0.1671 0.3846,0.1484 0.3915,0.1293 0.3974,0.11 0.4022,0.0903 0.4063,0.0705 0.4091,0.0505 0.4112,0.0303 L 13.4,-20.4 h 44.449 z"
     id="path780" />
  <path
     style="stroke:#ff0000;fill:none"
     d="m 186.759,-20.4101 0.411,-0.0303 0.409,-0.0505 0.407,-0.0705 0.402,-0.0903 0.397,-0.11 0.392,-0.1293 0.384,-0.1484 0.377,-0.1671 0.369,-0.1853 0.358,-0.2033 0.349,-0.2205 0.337,-0.2374 0.325,-0.2537 0.312,-0.2693 0.299,-0.2843 0.284,-0.2986 0.269,-0.3122 0.254,-0.325 0.237,-0.3371 0.221,-0.3483 0.203,-0.3588 0.185,-0.3682 0.168,-0.3769 0.148,-0.3847 0.129,-0.3915 0.11,-0.3974 0.091,-0.4022 0.07,-0.4063 0.05,-0.4091 0.031,-0.4112 0.01,-0.4122 v -4 l -1.2,1.2 v 1.6 h -1.6 l -1.2,1.2 -0.005,0.2159 -0.016,0.2154 -0.027,0.2143 -0.037,0.2128 -0.047,0.2107 -0.058,0.2082 -0.067,0.205 -0.078,0.2015 -0.088,0.1975 -0.097,0.1929 -0.106,0.1879 -0.116,0.1824 -0.124,0.1766 -0.133,0.1702 -0.141,0.1636 -0.149,0.1564 -0.156,0.1489 -0.164,0.1411 -0.17,0.1328 -0.177,0.1244 -0.182,0.1155 -0.188,0.1065 -0.193,0.0971 -0.197,0.0875 -0.202,0.0777 -0.205,0.0678 -0.208,0.0576 -0.211,0.0473 -0.212,0.0369 -0.215,0.0264 -0.215,0.0159 -0.216,0.0053 h -44.449 l -0.216,-0.0053 -0.215,-0.0159 -0.215,-0.0264 -0.212,-0.0369 -0.211,-0.0473 -0.208,-0.0576 -0.205,-0.0678 -0.202,-0.0777 -0.197,-0.0875 -0.193,-0.0971 -0.188,-0.1065 -0.183,-0.1155 -0.176,-0.1244 -0.17,-0.1328 -0.164,-0.1411 -0.156,-0.1489 -0.149,-0.1564 -0.141,-0.1636 -0.133,-0.1702 -0.125,-0.1766 -0.115,-0.1824 -0.106,-0.1879 -0.098,-0.1929 -0.087,-0.1975 -0.078,-0.2015 -0.068,-0.205 -0.057,-0.2082 -0.048,-0.2107 -0.036,-0.2128 -0.027,-0.2143 -0.016,-0.2154 -0.005,-0.2159 v -4 l -1.2,1.2 v 1.6 h -1.6 l -1.2,1.2 0.01,0.4122 0.03,0.4112 0.051,0.4091 0.07,0.4063 0.091,0.4022 0.11,0.3974 0.129,0.3915 0.148,0.3847 0.167,0.3769 0.186,0.3682 0.203,0.3588 0.221,0.3483 0.237,0.3371 0.254,0.325 0.269,0.3122 0.284,0.2986 0.299,0.2843 0.312,0.2693 0.325,0.2537 0.337,0.2374 0.348,0.2205 0.359,0.2033 0.368,0.1853 0.377,0.1671 0.385,0.1484 0.392,0.1293 0.397,0.11 0.402,0.0903 0.406,0.0705 0.41,0.0505 0.411,0.0303 0.412,0.0101 h 44.449 z"
     id="path778" />
  <path
     style="stroke:#ff0000;fill:none"
     d="m 130.498,-39.8 -0.01,-0.4121 -0.03,-0.4112 -0.051,-0.4092 -0.07,-0.4062 -0.091,-0.4023 -0.11,-0.3974 -0.129,-0.3915 -0.148,-0.3846 -0.168,-0.3769 -0.185,-0.3683 -0.203,-0.3587 -0.221,-0.3484 -0.237,-0.337 -0.254,-0.3251 -0.269,-0.3122 -0.284,-0.2986 -0.299,-0.2843 -0.312,-0.2693 -0.325,-0.2536 -0.337,-0.2374 -0.349,-0.2206 -0.358,-0.2032 -0.369,-0.1854 -0.377,-0.1671 -0.384,-0.1483 -0.392,-0.1294 -0.397,-0.1099 -0.402,-0.0904 -0.407,-0.0705 -0.409,-0.0504 -0.411,-0.0303 -0.412,-0.0102 H 77.649 l -0.4122,0.0102 -0.4112,0.0303 -0.4092,0.0504 -0.4062,0.0705 -0.4023,0.0904 -0.3973,0.1099 -0.3915,0.1294 -0.3847,0.1483 -0.3769,0.1671 -0.3683,0.1854 -0.3587,0.2032 -0.3483,0.2206 -0.3371,0.2374 -0.325,0.2536 -0.3122,0.2693 -0.2986,0.2843 -0.2843,0.2986 -0.2693,0.3122 -0.2537,0.3251 -0.2374,0.337 -0.2206,0.3484 -0.2032,0.3587 -0.1853,0.3683 -0.1671,0.3769 -0.1484,0.3846 -0.1293,0.3915 -0.11,0.3974 -0.0903,0.4023 -0.0705,0.4062 -0.0505,0.4092 -0.0303,0.4112 -0.0101,0.4121 1.2,1.2 h 1.6 v 1.6 l 1.2,1.2 v -4 l 0.0053,-0.2159 0.0159,-0.2153 0.0264,-0.2144 0.0369,-0.2128 0.0473,-0.2107 0.0576,-0.2081 0.0678,-0.2051 0.0777,-0.2015 0.0875,-0.1974 0.0971,-0.1929 0.1065,-0.1879 0.1155,-0.1825 0.1244,-0.1766 0.1328,-0.1702 0.1411,-0.1635 0.1489,-0.1564 0.1564,-0.149 0.1635,-0.141 0.1703,-0.1329 0.1766,-0.1243 0.1824,-0.1156 0.1879,-0.1064 0.1929,-0.0971 0.1975,-0.0875 0.2015,-0.0778 0.205,-0.0677 0.2082,-0.0576 0.2107,-0.0473 0.2128,-0.0369 0.2143,-0.0265 0.2154,-0.0159 0.2159,-0.0053 h 44.449 l 0.216,0.0053 0.215,0.0159 0.215,0.0265 0.212,0.0369 0.211,0.0473 0.208,0.0576 0.205,0.0677 0.202,0.0778 0.197,0.0875 0.193,0.0971 0.188,0.1064 0.182,0.1156 0.177,0.1243 0.17,0.1329 0.164,0.141 0.156,0.149 0.149,0.1564 0.141,0.1635 0.133,0.1702 0.124,0.1766 0.116,0.1825 0.106,0.1879 0.098,0.1929 0.087,0.1974 0.078,0.2015 0.067,0.2051 0.058,0.2081 0.047,0.2107 0.037,0.2128 0.027,0.2144 0.016,0.2153 0.005,0.2159 1.2,1.2 h 1.6 v 1.6 l 1.2,1.2 z"
     id="path776" />
  <path
     style="stroke:#ff0000;fill:none"
     d="m 58.2611,-35.8101 0.4112,-0.0303 0.4092,-0.0505 0.4062,-0.0705 0.4023,-0.0903 0.3974,-0.11 0.3914,-0.1293 0.3847,-0.1484 0.3769,-0.1671 0.3683,-0.1853 0.3587,-0.2033 0.3484,-0.2205 0.337,-0.2374 0.3251,-0.2537 0.3122,-0.2693 0.2986,-0.2843 0.2843,-0.2986 0.2693,-0.3122 0.2536,-0.325 0.2374,-0.3371 0.2206,-0.3483 0.2032,-0.3587 0.1854,-0.3683 0.1671,-0.3769 0.1483,-0.3847 0.1294,-0.3915 0.1099,-0.3974 0.0904,-0.4022 0.0705,-0.4063 0.0504,-0.4091 0.0303,-0.4112 0.0102,-0.4122 v -4 l -1.2,1.2 v 1.6 h -1.6 l -1.2,1.2 -0.0053,0.2159 -0.0159,0.2154 -0.0265,0.2143 -0.0369,0.2128 -0.0473,0.2107 -0.0576,0.2082 -0.0677,0.205 -0.0778,0.2015 -0.0875,0.1975 -0.0971,0.1929 -0.1064,0.1879 -0.1156,0.1824 -0.1243,0.1766 -0.1329,0.1703 -0.1411,0.1635 -0.1489,0.1564 -0.1564,0.1489 -0.1635,0.1411 -0.1703,0.1328 -0.1765,0.1244 -0.1825,0.1155 -0.1879,0.1065 -0.1929,0.0971 -0.1974,0.0875 -0.2015,0.0777 -0.2051,0.0678 -0.2081,0.0576 -0.2107,0.0473 -0.2128,0.0369 -0.2144,0.0264 -0.2153,0.0159 L 57.849,-39.8 H 13.4 l -0.2159,-0.0053 -0.2154,-0.0159 -0.2143,-0.0264 -0.2128,-0.0369 -0.2107,-0.0473 -0.2082,-0.0576 -0.205,-0.0678 -0.2015,-0.0777 -0.1974,-0.0875 -0.1929,-0.0971 -0.188,-0.1065 -0.1824,-0.1155 -0.1766,-0.1244 -0.1702,-0.1328 -0.1636,-0.1411 -0.1564,-0.1489 -0.1489,-0.1564 -0.14105,-0.1635 -0.13287,-0.1703 -0.12435,-0.1766 -0.11554,-0.1824 -0.10644,-0.1879 -0.09711,-0.1929 -0.08751,-0.1975 -0.07773,-0.2015 -0.06775,-0.205 -0.0576,-0.2082 L 9.08453,-43.3416 9.04762,-43.5544 9.02118,-43.7687 9.00529,-43.9841 9,-44.2 v -4 L 7.79999,-47 v 1.6 H 6.2 l -1.2,1.2 0.01012,0.4122 0.03032,0.4112 0.05047,0.4091 0.07048,0.4063 0.09033,0.4022 0.10997,0.3974 0.12934,0.3915 0.14837,0.3847 0.16709,0.3769 0.18536,0.3683 0.20322,0.3587 0.22058,0.3483 0.2374,0.3371 0.25366,0.325 0.2693,0.3122 0.28429,0.2986 0.2986,0.2843 0.31219,0.2693 0.32503,0.2537 0.33708,0.2374 0.34833,0.2205 0.35873,0.2033 0.36827,0.1853 0.37697,0.1671 0.3846,0.1484 0.3915,0.1293 0.3974,0.11 0.4022,0.0903 0.4063,0.0705 0.4091,0.0505 0.4112,0.0303 L 13.4,-35.8 h 44.449 z"
     id="path774" />
  <path
     style="stroke:#ff0000;fill:none"
     d="m 263.959,-51.2101 0.411,-0.0303 0.409,-0.0505 0.407,-0.0705 0.402,-0.0903 0.397,-0.11 0.392,-0.1293 0.384,-0.1484 0.377,-0.1671 0.369,-0.1853 0.358,-0.2033 0.349,-0.2205 0.337,-0.2374 0.325,-0.2537 0.312,-0.2693 0.299,-0.2843 0.284,-0.2986 0.269,-0.3122 0.254,-0.325 0.237,-0.3371 0.221,-0.3483 0.203,-0.3588 0.185,-0.3682 0.168,-0.377 0.148,-0.3846 0.129,-0.3915 0.11,-0.3974 0.091,-0.4022 0.07,-0.4063 0.05,-0.4091 0.031,-0.4112 0.01,-0.4122 v -5.5 h -4 v 5.5 l -0.005,0.2159 -0.016,0.2154 -0.027,0.2143 -0.037,0.2128 -0.047,0.2107 -0.058,0.2082 -0.067,0.205 -0.078,0.2015 -0.088,0.1974 -0.097,0.193 -0.106,0.1879 -0.116,0.1824 -0.124,0.1766 -0.133,0.1702 -0.141,0.1636 -0.149,0.1564 -0.156,0.1489 -0.164,0.1411 -0.17,0.1328 -0.177,0.1244 -0.182,0.1155 -0.188,0.1065 -0.193,0.0971 -0.197,0.0875 -0.202,0.0777 -0.205,0.0677 -0.208,0.0577 -0.211,0.0473 -0.212,0.0369 -0.215,0.0264 -0.215,0.0159 -0.216,0.0053 h -44.449 l -0.216,-0.0053 -0.215,-0.0159 -0.215,-0.0264 -0.212,-0.0369 -0.211,-0.0473 -0.208,-0.0577 -0.205,-0.0677 -0.202,-0.0777 -0.197,-0.0875 -0.193,-0.0971 -0.188,-0.1065 -0.183,-0.1155 -0.176,-0.1244 -0.17,-0.1328 -0.164,-0.1411 -0.156,-0.1489 -0.149,-0.1564 -0.141,-0.1636 -0.133,-0.1702 -0.125,-0.1766 -0.115,-0.1824 -0.107,-0.1879 -0.097,-0.193 -0.087,-0.1974 -0.078,-0.2015 -0.068,-0.205 -0.057,-0.2082 -0.048,-0.2107 -0.036,-0.2128 -0.027,-0.2143 -0.016,-0.2154 -0.005,-0.2159 v -5.5 h -4 v 5.5 l 0.01,0.4122 0.03,0.4112 0.051,0.4091 0.07,0.4063 0.091,0.4022 0.11,0.3974 0.129,0.3915 0.148,0.3846 0.167,0.377 0.186,0.3682 0.203,0.3588 0.221,0.3483 0.237,0.3371 0.254,0.325 0.269,0.3122 0.284,0.2986 0.299,0.2843 0.312,0.2693 0.325,0.2537 0.337,0.2374 0.348,0.2205 0.359,0.2033 0.368,0.1853 0.377,0.1671 0.385,0.1484 0.392,0.1293 0.397,0.11 0.402,0.0903 0.406,0.0705 0.41,0.0505 0.411,0.0303 0.412,0.0101 h 44.449 z"
     id="path772" />
  <path
     style="stroke:#ff0000;fill:none"
     d="m 69.2,-52.4 h 1.6 V -54 l 1.2,-1.2 v -64 l -1.2,-1.2 v -1.6 h -1.6 l -1.2,-1.2 v 72 z"
     id="path770" />
  <path
     style="stroke:#ff0000;fill:none"
     d="M 6.20001,-52.4 H 7.8 V -54 L 9,-55.2 v -64 l -1.2,-1.2 V -122 H 6.20001 L 5,-123.2 v 72 z"
     id="path768" />
  <path
     style="stroke:#ff0000;fill:none"
     d="m 13.2,-52.4 h 1.6 V -54 l 1.2,-1.2 v -64 l -1.2,-1.2 v -1.6 h -1.6 l -1.2,-1.2 v 72 z"
     id="path766" />
  <path
     style="stroke:#ff0000;fill:none"
     d="m 20.2,-52.4 h 1.6 V -54 l 1.2,-1.2 v -64 l -1.2,-1.2 v -1.6 h -1.6 l -1.2,-1.2 v 72 z"
     id="path764" />
  <path
     style="stroke:#ff0000;fill:none"
     d="m 34.2,-52.4 h 1.6 V -54 l 1.2,-1.2 v -64 l -1.2,-1.2 v -1.6 h -1.6 l -1.2,-1.2 v 72 z"
     id="path762" />
  <path
     style="stroke:#ff0000;fill:none"
     d="m 41.2,-52.4 h 1.6 V -54 l 1.2,-1.2 v -64 l -1.2,-1.2 v -1.6 h -1.6 l -1.2,-1.2 v 72 z"
     id="path760" />
  <path
     style="stroke:#ff0000;fill:none"
     d="m 48.2,-52.4 h 1.6 V -54 l 1.2,-1.2 v -64 l -1.2,-1.2 v -1.6 h -1.6 l -1.2,-1.2 v 72 z"
     id="path758" />
  <path
     style="stroke:#ff0000;fill:none"
     d="m 55.2,-52.4 h 1.6 V -54 l 1.2,-1.2 v -64 l -1.2,-1.2 v -1.6 h -1.6 l -1.2,-1.2 v 72 z"
     id="path756" />
  <path
     style="stroke:#ff0000;fill:none"
     d="m 62.2,-52.4 h 1.6 V -54 l 1.2,-1.2 v -64 l -1.2,-1.2 v -1.6 h -1.6 l -1.2,-1.2 v 72 z"
     id="path754" />
  <path
     style="stroke:#ff0000;fill:none"
     d="m 27.2,-52.4 h 1.6 V -54 l 1.2,-1.2 v -64 l -1.2,-1.2 v -1.6 h -1.6 l -1.2,-1.2 v 72 z"
     id="path752" />
  <path
     style="stroke:#ff0000;fill:none"
     d="m 193.698,-132.6 h -53.249 v 81.4 h 53.249 z"
     id="path750" />
  <path
     style="stroke:#ff0000;fill:none"
     d="m 128.065,-51.2053 0.215,-0.0159 0.215,-0.0264 0.212,-0.0369 0.211,-0.0473 0.208,-0.0577 0.205,-0.0677 0.202,-0.0777 0.197,-0.0875 0.193,-0.0971 0.188,-0.1065 0.182,-0.1155 0.177,-0.1244 0.17,-0.1328 0.164,-0.1411 0.156,-0.1489 0.149,-0.1564 0.141,-0.1636 0.133,-0.1702 0.124,-0.1766 0.116,-0.1824 0.106,-0.1879 0.098,-0.193 0.087,-0.1974 0.078,-0.2015 0.068,-0.205 0.057,-0.2082 0.047,-0.2107 0.037,-0.2128 0.027,-0.2143 0.016,-0.2154 0.005,-0.2159 v -5.6 h 5.2 v -65.5 l -0.011,-0.442 -0.032,-0.44 -0.054,-0.439 -0.076,-0.435 -0.097,-0.431 -0.118,-0.426 -0.138,-0.419 -0.159,-0.412 -0.179,-0.404 -0.199,-0.395 -0.217,-0.384 -0.237,-0.373 -0.254,-0.361 -0.272,-0.349 -0.288,-0.334 -0.305,-0.32 -0.32,-0.305 -0.334,-0.288 -0.349,-0.272 -0.361,-0.254 -0.373,-0.237 -0.384,-0.217 -0.395,-0.199 -0.404,-0.179 -0.412,-0.159 -0.419,-0.138 -0.426,-0.118 -0.431,-0.097 -0.435,-0.076 -0.439,-0.054 -0.44,-0.032 -0.442,-0.011 H 84 l -0.4416,0.011 -0.4406,0.032 -0.4384,0.054 -0.4352,0.076 -0.431,0.097 -0.4258,0.118 -0.4194,0.138 -0.4122,0.159 -0.4038,0.179 -0.3946,0.199 -0.3843,0.217 -0.3732,0.237 -0.3612,0.254 -0.3482,0.272 -0.3345,0.288 -0.32,0.305 -0.3046,0.32 -0.2885,0.334 -0.2718,0.349 -0.2543,0.361 -0.2364,0.373 -0.2177,0.384 -0.1986,0.395 -0.179,0.404 -0.159,0.412 -0.1386,0.419 -0.1178,0.426 -0.0968,0.431 -0.0755,0.435 -0.0541,0.439 -0.0325,0.44 L 75,-126.7 v 65.5 h 5.2 v 5.6 l 0.0053,0.2159 0.0159,0.2154 0.0264,0.2143 0.0369,0.2128 0.0473,0.2107 0.0577,0.2082 0.0677,0.205 0.0777,0.2015 0.0875,0.1974 0.0971,0.193 0.1065,0.1879 0.1155,0.1824 0.1244,0.1766 0.1328,0.1702 0.1411,0.1636 0.1489,0.1564 0.1564,0.1489 0.1636,0.1411 0.1702,0.1328 0.1766,0.1244 0.1824,0.1155 0.1879,0.1065 0.193,0.0971 0.1974,0.0875 0.2015,0.0777 0.205,0.0677 0.2082,0.0577 0.2107,0.0473 0.2128,0.0369 0.2143,0.0264 0.2154,0.0159 L 84.6,-51.2 h 43.249 z m -22.484,-23.2312 -0.642,-0.0474 -0.639,-0.0788 -0.634,-0.11 -0.628,-0.141 -0.62,-0.1717 -0.612,-0.2019 -0.6,-0.2317 -0.589,-0.2608 -0.575,-0.2894 -0.5596,-0.3173 -0.5438,-0.3444 -0.5263,-0.3706 -0.5074,-0.396 -0.4874,-0.4204 -0.4662,-0.4439 -0.4439,-0.4662 -0.4204,-0.4874 -0.396,-0.5074 -0.3706,-0.5263 -0.3444,-0.5438 -0.3173,-0.5601 -0.2894,-0.5749 -0.2608,-0.5885 -0.2317,-0.6005 -0.2019,-0.6112 -0.1717,-0.6204 -0.141,-0.628 -0.1101,-0.6342 -0.0788,-0.6389 -0.0473,-0.6419 -0.0158,-0.6435 0.0158,-0.6435 0.0473,-0.6419 0.0788,-0.6389 0.1101,-0.6342 0.141,-0.628 0.1717,-0.6204 0.2019,-0.6112 0.2317,-0.6005 0.2608,-0.5885 0.2894,-0.5749 0.3173,-0.5601 0.3444,-0.5438 0.3706,-0.5263 0.396,-0.5074 0.4204,-0.4874 0.4439,-0.4662 0.4662,-0.4438 0.4874,-0.4205 0.5074,-0.396 0.5263,-0.3706 0.5438,-0.3444 0.5596,-0.3173 0.575,-0.2894 0.589,-0.2608 0.6,-0.2317 0.612,-0.2023 0.62,-0.171 0.628,-0.141 0.634,-0.11 0.639,-0.079 0.642,-0.047 0.643,-0.016 0.644,0.016 0.642,0.047 0.639,0.079 0.634,0.11 0.628,0.141 0.62,0.171 0.612,0.2023 0.6,0.2317 0.589,0.2608 0.575,0.2894 0.56,0.3173 0.543,0.3444 0.527,0.3706 0.507,0.396 0.487,0.4205 0.467,0.4438 0.444,0.4662 0.42,0.4874 0.396,0.5074 0.371,0.5263 0.344,0.5438 0.317,0.5601 0.29,0.5749 0.26,0.5885 0.232,0.6005 0.202,0.6112 0.172,0.6204 0.141,0.628 0.11,0.6342 0.079,0.6389 0.047,0.6419 0.016,0.6435 -0.016,0.6435 -0.047,0.6419 -0.079,0.6389 -0.11,0.6342 -0.141,0.628 -0.172,0.6204 -0.202,0.6112 -0.232,0.6005 -0.26,0.5885 -0.29,0.5749 -0.317,0.5601 -0.344,0.5438 -0.371,0.5263 -0.396,0.5074 -0.42,0.4874 -0.444,0.4662 -0.467,0.4439 -0.487,0.4204 -0.507,0.396 -0.527,0.3706 -0.543,0.3444 -0.56,0.3173 -0.575,0.2894 -0.589,0.2608 -0.6,0.2317 -0.612,0.2019 -0.62,0.1717 -0.628,0.141 -0.634,0.11 -0.639,0.0788 -0.642,0.0474 -0.644,0.0158 z"
     id="path748" />
  <path
     style="stroke:#ff0000;fill:none"
     d="m 200.698,-140.6 h -4 v 89.4 h 4 z"
     id="path746" />
  <path
     style="stroke:#ff0000;fill:none"
     d="m 207.698,-140.6 h -4 v 89.4 h 4 z"
     id="path744" />
  <path
     style="stroke:#ff0000;fill:none"
     d="m 184.898,-143.6 h -44.449 v 8 h 44.449 z"
     id="path657" />
  <metadata
     id="metadata686">
    <rdf:RDF>
      <cc:Work
         rdf:about="">
        <dc:title>OpenSCAD Model</dc:title>
      </cc:Work>
    </rdf:RDF>
  </metadata>
</svg>
