<?xml version="1.0" encoding="UTF-8" standalone="no"?>
<svg
   width="282mm"
   height="288mm"
   viewBox="5 -293 282 288"
   version="1.1"
   id="svg6"
   sodipodi:docname="bob_dishwasher_sheet_1_export.svg"
   inkscape:version="1.2.2 (b0a8486541, 2022-12-01)"
   xmlns:inkscape="http://www.inkscape.org/namespaces/inkscape"
   xmlns:sodipodi="http://sodipodi.sourceforge.net/DTD/sodipodi-0.dtd"
   xmlns="http://www.w3.org/2000/svg"
   xmlns:svg="http://www.w3.org/2000/svg"
   xmlns:rdf="http://www.w3.org/1999/02/22-rdf-syntax-ns#"
   xmlns:cc="http://creativecommons.org/ns#"
   xmlns:dc="http://purl.org/dc/elements/1.1/">
  <defs
     id="defs10" />
  <sodipodi:namedview
     id="namedview8"
     pagecolor="#ffffff"
     bordercolor="#000000"
     borderopacity="0.25"
     inkscape:showpageshadow="2"
     inkscape:pageopacity="0.0"
     inkscape:pagecheckerboard="0"
     inkscape:deskcolor="#d1d1d1"
     inkscape:document-units="mm"
     showgrid="false"
     inkscape:zoom="0.47174841"
     inkscape:cx="722.84293"
     inkscape:cy="531.00338"
     inkscape:window-width="1452"
     inkscape:window-height="1233"
     inkscape:window-x="1729"
     inkscape:window-y="99"
     inkscape:window-maximized="0"
     inkscape:current-layer="svg6" />
  <title
     id="title2">OpenSCAD Model</title>
  <path
     style="fill:none;stroke:#ff0000"
     d="m 143.44729,-124.67644 0.46123,-0.011 0.46011,-0.034 0.45796,-0.057 0.4545,-0.079 0.4502,-0.101 0.4447,-0.123 0.438,-0.144 0.4305,-0.167 0.4218,-0.187 0.4121,-0.207 0.4015,-0.227 0.3898,-0.247 0.3772,-0.266 0.3637,-0.284 0.3493,-0.301 0.3342,-0.318 0.3181,-0.334 0.3014,-0.35 0.2838,-0.363 0.2657,-0.378 0.2468,-0.389 0.2274,-0.402 0.2075,-0.412 0.1869,-0.422 0.1661,-0.43 0.1447,-0.438 0.1231,-0.445 0.1011,-0.45 0.0788,-0.455 0.0565,-0.458 0.034,-0.46 0.0113,-0.461 v -49.388 l -0.0113,-0.461 -0.034,-0.46 -0.0565,-0.458 -0.0788,-0.455 -0.1011,-0.45 -0.1231,-0.444 -0.1447,-0.439 -0.1661,-0.43 -0.1869,-0.422 -0.2075,-0.412 -0.2274,-0.401 -0.2468,-0.39 -0.2657,-0.377 -0.2838,-0.364 -0.3014,-0.349 -0.3181,-0.335 -0.3342,-0.318 -0.3493,-0.301 -0.3637,-0.284 -0.3772,-0.266 -0.3898,-0.246 -0.4015,-0.228 -0.4121,-0.207 -0.4218,-0.187 -0.4305,-0.166 -0.438,-0.145 -0.4447,-0.123 -0.4502,-0.101 -0.4545,-0.079 -0.45796,-0.056 -0.46011,-0.034 -0.46125,-0.012 -1.19998,1.2 v 1.6 h -1.59999 l -1.20001,1.2 h 4 l 0.26495,0.007 0.26433,0.019 0.26305,0.033 0.26117,0.045 0.2586,0.058 0.2554,0.071 0.2517,0.083 0.2473,0.095 0.2423,0.108 0.2367,0.119 0.2306,0.131 0.224,0.141 0.2167,0.153 0.2089,0.163 0.2007,0.173 0.192,0.183 0.1827,0.192 0.1731,0.201 0.1631,0.208 0.1526,0.217 0.1418,0.224 0.1307,0.231 0.1191,0.236 0.1074,0.243 0.0954,0.247 0.0832,0.252 0.0707,0.255 0.058,0.259 0.0453,0.261 0.0325,0.263 0.016,0.217 v -1.163 h 2.01 v 4.15 h -2 v 44.038 h 2 v 4.15 h -2.01 v -1.163 l -0.016,0.217 -0.0325,0.263 -0.0453,0.261 -0.058,0.259 -0.0707,0.256 -0.0832,0.251 -0.0954,0.247 -0.1074,0.243 -0.1191,0.237 -0.1307,0.23 -0.1418,0.224 -0.1526,0.217 -0.1631,0.209 -0.1731,0.2 -0.1827,0.192 -0.192,0.183 -0.2007,0.173 -0.2089,0.163 -0.2167,0.153 -0.224,0.142 -0.2306,0.13 -0.2367,0.12 -0.2423,0.107 -0.2473,0.095 -0.2517,0.083 -0.2554,0.071 -0.2586,0.058 -0.26117,0.046 -0.26305,0.032 -0.26433,0.019 -0.26497,0.007 -1.19998,1.2 v 1.6 h -1.59999 l -1.20001,1.2 z"
     id="path224" />
  <path
     style="fill:none;stroke:#ff0000"
     d="m 33.231587,-200.66637 -0.4612,0.011 -0.4601,0.034 -0.458,0.057 -0.4545,0.079 -0.4502,0.101 -0.4447,0.123 -0.438,0.144 -0.4305,0.167 -0.4218,0.187 -0.4121,0.207 -0.4014,0.227 -0.3898,0.247 -0.3773,0.266 -0.3637,0.284 -0.3493,0.301 -0.3342,0.318 -0.3181,0.334 -0.3014,0.35 -0.2838,0.363 -0.2657,0.378 -0.2468,0.389 -0.2274,0.402 -0.2075,0.412 -0.1869,0.422 -0.1661,0.43 -0.1447,0.438 -0.1231,0.445 -0.1011,0.45 -0.0788,0.455 -0.0565,0.458 -0.034,0.46 -0.0113,0.461 v 49.388 l 0.0113,0.461 0.034,0.46 0.0565,0.458 0.0788,0.455 0.1011,0.45 0.1231,0.444 0.1447,0.439 0.1661,0.43 0.1869,0.422 0.2075,0.412 0.2274,0.401 0.2468,0.39 0.2657,0.377 0.2838,0.364 0.3014,0.349 0.3181,0.335 0.3342,0.318 0.3493,0.301 0.3637,0.284 0.3773,0.266 0.3898,0.246 0.4014,0.228 0.4121,0.207 0.4218,0.187 0.4305,0.166 0.438,0.145 0.4447,0.123 0.4502,0.101 0.4545,0.079 0.458,0.056 0.4601,0.034 0.4612,0.012 1.2,-1.2 v -1.6 h 1.6 l 1.2,-1.2 h -4 l -0.2649,-0.007 -0.2644,-0.019 -0.263,-0.033 -0.2612,-0.045 -0.2586,-0.058 -0.2554,-0.071 -0.2517,-0.083 -0.2473,-0.095 -0.2423,-0.108 -0.2367,-0.119 -0.2306,-0.131 -0.224,-0.141 -0.2167,-0.153 -0.2089,-0.163 -0.2007,-0.173 -0.192,-0.183 -0.1827,-0.192 -0.1731,-0.201 -0.1631,-0.208 -0.1526,-0.217 -0.1418,-0.224 -0.1307,-0.231 -0.1191,-0.236 -0.1074,-0.243 -0.0954,-0.247 -0.0832,-0.252 -0.0707,-0.255 -0.058,-0.259 -0.0453,-0.261 -0.0325,-0.263 -0.016,-0.217 v 1.163 h -2.01 v -4.15 h 2 v -44.038 h -2 v -4.15 h 2.01 v 1.163 l 0.016,-0.217 0.0325,-0.263 0.0453,-0.261 0.058,-0.259 0.0707,-0.256 0.0832,-0.251 0.0954,-0.247 0.1074,-0.243 0.1191,-0.237 0.1307,-0.23 0.1418,-0.224 0.1526,-0.217 0.1631,-0.209 0.1731,-0.2 0.1827,-0.192 0.192,-0.183 0.2007,-0.173 0.2089,-0.163 0.2167,-0.153 0.224,-0.142 0.2306,-0.13 0.2367,-0.12 0.2423,-0.107 0.2473,-0.095 0.2517,-0.083 0.2554,-0.071 0.2586,-0.058 0.2612,-0.046 0.263,-0.032 0.2644,-0.019 0.2649,-0.007 1.2,-1.2 v -1.6 h 1.6 l 1.2,-1.2 z"
     id="path222" />
  <path
     style="fill:none;stroke:#ff0000"
     d="m 100.53358,-121.13349 0.4612,-0.011 0.4601,-0.034 0.4579,-0.057 0.4546,-0.079 0.4502,-0.101 0.4447,-0.123 0.438,-0.144 0.4305,-0.167 0.4218,-0.187 0.4121,-0.207 0.4014,-0.227 0.3898,-0.247 0.3773,-0.266 0.3637,-0.284 0.3493,-0.301 0.3342,-0.318 0.3181,-0.334 0.3014,-0.35 0.2838,-0.363 0.2657,-0.378 0.2468,-0.389 0.2274,-0.402 0.2075,-0.412 0.1869,-0.422 0.1661,-0.43 0.1447,-0.438 0.1231,-0.445 0.101,-0.45 0.0789,-0.455 0.0565,-0.458 0.0339,-0.46 0.0114,-0.461 v -49.388 l -0.0114,-0.461 -0.0339,-0.46 -0.0565,-0.458 -0.0789,-0.455 -0.101,-0.45 -0.1231,-0.444 -0.1447,-0.439 -0.1661,-0.43 -0.1869,-0.422 -0.2075,-0.412 -0.2274,-0.401 -0.2468,-0.39 -0.2657,-0.377 -0.2838,-0.364 -0.3014,-0.349 -0.3181,-0.335 -0.3342,-0.318 -0.3493,-0.301 -0.3637,-0.284 -0.3773,-0.266 -0.3898,-0.246 -0.4014,-0.228 -0.4121,-0.207 -0.4218,-0.187 -0.4305,-0.166 -0.438,-0.145 -0.4447,-0.123 -0.4502,-0.101 -0.4546,-0.079 -0.4579,-0.056 -0.4601,-0.034 -0.4612,-0.012 -1.199992,1.2 v 1.6 h -1.6 l -1.2,1.2 h 3.999992 l 0.2649,0.007 0.2644,0.019 0.263,0.033 0.2612,0.045 0.2586,0.058 0.2554,0.071 0.2517,0.083 0.2473,0.095 0.2423,0.108 0.2367,0.119 0.2306,0.131 0.2239,0.141 0.2168,0.153 0.2089,0.163 0.2007,0.173 0.1919,0.183 0.1828,0.192 0.1731,0.201 0.1631,0.208 0.1526,0.217 0.1418,0.224 0.1306,0.231 0.1192,0.236 0.1074,0.243 0.0954,0.247 0.0832,0.252 0.0706,0.255 0.0581,0.259 0.0453,0.261 0.0325,0.263 0.016,0.217 v -1.163 h 2.01 v 4.15 h -2 v 44.038 h 2 v 4.15 h -2.01 v -1.163 l -0.016,0.217 -0.0325,0.263 -0.0453,0.261 -0.0581,0.259 -0.0706,0.256 -0.0832,0.251 -0.0954,0.247 -0.1074,0.243 -0.1192,0.237 -0.1306,0.23 -0.1418,0.224 -0.1526,0.217 -0.1631,0.209 -0.1731,0.2 -0.1828,0.192 -0.1919,0.183 -0.2007,0.173 -0.2089,0.163 -0.2168,0.153 -0.2239,0.142 -0.2306,0.13 -0.2367,0.12 -0.2423,0.107 -0.2473,0.095 -0.2517,0.083 -0.2554,0.071 -0.2586,0.058 -0.2612,0.046 -0.263,0.032 -0.2644,0.019 -0.2649,0.007 -1.199992,1.2 v 1.6 h -1.6 l -1.2,1.2 z"
     id="path220" />
  <path
     style="fill:none;stroke:#ff0000"
     d="m 98.287358,-204.35664 -0.4612,0.011 -0.4601,0.034 -0.458,0.057 -0.4545,0.079 -0.4502,0.101 -0.4447,0.123 -0.438,0.144 -0.4305,0.167 -0.4218,0.187 -0.4121,0.207 -0.4014,0.227 -0.3898,0.247 -0.3773,0.266 -0.3637,0.284 -0.3493,0.301 -0.3342,0.318 -0.3181,0.334 -0.3014,0.35 -0.2838,0.363 -0.2657,0.378 -0.2468,0.389 -0.2274,0.402 -0.2075,0.412 -0.1869,0.422 -0.1661,0.43 -0.1447,0.438 -0.1231,0.445 -0.1011,0.45 -0.0788,0.455 -0.0565,0.458 -0.034,0.46 -0.0113,0.461 v 49.388 l 0.0113,0.461 0.034,0.46 0.0565,0.458 0.0788,0.455 0.1011,0.45 0.1231,0.444 0.1447,0.439 0.1661,0.43 0.1869,0.422 0.2075,0.412 0.2274,0.401 0.2468,0.39 0.2657,0.377 0.2838,0.364 0.3014,0.349 0.3181,0.335 0.3342,0.318 0.3493,0.301 0.3637,0.284 0.3773,0.266 0.3898,0.246 0.4014,0.228 0.4121,0.207 0.4218,0.187 0.4305,0.166 0.438,0.145 0.4447,0.123 0.4502,0.101 0.4545,0.079 0.458,0.056 0.4601,0.034 0.4612,0.012 1.199996,-1.2 v -1.6 h 1.599996 l 1.2,-1.2 h -3.999992 l -0.265,-0.007 -0.2643,-0.019 -0.263,-0.033 -0.2612,-0.045 -0.2586,-0.058 -0.2554,-0.071 -0.2517,-0.083 -0.2473,-0.095 -0.2423,-0.108 -0.2367,-0.119 -0.2306,-0.131 -0.224,-0.141 -0.2167,-0.153 -0.2089,-0.163 -0.2007,-0.173 -0.192,-0.183 -0.1827,-0.192 -0.1731,-0.201 -0.1631,-0.208 -0.1526,-0.217 -0.1418,-0.224 -0.1307,-0.231 -0.1191,-0.236 -0.1074,-0.243 -0.0954,-0.247 -0.0832,-0.252 -0.0707,-0.255 -0.058,-0.259 -0.0453,-0.261 -0.0325,-0.263 -0.016,-0.217 v 1.163 h -2.01 v -4.15 h 2 v -44.038 h -2 v -4.15 h 2.01 v 1.163 l 0.016,-0.217 0.0325,-0.263 0.0453,-0.261 0.058,-0.259 0.0707,-0.256 0.0832,-0.251 0.0954,-0.247 0.1074,-0.243 0.1191,-0.237 0.1307,-0.23 0.1418,-0.224 0.1526,-0.217 0.1631,-0.209 0.1731,-0.2 0.1827,-0.192 0.192,-0.183 0.2007,-0.173 0.2089,-0.163 0.2167,-0.153 0.224,-0.142 0.2306,-0.13 0.2367,-0.12 0.2423,-0.107 0.2473,-0.095 0.2517,-0.083 0.2554,-0.071 0.2586,-0.058 0.2612,-0.046 0.263,-0.032 0.2643,-0.019 0.265,-0.007 1.199996,-1.2 v -1.6 h 1.599996 l 1.2,-1.2 z"
     id="path218" />
  <path
     style="fill:none;stroke:#ff0000"
     d="m 50.722736,-188.1856 -0.4612,0.011 -0.4601,0.034 -0.45791,0.057 -0.45459,0.079 -0.45021,0.101 -0.44469,0.123 -0.43801,0.14399 -0.4305,0.167 -0.42179,0.18701 -0.41211,0.207 -0.4014,0.22699 -0.3898,0.247 -0.3773,0.266 -0.3637,0.28401 -0.34929,0.301 -0.33421,0.318 -0.3181,0.334 -0.3014,0.35 -0.2838,0.36299 -0.26569,0.378 -0.2468,0.389 -0.22741,0.402 -0.2075,0.41201 -0.18689,0.422 -0.16606,0.43001 -0.14469,0.438 -0.12336,0.44493 -0.10111,0.45 -0.0789,0.45499 -0.0565,0.45801 -0.0339,0.45999 -0.0114,0.461 v 49.388 l 0.0114,0.461 0.0339,0.46 0.0565,0.458 0.0788,0.455 0.1011,0.45 0.1231,0.444 0.1447,0.439 0.16611,0.43 0.18689,0.422 0.2075,0.412 0.2274,0.401 0.2468,0.39 0.2657,0.377 0.2838,0.364 0.3014,0.349 0.31811,0.335 0.33419,0.318 0.34931,0.301 0.3637,0.284 0.3773,0.266 0.38979,0.246 0.40141,0.228 0.41209,0.207 0.4218,0.187 0.4305,0.166 0.438,0.145 0.44471,0.12299 0.45019,0.101 0.45461,0.079 0.4579,0.056 0.46009,0.034 0.4612,0.012 1.2,-1.2 v -1.59999 h 1.6 l 1.20001,-1.2 h -4.00001 l -0.2649,-0.007 -0.2644,-0.019 -0.263,-0.033 -0.2612,-0.045 -0.2586,-0.058 -0.25539,-0.071 -0.2517,-0.083 -0.2473,-0.095 -0.2423,-0.108 -0.2367,-0.119 -0.2306,-0.131 -0.22401,-0.141 -0.21669,-0.153 -0.2089,-0.163 -0.2007,-0.173 -0.192,-0.183 -0.1827,-0.192 -0.1731,-0.201 -0.1631,-0.208 -0.1526,-0.217 -0.14181,-0.224 -0.13069,-0.231 -0.1191,-0.236 -0.10741,-0.243 -0.0954,-0.247 -0.0832,-0.252 -0.0707,-0.255 -0.058,-0.259 -0.0453,-0.261 -0.0325,-0.26301 -0.016,-0.217 v 1.16301 h -2.01 v -4.15 h 2 v -44.038 h -2 v -4.15 l 2.01,-1e-5 -1e-5,1.16301 0.016,-0.217 0.0325,-0.26301 0.0453,-0.261 0.058,-0.259 0.0707,-0.256 0.0832,-0.25101 0.0954,-0.247 0.10736,-0.24301 0.1191,-0.237 0.13068,-0.23001 0.14181,-0.224 0.15256,-0.21701 0.16309,-0.209 0.1731,-0.2 0.1827,-0.192 0.19201,-0.183 0.20069,-0.173 0.20891,-0.16299 0.21669,-0.153 0.224,-0.142 0.23061,-0.13001 0.23669,-0.12 0.2423,-0.10699 0.24731,-0.095 0.2517,-0.083 0.25539,-0.071 0.25861,-0.058 0.26119,-0.046 0.26301,-0.032 0.2644,-0.019 0.26489,-0.007 1.2,-1.19999 v -1.6 l 1.60001,-1e-5 1.2,-1.2 z"
     id="path216" />
  <path
     style="fill:none;stroke:#ff0000"
     d="m 12.283595,-42.376998 0.03394,0.461 0.05647,0.458 0.07889,0.454 0.10107,0.45 0.12306,0.445 0.14473,0.438 0.16605,0.43 0.18697,0.422 0.20744,0.412 0.2274,0.402 0.24684,0.39 0.26566,0.377 0.28386,0.364 0.30136,0.349 0.31813,0.334 0.33415,0.318 0.34935,0.302 0.36373,0.283 0.37721,0.266 0.3898,0.247 0.40144,0.227001 0.41213,0.208 0.4218,0.187 0.4304,0.166 0.4381,0.144 0.4447,0.124 0.4501,0.101 0.4546,0.079 0.4579,0.056 0.4602,0.034 0.4612,0.011 H 97.67227 l 1.2,-1.2 h 1.60001 v -1.600001 l 1.2,-1.2 H 21.672275 l -0.265,-0.006 -0.2643,-0.02 -0.263,-0.032 -0.2612,-0.046 -0.2586,-0.058 -0.2554,-0.07 -0.2517,-0.083 -0.2473,-0.096 -0.2423,-0.107 -0.2368,-0.119 -0.2306,-0.131 -0.2239,-0.142 -0.2167,-0.152 -0.2089,-0.164 -0.2007,-0.173 -0.192,-0.182 -0.1827,-0.192 -0.1732,-0.201 -0.163,-0.209 -0.15264,-0.217 -0.1418,-0.224 -0.13064,-0.23 -0.11917,-0.237 -0.10741,-0.242 -0.09538,-0.248 -0.08315,-0.251 -0.07069,-0.256 -0.05806,-0.258 -0.04532,-0.261 -0.03244,-0.263 -0.0195,-0.265 -0.0065,-0.265 v -49.388 l 0.0065,-0.264 0.0195,-0.265 0.03244,-0.263 0.04532,-0.261 0.05806,-0.259 0.07069,-0.255 0.08315,-0.252 0.09538,-0.247 0.10741,-0.242 0.11917,-0.237 0.13064,-0.231 0.1418,-0.224 0.15264,-0.216 0.163,-0.209 0.1732,-0.201 0.1827,-0.192 0.192,-0.183 0.2007,-0.173 0.2089,-0.163 0.2167,-0.152 0.2239,-0.142 0.2306,-0.131 0.2368,-0.119 0.2423,-0.107 0.2473,-0.096 0.2517,-0.083 0.2554,-0.071 0.2586,-0.058 0.2612,-0.045 0.263,-0.032 0.2643,-0.02 0.265,-0.006 H 97.67227 l 1.2,-1.2 h 1.60001 V -100.425 l 1.2,-1.2 H 21.672275 l -0.4612,0.011 -0.4602,0.034 -0.4579,0.056 -0.4546,0.079 -0.4501,0.101 -0.4447,0.123 -0.4381,0.145 -0.4304,0.166 -0.4218,0.187 -0.41213,0.207 -0.40144,0.228 -0.3898,0.247 -0.37721,0.265002 -0.36373,0.284 -0.34935,0.302 -0.33415,0.318 -0.31813,0.334 -0.30136,0.349 -0.28386,0.364 -0.26566,0.377 -0.24684,0.39 -0.2274,0.401 -0.20744,0.412 -0.18697,0.422 -0.16605,0.431 -0.14473,0.438 -0.12306,0.444 -0.10107,0.451 -0.07889,0.454 -0.05647,0.458 -0.03394,0.46 -0.01132,0.461 v 49.388 z"
     id="path214" />
  <path
     style="fill:none;stroke:#ff0000"
     d="m 77.060498,-213.16472 -0.4601,0.0339 -0.4579,0.0565 -0.4546,0.0789 -0.4501,0.10107 -0.4447,0.12306 -0.4381,0.14473 -0.4305,0.16605 -0.4217,0.18697 -0.4122,0.20744 -0.4014,0.2274 -0.3898,0.24684 -0.3772,0.26566 -0.3637,0.28386 -0.3494,0.30136 -0.3341,0.31813 -0.3182,0.33415 -0.3013,0.34935 -0.2839,0.36373 -0.2656,0.37721 -0.2469,0.3898 -0.2274,0.40144 -0.2074,0.41213 -0.187,0.4218 -0.166,0.4304 -0.1448,0.4381 -0.123,0.4447 -0.1011,0.4501 -0.0789,0.4546 -0.0565,0.4579 -0.0339,0.4602 -0.0113,0.4612 v 75.99999 l 1.2,1.2 v 1.6 h 1.5999 l 1.2001,1.2 v -79.99999 l 0.0065,-0.265 0.0195,-0.2643 0.0324,-0.263 0.0453,-0.2612 0.0581,-0.2586 0.0707,-0.2554 0.0831,-0.2517 0.0954,-0.2473 0.1074,-0.2423 0.1192,-0.2368 0.1306,-0.2306 0.1418,-0.2239 0.1526,-0.2167 0.1631,-0.2089 0.1731,-0.2007 0.1828,-0.192 0.1919,-0.1827 0.2007,-0.1732 0.209,-0.163 0.2167,-0.15264 0.2239,-0.1418 0.2306,-0.13064 0.2368,-0.11917 0.2423,-0.10741 0.2473,-0.0954 0.2516,-0.0831 0.2555,-0.0707 0.2586,-0.0581 0.2611,-0.0453 0.2631,-0.0324 0.2643,-0.0195 0.265,-0.007 h 49.387682 l 0.265,0.007 0.2643,0.0195 0.263,0.0324 0.2612,0.0453 0.2586,0.0581 0.2554,0.0707 0.2517,0.0831 0.2473,0.0954 0.2423,0.10741 0.2368,0.11917 0.2306,0.13064 0.2239,0.1418 0.2167,0.15264 0.2089,0.163 0.2007,0.1732 0.192,0.1827 0.1827,0.192 0.1732,0.2007 0.163,0.2089 0.15264,0.2167 0.1418,0.2239 0.13064,0.2306 0.11917,0.2368 0.10741,0.2423 0.0954,0.2473 0.0831,0.2517 0.0707,0.2554 0.0581,0.2586 0.0453,0.2612 0.0324,0.263 0.0195,0.2643 0.007,0.265 v 75.99999 l 1.2,1.2 v 1.6 h 1.59999 l 1.20001,1.2 v -79.99999 l -0.0113,-0.4612 -0.0339,-0.4602 -0.0565,-0.4579 -0.0789,-0.4546 -0.10107,-0.4501 -0.12306,-0.4447 -0.14473,-0.4381 -0.16605,-0.4304 -0.18697,-0.4218 -0.20744,-0.41213 -0.2274,-0.40144 -0.24684,-0.3898 -0.26566,-0.37721 -0.28386,-0.36373 -0.30136,-0.34935 -0.31813,-0.33415 -0.33415,-0.31813 -0.34935,-0.30136 -0.36373,-0.28386 -0.37721,-0.26566 -0.3898,-0.24684 -0.40144,-0.2274 -0.41213,-0.20744 -0.4218,-0.18697 -0.4304,-0.16605 -0.4381,-0.14473 -0.4447,-0.12306 -0.4501,-0.10107 -0.4546,-0.0789 -0.4579,-0.0565 -0.4602,-0.0339 -0.4612,-0.0113 H 77.521798 Z"
     id="path212" />
  <path
     style="fill:none;stroke:#ff0000"
     d="m 74.573144,-113.27017 0.46,-0.0339 0.458,-0.0565 0.454,-0.0789 0.45,-0.10107 0.445,-0.12306 0.438,-0.14473 0.431,-0.16605 0.421,-0.18697 0.413,-0.20744 0.401,-0.2274 0.39,-0.24684 0.377,-0.26566 0.364,-0.28386 0.349,-0.30136 0.334,-0.31813 0.318,-0.33415 0.302,-0.34935 0.284,-0.36373 0.265,-0.37721 0.247,-0.3898 0.228,-0.40144 0.207,-0.41213 0.187,-0.4218 0.166,-0.4304 0.145,-0.4381 0.123,-0.4447 0.101,-0.4501 0.079,-0.4546 0.056,-0.4579 0.034,-0.4602 0.011,-0.4612 v -75.99999 l -1.2,-1.2 v -1.6 h -1.599 l -1.201,-1.2 v 79.99999 l -0.006,0.265 -0.02,0.2643 -0.032,0.263 -0.045,0.2612 -0.058,0.2586 -0.071,0.2554 -0.083,0.2517 -0.096,0.2473 -0.107,0.2423 -0.119,0.2368 -0.131,0.2306 -0.142,0.2239 -0.152,0.2167 -0.163,0.2089 -0.173,0.2007 -0.183,0.192 -0.192,0.1827 -0.201,0.1732 -0.209,0.163 -0.216,0.15264 -0.224,0.1418 -0.231,0.13064 -0.237,0.11917 -0.242,0.10741 -0.247,0.0954 -0.252,0.0832 -0.255,0.0707 -0.259,0.0581 -0.261,0.0453 -0.263,0.0324 -0.265,0.0195 -0.265,0.007 h -49.3873 l -0.2649,-0.007 -0.2644,-0.0195 -0.263,-0.0324 -0.2611,-0.0453 -0.2586,-0.0581 -0.2555,-0.0707 -0.2517,-0.0832 -0.2473,-0.0954 -0.2423,-0.10741 -0.2367,-0.11917 -0.2306,-0.13064 -0.2239,-0.1418 -0.2167,-0.15264 -0.209,-0.163 -0.2007,-0.1732 -0.1919,-0.1827 -0.1828,-0.192 -0.1731,-0.2007 -0.1631,-0.2089 -0.1526,-0.2167 -0.1418,-0.2239 -0.1306,-0.2306 -0.1192,-0.2368 -0.1074,-0.2423 -0.0954,-0.2473 -0.0831,-0.2517 -0.0707,-0.2554 -0.0581,-0.2586 -0.0453,-0.2612 -0.0325,-0.263 -0.0195,-0.2643 -0.0065,-0.265 v -75.99999 l -1.2,-1.2 v -1.6 h -1.5999 l -1.2001,-1.2 v 79.99999 l 0.0114,0.4612 0.0339,0.4602 0.0565,0.4579 0.0789,0.4546 0.101,0.4501 0.1231,0.4447 0.1447,0.4381 0.1661,0.4304 0.1869,0.4218 0.2075,0.41213 0.2274,0.40144 0.2468,0.3898 0.2657,0.37721 0.2838,0.36373 0.3014,0.34935 0.3181,0.33415 0.3342,0.31813 0.3493,0.30136 0.3638,0.28386 0.3772,0.26566 0.3898,0.24684 0.4014,0.2274 0.4121,0.20744 0.4218,0.18697 0.4305,0.16605 0.4381,0.14473 0.4446,0.12306 0.4502,0.10107 0.4546,0.0789 0.4579,0.0565 0.4601,0.0339 0.4612,0.0113 h 49.3873 z"
     id="path210" />
  <path
     style="fill:none;stroke:#ff0000"
     d="m 111.7084,-99.78773 -0.034,-0.46 -0.0564,-0.458 -0.0789,-0.454 -0.1011,-0.45 -0.123,-0.445 -0.1448,-0.438 -0.166,-0.431 -0.187,-0.421 -0.2074,-0.413 -0.2274,-0.401 -0.2469,-0.39 -0.2656,-0.377 -0.2839,-0.364 -0.3014,-0.349 -0.3179,-0.334 -0.334,-0.318 -0.35,-0.302 -0.363,-0.284 -0.378,-0.265 -0.389,-0.247 -0.402,-0.228 -0.412,-0.207 -0.422,-0.187 -0.43,-0.166 -0.438,-0.145 -0.445,-0.123 -0.45,-0.101 -0.455,-0.079 -0.458,-0.056 -0.46,-0.034 -0.461,-0.011 H 26.319712 l -1.2,1.2 h -1.6 v 1.599 l -1.2,1.201 H 102.3197 l 0.265,0.006 0.264,0.02 0.263,0.032 0.261,0.045 0.259,0.058 0.256,0.071 0.251,0.083 0.248,0.096 0.242,0.107 0.237,0.119 0.23,0.131 0.224,0.142 0.217,0.152 0.209,0.163 0.2,0.173 0.192,0.183 0.183,0.192 0.173,0.201 0.163,0.209 0.153,0.216 0.142,0.224 0.13,0.231 0.12,0.237 0.107,0.242 0.095,0.247 0.083,0.252 0.071,0.255 0.058,0.259 0.046,0.261 0.032,0.263 0.02,0.265 0.006,0.265 v 49.387303 l -0.006,0.2649 -0.02,0.2644 -0.032,0.263 -0.046,0.2611 -0.058,0.2586 -0.071,0.2555 -0.083,0.2517 -0.095,0.2473 -0.107,0.2423 -0.12,0.2367 -0.13,0.2306 -0.142,0.2239 -0.153,0.2167 -0.163,0.209 -0.173,0.2007 -0.183,0.1919 -0.192,0.1828 -0.2,0.1731 -0.209,0.1631 -0.217,0.1526 -0.224,0.1418 -0.23,0.1306 -0.237,0.1192 -0.242,0.1074 -0.248,0.0954 -0.251,0.0831 -0.256,0.0707 -0.259,0.0581 -0.261,0.0453 -0.263,0.0325 -0.264,0.0195 -0.265,0.006 H 26.319712 l -1.2,1.2 h -1.6 v 1.5999 l -1.2,1.2001 H 102.3197 l 0.461,-0.0114 0.46,-0.0339 0.458,-0.0565 0.455,-0.0789 0.45,-0.101 0.445,-0.1231 0.438,-0.1447 0.43,-0.1661 0.422,-0.1869 0.412,-0.2075 0.402,-0.2274 0.389,-0.2468 0.378,-0.2657 0.363,-0.2838 0.35,-0.3014 0.334,-0.3181 0.3179,-0.3342 0.3014,-0.3493 0.2839,-0.3638 0.2656,-0.3772 0.2469,-0.3898 0.2274,-0.4014 0.2074,-0.4121 0.187,-0.4218 0.166,-0.4305 0.1448,-0.4381 0.123,-0.4446 0.1011,-0.4502 0.0789,-0.4546 0.0564,-0.4579 0.034,-0.4601 0.0113,-0.4612 V -99.32573 Z"
     id="path208" />
  <path
     style="fill:none;stroke:#ff0000"
     d="m 174.80287,-114.13171 0.4601,-0.034 0.4579,-0.0564 0.4546,-0.0789 0.4501,-0.1011 0.4447,-0.123 0.4381,-0.1448 0.4305,-0.166 0.4217,-0.187 0.4122,-0.2074 0.4014,-0.2274 0.3898,-0.2469 0.3772,-0.2656 0.3637,-0.2839 0.3494,-0.3014 0.3341,-0.3179 0.3182,-0.334 0.3013,-0.35 0.2839,-0.363 0.2656,-0.378 0.2469,-0.389 0.2274,-0.402 0.2074,-0.412 0.187,-0.422 0.166,-0.43 0.1448,-0.438 0.123,-0.445 0.1011,-0.45 0.0789,-0.455 0.0565,-0.458 0.0339,-0.46 0.0113,-0.461 v -75.99999 l -1.2,-1.2 v -1.6 h -1.5999 l -1.2001,-1.2 v 79.99999 l -0.006,0.265 -0.0195,0.264 -0.0324,0.263 -0.0453,0.261 -0.0581,0.259 -0.0707,0.256 -0.0831,0.251 -0.0954,0.248 -0.1074,0.242 -0.1192,0.237 -0.1306,0.23 -0.1418,0.224 -0.1526,0.217 -0.1631,0.209 -0.1731,0.2 -0.1828,0.192 -0.1919,0.183 -0.2007,0.173 -0.209,0.163 -0.2167,0.153 -0.2239,0.142 -0.2306,0.13 -0.2368,0.12 -0.2423,0.107 -0.2473,0.095 -0.2516,0.083 -0.2555,0.071 -0.2586,0.058 -0.2611,0.046 -0.2631,0.032 -0.2643,0.02 -0.265,0.006 h -49.3882 l -0.265,-0.006 -0.2643,-0.02 -0.263,-0.032 -0.2612,-0.046 -0.2586,-0.058 -0.2554,-0.071 -0.2517,-0.083 -0.2473,-0.095 -0.2423,-0.107 -0.2368,-0.12 -0.2306,-0.13 -0.2239,-0.142 -0.2167,-0.153 -0.2089,-0.163 -0.2007,-0.173 -0.192,-0.183 -0.1827,-0.192 -0.1732,-0.2 -0.163,-0.209 -0.15264,-0.217 -0.1418,-0.224 -0.13064,-0.23 -0.11917,-0.237 -0.10741,-0.242 -0.0954,-0.248 -0.0831,-0.251 -0.0707,-0.256 -0.0581,-0.259 -0.0453,-0.261 -0.0324,-0.263 -0.0195,-0.264 -0.007,-0.265 v -75.99999 l -1.2,-1.2 v -1.6 h -1.59999 l -1.20001,-1.2 v 79.99999 l 0.0113,0.461 0.0339,0.46 0.0565,0.458 0.0789,0.455 0.10107,0.45 0.12306,0.445 0.14473,0.438 0.16605,0.43 0.18697,0.422 0.20744,0.412 0.2274,0.402 0.24684,0.389 0.26566,0.378 0.28386,0.363 0.30136,0.35 0.31813,0.334 0.33415,0.3179 0.34935,0.3014 0.36373,0.2839 0.37721,0.2656 0.3898,0.2469 0.40144,0.2274 0.41213,0.2074 0.4218,0.187 0.4304,0.166 0.4381,0.1448 0.4447,0.123 0.4501,0.1011 0.4546,0.0789 0.4579,0.0564 0.4602,0.034 0.4612,0.0113 h 49.3877 z"
     id="path206" />
  <path
     style="fill:none;stroke:#ff0000"
     d="m 63.534475,-192.05289 -0.034,-0.461 -0.057,-0.458 -0.079,-0.454 -0.101,-0.45 -0.123,-0.445 -0.144,-0.438 -0.167,-0.43 -0.186,-0.422 -0.208,-0.412 -0.227,-0.402 -0.247,-0.39 -0.266,-0.377 -0.284,-0.364 -0.301,-0.349 -0.318,-0.334 -0.334,-0.318 -0.35,-0.302 -0.363,-0.283 -0.378,-0.266 -0.389,-0.247 -0.402,-0.227 -0.412,-0.208 -0.422,-0.187 -0.43,-0.166 -0.438,-0.144 -0.445,-0.124 -0.45,-0.101 -0.455,-0.078 -0.458,-0.057 -0.46,-0.034 -0.461,-0.011 h -5 v 4 h 5 l 0.265,0.006 0.264,0.02 0.263,0.032 0.262,0.046 0.258,0.058 0.256,0.07 0.251,0.083 0.248,0.096 0.242,0.107 0.237,0.119 0.23,0.131 0.224,0.142 0.217,0.152 0.209,0.164 0.2,0.173 0.192,0.182 0.183,0.192 0.173,0.201 0.163,0.209 0.153,0.217 0.142,0.224 0.13,0.23 0.12,0.237 0.107,0.242 0.095,0.248 0.083,0.251 0.071,0.256 0.058,0.258 0.046,0.261 0.032,0.263 0.02,0.265 0.006,0.265 v 49.388 l -0.006,0.264 -0.02,0.265 -0.032,0.263 -0.046,0.261 -0.058,0.259 -0.071,0.255 -0.083,0.252 -0.095,0.247 -0.107,0.242 -0.12,0.237 -0.13,0.231 -0.142,0.224 -0.153,0.216 -0.163,0.209 -0.173,0.201 -0.183,0.192 -0.192,0.183 -0.2,0.173 -0.209,0.163 -0.217,0.152 -0.224,0.142 -0.23,0.131 -0.237,0.119 -0.242,0.107 -0.248,0.096 -0.251,0.083 -0.256,0.071 -0.258,0.058 -0.262,0.045 -0.263,0.032 -0.264,0.02 -0.265,0.006 h -5 v 4 h 5 l 0.461,-0.011 0.46,-0.034 0.458,-0.056 0.455,-0.079 0.45,-0.101 0.445,-0.123 0.438,-0.145 0.43,-0.166 0.422,-0.187 0.412,-0.207 0.402,-0.228 0.389,-0.247 0.378,-0.265 0.363,-0.284 0.35,-0.302 0.334,-0.318 0.318,-0.334 0.301,-0.349 0.284,-0.364 0.266,-0.377 0.247,-0.39 0.227,-0.401 0.208,-0.412 0.186,-0.422 0.167,-0.431 0.144,-0.438 0.123,-0.444 0.101,-0.451 0.079,-0.454 0.057,-0.458 0.034,-0.46 0.011,-0.461 v -49.388 z"
     id="path204" />
  <path
     style="fill:none;stroke:#ff0000"
     d="m 130.02869,-225.46066 v -7.6 h 4.4 v 7.6 h 17.6 v -7.6 h 4.4 v 7.6 h 17.6 v -7.6 h 4.4 v 7.6 h 21 v -7.6 h 4.2 v -48.9873 h -4.2 v -7.6 h -21 v 7.6 h -4.4 v -7.6 h -17.6 v 7.6 h -4.4 v -7.6 h -17.6 v 7.6 h -4.4 v -7.6 h -17.8 v 64.1873 z"
     id="path202" />
  <path
     style="fill:none;stroke:#ff0000"
     d="m 21.054981,-225.45992 v 5.2 h 74.4 l 0.491,-0.012 0.489,-0.0361 0.487,-0.0601 0.484,-0.0839 0.479,-0.1075 0.473,-0.1309 0.466,-0.154 0.458,-0.1767 0.449,-0.1989 0.437999,-0.2206 0.427,-0.242 0.415,-0.2626 0.401,-0.2826 0.387,-0.3019 0.372,-0.3206 0.355,-0.3385 0.338,-0.3555 0.321,-0.3716 0.302,-0.387 0.283,-0.4012 0.262,-0.4147 0.242,-0.4271 0.221,-0.4384 0.199,-0.4487 0.176,-0.4579 0.154,-0.4661 0.131,-0.473 0.108,-0.4789 0.084,-0.4836 0.06,-0.4872 0.036,-0.4895 0.012,-0.4907 v -49.3877 l -0.012,-0.4907 -0.036,-0.4895 -0.06,-0.4871 -0.084,-0.4836 -0.108,-0.4789 -0.131,-0.473 -0.154,-0.4661 -0.176,-0.4579 -0.199,-0.4488 -0.221,-0.4384 -0.242,-0.42704 -0.262,-0.41467 -0.283,-0.40129 -0.302,-0.38693 -0.321,-0.37166 -0.338,-0.35549 -0.355,-0.33844 -0.372,-0.3206 -0.387,-0.30197 -0.401,-0.28261 -0.415,-0.2626 -0.427,-0.24191 -0.437999,-0.22069 -0.449,-0.1989 -0.458,-0.17665 -0.466,-0.15396 -0.473,-0.13091 -0.479,-0.10754 -0.484,-0.0839 -0.487,-0.0601 -0.489,-0.0361 -0.491,-0.012 h -74.4 v 5.2 h -10 v 58.9877 z m 16.038,-30.2088 0.053,-0.7133 0.087,-0.7098 0.123,-0.7047 0.156,-0.6978 0.191,-0.6893 0.224,-0.6791 0.258,-0.6673 0.29,-0.6538 0.321,-0.6388 0.353,-0.6223 0.382,-0.6043 0.412,-0.5847 0.44,-0.5638 0.467,-0.5416 0.493,-0.518 0.518,-0.4931 0.542,-0.4672 0.564,-0.44 0.585,-0.4118 0.604,-0.3827 0.622,-0.3525 0.639,-0.3215 0.654,-0.2899 0.667,-0.2574 0.679,-0.2243 0.689,-0.1908 0.698,-0.1567 0.705,-0.1222 0.71,-0.0876 0.713,-0.0526 0.715,-0.0176 0.715,0.0176 0.713,0.0526 0.71,0.0876 0.705,0.1222 0.698,0.1567 0.689,0.1908 0.679,0.2243 0.667,0.2574 0.654,0.2899 0.639,0.3215 0.622,0.3525 0.604,0.3827 0.585,0.4118 0.564,0.44 0.542,0.4672 0.518,0.4931 0.493,0.518 0.467,0.5416 0.44,0.5638 0.412,0.5847 0.382,0.6043 0.353,0.6223 0.321,0.6388 0.29,0.6538 0.258,0.6673 0.224,0.6791 0.191,0.6893 0.156,0.6978 0.123,0.7047 0.087,0.7098 0.053,0.7133 0.017,0.715 -0.017,0.715 -0.053,0.7132 -0.087,0.7098 -0.123,0.7047 -0.156,0.6978 -0.191,0.6893 -0.224,0.6791 -0.258,0.6673 -0.29,0.6539 -0.321,0.6388 -0.353,0.6223 -0.382,0.6042 -0.412,0.5848 -0.44,0.5638 -0.467,0.5415 -0.493,0.518 -0.518,0.4932 -0.542,0.4671 -0.564,0.4401 -0.585,0.4118 -0.604,0.3826 -0.622,0.3525 -0.639,0.3216 -0.654,0.2898 -0.667,0.2574 -0.679,0.2244 -0.689,0.1907 -0.698,0.1567 -0.705,0.1223 -0.71,0.0875 -0.713,0.0526 -0.715,0.0176 -0.715,-0.0176 -0.713,-0.0526 -0.71,-0.0875 -0.705,-0.1223 -0.698,-0.1567 -0.689,-0.1907 -0.679,-0.2244 -0.667,-0.2574 -0.654,-0.2898 -0.639,-0.3216 -0.622,-0.3525 -0.604,-0.3826 -0.585,-0.4118 -0.564,-0.4401 -0.542,-0.4671 -0.518,-0.4932 -0.493,-0.518 -0.467,-0.5415 -0.44,-0.5638 -0.412,-0.5848 -0.382,-0.6042 -0.353,-0.6223 -0.321,-0.6388 -0.29,-0.6539 -0.258,-0.6673 -0.224,-0.6791 -0.191,-0.6893 -0.156,-0.6978 -0.123,-0.7047 -0.087,-0.7098 -0.053,-0.7132 -0.017,-0.715 z"
     id="path200" />
  <path
     style="fill:none;stroke:#ff0000"
     d="m 163.49899,-127.23389 h 2 v -21.85 h -2 v -4.15 h 2 v -17.85 h -2 v -4.15 h 2 v -17.85 h -2 v -4.15 h 2 v -21.25 h -2 v -4.075 h -2 v 99.4 h 2 z"
     id="path198" />
  <path
     style="fill:none;stroke:#ff0000"
     d="m 170.49899,-127.23389 h 2 v -21.85 h -2 v -4.15 h 2 v -17.85 h -2 v -4.15 h 2 v -17.85 h -2 v -4.15 h 2 v -21.25 h -2 v -4.075 h -2 v 99.4 h 2 z"
     id="path196" />
  <path
     style="fill:none;stroke:#ff0000"
     d="m 11.631238,-206.60946 h 49.3873 v -8 h -49.3873 z"
     id="path4" />
  <metadata
     id="metadata78">
    <rdf:RDF>
      <cc:Work
         rdf:about="">
        <dc:title>OpenSCAD Model</dc:title>
      </cc:Work>
    </rdf:RDF>
  </metadata>
  <path
     d="m 100.7421,-64.885813 -0.176,0.1545 -0.179,0.1392 -0.183,0.1236 -0.187,0.1078 -0.189005,0.0917 -0.191996,0.0752 -0.193,0.0588 -0.195,0.042 -0.196,0.0253 -0.196,0.008 -0.196,-0.008 -0.196,-0.0253 -0.195,-0.042 -0.193,-0.0588 -0.192,-0.0752 -0.189,-0.0917 -0.187,-0.1078 -0.183,-0.1236 -0.179,-0.1392 -0.176,-0.1545 -0.17,-0.1694 -0.166,-0.1838 -0.161,-0.1978 -0.155,-0.2114 -0.148,-0.2244 -0.142,-0.2369 -0.136,-0.2489 -0.128,-0.2601 -0.121,-0.2709 -0.113,-0.2809 -0.105,-0.2902 -0.097,-0.299 -0.088,-0.3069 -0.079,-0.3141 -0.071,-0.3205 -0.062,-0.3263 -0.052,-0.3311 -0.043,-0.3352 -0.034,-0.3386 -0.024,-0.3409 -0.014,-0.3427 -0.005,-0.3435 0.005,-0.3434 0.014,-0.3427 0.024,-0.341 0.034,-0.3385 0.043,-0.3352 0.052,-0.3312 0.062,-0.3262 0.071,-0.3206 0.079,-0.3141 0.088,-0.3068 0.097,-0.299 0.105,-0.2903 0.113,-0.2809 0.121,-0.2708 0.128,-0.2602 0.136,-0.2488 0.142,-0.2369 0.148,-0.2244 0.155,-0.2114 0.161,-0.1979 0.166,-0.1838 0.17,-0.1693 0.176,-0.1545 0.179,-0.1392 0.183,-0.1237 0.187,-0.1077 0.189,-0.0917 0.192,-0.0753 0.193,-0.0587 0.195,-0.0421 0.196,-0.0252 0.196,-0.008 0.196,0.008 0.196,0.0252 0.195,0.0421 0.193,0.0587 0.191996,0.0753 0.189005,0.0917 0.187,0.1077 0.183,0.1237 0.179,0.1392 0.176,0.1545 0.114,0.1134 v -15.5338 l -0.002,-0.0982 -0.008,-0.0979 -0.012,-0.0974 -0.016,-0.0967 -0.022,-0.0958 -0.026,-0.0946 -0.031,-0.0932 -0.035,-0.0916 -0.04,-0.0898 -0.044,-0.0876 -0.049,-0.0855 -0.052,-0.0829 -0.057,-0.0803 -0.06,-0.0773 -0.064,-0.0744 -0.068,-0.0711 -0.071,-0.0676 -0.074,-0.0642 -0.078,-0.0604 -0.08,-0.0565 -0.083,-0.0525 -0.085,-0.0484 -0.088,-0.0441 -0.09,-0.0398 -0.091,-0.0353 -0.093,-0.0308 -0.095,-0.0262 -0.096,-0.0215 -0.097,-0.0168 -0.097,-0.012 -0.098,-0.007 -0.098,-0.002 h -74.9 v 47.1877 h 74.9 l 0.098,-0.002 0.098,-0.007 0.097,-0.012 0.097,-0.0168 0.096,-0.0215 0.095,-0.0262 0.093,-0.0308 0.091,-0.0353 0.09,-0.0398 0.088,-0.0441 0.085,-0.0484 0.083,-0.0525 0.08,-0.0565 0.078,-0.0604 0.074,-0.0641 0.071,-0.0677 0.068,-0.0711 0.064,-0.0743 0.06,-0.0774 0.057,-0.0803 0.052,-0.0829 0.049,-0.0854 0.044,-0.0877 0.04,-0.0897 0.035,-0.0916 0.031,-0.0932 0.026,-0.0946 0.022,-0.0958 0.016,-0.0967 0.012,-0.0974 0.008,-0.0979 0.002,-0.0981 v -15.5339 z m -21.519001,-19.8689 h -25.634 v -2 h 25.634 z m 0,9.797 h -25.634 v -2 h 25.634 z m 0,9.7969 h -25.634 v -2 h 25.634 z m 0,9.7969 h -25.634 v -2 h 25.634 z"
     id="path285"
     style="fill:none;stroke:#ff0000" />
  <path
     d="m 142.984,-181.69701 h -2 v 47.188 h 2 z"
     id="path291"
     style="fill:none;stroke:#ff0000" />
  <path
     d="m 126.53935,-199.46458 h -2 v 72.9 h 2 z"
     id="path289"
     style="fill:none;stroke:#ff0000" />
  <path
     d="m 158.11539,-197.96362 h -2 v 72.9 h 2 z"
     id="path287"
     style="fill:none;stroke:#ff0000" />
  <path
     d="m 197.85724,-221.25559 h -4 v 4 h 2 v 78.9 h 2 z"
     id="path283"
     style="fill:none;stroke:#ff0000" />
  <path
     d="m 190.18931,-220.43877 h -4 v 4 h 2 v 78.9 h 2 z"
     id="path249"
     style="fill:none;stroke:#ff0000" />
</svg>
