<?xml version="1.0" standalone="no"?>
<!DOCTYPE svg PUBLIC "-//W3C//DTD SVG 1.1//EN" "http://www.w3.org/Graphics/SVG/1.1/DTD/svg11.dtd">
<svg width="158mm" height="235mm" viewBox="5 -240 158 235" xmlns="http://www.w3.org/2000/svg" version="1.1">
<title>OpenSCAD Model</title>
<path d="
M 52.249,-239.7 L 48.249,-239.7 L 48.249,-235.7 L 50.249,-235.7 L 50.249,-166.8 L 52.249,-166.8
 z
M 59.249,-239.7 L 55.249,-239.7 L 55.249,-235.7 L 57.249,-235.7 L 57.249,-166.8 L 59.249,-166.8
 z
M 18.951,-166.914 L 18.7966,-167.09 L 18.6573,-167.269 L 18.5337,-167.452 L 18.4259,-167.639 L 18.3343,-167.828
 L 18.259,-168.02 L 18.2002,-168.213 L 18.1582,-168.408 L 18.1329,-168.604 L 18.1245,-168.8 L 18.1329,-168.996
 L 18.1582,-169.192 L 18.2002,-169.387 L 18.259,-169.58 L 18.3343,-169.772 L 18.4259,-169.961 L 18.5337,-170.148
 L 18.6573,-170.331 L 18.7966,-170.51 L 18.951,-170.686 L 19.1204,-170.856 L 19.3042,-171.022 L 19.502,-171.183
 L 19.7134,-171.338 L 19.9378,-171.486 L 20.1747,-171.628 L 20.4236,-171.764 L 20.6837,-171.892 L 20.9546,-172.013
 L 21.2355,-172.126 L 21.5258,-172.231 L 21.8247,-172.328 L 22.1316,-172.416 L 22.4457,-172.495 L 22.7663,-172.566
 L 23.0925,-172.628 L 23.4236,-172.68 L 23.7589,-172.723 L 24.0974,-172.757 L 24.4384,-172.781 L 24.781,-172.795
 L 25.1245,-172.8 L 25.468,-172.795 L 25.8106,-172.781 L 26.1516,-172.757 L 26.4901,-172.723 L 26.8253,-172.68
 L 27.1565,-172.628 L 27.4827,-172.566 L 27.8033,-172.495 L 28.1174,-172.416 L 28.4243,-172.328 L 28.7232,-172.231
 L 29.0135,-172.126 L 29.2944,-172.013 L 29.5652,-171.892 L 29.8254,-171.764 L 30.0742,-171.628 L 30.3111,-171.486
 L 30.5356,-171.338 L 30.7469,-171.183 L 30.9448,-171.022 L 31.1286,-170.856 L 31.2979,-170.686 L 31.4524,-170.51
 L 31.5916,-170.331 L 31.7153,-170.148 L 31.8231,-169.961 L 31.9147,-169.772 L 31.99,-169.58 L 32.0487,-169.387
 L 32.0908,-169.192 L 32.116,-168.996 L 32.1245,-168.8 L 32.116,-168.604 L 32.0908,-168.408 L 32.0487,-168.213
 L 31.99,-168.02 L 31.9147,-167.828 L 31.8231,-167.639 L 31.7153,-167.452 L 31.5916,-167.269 L 31.4524,-167.09
 L 31.2979,-166.914 L 31.1845,-166.8 L 43.249,-166.8 L 43.3471,-166.802 L 43.445,-166.81 L 43.5424,-166.822
 L 43.6392,-166.838 L 43.7349,-166.86 L 43.8295,-166.886 L 43.9227,-166.917 L 44.0143,-166.952 L 44.1041,-166.992
 L 44.1918,-167.036 L 44.2772,-167.085 L 44.3601,-167.137 L 44.4404,-167.194 L 44.5178,-167.254 L 44.5921,-167.318
 L 44.6632,-167.386 L 44.7309,-167.457 L 44.795,-167.531 L 44.8554,-167.609 L 44.9119,-167.689 L 44.9644,-167.772
 L 45.0128,-167.857 L 45.0569,-167.945 L 45.0967,-168.035 L 45.1321,-168.126 L 45.1629,-168.219 L 45.189,-168.314
 L 45.2105,-168.41 L 45.2273,-168.507 L 45.2393,-168.604 L 45.2466,-168.702 L 45.249,-168.8 L 45.249,-223.7
 L 5,-223.7 L 5,-168.8 L 5.0024,-168.702 L 5.00963,-168.604 L 5.02164,-168.507 L 5.03842,-168.41
 L 5.05994,-168.314 L 5.08611,-168.219 L 5.1169,-168.126 L 5.15224,-168.035 L 5.19202,-167.945 L 5.23615,-167.857
 L 5.28453,-167.772 L 5.33705,-167.689 L 5.39357,-167.609 L 5.45396,-167.531 L 5.5181,-167.457 L 5.58578,-167.386
 L 5.65688,-167.318 L 5.7312,-167.254 L 5.80859,-167.194 L 5.88885,-167.137 L 5.97179,-167.085 L 6.05721,-167.036
 L 6.14488,-166.992 L 6.23462,-166.952 L 6.32622,-166.917 L 6.41942,-166.886 L 6.51404,-166.86 L 6.60982,-166.838
 L 6.70653,-166.822 L 6.80396,-166.81 L 6.90186,-166.802 L 7,-166.8 L 19.0645,-166.8 z
M 36.2178,-181.767 L 36.2178,-200.733 L 38.2178,-200.733 L 38.2178,-181.767 z
M 28.1556,-181.767 L 28.1556,-200.733 L 30.1556,-200.733 L 30.1556,-181.767 z
M 20.0934,-181.767 L 20.0934,-200.733 L 22.0934,-200.733 L 22.0934,-181.767 z
M 12.0311,-181.767 L 12.0311,-200.733 L 14.0311,-200.733 L 14.0311,-181.767 z
M 69.249,-219.7 L 67.249,-219.7 L 67.249,-166.8 L 69.249,-166.8 z
M 64.249,-219.7 L 62.249,-219.7 L 62.249,-166.8 L 64.249,-166.8 z
M 162.249,-208.8 L 77.249,-208.8 L 77.249,-166.8 L 162.249,-166.8 z
M 90.249,-202.8 L 90.249,-206.8 L 90.799,-206.8 L 90.799,-202.8 z
M 82.249,-202.8 L 82.249,-206.8 L 82.399,-206.8 L 82.399,-202.8 z
M 84.249,-202.8 L 84.249,-206.8 L 84.499,-206.8 L 84.499,-202.8 z
M 88.249,-202.8 L 88.249,-206.8 L 88.699,-206.8 L 88.699,-202.8 z
M 86.249,-202.8 L 86.249,-206.8 L 86.599,-206.8 L 86.599,-202.8 z
M 151.788,-192.901 L 151.744,-192.904 L 151.7,-192.91 L 151.657,-192.917 L 151.614,-192.927 L 151.571,-192.939
 L 151.529,-192.953 L 151.488,-192.968 L 151.448,-192.986 L 151.408,-193.006 L 151.37,-193.028 L 151.332,-193.052
 L 151.296,-193.077 L 151.261,-193.104 L 151.228,-193.133 L 151.196,-193.164 L 151.165,-193.196 L 151.137,-193.229
 L 151.109,-193.264 L 151.084,-193.3 L 151.06,-193.337 L 151.039,-193.376 L 151.019,-193.415 L 151.001,-193.456
 L 150.985,-193.497 L 150.971,-193.539 L 150.959,-193.581 L 150.95,-193.624 L 150.942,-193.668 L 150.937,-193.712
 L 150.933,-193.756 L 150.932,-193.8 L 150.933,-193.844 L 150.937,-193.888 L 150.942,-193.932 L 150.95,-193.976
 L 150.959,-194.019 L 150.971,-194.061 L 150.985,-194.103 L 151.001,-194.144 L 151.019,-194.185 L 151.039,-194.224
 L 151.06,-194.263 L 151.084,-194.3 L 151.109,-194.336 L 151.137,-194.371 L 151.165,-194.404 L 151.196,-194.436
 L 151.228,-194.467 L 151.261,-194.496 L 151.296,-194.523 L 151.332,-194.548 L 151.37,-194.572 L 151.408,-194.594
 L 151.448,-194.614 L 151.488,-194.631 L 151.529,-194.647 L 151.571,-194.661 L 151.614,-194.673 L 151.657,-194.683
 L 151.7,-194.69 L 151.744,-194.696 L 151.788,-194.699 L 151.832,-194.7 L 151.876,-194.699 L 151.921,-194.696
 L 151.964,-194.69 L 152.008,-194.683 L 152.051,-194.673 L 152.094,-194.661 L 152.135,-194.647 L 152.177,-194.631
 L 152.217,-194.614 L 152.257,-194.594 L 152.295,-194.572 L 152.332,-194.548 L 152.368,-194.523 L 152.403,-194.496
 L 152.437,-194.467 L 152.469,-194.436 L 152.499,-194.404 L 152.528,-194.371 L 152.555,-194.336 L 152.581,-194.3
 L 152.604,-194.263 L 152.626,-194.224 L 152.646,-194.185 L 152.664,-194.144 L 152.68,-194.103 L 152.694,-194.061
 L 152.705,-194.019 L 152.715,-193.976 L 152.723,-193.932 L 152.728,-193.888 L 152.731,-193.844 L 152.732,-193.8
 L 152.731,-193.756 L 152.728,-193.712 L 152.723,-193.668 L 152.715,-193.624 L 152.705,-193.581 L 152.694,-193.539
 L 152.68,-193.497 L 152.664,-193.456 L 152.646,-193.415 L 152.626,-193.376 L 152.604,-193.337 L 152.581,-193.3
 L 152.555,-193.264 L 152.528,-193.229 L 152.499,-193.196 L 152.469,-193.164 L 152.437,-193.133 L 152.403,-193.104
 L 152.368,-193.077 L 152.332,-193.052 L 152.295,-193.028 L 152.257,-193.006 L 152.217,-192.986 L 152.177,-192.968
 L 152.135,-192.953 L 152.094,-192.939 L 152.051,-192.927 L 152.008,-192.917 L 151.964,-192.91 L 151.921,-192.904
 L 151.876,-192.901 L 151.832,-192.9 z
M 138.957,-192.951 L 138.916,-192.954 L 138.874,-192.959 L 138.833,-192.966 L 138.792,-192.975 L 138.752,-192.987
 L 138.713,-193 L 138.674,-193.015 L 138.636,-193.032 L 138.598,-193.05 L 138.562,-193.071 L 138.527,-193.093
 L 138.493,-193.117 L 138.46,-193.143 L 138.428,-193.17 L 138.398,-193.199 L 138.369,-193.229 L 138.342,-193.261
 L 138.316,-193.294 L 138.292,-193.328 L 138.27,-193.363 L 138.249,-193.399 L 138.231,-193.437 L 138.214,-193.475
 L 138.199,-193.514 L 138.186,-193.553 L 138.174,-193.593 L 138.165,-193.634 L 138.158,-193.675 L 138.153,-193.717
 L 138.15,-193.758 L 138.149,-193.8 L 138.15,-193.842 L 138.153,-193.883 L 138.158,-193.925 L 138.165,-193.966
 L 138.174,-194.007 L 138.186,-194.047 L 138.199,-194.086 L 138.214,-194.125 L 138.231,-194.163 L 138.249,-194.201
 L 138.27,-194.237 L 138.292,-194.272 L 138.316,-194.306 L 138.342,-194.339 L 138.369,-194.371 L 138.398,-194.401
 L 138.428,-194.43 L 138.46,-194.457 L 138.493,-194.483 L 138.527,-194.507 L 138.562,-194.529 L 138.598,-194.55
 L 138.636,-194.568 L 138.674,-194.585 L 138.713,-194.6 L 138.752,-194.613 L 138.792,-194.625 L 138.833,-194.634
 L 138.874,-194.641 L 138.916,-194.646 L 138.957,-194.649 L 138.999,-194.65 L 139.041,-194.649 L 139.082,-194.646
 L 139.124,-194.641 L 139.165,-194.634 L 139.206,-194.625 L 139.246,-194.613 L 139.285,-194.6 L 139.324,-194.585
 L 139.362,-194.568 L 139.4,-194.55 L 139.436,-194.529 L 139.471,-194.507 L 139.505,-194.483 L 139.538,-194.457
 L 139.57,-194.43 L 139.6,-194.401 L 139.629,-194.371 L 139.656,-194.339 L 139.682,-194.306 L 139.706,-194.272
 L 139.728,-194.237 L 139.749,-194.201 L 139.767,-194.163 L 139.784,-194.125 L 139.799,-194.086 L 139.812,-194.047
 L 139.824,-194.007 L 139.833,-193.966 L 139.84,-193.925 L 139.845,-193.883 L 139.848,-193.842 L 139.849,-193.8
 L 139.848,-193.758 L 139.845,-193.717 L 139.84,-193.675 L 139.833,-193.634 L 139.824,-193.593 L 139.812,-193.553
 L 139.799,-193.514 L 139.784,-193.475 L 139.767,-193.437 L 139.749,-193.399 L 139.728,-193.363 L 139.706,-193.328
 L 139.682,-193.294 L 139.656,-193.261 L 139.629,-193.229 L 139.6,-193.199 L 139.57,-193.17 L 139.538,-193.143
 L 139.505,-193.117 L 139.471,-193.093 L 139.436,-193.071 L 139.4,-193.05 L 139.362,-193.032 L 139.324,-193.015
 L 139.285,-193 L 139.246,-192.987 L 139.206,-192.975 L 139.165,-192.966 L 139.124,-192.959 L 139.082,-192.954
 L 139.041,-192.951 L 138.999,-192.95 z
M 126.126,-193.001 L 126.087,-193.004 L 126.048,-193.009 L 126.01,-193.015 L 125.971,-193.024 L 125.933,-193.034
 L 125.896,-193.047 L 125.859,-193.061 L 125.824,-193.077 L 125.789,-193.094 L 125.754,-193.114 L 125.721,-193.135
 L 125.689,-193.157 L 125.658,-193.182 L 125.628,-193.207 L 125.6,-193.234 L 125.573,-193.263 L 125.547,-193.292
 L 125.523,-193.323 L 125.5,-193.356 L 125.479,-193.389 L 125.46,-193.423 L 125.442,-193.458 L 125.427,-193.494
 L 125.412,-193.53 L 125.4,-193.568 L 125.39,-193.606 L 125.381,-193.644 L 125.374,-193.683 L 125.369,-193.722
 L 125.367,-193.761 L 125.366,-193.8 L 125.367,-193.839 L 125.369,-193.878 L 125.374,-193.917 L 125.381,-193.956
 L 125.39,-193.994 L 125.4,-194.032 L 125.412,-194.069 L 125.427,-194.106 L 125.442,-194.142 L 125.46,-194.177
 L 125.479,-194.211 L 125.5,-194.244 L 125.523,-194.277 L 125.547,-194.307 L 125.573,-194.337 L 125.6,-194.366
 L 125.628,-194.393 L 125.658,-194.418 L 125.689,-194.443 L 125.721,-194.465 L 125.754,-194.486 L 125.789,-194.506
 L 125.824,-194.523 L 125.859,-194.539 L 125.896,-194.553 L 125.933,-194.566 L 125.971,-194.576 L 126.01,-194.585
 L 126.048,-194.591 L 126.087,-194.596 L 126.126,-194.599 L 126.166,-194.6 L 126.205,-194.599 L 126.244,-194.596
 L 126.283,-194.591 L 126.322,-194.585 L 126.36,-194.576 L 126.398,-194.566 L 126.435,-194.553 L 126.472,-194.539
 L 126.508,-194.523 L 126.543,-194.506 L 126.577,-194.486 L 126.61,-194.465 L 126.642,-194.443 L 126.673,-194.418
 L 126.703,-194.393 L 126.731,-194.366 L 126.758,-194.337 L 126.784,-194.307 L 126.808,-194.277 L 126.831,-194.244
 L 126.852,-194.211 L 126.871,-194.177 L 126.889,-194.142 L 126.905,-194.106 L 126.919,-194.069 L 126.931,-194.032
 L 126.942,-193.994 L 126.95,-193.956 L 126.957,-193.917 L 126.962,-193.878 L 126.965,-193.839 L 126.966,-193.8
 L 126.965,-193.761 L 126.962,-193.722 L 126.957,-193.683 L 126.95,-193.644 L 126.942,-193.606 L 126.931,-193.568
 L 126.919,-193.53 L 126.905,-193.494 L 126.889,-193.458 L 126.871,-193.423 L 126.852,-193.389 L 126.831,-193.356
 L 126.808,-193.323 L 126.784,-193.292 L 126.758,-193.263 L 126.731,-193.234 L 126.703,-193.207 L 126.673,-193.182
 L 126.642,-193.157 L 126.61,-193.135 L 126.577,-193.114 L 126.543,-193.094 L 126.508,-193.077 L 126.472,-193.061
 L 126.435,-193.047 L 126.398,-193.034 L 126.36,-193.024 L 126.322,-193.015 L 126.283,-193.009 L 126.244,-193.004
 L 126.205,-193.001 L 126.166,-193 z
M 113.296,-193.051 L 113.259,-193.054 L 113.222,-193.058 L 113.186,-193.064 L 113.15,-193.072 L 113.115,-193.082
 L 113.08,-193.094 L 113.045,-193.107 L 113.012,-193.122 L 112.979,-193.139 L 112.947,-193.157 L 112.916,-193.176
 L 112.886,-193.198 L 112.857,-193.22 L 112.829,-193.244 L 112.802,-193.27 L 112.777,-193.296 L 112.753,-193.324
 L 112.73,-193.353 L 112.709,-193.383 L 112.689,-193.414 L 112.671,-193.446 L 112.654,-193.479 L 112.639,-193.513
 L 112.626,-193.547 L 112.615,-193.582 L 112.605,-193.618 L 112.597,-193.654 L 112.59,-193.69 L 112.586,-193.726
 L 112.583,-193.763 L 112.582,-193.8 L 112.583,-193.837 L 112.586,-193.873 L 112.59,-193.91 L 112.597,-193.946
 L 112.605,-193.982 L 112.615,-194.018 L 112.626,-194.053 L 112.639,-194.087 L 112.654,-194.121 L 112.671,-194.154
 L 112.689,-194.186 L 112.709,-194.217 L 112.73,-194.247 L 112.753,-194.276 L 112.777,-194.304 L 112.802,-194.33
 L 112.829,-194.356 L 112.857,-194.38 L 112.886,-194.402 L 112.916,-194.424 L 112.947,-194.443 L 112.979,-194.461
 L 113.012,-194.478 L 113.045,-194.493 L 113.08,-194.506 L 113.115,-194.518 L 113.15,-194.527 L 113.186,-194.536
 L 113.222,-194.542 L 113.259,-194.546 L 113.296,-194.549 L 113.332,-194.55 L 113.369,-194.549 L 113.406,-194.546
 L 113.442,-194.542 L 113.479,-194.536 L 113.515,-194.527 L 113.55,-194.518 L 113.585,-194.506 L 113.619,-194.493
 L 113.653,-194.478 L 113.686,-194.461 L 113.718,-194.443 L 113.749,-194.424 L 113.779,-194.402 L 113.808,-194.38
 L 113.836,-194.356 L 113.863,-194.33 L 113.888,-194.304 L 113.912,-194.276 L 113.935,-194.247 L 113.956,-194.217
 L 113.976,-194.186 L 113.994,-194.154 L 114.01,-194.121 L 114.025,-194.087 L 114.038,-194.053 L 114.05,-194.018
 L 114.06,-193.982 L 114.068,-193.946 L 114.074,-193.91 L 114.079,-193.873 L 114.081,-193.837 L 114.082,-193.8
 L 114.081,-193.763 L 114.079,-193.726 L 114.074,-193.69 L 114.068,-193.654 L 114.06,-193.618 L 114.05,-193.582
 L 114.038,-193.547 L 114.025,-193.513 L 114.01,-193.479 L 113.994,-193.446 L 113.976,-193.414 L 113.956,-193.383
 L 113.935,-193.353 L 113.912,-193.324 L 113.888,-193.296 L 113.863,-193.27 L 113.836,-193.244 L 113.808,-193.22
 L 113.779,-193.198 L 113.749,-193.176 L 113.718,-193.157 L 113.686,-193.139 L 113.653,-193.122 L 113.619,-193.107
 L 113.585,-193.094 L 113.55,-193.082 L 113.515,-193.072 L 113.479,-193.064 L 113.442,-193.058 L 113.406,-193.054
 L 113.369,-193.051 L 113.332,-193.05 z
M 100.465,-193.101 L 100.43,-193.103 L 100.396,-193.108 L 100.362,-193.113 L 100.329,-193.121 L 100.296,-193.13
 L 100.263,-193.141 L 100.231,-193.153 L 100.2,-193.167 L 100.169,-193.183 L 100.139,-193.2 L 100.11,-193.218
 L 100.082,-193.238 L 100.055,-193.259 L 100.029,-193.281 L 100.004,-193.305 L 99.9803,-193.33 L 99.9579,-193.356
 L 99.9367,-193.383 L 99.9169,-193.411 L 99.8986,-193.44 L 99.8816,-193.47 L 99.8662,-193.501 L 99.8522,-193.532
 L 99.8399,-193.564 L 99.8291,-193.597 L 99.8199,-193.63 L 99.8124,-193.663 L 99.8065,-193.697 L 99.8023,-193.731
 L 99.7998,-193.766 L 99.799,-193.8 L 99.7998,-193.834 L 99.8023,-193.869 L 99.8065,-193.903 L 99.8124,-193.937
 L 99.8199,-193.97 L 99.8291,-194.003 L 99.8399,-194.036 L 99.8522,-194.068 L 99.8662,-194.099 L 99.8816,-194.13
 L 99.8986,-194.16 L 99.9169,-194.189 L 99.9367,-194.217 L 99.9579,-194.244 L 99.9803,-194.27 L 100.004,-194.295
 L 100.029,-194.319 L 100.055,-194.341 L 100.082,-194.362 L 100.11,-194.382 L 100.139,-194.4 L 100.169,-194.417
 L 100.2,-194.433 L 100.231,-194.447 L 100.263,-194.459 L 100.296,-194.47 L 100.329,-194.479 L 100.362,-194.487
 L 100.396,-194.492 L 100.43,-194.497 L 100.465,-194.499 L 100.499,-194.5 L 100.533,-194.499 L 100.568,-194.497
 L 100.602,-194.492 L 100.636,-194.487 L 100.669,-194.479 L 100.702,-194.47 L 100.735,-194.459 L 100.767,-194.447
 L 100.798,-194.433 L 100.829,-194.417 L 100.859,-194.4 L 100.888,-194.382 L 100.916,-194.362 L 100.943,-194.341
 L 100.969,-194.319 L 100.994,-194.295 L 101.018,-194.27 L 101.04,-194.244 L 101.061,-194.217 L 101.081,-194.189
 L 101.099,-194.16 L 101.116,-194.13 L 101.132,-194.099 L 101.146,-194.068 L 101.158,-194.036 L 101.169,-194.003
 L 101.178,-193.97 L 101.186,-193.937 L 101.191,-193.903 L 101.196,-193.869 L 101.198,-193.834 L 101.199,-193.8
 L 101.198,-193.766 L 101.196,-193.731 L 101.191,-193.697 L 101.186,-193.663 L 101.178,-193.63 L 101.169,-193.597
 L 101.158,-193.564 L 101.146,-193.532 L 101.132,-193.501 L 101.116,-193.47 L 101.099,-193.44 L 101.081,-193.411
 L 101.061,-193.383 L 101.04,-193.356 L 101.018,-193.33 L 100.994,-193.305 L 100.969,-193.281 L 100.943,-193.259
 L 100.916,-193.238 L 100.888,-193.218 L 100.859,-193.2 L 100.829,-193.183 L 100.798,-193.167 L 100.767,-193.153
 L 100.735,-193.141 L 100.702,-193.13 L 100.669,-193.121 L 100.636,-193.113 L 100.602,-193.108 L 100.568,-193.103
 L 100.533,-193.101 L 100.499,-193.1 z
M 87.6337,-193.151 L 87.6019,-193.153 L 87.5703,-193.157 L 87.5388,-193.162 L 87.5077,-193.169 L 87.477,-193.178
 L 87.4467,-193.188 L 87.4169,-193.199 L 87.3877,-193.212 L 87.3592,-193.227 L 87.3315,-193.242 L 87.3045,-193.26
 L 87.2784,-193.278 L 87.2533,-193.298 L 87.2291,-193.318 L 87.206,-193.34 L 87.184,-193.363 L 87.1632,-193.388
 L 87.1436,-193.413 L 87.1252,-193.439 L 87.1081,-193.466 L 87.0924,-193.494 L 87.078,-193.522 L 87.0651,-193.551
 L 87.0536,-193.581 L 87.0436,-193.611 L 87.0351,-193.642 L 87.0281,-193.673 L 87.0227,-193.705 L 87.0188,-193.736
 L 87.0164,-193.768 L 87.0156,-193.8 L 87.0164,-193.832 L 87.0188,-193.864 L 87.0227,-193.895 L 87.0281,-193.927
 L 87.0351,-193.958 L 87.0436,-193.989 L 87.0536,-194.019 L 87.0651,-194.049 L 87.078,-194.078 L 87.0924,-194.106
 L 87.1081,-194.134 L 87.1252,-194.161 L 87.1436,-194.187 L 87.1632,-194.212 L 87.184,-194.236 L 87.206,-194.26
 L 87.2291,-194.282 L 87.2533,-194.302 L 87.2784,-194.322 L 87.3045,-194.34 L 87.3315,-194.357 L 87.3592,-194.373
 L 87.3877,-194.388 L 87.4169,-194.4 L 87.4467,-194.412 L 87.477,-194.422 L 87.5077,-194.43 L 87.5388,-194.437
 L 87.5703,-194.443 L 87.6019,-194.447 L 87.6337,-194.449 L 87.6656,-194.45 L 87.6975,-194.449 L 87.7294,-194.447
 L 87.761,-194.443 L 87.7924,-194.437 L 87.8236,-194.43 L 87.8543,-194.422 L 87.8846,-194.412 L 87.9144,-194.4
 L 87.9435,-194.388 L 87.972,-194.373 L 87.9998,-194.357 L 88.0268,-194.34 L 88.0528,-194.322 L 88.078,-194.302
 L 88.1022,-194.282 L 88.1253,-194.26 L 88.1472,-194.236 L 88.1681,-194.212 L 88.1877,-194.187 L 88.2061,-194.161
 L 88.2232,-194.134 L 88.2389,-194.106 L 88.2532,-194.078 L 88.2662,-194.049 L 88.2776,-194.019 L 88.2876,-193.989
 L 88.2962,-193.958 L 88.3031,-193.927 L 88.3086,-193.895 L 88.3125,-193.864 L 88.3148,-193.832 L 88.3156,-193.8
 L 88.3148,-193.768 L 88.3125,-193.736 L 88.3086,-193.705 L 88.3031,-193.673 L 88.2962,-193.642 L 88.2876,-193.611
 L 88.2776,-193.581 L 88.2662,-193.551 L 88.2532,-193.522 L 88.2389,-193.494 L 88.2232,-193.466 L 88.2061,-193.439
 L 88.1877,-193.413 L 88.1681,-193.388 L 88.1472,-193.363 L 88.1253,-193.34 L 88.1022,-193.318 L 88.078,-193.298
 L 88.0528,-193.278 L 88.0268,-193.26 L 87.9998,-193.242 L 87.972,-193.227 L 87.9435,-193.212 L 87.9144,-193.199
 L 87.8846,-193.188 L 87.8543,-193.178 L 87.8236,-193.169 L 87.7924,-193.162 L 87.761,-193.157 L 87.7294,-193.153
 L 87.6975,-193.151 L 87.6656,-193.15 z
M 149.932,-170.8 L 149.932,-182.8 L 153.732,-182.8 L 153.732,-170.8 z
M 98.799,-170.8 L 98.799,-182.8 L 102.199,-182.8 L 102.199,-170.8 z
M 111.582,-170.8 L 111.582,-182.8 L 115.082,-182.8 L 115.082,-170.8 z
M 137.149,-170.8 L 137.149,-182.8 L 140.849,-182.8 L 140.849,-170.8 z
M 86.0156,-170.8 L 86.0156,-182.8 L 89.3156,-182.8 L 89.3156,-170.8 z
M 124.366,-170.8 L 124.366,-182.8 L 127.966,-182.8 L 127.966,-170.8 z
M 74.249,-207.049 L 72.249,-207.049 L 72.249,-166.8 L 74.249,-166.8 z
M 15.9917,-89.8 L 23.6417,-89.8 L 23.6417,-85.9 L 37.625,-85.9 L 37.625,-89.8 L 45.275,-89.8
 L 45.275,-85.9 L 59.2583,-85.9 L 59.2583,-89.8 L 66.9083,-89.8 L 66.9083,-85.9 L 77.9,-85.9
 L 77.9,-158.8 L 66.9083,-158.8 L 66.9083,-154.9 L 59.2583,-154.9 L 59.2583,-158.8 L 45.275,-158.8
 L 45.275,-154.9 L 37.625,-154.9 L 37.625,-158.8 L 23.6417,-158.8 L 23.6417,-154.9 L 15.9917,-154.9
 L 15.9917,-158.8 L 5,-158.8 L 5,-85.9 L 15.9917,-85.9 z
M 96.8916,-89.8 L 104.542,-89.8 L 104.542,-85.9 L 118.525,-85.9 L 118.525,-89.8 L 126.175,-89.8
 L 126.175,-85.9 L 140.158,-85.9 L 140.158,-89.8 L 147.808,-89.8 L 147.808,-85.9 L 158.8,-85.9
 L 158.8,-158.8 L 147.808,-158.8 L 147.808,-154.9 L 140.158,-154.9 L 140.158,-158.8 L 126.175,-158.8
 L 126.175,-154.9 L 118.525,-154.9 L 118.525,-158.8 L 104.542,-158.8 L 104.542,-154.9 L 96.8916,-154.9
 L 96.8916,-158.8 L 85.9,-158.8 L 85.9,-85.9 L 96.8916,-85.9 z
M 155.747,-15.6417 L 159.747,-15.6417 L 159.747,-23.9917 L 155.747,-23.9917 L 155.747,-37.275 L 159.747,-37.275
 L 159.747,-45.625 L 155.747,-45.625 L 155.747,-58.9083 L 159.747,-58.9083 L 159.747,-67.2583 L 155.747,-67.2583
 L 155.747,-77.9 L 111.498,-77.9 L 111.498,-67.2583 L 107.498,-67.2583 L 107.498,-58.9083 L 111.498,-58.9083
 L 111.498,-45.625 L 107.498,-45.625 L 107.498,-37.275 L 111.498,-37.275 L 111.498,-23.9917 L 107.498,-23.9917
 L 107.498,-15.6417 L 111.498,-15.6417 L 111.498,-5 L 155.747,-5 z
M 100.498,-15.6417 L 104.498,-15.6417 L 104.498,-23.9917 L 100.498,-23.9917 L 100.498,-37.275 L 104.498,-37.275
 L 104.498,-45.625 L 100.498,-45.625 L 100.498,-58.9083 L 104.498,-58.9083 L 104.498,-67.2583 L 100.498,-67.2583
 L 100.498,-77.9 L 56.249,-77.9 L 56.249,-67.2583 L 52.249,-67.2583 L 52.249,-58.9083 L 56.249,-58.9083
 L 56.249,-45.625 L 52.249,-45.625 L 52.249,-37.275 L 56.249,-37.275 L 56.249,-23.9917 L 52.249,-23.9917
 L 52.249,-15.6417 L 56.249,-15.6417 L 56.249,-5 L 100.498,-5 z
M 49.249,-77.9 L 5,-77.9 L 5,-5 L 49.249,-5 z
" stroke="black" fill="lightgray" stroke-width="0.5"/>
</svg>
