<?xml version="1.0" standalone="no"?>
<!DOCTYPE svg PUBLIC "-//W3C//DTD SVG 1.1//EN" "http://www.w3.org/Graphics/SVG/1.1/DTD/svg11.dtd">
<svg width="29mm" height="67mm" viewBox="22 -171 29 67" xmlns="http://www.w3.org/2000/svg" version="1.1">
<title>OpenSCAD Model</title>
<path d="
M 44.0164,-164.156 L 44.0654,-164.16 L 44.1141,-164.166 L 44.1624,-164.174 L 44.2103,-164.185 L 44.2576,-164.198
 L 44.3042,-164.213 L 44.35,-164.231 L 44.3949,-164.251 L 44.4387,-164.273 L 44.4814,-164.297 L 44.5229,-164.324
 L 44.563,-164.352 L 44.6017,-164.382 L 44.6389,-164.414 L 44.6744,-164.448 L 44.7083,-164.483 L 44.7403,-164.521
 L 44.7705,-164.559 L 44.7988,-164.599 L 44.8251,-164.641 L 44.8493,-164.684 L 44.8713,-164.727 L 44.8912,-164.772
 L 44.9089,-164.818 L 44.9243,-164.865 L 44.9374,-164.912 L 44.9481,-164.96 L 44.9565,-165.008 L 44.9625,-165.057
 L 44.9661,-165.106 L 44.9673,-165.155 L 44.9673,-169.07 L 44.9661,-169.119 L 44.9625,-169.168 L 44.9565,-169.217
 L 44.9481,-169.265 L 44.9374,-169.313 L 44.9243,-169.36 L 44.9089,-169.407 L 44.8912,-169.453 L 44.8713,-169.498
 L 44.8493,-169.541 L 44.8251,-169.584 L 44.7988,-169.626 L 44.7705,-169.666 L 44.7403,-169.704 L 44.7083,-169.742
 L 44.6744,-169.777 L 44.6389,-169.811 L 44.6017,-169.843 L 44.563,-169.873 L 44.5229,-169.901 L 44.4814,-169.928
 L 44.4387,-169.952 L 44.3949,-169.974 L 44.35,-169.994 L 44.3042,-170.012 L 44.2576,-170.027 L 44.2103,-170.04
 L 44.1624,-170.051 L 44.1141,-170.059 L 44.0654,-170.065 L 44.0164,-170.069 L 43.9673,-170.07 L 28.4816,-170.07
 L 28.4326,-170.069 L 28.3836,-170.065 L 28.3349,-170.059 L 28.2865,-170.051 L 28.2386,-170.04 L 28.1913,-170.027
 L 28.1447,-170.012 L 28.0989,-169.994 L 28.0541,-169.974 L 28.0102,-169.952 L 27.9675,-169.928 L 27.9261,-169.901
 L 27.8859,-169.873 L 27.8472,-169.843 L 27.8101,-169.811 L 27.7745,-169.777 L 27.7407,-169.742 L 27.7086,-169.704
 L 27.6784,-169.666 L 27.6502,-169.626 L 27.6239,-169.584 L 27.5997,-169.541 L 27.5776,-169.498 L 27.5578,-169.453
 L 27.5401,-169.407 L 27.5247,-169.36 L 27.5116,-169.313 L 27.5008,-169.265 L 27.4924,-169.217 L 27.4865,-169.168
 L 27.4828,-169.119 L 27.4816,-169.07 L 27.4816,-165.155 L 27.4828,-165.106 L 27.4865,-165.057 L 27.4924,-165.008
 L 27.5008,-164.96 L 27.5116,-164.912 L 27.5247,-164.865 L 27.5401,-164.818 L 27.5578,-164.772 L 27.5776,-164.727
 L 27.5997,-164.684 L 27.6239,-164.641 L 27.6502,-164.599 L 27.6784,-164.559 L 27.7086,-164.521 L 27.7407,-164.483
 L 27.7745,-164.448 L 27.8101,-164.414 L 27.8472,-164.382 L 27.8859,-164.352 L 27.9261,-164.324 L 27.9675,-164.297
 L 28.0102,-164.273 L 28.0541,-164.251 L 28.0989,-164.231 L 28.1447,-164.213 L 28.1913,-164.198 L 28.2386,-164.185
 L 28.2865,-164.174 L 28.3349,-164.166 L 28.3836,-164.16 L 28.4326,-164.156 L 28.4816,-164.155 L 43.9673,-164.155
 z
M 28.4816,-164.505 L 28.4497,-164.506 L 28.4179,-164.508 L 28.3863,-164.512 L 28.3548,-164.517 L 28.3237,-164.524
 L 28.2929,-164.533 L 28.2626,-164.543 L 28.2329,-164.554 L 28.2037,-164.567 L 28.1752,-164.582 L 28.1475,-164.597
 L 28.1205,-164.615 L 28.0944,-164.633 L 28.0693,-164.653 L 28.0451,-164.673 L 28.022,-164.695 L 28,-164.718
 L 27.9792,-164.743 L 27.9595,-164.768 L 27.9412,-164.794 L 27.9241,-164.821 L 27.9084,-164.849 L 27.894,-164.877
 L 27.8811,-164.906 L 27.8696,-164.936 L 27.8596,-164.966 L 27.8511,-164.997 L 27.8441,-165.028 L 27.8387,-165.06
 L 27.8348,-165.091 L 27.8324,-165.123 L 27.8316,-165.155 L 27.8316,-169.07 L 27.8324,-169.102 L 27.8348,-169.134
 L 27.8387,-169.165 L 27.8441,-169.197 L 27.8511,-169.228 L 27.8596,-169.259 L 27.8696,-169.289 L 27.8811,-169.319
 L 27.894,-169.348 L 27.9084,-169.376 L 27.9241,-169.404 L 27.9412,-169.431 L 27.9595,-169.457 L 27.9792,-169.482
 L 28,-169.506 L 28.022,-169.53 L 28.0451,-169.552 L 28.0693,-169.572 L 28.0944,-169.592 L 28.1205,-169.61
 L 28.1475,-169.628 L 28.1752,-169.643 L 28.2037,-169.658 L 28.2329,-169.671 L 28.2626,-169.682 L 28.2929,-169.692
 L 28.3237,-169.701 L 28.3548,-169.707 L 28.3863,-169.713 L 28.4179,-169.717 L 28.4497,-169.719 L 28.4816,-169.72
 L 43.9673,-169.72 L 43.9992,-169.719 L 44.031,-169.717 L 44.0627,-169.713 L 44.0941,-169.707 L 44.1253,-169.701
 L 44.156,-169.692 L 44.1863,-169.682 L 44.2161,-169.671 L 44.2452,-169.658 L 44.2737,-169.643 L 44.3015,-169.628
 L 44.3284,-169.61 L 44.3545,-169.592 L 44.3797,-169.572 L 44.4038,-169.552 L 44.427,-169.53 L 44.4489,-169.506
 L 44.4698,-169.482 L 44.4894,-169.457 L 44.5078,-169.431 L 44.5249,-169.404 L 44.5406,-169.376 L 44.5549,-169.348
 L 44.5679,-169.319 L 44.5793,-169.289 L 44.5893,-169.259 L 44.5979,-169.228 L 44.6048,-169.197 L 44.6103,-169.165
 L 44.6142,-169.134 L 44.6165,-169.102 L 44.6173,-169.07 L 44.6173,-165.155 L 44.6165,-165.123 L 44.6142,-165.091
 L 44.6103,-165.06 L 44.6048,-165.028 L 44.5979,-164.997 L 44.5893,-164.966 L 44.5793,-164.936 L 44.5679,-164.906
 L 44.5549,-164.877 L 44.5406,-164.849 L 44.5249,-164.821 L 44.5078,-164.794 L 44.4894,-164.768 L 44.4698,-164.743
 L 44.4489,-164.718 L 44.427,-164.695 L 44.4038,-164.673 L 44.3797,-164.653 L 44.3545,-164.633 L 44.3284,-164.615
 L 44.3015,-164.597 L 44.2737,-164.582 L 44.2452,-164.567 L 44.2161,-164.554 L 44.1863,-164.543 L 44.156,-164.533
 L 44.1253,-164.524 L 44.0941,-164.517 L 44.0627,-164.512 L 44.031,-164.508 L 43.9992,-164.506 L 43.9673,-164.505
 z
M 36.2883,-158.209 L 36.3519,-158.214 L 36.4152,-158.222 L 36.4781,-158.232 L 36.5404,-158.246 L 36.6019,-158.263
 L 36.6624,-158.283 L 36.722,-158.306 L 36.7803,-158.332 L 36.8373,-158.361 L 36.8928,-158.392 L 36.9467,-158.427
 L 36.9989,-158.463 L 37.0492,-158.503 L 37.0975,-158.544 L 37.1437,-158.588 L 37.1877,-158.634 L 37.2294,-158.683
 L 37.2686,-158.733 L 37.3054,-158.785 L 37.3395,-158.839 L 37.371,-158.895 L 37.3997,-158.952 L 37.4255,-159.01
 L 37.4485,-159.07 L 37.4685,-159.13 L 37.4855,-159.192 L 37.4995,-159.254 L 37.5104,-159.317 L 37.5182,-159.38
 L 37.5229,-159.444 L 37.5245,-159.507 L 37.5229,-159.571 L 37.5182,-159.635 L 37.5104,-159.698 L 37.4995,-159.761
 L 37.4855,-159.823 L 37.4685,-159.885 L 37.4485,-159.945 L 37.4255,-160.005 L 37.3997,-160.063 L 37.371,-160.12
 L 37.3395,-160.176 L 37.3054,-160.23 L 37.2686,-160.282 L 37.2294,-160.332 L 37.1877,-160.381 L 37.1437,-160.427
 L 37.0975,-160.471 L 37.0492,-160.512 L 36.9989,-160.552 L 36.9467,-160.588 L 36.8928,-160.623 L 36.8373,-160.654
 L 36.7803,-160.683 L 36.722,-160.709 L 36.6624,-160.731 L 36.6019,-160.752 L 36.5404,-160.769 L 36.4781,-160.783
 L 36.4152,-160.793 L 36.3519,-160.801 L 36.2883,-160.806 L 36.2245,-160.807 L 36.1607,-160.806 L 36.0971,-160.801
 L 36.0337,-160.793 L 35.9709,-160.783 L 35.9086,-160.769 L 35.8471,-160.752 L 35.7865,-160.731 L 35.727,-160.709
 L 35.6687,-160.683 L 35.6117,-160.654 L 35.5562,-160.623 L 35.5022,-160.588 L 35.4501,-160.552 L 35.3998,-160.512
 L 35.3515,-160.471 L 35.3052,-160.427 L 35.2612,-160.381 L 35.2196,-160.332 L 35.1803,-160.282 L 35.1436,-160.23
 L 35.1094,-160.176 L 35.078,-160.12 L 35.0493,-160.063 L 35.0234,-160.005 L 35.0005,-159.945 L 34.9805,-159.885
 L 34.9634,-159.823 L 34.9495,-159.761 L 34.9386,-159.698 L 34.9307,-159.635 L 34.926,-159.571 L 34.9245,-159.507
 L 34.926,-159.444 L 34.9307,-159.38 L 34.9386,-159.317 L 34.9495,-159.254 L 34.9634,-159.192 L 34.9805,-159.13
 L 35.0005,-159.07 L 35.0234,-159.01 L 35.0493,-158.952 L 35.078,-158.895 L 35.1094,-158.839 L 35.1436,-158.785
 L 35.1803,-158.733 L 35.2196,-158.683 L 35.2612,-158.634 L 35.3052,-158.588 L 35.3515,-158.544 L 35.3998,-158.503
 L 35.4501,-158.463 L 35.5022,-158.427 L 35.5562,-158.392 L 35.6117,-158.361 L 35.6687,-158.332 L 35.727,-158.306
 L 35.7865,-158.283 L 35.8471,-158.263 L 35.9086,-158.246 L 35.9709,-158.232 L 36.0337,-158.222 L 36.0971,-158.214
 L 36.1607,-158.209 L 36.2245,-158.207 z
M 30.6531,-158.509 L 30.7021,-158.512 L 30.7508,-158.518 L 30.7992,-158.527 L 30.8471,-158.537 L 30.8944,-158.551
 L 30.941,-158.566 L 30.9868,-158.584 L 31.0316,-158.604 L 31.0755,-158.626 L 31.1182,-158.65 L 31.1596,-158.676
 L 31.1998,-158.704 L 31.2385,-158.734 L 31.2756,-158.767 L 31.3112,-158.8 L 31.345,-158.836 L 31.3771,-158.873
 L 31.4073,-158.912 L 31.4355,-158.952 L 31.4618,-158.993 L 31.486,-159.036 L 31.5081,-159.08 L 31.528,-159.125
 L 31.5456,-159.171 L 31.561,-159.217 L 31.5741,-159.265 L 31.5849,-159.312 L 31.5932,-159.361 L 31.5993,-159.409
 L 31.6029,-159.458 L 31.6041,-159.507 L 31.6029,-159.557 L 31.5993,-159.605 L 31.5932,-159.654 L 31.5849,-159.703
 L 31.5741,-159.75 L 31.561,-159.798 L 31.5456,-159.844 L 31.528,-159.89 L 31.5081,-159.935 L 31.486,-159.979
 L 31.4618,-160.022 L 31.4355,-160.063 L 31.4073,-160.103 L 31.3771,-160.142 L 31.345,-160.179 L 31.3112,-160.215
 L 31.2756,-160.248 L 31.2385,-160.281 L 31.1998,-160.311 L 31.1596,-160.339 L 31.1182,-160.365 L 31.0755,-160.389
 L 31.0316,-160.411 L 30.9868,-160.431 L 30.941,-160.449 L 30.8944,-160.464 L 30.8471,-160.478 L 30.7992,-160.488
 L 30.7508,-160.497 L 30.7021,-160.503 L 30.6531,-160.506 L 30.6041,-160.507 L 30.555,-160.506 L 30.5061,-160.503
 L 30.4573,-160.497 L 30.409,-160.488 L 30.3611,-160.478 L 30.3138,-160.464 L 30.2672,-160.449 L 30.2214,-160.431
 L 30.1765,-160.411 L 30.1327,-160.389 L 30.09,-160.365 L 30.0485,-160.339 L 30.0084,-160.311 L 29.9697,-160.281
 L 29.9325,-160.248 L 29.897,-160.215 L 29.8631,-160.179 L 29.8311,-160.142 L 29.8009,-160.103 L 29.7726,-160.063
 L 29.7463,-160.022 L 29.7222,-159.979 L 29.7001,-159.935 L 29.6802,-159.89 L 29.6625,-159.844 L 29.6471,-159.798
 L 29.634,-159.75 L 29.6233,-159.703 L 29.6149,-159.654 L 29.6089,-159.605 L 29.6053,-159.557 L 29.6041,-159.507
 L 29.6053,-159.458 L 29.6089,-159.409 L 29.6149,-159.361 L 29.6233,-159.312 L 29.634,-159.265 L 29.6471,-159.217
 L 29.6625,-159.171 L 29.6802,-159.125 L 29.7001,-159.08 L 29.7222,-159.036 L 29.7463,-158.993 L 29.7726,-158.952
 L 29.8009,-158.912 L 29.8311,-158.873 L 29.8631,-158.836 L 29.897,-158.8 L 29.9325,-158.767 L 29.9697,-158.734
 L 30.0084,-158.704 L 30.0485,-158.676 L 30.09,-158.65 L 30.1327,-158.626 L 30.1765,-158.604 L 30.2214,-158.584
 L 30.2672,-158.566 L 30.3138,-158.551 L 30.3611,-158.537 L 30.409,-158.527 L 30.4573,-158.518 L 30.5061,-158.512
 L 30.555,-158.509 L 30.6041,-158.507 z
M 41.894,-158.509 L 41.9429,-158.512 L 41.9916,-158.518 L 42.04,-158.527 L 42.0879,-158.537 L 42.1352,-158.551
 L 42.1818,-158.566 L 42.2276,-158.584 L 42.2724,-158.604 L 42.3163,-158.626 L 42.359,-158.65 L 42.4005,-158.676
 L 42.4406,-158.704 L 42.4793,-158.734 L 42.5164,-158.767 L 42.552,-158.8 L 42.5858,-158.836 L 42.6179,-158.873
 L 42.6481,-158.912 L 42.6764,-158.952 L 42.7026,-158.993 L 42.7268,-159.036 L 42.7489,-159.08 L 42.7688,-159.125
 L 42.7864,-159.171 L 42.8018,-159.217 L 42.8149,-159.265 L 42.8257,-159.312 L 42.8341,-159.361 L 42.8401,-159.409
 L 42.8437,-159.458 L 42.8449,-159.507 L 42.8437,-159.557 L 42.8401,-159.605 L 42.8341,-159.654 L 42.8257,-159.703
 L 42.8149,-159.75 L 42.8018,-159.798 L 42.7864,-159.844 L 42.7688,-159.89 L 42.7489,-159.935 L 42.7268,-159.979
 L 42.7026,-160.022 L 42.6764,-160.063 L 42.6481,-160.103 L 42.6179,-160.142 L 42.5858,-160.179 L 42.552,-160.215
 L 42.5164,-160.248 L 42.4793,-160.281 L 42.4406,-160.311 L 42.4005,-160.339 L 42.359,-160.365 L 42.3163,-160.389
 L 42.2724,-160.411 L 42.2276,-160.431 L 42.1818,-160.449 L 42.1352,-160.464 L 42.0879,-160.478 L 42.04,-160.488
 L 41.9916,-160.497 L 41.9429,-160.503 L 41.894,-160.506 L 41.8449,-160.507 L 41.7958,-160.506 L 41.7469,-160.503
 L 41.6982,-160.497 L 41.6498,-160.488 L 41.6019,-160.478 L 41.5546,-160.464 L 41.508,-160.449 L 41.4622,-160.431
 L 41.4173,-160.411 L 41.3735,-160.389 L 41.3308,-160.365 L 41.2893,-160.339 L 41.2492,-160.311 L 41.2105,-160.281
 L 41.1733,-160.248 L 41.1378,-160.215 L 41.1039,-160.179 L 41.0719,-160.142 L 41.0417,-160.103 L 41.0134,-160.063
 L 40.9872,-160.022 L 40.963,-159.979 L 40.9409,-159.935 L 40.921,-159.89 L 40.9034,-159.844 L 40.888,-159.798
 L 40.8749,-159.75 L 40.8641,-159.703 L 40.8557,-159.654 L 40.8497,-159.605 L 40.8461,-159.557 L 40.8449,-159.507
 L 40.8461,-159.458 L 40.8497,-159.409 L 40.8557,-159.361 L 40.8641,-159.312 L 40.8749,-159.265 L 40.888,-159.217
 L 40.9034,-159.171 L 40.921,-159.125 L 40.9409,-159.08 L 40.963,-159.036 L 40.9872,-158.993 L 41.0134,-158.952
 L 41.0417,-158.912 L 41.0719,-158.873 L 41.1039,-158.836 L 41.1378,-158.8 L 41.1733,-158.767 L 41.2105,-158.734
 L 41.2492,-158.704 L 41.2893,-158.676 L 41.3308,-158.65 L 41.3735,-158.626 L 41.4173,-158.604 L 41.4622,-158.584
 L 41.508,-158.566 L 41.5546,-158.551 L 41.6019,-158.537 L 41.6498,-158.527 L 41.6982,-158.518 L 41.7469,-158.512
 L 41.7958,-158.509 L 41.8449,-158.507 z
M 36.917,-119.638 L 37.6079,-119.689 L 38.2955,-119.773 L 38.978,-119.892 L 39.654,-120.044 L 40.3216,-120.228
 L 40.9794,-120.446 L 41.6258,-120.695 L 42.2591,-120.976 L 42.8779,-121.287 L 43.4807,-121.629 L 44.066,-121.999
 L 44.6324,-122.398 L 45.1785,-122.824 L 45.7031,-123.277 L 46.2048,-123.755 L 46.6825,-124.256 L 47.135,-124.781
 L 47.5612,-125.327 L 47.9601,-125.894 L 48.3307,-126.479 L 48.6722,-127.082 L 48.9836,-127.7 L 49.2644,-128.334
 L 49.5137,-128.98 L 49.731,-129.638 L 49.9158,-130.305 L 50.0676,-130.981 L 50.186,-131.664 L 50.2708,-132.352
 L 50.3218,-133.042 L 50.3388,-133.735 L 50.3218,-134.428 L 50.2708,-135.118 L 50.186,-135.806 L 50.0676,-136.489
 L 49.9158,-137.164 L 49.731,-137.832 L 49.5137,-138.49 L 49.2644,-139.136 L 48.9836,-139.77 L 48.6722,-140.388
 L 48.3307,-140.991 L 47.9601,-141.576 L 47.5612,-142.143 L 47.135,-142.689 L 46.6825,-143.214 L 46.2048,-143.715
 L 45.7031,-144.193 L 45.1785,-144.645 L 44.6324,-145.072 L 44.066,-145.471 L 43.4807,-145.841 L 42.8779,-146.183
 L 42.2591,-146.494 L 41.6258,-146.775 L 40.9794,-147.024 L 40.3216,-147.242 L 39.654,-147.426 L 38.978,-147.578
 L 38.2955,-147.697 L 37.6079,-147.781 L 36.917,-147.832 L 36.2245,-147.849 L 35.5319,-147.832 L 34.841,-147.781
 L 34.1535,-147.697 L 33.4709,-147.578 L 32.795,-147.426 L 32.1273,-147.242 L 31.4695,-147.024 L 30.8232,-146.775
 L 30.1898,-146.494 L 29.5711,-146.183 L 28.9683,-145.841 L 28.383,-145.471 L 27.8166,-145.072 L 27.2705,-144.645
 L 26.7459,-144.193 L 26.2442,-143.715 L 25.7665,-143.214 L 25.314,-142.689 L 24.8878,-142.143 L 24.4889,-141.576
 L 24.1183,-140.991 L 23.7768,-140.388 L 23.4653,-139.77 L 23.1846,-139.136 L 22.9353,-138.49 L 22.718,-137.832
 L 22.5332,-137.164 L 22.3814,-136.489 L 22.263,-135.806 L 22.1782,-135.118 L 22.1272,-134.428 L 22.1102,-133.735
 L 22.1272,-133.042 L 22.1782,-132.352 L 22.263,-131.664 L 22.3814,-130.981 L 22.5332,-130.305 L 22.718,-129.638
 L 22.9353,-128.98 L 23.1846,-128.334 L 23.4653,-127.7 L 23.7768,-127.082 L 24.1183,-126.479 L 24.4889,-125.894
 L 24.8878,-125.327 L 25.314,-124.781 L 25.7665,-124.256 L 26.2442,-123.755 L 26.7459,-123.277 L 27.2705,-122.824
 L 27.8166,-122.398 L 28.383,-121.999 L 28.9683,-121.629 L 29.5711,-121.287 L 30.1898,-120.976 L 30.8232,-120.695
 L 31.4695,-120.446 L 32.1273,-120.228 L 32.795,-120.044 L 33.4709,-119.892 L 34.1535,-119.773 L 34.841,-119.689
 L 35.5319,-119.638 L 36.2245,-119.621 z
M 35.5491,-119.987 L 34.8754,-120.037 L 34.2048,-120.12 L 33.5392,-120.235 L 32.88,-120.383 L 32.2289,-120.563
 L 31.5874,-120.775 L 30.9571,-121.018 L 30.3395,-121.292 L 29.736,-121.596 L 29.1482,-121.929 L 28.5775,-122.29
 L 28.0251,-122.679 L 27.4925,-123.095 L 26.981,-123.536 L 26.4917,-124.002 L 26.0258,-124.491 L 25.5845,-125.003
 L 25.1689,-125.536 L 24.7799,-126.088 L 24.4185,-126.659 L 24.0855,-127.247 L 23.7817,-127.85 L 23.5079,-128.468
 L 23.2648,-129.098 L 23.0529,-129.739 L 22.8727,-130.391 L 22.7247,-131.05 L 22.6092,-131.715 L 22.5265,-132.386
 L 22.4768,-133.06 L 22.4602,-133.735 L 22.4768,-134.41 L 22.5265,-135.084 L 22.6092,-135.755 L 22.7247,-136.42
 L 22.8727,-137.079 L 23.0529,-137.731 L 23.2648,-138.372 L 23.5079,-139.002 L 23.7817,-139.62 L 24.0855,-140.223
 L 24.4185,-140.811 L 24.7799,-141.382 L 25.1689,-141.934 L 25.5845,-142.467 L 26.0258,-142.979 L 26.4917,-143.468
 L 26.981,-143.934 L 27.4925,-144.375 L 28.0251,-144.791 L 28.5775,-145.18 L 29.1482,-145.541 L 29.736,-145.874
 L 30.3395,-146.178 L 30.9571,-146.452 L 31.5874,-146.695 L 32.2289,-146.907 L 32.88,-147.087 L 33.5392,-147.235
 L 34.2048,-147.35 L 34.8754,-147.433 L 35.5491,-147.483 L 36.2245,-147.499 L 36.8999,-147.483 L 37.5736,-147.433
 L 38.2441,-147.35 L 38.9098,-147.235 L 39.5689,-147.087 L 40.22,-146.907 L 40.8615,-146.695 L 41.4919,-146.452
 L 42.1095,-146.178 L 42.7129,-145.874 L 43.3007,-145.541 L 43.8715,-145.18 L 44.4239,-144.791 L 44.9565,-144.375
 L 45.468,-143.934 L 45.9573,-143.468 L 46.4231,-142.979 L 46.8644,-142.467 L 47.2801,-141.934 L 47.6691,-141.382
 L 48.0305,-140.811 L 48.3635,-140.223 L 48.6673,-139.62 L 48.941,-139.002 L 49.1842,-138.372 L 49.3961,-137.731
 L 49.5763,-137.079 L 49.7243,-136.42 L 49.8398,-135.755 L 49.9225,-135.084 L 49.9722,-134.41 L 49.9888,-133.735
 L 49.9722,-133.06 L 49.9225,-132.386 L 49.8398,-131.715 L 49.7243,-131.05 L 49.5763,-130.391 L 49.3961,-129.739
 L 49.1842,-129.098 L 48.941,-128.468 L 48.6673,-127.85 L 48.3635,-127.247 L 48.0305,-126.659 L 47.6691,-126.088
 L 47.2801,-125.536 L 46.8644,-125.003 L 46.4231,-124.491 L 45.9573,-124.002 L 45.468,-123.536 L 44.9565,-123.095
 L 44.4239,-122.679 L 43.8715,-122.29 L 43.3007,-121.929 L 42.7129,-121.596 L 42.1095,-121.292 L 41.4919,-121.018
 L 40.8615,-120.775 L 40.22,-120.563 L 39.5689,-120.383 L 38.9098,-120.235 L 38.2441,-120.12 L 37.5736,-120.037
 L 36.8999,-119.987 L 36.2245,-119.971 z
M 40.3774,-104.091 L 40.5401,-104.114 L 40.6924,-104.151 L 40.8341,-104.203 L 40.9653,-104.27 L 41.086,-104.352
 L 41.1963,-104.45 L 41.296,-104.561 L 41.3852,-104.688 L 41.464,-104.83 L 41.5322,-104.987 L 41.5899,-105.159
 L 41.6372,-105.345 L 41.6739,-105.547 L 41.7002,-105.763 L 41.7159,-105.995 L 41.7212,-106.241 L 41.7199,-106.365
 L 41.7161,-106.485 L 41.7097,-106.601 L 41.7008,-106.713 L 41.6893,-106.822 L 41.6753,-106.927 L 41.6588,-107.028
 L 41.6397,-107.126 L 41.6181,-107.219 L 41.5939,-107.309 L 41.5672,-107.395 L 41.5379,-107.478 L 41.5061,-107.557
 L 41.4717,-107.632 L 41.4348,-107.703 L 41.3954,-107.77 L 41.3534,-107.834 L 41.3087,-107.894 L 41.2611,-107.951
 L 41.2107,-108.003 L 41.1574,-108.052 L 41.1012,-108.098 L 41.0422,-108.14 L 40.9803,-108.178 L 40.9156,-108.213
 L 40.848,-108.244 L 40.7776,-108.271 L 40.7042,-108.295 L 40.6281,-108.315 L 40.549,-108.331 L 40.4671,-108.344
 L 40.3823,-108.353 L 40.2947,-108.358 L 40.2042,-108.36 L 40.15,-108.359 L 40.0969,-108.358 L 40.0448,-108.355
 L 39.9937,-108.351 L 39.9437,-108.345 L 39.8947,-108.339 L 39.8468,-108.331 L 39.7999,-108.322 L 39.7541,-108.312
 L 39.7093,-108.301 L 39.6655,-108.288 L 39.6228,-108.275 L 39.5811,-108.26 L 39.5405,-108.244 L 39.5009,-108.227
 L 39.4623,-108.208 L 39.4248,-108.189 L 39.3882,-108.168 L 39.3525,-108.145 L 39.3177,-108.121 L 39.2837,-108.095
 L 39.2505,-108.068 L 39.2183,-108.039 L 39.1868,-108.009 L 39.1563,-107.977 L 39.1266,-107.944 L 39.0977,-107.909
 L 39.0697,-107.872 L 39.0426,-107.834 L 39.0163,-107.795 L 38.9909,-107.754 L 38.9663,-107.711 L 38.9426,-107.667
 L 38.9198,-107.621 L 38.9046,-107.621 L 38.9063,-107.66 L 38.9079,-107.698 L 38.9095,-107.736 L 38.9109,-107.774
 L 38.9122,-107.81 L 38.9134,-107.847 L 38.9145,-107.882 L 38.9155,-107.917 L 38.9164,-107.951 L 38.9172,-107.985
 L 38.9179,-108.018 L 38.9185,-108.05 L 38.9189,-108.082 L 38.9193,-108.114 L 38.9196,-108.144 L 38.9197,-108.174
 L 38.9198,-108.204 L 38.9198,-109.816 L 38.2337,-109.816 L 38.2337,-105.01 L 38.2337,-104.936 L 38.2334,-104.864
 L 38.233,-104.796 L 38.2325,-104.731 L 38.2318,-104.669 L 38.2309,-104.61 L 38.2299,-104.554 L 38.2287,-104.501
 L 38.2273,-104.451 L 38.2258,-104.404 L 38.2242,-104.36 L 38.2224,-104.319 L 38.2204,-104.281 L 38.2182,-104.246
 L 38.2159,-104.214 L 38.2135,-104.186 L 38.2109,-104.16 L 38.8741,-104.16 L 38.875,-104.165 L 38.876,-104.172
 L 38.877,-104.18 L 38.8781,-104.189 L 38.8792,-104.2 L 38.8804,-104.212 L 38.8816,-104.226 L 38.8829,-104.241
 L 38.8843,-104.257 L 38.8857,-104.275 L 38.8871,-104.295 L 38.8886,-104.315 L 38.8902,-104.338 L 38.8934,-104.386
 L 38.8969,-104.44 L 38.8987,-104.468 L 38.9018,-104.522 L 38.9033,-104.547 L 38.9046,-104.572 L 38.9058,-104.596
 L 38.9069,-104.618 L 38.9079,-104.64 L 38.9088,-104.662 L 38.9096,-104.682 L 38.9103,-104.701 L 38.9109,-104.72
 L 38.9113,-104.738 L 38.9117,-104.755 L 38.912,-104.771 L 38.9121,-104.786 L 38.9122,-104.8 L 38.9198,-104.8
 L 38.9431,-104.757 L 38.9671,-104.714 L 38.992,-104.674 L 39.0177,-104.634 L 39.0442,-104.596 L 39.0715,-104.56
 L 39.0996,-104.525 L 39.1285,-104.491 L 39.1582,-104.459 L 39.1887,-104.428 L 39.22,-104.399 L 39.2521,-104.371
 L 39.285,-104.345 L 39.3188,-104.32 L 39.3533,-104.296 L 39.3886,-104.274 L 39.4248,-104.253 L 39.4619,-104.234
 L 39.5001,-104.216 L 39.5393,-104.199 L 39.5797,-104.183 L 39.6212,-104.168 L 39.6638,-104.155 L 39.7074,-104.142
 L 39.7522,-104.131 L 39.798,-104.121 L 39.845,-104.113 L 39.893,-104.105 L 39.9421,-104.098 L 39.9924,-104.093
 L 40.0437,-104.089 L 40.0961,-104.086 L 40.1496,-104.084 L 40.2042,-104.084 z
M 39.9538,-104.592 L 39.8885,-104.596 L 39.8255,-104.603 L 39.7648,-104.612 L 39.7063,-104.624 L 39.65,-104.639
 L 39.596,-104.656 L 39.5442,-104.676 L 39.4946,-104.699 L 39.4473,-104.725 L 39.4023,-104.753 L 39.3594,-104.783
 L 39.3188,-104.817 L 39.2805,-104.853 L 39.2444,-104.892 L 39.2106,-104.933 L 39.1789,-104.978 L 39.1493,-105.025
 L 39.1216,-105.074 L 39.0955,-105.127 L 39.0713,-105.183 L 39.0489,-105.242 L 39.0283,-105.304 L 39.0095,-105.368
 L 38.9924,-105.436 L 38.9772,-105.506 L 38.9637,-105.58 L 38.9521,-105.656 L 38.9422,-105.735 L 38.9341,-105.818
 L 38.9279,-105.903 L 38.9234,-105.991 L 38.9207,-106.082 L 38.9198,-106.176 L 38.9207,-106.276 L 38.9234,-106.372
 L 38.928,-106.466 L 38.9344,-106.556 L 38.9427,-106.643 L 38.9528,-106.726 L 38.9647,-106.807 L 38.9784,-106.884
 L 38.994,-106.958 L 39.0114,-107.029 L 39.0307,-107.096 L 39.0518,-107.16 L 39.0747,-107.222 L 39.0994,-107.279
 L 39.126,-107.334 L 39.1544,-107.386 L 39.1847,-107.434 L 39.2169,-107.479 L 39.2513,-107.522 L 39.2879,-107.561
 L 39.3267,-107.598 L 39.3677,-107.633 L 39.4108,-107.664 L 39.4561,-107.693 L 39.5036,-107.719 L 39.5533,-107.742
 L 39.6051,-107.763 L 39.6591,-107.781 L 39.7153,-107.796 L 39.7737,-107.808 L 39.8342,-107.818 L 39.8969,-107.825
 L 39.9618,-107.829 L 40.0289,-107.83 L 40.0885,-107.829 L 40.146,-107.825 L 40.2016,-107.819 L 40.2552,-107.81
 L 40.3069,-107.798 L 40.3565,-107.784 L 40.4042,-107.767 L 40.4499,-107.748 L 40.4936,-107.726 L 40.5353,-107.701
 L 40.5751,-107.674 L 40.6129,-107.644 L 40.6487,-107.612 L 40.6825,-107.577 L 40.7143,-107.539 L 40.7442,-107.499
 L 40.7721,-107.457 L 40.7982,-107.411 L 40.8227,-107.362 L 40.8457,-107.31 L 40.8671,-107.254 L 40.8868,-107.195
 L 40.905,-107.132 L 40.9217,-107.066 L 40.9367,-106.996 L 40.9501,-106.923 L 40.962,-106.847 L 40.9723,-106.768
 L 40.981,-106.684 L 40.9881,-106.598 L 40.9937,-106.508 L 40.9976,-106.415 L 41,-106.318 L 41.0008,-106.218
 L 41,-106.118 L 40.9976,-106.022 L 40.9936,-105.929 L 40.988,-105.839 L 40.9809,-105.753 L 40.9721,-105.67
 L 40.9617,-105.59 L 40.9497,-105.513 L 40.9362,-105.44 L 40.921,-105.37 L 40.9042,-105.304 L 40.8859,-105.24
 L 40.8659,-105.18 L 40.8444,-105.124 L 40.8213,-105.07 L 40.7965,-105.02 L 40.7702,-104.974 L 40.7421,-104.93
 L 40.712,-104.889 L 40.6799,-104.85 L 40.6458,-104.815 L 40.6097,-104.782 L 40.5716,-104.751 L 40.5315,-104.723
 L 40.4895,-104.698 L 40.4454,-104.675 L 40.3994,-104.656 L 40.3513,-104.638 L 40.3013,-104.624 L 40.2493,-104.612
 L 40.1953,-104.603 L 40.1393,-104.596 L 40.0813,-104.592 L 40.0213,-104.591 z
M 31.312,-104.161 L 31.4171,-104.165 L 31.5195,-104.172 L 31.619,-104.182 L 31.7157,-104.194 L 31.8096,-104.21
 L 31.9007,-104.228 L 31.9889,-104.248 L 32.0744,-104.272 L 32.157,-104.298 L 32.2367,-104.327 L 32.3137,-104.358
 L 32.3878,-104.393 L 32.4591,-104.43 L 32.5276,-104.47 L 32.5933,-104.513 L 32.6561,-104.558 L 32.7157,-104.606
 L 32.7717,-104.656 L 32.8241,-104.709 L 32.8729,-104.763 L 32.9181,-104.82 L 32.9596,-104.879 L 32.9976,-104.94
 L 33.0319,-105.004 L 33.0626,-105.069 L 33.0897,-105.137 L 33.1132,-105.207 L 33.1331,-105.279 L 33.1493,-105.354
 L 33.162,-105.43 L 33.171,-105.509 L 33.1764,-105.59 L 33.1782,-105.673 L 33.177,-105.736 L 33.1734,-105.797
 L 33.1674,-105.857 L 33.159,-105.916 L 33.1482,-105.973 L 33.135,-106.029 L 33.1194,-106.084 L 33.1014,-106.138
 L 33.081,-106.19 L 33.0582,-106.241 L 33.033,-106.291 L 33.0054,-106.34 L 32.9754,-106.387 L 32.943,-106.433
 L 32.9082,-106.477 L 32.871,-106.521 L 32.8314,-106.563 L 32.7896,-106.604 L 32.7457,-106.642 L 32.6999,-106.679
 L 32.6519,-106.714 L 32.602,-106.746 L 32.55,-106.777 L 32.496,-106.806 L 32.44,-106.834 L 32.3819,-106.859
 L 32.3218,-106.882 L 32.2597,-106.904 L 32.1955,-106.923 L 32.1294,-106.941 L 32.0611,-106.956 L 31.9909,-106.97
 L 31.9186,-106.982 L 31.8443,-106.992 L 31.9009,-107.006 L 31.956,-107.021 L 32.0096,-107.037 L 32.0616,-107.056
 L 32.1122,-107.075 L 32.1611,-107.096 L 32.2086,-107.119 L 32.2545,-107.143 L 32.2989,-107.169 L 32.3418,-107.196
 L 32.3831,-107.224 L 32.4229,-107.254 L 32.4612,-107.286 L 32.4979,-107.319 L 32.5331,-107.353 L 32.5668,-107.389
 L 32.599,-107.426 L 32.6294,-107.465 L 32.658,-107.505 L 32.6848,-107.545 L 32.7097,-107.587 L 32.7328,-107.63
 L 32.754,-107.674 L 32.7734,-107.719 L 32.791,-107.765 L 32.8067,-107.812 L 32.8205,-107.86 L 32.8325,-107.909
 L 32.8427,-107.96 L 32.851,-108.011 L 32.8574,-108.063 L 32.8621,-108.117 L 32.8648,-108.171 L 32.8658,-108.227
 L 32.8592,-108.376 L 32.8396,-108.515 L 32.8069,-108.646 L 32.7611,-108.768 L 32.7022,-108.881 L 32.6303,-108.984
 L 32.5452,-109.079 L 32.4471,-109.165 L 32.3359,-109.242 L 32.2116,-109.309 L 32.0743,-109.368 L 31.9238,-109.417
 L 31.7603,-109.458 L 31.5837,-109.49 L 31.394,-109.512 L 31.1912,-109.526 L 30.9753,-109.53 L 29.0239,-109.53
 L 29.0239,-104.16 L 31.204,-104.16 z
M 29.7519,-107.247 L 29.7519,-108.947 L 30.9753,-108.947 L 31.0408,-108.946 L 31.1044,-108.944 L 31.1661,-108.941
 L 31.226,-108.937 L 31.284,-108.931 L 31.3403,-108.924 L 31.3946,-108.915 L 31.4471,-108.906 L 31.4978,-108.895
 L 31.5466,-108.882 L 31.5936,-108.869 L 31.6387,-108.854 L 31.682,-108.838 L 31.7234,-108.82 L 31.763,-108.802
 L 31.8008,-108.782 L 31.8367,-108.76 L 31.8706,-108.737 L 31.9025,-108.713 L 31.9323,-108.687 L 31.9601,-108.659
 L 31.9858,-108.629 L 32.0095,-108.598 L 32.0311,-108.564 L 32.0506,-108.53 L 32.0681,-108.493 L 32.0836,-108.455
 L 32.0969,-108.415 L 32.1082,-108.373 L 32.1175,-108.33 L 32.1247,-108.285 L 32.1299,-108.238 L 32.1329,-108.189
 L 32.134,-108.139 L 32.133,-108.086 L 32.13,-108.036 L 32.125,-107.986 L 32.118,-107.939 L 32.1091,-107.893
 L 32.0981,-107.848 L 32.0852,-107.805 L 32.0703,-107.764 L 32.0533,-107.724 L 32.0344,-107.687 L 32.0135,-107.65
 L 31.9906,-107.616 L 31.9657,-107.582 L 31.9388,-107.551 L 31.9099,-107.521 L 31.8791,-107.493 L 31.8462,-107.466
 L 31.8113,-107.441 L 31.7744,-107.418 L 31.7354,-107.396 L 31.6944,-107.375 L 31.6514,-107.356 L 31.6063,-107.339
 L 31.5591,-107.323 L 31.51,-107.309 L 31.4587,-107.296 L 31.4055,-107.284 L 31.3501,-107.274 L 31.2928,-107.266
 L 31.2334,-107.259 L 31.1719,-107.254 L 31.1084,-107.25 L 31.0429,-107.248 L 30.9753,-107.247 z
M 29.7519,-104.743 L 29.7519,-106.679 L 31.1087,-106.679 L 31.261,-106.676 L 31.4041,-106.666 L 31.538,-106.65
 L 31.6626,-106.627 L 31.778,-106.597 L 31.8841,-106.561 L 31.9811,-106.518 L 32.0688,-106.469 L 32.1472,-106.413
 L 32.2165,-106.351 L 32.2765,-106.282 L 32.3273,-106.206 L 32.3688,-106.124 L 32.4011,-106.036 L 32.4242,-105.94
 L 32.438,-105.839 L 32.4426,-105.73 L 32.4416,-105.673 L 32.4384,-105.618 L 32.4332,-105.564 L 32.4258,-105.512
 L 32.4163,-105.462 L 32.4047,-105.414 L 32.3909,-105.367 L 32.3751,-105.322 L 32.3572,-105.278 L 32.3371,-105.236
 L 32.315,-105.196 L 32.2907,-105.158 L 32.2643,-105.121 L 32.2359,-105.086 L 32.2053,-105.053 L 32.1726,-105.021
 L 32.1377,-104.991 L 32.1006,-104.963 L 32.061,-104.936 L 32.0188,-104.911 L 31.9742,-104.888 L 31.9271,-104.867
 L 31.8774,-104.847 L 31.8253,-104.829 L 31.7706,-104.813 L 31.7134,-104.798 L 31.6537,-104.785 L 31.5916,-104.774
 L 31.5269,-104.765 L 31.4597,-104.757 L 31.39,-104.751 L 31.3178,-104.747 L 31.2431,-104.744 L 31.1659,-104.743
 z
M 35.7268,-104.086 L 35.8291,-104.091 L 35.9283,-104.1 L 36.0246,-104.113 L 36.1179,-104.13 L 36.2082,-104.15
 L 36.2956,-104.174 L 36.3799,-104.201 L 36.4613,-104.232 L 36.5397,-104.267 L 36.6151,-104.306 L 36.6876,-104.348
 L 36.757,-104.394 L 36.8235,-104.443 L 36.887,-104.496 L 36.9476,-104.553 L 37.0051,-104.614 L 37.0595,-104.678
 L 37.1106,-104.746 L 37.1584,-104.818 L 37.2029,-104.893 L 37.2441,-104.973 L 37.2821,-105.056 L 37.3167,-105.144
 L 37.348,-105.235 L 37.376,-105.329 L 37.4008,-105.428 L 37.4222,-105.531 L 37.4403,-105.637 L 37.4552,-105.747
 L 37.4667,-105.861 L 37.4749,-105.979 L 37.4799,-106.1 L 37.4815,-106.226 L 37.48,-106.352 L 37.4754,-106.475
 L 37.4677,-106.594 L 37.4568,-106.709 L 37.443,-106.82 L 37.426,-106.926 L 37.4059,-107.029 L 37.3828,-107.128
 L 37.3565,-107.223 L 37.3272,-107.314 L 37.2948,-107.401 L 37.2593,-107.484 L 37.2207,-107.563 L 37.1791,-107.638
 L 37.1343,-107.709 L 37.0865,-107.777 L 37.0356,-107.84 L 36.9814,-107.899 L 36.9237,-107.955 L 36.8626,-108.007
 L 36.7981,-108.056 L 36.7301,-108.101 L 36.6586,-108.142 L 36.5837,-108.18 L 36.5053,-108.214 L 36.4235,-108.245
 L 36.3382,-108.272 L 36.2495,-108.295 L 36.1573,-108.315 L 36.0616,-108.331 L 35.9625,-108.344 L 35.86,-108.353
 L 35.7539,-108.358 L 35.6445,-108.36 L 35.4334,-108.353 L 35.2351,-108.331 L 35.0496,-108.294 L 34.8769,-108.242
 L 34.717,-108.175 L 34.5699,-108.094 L 34.4356,-107.998 L 34.3141,-107.887 L 34.2053,-107.762 L 34.1094,-107.622
 L 34.0262,-107.466 L 33.9559,-107.297 L 33.8983,-107.112 L 33.8535,-106.913 L 33.8216,-106.698 L 33.8024,-106.469
 L 33.796,-106.226 L 33.7976,-106.105 L 33.8024,-105.988 L 33.8103,-105.874 L 33.8215,-105.763 L 33.8359,-105.656
 L 33.8534,-105.552 L 33.8742,-105.452 L 33.8981,-105.355 L 33.9252,-105.261 L 33.9555,-105.171 L 33.989,-105.084
 L 34.0258,-105.001 L 34.0656,-104.921 L 34.1087,-104.844 L 34.155,-104.771 L 34.2045,-104.701 L 34.2571,-104.635
 L 34.3129,-104.572 L 34.3718,-104.513 L 34.4337,-104.457 L 34.4986,-104.406 L 34.5667,-104.358 L 34.6378,-104.314
 L 34.7119,-104.274 L 34.7891,-104.238 L 34.8694,-104.206 L 34.9527,-104.177 L 35.0391,-104.152 L 35.1285,-104.131
 L 35.221,-104.114 L 35.3166,-104.101 L 35.4152,-104.091 L 35.5169,-104.086 L 35.6216,-104.084 z
M 35.5482,-104.592 L 35.4845,-104.596 L 35.423,-104.603 L 35.3635,-104.613 L 35.3061,-104.626 L 35.2508,-104.642
 L 35.1976,-104.66 L 35.1466,-104.681 L 35.0976,-104.706 L 35.0507,-104.732 L 35.0059,-104.762 L 34.9632,-104.795
 L 34.9226,-104.83 L 34.8841,-104.869 L 34.8477,-104.91 L 34.8134,-104.954 L 34.7812,-105 L 34.7509,-105.05
 L 34.7225,-105.102 L 34.6959,-105.158 L 34.6712,-105.216 L 34.6483,-105.277 L 34.6272,-105.34 L 34.6079,-105.407
 L 34.5905,-105.476 L 34.575,-105.548 L 34.5612,-105.623 L 34.5493,-105.701 L 34.5392,-105.781 L 34.5309,-105.864
 L 34.5245,-105.951 L 34.5199,-106.039 L 34.5172,-106.131 L 34.5163,-106.226 L 34.5172,-106.323 L 34.52,-106.417
 L 34.5247,-106.508 L 34.5312,-106.596 L 34.5395,-106.681 L 34.5498,-106.762 L 34.5618,-106.841 L 34.5758,-106.917
 L 34.5916,-106.989 L 34.6093,-107.059 L 34.6288,-107.125 L 34.6502,-107.188 L 34.6734,-107.248 L 34.6985,-107.306
 L 34.7255,-107.36 L 34.7543,-107.411 L 34.785,-107.459 L 34.8178,-107.504 L 34.8528,-107.546 L 34.8902,-107.586
 L 34.9299,-107.622 L 34.9719,-107.657 L 35.0162,-107.688 L 35.0628,-107.717 L 35.1117,-107.743 L 35.163,-107.766
 L 35.2165,-107.786 L 35.2724,-107.804 L 35.3305,-107.819 L 35.391,-107.831 L 35.4537,-107.841 L 35.5188,-107.848
 L 35.5862,-107.852 L 35.6559,-107.853 L 35.7251,-107.852 L 35.7919,-107.848 L 35.8563,-107.841 L 35.9184,-107.832
 L 35.978,-107.82 L 36.0353,-107.805 L 36.0902,-107.788 L 36.1427,-107.767 L 36.1928,-107.745 L 36.2405,-107.719
 L 36.2858,-107.691 L 36.3288,-107.66 L 36.3693,-107.627 L 36.4075,-107.591 L 36.4433,-107.552 L 36.4767,-107.51
 L 36.5077,-107.466 L 36.5366,-107.419 L 36.5638,-107.369 L 36.5893,-107.315 L 36.6129,-107.258 L 36.6349,-107.198
 L 36.655,-107.135 L 36.6735,-107.069 L 36.6901,-106.999 L 36.705,-106.926 L 36.7182,-106.85 L 36.7296,-106.77
 L 36.7392,-106.688 L 36.7471,-106.602 L 36.7533,-106.512 L 36.7577,-106.42 L 36.7603,-106.325 L 36.7612,-106.226
 L 36.7603,-106.128 L 36.7575,-106.034 L 36.7529,-105.942 L 36.7465,-105.854 L 36.7383,-105.769 L 36.7282,-105.687
 L 36.7163,-105.608 L 36.7025,-105.532 L 36.6869,-105.459 L 36.6695,-105.389 L 36.6503,-105.322 L 36.6292,-105.259
 L 36.6063,-105.198 L 36.5815,-105.141 L 36.5549,-105.086 L 36.5265,-105.035 L 36.4963,-104.987 L 36.4639,-104.942
 L 36.4291,-104.899 L 36.3918,-104.859 L 36.3521,-104.822 L 36.31,-104.788 L 36.2654,-104.757 L 36.2184,-104.728
 L 36.1689,-104.702 L 36.117,-104.678 L 36.0627,-104.658 L 36.0059,-104.64 L 35.9467,-104.625 L 35.885,-104.613
 L 35.8209,-104.603 L 35.7543,-104.596 L 35.6854,-104.592 L 35.614,-104.591 z
M 43.4033,-104.995 L 42.6601,-104.995 L 42.6601,-104.16 L 43.4033,-104.16 z
" stroke="black" fill="lightgray" stroke-width="0.5"/>
</svg>
