<?xml version="1.0" standalone="no"?>
<!DOCTYPE svg PUBLIC "-//W3C//DTD SVG 1.1//EN" "http://www.w3.org/Graphics/SVG/1.1/DTD/svg11.dtd">
<svg width="261mm" height="210mm" viewBox="5 -215 261 210" xmlns="http://www.w3.org/2000/svg" version="1.1">
<title>OpenSCAD Model</title>
<path d="
M 95.8037,-214.4 L 5,-214.4 L 5,-210.4 L 95.8037,-210.4 z
M 209.654,-107.412 L 210.143,-107.448 L 210.631,-107.508 L 211.114,-107.592 L 211.593,-107.7 L 212.066,-107.831
 L 212.532,-107.985 L 212.99,-108.161 L 213.439,-108.36 L 213.877,-108.581 L 214.304,-108.823 L 214.719,-109.085
 L 215.12,-109.368 L 215.507,-109.67 L 215.879,-109.99 L 216.234,-110.329 L 216.573,-110.684 L 216.893,-111.056
 L 217.195,-111.443 L 217.478,-111.844 L 217.741,-112.259 L 217.982,-112.686 L 218.203,-113.124 L 218.402,-113.573
 L 218.579,-114.031 L 218.733,-114.497 L 218.864,-114.97 L 218.971,-115.449 L 219.055,-115.933 L 219.115,-116.42
 L 219.151,-116.909 L 219.163,-117.4 L 219.163,-197.4 L 219.151,-197.891 L 219.115,-198.38 L 219.055,-198.867
 L 218.971,-199.351 L 218.864,-199.83 L 218.733,-200.303 L 218.579,-200.769 L 218.402,-201.227 L 218.203,-201.676
 L 217.982,-202.114 L 217.741,-202.541 L 217.478,-202.956 L 217.195,-203.357 L 216.893,-203.744 L 216.573,-204.116
 L 216.234,-204.471 L 215.879,-204.81 L 215.507,-205.13 L 215.12,-205.432 L 214.719,-205.715 L 214.304,-205.977
 L 213.877,-206.219 L 213.439,-206.44 L 212.99,-206.639 L 212.532,-206.815 L 212.066,-206.969 L 211.593,-207.1
 L 211.114,-207.208 L 210.631,-207.292 L 210.143,-207.352 L 209.654,-207.388 L 209.163,-207.4 L 159.775,-207.4
 L 159.285,-207.388 L 158.795,-207.352 L 158.308,-207.292 L 157.825,-207.208 L 157.346,-207.1 L 156.873,-206.969
 L 156.407,-206.815 L 155.949,-206.639 L 155.5,-206.44 L 155.062,-206.219 L 154.634,-205.977 L 154.22,-205.715
 L 153.819,-205.432 L 153.432,-205.13 L 153.06,-204.81 L 152.704,-204.471 L 152.366,-204.116 L 152.045,-203.744
 L 151.743,-203.357 L 151.461,-202.956 L 151.198,-202.541 L 150.956,-202.114 L 150.736,-201.676 L 150.537,-201.227
 L 150.36,-200.769 L 150.206,-200.303 L 150.075,-199.83 L 149.968,-199.351 L 149.884,-198.867 L 149.824,-198.38
 L 149.788,-197.891 L 149.775,-197.4 L 149.775,-117.4 L 149.788,-116.909 L 149.824,-116.42 L 149.884,-115.933
 L 149.968,-115.449 L 150.075,-114.97 L 150.206,-114.497 L 150.36,-114.031 L 150.537,-113.573 L 150.736,-113.124
 L 150.956,-112.686 L 151.198,-112.259 L 151.461,-111.844 L 151.743,-111.443 L 152.045,-111.056 L 152.366,-110.684
 L 152.704,-110.329 L 153.06,-109.99 L 153.432,-109.67 L 153.819,-109.368 L 154.22,-109.085 L 154.634,-108.823
 L 155.062,-108.581 L 155.5,-108.36 L 155.949,-108.161 L 156.407,-107.985 L 156.873,-107.831 L 157.346,-107.7
 L 157.825,-107.592 L 158.308,-107.508 L 158.795,-107.448 L 159.285,-107.412 L 159.775,-107.4 L 209.163,-107.4
 z
M 67.6045,-107.463 L 67.8134,-107.626 L 68.0141,-107.799 L 68.2061,-107.982 L 68.3889,-108.174 L 68.562,-108.374
 L 68.7251,-108.583 L 68.8777,-108.8 L 69.0195,-109.024 L 69.1501,-109.254 L 69.1877,-109.329 L 69.1877,-117.4
 L 74.3877,-117.4 L 74.3877,-191.8 L 74.3757,-192.291 L 74.3396,-192.78 L 74.2795,-193.267 L 74.1956,-193.751
 L 74.0881,-194.23 L 73.9572,-194.703 L 73.8032,-195.169 L 73.6265,-195.627 L 73.4276,-196.076 L 73.207,-196.514
 L 72.965,-196.941 L 72.7024,-197.356 L 72.4198,-197.757 L 72.1179,-198.144 L 71.7973,-198.516 L 71.4588,-198.871
 L 71.1033,-199.21 L 70.7317,-199.53 L 70.3447,-199.832 L 69.9435,-200.115 L 69.5288,-200.377 L 69.1017,-200.619
 L 68.6633,-200.84 L 68.2146,-201.039 L 67.7567,-201.215 L 67.2906,-201.369 L 66.8176,-201.5 L 66.3387,-201.608
 L 65.8551,-201.692 L 65.3679,-201.752 L 64.8784,-201.788 L 64.3877,-201.8 L 15,-201.8 L 14.5093,-201.788
 L 14.0198,-201.752 L 13.5327,-201.692 L 13.0491,-201.608 L 12.5702,-201.5 L 12.0972,-201.369 L 11.6311,-201.215
 L 11.1732,-201.039 L 10.7244,-200.84 L 10.286,-200.619 L 9.85896,-200.377 L 9.44429,-200.115 L 9.043,-199.832
 L 8.65607,-199.53 L 8.28441,-199.21 L 7.92892,-198.871 L 7.59048,-198.516 L 7.26988,-198.144 L 6.96791,-197.757
 L 6.6853,-197.356 L 6.4227,-196.941 L 6.18079,-196.514 L 5.9601,-196.076 L 5.7612,-195.627 L 5.58455,-195.169
 L 5.43059,-194.703 L 5.29968,-194.23 L 5.19214,-193.751 L 5.10823,-193.267 L 5.04814,-192.78 L 5.01204,-192.291
 L 5,-191.8 L 5,-117.4 L 10.2,-117.4 L 10.2,-109.329 L 10.2376,-109.254 L 10.3683,-109.024
 L 10.5101,-108.8 L 10.6627,-108.583 L 10.8257,-108.374 L 10.9989,-108.174 L 11.1816,-107.982 L 11.3736,-107.799
 L 11.5743,-107.626 L 11.7832,-107.463 L 11.8722,-107.4 L 67.5155,-107.4 z
M 38.9789,-133.438 L 38.2656,-133.491 L 37.5558,-133.578 L 36.8511,-133.701 L 36.1533,-133.857 L 35.464,-134.048
 L 34.7849,-134.272 L 34.1176,-134.53 L 33.4638,-134.82 L 32.825,-135.141 L 32.2027,-135.494 L 31.5984,-135.876
 L 31.0137,-136.288 L 30.4499,-136.728 L 29.9083,-137.195 L 29.3903,-137.688 L 28.8972,-138.206 L 28.43,-138.748
 L 27.99,-139.312 L 27.5782,-139.897 L 27.1955,-140.501 L 26.843,-141.123 L 26.5215,-141.762 L 26.2316,-142.416
 L 25.9742,-143.083 L 25.7499,-143.762 L 25.5591,-144.451 L 25.4024,-145.149 L 25.2802,-145.854 L 25.1926,-146.564
 L 25.14,-147.277 L 25.1224,-147.992 L 25.14,-148.707 L 25.1926,-149.42 L 25.2802,-150.13 L 25.4024,-150.835
 L 25.5591,-151.533 L 25.7499,-152.222 L 25.9742,-152.901 L 26.2316,-153.568 L 26.5215,-154.222 L 26.843,-154.861
 L 27.1955,-155.483 L 27.5782,-156.087 L 27.99,-156.672 L 28.43,-157.236 L 28.8972,-157.778 L 29.3903,-158.296
 L 29.9083,-158.789 L 30.4499,-159.256 L 31.0137,-159.696 L 31.5984,-160.108 L 32.2027,-160.49 L 32.825,-160.843
 L 33.4638,-161.164 L 34.1176,-161.454 L 34.7849,-161.712 L 35.464,-161.936 L 36.1533,-162.127 L 36.8511,-162.283
 L 37.5558,-162.406 L 38.2656,-162.493 L 38.9789,-162.546 L 39.6939,-162.563 L 40.4089,-162.546 L 41.1221,-162.493
 L 41.8319,-162.406 L 42.5366,-162.283 L 43.2344,-162.127 L 43.9237,-161.936 L 44.6028,-161.712 L 45.2701,-161.454
 L 45.924,-161.164 L 46.5628,-160.843 L 47.1851,-160.49 L 47.7893,-160.108 L 48.3741,-159.696 L 48.9379,-159.256
 L 49.4794,-158.789 L 49.9974,-158.296 L 50.4906,-157.778 L 50.9577,-157.236 L 51.3978,-156.672 L 51.8096,-156.087
 L 52.1922,-155.483 L 52.5447,-154.861 L 52.8663,-154.222 L 53.1561,-153.568 L 53.4135,-152.901 L 53.6379,-152.222
 L 53.8286,-151.533 L 53.9853,-150.835 L 54.1076,-150.13 L 54.1951,-149.42 L 54.2477,-148.707 L 54.2653,-147.992
 L 54.2477,-147.277 L 54.1951,-146.564 L 54.1076,-145.854 L 53.9853,-145.149 L 53.8286,-144.451 L 53.6379,-143.762
 L 53.4135,-143.083 L 53.1561,-142.416 L 52.8663,-141.762 L 52.5447,-141.123 L 52.1922,-140.501 L 51.8096,-139.897
 L 51.3978,-139.312 L 50.9577,-138.748 L 50.4906,-138.206 L 49.9974,-137.688 L 49.4794,-137.195 L 48.9379,-136.728
 L 48.3741,-136.288 L 47.7893,-135.876 L 47.1851,-135.494 L 46.5628,-135.141 L 45.924,-134.82 L 45.2701,-134.53
 L 44.6028,-134.272 L 43.9237,-134.048 L 43.2344,-133.857 L 42.5366,-133.701 L 41.8319,-133.578 L 41.1221,-133.491
 L 40.4089,-133.438 L 39.6939,-133.421 z
M 137.266,-107.412 L 137.756,-107.448 L 138.243,-107.508 L 138.726,-107.592 L 139.205,-107.7 L 139.678,-107.831
 L 140.144,-107.985 L 140.602,-108.161 L 141.051,-108.36 L 141.489,-108.581 L 141.917,-108.823 L 142.331,-109.085
 L 142.732,-109.368 L 143.119,-109.67 L 143.491,-109.99 L 143.847,-110.329 L 144.185,-110.684 L 144.506,-111.056
 L 144.808,-111.443 L 145.09,-111.844 L 145.353,-112.259 L 145.595,-112.686 L 145.815,-113.124 L 146.014,-113.573
 L 146.191,-114.031 L 146.345,-114.497 L 146.476,-114.97 L 146.583,-115.449 L 146.667,-115.933 L 146.727,-116.42
 L 146.763,-116.909 L 146.775,-117.4 L 146.775,-122.4 L 142.175,-122.4 L 142.175,-117.4 L 142.169,-117.135
 L 142.149,-116.871 L 142.117,-116.608 L 142.072,-116.347 L 142.014,-116.088 L 141.943,-115.832 L 141.86,-115.581
 L 141.764,-115.333 L 141.657,-115.091 L 141.538,-114.854 L 141.407,-114.624 L 141.265,-114.4 L 141.113,-114.183
 L 140.95,-113.974 L 140.777,-113.774 L 140.594,-113.582 L 140.402,-113.399 L 140.201,-113.226 L 139.992,-113.063
 L 139.776,-112.91 L 139.552,-112.768 L 139.321,-112.638 L 139.084,-112.518 L 138.842,-112.411 L 138.595,-112.316
 L 138.343,-112.233 L 138.088,-112.162 L 137.829,-112.104 L 137.568,-112.058 L 137.305,-112.026 L 137.04,-112.007
 L 136.775,-112 L 87.3877,-112 L 87.1228,-112.007 L 86.8584,-112.026 L 86.5954,-112.058 L 86.3343,-112.104
 L 86.0757,-112.162 L 85.8202,-112.233 L 85.5685,-112.316 L 85.3212,-112.411 L 85.0789,-112.518 L 84.8422,-112.638
 L 84.6116,-112.768 L 84.3877,-112.91 L 84.171,-113.063 L 83.962,-113.226 L 83.7613,-113.399 L 83.5694,-113.582
 L 83.3866,-113.774 L 83.2135,-113.974 L 83.0504,-114.183 L 82.8978,-114.4 L 82.756,-114.624 L 82.6254,-114.854
 L 82.5062,-115.091 L 82.3988,-115.333 L 82.3034,-115.581 L 82.2203,-115.832 L 82.1496,-116.088 L 82.0915,-116.347
 L 82.0462,-116.608 L 82.0137,-116.871 L 81.9942,-117.135 L 81.9877,-117.4 L 81.9877,-122.4 L 77.3877,-122.4
 L 77.3877,-117.4 L 77.3998,-116.909 L 77.4359,-116.42 L 77.496,-115.933 L 77.5799,-115.449 L 77.6874,-114.97
 L 77.8183,-114.497 L 77.9723,-114.031 L 78.1489,-113.573 L 78.3479,-113.124 L 78.5685,-112.686 L 78.8105,-112.259
 L 79.073,-111.844 L 79.3557,-111.443 L 79.6576,-111.056 L 79.9782,-110.684 L 80.3167,-110.329 L 80.6721,-109.99
 L 81.0438,-109.67 L 81.4308,-109.368 L 81.832,-109.085 L 82.2467,-108.823 L 82.6738,-108.581 L 83.1122,-108.36
 L 83.5609,-108.161 L 84.0188,-107.985 L 84.4849,-107.831 L 84.9579,-107.7 L 85.4368,-107.592 L 85.9204,-107.508
 L 86.4076,-107.448 L 86.8971,-107.412 L 87.3877,-107.4 L 136.775,-107.4 z
M 265.804,-104.4 L 5,-104.4 L 5,-5 L 265.804,-5 z
" stroke="black" fill="lightgray" stroke-width="0.5"/>
</svg>
