<?xml version="1.0" standalone="no"?>
<!DOCTYPE svg PUBLIC "-//W3C//DTD SVG 1.1//EN" "http://www.w3.org/Graphics/SVG/1.1/DTD/svg11.dtd">
<svg width="25mm" height="4mm" viewBox="66 -47 25 4" xmlns="http://www.w3.org/2000/svg" version="1.1">
<title>OpenSCAD Model</title>
<path d="
M 78.4471,-43.5968 L 78.5205,-43.6022 L 78.5936,-43.6112 L 78.6661,-43.6238 L 78.7379,-43.64 L 78.8089,-43.6596
 L 78.8788,-43.6827 L 78.9475,-43.7092 L 79.0148,-43.739 L 79.0806,-43.7721 L 79.1446,-43.8084 L 79.2068,-43.8478
 L 79.267,-43.8902 L 79.325,-43.9355 L 79.3808,-43.9836 L 79.4341,-44.0343 L 79.4849,-44.0877 L 79.533,-44.1434
 L 79.5783,-44.2014 L 79.6207,-44.2616 L 79.66,-44.3238 L 79.6963,-44.3879 L 79.7294,-44.4537 L 79.7478,-44.495
 L 90.5419,-44.495 L 90.5419,-45.695 L 79.7478,-45.695 L 79.7294,-45.7363 L 79.6963,-45.8021 L 79.66,-45.8661
 L 79.6207,-45.9283 L 79.5783,-45.9885 L 79.533,-46.0466 L 79.4849,-46.1023 L 79.4341,-46.1556 L 79.3808,-46.2064
 L 79.325,-46.2545 L 79.267,-46.2998 L 79.2068,-46.3422 L 79.1446,-46.3816 L 79.0806,-46.4179 L 79.0148,-46.451
 L 78.9475,-46.4808 L 78.8788,-46.5073 L 78.8089,-46.5304 L 78.7379,-46.55 L 78.6661,-46.5662 L 78.5936,-46.5788
 L 78.5205,-46.5878 L 78.4471,-46.5932 L 78.3735,-46.595 L 78.2999,-46.5932 L 78.2264,-46.5878 L 78.1534,-46.5788
 L 78.0808,-46.5662 L 78.009,-46.55 L 77.938,-46.5304 L 77.8681,-46.5073 L 77.7994,-46.4808 L 77.7321,-46.451
 L 77.6664,-46.4179 L 77.6023,-46.3816 L 77.5401,-46.3422 L 77.4799,-46.2998 L 77.4219,-46.2545 L 77.3661,-46.2064
 L 77.3128,-46.1556 L 77.262,-46.1023 L 77.2139,-46.0466 L 77.1687,-45.9885 L 77.1263,-45.9283 L 77.0869,-45.8661
 L 77.0506,-45.8021 L 77.0175,-45.7363 L 76.9992,-45.695 L 66.205,-45.695 L 66.205,-44.495 L 76.9992,-44.495
 L 77.0175,-44.4537 L 77.0506,-44.3879 L 77.0869,-44.3238 L 77.1263,-44.2616 L 77.1687,-44.2014 L 77.2139,-44.1434
 L 77.262,-44.0877 L 77.3128,-44.0343 L 77.3661,-43.9836 L 77.4219,-43.9355 L 77.4799,-43.8902 L 77.5401,-43.8478
 L 77.6023,-43.8084 L 77.6664,-43.7721 L 77.7321,-43.739 L 77.7994,-43.7092 L 77.8681,-43.6827 L 77.938,-43.6596
 L 78.009,-43.64 L 78.0808,-43.6238 L 78.1534,-43.6112 L 78.2264,-43.6022 L 78.2999,-43.5968 L 78.3735,-43.595
 z
" stroke="black" fill="lightgray" stroke-width="0.5"/>
</svg>
