<?xml version="1.0" encoding="UTF-8" standalone="no"?>
<svg
   width="158mm"
   height="235mm"
   viewBox="5 -240 158 235"
   version="1.1"
   id="svg886"
   sodipodi:docname="bob_dishwasher_sheet_2.svg"
   inkscape:version="1.2.2 (b0a8486541, 2022-12-01)"
   xmlns:inkscape="http://www.inkscape.org/namespaces/inkscape"
   xmlns:sodipodi="http://sodipodi.sourceforge.net/DTD/sodipodi-0.dtd"
   xmlns="http://www.w3.org/2000/svg"
   xmlns:svg="http://www.w3.org/2000/svg">
  <defs
     id="defs890" />
  <sodipodi:namedview
     id="namedview888"
     pagecolor="#ffffff"
     bordercolor="#000000"
     borderopacity="0.25"
     inkscape:showpageshadow="2"
     inkscape:pageopacity="0.0"
     inkscape:pagecheckerboard="0"
     inkscape:deskcolor="#d1d1d1"
     inkscape:document-units="mm"
     showgrid="false"
     inkscape:zoom="1.1562855"
     inkscape:cx="391.77177"
     inkscape:cy="476.95835"
     inkscape:window-width="1452"
     inkscape:window-height="1233"
     inkscape:window-x="260"
     inkscape:window-y="87"
     inkscape:window-maximized="0"
     inkscape:current-layer="svg886" />
  <title
     id="title882">OpenSCAD Model</title>
  <path
     d="M 49.249,-77.9 H 5 V -5 h 44.249 z"
     id="path981"
     style="fill:none;stroke:#ff0000" />
  <path
     d="m 100.498,-15.6417 h 4 v -8.35 h -4 V -37.275 h 4 v -8.35 h -4 v -13.2833 h 4 v -8.35 h -4 V -77.9 H 56.249 v 10.6417 h -4 v 8.35 h 4 v 13.2833 h -4 v 8.35 h 4 v 13.2833 h -4 v 8.35 h 4 V -5 h 44.249 z"
     id="path979"
     style="fill:none;stroke:#ff0000" />
  <path
     d="m 155.747,-15.6417 h 4 v -8.35 h -4 V -37.275 h 4 v -8.35 h -4 v -13.2833 h 4 v -8.35 h -4 V -77.9 h -44.249 v 10.6417 h -4 v 8.35 h 4 v 13.2833 h -4 v 8.35 h 4 v 13.2833 h -4 v 8.35 h 4 V -5 h 44.249 z"
     id="path977"
     style="fill:none;stroke:#ff0000" />
  <path
     d="m 96.8916,-89.8 h 7.6504 v 3.9 h 13.983 v -3.9 h 7.65 v 3.9 h 13.983 v -3.9 h 7.65 v 3.9 H 158.8 v -72.9 h -10.992 v 3.9 h -7.65 v -3.9 h -13.983 v 3.9 h -7.65 v -3.9 h -13.983 v 3.9 h -7.6504 v -3.9 H 85.9 v 72.9 h 10.9916 z"
     id="path975"
     style="fill:none;stroke:#ff0000" />
  <path
     d="m 15.9917,-89.8 h 7.65 v 3.9 H 37.625 v -3.9 h 7.65 v 3.9 h 13.9833 v -3.9 h 7.65 v 3.9 H 77.9 v -72.9 H 66.9083 v 3.9 h -7.65 v -3.9 H 45.275 v 3.9 h -7.65 v -3.9 H 23.6417 v 3.9 h -7.65 v -3.9 H 5 v 72.9 h 10.9917 z"
     id="path973"
     style="fill:none;stroke:#ff0000" />
  <path
     d="m 74.249,-207.049 h -2 v 40.249 h 2 z"
     id="path971"
     style="fill:none;stroke:#ff0000" />
  <path
     d="m 64.249,-219.7 h -2 v 52.9 h 2 z"
     id="path967"
     style="fill:none;stroke:#ff0000" />
  <path
     d="m 69.249,-219.7 h -2 v 52.9 h 2 z"
     id="path965"
     style="fill:none;stroke:#ff0000" />
  <path
     d="m 18.951,-166.914 -0.1544,-0.176 -0.1393,-0.179 -0.1236,-0.183 -0.1078,-0.187 -0.0916,-0.189 -0.0753,-0.192 -0.0588,-0.193 -0.042,-0.195 -0.0253,-0.196 -0.0084,-0.196 0.0084,-0.196 0.0253,-0.196 0.042,-0.195 0.0588,-0.193 0.0753,-0.192 0.0916,-0.189 0.1078,-0.187 0.1236,-0.183 0.1393,-0.179 0.1544,-0.176 0.1694,-0.17 0.1838,-0.166 0.1978,-0.161 0.2114,-0.155 0.2244,-0.148 0.2369,-0.142 0.2489,-0.136 0.2601,-0.128 0.2709,-0.121 0.2809,-0.113 0.2903,-0.105 0.2989,-0.097 0.3069,-0.088 0.3141,-0.079 0.3206,-0.071 0.3262,-0.062 0.3311,-0.052 0.3353,-0.043 0.3385,-0.034 0.341,-0.024 0.3426,-0.014 0.3435,-0.005 0.3435,0.005 0.3426,0.014 0.341,0.024 0.3385,0.034 0.3352,0.043 0.3312,0.052 0.3262,0.062 0.3206,0.071 0.3141,0.079 0.3069,0.088 0.2989,0.097 0.2903,0.105 0.2809,0.113 0.2708,0.121 0.2602,0.128 0.2488,0.136 0.2369,0.142 0.2245,0.148 0.2113,0.155 0.1979,0.161 0.1838,0.166 0.1693,0.17 0.1545,0.176 0.1392,0.179 0.1237,0.183 0.1078,0.187 0.0916,0.189 0.0753,0.192 0.0587,0.193 0.0421,0.195 0.0252,0.196 0.0085,0.196 -0.0085,0.196 -0.0252,0.196 -0.0421,0.195 -0.0587,0.193 -0.0753,0.192 -0.0916,0.189 -0.1078,0.187 -0.1237,0.183 -0.1392,0.179 -0.1545,0.176 -0.1134,0.114 H 43.249 l 0.0981,-0.002 0.0979,-0.008 0.0974,-0.012 0.0968,-0.016 0.0957,-0.022 0.0946,-0.026 0.0932,-0.031 0.0916,-0.035 0.0898,-0.04 0.0877,-0.044 0.0854,-0.049 0.0829,-0.052 0.0803,-0.057 0.0774,-0.06 0.0743,-0.064 0.0711,-0.068 0.0677,-0.071 0.0641,-0.074 0.0604,-0.078 0.0565,-0.08 0.0525,-0.083 0.0484,-0.085 0.0441,-0.088 0.0398,-0.09 0.0354,-0.091 0.0308,-0.093 0.0261,-0.095 0.0215,-0.096 0.0168,-0.097 0.012,-0.097 0.0073,-0.098 0.0024,-0.098 v -54.9 H 5 v 54.9 l 0.0024,0.098 0.00723,0.098 0.01201,0.097 0.01678,0.097 0.02152,0.096 0.02617,0.095 0.03079,0.093 0.03534,0.091 0.03978,0.09 0.04413,0.088 0.04838,0.085 0.05252,0.083 0.05652,0.08 0.06039,0.078 0.06414,0.074 0.06768,0.071 0.0711,0.068 0.07432,0.064 0.07739,0.06 0.08026,0.057 0.08294,0.052 0.08542,0.049 0.08767,0.044 0.08974,0.04 0.0916,0.035 0.0932,0.031 0.09462,0.026 0.09578,0.022 0.09671,0.016 0.09743,0.012 0.0979,0.008 L 7,-166.8 h 12.0645 z m 17.2668,-14.853 v -18.966 h 2 v 18.966 z m -8.0622,0 v -18.966 h 2 v 18.966 z m -8.0622,0 v -18.966 h 2 v 18.966 z m -8.0623,0 v -18.966 h 2 v 18.966 z"
     id="path963"
     style="fill:none;stroke:#ff0000" />
  <path
     d="m 59.249,-239.7 h -4 v 4 h 2 v 68.9 h 2 z"
     id="path961"
     style="fill:none;stroke:#ff0000" />
  <path
     d="m 52.249,-239.7 h -4 v 4 h 2 v 68.9 h 2 z"
     id="path884"
     style="fill:none;stroke:#ff0000" />
  <path
     d="m 78.44715,-39.9522 0.0734,-0.005 0.0731,-0.009 0.0725,-0.0126 0.0718,-0.0162 0.071,-0.0196 0.0699,-0.0231 0.0687,-0.0265 0.0673,-0.0298 0.0658,-0.0331 0.064,-0.0363 0.0622,-0.0394 0.0602,-0.0424 0.058,-0.0453 0.0558,-0.0481 0.0533,-0.0507 0.0508,-0.0534 0.0481,-0.0557 0.0453,-0.058 0.0424,-0.0602 0.0393,-0.0622 0.0363,-0.0641 0.0331,-0.0658 0.0184,-0.0413 h 10.7941 v -1.2 h -10.7941 l -0.0184,-0.0413 -0.0331,-0.0658 -0.0363,-0.064 -0.0393,-0.0622 -0.0424,-0.0602 -0.0453,-0.0581 -0.0481,-0.0557 -0.0508,-0.0533 -0.0533,-0.0508 -0.0558,-0.0481 -0.058,-0.0453 -0.0602,-0.0424 -0.0622,-0.0394 -0.064,-0.0363 -0.0658,-0.0331 -0.0673,-0.0298 -0.0687,-0.0265 -0.0699,-0.0231 -0.071,-0.0196 -0.0718,-0.0162 -0.0725,-0.0126 -0.0731,-0.009 -0.0734,-0.005 -0.0736,-0.002 -0.0736,0.002 -0.0735,0.005 -0.073,0.009 -0.0726,0.0126 -0.0718,0.0162 -0.071,0.0196 -0.0699,0.0231 -0.0687,0.0265 -0.0673,0.0298 -0.0657,0.0331 -0.0641,0.0363 -0.0622,0.0394 -0.0602,0.0424 -0.058,0.0453 -0.0558,0.0481 -0.0533,0.0508 -0.0508,0.0533 -0.0481,0.0557 -0.0452,0.0581 -0.0424,0.0602 -0.0394,0.0622 -0.0363,0.064 -0.0331,0.0658 -0.0183,0.0413 h -10.7942 v 1.2 h 10.7942 l 0.0183,0.0413 0.0331,0.0658 0.0363,0.0641 0.0394,0.0622 0.0424,0.0602 0.0452,0.058 0.0481,0.0557 0.0508,0.0534 0.0533,0.0507 0.0558,0.0481 0.058,0.0453 0.0602,0.0424 0.0622,0.0394 0.0641,0.0363 0.0657,0.0331 0.0673,0.0298 0.0687,0.0265 0.0699,0.0231 0.071,0.0196 0.0718,0.0162 0.0726,0.0126 0.073,0.009 0.0735,0.005 0.0736,0.002 z"
     stroke="#000000"
     fill="#d3d3d3"
     stroke-width="0.5"
     id="path951"
     style="fill:none" />
</svg>
