<?xml version="1.0" standalone="no"?>
<!DOCTYPE svg PUBLIC "-//W3C//DTD SVG 1.1//EN" "http://www.w3.org/Graphics/SVG/1.1/DTD/svg11.dtd">
<svg width="184mm" height="265mm" viewBox="5 -270 184 265" xmlns="http://www.w3.org/2000/svg" version="1.1">
<title>OpenSCAD Model</title>
<path d="
M 59.1877,-269.7 L 55.1877,-269.7 L 55.1877,-265.7 L 57.1877,-265.7 L 57.1877,-186.8 L 59.1877,-186.8
 z
M 66.1877,-269.7 L 62.1877,-269.7 L 62.1877,-265.7 L 64.1877,-265.7 L 64.1877,-186.8 L 66.1877,-186.8
 z
M 22.4204,-186.914 L 22.2659,-187.09 L 22.1267,-187.269 L 22.0031,-187.452 L 21.8953,-187.639 L 21.8036,-187.828
 L 21.7284,-188.02 L 21.6696,-188.213 L 21.6276,-188.408 L 21.6023,-188.604 L 21.5939,-188.8 L 21.6023,-188.996
 L 21.6276,-189.192 L 21.6696,-189.387 L 21.7284,-189.58 L 21.8036,-189.772 L 21.8953,-189.961 L 22.0031,-190.148
 L 22.1267,-190.331 L 22.2659,-190.51 L 22.4204,-190.686 L 22.5898,-190.856 L 22.7736,-191.022 L 22.9714,-191.183
 L 23.1828,-191.338 L 23.4072,-191.486 L 23.6441,-191.628 L 23.893,-191.764 L 24.1531,-191.892 L 24.424,-192.013
 L 24.7049,-192.126 L 24.9951,-192.231 L 25.2941,-192.328 L 25.601,-192.416 L 25.9151,-192.495 L 26.2356,-192.566
 L 26.5619,-192.628 L 26.893,-192.68 L 27.2282,-192.723 L 27.5668,-192.757 L 27.9077,-192.781 L 28.2504,-192.795
 L 28.5939,-192.8 L 28.9373,-192.795 L 29.28,-192.781 L 29.621,-192.757 L 29.9595,-192.723 L 30.2947,-192.68
 L 30.6259,-192.628 L 30.9521,-192.566 L 31.2727,-192.495 L 31.5868,-192.416 L 31.8936,-192.328 L 32.1926,-192.231
 L 32.4829,-192.126 L 32.7638,-192.013 L 33.0346,-191.892 L 33.2948,-191.764 L 33.5436,-191.628 L 33.7805,-191.486
 L 34.0049,-191.338 L 34.2163,-191.183 L 34.4142,-191.022 L 34.598,-190.856 L 34.7673,-190.686 L 34.9218,-190.51
 L 35.061,-190.331 L 35.1847,-190.148 L 35.2924,-189.961 L 35.3841,-189.772 L 35.4594,-189.58 L 35.5181,-189.387
 L 35.5602,-189.192 L 35.5854,-188.996 L 35.5939,-188.8 L 35.5854,-188.604 L 35.5602,-188.408 L 35.5181,-188.213
 L 35.4594,-188.02 L 35.3841,-187.828 L 35.2924,-187.639 L 35.1847,-187.452 L 35.061,-187.269 L 34.9218,-187.09
 L 34.7673,-186.914 L 34.6539,-186.8 L 50.1877,-186.8 L 50.2859,-186.802 L 50.3838,-186.81 L 50.4812,-186.822
 L 50.5779,-186.838 L 50.6737,-186.86 L 50.7683,-186.886 L 50.8615,-186.917 L 50.9531,-186.952 L 51.0429,-186.992
 L 51.1305,-187.036 L 51.216,-187.085 L 51.2989,-187.137 L 51.3792,-187.194 L 51.4565,-187.254 L 51.5309,-187.318
 L 51.602,-187.386 L 51.6696,-187.457 L 51.7338,-187.531 L 51.7942,-187.609 L 51.8507,-187.689 L 51.9032,-187.772
 L 51.9516,-187.857 L 51.9957,-187.945 L 52.0355,-188.035 L 52.0708,-188.126 L 52.1016,-188.219 L 52.1278,-188.314
 L 52.1493,-188.41 L 52.1661,-188.507 L 52.1781,-188.604 L 52.1853,-188.702 L 52.1877,-188.8 L 52.1877,-263.7
 L 5,-263.7 L 5,-188.8 L 5.0024,-188.702 L 5.00963,-188.604 L 5.02164,-188.507 L 5.03842,-188.41
 L 5.05994,-188.314 L 5.08611,-188.219 L 5.1169,-188.126 L 5.15224,-188.035 L 5.19202,-187.945 L 5.23615,-187.857
 L 5.28453,-187.772 L 5.33705,-187.689 L 5.39357,-187.609 L 5.45396,-187.531 L 5.5181,-187.457 L 5.58578,-187.386
 L 5.65688,-187.318 L 5.7312,-187.254 L 5.80859,-187.194 L 5.88885,-187.137 L 5.97179,-187.085 L 6.05721,-187.036
 L 6.14488,-186.992 L 6.23462,-186.952 L 6.32622,-186.917 L 6.41942,-186.886 L 6.51404,-186.86 L 6.60982,-186.838
 L 6.70653,-186.822 L 6.80396,-186.81 L 6.90186,-186.802 L 7,-186.8 L 22.5339,-186.8 z
M 42.2893,-208.433 L 42.2893,-234.067 L 44.2893,-234.067 L 44.2893,-208.433 z
M 32.4923,-208.433 L 32.4923,-234.067 L 34.4923,-234.067 L 34.4923,-208.433 z
M 22.6954,-208.433 L 22.6954,-234.067 L 24.6954,-234.067 L 24.6954,-208.433 z
M 12.8985,-208.433 L 12.8985,-234.067 L 14.8985,-234.067 L 14.8985,-208.433 z
M 76.1877,-259.7 L 74.1877,-259.7 L 74.1877,-186.8 L 76.1877,-186.8 z
M 71.1877,-259.7 L 69.1877,-259.7 L 69.1877,-186.8 L 71.1877,-186.8 z
M 81.1877,-233.988 L 79.1877,-233.988 L 79.1877,-186.8 L 81.1877,-186.8 z
M 169.188,-228.8 L 84.1877,-228.8 L 84.1877,-186.8 L 169.188,-186.8 z
M 97.1877,-222.8 L 97.1877,-226.8 L 97.7377,-226.8 L 97.7377,-222.8 z
M 89.1877,-222.8 L 89.1877,-226.8 L 89.3377,-226.8 L 89.3377,-222.8 z
M 91.1877,-222.8 L 91.1877,-226.8 L 91.4377,-226.8 L 91.4377,-222.8 z
M 95.1877,-222.8 L 95.1877,-226.8 L 95.6377,-226.8 L 95.6377,-222.8 z
M 93.1877,-222.8 L 93.1877,-226.8 L 93.5377,-226.8 L 93.5377,-222.8 z
M 158.727,-212.901 L 158.683,-212.904 L 158.639,-212.91 L 158.595,-212.917 L 158.552,-212.927 L 158.51,-212.939
 L 158.468,-212.953 L 158.427,-212.968 L 158.386,-212.986 L 158.347,-213.006 L 158.308,-213.028 L 158.271,-213.052
 L 158.235,-213.077 L 158.2,-213.104 L 158.167,-213.133 L 158.135,-213.164 L 158.104,-213.196 L 158.075,-213.229
 L 158.048,-213.264 L 158.023,-213.3 L 157.999,-213.337 L 157.977,-213.376 L 157.957,-213.415 L 157.94,-213.456
 L 157.924,-213.497 L 157.91,-213.539 L 157.898,-213.581 L 157.888,-213.624 L 157.881,-213.668 L 157.875,-213.712
 L 157.872,-213.756 L 157.871,-213.8 L 157.872,-213.844 L 157.875,-213.888 L 157.881,-213.932 L 157.888,-213.976
 L 157.898,-214.019 L 157.91,-214.061 L 157.924,-214.103 L 157.94,-214.144 L 157.957,-214.185 L 157.977,-214.224
 L 157.999,-214.263 L 158.023,-214.3 L 158.048,-214.336 L 158.075,-214.371 L 158.104,-214.404 L 158.135,-214.436
 L 158.167,-214.467 L 158.2,-214.496 L 158.235,-214.523 L 158.271,-214.548 L 158.308,-214.572 L 158.347,-214.594
 L 158.386,-214.614 L 158.427,-214.631 L 158.468,-214.647 L 158.51,-214.661 L 158.552,-214.673 L 158.595,-214.683
 L 158.639,-214.69 L 158.683,-214.696 L 158.727,-214.699 L 158.771,-214.7 L 158.815,-214.699 L 158.859,-214.696
 L 158.903,-214.69 L 158.947,-214.683 L 158.99,-214.673 L 159.032,-214.661 L 159.074,-214.647 L 159.115,-214.631
 L 159.156,-214.614 L 159.195,-214.594 L 159.234,-214.572 L 159.271,-214.548 L 159.307,-214.523 L 159.342,-214.496
 L 159.375,-214.467 L 159.407,-214.436 L 159.438,-214.404 L 159.467,-214.371 L 159.494,-214.336 L 159.519,-214.3
 L 159.543,-214.263 L 159.565,-214.224 L 159.585,-214.185 L 159.603,-214.144 L 159.618,-214.103 L 159.632,-214.061
 L 159.644,-214.019 L 159.654,-213.976 L 159.661,-213.932 L 159.667,-213.888 L 159.67,-213.844 L 159.671,-213.8
 L 159.67,-213.756 L 159.667,-213.712 L 159.661,-213.668 L 159.654,-213.624 L 159.644,-213.581 L 159.632,-213.539
 L 159.618,-213.497 L 159.603,-213.456 L 159.585,-213.415 L 159.565,-213.376 L 159.543,-213.337 L 159.519,-213.3
 L 159.494,-213.264 L 159.467,-213.229 L 159.438,-213.196 L 159.407,-213.164 L 159.375,-213.133 L 159.342,-213.104
 L 159.307,-213.077 L 159.271,-213.052 L 159.234,-213.028 L 159.195,-213.006 L 159.156,-212.986 L 159.115,-212.968
 L 159.074,-212.953 L 159.032,-212.939 L 158.99,-212.927 L 158.947,-212.917 L 158.903,-212.91 L 158.859,-212.904
 L 158.815,-212.901 L 158.771,-212.9 z
M 145.896,-212.951 L 145.854,-212.954 L 145.813,-212.959 L 145.772,-212.966 L 145.731,-212.975 L 145.691,-212.987
 L 145.651,-213 L 145.612,-213.015 L 145.574,-213.032 L 145.537,-213.05 L 145.501,-213.071 L 145.465,-213.093
 L 145.431,-213.117 L 145.398,-213.143 L 145.367,-213.17 L 145.337,-213.199 L 145.308,-213.229 L 145.281,-213.261
 L 145.255,-213.294 L 145.231,-213.328 L 145.209,-213.363 L 145.188,-213.399 L 145.169,-213.437 L 145.152,-213.475
 L 145.137,-213.514 L 145.124,-213.553 L 145.113,-213.593 L 145.104,-213.634 L 145.097,-213.675 L 145.092,-213.717
 L 145.089,-213.758 L 145.088,-213.8 L 145.089,-213.842 L 145.092,-213.883 L 145.097,-213.925 L 145.104,-213.966
 L 145.113,-214.007 L 145.124,-214.047 L 145.137,-214.086 L 145.152,-214.125 L 145.169,-214.163 L 145.188,-214.201
 L 145.209,-214.237 L 145.231,-214.272 L 145.255,-214.306 L 145.281,-214.339 L 145.308,-214.371 L 145.337,-214.401
 L 145.367,-214.43 L 145.398,-214.457 L 145.431,-214.483 L 145.465,-214.507 L 145.501,-214.529 L 145.537,-214.55
 L 145.574,-214.568 L 145.612,-214.585 L 145.651,-214.6 L 145.691,-214.613 L 145.731,-214.625 L 145.772,-214.634
 L 145.813,-214.641 L 145.854,-214.646 L 145.896,-214.649 L 145.938,-214.65 L 145.979,-214.649 L 146.021,-214.646
 L 146.062,-214.641 L 146.104,-214.634 L 146.144,-214.625 L 146.184,-214.613 L 146.224,-214.6 L 146.263,-214.585
 L 146.301,-214.568 L 146.338,-214.55 L 146.375,-214.529 L 146.41,-214.507 L 146.444,-214.483 L 146.477,-214.457
 L 146.509,-214.43 L 146.539,-214.401 L 146.568,-214.371 L 146.595,-214.339 L 146.62,-214.306 L 146.644,-214.272
 L 146.667,-214.237 L 146.687,-214.201 L 146.706,-214.163 L 146.723,-214.125 L 146.738,-214.086 L 146.751,-214.047
 L 146.762,-214.007 L 146.771,-213.966 L 146.779,-213.925 L 146.784,-213.883 L 146.787,-213.842 L 146.788,-213.8
 L 146.787,-213.758 L 146.784,-213.717 L 146.779,-213.675 L 146.771,-213.634 L 146.762,-213.593 L 146.751,-213.553
 L 146.738,-213.514 L 146.723,-213.475 L 146.706,-213.437 L 146.687,-213.399 L 146.667,-213.363 L 146.644,-213.328
 L 146.62,-213.294 L 146.595,-213.261 L 146.568,-213.229 L 146.539,-213.199 L 146.509,-213.17 L 146.477,-213.143
 L 146.444,-213.117 L 146.41,-213.093 L 146.375,-213.071 L 146.338,-213.05 L 146.301,-213.032 L 146.263,-213.015
 L 146.224,-213 L 146.184,-212.987 L 146.144,-212.975 L 146.104,-212.966 L 146.062,-212.959 L 146.021,-212.954
 L 145.979,-212.951 L 145.938,-212.95 z
M 133.065,-213.001 L 133.026,-213.004 L 132.987,-213.009 L 132.948,-213.015 L 132.91,-213.024 L 132.872,-213.034
 L 132.835,-213.047 L 132.798,-213.061 L 132.762,-213.077 L 132.727,-213.094 L 132.693,-213.114 L 132.66,-213.135
 L 132.628,-213.157 L 132.597,-213.182 L 132.567,-213.207 L 132.539,-213.234 L 132.512,-213.263 L 132.486,-213.292
 L 132.462,-213.323 L 132.439,-213.356 L 132.418,-213.389 L 132.399,-213.423 L 132.381,-213.458 L 132.365,-213.494
 L 132.351,-213.53 L 132.339,-213.568 L 132.328,-213.606 L 132.32,-213.644 L 132.313,-213.683 L 132.308,-213.722
 L 132.305,-213.761 L 132.304,-213.8 L 132.305,-213.839 L 132.308,-213.878 L 132.313,-213.917 L 132.32,-213.956
 L 132.328,-213.994 L 132.339,-214.032 L 132.351,-214.069 L 132.365,-214.106 L 132.381,-214.142 L 132.399,-214.177
 L 132.418,-214.211 L 132.439,-214.244 L 132.462,-214.277 L 132.486,-214.307 L 132.512,-214.337 L 132.539,-214.366
 L 132.567,-214.393 L 132.597,-214.418 L 132.628,-214.443 L 132.66,-214.465 L 132.693,-214.486 L 132.727,-214.506
 L 132.762,-214.523 L 132.798,-214.539 L 132.835,-214.553 L 132.872,-214.566 L 132.91,-214.576 L 132.948,-214.585
 L 132.987,-214.591 L 133.026,-214.596 L 133.065,-214.599 L 133.104,-214.6 L 133.144,-214.599 L 133.183,-214.596
 L 133.222,-214.591 L 133.26,-214.585 L 133.299,-214.576 L 133.337,-214.566 L 133.374,-214.553 L 133.411,-214.539
 L 133.446,-214.523 L 133.482,-214.506 L 133.516,-214.486 L 133.549,-214.465 L 133.581,-214.443 L 133.612,-214.418
 L 133.642,-214.393 L 133.67,-214.366 L 133.697,-214.337 L 133.723,-214.307 L 133.747,-214.277 L 133.77,-214.244
 L 133.791,-214.211 L 133.81,-214.177 L 133.828,-214.142 L 133.844,-214.106 L 133.858,-214.069 L 133.87,-214.032
 L 133.88,-213.994 L 133.889,-213.956 L 133.896,-213.917 L 133.901,-213.878 L 133.903,-213.839 L 133.904,-213.8
 L 133.903,-213.761 L 133.901,-213.722 L 133.896,-213.683 L 133.889,-213.644 L 133.88,-213.606 L 133.87,-213.568
 L 133.858,-213.53 L 133.844,-213.494 L 133.828,-213.458 L 133.81,-213.423 L 133.791,-213.389 L 133.77,-213.356
 L 133.747,-213.323 L 133.723,-213.292 L 133.697,-213.263 L 133.67,-213.234 L 133.642,-213.207 L 133.612,-213.182
 L 133.581,-213.157 L 133.549,-213.135 L 133.516,-213.114 L 133.482,-213.094 L 133.446,-213.077 L 133.411,-213.061
 L 133.374,-213.047 L 133.337,-213.034 L 133.299,-213.024 L 133.26,-213.015 L 133.222,-213.009 L 133.183,-213.004
 L 133.144,-213.001 L 133.104,-213 z
M 120.234,-213.051 L 120.198,-213.054 L 120.161,-213.058 L 120.125,-213.064 L 120.089,-213.072 L 120.053,-213.082
 L 120.018,-213.094 L 119.984,-213.107 L 119.95,-213.122 L 119.918,-213.139 L 119.885,-213.157 L 119.854,-213.176
 L 119.824,-213.198 L 119.795,-213.22 L 119.767,-213.244 L 119.741,-213.27 L 119.715,-213.296 L 119.691,-213.324
 L 119.669,-213.353 L 119.647,-213.383 L 119.628,-213.414 L 119.61,-213.446 L 119.593,-213.479 L 119.578,-213.513
 L 119.565,-213.547 L 119.553,-213.582 L 119.544,-213.618 L 119.535,-213.654 L 119.529,-213.69 L 119.525,-213.726
 L 119.522,-213.763 L 119.521,-213.8 L 119.522,-213.837 L 119.525,-213.873 L 119.529,-213.91 L 119.535,-213.946
 L 119.544,-213.982 L 119.553,-214.018 L 119.565,-214.053 L 119.578,-214.087 L 119.593,-214.121 L 119.61,-214.154
 L 119.628,-214.186 L 119.647,-214.217 L 119.669,-214.247 L 119.691,-214.276 L 119.715,-214.304 L 119.741,-214.33
 L 119.767,-214.356 L 119.795,-214.38 L 119.824,-214.402 L 119.854,-214.424 L 119.885,-214.443 L 119.918,-214.461
 L 119.95,-214.478 L 119.984,-214.493 L 120.018,-214.506 L 120.053,-214.518 L 120.089,-214.527 L 120.125,-214.536
 L 120.161,-214.542 L 120.198,-214.546 L 120.234,-214.549 L 120.271,-214.55 L 120.308,-214.549 L 120.345,-214.546
 L 120.381,-214.542 L 120.417,-214.536 L 120.453,-214.527 L 120.489,-214.518 L 120.524,-214.506 L 120.558,-214.493
 L 120.592,-214.478 L 120.625,-214.461 L 120.657,-214.443 L 120.688,-214.424 L 120.718,-214.402 L 120.747,-214.38
 L 120.775,-214.356 L 120.801,-214.33 L 120.827,-214.304 L 120.851,-214.276 L 120.873,-214.247 L 120.895,-214.217
 L 120.914,-214.186 L 120.933,-214.154 L 120.949,-214.121 L 120.964,-214.087 L 120.977,-214.053 L 120.989,-214.018
 L 120.999,-213.982 L 121.007,-213.946 L 121.013,-213.91 L 121.017,-213.873 L 121.02,-213.837 L 121.021,-213.8
 L 121.02,-213.763 L 121.017,-213.726 L 121.013,-213.69 L 121.007,-213.654 L 120.999,-213.618 L 120.989,-213.582
 L 120.977,-213.547 L 120.964,-213.513 L 120.949,-213.479 L 120.933,-213.446 L 120.914,-213.414 L 120.895,-213.383
 L 120.873,-213.353 L 120.851,-213.324 L 120.827,-213.296 L 120.801,-213.27 L 120.775,-213.244 L 120.747,-213.22
 L 120.718,-213.198 L 120.688,-213.176 L 120.657,-213.157 L 120.625,-213.139 L 120.592,-213.122 L 120.558,-213.107
 L 120.524,-213.094 L 120.489,-213.082 L 120.453,-213.072 L 120.417,-213.064 L 120.381,-213.058 L 120.345,-213.054
 L 120.308,-213.051 L 120.271,-213.05 z
M 107.403,-213.101 L 107.369,-213.103 L 107.335,-213.108 L 107.301,-213.113 L 107.268,-213.121 L 107.235,-213.13
 L 107.202,-213.141 L 107.17,-213.153 L 107.138,-213.167 L 107.108,-213.183 L 107.078,-213.2 L 107.049,-213.218
 L 107.021,-213.238 L 106.994,-213.259 L 106.968,-213.281 L 106.943,-213.305 L 106.919,-213.33 L 106.897,-213.356
 L 106.875,-213.383 L 106.856,-213.411 L 106.837,-213.44 L 106.82,-213.47 L 106.805,-213.501 L 106.791,-213.532
 L 106.779,-213.564 L 106.768,-213.597 L 106.759,-213.63 L 106.751,-213.663 L 106.745,-213.697 L 106.741,-213.731
 L 106.739,-213.766 L 106.738,-213.8 L 106.739,-213.834 L 106.741,-213.869 L 106.745,-213.903 L 106.751,-213.937
 L 106.759,-213.97 L 106.768,-214.003 L 106.779,-214.036 L 106.791,-214.068 L 106.805,-214.099 L 106.82,-214.13
 L 106.837,-214.16 L 106.856,-214.189 L 106.875,-214.217 L 106.897,-214.244 L 106.919,-214.27 L 106.943,-214.295
 L 106.968,-214.319 L 106.994,-214.341 L 107.021,-214.362 L 107.049,-214.382 L 107.078,-214.4 L 107.108,-214.417
 L 107.138,-214.433 L 107.17,-214.447 L 107.202,-214.459 L 107.235,-214.47 L 107.268,-214.479 L 107.301,-214.487
 L 107.335,-214.492 L 107.369,-214.497 L 107.403,-214.499 L 107.438,-214.5 L 107.472,-214.499 L 107.506,-214.497
 L 107.54,-214.492 L 107.574,-214.487 L 107.608,-214.479 L 107.641,-214.47 L 107.674,-214.459 L 107.706,-214.447
 L 107.737,-214.433 L 107.768,-214.417 L 107.798,-214.4 L 107.827,-214.382 L 107.855,-214.362 L 107.882,-214.341
 L 107.908,-214.319 L 107.933,-214.295 L 107.956,-214.27 L 107.979,-214.244 L 108,-214.217 L 108.02,-214.189
 L 108.038,-214.16 L 108.055,-214.13 L 108.071,-214.099 L 108.084,-214.068 L 108.097,-214.036 L 108.108,-214.003
 L 108.117,-213.97 L 108.124,-213.937 L 108.13,-213.903 L 108.134,-213.869 L 108.137,-213.834 L 108.138,-213.8
 L 108.137,-213.766 L 108.134,-213.731 L 108.13,-213.697 L 108.124,-213.663 L 108.117,-213.63 L 108.108,-213.597
 L 108.097,-213.564 L 108.084,-213.532 L 108.071,-213.501 L 108.055,-213.47 L 108.038,-213.44 L 108.02,-213.411
 L 108,-213.383 L 107.979,-213.356 L 107.956,-213.33 L 107.933,-213.305 L 107.908,-213.281 L 107.882,-213.259
 L 107.855,-213.238 L 107.827,-213.218 L 107.798,-213.2 L 107.768,-213.183 L 107.737,-213.167 L 107.706,-213.153
 L 107.674,-213.141 L 107.641,-213.13 L 107.608,-213.121 L 107.574,-213.113 L 107.54,-213.108 L 107.506,-213.103
 L 107.472,-213.101 L 107.438,-213.1 z
M 94.5725,-213.151 L 94.5407,-213.153 L 94.509,-213.157 L 94.4776,-213.162 L 94.4465,-213.169 L 94.4157,-213.178
 L 94.3854,-213.188 L 94.3557,-213.199 L 94.3265,-213.212 L 94.298,-213.227 L 94.2702,-213.242 L 94.2433,-213.26
 L 94.2172,-213.278 L 94.192,-213.298 L 94.1679,-213.318 L 94.1448,-213.34 L 94.1228,-213.363 L 94.1019,-213.388
 L 94.0823,-213.413 L 94.0639,-213.439 L 94.0469,-213.466 L 94.0312,-213.494 L 94.0168,-213.522 L 94.0039,-213.551
 L 93.9924,-213.581 L 93.9824,-213.611 L 93.9739,-213.642 L 93.9669,-213.673 L 93.9614,-213.705 L 93.9575,-213.736
 L 93.9552,-213.768 L 93.9544,-213.8 L 93.9552,-213.832 L 93.9575,-213.864 L 93.9614,-213.895 L 93.9669,-213.927
 L 93.9739,-213.958 L 93.9824,-213.989 L 93.9924,-214.019 L 94.0039,-214.049 L 94.0168,-214.078 L 94.0312,-214.106
 L 94.0469,-214.134 L 94.0639,-214.161 L 94.0823,-214.187 L 94.1019,-214.212 L 94.1228,-214.236 L 94.1448,-214.26
 L 94.1679,-214.282 L 94.192,-214.302 L 94.2172,-214.322 L 94.2433,-214.34 L 94.2702,-214.357 L 94.298,-214.373
 L 94.3265,-214.388 L 94.3557,-214.4 L 94.3854,-214.412 L 94.4157,-214.422 L 94.4465,-214.43 L 94.4776,-214.437
 L 94.509,-214.443 L 94.5407,-214.447 L 94.5725,-214.449 L 94.6044,-214.45 L 94.6363,-214.449 L 94.6681,-214.447
 L 94.6998,-214.443 L 94.7312,-214.437 L 94.7623,-214.43 L 94.7931,-214.422 L 94.8234,-214.412 L 94.8531,-214.4
 L 94.8823,-214.388 L 94.9108,-214.373 L 94.9386,-214.357 L 94.9655,-214.34 L 94.9916,-214.322 L 95.0168,-214.302
 L 95.0409,-214.282 L 95.064,-214.26 L 95.086,-214.236 L 95.1069,-214.212 L 95.1265,-214.187 L 95.1449,-214.161
 L 95.1619,-214.134 L 95.1777,-214.106 L 95.192,-214.078 L 95.2049,-214.049 L 95.2164,-214.019 L 95.2264,-213.989
 L 95.2349,-213.958 L 95.2419,-213.927 L 95.2474,-213.895 L 95.2513,-213.864 L 95.2536,-213.832 L 95.2544,-213.8
 L 95.2536,-213.768 L 95.2513,-213.736 L 95.2474,-213.705 L 95.2419,-213.673 L 95.2349,-213.642 L 95.2264,-213.611
 L 95.2164,-213.581 L 95.2049,-213.551 L 95.192,-213.522 L 95.1777,-213.494 L 95.1619,-213.466 L 95.1449,-213.439
 L 95.1265,-213.413 L 95.1069,-213.388 L 95.086,-213.363 L 95.064,-213.34 L 95.0409,-213.318 L 95.0168,-213.298
 L 94.9916,-213.278 L 94.9655,-213.26 L 94.9386,-213.242 L 94.9108,-213.227 L 94.8823,-213.212 L 94.8531,-213.199
 L 94.8234,-213.188 L 94.7931,-213.178 L 94.7623,-213.169 L 94.7312,-213.162 L 94.6998,-213.157 L 94.6681,-213.153
 L 94.6363,-213.151 L 94.6044,-213.15 z
M 92.9544,-190.8 L 92.9544,-202.8 L 96.2544,-202.8 L 96.2544,-190.8 z
M 105.738,-190.8 L 105.738,-202.8 L 109.138,-202.8 L 109.138,-190.8 z
M 118.521,-190.8 L 118.521,-202.8 L 122.021,-202.8 L 122.021,-190.8 z
M 131.304,-190.8 L 131.304,-202.8 L 134.904,-202.8 L 134.904,-190.8 z
M 156.871,-190.8 L 156.871,-202.8 L 160.671,-202.8 L 160.671,-190.8 z
M 144.088,-190.8 L 144.088,-202.8 L 147.788,-202.8 L 147.788,-190.8 z
M 17.6583,-99.8 L 25.3083,-99.8 L 25.3083,-95.9 L 42.625,-95.9 L 42.625,-99.8 L 50.275,-99.8
 L 50.275,-95.9 L 67.5917,-95.9 L 67.5917,-99.8 L 75.2417,-99.8 L 75.2417,-95.9 L 87.9,-95.9
 L 87.9,-178.8 L 75.2417,-178.8 L 75.2417,-174.9 L 67.5917,-174.9 L 67.5917,-178.8 L 50.275,-178.8
 L 50.275,-174.9 L 42.625,-174.9 L 42.625,-178.8 L 25.3083,-178.8 L 25.3083,-174.9 L 17.6583,-174.9
 L 17.6583,-178.8 L 5,-178.8 L 5,-95.9 L 17.6583,-95.9 z
M 108.558,-99.8 L 116.208,-99.8 L 116.208,-95.9 L 133.525,-95.9 L 133.525,-99.8 L 141.175,-99.8
 L 141.175,-95.9 L 158.492,-95.9 L 158.492,-99.8 L 166.142,-99.8 L 166.142,-95.9 L 178.8,-95.9
 L 178.8,-178.8 L 166.142,-178.8 L 166.142,-174.9 L 158.492,-174.9 L 158.492,-178.8 L 141.175,-178.8
 L 141.175,-174.9 L 133.525,-174.9 L 133.525,-178.8 L 116.208,-178.8 L 116.208,-174.9 L 108.558,-174.9
 L 108.558,-178.8 L 95.9,-178.8 L 95.9,-95.9 L 108.558,-95.9 z
M 184.563,-17.3083 L 188.563,-17.3083 L 188.563,-25.6583 L 184.563,-25.6583 L 184.563,-42.275 L 188.563,-42.275
 L 188.563,-50.625 L 184.563,-50.625 L 184.563,-67.2417 L 188.563,-67.2417 L 188.563,-75.5917 L 184.563,-75.5917
 L 184.563,-87.9 L 133.376,-87.9 L 133.376,-75.5917 L 129.376,-75.5917 L 129.376,-67.2417 L 133.376,-67.2417
 L 133.376,-50.625 L 129.376,-50.625 L 129.376,-42.275 L 133.376,-42.275 L 133.376,-25.6583 L 129.376,-25.6583
 L 129.376,-17.3083 L 133.376,-17.3083 L 133.376,-5 L 184.563,-5 z
M 122.375,-17.3083 L 126.375,-17.3083 L 126.375,-25.6583 L 122.375,-25.6583 L 122.375,-42.275 L 126.375,-42.275
 L 126.375,-50.625 L 122.375,-50.625 L 122.375,-67.2417 L 126.375,-67.2417 L 126.375,-75.5917 L 122.375,-75.5917
 L 122.375,-87.9 L 71.1877,-87.9 L 71.1877,-75.5917 L 67.1877,-75.5917 L 67.1877,-67.2417 L 71.1877,-67.2417
 L 71.1877,-50.625 L 67.1877,-50.625 L 67.1877,-42.275 L 71.1877,-42.275 L 71.1877,-25.6583 L 67.1877,-25.6583
 L 67.1877,-17.3083 L 71.1877,-17.3083 L 71.1877,-5 L 122.375,-5 z
M 64.1877,-87.9 L 5,-87.9 L 5,-5 L 64.1877,-5 z
" stroke="black" fill="lightgray" stroke-width="0.5"/>
</svg>
