<?xml version="1.0" encoding="UTF-8" standalone="no"?>
<svg
   width="261mm"
   height="210mm"
   viewBox="5 -215 261 210"
   version="1.1"
   id="svg6"
   sodipodi:docname="bob_dishwasher_sheet_3_export.svg"
   inkscape:version="1.2.2 (b0a8486541, 2022-12-01)"
   xmlns:inkscape="http://www.inkscape.org/namespaces/inkscape"
   xmlns:sodipodi="http://sodipodi.sourceforge.net/DTD/sodipodi-0.dtd"
   xmlns="http://www.w3.org/2000/svg"
   xmlns:svg="http://www.w3.org/2000/svg"
   xmlns:rdf="http://www.w3.org/1999/02/22-rdf-syntax-ns#"
   xmlns:cc="http://creativecommons.org/ns#"
   xmlns:dc="http://purl.org/dc/elements/1.1/">
  <defs
     id="defs10" />
  <sodipodi:namedview
     id="namedview8"
     pagecolor="#ffffff"
     bordercolor="#000000"
     borderopacity="0.25"
     inkscape:showpageshadow="2"
     inkscape:pageopacity="0.0"
     inkscape:pagecheckerboard="0"
     inkscape:deskcolor="#d1d1d1"
     inkscape:document-units="mm"
     showgrid="false"
     inkscape:zoom="1.2939385"
     inkscape:cx="493.06826"
     inkscape:cy="397.62323"
     inkscape:window-width="3390"
     inkscape:window-height="1371"
     inkscape:window-x="50"
     inkscape:window-y="32"
     inkscape:window-maximized="1"
     inkscape:current-layer="svg6" />
  <title
     id="title2">OpenSCAD Model</title>
  <path
     d="M 265.804,-104.4 H 5 V -5 h 260.804 z"
     id="path202"
     style="fill:none;stroke:#ff0000" />
  <path
     d="m 6.3811953,-116.89397 0.036,0.49 0.06,0.487 0.084,0.483 0.108,0.479 0.131,0.473 0.154,0.466 0.176,0.458 0.199,0.449 0.221,0.438 0.242,0.428 0.262,0.414 0.283,0.401 0.302,0.387 0.32,0.372 0.339,0.356 0.355,0.338 0.3719997,0.321 0.387,0.302 0.401,0.282 0.415,0.263 0.427,0.242 0.438,0.22 0.449,0.199 0.458,0.177 0.466,0.154 0.473,0.131 0.479,0.107 0.484,0.084 0.487,0.06 0.489,0.036 0.491,0.012 h 5 v -4.6 h -5 l -0.265,-0.006 -0.264,-0.02 -0.263,-0.032 -0.261,-0.045 -0.259,-0.058 -0.256,-0.071 -0.251,-0.083 -0.248,-0.096 -0.242,-0.107 -0.237,-0.119 -0.23,-0.131 -0.224,-0.142 -0.217,-0.152 -0.209,-0.163 -0.2,-0.173 -0.192,-0.183 -0.183,-0.192 -0.173,-0.201 -0.163,-0.209 -0.153,-0.216 -0.142,-0.224 -0.13,-0.231 -0.12,-0.237 -0.107,-0.242 -0.095,-0.247 -0.083,-0.252 -0.071,-0.255 -0.058,-0.259 -0.046,-0.261 -0.032,-0.263 -0.019,-0.265 -0.007,-0.265 v -49.3873 l 0.007,-0.2649 0.019,-0.2644 0.032,-0.263 0.046,-0.2611 0.058,-0.2586 0.071,-0.2555 0.083,-0.2517 0.095,-0.2473 0.107,-0.2423 0.12,-0.2367 0.13,-0.2306 0.142,-0.2239 0.153,-0.2167 0.163,-0.209 0.173,-0.2007 0.183,-0.1919 0.192,-0.1828 0.2,-0.1731 0.209,-0.1631 0.217,-0.1526 0.224,-0.1418 0.23,-0.1306 0.237,-0.1192 0.242,-0.1074 0.248,-0.0954 0.251,-0.0831 0.256,-0.0707 0.259,-0.0581 0.261,-0.0453 0.263,-0.0325 0.264,-0.0195 0.265,-0.006 h 5 v -4.6 h -5 l -0.491,0.0121 -0.489,0.0361 -0.487,0.0601 -0.484,0.0839 -0.479,0.1075 -0.473,0.1309 -0.466,0.154 -0.458,0.1766 -0.449,0.199 -0.438,0.2206 -0.427,0.242 -0.415,0.2625 -0.401,0.2827 -0.387,0.3019 -0.3719997,0.3206 -0.355,0.3385 -0.339,0.3554 -0.32,0.3717 -0.302,0.387 -0.283,0.4012 -0.262,0.4147 -0.242,0.4271 -0.221,0.4384 -0.199,0.4487 -0.176,0.4579 -0.154,0.4661 -0.131,0.473 -0.108,0.4789 -0.084,0.4836 -0.06,0.4872 -0.036,0.4895 -0.012,0.4906 v 49.3873 z"
     id="path200"
     style="fill:none;stroke:#ff0000" />
  <path
     d="m 22.62014,-114.06153 0.163,0.2089 0.173,0.2007 0.183,0.192 0.192,0.1828 0.2,0.1731 0.209,0.1631 0.217,0.1526 0.224,0.1418 0.23,0.1306 0.075,0.0376 h 8.071 v 5.2 h 74.4 l 0.491,-0.012 0.489,-0.0361 0.487,-0.0601 0.484,-0.0839 0.479,-0.1075 0.473,-0.1309 0.466,-0.154 0.458,-0.1767 0.449,-0.1989 0.438,-0.2206 0.427,-0.242 0.415,-0.2626 0.401,-0.2826 0.387,-0.3019 0.372,-0.3206 0.355,-0.3385 0.339,-0.3555 0.32,-0.3716 0.302,-0.387 0.283,-0.4012 0.262,-0.4147 0.242,-0.4271 0.221,-0.4384 0.199,-0.4487 0.176,-0.4579 0.154,-0.4661 0.131,-0.473 0.108,-0.4789 0.084,-0.4836 0.06,-0.4872 0.036,-0.4895 0.012,-0.4907 v -49.3877 l -0.012,-0.4907 -0.036,-0.4895 -0.06,-0.4871 -0.084,-0.4836 -0.108,-0.4789 -0.131,-0.473 -0.154,-0.4661 -0.176,-0.4579 -0.199,-0.4488 -0.221,-0.4384 -0.242,-0.42704 -0.262,-0.41467 -0.283,-0.40129 -0.302,-0.38693 -0.32,-0.37166 -0.339,-0.35549 -0.355,-0.33844 -0.372,-0.3206 -0.387,-0.30197 -0.401,-0.28261 -0.415,-0.2626 -0.427,-0.24191 -0.438,-0.22069 -0.449,-0.1989 -0.458,-0.17665 -0.466,-0.15396 -0.473,-0.13091 -0.479,-0.10754 -0.484,-0.0839 -0.487,-0.0601 -0.489,-0.0361 -0.491,-0.012 h -74.4 v 5.2 h -8.071 l -0.075,0.0376 -0.23,0.1307 -0.224,0.1418 -0.217,0.1526 -0.209,0.163 -0.2,0.1732 -0.192,0.1827 -0.183,0.192 -0.173,0.2007 -0.163,0.2089 -0.063,0.089 v 55.6433 z m 25.975,-28.6256 0.053,-0.7133 0.087,-0.7098 0.123,-0.7047 0.156,-0.6978 0.191,-0.6893 0.224,-0.6791 0.258,-0.6673 0.29,-0.6538 0.321,-0.6388 0.353,-0.6223 0.382,-0.6043 0.412,-0.5847 0.44,-0.5638 0.467,-0.5416 0.493,-0.518 0.518,-0.4931 0.542,-0.4672 0.564,-0.44 0.585,-0.4118 0.604,-0.3827 0.622,-0.3525 0.639,-0.3215 0.654,-0.2899 0.667,-0.2574 0.679,-0.2243 0.689,-0.1908 0.698,-0.1567 0.705,-0.1222 0.71,-0.0876 0.713,-0.0526 0.715,-0.0176 0.715,0.0176 0.713,0.0526 0.71,0.0876 0.705,0.1222 0.698,0.1567 0.689,0.1908 0.679,0.2243 0.667,0.2574 0.654,0.2899 0.639,0.3215 0.622,0.3525 0.604,0.3827 0.585,0.4118 0.564,0.44 0.542,0.4672 0.518,0.4931 0.493,0.518 0.467,0.5416 0.44,0.5638 0.412,0.5847 0.382,0.6043 0.353,0.6223 0.321,0.6388 0.29,0.6538 0.258,0.6673 0.224,0.6791 0.191,0.6893 0.156,0.6978 0.123,0.7047 0.087,0.7098 0.053,0.7133 0.017,0.715 -0.017,0.715 -0.053,0.7132 -0.087,0.7098 -0.123,0.7047 -0.156,0.6978 -0.191,0.6893 -0.224,0.6791 -0.258,0.6673 -0.29,0.6539 -0.321,0.6388 -0.353,0.6223 -0.382,0.6042 -0.412,0.5848 -0.44,0.5638 -0.467,0.5415 -0.493,0.518 -0.518,0.4932 -0.542,0.4671 -0.564,0.4401 -0.585,0.4118 -0.604,0.3826 -0.622,0.3525 -0.639,0.3216 -0.654,0.2898 -0.667,0.2574 -0.679,0.2244 -0.689,0.1907 -0.698,0.1567 -0.705,0.1223 -0.71,0.0875 -0.713,0.0526 -0.715,0.0176 -0.715,-0.0176 -0.713,-0.0526 -0.71,-0.0875 -0.705,-0.1223 -0.698,-0.1567 -0.689,-0.1907 -0.679,-0.2244 -0.667,-0.2574 -0.654,-0.2898 -0.639,-0.3216 -0.622,-0.3525 -0.604,-0.3826 -0.585,-0.4118 -0.564,-0.4401 -0.542,-0.4671 -0.518,-0.4932 -0.493,-0.518 -0.467,-0.5415 -0.44,-0.5638 -0.412,-0.5848 -0.382,-0.6042 -0.353,-0.6223 -0.321,-0.6388 -0.29,-0.6539 -0.258,-0.6673 -0.224,-0.6791 -0.191,-0.6893 -0.156,-0.6978 -0.123,-0.7047 -0.087,-0.7098 -0.053,-0.7132 -0.017,-0.715 z"
     id="path198"
     style="fill:none;stroke:#ff0000" />
  <path
     d="m 122.45557,-116.35515 0.036,0.489 0.06,0.488 0.084,0.483 0.108,0.479 0.131,0.473 0.154,0.466 0.176,0.458 0.199,0.449 0.221,0.438 0.242,0.427 0.262,0.415 0.283,0.401 0.302,0.387 0.32,0.372 0.339,0.355 0.355,0.339 0.372,0.32 0.387,0.302 0.401,0.283 0.415,0.263 0.427,0.241 0.438,0.221 0.449,0.199 0.458,0.177 0.466,0.154 0.473,0.131 0.479,0.107 0.484,0.084 0.487,0.06 0.489,0.036 0.491,0.012 h 80 l 0.491,-0.012 0.489,-0.036 0.487,-0.06 0.484,-0.084 0.479,-0.107 0.473,-0.131 0.466,-0.154 0.458,-0.177 0.449,-0.199 0.438,-0.221 0.427,-0.241 0.415,-0.263 0.401,-0.283 0.387,-0.302 0.372,-0.32 0.355,-0.339 0.339,-0.355 0.32,-0.372 0.302,-0.387 0.283,-0.401 0.262,-0.415 0.242,-0.427 0.221,-0.438 0.199,-0.449 0.176,-0.458 0.154,-0.466 0.131,-0.473 0.108,-0.479 0.084,-0.483 0.06,-0.488 0.036,-0.489 0.012,-0.491 v -49.388 l -0.012,-0.49 -0.036,-0.49 -0.06,-0.487 -0.084,-0.483 -0.108,-0.479 -0.131,-0.473 -0.154,-0.466 -0.176,-0.458 -0.199,-0.449 -0.221,-0.438 -0.242,-0.428 -0.262,-0.414 -0.283,-0.401 -0.302,-0.387 -0.32,-0.372 -0.339,-0.356 -0.355,-0.338 -0.372,-0.321 -0.387,-0.302 -0.401,-0.282 -0.415,-0.263 -0.427,-0.242 -0.438,-0.22 -0.449,-0.199 -0.458,-0.177 -0.466,-0.154 -0.473,-0.131 -0.479,-0.107 -0.484,-0.084 -0.487,-0.06 -0.489,-0.036 -0.491,-0.013 h -80 l -0.491,0.013 -0.489,0.036 -0.487,0.06 -0.484,0.084 -0.479,0.107 -0.473,0.131 -0.466,0.154 -0.458,0.177 -0.449,0.199 -0.438,0.22 -0.427,0.242 -0.415,0.263 -0.401,0.282 -0.387,0.302 -0.372,0.321 -0.355,0.338 -0.339,0.356 -0.32,0.372 -0.302,0.387 -0.283,0.401 -0.262,0.414 -0.242,0.428 -0.221,0.438 -0.199,0.449 -0.176,0.458 -0.154,0.466 -0.131,0.473 -0.108,0.479 -0.084,0.483 -0.06,0.487 -0.036,0.49 -0.012,0.49 v 49.388 z"
     id="path196"
     style="fill:none;stroke:#ff0000" />
  <path
     d="M 97.455529,-184.24063 H 6.6518302 v 4 H 97.455529 Z"
     id="path4"
     style="fill:none;stroke:#ff0000" />
  <metadata
     id="metadata186">
    <rdf:RDF>
      <cc:Work
         rdf:about="">
        <dc:title>OpenSCAD Model</dc:title>
      </cc:Work>
    </rdf:RDF>
  </metadata>
</svg>
