<?xml version="1.0" standalone="no"?>
<!DOCTYPE svg PUBLIC "-//W3C//DTD SVG 1.1//EN" "http://www.w3.org/Graphics/SVG/1.1/DTD/svg11.dtd">
<svg width="901mm" height="288mm" viewBox="5 -293 901 288" xmlns="http://www.w3.org/2000/svg" version="1.1">
<title>OpenSCAD Model</title>
<path d="
M 126.775,-292.2 L 77.3877,-292.2 L 77.3877,-284.2 L 126.775,-284.2 z
M 153.576,-193.875 L 155.576,-193.875 L 155.576,-215.725 L 153.576,-215.725 L 153.576,-219.875 L 155.576,-219.875
 L 155.576,-237.725 L 153.576,-237.725 L 153.576,-241.875 L 155.576,-241.875 L 155.576,-259.725 L 153.576,-259.725
 L 153.576,-263.875 L 155.576,-263.875 L 155.576,-285.125 L 153.576,-285.125 L 153.576,-289.2 L 151.576,-289.2
 L 151.576,-189.8 L 153.576,-189.8 z
M 146.576,-193.875 L 148.576,-193.875 L 148.576,-215.725 L 146.576,-215.725 L 146.576,-219.875 L 148.576,-219.875
 L 148.576,-237.725 L 146.576,-237.725 L 146.576,-241.875 L 148.576,-241.875 L 148.576,-259.725 L 146.576,-259.725
 L 146.576,-263.875 L 148.576,-263.875 L 148.576,-285.125 L 146.576,-285.125 L 146.576,-289.2 L 144.576,-289.2
 L 144.576,-189.8 L 146.576,-189.8 z
M 69.1877,-199.8 L 74.3877,-199.8 L 74.3877,-274.2 L 74.3757,-274.691 L 74.3396,-275.18 L 74.2795,-275.667
 L 74.1956,-276.151 L 74.0881,-276.63 L 73.9572,-277.103 L 73.8032,-277.569 L 73.6265,-278.027 L 73.4276,-278.476
 L 73.207,-278.914 L 72.965,-279.341 L 72.7024,-279.756 L 72.4198,-280.157 L 72.1179,-280.544 L 71.7973,-280.916
 L 71.4588,-281.271 L 71.1033,-281.609 L 70.7317,-281.93 L 70.3447,-282.232 L 69.9435,-282.515 L 69.5288,-282.777
 L 69.1017,-283.019 L 68.6633,-283.24 L 68.2146,-283.439 L 67.7567,-283.615 L 67.2906,-283.769 L 66.8176,-283.9
 L 66.3387,-284.008 L 65.8551,-284.092 L 65.3679,-284.152 L 64.8784,-284.188 L 64.3877,-284.2 L 15,-284.2
 L 14.5093,-284.188 L 14.0198,-284.152 L 13.5327,-284.092 L 13.0491,-284.008 L 12.5702,-283.9 L 12.0972,-283.769
 L 11.6311,-283.615 L 11.1732,-283.439 L 10.7244,-283.24 L 10.286,-283.019 L 9.85896,-282.777 L 9.44429,-282.515
 L 9.043,-282.232 L 8.65607,-281.93 L 8.28441,-281.609 L 7.92892,-281.271 L 7.59048,-280.916 L 7.26988,-280.544
 L 6.96791,-280.157 L 6.6853,-279.756 L 6.4227,-279.341 L 6.18079,-278.914 L 5.9601,-278.476 L 5.7612,-278.027
 L 5.58455,-277.569 L 5.43059,-277.103 L 5.29968,-276.63 L 5.19214,-276.151 L 5.10823,-275.667 L 5.04814,-275.18
 L 5.01204,-274.691 L 5,-274.2 L 5,-199.8 L 10.2,-199.8 L 10.2,-189.8 L 69.1877,-189.8
 z
M 38.9789,-215.838 L 38.2656,-215.891 L 37.5558,-215.978 L 36.8511,-216.101 L 36.1533,-216.257 L 35.464,-216.448
 L 34.7849,-216.672 L 34.1176,-216.93 L 33.4638,-217.22 L 32.825,-217.541 L 32.2027,-217.894 L 31.5984,-218.276
 L 31.0137,-218.688 L 30.4499,-219.128 L 29.9083,-219.595 L 29.3903,-220.088 L 28.8972,-220.606 L 28.43,-221.148
 L 27.99,-221.712 L 27.5782,-222.297 L 27.1955,-222.901 L 26.843,-223.523 L 26.5215,-224.162 L 26.2316,-224.816
 L 25.9742,-225.483 L 25.7499,-226.162 L 25.5591,-226.851 L 25.4024,-227.549 L 25.2802,-228.254 L 25.1926,-228.964
 L 25.14,-229.677 L 25.1224,-230.392 L 25.14,-231.107 L 25.1926,-231.82 L 25.2802,-232.53 L 25.4024,-233.235
 L 25.5591,-233.933 L 25.7499,-234.622 L 25.9742,-235.301 L 26.2316,-235.968 L 26.5215,-236.622 L 26.843,-237.261
 L 27.1955,-237.883 L 27.5782,-238.487 L 27.99,-239.072 L 28.43,-239.636 L 28.8972,-240.178 L 29.3903,-240.696
 L 29.9083,-241.189 L 30.4499,-241.656 L 31.0137,-242.096 L 31.5984,-242.508 L 32.2027,-242.89 L 32.825,-243.243
 L 33.4638,-243.564 L 34.1176,-243.854 L 34.7849,-244.112 L 35.464,-244.336 L 36.1533,-244.527 L 36.8511,-244.683
 L 37.5558,-244.806 L 38.2656,-244.893 L 38.9789,-244.946 L 39.6939,-244.963 L 40.4089,-244.946 L 41.1221,-244.893
 L 41.8319,-244.806 L 42.5366,-244.683 L 43.2344,-244.527 L 43.9237,-244.336 L 44.6028,-244.112 L 45.2701,-243.854
 L 45.924,-243.564 L 46.5628,-243.243 L 47.1851,-242.89 L 47.7893,-242.508 L 48.3741,-242.096 L 48.9379,-241.656
 L 49.4794,-241.189 L 49.9974,-240.696 L 50.4906,-240.178 L 50.9577,-239.636 L 51.3978,-239.072 L 51.8096,-238.487
 L 52.1922,-237.883 L 52.5447,-237.261 L 52.8663,-236.622 L 53.1561,-235.968 L 53.4135,-235.301 L 53.6379,-234.622
 L 53.8286,-233.933 L 53.9853,-233.235 L 54.1076,-232.53 L 54.1951,-231.82 L 54.2477,-231.107 L 54.2653,-230.392
 L 54.2477,-229.677 L 54.1951,-228.964 L 54.1076,-228.254 L 53.9853,-227.549 L 53.8286,-226.851 L 53.6379,-226.162
 L 53.4135,-225.483 L 53.1561,-224.816 L 52.8663,-224.162 L 52.5447,-223.523 L 52.1922,-222.901 L 51.8096,-222.297
 L 51.3978,-221.712 L 50.9577,-221.148 L 50.4906,-220.606 L 49.9974,-220.088 L 49.4794,-219.595 L 48.9379,-219.128
 L 48.3741,-218.688 L 47.7893,-218.276 L 47.1851,-217.894 L 46.5628,-217.541 L 45.924,-217.22 L 45.2701,-216.93
 L 44.6028,-216.672 L 43.9237,-216.448 L 43.2344,-216.257 L 42.5366,-216.101 L 41.8319,-215.978 L 41.1221,-215.891
 L 40.4089,-215.838 L 39.6939,-215.821 z
M 141.575,-207.6 L 133.975,-207.6 L 133.975,-212 L 141.575,-212 L 141.575,-229.6 L 133.975,-229.6
 L 133.975,-234 L 141.575,-234 L 141.575,-251.6 L 133.975,-251.6 L 133.975,-256 L 141.575,-256
 L 141.575,-277 L 133.975,-277 L 133.975,-281.2 L 84.9877,-281.2 L 84.9877,-277 L 77.3877,-277
 L 77.3877,-256 L 84.9877,-256 L 84.9877,-251.6 L 77.3877,-251.6 L 77.3877,-234 L 84.9877,-234
 L 84.9877,-229.6 L 77.3877,-229.6 L 77.3877,-212 L 84.9877,-212 L 84.9877,-207.6 L 77.3877,-207.6
 L 77.3877,-189.8 L 141.575,-189.8 z
M 379.188,-269.7 L 375.188,-269.7 L 375.188,-265.7 L 377.188,-265.7 L 377.188,-186.8 L 379.188,-186.8
 z
M 386.188,-269.7 L 382.188,-269.7 L 382.188,-265.7 L 384.188,-265.7 L 384.188,-186.8 L 386.188,-186.8
 z
M 342.42,-186.914 L 342.266,-187.09 L 342.127,-187.269 L 342.003,-187.452 L 341.895,-187.639 L 341.804,-187.828
 L 341.728,-188.02 L 341.67,-188.213 L 341.628,-188.408 L 341.602,-188.604 L 341.594,-188.8 L 341.602,-188.996
 L 341.628,-189.192 L 341.67,-189.387 L 341.728,-189.58 L 341.804,-189.772 L 341.895,-189.961 L 342.003,-190.148
 L 342.127,-190.331 L 342.266,-190.51 L 342.42,-190.686 L 342.59,-190.856 L 342.774,-191.022 L 342.971,-191.183
 L 343.183,-191.338 L 343.407,-191.486 L 343.644,-191.628 L 343.893,-191.764 L 344.153,-191.892 L 344.424,-192.013
 L 344.705,-192.126 L 344.995,-192.231 L 345.294,-192.328 L 345.601,-192.416 L 345.915,-192.495 L 346.236,-192.566
 L 346.562,-192.628 L 346.893,-192.68 L 347.228,-192.723 L 347.567,-192.757 L 347.908,-192.781 L 348.25,-192.795
 L 348.594,-192.8 L 348.937,-192.795 L 349.28,-192.781 L 349.621,-192.757 L 349.96,-192.723 L 350.295,-192.68
 L 350.626,-192.628 L 350.952,-192.566 L 351.273,-192.495 L 351.587,-192.416 L 351.894,-192.328 L 352.193,-192.231
 L 352.483,-192.126 L 352.764,-192.013 L 353.035,-191.892 L 353.295,-191.764 L 353.544,-191.628 L 353.781,-191.486
 L 354.005,-191.338 L 354.216,-191.183 L 354.414,-191.022 L 354.598,-190.856 L 354.767,-190.686 L 354.922,-190.51
 L 355.061,-190.331 L 355.185,-190.148 L 355.292,-189.961 L 355.384,-189.772 L 355.459,-189.58 L 355.518,-189.387
 L 355.56,-189.192 L 355.585,-188.996 L 355.594,-188.8 L 355.585,-188.604 L 355.56,-188.408 L 355.518,-188.213
 L 355.459,-188.02 L 355.384,-187.828 L 355.292,-187.639 L 355.185,-187.452 L 355.061,-187.269 L 354.922,-187.09
 L 354.767,-186.914 L 354.654,-186.8 L 370.188,-186.8 L 370.286,-186.802 L 370.384,-186.81 L 370.481,-186.822
 L 370.578,-186.838 L 370.674,-186.86 L 370.768,-186.886 L 370.862,-186.917 L 370.953,-186.952 L 371.043,-186.992
 L 371.131,-187.036 L 371.216,-187.085 L 371.299,-187.137 L 371.379,-187.194 L 371.457,-187.254 L 371.531,-187.318
 L 371.602,-187.386 L 371.67,-187.457 L 371.734,-187.531 L 371.794,-187.609 L 371.851,-187.689 L 371.903,-187.772
 L 371.952,-187.857 L 371.996,-187.945 L 372.036,-188.035 L 372.071,-188.126 L 372.102,-188.219 L 372.128,-188.314
 L 372.149,-188.41 L 372.166,-188.507 L 372.178,-188.604 L 372.185,-188.702 L 372.188,-188.8 L 372.188,-263.7
 L 325,-263.7 L 325,-188.8 L 325.002,-188.702 L 325.01,-188.604 L 325.022,-188.507 L 325.038,-188.41
 L 325.06,-188.314 L 325.086,-188.219 L 325.117,-188.126 L 325.152,-188.035 L 325.192,-187.945 L 325.236,-187.857
 L 325.285,-187.772 L 325.337,-187.689 L 325.394,-187.609 L 325.454,-187.531 L 325.518,-187.457 L 325.586,-187.386
 L 325.657,-187.318 L 325.731,-187.254 L 325.809,-187.194 L 325.889,-187.137 L 325.972,-187.085 L 326.057,-187.036
 L 326.145,-186.992 L 326.235,-186.952 L 326.326,-186.917 L 326.419,-186.886 L 326.514,-186.86 L 326.61,-186.838
 L 326.707,-186.822 L 326.804,-186.81 L 326.902,-186.802 L 327,-186.8 L 342.534,-186.8 z
M 332.898,-208.433 L 332.898,-234.067 L 334.898,-234.067 L 334.898,-208.433 z
M 342.695,-208.433 L 342.695,-234.067 L 344.695,-234.067 L 344.695,-208.433 z
M 352.492,-208.433 L 352.492,-234.067 L 354.492,-234.067 L 354.492,-208.433 z
M 362.289,-208.433 L 362.289,-234.067 L 364.289,-234.067 L 364.289,-208.433 z
M 391.188,-259.7 L 389.188,-259.7 L 389.188,-186.8 L 391.188,-186.8 z
M 396.188,-259.7 L 394.188,-259.7 L 394.188,-186.8 L 396.188,-186.8 z
M 401.188,-233.988 L 399.188,-233.988 L 399.188,-186.8 L 401.188,-186.8 z
M 489.188,-228.8 L 404.188,-228.8 L 404.188,-186.8 L 489.188,-186.8 z
M 413.188,-222.8 L 413.188,-226.8 L 413.538,-226.8 L 413.538,-222.8 z
M 417.188,-222.8 L 417.188,-226.8 L 417.738,-226.8 L 417.738,-222.8 z
M 409.188,-222.8 L 409.188,-226.8 L 409.338,-226.8 L 409.338,-222.8 z
M 411.188,-222.8 L 411.188,-226.8 L 411.438,-226.8 L 411.438,-222.8 z
M 415.188,-222.8 L 415.188,-226.8 L 415.638,-226.8 L 415.638,-222.8 z
M 478.727,-212.901 L 478.683,-212.904 L 478.639,-212.91 L 478.595,-212.917 L 478.552,-212.927 L 478.51,-212.939
 L 478.468,-212.953 L 478.427,-212.968 L 478.386,-212.986 L 478.347,-213.006 L 478.308,-213.028 L 478.271,-213.052
 L 478.235,-213.077 L 478.2,-213.104 L 478.167,-213.133 L 478.135,-213.164 L 478.104,-213.196 L 478.075,-213.229
 L 478.048,-213.264 L 478.023,-213.3 L 477.999,-213.337 L 477.977,-213.376 L 477.957,-213.415 L 477.94,-213.456
 L 477.924,-213.497 L 477.91,-213.539 L 477.898,-213.581 L 477.888,-213.624 L 477.881,-213.668 L 477.875,-213.712
 L 477.872,-213.756 L 477.871,-213.8 L 477.872,-213.844 L 477.875,-213.888 L 477.881,-213.932 L 477.888,-213.976
 L 477.898,-214.019 L 477.91,-214.061 L 477.924,-214.103 L 477.94,-214.144 L 477.957,-214.185 L 477.977,-214.224
 L 477.999,-214.263 L 478.023,-214.3 L 478.048,-214.336 L 478.075,-214.371 L 478.104,-214.404 L 478.135,-214.436
 L 478.167,-214.467 L 478.2,-214.496 L 478.235,-214.523 L 478.271,-214.548 L 478.308,-214.572 L 478.347,-214.594
 L 478.386,-214.614 L 478.427,-214.631 L 478.468,-214.647 L 478.51,-214.661 L 478.552,-214.673 L 478.595,-214.683
 L 478.639,-214.69 L 478.683,-214.696 L 478.727,-214.699 L 478.771,-214.7 L 478.815,-214.699 L 478.859,-214.696
 L 478.903,-214.69 L 478.947,-214.683 L 478.99,-214.673 L 479.032,-214.661 L 479.074,-214.647 L 479.115,-214.631
 L 479.156,-214.614 L 479.195,-214.594 L 479.234,-214.572 L 479.271,-214.548 L 479.307,-214.523 L 479.342,-214.496
 L 479.375,-214.467 L 479.407,-214.436 L 479.438,-214.404 L 479.467,-214.371 L 479.494,-214.336 L 479.519,-214.3
 L 479.543,-214.263 L 479.565,-214.224 L 479.585,-214.185 L 479.603,-214.144 L 479.618,-214.103 L 479.632,-214.061
 L 479.644,-214.019 L 479.654,-213.976 L 479.661,-213.932 L 479.667,-213.888 L 479.67,-213.844 L 479.671,-213.8
 L 479.67,-213.756 L 479.667,-213.712 L 479.661,-213.668 L 479.654,-213.624 L 479.644,-213.581 L 479.632,-213.539
 L 479.618,-213.497 L 479.603,-213.456 L 479.585,-213.415 L 479.565,-213.376 L 479.543,-213.337 L 479.519,-213.3
 L 479.494,-213.264 L 479.467,-213.229 L 479.438,-213.196 L 479.407,-213.164 L 479.375,-213.133 L 479.342,-213.104
 L 479.307,-213.077 L 479.271,-213.052 L 479.234,-213.028 L 479.195,-213.006 L 479.156,-212.986 L 479.115,-212.968
 L 479.074,-212.953 L 479.032,-212.939 L 478.99,-212.927 L 478.947,-212.917 L 478.903,-212.91 L 478.859,-212.904
 L 478.815,-212.901 L 478.771,-212.9 z
M 465.896,-212.951 L 465.854,-212.954 L 465.813,-212.959 L 465.772,-212.966 L 465.731,-212.975 L 465.691,-212.987
 L 465.651,-213 L 465.612,-213.015 L 465.574,-213.032 L 465.537,-213.05 L 465.501,-213.071 L 465.465,-213.093
 L 465.431,-213.117 L 465.398,-213.143 L 465.367,-213.17 L 465.337,-213.199 L 465.308,-213.229 L 465.281,-213.261
 L 465.255,-213.294 L 465.231,-213.328 L 465.209,-213.363 L 465.188,-213.399 L 465.169,-213.437 L 465.152,-213.475
 L 465.137,-213.514 L 465.124,-213.553 L 465.113,-213.593 L 465.104,-213.634 L 465.097,-213.675 L 465.092,-213.717
 L 465.089,-213.758 L 465.088,-213.8 L 465.089,-213.842 L 465.092,-213.883 L 465.097,-213.925 L 465.104,-213.966
 L 465.113,-214.007 L 465.124,-214.047 L 465.137,-214.086 L 465.152,-214.125 L 465.169,-214.163 L 465.188,-214.201
 L 465.209,-214.237 L 465.231,-214.272 L 465.255,-214.306 L 465.281,-214.339 L 465.308,-214.371 L 465.337,-214.401
 L 465.367,-214.43 L 465.398,-214.457 L 465.431,-214.483 L 465.465,-214.507 L 465.501,-214.529 L 465.537,-214.55
 L 465.574,-214.568 L 465.612,-214.585 L 465.651,-214.6 L 465.691,-214.613 L 465.731,-214.625 L 465.772,-214.634
 L 465.813,-214.641 L 465.854,-214.646 L 465.896,-214.649 L 465.938,-214.65 L 465.979,-214.649 L 466.021,-214.646
 L 466.062,-214.641 L 466.104,-214.634 L 466.144,-214.625 L 466.184,-214.613 L 466.224,-214.6 L 466.263,-214.585
 L 466.301,-214.568 L 466.338,-214.55 L 466.375,-214.529 L 466.41,-214.507 L 466.444,-214.483 L 466.477,-214.457
 L 466.509,-214.43 L 466.539,-214.401 L 466.568,-214.371 L 466.595,-214.339 L 466.62,-214.306 L 466.644,-214.272
 L 466.667,-214.237 L 466.687,-214.201 L 466.706,-214.163 L 466.723,-214.125 L 466.738,-214.086 L 466.751,-214.047
 L 466.762,-214.007 L 466.771,-213.966 L 466.779,-213.925 L 466.784,-213.883 L 466.787,-213.842 L 466.788,-213.8
 L 466.787,-213.758 L 466.784,-213.717 L 466.779,-213.675 L 466.771,-213.634 L 466.762,-213.593 L 466.751,-213.553
 L 466.738,-213.514 L 466.723,-213.475 L 466.706,-213.437 L 466.687,-213.399 L 466.667,-213.363 L 466.644,-213.328
 L 466.62,-213.294 L 466.595,-213.261 L 466.568,-213.229 L 466.539,-213.199 L 466.509,-213.17 L 466.477,-213.143
 L 466.444,-213.117 L 466.41,-213.093 L 466.375,-213.071 L 466.338,-213.05 L 466.301,-213.032 L 466.263,-213.015
 L 466.224,-213 L 466.184,-212.987 L 466.144,-212.975 L 466.104,-212.966 L 466.062,-212.959 L 466.021,-212.954
 L 465.979,-212.951 L 465.938,-212.95 z
M 453.065,-213.001 L 453.026,-213.004 L 452.987,-213.009 L 452.948,-213.015 L 452.91,-213.024 L 452.872,-213.034
 L 452.835,-213.047 L 452.798,-213.061 L 452.762,-213.077 L 452.727,-213.094 L 452.693,-213.114 L 452.66,-213.135
 L 452.628,-213.157 L 452.597,-213.182 L 452.567,-213.207 L 452.539,-213.234 L 452.512,-213.263 L 452.486,-213.292
 L 452.462,-213.323 L 452.439,-213.356 L 452.418,-213.389 L 452.399,-213.423 L 452.381,-213.458 L 452.365,-213.494
 L 452.351,-213.53 L 452.339,-213.568 L 452.328,-213.606 L 452.32,-213.644 L 452.313,-213.683 L 452.308,-213.722
 L 452.305,-213.761 L 452.304,-213.8 L 452.305,-213.839 L 452.308,-213.878 L 452.313,-213.917 L 452.32,-213.956
 L 452.328,-213.994 L 452.339,-214.032 L 452.351,-214.069 L 452.365,-214.106 L 452.381,-214.142 L 452.399,-214.177
 L 452.418,-214.211 L 452.439,-214.244 L 452.462,-214.277 L 452.486,-214.307 L 452.512,-214.337 L 452.539,-214.366
 L 452.567,-214.393 L 452.597,-214.418 L 452.628,-214.443 L 452.66,-214.465 L 452.693,-214.486 L 452.727,-214.506
 L 452.762,-214.523 L 452.798,-214.539 L 452.835,-214.553 L 452.872,-214.566 L 452.91,-214.576 L 452.948,-214.585
 L 452.987,-214.591 L 453.026,-214.596 L 453.065,-214.599 L 453.104,-214.6 L 453.144,-214.599 L 453.183,-214.596
 L 453.222,-214.591 L 453.26,-214.585 L 453.299,-214.576 L 453.337,-214.566 L 453.374,-214.553 L 453.411,-214.539
 L 453.446,-214.523 L 453.482,-214.506 L 453.516,-214.486 L 453.549,-214.465 L 453.581,-214.443 L 453.612,-214.418
 L 453.642,-214.393 L 453.67,-214.366 L 453.697,-214.337 L 453.723,-214.307 L 453.747,-214.277 L 453.77,-214.244
 L 453.791,-214.211 L 453.81,-214.177 L 453.828,-214.142 L 453.844,-214.106 L 453.858,-214.069 L 453.87,-214.032
 L 453.88,-213.994 L 453.889,-213.956 L 453.896,-213.917 L 453.901,-213.878 L 453.903,-213.839 L 453.904,-213.8
 L 453.903,-213.761 L 453.901,-213.722 L 453.896,-213.683 L 453.889,-213.644 L 453.88,-213.606 L 453.87,-213.568
 L 453.858,-213.53 L 453.844,-213.494 L 453.828,-213.458 L 453.81,-213.423 L 453.791,-213.389 L 453.77,-213.356
 L 453.747,-213.323 L 453.723,-213.292 L 453.697,-213.263 L 453.67,-213.234 L 453.642,-213.207 L 453.612,-213.182
 L 453.581,-213.157 L 453.549,-213.135 L 453.516,-213.114 L 453.482,-213.094 L 453.446,-213.077 L 453.411,-213.061
 L 453.374,-213.047 L 453.337,-213.034 L 453.299,-213.024 L 453.26,-213.015 L 453.222,-213.009 L 453.183,-213.004
 L 453.144,-213.001 L 453.104,-213 z
M 440.234,-213.051 L 440.198,-213.054 L 440.161,-213.058 L 440.125,-213.064 L 440.089,-213.072 L 440.053,-213.082
 L 440.018,-213.094 L 439.984,-213.107 L 439.95,-213.122 L 439.918,-213.139 L 439.885,-213.157 L 439.854,-213.176
 L 439.824,-213.198 L 439.795,-213.22 L 439.767,-213.244 L 439.741,-213.27 L 439.715,-213.296 L 439.691,-213.324
 L 439.669,-213.353 L 439.647,-213.383 L 439.628,-213.414 L 439.61,-213.446 L 439.593,-213.479 L 439.578,-213.513
 L 439.565,-213.547 L 439.553,-213.582 L 439.544,-213.618 L 439.535,-213.654 L 439.529,-213.69 L 439.525,-213.726
 L 439.522,-213.763 L 439.521,-213.8 L 439.522,-213.837 L 439.525,-213.873 L 439.529,-213.91 L 439.535,-213.946
 L 439.544,-213.982 L 439.553,-214.018 L 439.565,-214.053 L 439.578,-214.087 L 439.593,-214.121 L 439.61,-214.154
 L 439.628,-214.186 L 439.647,-214.217 L 439.669,-214.247 L 439.691,-214.276 L 439.715,-214.304 L 439.741,-214.33
 L 439.767,-214.356 L 439.795,-214.38 L 439.824,-214.402 L 439.854,-214.424 L 439.885,-214.443 L 439.918,-214.461
 L 439.95,-214.478 L 439.984,-214.493 L 440.018,-214.506 L 440.053,-214.518 L 440.089,-214.527 L 440.125,-214.536
 L 440.161,-214.542 L 440.198,-214.546 L 440.234,-214.549 L 440.271,-214.55 L 440.308,-214.549 L 440.345,-214.546
 L 440.381,-214.542 L 440.417,-214.536 L 440.453,-214.527 L 440.489,-214.518 L 440.524,-214.506 L 440.558,-214.493
 L 440.592,-214.478 L 440.625,-214.461 L 440.657,-214.443 L 440.688,-214.424 L 440.718,-214.402 L 440.747,-214.38
 L 440.775,-214.356 L 440.801,-214.33 L 440.827,-214.304 L 440.851,-214.276 L 440.873,-214.247 L 440.895,-214.217
 L 440.914,-214.186 L 440.933,-214.154 L 440.949,-214.121 L 440.964,-214.087 L 440.977,-214.053 L 440.989,-214.018
 L 440.999,-213.982 L 441.007,-213.946 L 441.013,-213.91 L 441.017,-213.873 L 441.02,-213.837 L 441.021,-213.8
 L 441.02,-213.763 L 441.017,-213.726 L 441.013,-213.69 L 441.007,-213.654 L 440.999,-213.618 L 440.989,-213.582
 L 440.977,-213.547 L 440.964,-213.513 L 440.949,-213.479 L 440.933,-213.446 L 440.914,-213.414 L 440.895,-213.383
 L 440.873,-213.353 L 440.851,-213.324 L 440.827,-213.296 L 440.801,-213.27 L 440.775,-213.244 L 440.747,-213.22
 L 440.718,-213.198 L 440.688,-213.176 L 440.657,-213.157 L 440.625,-213.139 L 440.592,-213.122 L 440.558,-213.107
 L 440.524,-213.094 L 440.489,-213.082 L 440.453,-213.072 L 440.417,-213.064 L 440.381,-213.058 L 440.345,-213.054
 L 440.308,-213.051 L 440.271,-213.05 z
M 427.403,-213.101 L 427.369,-213.103 L 427.335,-213.108 L 427.301,-213.113 L 427.268,-213.121 L 427.235,-213.13
 L 427.202,-213.141 L 427.17,-213.153 L 427.138,-213.167 L 427.108,-213.183 L 427.078,-213.2 L 427.049,-213.218
 L 427.021,-213.238 L 426.994,-213.259 L 426.968,-213.281 L 426.943,-213.305 L 426.919,-213.33 L 426.897,-213.356
 L 426.875,-213.383 L 426.856,-213.411 L 426.837,-213.44 L 426.82,-213.47 L 426.805,-213.501 L 426.791,-213.532
 L 426.779,-213.564 L 426.768,-213.597 L 426.759,-213.63 L 426.751,-213.663 L 426.745,-213.697 L 426.741,-213.731
 L 426.739,-213.766 L 426.738,-213.8 L 426.739,-213.834 L 426.741,-213.869 L 426.745,-213.903 L 426.751,-213.937
 L 426.759,-213.97 L 426.768,-214.003 L 426.779,-214.036 L 426.791,-214.068 L 426.805,-214.099 L 426.82,-214.13
 L 426.837,-214.16 L 426.856,-214.189 L 426.875,-214.217 L 426.897,-214.244 L 426.919,-214.27 L 426.943,-214.295
 L 426.968,-214.319 L 426.994,-214.341 L 427.021,-214.362 L 427.049,-214.382 L 427.078,-214.4 L 427.108,-214.417
 L 427.138,-214.433 L 427.17,-214.447 L 427.202,-214.459 L 427.235,-214.47 L 427.268,-214.479 L 427.301,-214.487
 L 427.335,-214.492 L 427.369,-214.497 L 427.403,-214.499 L 427.438,-214.5 L 427.472,-214.499 L 427.506,-214.497
 L 427.54,-214.492 L 427.574,-214.487 L 427.608,-214.479 L 427.641,-214.47 L 427.674,-214.459 L 427.706,-214.447
 L 427.737,-214.433 L 427.768,-214.417 L 427.798,-214.4 L 427.827,-214.382 L 427.855,-214.362 L 427.882,-214.341
 L 427.908,-214.319 L 427.933,-214.295 L 427.956,-214.27 L 427.979,-214.244 L 428,-214.217 L 428.02,-214.189
 L 428.038,-214.16 L 428.055,-214.13 L 428.071,-214.099 L 428.084,-214.068 L 428.097,-214.036 L 428.108,-214.003
 L 428.117,-213.97 L 428.124,-213.937 L 428.13,-213.903 L 428.134,-213.869 L 428.137,-213.834 L 428.138,-213.8
 L 428.137,-213.766 L 428.134,-213.731 L 428.13,-213.697 L 428.124,-213.663 L 428.117,-213.63 L 428.108,-213.597
 L 428.097,-213.564 L 428.084,-213.532 L 428.071,-213.501 L 428.055,-213.47 L 428.038,-213.44 L 428.02,-213.411
 L 428,-213.383 L 427.979,-213.356 L 427.956,-213.33 L 427.933,-213.305 L 427.908,-213.281 L 427.882,-213.259
 L 427.855,-213.238 L 427.827,-213.218 L 427.798,-213.2 L 427.768,-213.183 L 427.737,-213.167 L 427.706,-213.153
 L 427.674,-213.141 L 427.641,-213.13 L 427.608,-213.121 L 427.574,-213.113 L 427.54,-213.108 L 427.506,-213.103
 L 427.472,-213.101 L 427.438,-213.1 z
M 414.573,-213.151 L 414.541,-213.153 L 414.509,-213.157 L 414.478,-213.162 L 414.446,-213.169 L 414.416,-213.178
 L 414.385,-213.188 L 414.356,-213.199 L 414.326,-213.212 L 414.298,-213.227 L 414.27,-213.242 L 414.243,-213.26
 L 414.217,-213.278 L 414.192,-213.298 L 414.168,-213.318 L 414.145,-213.34 L 414.123,-213.363 L 414.102,-213.388
 L 414.082,-213.413 L 414.064,-213.439 L 414.047,-213.466 L 414.031,-213.494 L 414.017,-213.522 L 414.004,-213.551
 L 413.992,-213.581 L 413.982,-213.611 L 413.974,-213.642 L 413.967,-213.673 L 413.961,-213.705 L 413.958,-213.736
 L 413.955,-213.768 L 413.954,-213.8 L 413.955,-213.832 L 413.958,-213.864 L 413.961,-213.895 L 413.967,-213.927
 L 413.974,-213.958 L 413.982,-213.989 L 413.992,-214.019 L 414.004,-214.049 L 414.017,-214.078 L 414.031,-214.106
 L 414.047,-214.134 L 414.064,-214.161 L 414.082,-214.187 L 414.102,-214.212 L 414.123,-214.236 L 414.145,-214.26
 L 414.168,-214.282 L 414.192,-214.302 L 414.217,-214.322 L 414.243,-214.34 L 414.27,-214.357 L 414.298,-214.373
 L 414.326,-214.388 L 414.356,-214.4 L 414.385,-214.412 L 414.416,-214.422 L 414.446,-214.43 L 414.478,-214.437
 L 414.509,-214.443 L 414.541,-214.447 L 414.573,-214.449 L 414.604,-214.45 L 414.636,-214.449 L 414.668,-214.447
 L 414.7,-214.443 L 414.731,-214.437 L 414.762,-214.43 L 414.793,-214.422 L 414.823,-214.412 L 414.853,-214.4
 L 414.882,-214.388 L 414.911,-214.373 L 414.939,-214.357 L 414.966,-214.34 L 414.992,-214.322 L 415.017,-214.302
 L 415.041,-214.282 L 415.064,-214.26 L 415.086,-214.236 L 415.107,-214.212 L 415.126,-214.187 L 415.145,-214.161
 L 415.162,-214.134 L 415.178,-214.106 L 415.192,-214.078 L 415.205,-214.049 L 415.216,-214.019 L 415.226,-213.989
 L 415.235,-213.958 L 415.242,-213.927 L 415.247,-213.895 L 415.251,-213.864 L 415.254,-213.832 L 415.254,-213.8
 L 415.254,-213.768 L 415.251,-213.736 L 415.247,-213.705 L 415.242,-213.673 L 415.235,-213.642 L 415.226,-213.611
 L 415.216,-213.581 L 415.205,-213.551 L 415.192,-213.522 L 415.178,-213.494 L 415.162,-213.466 L 415.145,-213.439
 L 415.126,-213.413 L 415.107,-213.388 L 415.086,-213.363 L 415.064,-213.34 L 415.041,-213.318 L 415.017,-213.298
 L 414.992,-213.278 L 414.966,-213.26 L 414.939,-213.242 L 414.911,-213.227 L 414.882,-213.212 L 414.853,-213.199
 L 414.823,-213.188 L 414.793,-213.178 L 414.762,-213.169 L 414.731,-213.162 L 414.7,-213.157 L 414.668,-213.153
 L 414.636,-213.151 L 414.604,-213.15 z
M 476.871,-190.8 L 476.871,-202.8 L 480.671,-202.8 L 480.671,-190.8 z
M 412.954,-190.8 L 412.954,-202.8 L 416.254,-202.8 L 416.254,-190.8 z
M 451.304,-190.8 L 451.304,-202.8 L 454.904,-202.8 L 454.904,-190.8 z
M 438.521,-190.8 L 438.521,-202.8 L 442.021,-202.8 L 442.021,-190.8 z
M 425.738,-190.8 L 425.738,-202.8 L 429.138,-202.8 L 429.138,-190.8 z
M 464.088,-190.8 L 464.088,-202.8 L 467.788,-202.8 L 467.788,-190.8 z
M 735.804,-214.4 L 645,-214.4 L 645,-210.4 L 735.804,-210.4 z
M 849.654,-107.412 L 850.143,-107.448 L 850.631,-107.508 L 851.114,-107.592 L 851.593,-107.7 L 852.066,-107.831
 L 852.532,-107.985 L 852.99,-108.161 L 853.439,-108.36 L 853.877,-108.581 L 854.304,-108.823 L 854.719,-109.085
 L 855.12,-109.368 L 855.507,-109.67 L 855.879,-109.99 L 856.234,-110.329 L 856.573,-110.684 L 856.893,-111.056
 L 857.195,-111.443 L 857.478,-111.844 L 857.741,-112.259 L 857.982,-112.686 L 858.203,-113.124 L 858.402,-113.573
 L 858.579,-114.031 L 858.733,-114.497 L 858.864,-114.97 L 858.971,-115.449 L 859.055,-115.933 L 859.115,-116.42
 L 859.151,-116.909 L 859.163,-117.4 L 859.163,-197.4 L 859.151,-197.891 L 859.115,-198.38 L 859.055,-198.867
 L 858.971,-199.351 L 858.864,-199.83 L 858.733,-200.303 L 858.579,-200.769 L 858.402,-201.227 L 858.203,-201.676
 L 857.982,-202.114 L 857.741,-202.541 L 857.478,-202.956 L 857.195,-203.357 L 856.893,-203.744 L 856.573,-204.116
 L 856.234,-204.471 L 855.879,-204.81 L 855.507,-205.13 L 855.12,-205.432 L 854.719,-205.715 L 854.304,-205.977
 L 853.877,-206.219 L 853.439,-206.44 L 852.99,-206.639 L 852.532,-206.815 L 852.066,-206.969 L 851.593,-207.1
 L 851.114,-207.208 L 850.631,-207.292 L 850.143,-207.352 L 849.654,-207.388 L 849.163,-207.4 L 799.775,-207.4
 L 799.285,-207.388 L 798.795,-207.352 L 798.308,-207.292 L 797.825,-207.208 L 797.346,-207.1 L 796.873,-206.969
 L 796.407,-206.815 L 795.949,-206.639 L 795.5,-206.44 L 795.062,-206.219 L 794.634,-205.977 L 794.22,-205.715
 L 793.819,-205.432 L 793.432,-205.13 L 793.06,-204.81 L 792.704,-204.471 L 792.366,-204.116 L 792.045,-203.744
 L 791.743,-203.357 L 791.461,-202.956 L 791.198,-202.541 L 790.956,-202.114 L 790.736,-201.676 L 790.537,-201.227
 L 790.36,-200.769 L 790.206,-200.303 L 790.075,-199.83 L 789.968,-199.351 L 789.884,-198.867 L 789.824,-198.38
 L 789.788,-197.891 L 789.775,-197.4 L 789.775,-117.4 L 789.788,-116.909 L 789.824,-116.42 L 789.884,-115.933
 L 789.968,-115.449 L 790.075,-114.97 L 790.206,-114.497 L 790.36,-114.031 L 790.537,-113.573 L 790.736,-113.124
 L 790.956,-112.686 L 791.198,-112.259 L 791.461,-111.844 L 791.743,-111.443 L 792.045,-111.056 L 792.366,-110.684
 L 792.704,-110.329 L 793.06,-109.99 L 793.432,-109.67 L 793.819,-109.368 L 794.22,-109.085 L 794.634,-108.823
 L 795.062,-108.581 L 795.5,-108.36 L 795.949,-108.161 L 796.407,-107.985 L 796.873,-107.831 L 797.346,-107.7
 L 797.825,-107.592 L 798.308,-107.508 L 798.795,-107.448 L 799.285,-107.412 L 799.775,-107.4 L 849.163,-107.4
 z
M 217.824,-189.811 L 218.285,-189.845 L 218.743,-189.902 L 219.197,-189.981 L 219.647,-190.082 L 220.092,-190.205
 L 220.53,-190.349 L 220.96,-190.516 L 221.382,-190.702 L 221.794,-190.91 L 222.196,-191.137 L 222.586,-191.384
 L 222.963,-191.65 L 223.327,-191.934 L 223.676,-192.235 L 224.01,-192.553 L 224.328,-192.887 L 224.63,-193.237
 L 224.913,-193.6 L 225.179,-193.978 L 225.426,-194.367 L 225.653,-194.769 L 225.861,-195.181 L 226.048,-195.603
 L 226.214,-196.033 L 226.358,-196.471 L 226.482,-196.916 L 226.583,-197.366 L 226.661,-197.821 L 226.718,-198.279
 L 226.752,-198.739 L 226.763,-199.2 L 226.763,-204.2 L 222.763,-204.2 L 222.763,-199.2 L 222.757,-198.935
 L 222.737,-198.671 L 222.705,-198.408 L 222.659,-198.146 L 222.601,-197.888 L 222.531,-197.632 L 222.448,-197.381
 L 222.352,-197.133 L 222.245,-196.891 L 222.126,-196.654 L 221.995,-196.424 L 221.853,-196.2 L 221.701,-195.983
 L 221.537,-195.774 L 221.364,-195.574 L 221.182,-195.382 L 220.99,-195.199 L 220.789,-195.026 L 220.58,-194.863
 L 220.363,-194.71 L 220.139,-194.568 L 219.909,-194.438 L 219.672,-194.318 L 219.43,-194.211 L 219.182,-194.116
 L 218.931,-194.033 L 218.675,-193.962 L 218.417,-193.904 L 218.156,-193.858 L 217.893,-193.826 L 217.628,-193.806
 L 217.363,-193.8 L 167.975,-193.8 L 167.711,-193.806 L 167.446,-193.826 L 167.183,-193.858 L 166.922,-193.904
 L 166.663,-193.962 L 166.408,-194.033 L 166.156,-194.116 L 165.909,-194.211 L 165.667,-194.318 L 165.43,-194.438
 L 165.199,-194.568 L 164.975,-194.71 L 164.759,-194.863 L 164.55,-195.026 L 164.349,-195.199 L 164.157,-195.382
 L 163.974,-195.574 L 163.801,-195.774 L 163.638,-195.983 L 163.486,-196.2 L 163.344,-196.424 L 163.213,-196.654
 L 163.094,-196.891 L 162.987,-197.133 L 162.891,-197.381 L 162.808,-197.632 L 162.737,-197.888 L 162.679,-198.146
 L 162.634,-198.408 L 162.602,-198.671 L 162.582,-198.935 L 162.576,-199.2 L 162.576,-204.2 L 158.576,-204.2
 L 158.576,-199.2 L 158.587,-198.739 L 158.621,-198.279 L 158.677,-197.821 L 158.756,-197.366 L 158.857,-196.916
 L 158.98,-196.471 L 159.125,-196.033 L 159.291,-195.603 L 159.478,-195.181 L 159.685,-194.769 L 159.913,-194.367
 L 160.16,-193.978 L 160.425,-193.6 L 160.709,-193.237 L 161.011,-192.887 L 161.329,-192.553 L 161.663,-192.235
 L 162.012,-191.934 L 162.376,-191.65 L 162.753,-191.384 L 163.143,-191.137 L 163.544,-190.91 L 163.956,-190.702
 L 164.378,-190.516 L 164.809,-190.349 L 165.247,-190.205 L 165.691,-190.082 L 166.142,-189.981 L 166.596,-189.902
 L 167.054,-189.845 L 167.514,-189.811 L 167.975,-189.8 L 217.363,-189.8 z
M 707.605,-107.463 L 707.813,-107.626 L 708.014,-107.799 L 708.206,-107.982 L 708.389,-108.174 L 708.562,-108.374
 L 708.725,-108.583 L 708.878,-108.8 L 709.019,-109.024 L 709.15,-109.254 L 709.188,-109.329 L 709.188,-117.4
 L 714.388,-117.4 L 714.388,-191.8 L 714.376,-192.291 L 714.34,-192.78 L 714.28,-193.267 L 714.196,-193.751
 L 714.088,-194.23 L 713.957,-194.703 L 713.803,-195.169 L 713.627,-195.627 L 713.428,-196.076 L 713.207,-196.514
 L 712.965,-196.941 L 712.702,-197.356 L 712.42,-197.757 L 712.118,-198.144 L 711.797,-198.516 L 711.459,-198.871
 L 711.103,-199.21 L 710.732,-199.53 L 710.345,-199.832 L 709.943,-200.115 L 709.529,-200.377 L 709.102,-200.619
 L 708.663,-200.84 L 708.215,-201.039 L 707.757,-201.215 L 707.291,-201.369 L 706.818,-201.5 L 706.339,-201.608
 L 705.855,-201.692 L 705.368,-201.752 L 704.878,-201.788 L 704.388,-201.8 L 655,-201.8 L 654.509,-201.788
 L 654.02,-201.752 L 653.533,-201.692 L 653.049,-201.608 L 652.57,-201.5 L 652.097,-201.369 L 651.631,-201.215
 L 651.173,-201.039 L 650.724,-200.84 L 650.286,-200.619 L 649.859,-200.377 L 649.444,-200.115 L 649.043,-199.832
 L 648.656,-199.53 L 648.284,-199.21 L 647.929,-198.871 L 647.59,-198.516 L 647.27,-198.144 L 646.968,-197.757
 L 646.685,-197.356 L 646.423,-196.941 L 646.181,-196.514 L 645.96,-196.076 L 645.761,-195.627 L 645.585,-195.169
 L 645.431,-194.703 L 645.3,-194.23 L 645.192,-193.751 L 645.108,-193.267 L 645.048,-192.78 L 645.012,-192.291
 L 645,-191.8 L 645,-117.4 L 650.2,-117.4 L 650.2,-109.329 L 650.238,-109.254 L 650.368,-109.024
 L 650.51,-108.8 L 650.663,-108.583 L 650.826,-108.374 L 650.999,-108.174 L 651.182,-107.982 L 651.374,-107.799
 L 651.574,-107.626 L 651.783,-107.463 L 651.872,-107.4 L 707.516,-107.4 z
M 678.979,-133.438 L 678.266,-133.491 L 677.556,-133.578 L 676.851,-133.701 L 676.153,-133.857 L 675.464,-134.048
 L 674.785,-134.272 L 674.118,-134.53 L 673.464,-134.82 L 672.825,-135.141 L 672.203,-135.494 L 671.598,-135.876
 L 671.014,-136.288 L 670.45,-136.728 L 669.908,-137.195 L 669.39,-137.688 L 668.897,-138.206 L 668.43,-138.748
 L 667.99,-139.312 L 667.578,-139.897 L 667.196,-140.501 L 666.843,-141.123 L 666.521,-141.762 L 666.232,-142.416
 L 665.974,-143.083 L 665.75,-143.762 L 665.559,-144.451 L 665.402,-145.149 L 665.28,-145.854 L 665.193,-146.564
 L 665.14,-147.277 L 665.122,-147.992 L 665.14,-148.707 L 665.193,-149.42 L 665.28,-150.13 L 665.402,-150.835
 L 665.559,-151.533 L 665.75,-152.222 L 665.974,-152.901 L 666.232,-153.568 L 666.521,-154.222 L 666.843,-154.861
 L 667.196,-155.483 L 667.578,-156.087 L 667.99,-156.672 L 668.43,-157.236 L 668.897,-157.778 L 669.39,-158.296
 L 669.908,-158.789 L 670.45,-159.256 L 671.014,-159.696 L 671.598,-160.108 L 672.203,-160.49 L 672.825,-160.843
 L 673.464,-161.164 L 674.118,-161.454 L 674.785,-161.712 L 675.464,-161.936 L 676.153,-162.127 L 676.851,-162.283
 L 677.556,-162.406 L 678.266,-162.493 L 678.979,-162.546 L 679.694,-162.563 L 680.409,-162.546 L 681.122,-162.493
 L 681.832,-162.406 L 682.537,-162.283 L 683.234,-162.127 L 683.924,-161.936 L 684.603,-161.712 L 685.27,-161.454
 L 685.924,-161.164 L 686.563,-160.843 L 687.185,-160.49 L 687.789,-160.108 L 688.374,-159.696 L 688.938,-159.256
 L 689.479,-158.789 L 689.997,-158.296 L 690.491,-157.778 L 690.958,-157.236 L 691.398,-156.672 L 691.81,-156.087
 L 692.192,-155.483 L 692.545,-154.861 L 692.866,-154.222 L 693.156,-153.568 L 693.414,-152.901 L 693.638,-152.222
 L 693.829,-151.533 L 693.985,-150.835 L 694.108,-150.13 L 694.195,-149.42 L 694.248,-148.707 L 694.265,-147.992
 L 694.248,-147.277 L 694.195,-146.564 L 694.108,-145.854 L 693.985,-145.149 L 693.829,-144.451 L 693.638,-143.762
 L 693.414,-143.083 L 693.156,-142.416 L 692.866,-141.762 L 692.545,-141.123 L 692.192,-140.501 L 691.81,-139.897
 L 691.398,-139.312 L 690.958,-138.748 L 690.491,-138.206 L 689.997,-137.688 L 689.479,-137.195 L 688.938,-136.728
 L 688.374,-136.288 L 687.789,-135.876 L 687.185,-135.494 L 686.563,-135.141 L 685.924,-134.82 L 685.27,-134.53
 L 684.603,-134.272 L 683.924,-134.048 L 683.234,-133.857 L 682.537,-133.701 L 681.832,-133.578 L 681.122,-133.491
 L 680.409,-133.438 L 679.694,-133.421 z
M 135.437,-97.4113 L 135.897,-97.4453 L 136.355,-97.5017 L 136.809,-97.5806 L 137.259,-97.6817 L 137.704,-97.8047
 L 138.142,-97.9495 L 138.573,-98.1155 L 138.994,-98.3025 L 139.407,-98.5099 L 139.808,-98.7373 L 140.198,-98.9842
 L 140.575,-99.2498 L 140.939,-99.5337 L 141.288,-99.8351 L 141.622,-100.153 L 141.94,-100.487 L 142.242,-100.837
 L 142.526,-101.2 L 142.791,-101.578 L 143.038,-101.967 L 143.266,-102.369 L 143.473,-102.781 L 143.66,-103.203
 L 143.826,-103.633 L 143.971,-104.071 L 144.094,-104.516 L 144.195,-104.966 L 144.274,-105.421 L 144.33,-105.879
 L 144.364,-106.339 L 144.375,-106.8 L 144.375,-182.8 L 143.175,-184 L 143.175,-185.6 L 141.576,-185.6
 L 140.375,-186.8 L 140.375,-106.8 L 140.369,-106.535 L 140.349,-106.271 L 140.317,-106.008 L 140.272,-105.747
 L 140.214,-105.488 L 140.143,-105.232 L 140.06,-104.981 L 139.964,-104.733 L 139.857,-104.491 L 139.738,-104.254
 L 139.607,-104.024 L 139.465,-103.8 L 139.313,-103.583 L 139.15,-103.374 L 138.977,-103.174 L 138.794,-102.982
 L 138.602,-102.799 L 138.401,-102.626 L 138.192,-102.463 L 137.976,-102.31 L 137.752,-102.168 L 137.521,-102.038
 L 137.284,-101.918 L 137.042,-101.811 L 136.795,-101.716 L 136.543,-101.633 L 136.288,-101.562 L 136.029,-101.504
 L 135.768,-101.458 L 135.505,-101.426 L 135.24,-101.406 L 134.975,-101.4 L 85.5877,-101.4 L 85.3228,-101.406
 L 85.0584,-101.426 L 84.7954,-101.458 L 84.5343,-101.504 L 84.2757,-101.562 L 84.0202,-101.633 L 83.7685,-101.716
 L 83.5212,-101.811 L 83.2789,-101.918 L 83.0422,-102.038 L 82.8116,-102.168 L 82.5877,-102.31 L 82.371,-102.463
 L 82.162,-102.626 L 81.9613,-102.799 L 81.7694,-102.982 L 81.5866,-103.174 L 81.4135,-103.374 L 81.2504,-103.583
 L 81.0978,-103.8 L 80.956,-104.024 L 80.8254,-104.254 L 80.7062,-104.491 L 80.5988,-104.733 L 80.5034,-104.981
 L 80.4203,-105.232 L 80.3496,-105.488 L 80.2915,-105.747 L 80.2462,-106.008 L 80.2137,-106.271 L 80.1942,-106.535
 L 80.1877,-106.8 L 80.1877,-182.8 L 78.9877,-184 L 78.9877,-185.6 L 77.3878,-185.6 L 76.1877,-186.8
 L 76.1877,-106.8 L 76.1991,-106.339 L 76.233,-105.879 L 76.2895,-105.421 L 76.3684,-104.966 L 76.4694,-104.516
 L 76.5925,-104.071 L 76.7372,-103.633 L 76.9033,-103.203 L 77.0902,-102.781 L 77.2977,-102.369 L 77.5251,-101.967
 L 77.7719,-101.578 L 78.0376,-101.2 L 78.3214,-100.837 L 78.6228,-100.487 L 78.9409,-100.153 L 79.2751,-99.8351
 L 79.6244,-99.5337 L 79.9882,-99.2498 L 80.3654,-98.9842 L 80.7552,-98.7373 L 81.1566,-98.5099 L 81.5687,-98.3025
 L 81.9905,-98.1155 L 82.421,-97.9495 L 82.8591,-97.8047 L 83.3037,-97.6817 L 83.7539,-97.5806 L 84.2085,-97.5017
 L 84.6664,-97.4453 L 85.1265,-97.4113 L 85.5877,-97.4 L 134.975,-97.4 z
M 64.249,-97.4113 L 64.7091,-97.4453 L 65.167,-97.5017 L 65.6216,-97.5806 L 66.0717,-97.6817 L 66.5164,-97.8047
 L 66.9545,-97.9495 L 67.385,-98.1155 L 67.8067,-98.3025 L 68.2189,-98.5099 L 68.6203,-98.7373 L 69.0101,-98.9842
 L 69.3873,-99.2498 L 69.751,-99.5337 L 70.1004,-99.8351 L 70.4345,-100.153 L 70.7527,-100.487 L 71.054,-100.837
 L 71.3379,-101.2 L 71.6035,-101.578 L 71.8504,-101.967 L 72.0778,-102.369 L 72.2852,-102.781 L 72.4722,-103.203
 L 72.6382,-103.633 L 72.783,-104.071 L 72.906,-104.516 L 73.0071,-104.966 L 73.086,-105.421 L 73.1425,-105.879
 L 73.1764,-106.339 L 73.1877,-106.8 L 73.1877,-182.8 L 71.9877,-184 L 71.9877,-185.6 L 70.3878,-185.6
 L 69.1877,-186.8 L 69.1877,-106.8 L 69.1812,-106.535 L 69.1617,-106.271 L 69.1293,-106.008 L 69.084,-105.747
 L 69.0259,-105.488 L 68.9552,-105.232 L 68.8721,-104.981 L 68.7767,-104.733 L 68.6693,-104.491 L 68.5501,-104.254
 L 68.4195,-104.024 L 68.2777,-103.8 L 68.1251,-103.583 L 67.962,-103.374 L 67.7889,-103.174 L 67.6061,-102.982
 L 67.4142,-102.799 L 67.2135,-102.626 L 67.0045,-102.463 L 66.7878,-102.31 L 66.5639,-102.168 L 66.3333,-102.038
 L 66.0965,-101.918 L 65.8542,-101.811 L 65.6069,-101.716 L 65.3553,-101.633 L 65.0998,-101.562 L 64.8412,-101.504
 L 64.5801,-101.458 L 64.317,-101.426 L 64.0527,-101.406 L 63.7877,-101.4 L 14.4,-101.4 L 14.135,-101.406
 L 13.8707,-101.426 L 13.6077,-101.458 L 13.3465,-101.504 L 13.0879,-101.562 L 12.8325,-101.633 L 12.5808,-101.716
 L 12.3335,-101.811 L 12.0912,-101.918 L 11.8544,-102.038 L 11.6238,-102.168 L 11.3999,-102.31 L 11.1832,-102.463
 L 10.9743,-102.626 L 10.7736,-102.799 L 10.5816,-102.982 L 10.3989,-103.174 L 10.2257,-103.374 L 10.0627,-103.583
 L 9.91006,-103.8 L 9.76826,-104.024 L 9.63762,-104.254 L 9.51845,-104.491 L 9.41104,-104.733 L 9.31566,-104.981
 L 9.23251,-105.232 L 9.16182,-105.488 L 9.10376,-105.747 L 9.05844,-106.008 L 9.026,-106.271 L 9.0065,-106.535
 L 9,-106.8 L 9,-182.8 L 7.8,-184 L 7.8,-185.6 L 6.20001,-185.6 L 5,-186.8
 L 5,-106.8 L 5.01132,-106.339 L 5.04526,-105.879 L 5.10173,-105.421 L 5.18062,-104.966 L 5.28169,-104.516
 L 5.40475,-104.071 L 5.54948,-103.633 L 5.71553,-103.203 L 5.9025,-102.781 L 6.10994,-102.369 L 6.33734,-101.967
 L 6.58418,-101.578 L 6.84984,-101.2 L 7.1337,-100.837 L 7.43506,-100.487 L 7.75319,-100.153 L 8.08734,-99.8351
 L 8.43669,-99.5337 L 8.80042,-99.2498 L 9.17763,-98.9842 L 9.56743,-98.7373 L 9.96887,-98.5099 L 10.381,-98.3025
 L 10.8028,-98.1155 L 11.2332,-97.9495 L 11.6713,-97.8047 L 12.116,-97.6817 L 12.5661,-97.5806 L 13.0207,-97.5017
 L 13.4786,-97.4453 L 13.9388,-97.4113 L 14.4,-97.4 L 63.7877,-97.4 z
M 428.558,-99.8 L 436.208,-99.8 L 436.208,-95.9 L 453.525,-95.9 L 453.525,-99.8 L 461.175,-99.8
 L 461.175,-95.9 L 478.492,-95.9 L 478.492,-99.8 L 486.142,-99.8 L 486.142,-95.9 L 498.8,-95.9
 L 498.8,-178.8 L 486.142,-178.8 L 486.142,-174.9 L 478.492,-174.9 L 478.492,-178.8 L 461.175,-178.8
 L 461.175,-174.9 L 453.525,-174.9 L 453.525,-178.8 L 436.208,-178.8 L 436.208,-174.9 L 428.558,-174.9
 L 428.558,-178.8 L 415.9,-178.8 L 415.9,-95.9 L 428.558,-95.9 z
M 337.658,-99.8 L 345.308,-99.8 L 345.308,-95.9 L 362.625,-95.9 L 362.625,-99.8 L 370.275,-99.8
 L 370.275,-95.9 L 387.592,-95.9 L 387.592,-99.8 L 395.242,-99.8 L 395.242,-95.9 L 407.9,-95.9
 L 407.9,-178.8 L 395.242,-178.8 L 395.242,-174.9 L 387.592,-174.9 L 387.592,-178.8 L 370.275,-178.8
 L 370.275,-174.9 L 362.625,-174.9 L 362.625,-178.8 L 345.308,-178.8 L 345.308,-174.9 L 337.658,-174.9
 L 337.658,-178.8 L 325,-178.8 L 325,-95.9 L 337.658,-95.9 z
M 777.266,-107.412 L 777.756,-107.448 L 778.243,-107.508 L 778.726,-107.592 L 779.205,-107.7 L 779.678,-107.831
 L 780.144,-107.985 L 780.602,-108.161 L 781.051,-108.36 L 781.489,-108.581 L 781.917,-108.823 L 782.331,-109.085
 L 782.732,-109.368 L 783.119,-109.67 L 783.491,-109.99 L 783.847,-110.329 L 784.185,-110.684 L 784.506,-111.056
 L 784.808,-111.443 L 785.09,-111.844 L 785.353,-112.259 L 785.595,-112.686 L 785.815,-113.124 L 786.014,-113.573
 L 786.191,-114.031 L 786.345,-114.497 L 786.476,-114.97 L 786.583,-115.449 L 786.667,-115.933 L 786.727,-116.42
 L 786.763,-116.909 L 786.775,-117.4 L 786.775,-122.4 L 782.175,-122.4 L 782.175,-117.4 L 782.169,-117.135
 L 782.149,-116.871 L 782.117,-116.608 L 782.072,-116.347 L 782.014,-116.088 L 781.943,-115.832 L 781.86,-115.581
 L 781.764,-115.333 L 781.657,-115.091 L 781.538,-114.854 L 781.407,-114.624 L 781.265,-114.4 L 781.113,-114.183
 L 780.95,-113.974 L 780.777,-113.774 L 780.594,-113.582 L 780.402,-113.399 L 780.201,-113.226 L 779.992,-113.063
 L 779.776,-112.91 L 779.552,-112.768 L 779.321,-112.638 L 779.084,-112.518 L 778.842,-112.411 L 778.595,-112.316
 L 778.343,-112.233 L 778.088,-112.162 L 777.829,-112.104 L 777.568,-112.058 L 777.305,-112.026 L 777.04,-112.007
 L 776.775,-112 L 727.388,-112 L 727.123,-112.007 L 726.858,-112.026 L 726.595,-112.058 L 726.334,-112.104
 L 726.076,-112.162 L 725.82,-112.233 L 725.569,-112.316 L 725.321,-112.411 L 725.079,-112.518 L 724.842,-112.638
 L 724.612,-112.768 L 724.388,-112.91 L 724.171,-113.063 L 723.962,-113.226 L 723.761,-113.399 L 723.569,-113.582
 L 723.387,-113.774 L 723.213,-113.974 L 723.05,-114.183 L 722.898,-114.4 L 722.756,-114.624 L 722.625,-114.854
 L 722.506,-115.091 L 722.399,-115.333 L 722.303,-115.581 L 722.22,-115.832 L 722.15,-116.088 L 722.092,-116.347
 L 722.046,-116.608 L 722.014,-116.871 L 721.994,-117.135 L 721.988,-117.4 L 721.988,-122.4 L 717.388,-122.4
 L 717.388,-117.4 L 717.4,-116.909 L 717.436,-116.42 L 717.496,-115.933 L 717.58,-115.449 L 717.687,-114.97
 L 717.818,-114.497 L 717.972,-114.031 L 718.149,-113.573 L 718.348,-113.124 L 718.569,-112.686 L 718.81,-112.259
 L 719.073,-111.844 L 719.356,-111.443 L 719.658,-111.056 L 719.978,-110.684 L 720.317,-110.329 L 720.672,-109.99
 L 721.044,-109.67 L 721.431,-109.368 L 721.832,-109.085 L 722.247,-108.823 L 722.674,-108.581 L 723.112,-108.36
 L 723.561,-108.161 L 724.019,-107.985 L 724.485,-107.831 L 724.958,-107.7 L 725.437,-107.592 L 725.92,-107.508
 L 726.408,-107.448 L 726.897,-107.412 L 727.388,-107.4 L 776.775,-107.4 z
M 905.804,-104.4 L 645,-104.4 L 645,-5 L 905.804,-5 z
M 135.437,-5.01132 L 135.897,-5.04526 L 136.355,-5.10173 L 136.809,-5.18062 L 137.259,-5.28169 L 137.704,-5.40475
 L 138.142,-5.54948 L 138.573,-5.71553 L 138.994,-5.9025 L 139.407,-6.10994 L 139.808,-6.33734 L 140.198,-6.58418
 L 140.575,-6.84984 L 140.939,-7.1337 L 141.288,-7.43506 L 141.622,-7.75319 L 141.94,-8.08734 L 142.242,-8.43669
 L 142.526,-8.80042 L 142.791,-9.17763 L 143.038,-9.56743 L 143.266,-9.96887 L 143.473,-10.381 L 143.66,-10.8028
 L 143.826,-11.2332 L 143.971,-11.6713 L 144.094,-12.116 L 144.195,-12.5661 L 144.274,-13.0207 L 144.33,-13.4786
 L 144.364,-13.9388 L 144.375,-14.4 L 144.375,-90.4 L 143.175,-91.6 L 143.175,-93.2 L 141.576,-93.2
 L 140.375,-94.4 L 140.375,-14.4 L 140.369,-14.135 L 140.349,-13.8707 L 140.317,-13.6077 L 140.272,-13.3465
 L 140.214,-13.0879 L 140.143,-12.8325 L 140.06,-12.5808 L 139.964,-12.3335 L 139.857,-12.0912 L 139.738,-11.8544
 L 139.607,-11.6238 L 139.465,-11.3999 L 139.313,-11.1832 L 139.15,-10.9743 L 138.977,-10.7736 L 138.794,-10.5816
 L 138.602,-10.3989 L 138.401,-10.2257 L 138.192,-10.0627 L 137.976,-9.91006 L 137.752,-9.76826 L 137.521,-9.63762
 L 137.284,-9.51845 L 137.042,-9.41104 L 136.795,-9.31566 L 136.543,-9.23251 L 136.288,-9.16182 L 136.029,-9.10376
 L 135.768,-9.05844 L 135.505,-9.026 L 135.24,-9.0065 L 134.975,-9 L 85.5877,-9 L 85.3228,-9.0065
 L 85.0584,-9.026 L 84.7954,-9.05844 L 84.5343,-9.10376 L 84.2757,-9.16182 L 84.0202,-9.23251 L 83.7685,-9.31566
 L 83.5212,-9.41104 L 83.2789,-9.51845 L 83.0422,-9.63762 L 82.8116,-9.76826 L 82.5877,-9.91006 L 82.371,-10.0627
 L 82.162,-10.2257 L 81.9613,-10.3989 L 81.7694,-10.5816 L 81.5866,-10.7736 L 81.4135,-10.9743 L 81.2504,-11.1832
 L 81.0978,-11.3999 L 80.956,-11.6238 L 80.8254,-11.8544 L 80.7062,-12.0912 L 80.5988,-12.3335 L 80.5034,-12.5808
 L 80.4203,-12.8325 L 80.3496,-13.0879 L 80.2915,-13.3465 L 80.2462,-13.6077 L 80.2137,-13.8707 L 80.1942,-14.135
 L 80.1877,-14.4 L 80.1877,-90.4 L 78.9877,-91.6 L 78.9877,-93.2 L 77.3878,-93.2 L 76.1877,-94.4
 L 76.1877,-14.4 L 76.1991,-13.9388 L 76.233,-13.4786 L 76.2895,-13.0207 L 76.3684,-12.5661 L 76.4694,-12.116
 L 76.5925,-11.6713 L 76.7372,-11.2332 L 76.9033,-10.8028 L 77.0902,-10.381 L 77.2977,-9.96887 L 77.5251,-9.56743
 L 77.7719,-9.17763 L 78.0376,-8.80042 L 78.3214,-8.43669 L 78.6228,-8.08734 L 78.9409,-7.75319 L 79.2751,-7.43506
 L 79.6244,-7.1337 L 79.9882,-6.84984 L 80.3654,-6.58418 L 80.7552,-6.33734 L 81.1566,-6.10994 L 81.5687,-5.9025
 L 81.9905,-5.71553 L 82.421,-5.54948 L 82.8591,-5.40475 L 83.3037,-5.28169 L 83.7539,-5.18062 L 84.2085,-5.10173
 L 84.6664,-5.04526 L 85.1265,-5.01132 L 85.5877,-5 L 134.975,-5 z
M 206.624,-5.01132 L 207.085,-5.04526 L 207.543,-5.10173 L 207.997,-5.18062 L 208.447,-5.28169 L 208.892,-5.40475
 L 209.33,-5.54948 L 209.76,-5.71553 L 210.182,-5.9025 L 210.594,-6.10994 L 210.996,-6.33734 L 211.386,-6.58418
 L 211.763,-6.84984 L 212.127,-7.1337 L 212.476,-7.43506 L 212.81,-7.75319 L 213.128,-8.08734 L 213.43,-8.43669
 L 213.713,-8.80042 L 213.979,-9.17763 L 214.226,-9.56743 L 214.453,-9.96887 L 214.661,-10.381 L 214.848,-10.8028
 L 215.014,-11.2332 L 215.158,-11.6713 L 215.282,-12.116 L 215.383,-12.5661 L 215.462,-13.0207 L 215.518,-13.4786
 L 215.552,-13.9388 L 215.563,-14.4 L 215.563,-90.4 L 214.363,-91.6 L 214.363,-93.2 L 212.763,-93.2
 L 211.563,-94.4 L 211.563,-14.4 L 211.557,-14.135 L 211.537,-13.8707 L 211.505,-13.6077 L 211.459,-13.3465
 L 211.401,-13.0879 L 211.331,-12.8325 L 211.248,-12.5808 L 211.152,-12.3335 L 211.045,-12.0912 L 210.926,-11.8544
 L 210.795,-11.6238 L 210.653,-11.3999 L 210.501,-11.1832 L 210.337,-10.9743 L 210.164,-10.7736 L 209.982,-10.5816
 L 209.79,-10.3989 L 209.589,-10.2257 L 209.38,-10.0627 L 209.163,-9.91006 L 208.939,-9.76826 L 208.709,-9.63762
 L 208.472,-9.51845 L 208.23,-9.41104 L 207.982,-9.31566 L 207.731,-9.23251 L 207.475,-9.16182 L 207.217,-9.10376
 L 206.956,-9.05844 L 206.693,-9.026 L 206.428,-9.0065 L 206.163,-9 L 156.775,-9 L 156.511,-9.0065
 L 156.246,-9.026 L 155.983,-9.05844 L 155.722,-9.10376 L 155.463,-9.16182 L 155.208,-9.23251 L 154.956,-9.31566
 L 154.709,-9.41104 L 154.467,-9.51845 L 154.23,-9.63762 L 153.999,-9.76826 L 153.775,-9.91006 L 153.559,-10.0627
 L 153.35,-10.2257 L 153.149,-10.3989 L 152.957,-10.5816 L 152.774,-10.7736 L 152.601,-10.9743 L 152.438,-11.1832
 L 152.286,-11.3999 L 152.144,-11.6238 L 152.013,-11.8544 L 151.894,-12.0912 L 151.787,-12.3335 L 151.691,-12.5808
 L 151.608,-12.8325 L 151.537,-13.0879 L 151.479,-13.3465 L 151.434,-13.6077 L 151.402,-13.8707 L 151.382,-14.135
 L 151.376,-14.4 L 151.376,-90.4 L 150.176,-91.6 L 150.176,-93.2 L 148.576,-93.2 L 147.376,-94.4
 L 147.376,-14.4 L 147.387,-13.9388 L 147.421,-13.4786 L 147.477,-13.0207 L 147.556,-12.5661 L 147.657,-12.116
 L 147.78,-11.6713 L 147.925,-11.2332 L 148.091,-10.8028 L 148.278,-10.381 L 148.485,-9.96887 L 148.713,-9.56743
 L 148.96,-9.17763 L 149.225,-8.80042 L 149.509,-8.43669 L 149.811,-8.08734 L 150.129,-7.75319 L 150.463,-7.43506
 L 150.812,-7.1337 L 151.176,-6.84984 L 151.553,-6.58418 L 151.943,-6.33734 L 152.344,-6.10994 L 152.756,-5.9025
 L 153.178,-5.71553 L 153.609,-5.54948 L 154.047,-5.40475 L 154.491,-5.28169 L 154.942,-5.18062 L 155.396,-5.10173
 L 155.854,-5.04526 L 156.314,-5.01132 L 156.775,-5 L 206.163,-5 z
M 64.249,-5.01132 L 64.7091,-5.04526 L 65.167,-5.10173 L 65.6216,-5.18062 L 66.0717,-5.28169 L 66.5164,-5.40475
 L 66.9545,-5.54948 L 67.385,-5.71553 L 67.8067,-5.9025 L 68.2189,-6.10994 L 68.6203,-6.33734 L 69.0101,-6.58418
 L 69.3873,-6.84984 L 69.751,-7.1337 L 70.1004,-7.43506 L 70.4345,-7.75319 L 70.7527,-8.08734 L 71.054,-8.43669
 L 71.3379,-8.80042 L 71.6035,-9.17763 L 71.8504,-9.56743 L 72.0778,-9.96887 L 72.2852,-10.381 L 72.4722,-10.8028
 L 72.6382,-11.2332 L 72.783,-11.6713 L 72.906,-12.116 L 73.0071,-12.5661 L 73.086,-13.0207 L 73.1425,-13.4786
 L 73.1764,-13.9388 L 73.1877,-14.4 L 73.1877,-90.4 L 71.9877,-91.6 L 71.9877,-93.2 L 70.3878,-93.2
 L 69.1877,-94.4 L 69.1877,-14.4 L 69.1812,-14.135 L 69.1617,-13.8707 L 69.1293,-13.6077 L 69.084,-13.3465
 L 69.0259,-13.0879 L 68.9552,-12.8325 L 68.8721,-12.5808 L 68.7767,-12.3335 L 68.6693,-12.0912 L 68.5501,-11.8544
 L 68.4195,-11.6238 L 68.2777,-11.3999 L 68.1251,-11.1832 L 67.962,-10.9743 L 67.7889,-10.7736 L 67.6061,-10.5816
 L 67.4142,-10.3989 L 67.2135,-10.2257 L 67.0045,-10.0627 L 66.7878,-9.91006 L 66.5639,-9.76826 L 66.3333,-9.63762
 L 66.0965,-9.51845 L 65.8542,-9.41104 L 65.6069,-9.31566 L 65.3553,-9.23251 L 65.0998,-9.16182 L 64.8412,-9.10376
 L 64.5801,-9.05844 L 64.317,-9.026 L 64.0527,-9.0065 L 63.7877,-9 L 14.4,-9 L 14.135,-9.0065
 L 13.8707,-9.026 L 13.6077,-9.05844 L 13.3465,-9.10376 L 13.0879,-9.16182 L 12.8325,-9.23251 L 12.5808,-9.31566
 L 12.3335,-9.41104 L 12.0912,-9.51845 L 11.8544,-9.63762 L 11.6238,-9.76826 L 11.3999,-9.91006 L 11.1832,-10.0627
 L 10.9743,-10.2257 L 10.7736,-10.3989 L 10.5816,-10.5816 L 10.3989,-10.7736 L 10.2257,-10.9743 L 10.0627,-11.1832
 L 9.91006,-11.3999 L 9.76826,-11.6238 L 9.63762,-11.8544 L 9.51845,-12.0912 L 9.41104,-12.3335 L 9.31566,-12.5808
 L 9.23251,-12.8325 L 9.16182,-13.0879 L 9.10376,-13.3465 L 9.05844,-13.6077 L 9.026,-13.8707 L 9.0065,-14.135
 L 9,-14.4 L 9,-90.4 L 7.8,-91.6 L 7.8,-93.2 L 6.20001,-93.2 L 5,-94.4
 L 5,-14.4 L 5.01132,-13.9388 L 5.04526,-13.4786 L 5.10173,-13.0207 L 5.18062,-12.5661 L 5.28169,-12.116
 L 5.40475,-11.6713 L 5.54948,-11.2332 L 5.71553,-10.8028 L 5.9025,-10.381 L 6.10994,-9.96887 L 6.33734,-9.56743
 L 6.58418,-9.17763 L 6.84984,-8.80042 L 7.1337,-8.43669 L 7.43506,-8.08734 L 7.75319,-7.75319 L 8.08734,-7.43506
 L 8.43669,-7.1337 L 8.80042,-6.84984 L 9.17763,-6.58418 L 9.56743,-6.33734 L 9.96887,-6.10994 L 10.381,-5.9025
 L 10.8028,-5.71553 L 11.2332,-5.54948 L 11.6713,-5.40475 L 12.116,-5.28169 L 12.5661,-5.18062 L 13.0207,-5.10173
 L 13.4786,-5.04526 L 13.9388,-5.01132 L 14.4,-5 L 63.7877,-5 z
M 384.188,-87.9 L 325,-87.9 L 325,-5 L 384.188,-5 z
M 442.375,-17.3083 L 446.375,-17.3083 L 446.375,-25.6583 L 442.375,-25.6583 L 442.375,-42.275 L 446.375,-42.275
 L 446.375,-50.625 L 442.375,-50.625 L 442.375,-67.2417 L 446.375,-67.2417 L 446.375,-75.5917 L 442.375,-75.5917
 L 442.375,-87.9 L 391.188,-87.9 L 391.188,-75.5917 L 387.188,-75.5917 L 387.188,-67.2417 L 391.188,-67.2417
 L 391.188,-50.625 L 387.188,-50.625 L 387.188,-42.275 L 391.188,-42.275 L 391.188,-25.6583 L 387.188,-25.6583
 L 387.188,-17.3083 L 391.188,-17.3083 L 391.188,-5 L 442.375,-5 z
M 504.563,-17.3083 L 508.563,-17.3083 L 508.563,-25.6583 L 504.563,-25.6583 L 504.563,-42.275 L 508.563,-42.275
 L 508.563,-50.625 L 504.563,-50.625 L 504.563,-67.2417 L 508.563,-67.2417 L 508.563,-75.5917 L 504.563,-75.5917
 L 504.563,-87.9 L 453.376,-87.9 L 453.376,-75.5917 L 449.376,-75.5917 L 449.376,-67.2417 L 453.376,-67.2417
 L 453.376,-50.625 L 449.376,-50.625 L 449.376,-42.275 L 453.376,-42.275 L 453.376,-25.6583 L 449.376,-25.6583
 L 449.376,-17.3083 L 453.376,-17.3083 L 453.376,-5 L 504.563,-5 z
M 286.751,-74.6 L 286.74,-75.0612 L 286.706,-75.5213 L 286.649,-75.9792 L 286.57,-76.4338 L 286.469,-76.884
 L 286.346,-77.3287 L 286.202,-77.7667 L 286.035,-78.1972 L 285.848,-78.619 L 285.641,-79.0311 L 285.414,-79.4325
 L 285.167,-79.8223 L 284.901,-80.1996 L 284.617,-80.5633 L 284.316,-80.9126 L 283.998,-81.2468 L 283.664,-81.5649
 L 283.314,-81.8663 L 282.951,-82.1501 L 282.573,-82.4158 L 282.184,-82.6626 L 281.782,-82.89 L 281.37,-83.0975
 L 280.948,-83.2844 L 280.518,-83.4505 L 280.08,-83.5952 L 279.635,-83.7183 L 279.185,-83.8194 L 278.73,-83.8982
 L 278.272,-83.9547 L 277.812,-83.9886 L 277.351,-84 L 227.963,-84 L 227.502,-83.9886 L 227.042,-83.9547
 L 226.584,-83.8982 L 226.129,-83.8194 L 225.679,-83.7183 L 225.235,-83.5952 L 224.796,-83.4505 L 224.366,-83.2844
 L 223.944,-83.0975 L 223.532,-82.89 L 223.131,-82.6626 L 222.741,-82.4158 L 222.364,-82.1501 L 222,-81.8663
 L 221.651,-81.5649 L 221.316,-81.2468 L 220.998,-80.9126 L 220.697,-80.5633 L 220.413,-80.1996 L 220.147,-79.8223
 L 219.901,-79.4325 L 219.673,-79.0311 L 219.466,-78.619 L 219.279,-78.1972 L 219.113,-77.7667 L 218.968,-77.3287
 L 218.845,-76.884 L 218.744,-76.4338 L 218.665,-75.9792 L 218.609,-75.5213 L 218.575,-75.0612 L 218.563,-74.6
 L 219.763,-73.4 L 221.363,-73.4 L 221.363,-71.8 L 222.563,-70.6 L 222.563,-74.6 L 222.57,-74.8649
 L 222.589,-75.1293 L 222.622,-75.3923 L 222.667,-75.6535 L 222.725,-75.9121 L 222.796,-76.1675 L 222.879,-76.4192
 L 222.974,-76.6665 L 223.082,-76.9088 L 223.201,-77.1455 L 223.332,-77.3761 L 223.473,-77.6001 L 223.626,-77.8168
 L 223.789,-78.0257 L 223.962,-78.2264 L 224.145,-78.4184 L 224.337,-78.6011 L 224.538,-78.7742 L 224.746,-78.9373
 L 224.963,-79.0899 L 225.187,-79.2317 L 225.418,-79.3624 L 225.654,-79.4815 L 225.897,-79.5889 L 226.144,-79.6843
 L 226.396,-79.7675 L 226.651,-79.8382 L 226.91,-79.8962 L 227.171,-79.9415 L 227.434,-79.974 L 227.651,-79.99
 L 226.488,-79.99 L 226.488,-82 L 230.638,-82 L 230.638,-80 L 274.676,-80 L 274.676,-82
 L 278.826,-82 L 278.826,-79.99 L 277.663,-79.99 L 277.88,-79.974 L 278.143,-79.9415 L 278.404,-79.8962
 L 278.663,-79.8382 L 278.919,-79.7675 L 279.17,-79.6843 L 279.417,-79.5889 L 279.66,-79.4815 L 279.897,-79.3624
 L 280.127,-79.2317 L 280.351,-79.0899 L 280.568,-78.9373 L 280.777,-78.7742 L 280.977,-78.6011 L 281.169,-78.4184
 L 281.352,-78.2264 L 281.525,-78.0257 L 281.688,-77.8168 L 281.841,-77.6001 L 281.983,-77.3761 L 282.113,-77.1455
 L 282.233,-76.9088 L 282.34,-76.6665 L 282.435,-76.4192 L 282.518,-76.1675 L 282.589,-75.9121 L 282.647,-75.6535
 L 282.693,-75.3923 L 282.725,-75.1293 L 282.744,-74.8649 L 282.751,-74.6 L 283.951,-73.4 L 285.551,-73.4
 L 285.551,-71.8 L 286.751,-70.6 z
M 286.751,-58.2 L 286.74,-58.6612 L 286.706,-59.1213 L 286.649,-59.5793 L 286.57,-60.0338 L 286.469,-60.484
 L 286.346,-60.9287 L 286.202,-61.3667 L 286.035,-61.7972 L 285.848,-62.219 L 285.641,-62.6311 L 285.414,-63.0325
 L 285.167,-63.4223 L 284.901,-63.7996 L 284.617,-64.1633 L 284.316,-64.5126 L 283.998,-64.8468 L 283.664,-65.1649
 L 283.314,-65.4663 L 282.951,-65.7501 L 282.573,-66.0158 L 282.184,-66.2626 L 281.782,-66.49 L 281.37,-66.6975
 L 280.948,-66.8844 L 280.518,-67.0505 L 280.08,-67.1952 L 279.635,-67.3183 L 279.185,-67.4194 L 278.73,-67.4982
 L 278.272,-67.5547 L 277.812,-67.5887 L 277.351,-67.6 L 227.963,-67.6 L 227.502,-67.5887 L 227.042,-67.5547
 L 226.584,-67.4982 L 226.129,-67.4194 L 225.679,-67.3183 L 225.235,-67.1952 L 224.796,-67.0505 L 224.366,-66.8844
 L 223.944,-66.6975 L 223.532,-66.49 L 223.131,-66.2626 L 222.741,-66.0158 L 222.364,-65.7501 L 222,-65.4663
 L 221.651,-65.1649 L 221.316,-64.8468 L 220.998,-64.5126 L 220.697,-64.1633 L 220.413,-63.7996 L 220.147,-63.4223
 L 219.901,-63.0325 L 219.673,-62.6311 L 219.466,-62.219 L 219.279,-61.7972 L 219.113,-61.3667 L 218.968,-60.9287
 L 218.845,-60.484 L 218.744,-60.0338 L 218.665,-59.5793 L 218.609,-59.1213 L 218.575,-58.6612 L 218.563,-58.2
 L 219.763,-57 L 221.363,-57 L 221.363,-55.4 L 222.563,-54.2 L 222.563,-58.2 L 222.57,-58.465
 L 222.589,-58.7293 L 222.622,-58.9923 L 222.667,-59.2535 L 222.725,-59.5121 L 222.796,-59.7675 L 222.879,-60.0192
 L 222.974,-60.2665 L 223.082,-60.5088 L 223.201,-60.7455 L 223.332,-60.9761 L 223.473,-61.2001 L 223.626,-61.4168
 L 223.789,-61.6257 L 223.962,-61.8264 L 224.145,-62.0184 L 224.337,-62.2011 L 224.538,-62.3742 L 224.746,-62.5373
 L 224.963,-62.6899 L 225.187,-62.8317 L 225.418,-62.9624 L 225.654,-63.0815 L 225.897,-63.1889 L 226.144,-63.2843
 L 226.396,-63.3675 L 226.651,-63.4382 L 226.91,-63.4962 L 227.171,-63.5415 L 227.434,-63.574 L 227.651,-63.59
 L 226.488,-63.59 L 226.488,-65.6 L 230.638,-65.6 L 230.638,-63.6 L 274.676,-63.6 L 274.676,-65.6
 L 278.826,-65.6 L 278.826,-63.59 L 277.663,-63.59 L 277.88,-63.574 L 278.143,-63.5415 L 278.404,-63.4962
 L 278.663,-63.4382 L 278.919,-63.3675 L 279.17,-63.2843 L 279.417,-63.1889 L 279.66,-63.0815 L 279.897,-62.9624
 L 280.127,-62.8317 L 280.351,-62.6899 L 280.568,-62.5373 L 280.777,-62.3742 L 280.977,-62.2011 L 281.169,-62.0184
 L 281.352,-61.8264 L 281.525,-61.6257 L 281.688,-61.4168 L 281.841,-61.2001 L 281.983,-60.9761 L 282.113,-60.7455
 L 282.233,-60.5088 L 282.34,-60.2665 L 282.435,-60.0192 L 282.518,-59.7675 L 282.589,-59.5121 L 282.647,-59.2535
 L 282.693,-58.9923 L 282.725,-58.7293 L 282.744,-58.465 L 282.751,-58.2 L 283.951,-57 L 285.551,-57
 L 285.551,-55.4 L 286.751,-54.2 z
M 286.751,-41.8 L 286.74,-42.2612 L 286.706,-42.7213 L 286.649,-43.1792 L 286.57,-43.6338 L 286.469,-44.084
 L 286.346,-44.5287 L 286.202,-44.9667 L 286.035,-45.3972 L 285.848,-45.819 L 285.641,-46.2311 L 285.414,-46.6325
 L 285.167,-47.0223 L 284.901,-47.3996 L 284.617,-47.7633 L 284.316,-48.1126 L 283.998,-48.4468 L 283.664,-48.7649
 L 283.314,-49.0663 L 282.951,-49.3501 L 282.573,-49.6158 L 282.184,-49.8626 L 281.782,-50.09 L 281.37,-50.2975
 L 280.948,-50.4844 L 280.518,-50.6505 L 280.08,-50.7952 L 279.635,-50.9183 L 279.185,-51.0193 L 278.73,-51.0982
 L 278.272,-51.1547 L 277.812,-51.1886 L 277.351,-51.2 L 227.963,-51.2 L 227.502,-51.1886 L 227.042,-51.1547
 L 226.584,-51.0982 L 226.129,-51.0193 L 225.679,-50.9183 L 225.235,-50.7952 L 224.796,-50.6505 L 224.366,-50.4844
 L 223.944,-50.2975 L 223.532,-50.09 L 223.131,-49.8626 L 222.741,-49.6158 L 222.364,-49.3501 L 222,-49.0663
 L 221.651,-48.7649 L 221.316,-48.4468 L 220.998,-48.1126 L 220.697,-47.7633 L 220.413,-47.3996 L 220.147,-47.0223
 L 219.901,-46.6325 L 219.673,-46.2311 L 219.466,-45.819 L 219.279,-45.3972 L 219.113,-44.9667 L 218.968,-44.5287
 L 218.845,-44.084 L 218.744,-43.6338 L 218.665,-43.1792 L 218.609,-42.7213 L 218.575,-42.2612 L 218.563,-41.8
 L 219.763,-40.6 L 221.363,-40.6 L 221.363,-39 L 222.563,-37.8 L 222.563,-41.8 L 222.57,-42.0649
 L 222.589,-42.3293 L 222.622,-42.5923 L 222.667,-42.8535 L 222.725,-43.1121 L 222.796,-43.3675 L 222.879,-43.6192
 L 222.974,-43.8665 L 223.082,-44.1088 L 223.201,-44.3455 L 223.332,-44.5761 L 223.473,-44.8 L 223.626,-45.0168
 L 223.789,-45.2257 L 223.962,-45.4264 L 224.145,-45.6183 L 224.337,-45.8011 L 224.538,-45.9742 L 224.746,-46.1373
 L 224.963,-46.2899 L 225.187,-46.4317 L 225.418,-46.5623 L 225.654,-46.6815 L 225.897,-46.7889 L 226.144,-46.8843
 L 226.396,-46.9675 L 226.651,-47.0381 L 226.91,-47.0962 L 227.171,-47.1415 L 227.434,-47.174 L 227.651,-47.19
 L 226.488,-47.19 L 226.488,-49.2 L 230.638,-49.2 L 230.638,-47.2 L 274.676,-47.2 L 274.676,-49.2
 L 278.826,-49.2 L 278.826,-47.19 L 277.663,-47.19 L 277.88,-47.174 L 278.143,-47.1415 L 278.404,-47.0962
 L 278.663,-47.0381 L 278.919,-46.9675 L 279.17,-46.8843 L 279.417,-46.7889 L 279.66,-46.6815 L 279.897,-46.5623
 L 280.127,-46.4317 L 280.351,-46.2899 L 280.568,-46.1373 L 280.777,-45.9742 L 280.977,-45.8011 L 281.169,-45.6183
 L 281.352,-45.4264 L 281.525,-45.2257 L 281.688,-45.0168 L 281.841,-44.8 L 281.983,-44.5761 L 282.113,-44.3455
 L 282.233,-44.1088 L 282.34,-43.8665 L 282.435,-43.6192 L 282.518,-43.3675 L 282.589,-43.1121 L 282.647,-42.8535
 L 282.693,-42.5923 L 282.725,-42.3293 L 282.744,-42.0649 L 282.751,-41.8 L 283.951,-40.6 L 285.551,-40.6
 L 285.551,-39 L 286.751,-37.8 z
M 286.751,-25.4 L 286.74,-25.8612 L 286.706,-26.3213 L 286.649,-26.7793 L 286.57,-27.2338 L 286.469,-27.684
 L 286.346,-28.1287 L 286.202,-28.5667 L 286.035,-28.9972 L 285.848,-29.419 L 285.641,-29.8311 L 285.414,-30.2325
 L 285.167,-30.6223 L 284.901,-30.9996 L 284.617,-31.3633 L 284.316,-31.7126 L 283.998,-32.0468 L 283.664,-32.3649
 L 283.314,-32.6663 L 282.951,-32.9501 L 282.573,-33.2158 L 282.184,-33.4626 L 281.782,-33.69 L 281.37,-33.8975
 L 280.948,-34.0844 L 280.518,-34.2505 L 280.08,-34.3952 L 279.635,-34.5183 L 279.185,-34.6194 L 278.73,-34.6982
 L 278.272,-34.7547 L 277.812,-34.7887 L 277.351,-34.8 L 227.963,-34.8 L 227.502,-34.7887 L 227.042,-34.7547
 L 226.584,-34.6982 L 226.129,-34.6194 L 225.679,-34.5183 L 225.235,-34.3952 L 224.796,-34.2505 L 224.366,-34.0844
 L 223.944,-33.8975 L 223.532,-33.69 L 223.131,-33.4626 L 222.741,-33.2158 L 222.364,-32.9501 L 222,-32.6663
 L 221.651,-32.3649 L 221.316,-32.0468 L 220.998,-31.7126 L 220.697,-31.3633 L 220.413,-30.9996 L 220.147,-30.6223
 L 219.901,-30.2325 L 219.673,-29.8311 L 219.466,-29.419 L 219.279,-28.9972 L 219.113,-28.5667 L 218.968,-28.1287
 L 218.845,-27.684 L 218.744,-27.2338 L 218.665,-26.7793 L 218.609,-26.3213 L 218.575,-25.8612 L 218.563,-25.4
 L 219.763,-24.2 L 221.363,-24.2 L 221.363,-22.6 L 222.563,-21.4 L 222.563,-25.4 L 222.57,-25.6649
 L 222.589,-25.9293 L 222.622,-26.1923 L 222.667,-26.4535 L 222.725,-26.7121 L 222.796,-26.9675 L 222.879,-27.2192
 L 222.974,-27.4665 L 223.082,-27.7088 L 223.201,-27.9455 L 223.332,-28.1761 L 223.473,-28.4001 L 223.626,-28.6168
 L 223.789,-28.8257 L 223.962,-29.0264 L 224.145,-29.2184 L 224.337,-29.4011 L 224.538,-29.5742 L 224.746,-29.7373
 L 224.963,-29.8899 L 225.187,-30.0317 L 225.418,-30.1624 L 225.654,-30.2815 L 225.897,-30.3889 L 226.144,-30.4843
 L 226.396,-30.5675 L 226.651,-30.6382 L 226.91,-30.6962 L 227.171,-30.7415 L 227.434,-30.774 L 227.651,-30.79
 L 226.488,-30.79 L 226.488,-32.8 L 230.638,-32.8 L 230.638,-30.8 L 274.676,-30.8 L 274.676,-32.8
 L 278.826,-32.8 L 278.826,-30.79 L 277.663,-30.79 L 277.88,-30.774 L 278.143,-30.7415 L 278.404,-30.6962
 L 278.663,-30.6382 L 278.919,-30.5675 L 279.17,-30.4843 L 279.417,-30.3889 L 279.66,-30.2815 L 279.897,-30.1624
 L 280.127,-30.0317 L 280.351,-29.8899 L 280.568,-29.7373 L 280.777,-29.5742 L 280.977,-29.4011 L 281.169,-29.2184
 L 281.352,-29.0264 L 281.525,-28.8257 L 281.688,-28.6168 L 281.841,-28.4001 L 281.983,-28.1761 L 282.113,-27.9455
 L 282.233,-27.7088 L 282.34,-27.4665 L 282.435,-27.2192 L 282.518,-26.9675 L 282.589,-26.7121 L 282.647,-26.4535
 L 282.693,-26.1923 L 282.725,-25.9293 L 282.744,-25.6649 L 282.751,-25.4 L 283.951,-24.2 L 285.551,-24.2
 L 285.551,-22.6 L 286.751,-21.4 z
M 286.751,-9 L 286.74,-9.46123 L 286.706,-9.92134 L 286.649,-10.3793 L 286.57,-10.8338 L 286.469,-11.284
 L 286.346,-11.7287 L 286.202,-12.1667 L 286.035,-12.5972 L 285.848,-13.019 L 285.641,-13.4311 L 285.414,-13.8326
 L 285.167,-14.2224 L 284.901,-14.5996 L 284.617,-14.9633 L 284.316,-15.3126 L 283.998,-15.6468 L 283.664,-15.9649
 L 283.314,-16.2663 L 282.951,-16.5501 L 282.573,-16.8158 L 282.184,-17.0626 L 281.782,-17.29 L 281.37,-17.4975
 L 280.948,-17.6844 L 280.518,-17.8505 L 280.08,-17.9952 L 279.635,-18.1183 L 279.185,-18.2194 L 278.73,-18.2982
 L 278.272,-18.3547 L 277.812,-18.3887 L 277.351,-18.4 L 227.963,-18.4 L 227.502,-18.3887 L 227.042,-18.3547
 L 226.584,-18.2982 L 226.129,-18.2194 L 225.679,-18.1183 L 225.235,-17.9952 L 224.796,-17.8505 L 224.366,-17.6844
 L 223.944,-17.4975 L 223.532,-17.29 L 223.131,-17.0626 L 222.741,-16.8158 L 222.364,-16.5501 L 222,-16.2663
 L 221.651,-15.9649 L 221.316,-15.6468 L 220.998,-15.3126 L 220.697,-14.9633 L 220.413,-14.5996 L 220.147,-14.2224
 L 219.901,-13.8326 L 219.673,-13.4311 L 219.466,-13.019 L 219.279,-12.5972 L 219.113,-12.1667 L 218.968,-11.7287
 L 218.845,-11.284 L 218.744,-10.8338 L 218.665,-10.3793 L 218.609,-9.92134 L 218.575,-9.46123 L 218.563,-8.99998
 L 219.763,-7.8 L 221.363,-7.8 L 221.363,-6.20001 L 222.563,-5 L 222.563,-9 L 222.57,-9.26495
 L 222.589,-9.52928 L 222.622,-9.79233 L 222.667,-10.0535 L 222.725,-10.3121 L 222.796,-10.5675 L 222.879,-10.8192
 L 222.974,-11.0665 L 223.082,-11.3088 L 223.201,-11.5455 L 223.332,-11.7761 L 223.473,-12.0001 L 223.626,-12.2168
 L 223.789,-12.4257 L 223.962,-12.6264 L 224.145,-12.8184 L 224.337,-13.0011 L 224.538,-13.1742 L 224.746,-13.3373
 L 224.963,-13.4899 L 225.187,-13.6317 L 225.418,-13.7624 L 225.654,-13.8815 L 225.897,-13.9889 L 226.144,-14.0843
 L 226.396,-14.1675 L 226.651,-14.2382 L 226.91,-14.2962 L 227.171,-14.3415 L 227.434,-14.374 L 227.651,-14.39
 L 226.488,-14.39 L 226.488,-16.4 L 230.638,-16.4 L 230.638,-14.4 L 274.676,-14.4 L 274.676,-16.4
 L 278.826,-16.4 L 278.826,-14.39 L 277.663,-14.39 L 277.88,-14.374 L 278.143,-14.3415 L 278.404,-14.2962
 L 278.663,-14.2382 L 278.919,-14.1675 L 279.17,-14.0843 L 279.417,-13.9889 L 279.66,-13.8815 L 279.897,-13.7624
 L 280.127,-13.6317 L 280.351,-13.4899 L 280.568,-13.3373 L 280.777,-13.1742 L 280.977,-13.0011 L 281.169,-12.8184
 L 281.352,-12.6264 L 281.525,-12.4257 L 281.688,-12.2168 L 281.841,-12.0001 L 281.983,-11.7761 L 282.113,-11.5455
 L 282.233,-11.3088 L 282.34,-11.0665 L 282.435,-10.8192 L 282.518,-10.5675 L 282.589,-10.3121 L 282.647,-10.0535
 L 282.693,-9.79233 L 282.725,-9.52928 L 282.744,-9.26495 L 282.751,-8.99998 L 283.951,-7.8 L 285.551,-7.8
 L 285.551,-6.20001 L 286.751,-5 z
" stroke="black" fill="lightgray" stroke-width="0.5"/>
</svg>
