<?xml version="1.0" standalone="no"?>
<!DOCTYPE svg PUBLIC "-//W3C//DTD SVG 1.1//EN" "http://www.w3.org/Graphics/SVG/1.1/DTD/svg11.dtd">
<svg width="29mm" height="4mm" viewBox="74 -53 29 4" xmlns="http://www.w3.org/2000/svg" version="1.1">
<title>OpenSCAD Model</title>
<path d="
M 88.8552,-49.0968 L 88.9286,-49.1022 L 89.0017,-49.1112 L 89.0743,-49.1238 L 89.1461,-49.14 L 89.2171,-49.1596
 L 89.287,-49.1827 L 89.3557,-49.2092 L 89.423,-49.239 L 89.4887,-49.2721 L 89.5528,-49.3084 L 89.615,-49.3478
 L 89.6752,-49.3902 L 89.7332,-49.4355 L 89.789,-49.4836 L 89.8423,-49.5343 L 89.8931,-49.5877 L 89.9411,-49.6434
 L 89.9864,-49.7014 L 90.0288,-49.7616 L 90.0682,-49.8238 L 90.1045,-49.8879 L 90.1376,-49.9537 L 90.1559,-49.995
 L 102.858,-49.995 L 102.858,-51.195 L 90.1559,-51.195 L 90.1376,-51.2363 L 90.1045,-51.3021 L 90.0682,-51.3661
 L 90.0288,-51.4283 L 89.9864,-51.4885 L 89.9411,-51.5466 L 89.8931,-51.6023 L 89.8423,-51.6556 L 89.789,-51.7064
 L 89.7332,-51.7545 L 89.6752,-51.7998 L 89.615,-51.8422 L 89.5528,-51.8816 L 89.4887,-51.9179 L 89.423,-51.951
 L 89.3557,-51.9808 L 89.287,-52.0073 L 89.2171,-52.0304 L 89.1461,-52.05 L 89.0743,-52.0662 L 89.0017,-52.0788
 L 88.9286,-52.0878 L 88.8552,-52.0932 L 88.7816,-52.095 L 88.708,-52.0932 L 88.6346,-52.0878 L 88.5615,-52.0788
 L 88.489,-52.0662 L 88.4172,-52.05 L 88.3462,-52.0304 L 88.2763,-52.0073 L 88.2076,-51.9808 L 88.1403,-51.951
 L 88.0745,-51.9179 L 88.0105,-51.8816 L 87.9483,-51.8422 L 87.8881,-51.7998 L 87.83,-51.7545 L 87.7743,-51.7064
 L 87.721,-51.6556 L 87.6702,-51.6023 L 87.6221,-51.5466 L 87.5768,-51.4885 L 87.5344,-51.4283 L 87.495,-51.3661
 L 87.4588,-51.3021 L 87.4257,-51.2363 L 87.4073,-51.195 L 74.705,-51.195 L 74.705,-49.995 L 87.4073,-49.995
 L 87.4257,-49.9537 L 87.4588,-49.8879 L 87.495,-49.8238 L 87.5344,-49.7616 L 87.5768,-49.7014 L 87.6221,-49.6434
 L 87.6702,-49.5877 L 87.721,-49.5343 L 87.7743,-49.4836 L 87.83,-49.4355 L 87.8881,-49.3902 L 87.9483,-49.3478
 L 88.0105,-49.3084 L 88.0745,-49.2721 L 88.1403,-49.239 L 88.2076,-49.2092 L 88.2763,-49.1827 L 88.3462,-49.1596
 L 88.4172,-49.14 L 88.489,-49.1238 L 88.5615,-49.1112 L 88.6346,-49.1022 L 88.708,-49.0968 L 88.7816,-49.095
 z
" stroke="black" fill="lightgray" stroke-width="0.5"/>
</svg>
