<?xml version="1.0" standalone="no"?>
<!DOCTYPE svg PUBLIC "-//W3C//DTD SVG 1.1//EN" "http://www.w3.org/Graphics/SVG/1.1/DTD/svg11.dtd">
<svg width="32mm" height="75mm" viewBox="24 -189 32 75" xmlns="http://www.w3.org/2000/svg" version="1.1">
<title>OpenSCAD Model</title>
<path d="
M 48.4572,-181.977 L 48.5062,-181.981 L 48.5549,-181.987 L 48.6032,-181.995 L 48.6511,-182.006 L 48.6984,-182.019
 L 48.745,-182.034 L 48.7908,-182.052 L 48.8357,-182.072 L 48.8795,-182.094 L 48.9222,-182.118 L 48.9637,-182.145
 L 49.0038,-182.173 L 49.0425,-182.203 L 49.0797,-182.235 L 49.1152,-182.269 L 49.1491,-182.304 L 49.1812,-182.342
 L 49.2113,-182.38 L 49.2396,-182.42 L 49.2659,-182.462 L 49.2901,-182.505 L 49.3121,-182.548 L 49.332,-182.593
 L 49.3497,-182.639 L 49.3651,-182.686 L 49.3782,-182.733 L 49.3889,-182.781 L 49.3973,-182.829 L 49.4033,-182.878
 L 49.4069,-182.927 L 49.4081,-182.976 L 49.4081,-187.584 L 49.4069,-187.633 L 49.4033,-187.682 L 49.3973,-187.731
 L 49.3889,-187.779 L 49.3782,-187.827 L 49.3651,-187.874 L 49.3497,-187.921 L 49.332,-187.967 L 49.3121,-188.012
 L 49.2901,-188.055 L 49.2659,-188.098 L 49.2396,-188.14 L 49.2113,-188.18 L 49.1812,-188.218 L 49.1491,-188.256
 L 49.1152,-188.291 L 49.0797,-188.325 L 49.0425,-188.357 L 49.0038,-188.387 L 48.9637,-188.415 L 48.9222,-188.442
 L 48.8795,-188.466 L 48.8357,-188.488 L 48.7908,-188.508 L 48.745,-188.526 L 48.6984,-188.541 L 48.6511,-188.554
 L 48.6032,-188.565 L 48.5549,-188.573 L 48.5062,-188.579 L 48.4572,-188.583 L 48.4081,-188.584 L 30.9796,-188.584
 L 30.9305,-188.583 L 30.8816,-188.579 L 30.8329,-188.573 L 30.7845,-188.565 L 30.7366,-188.554 L 30.6893,-188.541
 L 30.6427,-188.526 L 30.5969,-188.508 L 30.552,-188.488 L 30.5082,-188.466 L 30.4655,-188.442 L 30.424,-188.415
 L 30.3839,-188.387 L 30.3452,-188.357 L 30.308,-188.325 L 30.2725,-188.291 L 30.2386,-188.256 L 30.2066,-188.218
 L 30.1764,-188.18 L 30.1481,-188.14 L 30.1219,-188.098 L 30.0977,-188.055 L 30.0756,-188.012 L 30.0557,-187.967
 L 30.038,-187.921 L 30.0226,-187.874 L 30.0096,-187.827 L 29.9988,-187.779 L 29.9904,-187.731 L 29.9844,-187.682
 L 29.9808,-187.633 L 29.9796,-187.584 L 29.9796,-182.976 L 29.9808,-182.927 L 29.9844,-182.878 L 29.9904,-182.829
 L 29.9988,-182.781 L 30.0096,-182.733 L 30.0226,-182.686 L 30.038,-182.639 L 30.0557,-182.593 L 30.0756,-182.548
 L 30.0977,-182.505 L 30.1219,-182.462 L 30.1481,-182.42 L 30.1764,-182.38 L 30.2066,-182.342 L 30.2386,-182.304
 L 30.2725,-182.269 L 30.308,-182.235 L 30.3452,-182.203 L 30.3839,-182.173 L 30.424,-182.145 L 30.4655,-182.118
 L 30.5082,-182.094 L 30.552,-182.072 L 30.5969,-182.052 L 30.6427,-182.034 L 30.6893,-182.019 L 30.7366,-182.006
 L 30.7845,-181.995 L 30.8329,-181.987 L 30.8816,-181.981 L 30.9305,-181.977 L 30.9796,-181.976 L 48.4081,-181.976
 z
M 30.9796,-182.326 L 30.9477,-182.327 L 30.9159,-182.329 L 30.8842,-182.333 L 30.8528,-182.338 L 30.8216,-182.345
 L 30.7909,-182.354 L 30.7606,-182.364 L 30.7308,-182.375 L 30.7017,-182.388 L 30.6732,-182.403 L 30.6454,-182.418
 L 30.6185,-182.436 L 30.5924,-182.454 L 30.5672,-182.474 L 30.5431,-182.494 L 30.52,-182.516 L 30.498,-182.539
 L 30.4771,-182.564 L 30.4575,-182.589 L 30.4391,-182.615 L 30.4221,-182.642 L 30.4063,-182.67 L 30.392,-182.698
 L 30.3791,-182.727 L 30.3676,-182.757 L 30.3576,-182.787 L 30.3491,-182.818 L 30.3421,-182.849 L 30.3366,-182.881
 L 30.3327,-182.912 L 30.3304,-182.944 L 30.3296,-182.976 L 30.3296,-187.584 L 30.3304,-187.616 L 30.3327,-187.648
 L 30.3366,-187.679 L 30.3421,-187.711 L 30.3491,-187.742 L 30.3576,-187.773 L 30.3676,-187.803 L 30.3791,-187.833
 L 30.392,-187.862 L 30.4063,-187.89 L 30.4221,-187.918 L 30.4391,-187.945 L 30.4575,-187.971 L 30.4771,-187.996
 L 30.498,-188.02 L 30.52,-188.044 L 30.5431,-188.066 L 30.5672,-188.086 L 30.5924,-188.106 L 30.6185,-188.124
 L 30.6454,-188.141 L 30.6732,-188.157 L 30.7017,-188.172 L 30.7308,-188.184 L 30.7606,-188.196 L 30.7909,-188.206
 L 30.8216,-188.214 L 30.8528,-188.221 L 30.8842,-188.227 L 30.9159,-188.231 L 30.9477,-188.233 L 30.9796,-188.234
 L 48.4081,-188.234 L 48.44,-188.233 L 48.4718,-188.231 L 48.5035,-188.227 L 48.535,-188.221 L 48.5661,-188.214
 L 48.5968,-188.206 L 48.6271,-188.196 L 48.6569,-188.184 L 48.6861,-188.172 L 48.7146,-188.157 L 48.7423,-188.141
 L 48.7693,-188.124 L 48.7953,-188.106 L 48.8205,-188.086 L 48.8447,-188.066 L 48.8678,-188.044 L 48.8898,-188.02
 L 48.9106,-187.996 L 48.9302,-187.971 L 48.9486,-187.945 L 48.9657,-187.918 L 48.9814,-187.89 L 48.9957,-187.862
 L 49.0087,-187.833 L 49.0201,-187.803 L 49.0302,-187.773 L 49.0387,-187.742 L 49.0457,-187.711 L 49.0511,-187.679
 L 49.055,-187.648 L 49.0574,-187.616 L 49.0581,-187.584 L 49.0581,-182.976 L 49.0574,-182.944 L 49.055,-182.912
 L 49.0511,-182.881 L 49.0457,-182.849 L 49.0387,-182.818 L 49.0302,-182.787 L 49.0201,-182.757 L 49.0087,-182.727
 L 48.9957,-182.698 L 48.9814,-182.67 L 48.9657,-182.642 L 48.9486,-182.615 L 48.9302,-182.589 L 48.9106,-182.564
 L 48.8898,-182.539 L 48.8678,-182.516 L 48.8447,-182.494 L 48.8205,-182.474 L 48.7953,-182.454 L 48.7693,-182.436
 L 48.7423,-182.418 L 48.7146,-182.403 L 48.6861,-182.388 L 48.6569,-182.375 L 48.6271,-182.364 L 48.5968,-182.354
 L 48.5661,-182.345 L 48.535,-182.338 L 48.5035,-182.333 L 48.4718,-182.329 L 48.44,-182.327 L 48.4081,-182.326
 z
M 39.7577,-175.486 L 39.8213,-175.49 L 39.8846,-175.498 L 39.9475,-175.509 L 40.0098,-175.523 L 40.0712,-175.54
 L 40.1318,-175.56 L 40.1914,-175.583 L 40.2497,-175.609 L 40.3067,-175.637 L 40.3622,-175.669 L 40.4161,-175.703
 L 40.4683,-175.74 L 40.5186,-175.779 L 40.5669,-175.821 L 40.6131,-175.865 L 40.6571,-175.911 L 40.6988,-175.959
 L 40.738,-176.01 L 40.7748,-176.062 L 40.8089,-176.116 L 40.8404,-176.171 L 40.869,-176.228 L 40.8949,-176.286
 L 40.9179,-176.346 L 40.9379,-176.407 L 40.9549,-176.468 L 40.9689,-176.53 L 40.9798,-176.593 L 40.9876,-176.657
 L 40.9923,-176.72 L 40.9939,-176.784 L 40.9923,-176.848 L 40.9876,-176.911 L 40.9798,-176.975 L 40.9689,-177.038
 L 40.9549,-177.1 L 40.9379,-177.161 L 40.9179,-177.222 L 40.8949,-177.281 L 40.869,-177.34 L 40.8404,-177.397
 L 40.8089,-177.452 L 40.7748,-177.506 L 40.738,-177.558 L 40.6988,-177.609 L 40.6571,-177.657 L 40.6131,-177.703
 L 40.5669,-177.747 L 40.5186,-177.789 L 40.4683,-177.828 L 40.4161,-177.865 L 40.3622,-177.899 L 40.3067,-177.93
 L 40.2497,-177.959 L 40.1914,-177.985 L 40.1318,-178.008 L 40.0712,-178.028 L 40.0098,-178.045 L 39.9475,-178.059
 L 39.8846,-178.07 L 39.8213,-178.078 L 39.7577,-178.082 L 39.6939,-178.084 L 39.6301,-178.082 L 39.5665,-178.078
 L 39.5031,-178.07 L 39.4402,-178.059 L 39.378,-178.045 L 39.3165,-178.028 L 39.2559,-178.008 L 39.1964,-177.985
 L 39.138,-177.959 L 39.0811,-177.93 L 39.0255,-177.899 L 38.9716,-177.865 L 38.9195,-177.828 L 38.8692,-177.789
 L 38.8208,-177.747 L 38.7746,-177.703 L 38.7306,-177.657 L 38.6889,-177.609 L 38.6497,-177.558 L 38.613,-177.506
 L 38.5788,-177.452 L 38.5474,-177.397 L 38.5187,-177.34 L 38.4928,-177.281 L 38.4699,-177.222 L 38.4498,-177.161
 L 38.4328,-177.1 L 38.4189,-177.038 L 38.4079,-176.975 L 38.4001,-176.911 L 38.3954,-176.848 L 38.3939,-176.784
 L 38.3954,-176.72 L 38.4001,-176.657 L 38.4079,-176.593 L 38.4189,-176.53 L 38.4328,-176.468 L 38.4498,-176.407
 L 38.4699,-176.346 L 38.4928,-176.286 L 38.5187,-176.228 L 38.5474,-176.171 L 38.5788,-176.116 L 38.613,-176.062
 L 38.6497,-176.01 L 38.6889,-175.959 L 38.7306,-175.911 L 38.7746,-175.865 L 38.8208,-175.821 L 38.8692,-175.779
 L 38.9195,-175.74 L 38.9716,-175.703 L 39.0255,-175.669 L 39.0811,-175.637 L 39.138,-175.609 L 39.1964,-175.583
 L 39.2559,-175.56 L 39.3165,-175.54 L 39.378,-175.523 L 39.4402,-175.509 L 39.5031,-175.498 L 39.5665,-175.49
 L 39.6301,-175.486 L 39.6939,-175.484 z
M 33.498,-175.785 L 33.547,-175.789 L 33.5957,-175.795 L 33.6441,-175.803 L 33.692,-175.814 L 33.7393,-175.827
 L 33.7859,-175.842 L 33.8316,-175.86 L 33.8765,-175.88 L 33.9204,-175.902 L 33.9631,-175.926 L 34.0045,-175.953
 L 34.0447,-175.981 L 34.0834,-176.011 L 34.1205,-176.043 L 34.1561,-176.077 L 34.1899,-176.112 L 34.222,-176.15
 L 34.2522,-176.188 L 34.2804,-176.228 L 34.3067,-176.27 L 34.3309,-176.313 L 34.353,-176.356 L 34.3728,-176.401
 L 34.3905,-176.447 L 34.4059,-176.494 L 34.419,-176.541 L 34.4298,-176.589 L 34.4381,-176.637 L 34.4442,-176.686
 L 34.4478,-176.735 L 34.449,-176.784 L 34.4478,-176.833 L 34.4442,-176.882 L 34.4381,-176.931 L 34.4298,-176.979
 L 34.419,-177.027 L 34.4059,-177.074 L 34.3905,-177.121 L 34.3728,-177.167 L 34.353,-177.212 L 34.3309,-177.255
 L 34.3067,-177.298 L 34.2804,-177.34 L 34.2522,-177.38 L 34.222,-177.418 L 34.1899,-177.456 L 34.1561,-177.491
 L 34.1205,-177.525 L 34.0834,-177.557 L 34.0447,-177.587 L 34.0045,-177.615 L 33.9631,-177.642 L 33.9204,-177.666
 L 33.8765,-177.688 L 33.8316,-177.708 L 33.7859,-177.726 L 33.7393,-177.741 L 33.692,-177.754 L 33.6441,-177.765
 L 33.5957,-177.773 L 33.547,-177.779 L 33.498,-177.783 L 33.449,-177.784 L 33.3999,-177.783 L 33.351,-177.779
 L 33.3022,-177.773 L 33.2539,-177.765 L 33.206,-177.754 L 33.1587,-177.741 L 33.1121,-177.726 L 33.0663,-177.708
 L 33.0214,-177.688 L 32.9776,-177.666 L 32.9349,-177.642 L 32.8934,-177.615 L 32.8533,-177.587 L 32.8146,-177.557
 L 32.7774,-177.525 L 32.7419,-177.491 L 32.708,-177.456 L 32.676,-177.418 L 32.6458,-177.38 L 32.6175,-177.34
 L 32.5912,-177.298 L 32.567,-177.255 L 32.545,-177.212 L 32.5251,-177.167 L 32.5074,-177.121 L 32.492,-177.074
 L 32.4789,-177.027 L 32.4682,-176.979 L 32.4598,-176.931 L 32.4538,-176.882 L 32.4502,-176.833 L 32.449,-176.784
 L 32.4502,-176.735 L 32.4538,-176.686 L 32.4598,-176.637 L 32.4682,-176.589 L 32.4789,-176.541 L 32.492,-176.494
 L 32.5074,-176.447 L 32.5251,-176.401 L 32.545,-176.356 L 32.567,-176.313 L 32.5912,-176.27 L 32.6175,-176.228
 L 32.6458,-176.188 L 32.676,-176.15 L 32.708,-176.112 L 32.7419,-176.077 L 32.7774,-176.043 L 32.8146,-176.011
 L 32.8533,-175.981 L 32.8934,-175.953 L 32.9349,-175.926 L 32.9776,-175.902 L 33.0214,-175.88 L 33.0663,-175.86
 L 33.1121,-175.842 L 33.1587,-175.827 L 33.206,-175.814 L 33.2539,-175.803 L 33.3022,-175.795 L 33.351,-175.789
 L 33.3999,-175.785 L 33.449,-175.784 z
M 45.9878,-175.785 L 46.0368,-175.789 L 46.0855,-175.795 L 46.1339,-175.803 L 46.1817,-175.814 L 46.229,-175.827
 L 46.2757,-175.842 L 46.3215,-175.86 L 46.3663,-175.88 L 46.4102,-175.902 L 46.4529,-175.926 L 46.4943,-175.953
 L 46.5345,-175.981 L 46.5732,-176.011 L 46.6103,-176.043 L 46.6459,-176.077 L 46.6797,-176.112 L 46.7118,-176.15
 L 46.742,-176.188 L 46.7702,-176.228 L 46.7965,-176.27 L 46.8207,-176.313 L 46.8428,-176.356 L 46.8626,-176.401
 L 46.8803,-176.447 L 46.8957,-176.494 L 46.9088,-176.541 L 46.9196,-176.589 L 46.9279,-176.637 L 46.934,-176.686
 L 46.9376,-176.735 L 46.9388,-176.784 L 46.9376,-176.833 L 46.934,-176.882 L 46.9279,-176.931 L 46.9196,-176.979
 L 46.9088,-177.027 L 46.8957,-177.074 L 46.8803,-177.121 L 46.8626,-177.167 L 46.8428,-177.212 L 46.8207,-177.255
 L 46.7965,-177.298 L 46.7702,-177.34 L 46.742,-177.38 L 46.7118,-177.418 L 46.6797,-177.456 L 46.6459,-177.491
 L 46.6103,-177.525 L 46.5732,-177.557 L 46.5345,-177.587 L 46.4943,-177.615 L 46.4529,-177.642 L 46.4102,-177.666
 L 46.3663,-177.688 L 46.3215,-177.708 L 46.2757,-177.726 L 46.229,-177.741 L 46.1817,-177.754 L 46.1339,-177.765
 L 46.0855,-177.773 L 46.0368,-177.779 L 45.9878,-177.783 L 45.9388,-177.784 L 45.8897,-177.783 L 45.8407,-177.779
 L 45.792,-177.773 L 45.7437,-177.765 L 45.6958,-177.754 L 45.6485,-177.741 L 45.6019,-177.726 L 45.5561,-177.708
 L 45.5112,-177.688 L 45.4674,-177.666 L 45.4247,-177.642 L 45.3832,-177.615 L 45.3431,-177.587 L 45.3044,-177.557
 L 45.2672,-177.525 L 45.2317,-177.491 L 45.1978,-177.456 L 45.1658,-177.418 L 45.1356,-177.38 L 45.1073,-177.34
 L 45.081,-177.298 L 45.0568,-177.255 L 45.0348,-177.212 L 45.0149,-177.167 L 44.9972,-177.121 L 44.9818,-177.074
 L 44.9687,-177.027 L 44.958,-176.979 L 44.9496,-176.931 L 44.9436,-176.882 L 44.94,-176.833 L 44.9388,-176.784
 L 44.94,-176.735 L 44.9436,-176.686 L 44.9496,-176.637 L 44.958,-176.589 L 44.9687,-176.541 L 44.9818,-176.494
 L 44.9972,-176.447 L 45.0149,-176.401 L 45.0348,-176.356 L 45.0568,-176.313 L 45.081,-176.27 L 45.1073,-176.228
 L 45.1356,-176.188 L 45.1658,-176.15 L 45.1978,-176.112 L 45.2317,-176.077 L 45.2672,-176.043 L 45.3044,-176.011
 L 45.3431,-175.981 L 45.3832,-175.953 L 45.4247,-175.926 L 45.4674,-175.902 L 45.5112,-175.88 L 45.5561,-175.86
 L 45.6019,-175.842 L 45.6485,-175.827 L 45.6958,-175.814 L 45.7437,-175.803 L 45.792,-175.795 L 45.8407,-175.789
 L 45.8897,-175.785 L 45.9388,-175.784 z
M 40.4579,-132.439 L 41.2201,-132.496 L 41.9787,-132.589 L 42.7317,-132.72 L 43.4774,-132.887 L 44.214,-133.091
 L 44.9397,-133.331 L 45.6528,-133.606 L 46.3515,-133.916 L 47.0342,-134.259 L 47.6992,-134.636 L 48.3449,-135.045
 L 48.9698,-135.485 L 49.5723,-135.955 L 50.151,-136.454 L 50.7045,-136.981 L 51.2315,-137.535 L 51.7307,-138.114
 L 52.201,-138.716 L 52.641,-139.341 L 53.0499,-139.987 L 53.4267,-140.652 L 53.7703,-141.334 L 54.08,-142.033
 L 54.3551,-142.746 L 54.5948,-143.472 L 54.7986,-144.208 L 54.9661,-144.954 L 55.0968,-145.707 L 55.1903,-146.466
 L 55.2465,-147.228 L 55.2653,-147.992 L 55.2465,-148.756 L 55.1903,-149.518 L 55.0968,-150.277 L 54.9661,-151.03
 L 54.7986,-151.776 L 54.5948,-152.512 L 54.3551,-153.238 L 54.08,-153.951 L 53.7703,-154.65 L 53.4267,-155.332
 L 53.0499,-155.997 L 52.641,-156.643 L 52.201,-157.268 L 51.7307,-157.87 L 51.2315,-158.449 L 50.7045,-159.003
 L 50.151,-159.53 L 49.5723,-160.029 L 48.9698,-160.499 L 48.3449,-160.939 L 47.6992,-161.348 L 47.0342,-161.725
 L 46.3515,-162.068 L 45.6528,-162.378 L 44.9397,-162.653 L 44.214,-162.893 L 43.4774,-163.097 L 42.7317,-163.264
 L 41.9787,-163.395 L 41.2201,-163.488 L 40.4579,-163.545 L 39.6939,-163.563 L 38.9298,-163.545 L 38.1676,-163.488
 L 37.4091,-163.395 L 36.656,-163.264 L 35.9103,-163.097 L 35.1737,-162.893 L 34.448,-162.653 L 33.7349,-162.378
 L 33.0362,-162.068 L 32.3535,-161.725 L 31.6886,-161.348 L 31.0428,-160.939 L 30.418,-160.499 L 29.8155,-160.029
 L 29.2367,-159.53 L 28.6832,-159.003 L 28.1562,-158.449 L 27.657,-157.87 L 27.1868,-157.268 L 26.7467,-156.643
 L 26.3378,-155.997 L 25.9611,-155.332 L 25.6175,-154.65 L 25.3077,-153.951 L 25.0327,-153.238 L 24.7929,-152.512
 L 24.5891,-151.776 L 24.4216,-151.03 L 24.291,-150.277 L 24.1974,-149.518 L 24.1412,-148.756 L 24.1224,-147.992
 L 24.1412,-147.228 L 24.1974,-146.466 L 24.291,-145.707 L 24.4216,-144.954 L 24.5891,-144.208 L 24.7929,-143.472
 L 25.0327,-142.746 L 25.3077,-142.033 L 25.6175,-141.334 L 25.9611,-140.652 L 26.3378,-139.987 L 26.7467,-139.341
 L 27.1868,-138.716 L 27.657,-138.114 L 28.1562,-137.535 L 28.6832,-136.981 L 29.2367,-136.454 L 29.8155,-135.955
 L 30.418,-135.485 L 31.0428,-135.045 L 31.6886,-134.636 L 32.3535,-134.259 L 33.0362,-133.916 L 33.7349,-133.606
 L 34.448,-133.331 L 35.1737,-133.091 L 35.9103,-132.887 L 36.656,-132.72 L 37.4091,-132.589 L 38.1676,-132.496
 L 38.9298,-132.439 L 39.6939,-132.421 z
M 38.947,-132.789 L 38.2019,-132.844 L 37.4604,-132.935 L 36.7243,-133.063 L 35.9954,-133.227 L 35.2753,-133.426
 L 34.5659,-133.66 L 33.8689,-133.929 L 33.1859,-134.232 L 32.5185,-134.568 L 31.8685,-134.936 L 31.2373,-135.336
 L 30.6265,-135.766 L 30.0375,-136.226 L 29.4718,-136.714 L 28.9307,-137.229 L 28.4155,-137.77 L 27.9276,-138.336
 L 27.4679,-138.925 L 27.0377,-139.535 L 26.638,-140.167 L 26.2698,-140.817 L 25.9339,-141.484 L 25.6311,-142.167
 L 25.3622,-142.864 L 25.1279,-143.573 L 24.9286,-144.293 L 24.7649,-145.022 L 24.6372,-145.759 L 24.5457,-146.5
 L 24.4908,-147.245 L 24.4724,-147.992 L 24.4908,-148.739 L 24.5457,-149.484 L 24.6372,-150.225 L 24.7649,-150.962
 L 24.9286,-151.69 L 25.1279,-152.411 L 25.3622,-153.12 L 25.6311,-153.817 L 25.9339,-154.5 L 26.2698,-155.167
 L 26.638,-155.817 L 27.0377,-156.449 L 27.4679,-157.059 L 27.9276,-157.648 L 28.4155,-158.214 L 28.9307,-158.755
 L 29.4718,-159.27 L 30.0375,-159.758 L 30.6265,-160.218 L 31.2373,-160.648 L 31.8685,-161.048 L 32.5185,-161.416
 L 33.1859,-161.752 L 33.8689,-162.055 L 34.5659,-162.324 L 35.2753,-162.558 L 35.9954,-162.757 L 36.7243,-162.921
 L 37.4604,-163.049 L 38.2019,-163.14 L 38.947,-163.195 L 39.6939,-163.213 L 40.4408,-163.195 L 41.1858,-163.14
 L 41.9273,-163.049 L 42.6634,-162.921 L 43.3924,-162.757 L 44.1124,-162.558 L 44.8218,-162.324 L 45.5189,-162.055
 L 46.2019,-161.752 L 46.8692,-161.416 L 47.5192,-161.048 L 48.1504,-160.648 L 48.7613,-160.218 L 49.3502,-159.758
 L 49.916,-159.27 L 50.457,-158.755 L 50.9722,-158.214 L 51.4602,-157.648 L 51.9198,-157.059 L 52.35,-156.449
 L 52.7497,-155.817 L 53.118,-155.167 L 53.4539,-154.5 L 53.7566,-153.817 L 54.0255,-153.12 L 54.2599,-152.411
 L 54.4591,-151.69 L 54.6228,-150.962 L 54.7505,-150.225 L 54.842,-149.484 L 54.897,-148.739 L 54.9153,-147.992
 L 54.897,-147.245 L 54.842,-146.5 L 54.7505,-145.759 L 54.6228,-145.022 L 54.4591,-144.293 L 54.2599,-143.573
 L 54.0255,-142.864 L 53.7566,-142.167 L 53.4539,-141.484 L 53.118,-140.817 L 52.7497,-140.167 L 52.35,-139.535
 L 51.9198,-138.925 L 51.4602,-138.336 L 50.9722,-137.77 L 50.457,-137.229 L 49.916,-136.714 L 49.3502,-136.226
 L 48.7613,-135.766 L 48.1504,-135.336 L 47.5192,-134.936 L 46.8692,-134.568 L 46.2019,-134.232 L 45.5189,-133.929
 L 44.8218,-133.66 L 44.1124,-133.426 L 43.3924,-133.227 L 42.6634,-133.063 L 41.9273,-132.935 L 41.1858,-132.844
 L 40.4408,-132.789 L 39.6939,-132.771 z
M 44.3082,-114.876 L 44.489,-114.9 L 44.6582,-114.942 L 44.8156,-115 L 44.9614,-115.075 L 45.0956,-115.166
 L 45.2181,-115.274 L 45.3289,-115.398 L 45.428,-115.539 L 45.5155,-115.697 L 45.5913,-115.871 L 45.6555,-116.062
 L 45.708,-116.269 L 45.7488,-116.493 L 45.778,-116.733 L 45.7954,-116.991 L 45.8013,-117.264 L 45.7999,-117.402
 L 45.7956,-117.535 L 45.7886,-117.664 L 45.7787,-117.789 L 45.7659,-117.91 L 45.7504,-118.026 L 45.732,-118.139
 L 45.7108,-118.247 L 45.6867,-118.351 L 45.6599,-118.451 L 45.6302,-118.547 L 45.5977,-118.639 L 45.5623,-118.726
 L 45.5241,-118.809 L 45.4831,-118.889 L 45.4393,-118.963 L 45.3926,-119.034 L 45.3429,-119.101 L 45.2901,-119.164
 L 45.2341,-119.222 L 45.1749,-119.277 L 45.1125,-119.328 L 45.0469,-119.374 L 44.9781,-119.417 L 44.9062,-119.455
 L 44.8311,-119.489 L 44.7528,-119.52 L 44.6714,-119.546 L 44.5867,-119.568 L 44.4989,-119.586 L 44.4079,-119.601
 L 44.3137,-119.611 L 44.2163,-119.617 L 44.1158,-119.619 L 44.0556,-119.618 L 43.9965,-119.616 L 43.9386,-119.613
 L 43.8819,-119.608 L 43.8263,-119.602 L 43.7719,-119.595 L 43.7187,-119.586 L 43.6666,-119.577 L 43.6156,-119.565
 L 43.5658,-119.553 L 43.5172,-119.539 L 43.4697,-119.524 L 43.4234,-119.507 L 43.3783,-119.489 L 43.3343,-119.47
 L 43.2914,-119.45 L 43.2497,-119.428 L 43.2091,-119.405 L 43.1694,-119.38 L 43.1307,-119.353 L 43.093,-119.325
 L 43.0562,-119.294 L 43.0203,-119.263 L 42.9854,-119.229 L 42.9514,-119.193 L 42.9184,-119.156 L 42.8864,-119.118
 L 42.8553,-119.077 L 42.8251,-119.035 L 42.7959,-118.991 L 42.7677,-118.945 L 42.7404,-118.897 L 42.714,-118.848
 L 42.6886,-118.797 L 42.6717,-118.797 L 42.6736,-118.841 L 42.6755,-118.884 L 42.6772,-118.926 L 42.6787,-118.967
 L 42.6802,-119.008 L 42.6815,-119.048 L 42.6828,-119.088 L 42.6839,-119.126 L 42.6849,-119.164 L 42.6858,-119.202
 L 42.6865,-119.239 L 42.6872,-119.275 L 42.6877,-119.31 L 42.6881,-119.345 L 42.6884,-119.379 L 42.6886,-119.412
 L 42.6886,-119.445 L 42.6886,-121.236 L 41.9264,-121.236 L 41.9264,-115.896 L 41.9263,-115.814 L 41.926,-115.735
 L 41.9256,-115.659 L 41.925,-115.587 L 41.9242,-115.517 L 41.9232,-115.452 L 41.9221,-115.39 L 41.9207,-115.331
 L 41.9193,-115.275 L 41.9176,-115.223 L 41.9157,-115.174 L 41.9137,-115.129 L 41.9115,-115.087 L 41.9091,-115.048
 L 41.9066,-115.013 L 41.9039,-114.981 L 41.901,-114.952 L 42.6379,-114.952 L 42.6389,-114.958 L 42.64,-114.965
 L 42.6411,-114.974 L 42.6423,-114.984 L 42.6436,-114.996 L 42.6449,-115.01 L 42.6462,-115.025 L 42.6477,-115.042
 L 42.6492,-115.06 L 42.6507,-115.08 L 42.6523,-115.102 L 42.654,-115.125 L 42.6557,-115.149 L 42.6575,-115.175
 L 42.6613,-115.232 L 42.6632,-115.263 L 42.6652,-115.294 L 42.667,-115.325 L 42.6687,-115.354 L 42.6703,-115.382
 L 42.6717,-115.41 L 42.6731,-115.436 L 42.6743,-115.461 L 42.6754,-115.486 L 42.6764,-115.509 L 42.6773,-115.532
 L 42.6781,-115.554 L 42.6787,-115.574 L 42.6793,-115.594 L 42.6797,-115.613 L 42.68,-115.631 L 42.6801,-115.648
 L 42.6802,-115.663 L 42.6886,-115.663 L 42.7145,-115.615 L 42.7412,-115.568 L 42.7689,-115.523 L 42.7974,-115.479
 L 42.8269,-115.437 L 42.8572,-115.396 L 42.8884,-115.357 L 42.9205,-115.32 L 42.9535,-115.284 L 42.9874,-115.25
 L 43.0222,-115.217 L 43.0579,-115.187 L 43.0945,-115.157 L 43.132,-115.129 L 43.1703,-115.103 L 43.2096,-115.079
 L 43.2497,-115.056 L 43.291,-115.034 L 43.3334,-115.014 L 43.377,-114.995 L 43.4219,-114.977 L 43.468,-114.961
 L 43.5153,-114.946 L 43.5638,-114.932 L 43.6135,-114.92 L 43.6644,-114.909 L 43.7166,-114.899 L 43.77,-114.891
 L 43.8246,-114.884 L 43.8804,-114.878 L 43.9374,-114.873 L 43.9957,-114.87 L 44.0551,-114.868 L 44.1158,-114.867
 z
M 43.8375,-115.432 L 43.765,-115.436 L 43.695,-115.444 L 43.6275,-115.454 L 43.5625,-115.468 L 43.5,-115.484
 L 43.44,-115.503 L 43.3824,-115.526 L 43.3274,-115.551 L 43.2748,-115.579 L 43.2247,-115.61 L 43.1771,-115.645
 L 43.132,-115.682 L 43.0894,-115.722 L 43.0493,-115.765 L 43.0117,-115.811 L 42.9766,-115.86 L 42.9437,-115.913
 L 42.9128,-115.968 L 42.8839,-116.027 L 42.857,-116.089 L 42.8321,-116.154 L 42.8092,-116.223 L 42.7883,-116.294
 L 42.7693,-116.369 L 42.7524,-116.448 L 42.7375,-116.529 L 42.7245,-116.614 L 42.7135,-116.702 L 42.7046,-116.794
 L 42.6976,-116.889 L 42.6926,-116.986 L 42.6896,-117.088 L 42.6886,-117.192 L 42.6897,-117.303 L 42.6927,-117.41
 L 42.6978,-117.514 L 42.7049,-117.614 L 42.7141,-117.71 L 42.7253,-117.803 L 42.7385,-117.893 L 42.7538,-117.979
 L 42.7711,-118.061 L 42.7905,-118.139 L 42.8119,-118.214 L 42.8353,-118.286 L 42.8607,-118.354 L 42.8882,-118.418
 L 42.9178,-118.479 L 42.9493,-118.536 L 42.983,-118.59 L 43.0188,-118.64 L 43.057,-118.687 L 43.0977,-118.731
 L 43.1408,-118.773 L 43.1863,-118.811 L 43.2342,-118.846 L 43.2846,-118.878 L 43.3373,-118.907 L 43.3925,-118.933
 L 43.4501,-118.955 L 43.5101,-118.975 L 43.5726,-118.992 L 43.6374,-119.006 L 43.7047,-119.016 L 43.7744,-119.024
 L 43.8465,-119.029 L 43.921,-119.03 L 43.9872,-119.029 L 44.0511,-119.024 L 44.1129,-119.017 L 44.1725,-119.007
 L 44.2298,-118.994 L 44.285,-118.978 L 44.338,-118.96 L 44.3887,-118.938 L 44.4373,-118.914 L 44.4837,-118.886
 L 44.5279,-118.856 L 44.5699,-118.823 L 44.6096,-118.787 L 44.6472,-118.749 L 44.6826,-118.707 L 44.7158,-118.662
 L 44.7468,-118.615 L 44.7758,-118.564 L 44.803,-118.51 L 44.8285,-118.452 L 44.8523,-118.39 L 44.8743,-118.324
 L 44.8945,-118.254 L 44.9129,-118.181 L 44.9297,-118.104 L 44.9446,-118.023 L 44.9578,-117.938 L 44.9692,-117.849
 L 44.9789,-117.757 L 44.9868,-117.661 L 44.993,-117.561 L 44.9973,-117.457 L 45,-117.35 L 45.0009,-117.239
 L 45,-117.128 L 44.9973,-117.021 L 44.9929,-116.918 L 44.9867,-116.818 L 44.9787,-116.722 L 44.9689,-116.629
 L 44.9574,-116.541 L 44.9441,-116.456 L 44.9291,-116.374 L 44.9122,-116.297 L 44.8936,-116.223 L 44.8732,-116.152
 L 44.851,-116.086 L 44.8271,-116.023 L 44.8014,-115.964 L 44.7739,-115.908 L 44.7446,-115.856 L 44.7134,-115.808
 L 44.6799,-115.762 L 44.6443,-115.719 L 44.6064,-115.679 L 44.5663,-115.643 L 44.524,-115.609 L 44.4795,-115.578
 L 44.4327,-115.55 L 44.3838,-115.525 L 44.3326,-115.503 L 44.2792,-115.484 L 44.2236,-115.467 L 44.1658,-115.454
 L 44.1058,-115.444 L 44.0436,-115.436 L 43.9792,-115.432 L 43.9125,-115.431 z
M 34.2355,-114.954 L 34.3524,-114.958 L 34.4661,-114.966 L 34.5767,-114.976 L 34.6841,-114.99 L 34.7885,-115.007
 L 34.8896,-115.027 L 34.9877,-115.05 L 35.0826,-115.076 L 35.1744,-115.105 L 35.263,-115.137 L 35.3485,-115.172
 L 35.4309,-115.211 L 35.5101,-115.252 L 35.5862,-115.296 L 35.6592,-115.344 L 35.729,-115.394 L 35.7952,-115.448
 L 35.8575,-115.504 L 35.9157,-115.562 L 35.9699,-115.622 L 36.0201,-115.685 L 36.0663,-115.751 L 36.1084,-115.819
 L 36.1465,-115.889 L 36.1807,-115.962 L 36.2108,-116.038 L 36.2369,-116.115 L 36.259,-116.195 L 36.277,-116.278
 L 36.2911,-116.363 L 36.3011,-116.451 L 36.3071,-116.541 L 36.3091,-116.633 L 36.3078,-116.703 L 36.3038,-116.771
 L 36.2971,-116.838 L 36.2878,-116.903 L 36.2758,-116.967 L 36.2611,-117.029 L 36.2438,-117.09 L 36.2238,-117.15
 L 36.2011,-117.208 L 36.1758,-117.265 L 36.1478,-117.32 L 36.1171,-117.374 L 36.0838,-117.426 L 36.0478,-117.477
 L 36.0091,-117.527 L 35.9678,-117.575 L 35.9238,-117.622 L 35.8773,-117.667 L 35.8286,-117.71 L 35.7776,-117.751
 L 35.7244,-117.789 L 35.6689,-117.826 L 35.6111,-117.86 L 35.5511,-117.893 L 35.4889,-117.923 L 35.4243,-117.951
 L 35.3576,-117.977 L 35.2885,-118 L 35.2173,-118.022 L 35.1437,-118.042 L 35.0679,-118.059 L 34.9899,-118.074
 L 34.9095,-118.087 L 34.827,-118.098 L 34.8899,-118.114 L 34.9511,-118.131 L 35.0107,-118.149 L 35.0685,-118.169
 L 35.1246,-118.191 L 35.179,-118.215 L 35.2317,-118.24 L 35.2828,-118.267 L 35.3321,-118.295 L 35.3797,-118.325
 L 35.4256,-118.357 L 35.4699,-118.39 L 35.5124,-118.425 L 35.5532,-118.462 L 35.5923,-118.5 L 35.6298,-118.54
 L 35.6655,-118.581 L 35.6993,-118.624 L 35.7311,-118.668 L 35.7609,-118.714 L 35.7886,-118.76 L 35.8142,-118.808
 L 35.8378,-118.856 L 35.8594,-118.906 L 35.8788,-118.958 L 35.8963,-119.01 L 35.9117,-119.063 L 35.925,-119.118
 L 35.9363,-119.174 L 35.9455,-119.231 L 35.9527,-119.289 L 35.9578,-119.348 L 35.9609,-119.409 L 35.9619,-119.471
 L 35.9547,-119.636 L 35.9329,-119.791 L 35.8965,-119.937 L 35.8456,-120.072 L 35.7802,-120.197 L 35.7003,-120.312
 L 35.6058,-120.418 L 35.4968,-120.513 L 35.3732,-120.598 L 35.2351,-120.673 L 35.0825,-120.738 L 34.9153,-120.794
 L 34.7336,-120.839 L 34.5374,-120.874 L 34.3266,-120.899 L 34.1013,-120.914 L 33.8615,-120.919 L 31.6932,-120.919
 L 31.6932,-114.952 L 34.1155,-114.952 z
M 32.5021,-118.382 L 32.5021,-120.271 L 33.8615,-120.271 L 33.9342,-120.27 L 34.0048,-120.268 L 34.0734,-120.264
 L 34.14,-120.259 L 34.2045,-120.253 L 34.2669,-120.245 L 34.3273,-120.236 L 34.3857,-120.225 L 34.442,-120.213
 L 34.4962,-120.199 L 34.5484,-120.184 L 34.5986,-120.168 L 34.6467,-120.15 L 34.6927,-120.13 L 34.7367,-120.109
 L 34.7786,-120.087 L 34.8185,-120.063 L 34.8562,-120.038 L 34.8916,-120.011 L 34.9248,-119.982 L 34.9557,-119.951
 L 34.9842,-119.918 L 35.0105,-119.883 L 35.0345,-119.846 L 35.0563,-119.807 L 35.0757,-119.767 L 35.0928,-119.724
 L 35.1077,-119.68 L 35.1203,-119.633 L 35.1306,-119.585 L 35.1386,-119.535 L 35.1443,-119.483 L 35.1477,-119.429
 L 35.1488,-119.373 L 35.1477,-119.315 L 35.1444,-119.258 L 35.1389,-119.203 L 35.1311,-119.15 L 35.1212,-119.099
 L 35.109,-119.05 L 35.0946,-119.002 L 35.078,-118.957 L 35.0592,-118.913 L 35.0382,-118.87 L 35.015,-118.83
 L 34.9895,-118.791 L 34.9619,-118.755 L 34.932,-118.72 L 34.8999,-118.687 L 34.8656,-118.655 L 34.8291,-118.626
 L 34.7904,-118.598 L 34.7493,-118.572 L 34.706,-118.547 L 34.6605,-118.525 L 34.6126,-118.503 L 34.5625,-118.484
 L 34.5101,-118.466 L 34.4555,-118.45 L 34.3986,-118.436 L 34.3394,-118.423 L 34.2779,-118.413 L 34.2142,-118.403
 L 34.1482,-118.396 L 34.0799,-118.39 L 34.0094,-118.386 L 33.9366,-118.383 L 33.8615,-118.382 z
M 32.5021,-115.6 L 32.5021,-117.751 L 34.0097,-117.751 L 34.1789,-117.748 L 34.3379,-117.737 L 34.4866,-117.718
 L 34.6251,-117.693 L 34.7533,-117.66 L 34.8713,-117.62 L 34.979,-117.572 L 35.0764,-117.518 L 35.1636,-117.456
 L 35.2405,-117.386 L 35.3072,-117.31 L 35.3636,-117.226 L 35.4098,-117.135 L 35.4457,-117.036 L 35.4713,-116.93
 L 35.4867,-116.817 L 35.4918,-116.697 L 35.4906,-116.633 L 35.4871,-116.572 L 35.4813,-116.512 L 35.4731,-116.455
 L 35.4625,-116.399 L 35.4496,-116.345 L 35.4344,-116.293 L 35.4168,-116.243 L 35.3969,-116.194 L 35.3746,-116.148
 L 35.35,-116.103 L 35.323,-116.061 L 35.2937,-116.02 L 35.2621,-115.981 L 35.2281,-115.944 L 35.1917,-115.908
 L 35.153,-115.875 L 35.1118,-115.844 L 35.0677,-115.814 L 35.0209,-115.787 L 34.9713,-115.761 L 34.9189,-115.737
 L 34.8638,-115.715 L 34.8058,-115.695 L 34.7451,-115.677 L 34.6816,-115.661 L 34.6152,-115.647 L 34.5462,-115.634
 L 34.4743,-115.624 L 34.3996,-115.615 L 34.3222,-115.608 L 34.242,-115.604 L 34.159,-115.601 L 34.0732,-115.6
 z
M 39.1409,-114.869 L 39.2545,-114.875 L 39.3648,-114.886 L 39.4718,-114.9 L 39.5755,-114.918 L 39.6758,-114.941
 L 39.7728,-114.967 L 39.8666,-114.998 L 39.957,-115.032 L 40.0441,-115.071 L 40.1279,-115.114 L 40.2084,-115.161
 L 40.2856,-115.212 L 40.3595,-115.267 L 40.43,-115.326 L 40.4973,-115.389 L 40.5612,-115.456 L 40.6217,-115.527
 L 40.6784,-115.603 L 40.7316,-115.683 L 40.781,-115.767 L 40.8268,-115.855 L 40.8689,-115.948 L 40.9074,-116.045
 L 40.9422,-116.146 L 40.9734,-116.251 L 41.0008,-116.361 L 41.0246,-116.475 L 41.0448,-116.593 L 41.0613,-116.715
 L 41.0741,-116.842 L 41.0833,-116.973 L 41.0888,-117.108 L 41.0906,-117.247 L 41.0889,-117.388 L 41.0837,-117.524
 L 41.0751,-117.656 L 41.0632,-117.784 L 41.0477,-117.907 L 41.0289,-118.026 L 41.0066,-118.14 L 40.9809,-118.25
 L 40.9517,-118.356 L 40.9191,-118.457 L 40.8831,-118.553 L 40.8437,-118.646 L 40.8008,-118.733 L 40.7545,-118.817
 L 40.7048,-118.896 L 40.6516,-118.97 L 40.5951,-119.041 L 40.5349,-119.107 L 40.4708,-119.169 L 40.4029,-119.227
 L 40.3312,-119.281 L 40.2556,-119.331 L 40.1762,-119.377 L 40.093,-119.419 L 40.0059,-119.457 L 39.915,-119.491
 L 39.8202,-119.521 L 39.7216,-119.547 L 39.6192,-119.569 L 39.5129,-119.587 L 39.4028,-119.601 L 39.2888,-119.611
 L 39.171,-119.617 L 39.0494,-119.619 L 38.8149,-119.611 L 38.5946,-119.586 L 38.3885,-119.545 L 38.1966,-119.487
 L 38.0189,-119.414 L 37.8554,-119.323 L 37.7062,-119.217 L 37.5712,-119.094 L 37.4503,-118.954 L 37.3438,-118.798
 L 37.2514,-118.626 L 37.1732,-118.437 L 37.1092,-118.232 L 37.0595,-118.01 L 37.0239,-117.772 L 37.0026,-117.518
 L 36.9955,-117.247 L 36.9973,-117.113 L 37.0026,-116.983 L 37.0115,-116.856 L 37.0239,-116.733 L 37.0398,-116.614
 L 37.0593,-116.499 L 37.0824,-116.387 L 37.109,-116.28 L 37.1391,-116.176 L 37.1728,-116.075 L 37.21,-115.979
 L 37.2508,-115.886 L 37.2952,-115.797 L 37.343,-115.712 L 37.3944,-115.631 L 37.4494,-115.553 L 37.5079,-115.479
 L 37.5699,-115.409 L 37.6353,-115.344 L 37.7041,-115.282 L 37.7763,-115.225 L 37.8518,-115.172 L 37.9308,-115.124
 L 38.0132,-115.079 L 38.099,-115.039 L 38.1882,-115.003 L 38.2807,-114.971 L 38.3767,-114.944 L 38.4761,-114.92
 L 38.5789,-114.901 L 38.6851,-114.886 L 38.7946,-114.876 L 38.9076,-114.869 L 39.024,-114.867 z
M 38.9424,-115.432 L 38.8717,-115.437 L 38.8033,-115.445 L 38.7372,-115.456 L 38.6734,-115.47 L 38.612,-115.487
 L 38.5529,-115.508 L 38.4962,-115.531 L 38.4417,-115.558 L 38.3896,-115.588 L 38.3399,-115.621 L 38.2924,-115.657
 L 38.2473,-115.697 L 38.2045,-115.739 L 38.1641,-115.785 L 38.126,-115.834 L 38.0902,-115.886 L 38.0566,-115.941
 L 38.025,-115.999 L 37.9955,-116.06 L 37.968,-116.125 L 37.9425,-116.193 L 37.9191,-116.263 L 37.8977,-116.337
 L 37.8784,-116.414 L 37.861,-116.494 L 37.8458,-116.577 L 37.8325,-116.664 L 37.8213,-116.753 L 37.8121,-116.846
 L 37.805,-116.941 L 37.7999,-117.04 L 37.7969,-117.142 L 37.7959,-117.247 L 37.7969,-117.355 L 37.8,-117.46
 L 37.8052,-117.561 L 37.8124,-117.658 L 37.8217,-117.753 L 37.8331,-117.843 L 37.8465,-117.931 L 37.862,-118.015
 L 37.8795,-118.095 L 37.8992,-118.173 L 37.9209,-118.246 L 37.9446,-118.317 L 37.9705,-118.384 L 37.9984,-118.447
 L 38.0283,-118.507 L 38.0603,-118.564 L 38.0944,-118.617 L 38.1308,-118.667 L 38.1698,-118.714 L 38.2113,-118.758
 L 38.2554,-118.799 L 38.3021,-118.837 L 38.3513,-118.872 L 38.4031,-118.904 L 38.4575,-118.933 L 38.5144,-118.958
 L 38.5739,-118.981 L 38.6359,-119.001 L 38.7005,-119.018 L 38.7677,-119.031 L 38.8375,-119.042 L 38.9098,-119.049
 L 38.9846,-119.054 L 39.0621,-119.055 L 39.139,-119.054 L 39.2132,-119.05 L 39.2848,-119.042 L 39.3537,-119.032
 L 39.42,-119.018 L 39.4837,-119.002 L 39.5446,-118.983 L 39.603,-118.96 L 39.6586,-118.935 L 39.7117,-118.907
 L 39.762,-118.876 L 39.8097,-118.841 L 39.8548,-118.804 L 39.8972,-118.764 L 39.937,-118.721 L 39.9741,-118.675
 L 40.0085,-118.626 L 40.0407,-118.573 L 40.0709,-118.517 L 40.0992,-118.458 L 40.1255,-118.395 L 40.1498,-118.328
 L 40.1723,-118.258 L 40.1927,-118.184 L 40.2112,-118.106 L 40.2278,-118.025 L 40.2424,-117.94 L 40.2551,-117.852
 L 40.2658,-117.76 L 40.2746,-117.665 L 40.2814,-117.566 L 40.2863,-117.463 L 40.2892,-117.357 L 40.2902,-117.247
 L 40.2892,-117.139 L 40.2861,-117.034 L 40.281,-116.932 L 40.2739,-116.834 L 40.2647,-116.74 L 40.2535,-116.648
 L 40.2403,-116.561 L 40.225,-116.476 L 40.2077,-116.395 L 40.1883,-116.318 L 40.1669,-116.244 L 40.1435,-116.173
 L 40.1181,-116.106 L 40.0906,-116.042 L 40.061,-115.981 L 40.0295,-115.924 L 39.9959,-115.871 L 39.9599,-115.821
 L 39.9212,-115.773 L 39.8798,-115.729 L 39.8357,-115.688 L 39.7888,-115.65 L 39.7393,-115.615 L 39.6871,-115.583
 L 39.6321,-115.554 L 39.5744,-115.528 L 39.5141,-115.505 L 39.451,-115.485 L 39.3852,-115.469 L 39.3167,-115.455
 L 39.2454,-115.444 L 39.1715,-115.437 L 39.0948,-115.432 L 39.0155,-115.431 z
M 47.6703,-115.879 L 46.8446,-115.879 L 46.8446,-114.952 L 47.6703,-114.952 z
" stroke="black" fill="lightgray" stroke-width="0.5"/>
</svg>
