<?xml version="1.0" standalone="no"?>
<!DOCTYPE svg PUBLIC "-//W3C//DTD SVG 1.1//EN" "http://www.w3.org/Graphics/SVG/1.1/DTD/svg11.dtd">
<svg width="267mm" height="139mm" viewBox="5 -144 267 139" xmlns="http://www.w3.org/2000/svg" version="1.1">
<title>OpenSCAD Model</title>
<path d="
M 184.898,-143.6 L 140.449,-143.6 L 140.449,-135.6 L 184.898,-135.6 z
M 207.698,-140.6 L 203.698,-140.6 L 203.698,-51.2 L 207.698,-51.2 z
M 200.698,-140.6 L 196.698,-140.6 L 196.698,-51.2 L 200.698,-51.2 z
M 128.065,-51.2053 L 128.28,-51.2212 L 128.495,-51.2476 L 128.707,-51.2845 L 128.918,-51.3318 L 129.126,-51.3895
 L 129.331,-51.4572 L 129.533,-51.5349 L 129.73,-51.6224 L 129.923,-51.7195 L 130.111,-51.826 L 130.293,-51.9415
 L 130.47,-52.0659 L 130.64,-52.1987 L 130.804,-52.3398 L 130.96,-52.4887 L 131.109,-52.6451 L 131.25,-52.8087
 L 131.383,-52.9789 L 131.507,-53.1555 L 131.623,-53.3379 L 131.729,-53.5258 L 131.827,-53.7188 L 131.914,-53.9162
 L 131.992,-54.1177 L 132.06,-54.3227 L 132.117,-54.5309 L 132.164,-54.7416 L 132.201,-54.9544 L 132.228,-55.1687
 L 132.244,-55.3841 L 132.249,-55.6 L 132.249,-61.2 L 137.449,-61.2 L 137.449,-126.7 L 137.438,-127.142
 L 137.406,-127.582 L 137.352,-128.021 L 137.276,-128.456 L 137.179,-128.887 L 137.061,-129.313 L 136.923,-129.732
 L 136.764,-130.144 L 136.585,-130.548 L 136.386,-130.943 L 136.169,-131.327 L 135.932,-131.7 L 135.678,-132.061
 L 135.406,-132.41 L 135.118,-132.744 L 134.813,-133.064 L 134.493,-133.369 L 134.159,-133.657 L 133.81,-133.929
 L 133.449,-134.183 L 133.076,-134.42 L 132.692,-134.637 L 132.297,-134.836 L 131.893,-135.015 L 131.481,-135.174
 L 131.062,-135.312 L 130.636,-135.43 L 130.205,-135.527 L 129.77,-135.603 L 129.331,-135.657 L 128.891,-135.689
 L 128.449,-135.7 L 84,-135.7 L 83.5584,-135.689 L 83.1178,-135.657 L 82.6794,-135.603 L 82.2442,-135.527
 L 81.8132,-135.43 L 81.3874,-135.312 L 80.968,-135.174 L 80.5558,-135.015 L 80.152,-134.836 L 79.7574,-134.637
 L 79.3731,-134.42 L 78.9999,-134.183 L 78.6387,-133.929 L 78.2905,-133.657 L 77.956,-133.369 L 77.636,-133.064
 L 77.3314,-132.744 L 77.0429,-132.41 L 76.7711,-132.061 L 76.5168,-131.7 L 76.2804,-131.327 L 76.0627,-130.943
 L 75.8641,-130.548 L 75.6851,-130.144 L 75.5261,-129.732 L 75.3875,-129.313 L 75.2697,-128.887 L 75.1729,-128.456
 L 75.0974,-128.021 L 75.0433,-127.582 L 75.0108,-127.142 L 75,-126.7 L 75,-61.2 L 80.2,-61.2
 L 80.2,-55.6 L 80.2053,-55.3841 L 80.2212,-55.1687 L 80.2476,-54.9544 L 80.2845,-54.7416 L 80.3318,-54.5309
 L 80.3895,-54.3227 L 80.4572,-54.1177 L 80.5349,-53.9162 L 80.6224,-53.7188 L 80.7195,-53.5258 L 80.826,-53.3379
 L 80.9415,-53.1555 L 81.0659,-52.9789 L 81.1987,-52.8087 L 81.3398,-52.6451 L 81.4887,-52.4887 L 81.6451,-52.3398
 L 81.8087,-52.1987 L 81.9789,-52.0659 L 82.1555,-51.9415 L 82.3379,-51.826 L 82.5258,-51.7195 L 82.7188,-51.6224
 L 82.9162,-51.5349 L 83.1177,-51.4572 L 83.3227,-51.3895 L 83.5309,-51.3318 L 83.7416,-51.2845 L 83.9544,-51.2476
 L 84.1687,-51.2212 L 84.3841,-51.2053 L 84.6,-51.2 L 127.849,-51.2 z
M 105.581,-74.4365 L 104.939,-74.4839 L 104.3,-74.5627 L 103.666,-74.6727 L 103.038,-74.8137 L 102.418,-74.9854
 L 101.806,-75.1873 L 101.206,-75.419 L 100.617,-75.6798 L 100.042,-75.9692 L 99.4824,-76.2865 L 98.9386,-76.6309
 L 98.4123,-77.0015 L 97.9049,-77.3975 L 97.4175,-77.8179 L 96.9513,-78.2618 L 96.5074,-78.728 L 96.087,-79.2154
 L 95.691,-79.7228 L 95.3204,-80.2491 L 94.976,-80.7929 L 94.6587,-81.353 L 94.3693,-81.9279 L 94.1085,-82.5164
 L 93.8768,-83.1169 L 93.6749,-83.7281 L 93.5032,-84.3485 L 93.3622,-84.9765 L 93.2521,-85.6107 L 93.1733,-86.2496
 L 93.126,-86.8915 L 93.1102,-87.535 L 93.126,-88.1785 L 93.1733,-88.8204 L 93.2521,-89.4593 L 93.3622,-90.0935
 L 93.5032,-90.7215 L 93.6749,-91.3419 L 93.8768,-91.9531 L 94.1085,-92.5536 L 94.3693,-93.1421 L 94.6587,-93.717
 L 94.976,-94.2771 L 95.3204,-94.8209 L 95.691,-95.3472 L 96.087,-95.8546 L 96.5074,-96.342 L 96.9513,-96.8082
 L 97.4175,-97.252 L 97.9049,-97.6725 L 98.4123,-98.0685 L 98.9386,-98.4391 L 99.4824,-98.7835 L 100.042,-99.1008
 L 100.617,-99.3902 L 101.206,-99.651 L 101.806,-99.8827 L 102.418,-100.085 L 103.038,-100.256 L 103.666,-100.397
 L 104.3,-100.507 L 104.939,-100.586 L 105.581,-100.633 L 106.224,-100.649 L 106.868,-100.633 L 107.51,-100.586
 L 108.149,-100.507 L 108.783,-100.397 L 109.411,-100.256 L 110.031,-100.085 L 110.643,-99.8827 L 111.243,-99.651
 L 111.832,-99.3902 L 112.407,-99.1008 L 112.967,-98.7835 L 113.51,-98.4391 L 114.037,-98.0685 L 114.544,-97.6725
 L 115.031,-97.252 L 115.498,-96.8082 L 115.942,-96.342 L 116.362,-95.8546 L 116.758,-95.3472 L 117.129,-94.8209
 L 117.473,-94.2771 L 117.79,-93.717 L 118.08,-93.1421 L 118.34,-92.5536 L 118.572,-91.9531 L 118.774,-91.3419
 L 118.946,-90.7215 L 119.087,-90.0935 L 119.197,-89.4593 L 119.276,-88.8204 L 119.323,-88.1785 L 119.339,-87.535
 L 119.323,-86.8915 L 119.276,-86.2496 L 119.197,-85.6107 L 119.087,-84.9765 L 118.946,-84.3485 L 118.774,-83.7281
 L 118.572,-83.1169 L 118.34,-82.5164 L 118.08,-81.9279 L 117.79,-81.353 L 117.473,-80.7929 L 117.129,-80.2491
 L 116.758,-79.7228 L 116.362,-79.2154 L 115.942,-78.728 L 115.498,-78.2618 L 115.031,-77.8179 L 114.544,-77.3975
 L 114.037,-77.0015 L 113.51,-76.6309 L 112.967,-76.2865 L 112.407,-75.9692 L 111.832,-75.6798 L 111.243,-75.419
 L 110.643,-75.1873 L 110.031,-74.9854 L 109.411,-74.8137 L 108.783,-74.6727 L 108.149,-74.5627 L 107.51,-74.4839
 L 106.868,-74.4365 L 106.224,-74.4207 z
M 193.698,-132.6 L 140.449,-132.6 L 140.449,-51.2 L 193.698,-51.2 z
M 27.2,-52.4 L 28.8,-52.4 L 28.8,-54 L 30,-55.2 L 30,-119.2 L 28.8,-120.4
 L 28.8,-122 L 27.2,-122 L 26,-123.2 L 26,-51.2 z
M 62.2,-52.4 L 63.8,-52.4 L 63.8,-54 L 65,-55.2 L 65,-119.2 L 63.8,-120.4
 L 63.8,-122 L 62.2,-122 L 61,-123.2 L 61,-51.2 z
M 55.2,-52.4 L 56.8,-52.4 L 56.8,-54 L 58,-55.2 L 58,-119.2 L 56.8,-120.4
 L 56.8,-122 L 55.2,-122 L 54,-123.2 L 54,-51.2 z
M 48.2,-52.4 L 49.8,-52.4 L 49.8,-54 L 51,-55.2 L 51,-119.2 L 49.8,-120.4
 L 49.8,-122 L 48.2,-122 L 47,-123.2 L 47,-51.2 z
M 41.2,-52.4 L 42.8,-52.4 L 42.8,-54 L 44,-55.2 L 44,-119.2 L 42.8,-120.4
 L 42.8,-122 L 41.2,-122 L 40,-123.2 L 40,-51.2 z
M 34.2,-52.4 L 35.8,-52.4 L 35.8,-54 L 37,-55.2 L 37,-119.2 L 35.8,-120.4
 L 35.8,-122 L 34.2,-122 L 33,-123.2 L 33,-51.2 z
M 20.2,-52.4 L 21.8,-52.4 L 21.8,-54 L 23,-55.2 L 23,-119.2 L 21.8,-120.4
 L 21.8,-122 L 20.2,-122 L 19,-123.2 L 19,-51.2 z
M 13.2,-52.4 L 14.8,-52.4 L 14.8,-54 L 16,-55.2 L 16,-119.2 L 14.8,-120.4
 L 14.8,-122 L 13.2,-122 L 12,-123.2 L 12,-51.2 z
M 6.20001,-52.4 L 7.8,-52.4 L 7.8,-54 L 9,-55.2 L 9,-119.2 L 7.8,-120.4
 L 7.8,-122 L 6.20001,-122 L 5,-123.2 L 5,-51.2 z
M 69.2,-52.4 L 70.8,-52.4 L 70.8,-54 L 72,-55.2 L 72,-119.2 L 70.8,-120.4
 L 70.8,-122 L 69.2,-122 L 68,-123.2 L 68,-51.2 z
M 263.959,-51.2101 L 264.37,-51.2404 L 264.779,-51.2909 L 265.186,-51.3614 L 265.588,-51.4517 L 265.985,-51.5617
 L 266.377,-51.691 L 266.761,-51.8394 L 267.138,-52.0065 L 267.507,-52.1918 L 267.865,-52.3951 L 268.214,-52.6156
 L 268.551,-52.853 L 268.876,-53.1067 L 269.188,-53.376 L 269.487,-53.6603 L 269.771,-53.9589 L 270.04,-54.2711
 L 270.294,-54.5961 L 270.531,-54.9332 L 270.752,-55.2815 L 270.955,-55.6403 L 271.14,-56.0085 L 271.308,-56.3855
 L 271.456,-56.7701 L 271.585,-57.1616 L 271.695,-57.559 L 271.786,-57.9612 L 271.856,-58.3675 L 271.906,-58.7766
 L 271.937,-59.1878 L 271.947,-59.6 L 271.947,-65.1 L 267.947,-65.1 L 267.947,-59.6 L 267.942,-59.3841
 L 267.926,-59.1687 L 267.899,-58.9544 L 267.862,-58.7416 L 267.815,-58.5309 L 267.757,-58.3227 L 267.69,-58.1177
 L 267.612,-57.9162 L 267.524,-57.7188 L 267.427,-57.5258 L 267.321,-57.3379 L 267.205,-57.1555 L 267.081,-56.9789
 L 266.948,-56.8087 L 266.807,-56.6451 L 266.658,-56.4887 L 266.502,-56.3398 L 266.338,-56.1987 L 266.168,-56.0659
 L 265.991,-55.9415 L 265.809,-55.826 L 265.621,-55.7195 L 265.428,-55.6224 L 265.231,-55.5349 L 265.029,-55.4572
 L 264.824,-55.3895 L 264.616,-55.3318 L 264.405,-55.2845 L 264.193,-55.2476 L 263.978,-55.2212 L 263.763,-55.2053
 L 263.547,-55.2 L 219.098,-55.2 L 218.882,-55.2053 L 218.667,-55.2212 L 218.452,-55.2476 L 218.24,-55.2845
 L 218.029,-55.3318 L 217.821,-55.3895 L 217.616,-55.4572 L 217.414,-55.5349 L 217.217,-55.6224 L 217.024,-55.7195
 L 216.836,-55.826 L 216.653,-55.9415 L 216.477,-56.0659 L 216.307,-56.1987 L 216.143,-56.3398 L 215.987,-56.4887
 L 215.838,-56.6451 L 215.697,-56.8087 L 215.564,-56.9789 L 215.439,-57.1555 L 215.324,-57.3379 L 215.217,-57.5258
 L 215.12,-57.7188 L 215.033,-57.9162 L 214.955,-58.1177 L 214.887,-58.3227 L 214.83,-58.5309 L 214.782,-58.7416
 L 214.746,-58.9544 L 214.719,-59.1687 L 214.703,-59.3841 L 214.698,-59.6 L 214.698,-65.1 L 210.698,-65.1
 L 210.698,-59.6 L 210.708,-59.1878 L 210.738,-58.7766 L 210.789,-58.3675 L 210.859,-57.9612 L 210.95,-57.559
 L 211.06,-57.1616 L 211.189,-56.7701 L 211.337,-56.3855 L 211.504,-56.0085 L 211.69,-55.6403 L 211.893,-55.2815
 L 212.114,-54.9332 L 212.351,-54.5961 L 212.605,-54.2711 L 212.874,-53.9589 L 213.158,-53.6603 L 213.457,-53.376
 L 213.769,-53.1067 L 214.094,-52.853 L 214.431,-52.6156 L 214.779,-52.3951 L 215.138,-52.1918 L 215.506,-52.0065
 L 215.883,-51.8394 L 216.268,-51.691 L 216.66,-51.5617 L 217.057,-51.4517 L 217.459,-51.3614 L 217.865,-51.2909
 L 218.275,-51.2404 L 218.686,-51.2101 L 219.098,-51.2 L 263.547,-51.2 z
M 58.2611,-35.8101 L 58.6723,-35.8404 L 59.0815,-35.8909 L 59.4877,-35.9614 L 59.89,-36.0517 L 60.2874,-36.1617
 L 60.6788,-36.291 L 61.0635,-36.4394 L 61.4404,-36.6065 L 61.8087,-36.7918 L 62.1674,-36.9951 L 62.5158,-37.2156
 L 62.8528,-37.453 L 63.1779,-37.7067 L 63.4901,-37.976 L 63.7887,-38.2603 L 64.073,-38.5589 L 64.3423,-38.8711
 L 64.5959,-39.1961 L 64.8333,-39.5332 L 65.0539,-39.8815 L 65.2571,-40.2402 L 65.4425,-40.6085 L 65.6096,-40.9854
 L 65.7579,-41.3701 L 65.8873,-41.7616 L 65.9972,-42.159 L 66.0876,-42.5612 L 66.1581,-42.9675 L 66.2085,-43.3766
 L 66.2388,-43.7878 L 66.249,-44.2 L 66.249,-48.2 L 65.049,-47 L 65.049,-45.4 L 63.449,-45.4
 L 62.249,-44.2 L 62.2437,-43.9841 L 62.2278,-43.7687 L 62.2013,-43.5544 L 62.1644,-43.3416 L 62.1171,-43.1309
 L 62.0595,-42.9227 L 61.9918,-42.7177 L 61.914,-42.5162 L 61.8265,-42.3187 L 61.7294,-42.1258 L 61.623,-41.9379
 L 61.5074,-41.7555 L 61.3831,-41.5789 L 61.2502,-41.4086 L 61.1091,-41.2451 L 60.9602,-41.0887 L 60.8038,-40.9398
 L 60.6403,-40.7987 L 60.47,-40.6659 L 60.2935,-40.5415 L 60.111,-40.426 L 59.9231,-40.3195 L 59.7302,-40.2224
 L 59.5328,-40.1349 L 59.3313,-40.0572 L 59.1262,-39.9894 L 58.9181,-39.9318 L 58.7074,-39.8845 L 58.4946,-39.8476
 L 58.2802,-39.8212 L 58.0649,-39.8053 L 57.849,-39.8 L 13.4,-39.8 L 13.1841,-39.8053 L 12.9687,-39.8212
 L 12.7544,-39.8476 L 12.5416,-39.8845 L 12.3309,-39.9318 L 12.1227,-39.9894 L 11.9177,-40.0572 L 11.7162,-40.1349
 L 11.5188,-40.2224 L 11.3259,-40.3195 L 11.1379,-40.426 L 10.9555,-40.5415 L 10.7789,-40.6659 L 10.6087,-40.7987
 L 10.4451,-40.9398 L 10.2887,-41.0887 L 10.1398,-41.2451 L 9.99875,-41.4086 L 9.86588,-41.5789 L 9.74153,-41.7555
 L 9.62599,-41.9379 L 9.51955,-42.1258 L 9.42244,-42.3187 L 9.33493,-42.5162 L 9.2572,-42.7177 L 9.18945,-42.9227
 L 9.13185,-43.1309 L 9.08453,-43.3416 L 9.04762,-43.5544 L 9.02118,-43.7687 L 9.00529,-43.9841 L 9,-44.2
 L 9,-48.2 L 7.79999,-47 L 7.79999,-45.4 L 6.2,-45.4 L 5,-44.2 L 5.01012,-43.7878
 L 5.04044,-43.3766 L 5.09091,-42.9675 L 5.16139,-42.5612 L 5.25172,-42.159 L 5.36169,-41.7616 L 5.49103,-41.3701
 L 5.6394,-40.9854 L 5.80649,-40.6085 L 5.99185,-40.2402 L 6.19507,-39.8815 L 6.41565,-39.5332 L 6.65305,-39.1961
 L 6.90671,-38.8711 L 7.17601,-38.5589 L 7.4603,-38.2603 L 7.7589,-37.976 L 8.07109,-37.7067 L 8.39612,-37.453
 L 8.7332,-37.2156 L 9.08153,-36.9951 L 9.44026,-36.7918 L 9.80853,-36.6065 L 10.1855,-36.4394 L 10.5701,-36.291
 L 10.9616,-36.1617 L 11.359,-36.0517 L 11.7612,-35.9614 L 12.1675,-35.8909 L 12.5766,-35.8404 L 12.9878,-35.8101
 L 13.4,-35.8 L 57.849,-35.8 z
M 130.498,-39.8 L 130.488,-40.2121 L 130.458,-40.6233 L 130.407,-41.0325 L 130.337,-41.4387 L 130.246,-41.841
 L 130.136,-42.2384 L 130.007,-42.6299 L 129.859,-43.0145 L 129.691,-43.3914 L 129.506,-43.7597 L 129.303,-44.1184
 L 129.082,-44.4668 L 128.845,-44.8038 L 128.591,-45.1289 L 128.322,-45.4411 L 128.038,-45.7397 L 127.739,-46.024
 L 127.427,-46.2933 L 127.102,-46.5469 L 126.765,-46.7843 L 126.416,-47.0049 L 126.058,-47.2081 L 125.689,-47.3935
 L 125.312,-47.5606 L 124.928,-47.7089 L 124.536,-47.8383 L 124.139,-47.9482 L 123.737,-48.0386 L 123.33,-48.1091
 L 122.921,-48.1595 L 122.51,-48.1898 L 122.098,-48.2 L 77.649,-48.2 L 77.2368,-48.1898 L 76.8256,-48.1595
 L 76.4164,-48.1091 L 76.0102,-48.0386 L 75.6079,-47.9482 L 75.2106,-47.8383 L 74.8191,-47.7089 L 74.4344,-47.5606
 L 74.0575,-47.3935 L 73.6892,-47.2081 L 73.3305,-47.0049 L 72.9822,-46.7843 L 72.6451,-46.5469 L 72.3201,-46.2933
 L 72.0079,-46.024 L 71.7093,-45.7397 L 71.425,-45.4411 L 71.1557,-45.1289 L 70.902,-44.8038 L 70.6646,-44.4668
 L 70.444,-44.1184 L 70.2408,-43.7597 L 70.0555,-43.3914 L 69.8884,-43.0145 L 69.74,-42.6299 L 69.6107,-42.2384
 L 69.5007,-41.841 L 69.4104,-41.4387 L 69.3399,-41.0325 L 69.2894,-40.6233 L 69.2591,-40.2121 L 69.249,-39.8
 L 70.449,-38.6 L 72.049,-38.6 L 72.049,-37 L 73.249,-35.8 L 73.249,-39.8 L 73.2543,-40.0159
 L 73.2702,-40.2312 L 73.2966,-40.4456 L 73.3335,-40.6584 L 73.3808,-40.8691 L 73.4384,-41.0772 L 73.5062,-41.2823
 L 73.5839,-41.4838 L 73.6714,-41.6812 L 73.7685,-41.8741 L 73.875,-42.062 L 73.9905,-42.2445 L 74.1149,-42.4211
 L 74.2477,-42.5913 L 74.3888,-42.7548 L 74.5377,-42.9112 L 74.6941,-43.0602 L 74.8576,-43.2012 L 75.0279,-43.3341
 L 75.2045,-43.4584 L 75.3869,-43.574 L 75.5748,-43.6804 L 75.7677,-43.7775 L 75.9652,-43.865 L 76.1667,-43.9428
 L 76.3717,-44.0105 L 76.5799,-44.0681 L 76.7906,-44.1154 L 77.0034,-44.1523 L 77.2177,-44.1788 L 77.4331,-44.1947
 L 77.649,-44.2 L 122.098,-44.2 L 122.314,-44.1947 L 122.529,-44.1788 L 122.744,-44.1523 L 122.956,-44.1154
 L 123.167,-44.0681 L 123.375,-44.0105 L 123.58,-43.9428 L 123.782,-43.865 L 123.979,-43.7775 L 124.172,-43.6804
 L 124.36,-43.574 L 124.542,-43.4584 L 124.719,-43.3341 L 124.889,-43.2012 L 125.053,-43.0602 L 125.209,-42.9112
 L 125.358,-42.7548 L 125.499,-42.5913 L 125.632,-42.4211 L 125.756,-42.2445 L 125.872,-42.062 L 125.978,-41.8741
 L 126.076,-41.6812 L 126.163,-41.4838 L 126.241,-41.2823 L 126.308,-41.0772 L 126.366,-40.8691 L 126.413,-40.6584
 L 126.45,-40.4456 L 126.477,-40.2312 L 126.493,-40.0159 L 126.498,-39.8 L 127.698,-38.6 L 129.298,-38.6
 L 129.298,-37 L 130.498,-35.8 z
M 186.759,-20.4101 L 187.17,-20.4404 L 187.579,-20.4909 L 187.986,-20.5614 L 188.388,-20.6517 L 188.785,-20.7617
 L 189.177,-20.891 L 189.561,-21.0394 L 189.938,-21.2065 L 190.307,-21.3918 L 190.665,-21.5951 L 191.014,-21.8156
 L 191.351,-22.053 L 191.676,-22.3067 L 191.988,-22.576 L 192.287,-22.8603 L 192.571,-23.1589 L 192.84,-23.4711
 L 193.094,-23.7961 L 193.331,-24.1332 L 193.552,-24.4815 L 193.755,-24.8403 L 193.94,-25.2085 L 194.108,-25.5854
 L 194.256,-25.9701 L 194.385,-26.3616 L 194.495,-26.759 L 194.586,-27.1612 L 194.656,-27.5675 L 194.706,-27.9766
 L 194.737,-28.3878 L 194.747,-28.8 L 194.747,-32.8 L 193.547,-31.6 L 193.547,-30 L 191.947,-30
 L 190.747,-28.8 L 190.742,-28.5841 L 190.726,-28.3687 L 190.699,-28.1544 L 190.662,-27.9416 L 190.615,-27.7309
 L 190.557,-27.5227 L 190.49,-27.3177 L 190.412,-27.1162 L 190.324,-26.9187 L 190.227,-26.7258 L 190.121,-26.5379
 L 190.005,-26.3555 L 189.881,-26.1789 L 189.748,-26.0087 L 189.607,-25.8451 L 189.458,-25.6887 L 189.302,-25.5398
 L 189.138,-25.3987 L 188.968,-25.2659 L 188.791,-25.1415 L 188.609,-25.026 L 188.421,-24.9195 L 188.228,-24.8224
 L 188.031,-24.7349 L 187.829,-24.6572 L 187.624,-24.5894 L 187.416,-24.5318 L 187.205,-24.4845 L 186.993,-24.4476
 L 186.778,-24.4212 L 186.563,-24.4053 L 186.347,-24.4 L 141.898,-24.4 L 141.682,-24.4053 L 141.467,-24.4212
 L 141.252,-24.4476 L 141.04,-24.4845 L 140.829,-24.5318 L 140.621,-24.5894 L 140.416,-24.6572 L 140.214,-24.7349
 L 140.017,-24.8224 L 139.824,-24.9195 L 139.636,-25.026 L 139.453,-25.1415 L 139.277,-25.2659 L 139.107,-25.3987
 L 138.943,-25.5398 L 138.787,-25.6887 L 138.638,-25.8451 L 138.497,-26.0087 L 138.364,-26.1789 L 138.239,-26.3555
 L 138.124,-26.5379 L 138.018,-26.7258 L 137.92,-26.9187 L 137.833,-27.1162 L 137.755,-27.3177 L 137.687,-27.5227
 L 137.63,-27.7309 L 137.582,-27.9416 L 137.546,-28.1544 L 137.519,-28.3687 L 137.503,-28.5841 L 137.498,-28.8
 L 137.498,-32.8 L 136.298,-31.6 L 136.298,-30 L 134.698,-30 L 133.498,-28.8 L 133.508,-28.3878
 L 133.538,-27.9766 L 133.589,-27.5675 L 133.659,-27.1612 L 133.75,-26.759 L 133.86,-26.3616 L 133.989,-25.9701
 L 134.137,-25.5854 L 134.304,-25.2085 L 134.49,-24.8403 L 134.693,-24.4815 L 134.914,-24.1332 L 135.151,-23.7961
 L 135.405,-23.4711 L 135.674,-23.1589 L 135.958,-22.8603 L 136.257,-22.576 L 136.569,-22.3067 L 136.894,-22.053
 L 137.231,-21.8156 L 137.579,-21.5951 L 137.938,-21.3918 L 138.306,-21.2065 L 138.683,-21.0394 L 139.068,-20.891
 L 139.46,-20.7617 L 139.857,-20.6517 L 140.259,-20.5614 L 140.665,-20.4909 L 141.075,-20.4404 L 141.486,-20.4101
 L 141.898,-20.4 L 186.347,-20.4 z
M 58.2611,-20.4101 L 58.6723,-20.4404 L 59.0815,-20.4909 L 59.4877,-20.5614 L 59.89,-20.6517 L 60.2874,-20.7617
 L 60.6788,-20.891 L 61.0635,-21.0394 L 61.4404,-21.2065 L 61.8087,-21.3918 L 62.1674,-21.5951 L 62.5158,-21.8156
 L 62.8528,-22.053 L 63.1779,-22.3067 L 63.4901,-22.576 L 63.7887,-22.8603 L 64.073,-23.1589 L 64.3423,-23.4711
 L 64.5959,-23.7961 L 64.8333,-24.1332 L 65.0539,-24.4815 L 65.2571,-24.8403 L 65.4425,-25.2085 L 65.6096,-25.5854
 L 65.7579,-25.9701 L 65.8873,-26.3616 L 65.9972,-26.759 L 66.0876,-27.1612 L 66.1581,-27.5675 L 66.2085,-27.9766
 L 66.2388,-28.3878 L 66.249,-28.8 L 66.249,-32.8 L 65.049,-31.6 L 65.049,-30 L 63.449,-30
 L 62.249,-28.8 L 62.2437,-28.5841 L 62.2278,-28.3687 L 62.2013,-28.1544 L 62.1644,-27.9416 L 62.1171,-27.7309
 L 62.0595,-27.5227 L 61.9918,-27.3177 L 61.914,-27.1162 L 61.8265,-26.9187 L 61.7294,-26.7258 L 61.623,-26.5379
 L 61.5074,-26.3555 L 61.3831,-26.1789 L 61.2502,-26.0087 L 61.1091,-25.8451 L 60.9602,-25.6887 L 60.8038,-25.5398
 L 60.6403,-25.3987 L 60.47,-25.2659 L 60.2935,-25.1415 L 60.111,-25.026 L 59.9231,-24.9195 L 59.7302,-24.8224
 L 59.5328,-24.7349 L 59.3313,-24.6572 L 59.1262,-24.5894 L 58.9181,-24.5318 L 58.7074,-24.4845 L 58.4946,-24.4476
 L 58.2802,-24.4212 L 58.0649,-24.4053 L 57.849,-24.4 L 13.4,-24.4 L 13.1841,-24.4053 L 12.9687,-24.4212
 L 12.7544,-24.4476 L 12.5416,-24.4845 L 12.3309,-24.5318 L 12.1227,-24.5894 L 11.9177,-24.6572 L 11.7162,-24.7349
 L 11.5188,-24.8224 L 11.3259,-24.9195 L 11.1379,-25.026 L 10.9555,-25.1415 L 10.7789,-25.2659 L 10.6087,-25.3987
 L 10.4451,-25.5398 L 10.2887,-25.6887 L 10.1398,-25.8451 L 9.99875,-26.0087 L 9.86588,-26.1789 L 9.74153,-26.3555
 L 9.62599,-26.5379 L 9.51955,-26.7258 L 9.42244,-26.9187 L 9.33493,-27.1162 L 9.2572,-27.3177 L 9.18945,-27.5227
 L 9.13185,-27.7309 L 9.08453,-27.9416 L 9.04762,-28.1544 L 9.02118,-28.3687 L 9.00529,-28.5841 L 9,-28.8
 L 9,-32.8 L 7.79999,-31.6 L 7.79999,-30 L 6.2,-30 L 5,-28.8 L 5.01012,-28.3878
 L 5.04044,-27.9766 L 5.09091,-27.5675 L 5.16139,-27.1612 L 5.25172,-26.759 L 5.36169,-26.3616 L 5.49103,-25.9701
 L 5.6394,-25.5854 L 5.80649,-25.2085 L 5.99185,-24.8403 L 6.19507,-24.4815 L 6.41565,-24.1332 L 6.65305,-23.7961
 L 6.90671,-23.4711 L 7.17601,-23.1589 L 7.4603,-22.8603 L 7.7589,-22.576 L 8.07109,-22.3067 L 8.39612,-22.053
 L 8.7332,-21.8156 L 9.08153,-21.5951 L 9.44026,-21.3918 L 9.80853,-21.2065 L 10.1855,-21.0394 L 10.5701,-20.891
 L 10.9616,-20.7617 L 11.359,-20.6517 L 11.7612,-20.5614 L 12.1675,-20.4909 L 12.5766,-20.4404 L 12.9878,-20.4101
 L 13.4,-20.4 L 57.849,-20.4 z
M 130.498,-24.4 L 130.488,-24.8121 L 130.458,-25.2233 L 130.407,-25.6325 L 130.337,-26.0387 L 130.246,-26.441
 L 130.136,-26.8384 L 130.007,-27.2299 L 129.859,-27.6145 L 129.691,-27.9914 L 129.506,-28.3597 L 129.303,-28.7184
 L 129.082,-29.0668 L 128.845,-29.4039 L 128.591,-29.7289 L 128.322,-30.0411 L 128.038,-30.3397 L 127.739,-30.624
 L 127.427,-30.8933 L 127.102,-31.1469 L 126.765,-31.3843 L 126.416,-31.6049 L 126.058,-31.8081 L 125.689,-31.9935
 L 125.312,-32.1606 L 124.928,-32.3089 L 124.536,-32.4383 L 124.139,-32.5482 L 123.737,-32.6386 L 123.33,-32.7091
 L 122.921,-32.7595 L 122.51,-32.7899 L 122.098,-32.8 L 77.649,-32.8 L 77.2368,-32.7899 L 76.8256,-32.7595
 L 76.4164,-32.7091 L 76.0102,-32.6386 L 75.6079,-32.5482 L 75.2106,-32.4383 L 74.8191,-32.3089 L 74.4344,-32.1606
 L 74.0575,-31.9935 L 73.6892,-31.8081 L 73.3305,-31.6049 L 72.9822,-31.3843 L 72.6451,-31.1469 L 72.3201,-30.8933
 L 72.0079,-30.624 L 71.7093,-30.3397 L 71.425,-30.0411 L 71.1557,-29.7289 L 70.902,-29.4039 L 70.6646,-29.0668
 L 70.444,-28.7184 L 70.2408,-28.3597 L 70.0555,-27.9914 L 69.8884,-27.6145 L 69.74,-27.2299 L 69.6107,-26.8384
 L 69.5007,-26.441 L 69.4104,-26.0387 L 69.3399,-25.6325 L 69.2894,-25.2233 L 69.2591,-24.8121 L 69.249,-24.4
 L 70.449,-23.2 L 72.049,-23.2 L 72.049,-21.6 L 73.249,-20.4 L 73.249,-24.4 L 73.2543,-24.6159
 L 73.2702,-24.8313 L 73.2966,-25.0456 L 73.3335,-25.2584 L 73.3808,-25.4691 L 73.4384,-25.6772 L 73.5062,-25.8823
 L 73.5839,-26.0838 L 73.6714,-26.2812 L 73.7685,-26.4741 L 73.875,-26.662 L 73.9905,-26.8445 L 74.1149,-27.0211
 L 74.2477,-27.1913 L 74.3888,-27.3548 L 74.5377,-27.5112 L 74.6941,-27.6602 L 74.8576,-27.8012 L 75.0279,-27.9341
 L 75.2045,-28.0584 L 75.3869,-28.174 L 75.5748,-28.2804 L 75.7677,-28.3775 L 75.9652,-28.465 L 76.1667,-28.5428
 L 76.3717,-28.6105 L 76.5799,-28.6681 L 76.7906,-28.7154 L 77.0034,-28.7523 L 77.2177,-28.7788 L 77.4331,-28.7947
 L 77.649,-28.8 L 122.098,-28.8 L 122.314,-28.7947 L 122.529,-28.7788 L 122.744,-28.7523 L 122.956,-28.7154
 L 123.167,-28.6681 L 123.375,-28.6105 L 123.58,-28.5428 L 123.782,-28.465 L 123.979,-28.3775 L 124.172,-28.2804
 L 124.36,-28.174 L 124.542,-28.0584 L 124.719,-27.9341 L 124.889,-27.8012 L 125.053,-27.6602 L 125.209,-27.5112
 L 125.358,-27.3548 L 125.499,-27.1913 L 125.632,-27.0211 L 125.756,-26.8445 L 125.872,-26.662 L 125.978,-26.4741
 L 126.076,-26.2812 L 126.163,-26.0838 L 126.241,-25.8823 L 126.308,-25.6772 L 126.366,-25.4691 L 126.413,-25.2584
 L 126.45,-25.0456 L 126.477,-24.8313 L 126.493,-24.6159 L 126.498,-24.4 L 127.698,-23.2 L 129.298,-23.2
 L 129.298,-21.6 L 130.498,-20.4 z
M 258.996,-24.4 L 258.986,-24.8121 L 258.955,-25.2233 L 258.905,-25.6325 L 258.835,-26.0387 L 258.744,-26.441
 L 258.634,-26.8384 L 258.505,-27.2299 L 258.356,-27.6145 L 258.189,-27.9914 L 258.004,-28.3597 L 257.801,-28.7184
 L 257.58,-29.0668 L 257.343,-29.4039 L 257.089,-29.7289 L 256.82,-30.0411 L 256.536,-30.3397 L 256.237,-30.624
 L 255.925,-30.8933 L 255.6,-31.1469 L 255.263,-31.3843 L 254.914,-31.6049 L 254.556,-31.8081 L 254.187,-31.9935
 L 253.81,-32.1606 L 253.426,-32.3089 L 253.034,-32.4383 L 252.637,-32.5482 L 252.235,-32.6386 L 251.828,-32.7091
 L 251.419,-32.7595 L 251.008,-32.7899 L 250.596,-32.8 L 206.147,-32.8 L 205.735,-32.7899 L 205.324,-32.7595
 L 204.914,-32.7091 L 204.508,-32.6386 L 204.106,-32.5482 L 203.709,-32.4383 L 203.317,-32.3089 L 202.932,-32.1606
 L 202.555,-31.9935 L 202.187,-31.8081 L 201.828,-31.6049 L 201.48,-31.3843 L 201.143,-31.1469 L 200.818,-30.8933
 L 200.506,-30.624 L 200.207,-30.3397 L 199.923,-30.0411 L 199.654,-29.7289 L 199.4,-29.4039 L 199.163,-29.0668
 L 198.942,-28.7184 L 198.739,-28.3597 L 198.553,-27.9914 L 198.386,-27.6145 L 198.238,-27.2299 L 198.109,-26.8384
 L 197.999,-26.441 L 197.908,-26.0387 L 197.838,-25.6325 L 197.787,-25.2233 L 197.757,-24.8121 L 197.747,-24.4
 L 198.947,-23.2 L 200.547,-23.2 L 200.547,-21.6 L 201.747,-20.4 L 201.747,-24.4 L 201.752,-24.6159
 L 201.768,-24.8313 L 201.795,-25.0456 L 201.831,-25.2584 L 201.879,-25.4691 L 201.936,-25.6772 L 202.004,-25.8823
 L 202.082,-26.0838 L 202.169,-26.2812 L 202.266,-26.4741 L 202.373,-26.662 L 202.488,-26.8445 L 202.613,-27.0211
 L 202.746,-27.1913 L 202.887,-27.3548 L 203.036,-27.5112 L 203.192,-27.6602 L 203.356,-27.8012 L 203.526,-27.9341
 L 203.702,-28.0584 L 203.885,-28.174 L 204.073,-28.2804 L 204.266,-28.3775 L 204.463,-28.465 L 204.665,-28.5428
 L 204.87,-28.6105 L 205.078,-28.6681 L 205.289,-28.7154 L 205.501,-28.7523 L 205.716,-28.7788 L 205.931,-28.7947
 L 206.147,-28.8 L 250.596,-28.8 L 250.812,-28.7947 L 251.027,-28.7788 L 251.242,-28.7523 L 251.454,-28.7154
 L 251.665,-28.6681 L 251.873,-28.6105 L 252.078,-28.5428 L 252.28,-28.465 L 252.477,-28.3775 L 252.67,-28.2804
 L 252.858,-28.174 L 253.04,-28.0584 L 253.217,-27.9341 L 253.387,-27.8012 L 253.551,-27.6602 L 253.707,-27.5112
 L 253.856,-27.3548 L 253.997,-27.1913 L 254.13,-27.0211 L 254.254,-26.8445 L 254.37,-26.662 L 254.476,-26.4741
 L 254.573,-26.2812 L 254.661,-26.0838 L 254.739,-25.8823 L 254.806,-25.6772 L 254.864,-25.4691 L 254.911,-25.2584
 L 254.948,-25.0456 L 254.975,-24.8313 L 254.991,-24.6159 L 254.996,-24.4 L 256.196,-23.2 L 257.796,-23.2
 L 257.796,-21.6 L 258.996,-20.4 z
M 58.2611,-5.01012 L 58.6723,-5.04044 L 59.0815,-5.09091 L 59.4877,-5.16139 L 59.89,-5.25172 L 60.2874,-5.36169
 L 60.6788,-5.49103 L 61.0635,-5.6394 L 61.4404,-5.80649 L 61.8087,-5.99185 L 62.1674,-6.19507 L 62.5158,-6.41565
 L 62.8528,-6.65305 L 63.1779,-6.90671 L 63.4901,-7.17601 L 63.7887,-7.4603 L 64.073,-7.7589 L 64.3423,-8.07109
 L 64.5959,-8.39612 L 64.8333,-8.7332 L 65.0539,-9.08153 L 65.2571,-9.44026 L 65.4425,-9.80853 L 65.6096,-10.1855
 L 65.7579,-10.5701 L 65.8873,-10.9616 L 65.9972,-11.359 L 66.0876,-11.7612 L 66.1581,-12.1675 L 66.2085,-12.5766
 L 66.2388,-12.9878 L 66.249,-13.4 L 66.249,-17.4 L 65.049,-16.2 L 65.049,-14.6 L 63.449,-14.6
 L 62.249,-13.4 L 62.2437,-13.1841 L 62.2278,-12.9687 L 62.2013,-12.7544 L 62.1644,-12.5416 L 62.1171,-12.3309
 L 62.0595,-12.1227 L 61.9918,-11.9177 L 61.914,-11.7162 L 61.8265,-11.5188 L 61.7294,-11.3259 L 61.623,-11.1379
 L 61.5074,-10.9555 L 61.3831,-10.7789 L 61.2502,-10.6087 L 61.1091,-10.4451 L 60.9602,-10.2887 L 60.8038,-10.1398
 L 60.6403,-9.99875 L 60.47,-9.86588 L 60.2935,-9.74153 L 60.111,-9.62599 L 59.9231,-9.51955 L 59.7302,-9.42244
 L 59.5328,-9.33493 L 59.3313,-9.2572 L 59.1262,-9.18945 L 58.9181,-9.13185 L 58.7074,-9.08453 L 58.4946,-9.04762
 L 58.2802,-9.02118 L 58.0649,-9.00529 L 57.849,-9 L 13.4,-9 L 13.1841,-9.00529 L 12.9687,-9.02118
 L 12.7544,-9.04762 L 12.5416,-9.08453 L 12.3309,-9.13185 L 12.1227,-9.18945 L 11.9177,-9.2572 L 11.7162,-9.33493
 L 11.5188,-9.42244 L 11.3259,-9.51955 L 11.1379,-9.62599 L 10.9555,-9.74153 L 10.7789,-9.86588 L 10.6087,-9.99875
 L 10.4451,-10.1398 L 10.2887,-10.2887 L 10.1398,-10.4451 L 9.99875,-10.6087 L 9.86588,-10.7789 L 9.74153,-10.9555
 L 9.62599,-11.1379 L 9.51955,-11.3259 L 9.42244,-11.5188 L 9.33493,-11.7162 L 9.2572,-11.9177 L 9.18945,-12.1227
 L 9.13185,-12.3309 L 9.08453,-12.5416 L 9.04762,-12.7544 L 9.02118,-12.9687 L 9.00529,-13.1841 L 9,-13.4
 L 9,-17.4 L 7.79999,-16.2 L 7.79999,-14.6 L 6.2,-14.6 L 5,-13.4 L 5.01012,-12.9878
 L 5.04044,-12.5766 L 5.09091,-12.1675 L 5.16139,-11.7612 L 5.25172,-11.359 L 5.36169,-10.9616 L 5.49103,-10.5701
 L 5.6394,-10.1855 L 5.80649,-9.80853 L 5.99185,-9.44026 L 6.19507,-9.08153 L 6.41565,-8.7332 L 6.65305,-8.39612
 L 6.90671,-8.07109 L 7.17601,-7.7589 L 7.4603,-7.4603 L 7.7589,-7.17601 L 8.07109,-6.90671 L 8.39612,-6.65305
 L 8.7332,-6.41565 L 9.08153,-6.19507 L 9.44026,-5.99185 L 9.80853,-5.80649 L 10.1855,-5.6394 L 10.5701,-5.49103
 L 10.9616,-5.36169 L 11.359,-5.25172 L 11.7612,-5.16139 L 12.1675,-5.09091 L 12.5766,-5.04044 L 12.9878,-5.01012
 L 13.4,-5 L 57.849,-5 z
M 186.759,-5.01012 L 187.17,-5.04044 L 187.579,-5.09091 L 187.986,-5.16139 L 188.388,-5.25172 L 188.785,-5.36169
 L 189.177,-5.49103 L 189.561,-5.6394 L 189.938,-5.80649 L 190.307,-5.99185 L 190.665,-6.19507 L 191.014,-6.41565
 L 191.351,-6.65305 L 191.676,-6.90671 L 191.988,-7.17601 L 192.287,-7.4603 L 192.571,-7.7589 L 192.84,-8.07109
 L 193.094,-8.39612 L 193.331,-8.7332 L 193.552,-9.08153 L 193.755,-9.44026 L 193.94,-9.80853 L 194.108,-10.1855
 L 194.256,-10.5701 L 194.385,-10.9616 L 194.495,-11.359 L 194.586,-11.7612 L 194.656,-12.1675 L 194.706,-12.5766
 L 194.737,-12.9878 L 194.747,-13.4 L 194.747,-17.4 L 193.547,-16.2 L 193.547,-14.6 L 191.947,-14.6
 L 190.747,-13.4 L 190.742,-13.1841 L 190.726,-12.9687 L 190.699,-12.7544 L 190.662,-12.5416 L 190.615,-12.3309
 L 190.557,-12.1227 L 190.49,-11.9177 L 190.412,-11.7162 L 190.324,-11.5188 L 190.227,-11.3259 L 190.121,-11.1379
 L 190.005,-10.9555 L 189.881,-10.7789 L 189.748,-10.6087 L 189.607,-10.4451 L 189.458,-10.2887 L 189.302,-10.1398
 L 189.138,-9.99875 L 188.968,-9.86588 L 188.791,-9.74153 L 188.609,-9.62599 L 188.421,-9.51955 L 188.228,-9.42244
 L 188.031,-9.33493 L 187.829,-9.2572 L 187.624,-9.18945 L 187.416,-9.13185 L 187.205,-9.08453 L 186.993,-9.04762
 L 186.778,-9.02118 L 186.563,-9.00529 L 186.347,-9 L 141.898,-9 L 141.682,-9.00529 L 141.467,-9.02118
 L 141.252,-9.04762 L 141.04,-9.08453 L 140.829,-9.13185 L 140.621,-9.18945 L 140.416,-9.2572 L 140.214,-9.33493
 L 140.017,-9.42244 L 139.824,-9.51955 L 139.636,-9.62599 L 139.453,-9.74153 L 139.277,-9.86588 L 139.107,-9.99875
 L 138.943,-10.1398 L 138.787,-10.2887 L 138.638,-10.4451 L 138.497,-10.6087 L 138.364,-10.7789 L 138.239,-10.9555
 L 138.124,-11.1379 L 138.018,-11.3259 L 137.92,-11.5188 L 137.833,-11.7162 L 137.755,-11.9177 L 137.687,-12.1227
 L 137.63,-12.3309 L 137.582,-12.5416 L 137.546,-12.7544 L 137.519,-12.9687 L 137.503,-13.1841 L 137.498,-13.4
 L 137.498,-17.4 L 136.298,-16.2 L 136.298,-14.6 L 134.698,-14.6 L 133.498,-13.4 L 133.508,-12.9878
 L 133.538,-12.5766 L 133.589,-12.1675 L 133.659,-11.7612 L 133.75,-11.359 L 133.86,-10.9616 L 133.989,-10.5701
 L 134.137,-10.1855 L 134.304,-9.80853 L 134.49,-9.44026 L 134.693,-9.08153 L 134.914,-8.7332 L 135.151,-8.39612
 L 135.405,-8.07109 L 135.674,-7.7589 L 135.958,-7.4603 L 136.257,-7.17601 L 136.569,-6.90671 L 136.894,-6.65305
 L 137.231,-6.41565 L 137.579,-6.19507 L 137.938,-5.99185 L 138.306,-5.80649 L 138.683,-5.6394 L 139.068,-5.49103
 L 139.46,-5.36169 L 139.857,-5.25172 L 140.259,-5.16139 L 140.665,-5.09091 L 141.075,-5.04044 L 141.486,-5.01012
 L 141.898,-5 L 186.347,-5 z
M 258.996,-9 L 258.986,-9.41216 L 258.955,-9.82333 L 258.905,-10.2325 L 258.835,-10.6387 L 258.744,-11.041
 L 258.634,-11.4384 L 258.505,-11.8299 L 258.356,-12.2145 L 258.189,-12.5914 L 258.004,-12.9597 L 257.801,-13.3185
 L 257.58,-13.6668 L 257.343,-14.0039 L 257.089,-14.3289 L 256.82,-14.6411 L 256.536,-14.9397 L 256.237,-15.224
 L 255.925,-15.4933 L 255.6,-15.7469 L 255.263,-15.9843 L 254.914,-16.2049 L 254.556,-16.4081 L 254.187,-16.5935
 L 253.81,-16.7606 L 253.426,-16.909 L 253.034,-17.0383 L 252.637,-17.1483 L 252.235,-17.2386 L 251.828,-17.3091
 L 251.419,-17.3595 L 251.008,-17.3899 L 250.596,-17.4 L 206.147,-17.4 L 205.735,-17.3899 L 205.324,-17.3595
 L 204.914,-17.3091 L 204.508,-17.2386 L 204.106,-17.1483 L 203.709,-17.0383 L 203.317,-16.909 L 202.932,-16.7606
 L 202.555,-16.5935 L 202.187,-16.4081 L 201.828,-16.2049 L 201.48,-15.9843 L 201.143,-15.7469 L 200.818,-15.4933
 L 200.506,-15.224 L 200.207,-14.9397 L 199.923,-14.6411 L 199.654,-14.3289 L 199.4,-14.0039 L 199.163,-13.6668
 L 198.942,-13.3185 L 198.739,-12.9597 L 198.553,-12.5914 L 198.386,-12.2145 L 198.238,-11.8299 L 198.109,-11.4384
 L 197.999,-11.041 L 197.908,-10.6387 L 197.838,-10.2325 L 197.787,-9.82333 L 197.757,-9.41216 L 197.747,-8.99998
 L 198.947,-7.8 L 200.547,-7.8 L 200.547,-6.20001 L 201.747,-5 L 201.747,-9 L 201.752,-9.21588
 L 201.768,-9.43126 L 201.795,-9.6456 L 201.831,-9.85838 L 201.879,-10.0691 L 201.936,-10.2772 L 202.004,-10.4823
 L 202.082,-10.6838 L 202.169,-10.8812 L 202.266,-11.0741 L 202.373,-11.262 L 202.488,-11.4445 L 202.613,-11.6211
 L 202.746,-11.7913 L 202.887,-11.9548 L 203.036,-12.1113 L 203.192,-12.2602 L 203.356,-12.4012 L 203.526,-12.5341
 L 203.702,-12.6584 L 203.885,-12.774 L 204.073,-12.8804 L 204.266,-12.9775 L 204.463,-13.065 L 204.665,-13.1428
 L 204.87,-13.2105 L 205.078,-13.2681 L 205.289,-13.3154 L 205.501,-13.3524 L 205.716,-13.3788 L 205.931,-13.3947
 L 206.147,-13.4 L 250.596,-13.4 L 250.812,-13.3947 L 251.027,-13.3788 L 251.242,-13.3524 L 251.454,-13.3154
 L 251.665,-13.2681 L 251.873,-13.2105 L 252.078,-13.1428 L 252.28,-13.065 L 252.477,-12.9775 L 252.67,-12.8804
 L 252.858,-12.774 L 253.04,-12.6584 L 253.217,-12.5341 L 253.387,-12.4012 L 253.551,-12.2602 L 253.707,-12.1113
 L 253.856,-11.9548 L 253.997,-11.7913 L 254.13,-11.6211 L 254.254,-11.4445 L 254.37,-11.262 L 254.476,-11.0741
 L 254.573,-10.8812 L 254.661,-10.6838 L 254.739,-10.4823 L 254.806,-10.2772 L 254.864,-10.0691 L 254.911,-9.85838
 L 254.948,-9.6456 L 254.975,-9.43126 L 254.991,-9.21588 L 254.996,-8.99998 L 256.196,-7.8 L 257.796,-7.8
 L 257.796,-6.20001 L 258.996,-5 z
M 130.498,-9 L 130.488,-9.41216 L 130.458,-9.82333 L 130.407,-10.2325 L 130.337,-10.6387 L 130.246,-11.041
 L 130.136,-11.4384 L 130.007,-11.8299 L 129.859,-12.2145 L 129.691,-12.5914 L 129.506,-12.9597 L 129.303,-13.3185
 L 129.082,-13.6668 L 128.845,-14.0039 L 128.591,-14.3289 L 128.322,-14.6411 L 128.038,-14.9397 L 127.739,-15.224
 L 127.427,-15.4933 L 127.102,-15.7469 L 126.765,-15.9843 L 126.416,-16.2049 L 126.058,-16.4081 L 125.689,-16.5935
 L 125.312,-16.7606 L 124.928,-16.909 L 124.536,-17.0383 L 124.139,-17.1483 L 123.737,-17.2386 L 123.33,-17.3091
 L 122.921,-17.3595 L 122.51,-17.3899 L 122.098,-17.4 L 77.649,-17.4 L 77.2368,-17.3899 L 76.8256,-17.3595
 L 76.4164,-17.3091 L 76.0102,-17.2386 L 75.6079,-17.1483 L 75.2106,-17.0383 L 74.8191,-16.909 L 74.4344,-16.7606
 L 74.0575,-16.5935 L 73.6892,-16.4081 L 73.3305,-16.2049 L 72.9822,-15.9843 L 72.6451,-15.7469 L 72.3201,-15.4933
 L 72.0079,-15.224 L 71.7093,-14.9397 L 71.425,-14.6411 L 71.1557,-14.3289 L 70.902,-14.0039 L 70.6646,-13.6668
 L 70.444,-13.3185 L 70.2408,-12.9597 L 70.0555,-12.5914 L 69.8884,-12.2145 L 69.74,-11.8299 L 69.6107,-11.4384
 L 69.5007,-11.041 L 69.4104,-10.6387 L 69.3399,-10.2325 L 69.2894,-9.82333 L 69.2591,-9.41216 L 69.249,-8.99998
 L 70.449,-7.8 L 72.049,-7.8 L 72.049,-6.20001 L 73.249,-5 L 73.249,-9 L 73.2543,-9.21588
 L 73.2702,-9.43126 L 73.2966,-9.6456 L 73.3335,-9.85838 L 73.3808,-10.0691 L 73.4384,-10.2772 L 73.5062,-10.4823
 L 73.5839,-10.6838 L 73.6714,-10.8812 L 73.7685,-11.0741 L 73.875,-11.262 L 73.9905,-11.4445 L 74.1149,-11.6211
 L 74.2477,-11.7913 L 74.3888,-11.9548 L 74.5377,-12.1113 L 74.6941,-12.2602 L 74.8576,-12.4012 L 75.0279,-12.5341
 L 75.2045,-12.6584 L 75.3869,-12.774 L 75.5748,-12.8804 L 75.7677,-12.9775 L 75.9652,-13.065 L 76.1667,-13.1428
 L 76.3717,-13.2105 L 76.5799,-13.2681 L 76.7906,-13.3154 L 77.0034,-13.3524 L 77.2177,-13.3788 L 77.4331,-13.3947
 L 77.649,-13.4 L 122.098,-13.4 L 122.314,-13.3947 L 122.529,-13.3788 L 122.744,-13.3524 L 122.956,-13.3154
 L 123.167,-13.2681 L 123.375,-13.2105 L 123.58,-13.1428 L 123.782,-13.065 L 123.979,-12.9775 L 124.172,-12.8804
 L 124.36,-12.774 L 124.542,-12.6584 L 124.719,-12.5341 L 124.889,-12.4012 L 125.053,-12.2602 L 125.209,-12.1113
 L 125.358,-11.9548 L 125.499,-11.7913 L 125.632,-11.6211 L 125.756,-11.4445 L 125.872,-11.262 L 125.978,-11.0741
 L 126.076,-10.8812 L 126.163,-10.6838 L 126.241,-10.4823 L 126.308,-10.2772 L 126.366,-10.0691 L 126.413,-9.85838
 L 126.45,-9.6456 L 126.477,-9.43126 L 126.493,-9.21588 L 126.498,-8.99998 L 127.698,-7.8 L 129.298,-7.8
 L 129.298,-6.20001 L 130.498,-5 z
" stroke="black" fill="lightgray" stroke-width="0.5"/>
</svg>
