<?xml version="1.0" standalone="no"?>
<!DOCTYPE svg PUBLIC "-//W3C//DTD SVG 1.1//EN" "http://www.w3.org/Graphics/SVG/1.1/DTD/svg11.dtd">
<svg width="235mm" height="190mm" viewBox="5 -195 235 190" xmlns="http://www.w3.org/2000/svg" version="1.1">
<title>OpenSCAD Model</title>
<path d="
M 88.7233,-194.4 L 5,-194.4 L 5,-190.4 L 88.7233,-190.4 z
M 189.789,-97.4108 L 190.229,-97.4433 L 190.667,-97.4974 L 191.103,-97.5729 L 191.534,-97.6697 L 191.959,-97.7875
 L 192.379,-97.9261 L 192.791,-98.0851 L 193.195,-98.2641 L 193.589,-98.4627 L 193.974,-98.6804 L 194.347,-98.9168
 L 194.708,-99.1711 L 195.056,-99.4429 L 195.391,-99.7314 L 195.711,-100.036 L 196.015,-100.356 L 196.304,-100.69
 L 196.576,-101.039 L 196.83,-101.4 L 197.066,-101.773 L 197.284,-102.157 L 197.483,-102.552 L 197.662,-102.956
 L 197.821,-103.368 L 197.959,-103.787 L 198.077,-104.213 L 198.174,-104.644 L 198.25,-105.079 L 198.304,-105.518
 L 198.336,-105.958 L 198.347,-106.4 L 198.347,-178.4 L 198.336,-178.842 L 198.304,-179.282 L 198.25,-179.721
 L 198.174,-180.156 L 198.077,-180.587 L 197.959,-181.013 L 197.821,-181.432 L 197.662,-181.844 L 197.483,-182.248
 L 197.284,-182.643 L 197.066,-183.027 L 196.83,-183.4 L 196.576,-183.761 L 196.304,-184.11 L 196.015,-184.444
 L 195.711,-184.764 L 195.391,-185.069 L 195.056,-185.357 L 194.708,-185.629 L 194.347,-185.883 L 193.974,-186.12
 L 193.589,-186.337 L 193.195,-186.536 L 192.791,-186.715 L 192.379,-186.874 L 191.959,-187.012 L 191.534,-187.13
 L 191.103,-187.227 L 190.667,-187.303 L 190.229,-187.357 L 189.789,-187.389 L 189.347,-187.4 L 144.898,-187.4
 L 144.456,-187.389 L 144.016,-187.357 L 143.577,-187.303 L 143.142,-187.227 L 142.711,-187.13 L 142.285,-187.012
 L 141.866,-186.874 L 141.454,-186.715 L 141.05,-186.536 L 140.655,-186.337 L 140.271,-186.12 L 139.898,-185.883
 L 139.537,-185.629 L 139.188,-185.357 L 138.854,-185.069 L 138.534,-184.764 L 138.229,-184.444 L 137.941,-184.11
 L 137.669,-183.761 L 137.415,-183.4 L 137.178,-183.027 L 136.961,-182.643 L 136.762,-182.248 L 136.583,-181.844
 L 136.424,-181.432 L 136.285,-181.013 L 136.168,-180.587 L 136.071,-180.156 L 135.995,-179.721 L 135.941,-179.282
 L 135.909,-178.842 L 135.898,-178.4 L 135.898,-106.4 L 135.909,-105.958 L 135.941,-105.518 L 135.995,-105.079
 L 136.071,-104.644 L 136.168,-104.213 L 136.285,-103.787 L 136.424,-103.368 L 136.583,-102.956 L 136.762,-102.552
 L 136.961,-102.157 L 137.178,-101.773 L 137.415,-101.4 L 137.669,-101.039 L 137.941,-100.69 L 138.229,-100.356
 L 138.534,-100.036 L 138.854,-99.7314 L 139.188,-99.4429 L 139.537,-99.1711 L 139.898,-98.9168 L 140.271,-98.6804
 L 140.655,-98.4627 L 141.05,-98.2641 L 141.454,-98.0851 L 141.866,-97.9261 L 142.285,-97.7875 L 142.711,-97.6697
 L 143.142,-97.5729 L 143.577,-97.4974 L 144.016,-97.4433 L 144.456,-97.4108 L 144.898,-97.4 L 189.347,-97.4
 z
M 58.0649,-97.4053 L 58.2802,-97.4212 L 58.4946,-97.4476 L 58.7074,-97.4845 L 58.9181,-97.5318 L 59.1262,-97.5894
 L 59.3313,-97.6572 L 59.5328,-97.7349 L 59.7302,-97.8224 L 59.9231,-97.9195 L 60.111,-98.026 L 60.2935,-98.1415
 L 60.47,-98.2659 L 60.6403,-98.3987 L 60.8038,-98.5398 L 60.9602,-98.6887 L 61.1092,-98.8451 L 61.2502,-99.0087
 L 61.3831,-99.1789 L 61.5074,-99.3555 L 61.623,-99.5379 L 61.7294,-99.7258 L 61.8265,-99.9187 L 61.914,-100.116
 L 61.9918,-100.318 L 62.0595,-100.523 L 62.1171,-100.731 L 62.1644,-100.942 L 62.2013,-101.154 L 62.2278,-101.369
 L 62.2437,-101.584 L 62.249,-101.8 L 62.249,-107.4 L 67.449,-107.4 L 67.449,-172.9 L 67.4381,-173.342
 L 67.4056,-173.782 L 67.3516,-174.221 L 67.276,-174.656 L 67.1793,-175.087 L 67.0614,-175.513 L 66.9229,-175.932
 L 66.7639,-176.344 L 66.5849,-176.748 L 66.3863,-177.143 L 66.1685,-177.527 L 65.9322,-177.9 L 65.6778,-178.261
 L 65.4061,-178.61 L 65.1175,-178.944 L 64.8129,-179.264 L 64.493,-179.569 L 64.1585,-179.857 L 63.8103,-180.129
 L 63.4491,-180.383 L 63.0759,-180.62 L 62.6915,-180.837 L 62.297,-181.036 L 61.8931,-181.215 L 61.481,-181.374
 L 61.0615,-181.512 L 60.6358,-181.63 L 60.2048,-181.727 L 59.7695,-181.803 L 59.3311,-181.857 L 58.8906,-181.889
 L 58.449,-181.9 L 14,-181.9 L 13.5584,-181.889 L 13.1178,-181.857 L 12.6794,-181.803 L 12.2442,-181.727
 L 11.8132,-181.63 L 11.3874,-181.512 L 10.968,-181.374 L 10.5558,-181.215 L 10.152,-181.036 L 9.75742,-180.837
 L 9.37306,-180.62 L 8.99986,-180.383 L 8.6387,-180.129 L 8.29045,-179.857 L 7.95596,-179.569 L 7.63603,-179.264
 L 7.33144,-178.944 L 7.04289,-178.61 L 6.77112,-178.261 L 6.51677,-177.9 L 6.28044,-177.527 L 6.0627,-177.143
 L 5.86409,-176.748 L 5.68507,-176.344 L 5.52609,-175.932 L 5.38753,-175.513 L 5.26971,-175.087 L 5.17293,-174.656
 L 5.0974,-174.221 L 5.04333,-173.782 L 5.01083,-173.342 L 5,-172.9 L 5,-107.4 L 10.2,-107.4
 L 10.2,-101.8 L 10.2053,-101.584 L 10.2212,-101.369 L 10.2476,-101.154 L 10.2845,-100.942 L 10.3318,-100.731
 L 10.3895,-100.523 L 10.4572,-100.318 L 10.5349,-100.116 L 10.6224,-99.9187 L 10.7195,-99.7258 L 10.826,-99.5379
 L 10.9415,-99.3555 L 11.0659,-99.1789 L 11.1987,-99.0087 L 11.3398,-98.8451 L 11.4887,-98.6887 L 11.6451,-98.5398
 L 11.8087,-98.3987 L 11.9789,-98.2659 L 12.1555,-98.1415 L 12.3379,-98.026 L 12.5258,-97.9195 L 12.7188,-97.8224
 L 12.9162,-97.7349 L 13.1177,-97.6572 L 13.3227,-97.5894 L 13.5309,-97.5318 L 13.7416,-97.4845 L 13.9544,-97.4476
 L 14.1687,-97.4212 L 14.3841,-97.4053 L 14.6,-97.4 L 57.849,-97.4 z
M 35.581,-120.636 L 34.9391,-120.684 L 34.3002,-120.763 L 33.666,-120.873 L 33.038,-121.014 L 32.4176,-121.185
 L 31.8064,-121.387 L 31.2059,-121.619 L 30.6174,-121.88 L 30.0424,-122.169 L 29.4824,-122.486 L 28.9386,-122.831
 L 28.4123,-123.201 L 27.9049,-123.598 L 27.4175,-124.018 L 26.9513,-124.462 L 26.5074,-124.928 L 26.087,-125.415
 L 25.691,-125.923 L 25.3204,-126.449 L 24.976,-126.993 L 24.6587,-127.553 L 24.3693,-128.128 L 24.1085,-128.716
 L 23.8768,-129.317 L 23.6749,-129.928 L 23.5032,-130.548 L 23.3622,-131.177 L 23.2521,-131.811 L 23.1733,-132.45
 L 23.126,-133.091 L 23.1102,-133.735 L 23.126,-134.378 L 23.1733,-135.02 L 23.2521,-135.659 L 23.3622,-136.293
 L 23.5032,-136.921 L 23.6749,-137.542 L 23.8768,-138.153 L 24.1085,-138.754 L 24.3693,-139.342 L 24.6587,-139.917
 L 24.976,-140.477 L 25.3204,-141.021 L 25.691,-141.547 L 26.087,-142.055 L 26.5074,-142.542 L 26.9513,-143.008
 L 27.4175,-143.452 L 27.9049,-143.872 L 28.4123,-144.268 L 28.9386,-144.639 L 29.4824,-144.983 L 30.0424,-145.301
 L 30.6174,-145.59 L 31.2059,-145.851 L 31.8064,-146.083 L 32.4176,-146.285 L 33.038,-146.456 L 33.666,-146.597
 L 34.3002,-146.707 L 34.9391,-146.786 L 35.581,-146.833 L 36.2245,-146.849 L 36.868,-146.833 L 37.5099,-146.786
 L 38.1487,-146.707 L 38.783,-146.597 L 39.411,-146.456 L 40.0314,-146.285 L 40.6425,-146.083 L 41.2431,-145.851
 L 41.8316,-145.59 L 42.4065,-145.301 L 42.9666,-144.983 L 43.5104,-144.639 L 44.0367,-144.268 L 44.5441,-143.872
 L 45.0315,-143.452 L 45.4977,-143.008 L 45.9415,-142.542 L 46.362,-142.055 L 46.758,-141.547 L 47.1286,-141.021
 L 47.473,-140.477 L 47.7903,-139.917 L 48.0797,-139.342 L 48.3405,-138.754 L 48.5722,-138.153 L 48.7741,-137.542
 L 48.9458,-136.921 L 49.0868,-136.293 L 49.1968,-135.659 L 49.2756,-135.02 L 49.323,-134.378 L 49.3388,-133.735
 L 49.323,-133.091 L 49.2756,-132.45 L 49.1968,-131.811 L 49.0868,-131.177 L 48.9458,-130.548 L 48.7741,-129.928
 L 48.5722,-129.317 L 48.3405,-128.716 L 48.0797,-128.128 L 47.7903,-127.553 L 47.473,-126.993 L 47.1286,-126.449
 L 46.758,-125.923 L 46.362,-125.415 L 45.9415,-124.928 L 45.4977,-124.462 L 45.0315,-124.018 L 44.5441,-123.598
 L 44.0367,-123.201 L 43.5104,-122.831 L 42.9666,-122.486 L 42.4065,-122.169 L 41.8316,-121.88 L 41.2431,-121.619
 L 40.6425,-121.387 L 40.0314,-121.185 L 39.411,-121.014 L 38.783,-120.873 L 38.1487,-120.763 L 37.5099,-120.684
 L 36.868,-120.636 L 36.2245,-120.621 z
M 124.34,-97.4108 L 124.78,-97.4433 L 125.219,-97.4974 L 125.654,-97.5729 L 126.085,-97.6697 L 126.511,-97.7875
 L 126.93,-97.9261 L 127.342,-98.0851 L 127.746,-98.2641 L 128.141,-98.4627 L 128.525,-98.6804 L 128.898,-98.9168
 L 129.259,-99.1711 L 129.607,-99.4429 L 129.942,-99.7314 L 130.262,-100.036 L 130.567,-100.356 L 130.855,-100.69
 L 131.127,-101.039 L 131.381,-101.4 L 131.618,-101.773 L 131.835,-102.157 L 132.034,-102.552 L 132.213,-102.956
 L 132.372,-103.368 L 132.51,-103.787 L 132.628,-104.213 L 132.725,-104.644 L 132.801,-105.079 L 132.855,-105.518
 L 132.887,-105.958 L 132.898,-106.4 L 132.898,-111.9 L 128.298,-111.9 L 128.298,-106.4 L 128.293,-106.184
 L 128.277,-105.969 L 128.25,-105.754 L 128.213,-105.542 L 128.166,-105.331 L 128.108,-105.123 L 128.041,-104.918
 L 127.963,-104.716 L 127.876,-104.519 L 127.778,-104.326 L 127.672,-104.138 L 127.556,-103.955 L 127.432,-103.779
 L 127.299,-103.609 L 127.158,-103.445 L 127.009,-103.289 L 126.853,-103.14 L 126.689,-102.999 L 126.519,-102.866
 L 126.342,-102.742 L 126.16,-102.626 L 125.972,-102.52 L 125.779,-102.422 L 125.582,-102.335 L 125.38,-102.257
 L 125.175,-102.189 L 124.967,-102.132 L 124.756,-102.085 L 124.544,-102.048 L 124.329,-102.021 L 124.114,-102.005
 L 123.898,-102 L 79.449,-102 L 79.2331,-102.005 L 79.0177,-102.021 L 78.8034,-102.048 L 78.5906,-102.085
 L 78.3799,-102.132 L 78.1717,-102.189 L 77.9667,-102.257 L 77.7652,-102.335 L 77.5677,-102.422 L 77.3748,-102.52
 L 77.1869,-102.626 L 77.0045,-102.742 L 76.8279,-102.866 L 76.6576,-102.999 L 76.4941,-103.14 L 76.3377,-103.289
 L 76.1888,-103.445 L 76.0477,-103.609 L 75.9149,-103.779 L 75.7905,-103.955 L 75.675,-104.138 L 75.5685,-104.326
 L 75.4714,-104.519 L 75.3839,-104.716 L 75.3062,-104.918 L 75.2384,-105.123 L 75.1808,-105.331 L 75.1335,-105.542
 L 75.0966,-105.754 L 75.0702,-105.969 L 75.0543,-106.184 L 75.049,-106.4 L 75.049,-111.9 L 70.449,-111.9
 L 70.449,-106.4 L 70.4598,-105.958 L 70.4923,-105.518 L 70.5464,-105.079 L 70.6219,-104.644 L 70.7187,-104.213
 L 70.8365,-103.787 L 70.9751,-103.368 L 71.1341,-102.956 L 71.3131,-102.552 L 71.5117,-102.157 L 71.7294,-101.773
 L 71.9657,-101.4 L 72.2201,-101.039 L 72.4919,-100.69 L 72.7804,-100.356 L 73.085,-100.036 L 73.4049,-99.7314
 L 73.7394,-99.4429 L 74.0877,-99.1711 L 74.4488,-98.9168 L 74.8221,-98.6804 L 75.2064,-98.4627 L 75.601,-98.2641
 L 76.0048,-98.0851 L 76.417,-97.9261 L 76.8364,-97.7875 L 77.2621,-97.6697 L 77.6932,-97.5729 L 78.1284,-97.4974
 L 78.5668,-97.4433 L 79.0074,-97.4108 L 79.449,-97.4 L 123.898,-97.4 z
M 239.723,-94.4 L 5,-94.4 L 5,-5 L 239.723,-5 z
" stroke="black" fill="lightgray" stroke-width="0.5"/>
</svg>
