<?xml version="1.0" standalone="no"?>
<!DOCTYPE svg PUBLIC "-//W3C//DTD SVG 1.1//EN" "http://www.w3.org/Graphics/SVG/1.1/DTD/svg11.dtd">
<svg width="584mm" height="1644mm" viewBox="10 -1644 584 1644" xmlns="http://www.w3.org/2000/svg" version="1.1">
<title>OpenSCAD Model</title>
<path d="
M 249.667,-1643 L 233,-1643 L 233,-1400 L 249.667,-1400 z
M 267.333,-1643 L 250.667,-1643 L 250.667,-1400 L 267.333,-1400 z
M 285,-1643 L 268.333,-1643 L 268.333,-1400 L 285,-1400 z
M 302.667,-1643 L 286,-1643 L 286,-1400 L 302.667,-1400 z
M 320.333,-1643 L 303.667,-1643 L 303.667,-1400 L 320.333,-1400 z
M 338,-1643 L 321.333,-1643 L 321.333,-1400 L 338,-1400 z
M 355.667,-1643 L 339,-1643 L 339,-1400 L 355.667,-1400 z
M 373.333,-1643 L 356.667,-1643 L 356.667,-1400 L 373.333,-1400 z
M 391,-1643 L 374.333,-1643 L 374.333,-1400 L 391,-1400 z
M 17.7778,-1421 L 11,-1421 L 11,-1178 L 17.7778,-1178 z
M 25.5556,-1421 L 18.7778,-1421 L 18.7778,-1178 L 25.5556,-1178 z
M 33.3333,-1421 L 26.5556,-1421 L 26.5556,-1178 L 33.3333,-1178 z
M 41.1111,-1421 L 34.3333,-1421 L 34.3333,-1178 L 41.1111,-1178 z
M 48.8889,-1421 L 42.1111,-1421 L 42.1111,-1178 L 48.8889,-1178 z
M 56.6667,-1421 L 49.8889,-1421 L 49.8889,-1178 L 56.6667,-1178 z
M 64.4444,-1421 L 57.6667,-1421 L 57.6667,-1178 L 64.4444,-1178 z
M 72.2222,-1421 L 65.4444,-1421 L 65.4444,-1178 L 72.2222,-1178 z
M 80,-1421 L 73.2222,-1421 L 73.2222,-1178 L 80,-1178 z
M 530.778,-1421 L 524,-1421 L 524,-1178 L 530.778,-1178 z
M 538.556,-1421 L 531.778,-1421 L 531.778,-1178 L 538.556,-1178 z
M 546.333,-1421 L 539.556,-1421 L 539.556,-1178 L 546.333,-1178 z
M 554.111,-1421 L 547.333,-1421 L 547.333,-1178 L 554.111,-1178 z
M 561.889,-1421 L 555.111,-1421 L 555.111,-1178 L 561.889,-1178 z
M 569.667,-1421 L 562.889,-1421 L 562.889,-1178 L 569.667,-1178 z
M 577.444,-1421 L 570.667,-1421 L 570.667,-1178 L 577.444,-1178 z
M 585.222,-1421 L 578.444,-1421 L 578.444,-1178 L 585.222,-1178 z
M 593,-1421 L 586.222,-1421 L 586.222,-1178 L 593,-1178 z
M 249.667,-1177 L 233,-1177 L 233,-934 L 249.667,-934 z
M 267.333,-1177 L 250.667,-1177 L 250.667,-934 L 267.333,-934 z
M 285,-1177 L 268.333,-1177 L 268.333,-934 L 285,-934 z
M 302.667,-1177 L 286,-1177 L 286,-934 L 302.667,-934 z
M 320.333,-1177 L 303.667,-1177 L 303.667,-934 L 320.333,-934 z
M 338,-1177 L 321.333,-1177 L 321.333,-934 L 338,-934 z
M 355.667,-1177 L 339,-1177 L 339,-934 L 355.667,-934 z
M 373.333,-1177 L 356.667,-1177 L 356.667,-934 L 373.333,-934 z
M 391,-1177 L 374.333,-1177 L 374.333,-934 L 391,-934 z
M 249.667,-710 L 233,-710 L 233,-467 L 249.667,-467 z
M 267.333,-710 L 250.667,-710 L 250.667,-467 L 267.333,-467 z
M 285,-710 L 268.333,-710 L 268.333,-467 L 285,-467 z
M 302.667,-710 L 286,-710 L 286,-467 L 302.667,-467 z
M 320.333,-710 L 303.667,-710 L 303.667,-467 L 320.333,-467 z
M 338,-710 L 321.333,-710 L 321.333,-467 L 338,-467 z
M 355.667,-710 L 339,-710 L 339,-467 L 355.667,-467 z
M 373.333,-710 L 356.667,-710 L 356.667,-467 L 373.333,-467 z
M 391,-710 L 374.333,-710 L 374.333,-467 L 391,-467 z
M 17.7778,-488 L 11,-488 L 11,-245 L 17.7778,-245 z
M 25.5556,-488 L 18.7778,-488 L 18.7778,-245 L 25.5556,-245 z
M 33.3333,-488 L 26.5556,-488 L 26.5556,-245 L 33.3333,-245 z
M 41.1111,-488 L 34.3333,-488 L 34.3333,-245 L 41.1111,-245 z
M 48.8889,-488 L 42.1111,-488 L 42.1111,-245 L 48.8889,-245 z
M 56.6667,-488 L 49.8889,-488 L 49.8889,-245 L 56.6667,-245 z
M 64.4444,-488 L 57.6667,-488 L 57.6667,-245 L 64.4444,-245 z
M 72.2222,-488 L 65.4444,-488 L 65.4444,-245 L 72.2222,-245 z
M 80,-488 L 73.2222,-488 L 73.2222,-245 L 80,-245 z
M 530.778,-488 L 524,-488 L 524,-245 L 530.778,-245 z
M 538.556,-488 L 531.778,-488 L 531.778,-245 L 538.556,-245 z
M 546.333,-488 L 539.556,-488 L 539.556,-245 L 546.333,-245 z
M 554.111,-488 L 547.333,-488 L 547.333,-245 L 554.111,-245 z
M 561.889,-488 L 555.111,-488 L 555.111,-245 L 561.889,-245 z
M 569.667,-488 L 562.889,-488 L 562.889,-245 L 569.667,-245 z
M 577.444,-488 L 570.667,-488 L 570.667,-245 L 577.444,-245 z
M 585.222,-488 L 578.444,-488 L 578.444,-245 L 585.222,-245 z
M 593,-488 L 586.222,-488 L 586.222,-245 L 593,-245 z
M 249.667,-244 L 233,-244 L 233,-1 L 249.667,-1 z
M 267.333,-244 L 250.667,-244 L 250.667,-1 L 267.333,-1 z
M 285,-244 L 268.333,-244 L 268.333,-1 L 285,-1 z
M 302.667,-244 L 286,-244 L 286,-1 L 302.667,-1 z
M 320.333,-244 L 303.667,-244 L 303.667,-1 L 320.333,-1 z
M 338,-244 L 321.333,-244 L 321.333,-1 L 338,-1 z
M 355.667,-244 L 339,-244 L 339,-1 L 355.667,-1 z
M 373.333,-244 L 356.667,-244 L 356.667,-1 L 373.333,-1 z
M 391,-244 L 374.333,-244 L 374.333,-1 L 391,-1 z
" stroke="#000000" fill="none" stroke-width="0.35"/>
</svg>
