<?xml version="1.0" standalone="no"?>
<!DOCTYPE svg PUBLIC "-//W3C//DTD SVG 1.1//EN" "http://www.w3.org/Graphics/SVG/1.1/DTD/svg11.dtd">
<svg width="642mm" height="3510mm" viewBox="-10 -3510 642 3510" xmlns="http://www.w3.org/2000/svg" version="1.1">
<title>OpenSCAD Model</title>
<path d="
M 238,-3509 L 223,-3509 L 223,-3266 L 238,-3266 z
M 254,-3509 L 239,-3509 L 239,-3266 L 254,-3266 z
M 270,-3509 L 255,-3509 L 255,-3266 L 270,-3266 z
M 286,-3509 L 271,-3509 L 271,-3266 L 286,-3266 z
M 302,-3509 L 287,-3509 L 287,-3266 L 302,-3266 z
M 318,-3509 L 303,-3509 L 303,-3266 L 318,-3266 z
M 334,-3509 L 319,-3509 L 319,-3266 L 334,-3266 z
M 350,-3509 L 335,-3509 L 335,-3266 L 350,-3266 z
M 366,-3509 L 351,-3509 L 351,-3266 L 366,-3266 z
M 382,-3509 L 367,-3509 L 367,-3266 L 382,-3266 z
M 398,-3509 L 383,-3509 L 383,-3266 L 398,-3266 z
M 6,-3287 L -9,-3287 L -9,-3044 L 6,-3044 z
M 22,-3287 L 7,-3287 L 7,-3044 L 22,-3044 z
M 38,-3287 L 23,-3287 L 23,-3044 L 38,-3044 z
M 54,-3287 L 39,-3287 L 39,-3044 L 54,-3044 z
M 70,-3287 L 55,-3287 L 55,-3044 L 70,-3044 z
M 86,-3287 L 71,-3287 L 71,-3044 L 86,-3044 z
M 102,-3287 L 87,-3287 L 87,-3044 L 102,-3044 z
M 118,-3287 L 103,-3287 L 103,-3044 L 118,-3044 z
M 519,-3287 L 504,-3287 L 504,-3044 L 519,-3044 z
M 535,-3287 L 520,-3287 L 520,-3044 L 535,-3044 z
M 551,-3287 L 536,-3287 L 536,-3044 L 551,-3044 z
M 567,-3287 L 552,-3287 L 552,-3044 L 567,-3044 z
M 583,-3287 L 568,-3287 L 568,-3044 L 583,-3044 z
M 599,-3287 L 584,-3287 L 584,-3044 L 599,-3044 z
M 615,-3287 L 600,-3287 L 600,-3044 L 615,-3044 z
M 631,-3287 L 616,-3287 L 616,-3044 L 631,-3044 z
M 238,-3043 L 223,-3043 L 223,-2800 L 238,-2800 z
M 254,-3043 L 239,-3043 L 239,-2800 L 254,-2800 z
M 270,-3043 L 255,-3043 L 255,-2800 L 270,-2800 z
M 286,-3043 L 271,-3043 L 271,-2800 L 286,-2800 z
M 302,-3043 L 287,-3043 L 287,-2800 L 302,-2800 z
M 318,-3043 L 303,-3043 L 303,-2800 L 318,-2800 z
M 334,-3043 L 319,-3043 L 319,-2800 L 334,-2800 z
M 350,-3043 L 335,-3043 L 335,-2800 L 350,-2800 z
M 366,-3043 L 351,-3043 L 351,-2800 L 366,-2800 z
M 382,-3043 L 367,-3043 L 367,-2800 L 382,-2800 z
M 398,-3043 L 383,-3043 L 383,-2800 L 398,-2800 z
M 238,-2576 L 223,-2576 L 223,-2333 L 238,-2333 z
M 254,-2576 L 239,-2576 L 239,-2333 L 254,-2333 z
M 270,-2576 L 255,-2576 L 255,-2333 L 270,-2333 z
M 286,-2576 L 271,-2576 L 271,-2333 L 286,-2333 z
M 302,-2576 L 287,-2576 L 287,-2333 L 302,-2333 z
M 318,-2576 L 303,-2576 L 303,-2333 L 318,-2333 z
M 334,-2576 L 319,-2576 L 319,-2333 L 334,-2333 z
M 350,-2576 L 335,-2576 L 335,-2333 L 350,-2333 z
M 366,-2576 L 351,-2576 L 351,-2333 L 366,-2333 z
M 382,-2576 L 367,-2576 L 367,-2333 L 382,-2333 z
M 398,-2576 L 383,-2576 L 383,-2333 L 398,-2333 z
M 6,-2354 L -9,-2354 L -9,-2111 L 6,-2111 z
M 22,-2354 L 7,-2354 L 7,-2111 L 22,-2111 z
M 38,-2354 L 23,-2354 L 23,-2111 L 38,-2111 z
M 54,-2354 L 39,-2354 L 39,-2111 L 54,-2111 z
M 70,-2354 L 55,-2354 L 55,-2111 L 70,-2111 z
M 86,-2354 L 71,-2354 L 71,-2111 L 86,-2111 z
M 102,-2354 L 87,-2354 L 87,-2111 L 102,-2111 z
M 118,-2354 L 103,-2354 L 103,-2111 L 118,-2111 z
M 519,-2354 L 504,-2354 L 504,-2111 L 519,-2111 z
M 535,-2354 L 520,-2354 L 520,-2111 L 535,-2111 z
M 551,-2354 L 536,-2354 L 536,-2111 L 551,-2111 z
M 567,-2354 L 552,-2354 L 552,-2111 L 567,-2111 z
M 583,-2354 L 568,-2354 L 568,-2111 L 583,-2111 z
M 599,-2354 L 584,-2354 L 584,-2111 L 599,-2111 z
M 615,-2354 L 600,-2354 L 600,-2111 L 615,-2111 z
M 631,-2354 L 616,-2354 L 616,-2111 L 631,-2111 z
M 238,-2110 L 223,-2110 L 223,-1867 L 238,-1867 z
M 254,-2110 L 239,-2110 L 239,-1867 L 254,-1867 z
M 270,-2110 L 255,-2110 L 255,-1867 L 270,-1867 z
M 286,-2110 L 271,-2110 L 271,-1867 L 286,-1867 z
M 302,-2110 L 287,-2110 L 287,-1867 L 302,-1867 z
M 318,-2110 L 303,-2110 L 303,-1867 L 318,-1867 z
M 334,-2110 L 319,-2110 L 319,-1867 L 334,-1867 z
M 350,-2110 L 335,-2110 L 335,-1867 L 350,-1867 z
M 366,-2110 L 351,-2110 L 351,-1867 L 366,-1867 z
M 382,-2110 L 367,-2110 L 367,-1867 L 382,-1867 z
M 398,-2110 L 383,-2110 L 383,-1867 L 398,-1867 z
M 238,-1643 L 223,-1643 L 223,-1400 L 238,-1400 z
M 254,-1643 L 239,-1643 L 239,-1400 L 254,-1400 z
M 270,-1643 L 255,-1643 L 255,-1400 L 270,-1400 z
M 286,-1643 L 271,-1643 L 271,-1400 L 286,-1400 z
M 302,-1643 L 287,-1643 L 287,-1400 L 302,-1400 z
M 318,-1643 L 303,-1643 L 303,-1400 L 318,-1400 z
M 334,-1643 L 319,-1643 L 319,-1400 L 334,-1400 z
M 350,-1643 L 335,-1643 L 335,-1400 L 350,-1400 z
M 366,-1643 L 351,-1643 L 351,-1400 L 366,-1400 z
M 382,-1643 L 367,-1643 L 367,-1400 L 382,-1400 z
M 398,-1643 L 383,-1643 L 383,-1400 L 398,-1400 z
M 6,-1421 L -9,-1421 L -9,-1178 L 6,-1178 z
M 22,-1421 L 7,-1421 L 7,-1178 L 22,-1178 z
M 38,-1421 L 23,-1421 L 23,-1178 L 38,-1178 z
M 54,-1421 L 39,-1421 L 39,-1178 L 54,-1178 z
M 70,-1421 L 55,-1421 L 55,-1178 L 70,-1178 z
M 86,-1421 L 71,-1421 L 71,-1178 L 86,-1178 z
M 102,-1421 L 87,-1421 L 87,-1178 L 102,-1178 z
M 118,-1421 L 103,-1421 L 103,-1178 L 118,-1178 z
M 519,-1421 L 504,-1421 L 504,-1178 L 519,-1178 z
M 535,-1421 L 520,-1421 L 520,-1178 L 535,-1178 z
M 551,-1421 L 536,-1421 L 536,-1178 L 551,-1178 z
M 567,-1421 L 552,-1421 L 552,-1178 L 567,-1178 z
M 583,-1421 L 568,-1421 L 568,-1178 L 583,-1178 z
M 599,-1421 L 584,-1421 L 584,-1178 L 599,-1178 z
M 615,-1421 L 600,-1421 L 600,-1178 L 615,-1178 z
M 631,-1421 L 616,-1421 L 616,-1178 L 631,-1178 z
M 238,-1177 L 223,-1177 L 223,-934 L 238,-934 z
M 254,-1177 L 239,-1177 L 239,-934 L 254,-934 z
M 270,-1177 L 255,-1177 L 255,-934 L 270,-934 z
M 286,-1177 L 271,-1177 L 271,-934 L 286,-934 z
M 302,-1177 L 287,-1177 L 287,-934 L 302,-934 z
M 318,-1177 L 303,-1177 L 303,-934 L 318,-934 z
M 334,-1177 L 319,-1177 L 319,-934 L 334,-934 z
M 350,-1177 L 335,-1177 L 335,-934 L 350,-934 z
M 366,-1177 L 351,-1177 L 351,-934 L 366,-934 z
M 382,-1177 L 367,-1177 L 367,-934 L 382,-934 z
M 398,-1177 L 383,-1177 L 383,-934 L 398,-934 z
M 238,-710 L 223,-710 L 223,-467 L 238,-467 z
M 254,-710 L 239,-710 L 239,-467 L 254,-467 z
M 270,-710 L 255,-710 L 255,-467 L 270,-467 z
M 286,-710 L 271,-710 L 271,-467 L 286,-467 z
M 302,-710 L 287,-710 L 287,-467 L 302,-467 z
M 318,-710 L 303,-710 L 303,-467 L 318,-467 z
M 334,-710 L 319,-710 L 319,-467 L 334,-467 z
M 350,-710 L 335,-710 L 335,-467 L 350,-467 z
M 366,-710 L 351,-710 L 351,-467 L 366,-467 z
M 382,-710 L 367,-710 L 367,-467 L 382,-467 z
M 398,-710 L 383,-710 L 383,-467 L 398,-467 z
M 6,-488 L -9,-488 L -9,-245 L 6,-245 z
M 22,-488 L 7,-488 L 7,-245 L 22,-245 z
M 38,-488 L 23,-488 L 23,-245 L 38,-245 z
M 54,-488 L 39,-488 L 39,-245 L 54,-245 z
M 70,-488 L 55,-488 L 55,-245 L 70,-245 z
M 86,-488 L 71,-488 L 71,-245 L 86,-245 z
M 102,-488 L 87,-488 L 87,-245 L 102,-245 z
M 118,-488 L 103,-488 L 103,-245 L 118,-245 z
M 519,-488 L 504,-488 L 504,-245 L 519,-245 z
M 535,-488 L 520,-488 L 520,-245 L 535,-245 z
M 551,-488 L 536,-488 L 536,-245 L 551,-245 z
M 567,-488 L 552,-488 L 552,-245 L 567,-245 z
M 583,-488 L 568,-488 L 568,-245 L 583,-245 z
M 599,-488 L 584,-488 L 584,-245 L 599,-245 z
M 615,-488 L 600,-488 L 600,-245 L 615,-245 z
M 631,-488 L 616,-488 L 616,-245 L 631,-245 z
M 238,-244 L 223,-244 L 223,-1 L 238,-1 z
M 254,-244 L 239,-244 L 239,-1 L 254,-1 z
M 270,-244 L 255,-244 L 255,-1 L 270,-1 z
M 286,-244 L 271,-244 L 271,-1 L 286,-1 z
M 302,-244 L 287,-244 L 287,-1 L 302,-1 z
M 318,-244 L 303,-244 L 303,-1 L 318,-1 z
M 334,-244 L 319,-244 L 319,-1 L 334,-1 z
M 350,-244 L 335,-244 L 335,-1 L 350,-1 z
M 366,-244 L 351,-244 L 351,-1 L 366,-1 z
M 382,-244 L 367,-244 L 367,-1 L 382,-1 z
M 398,-244 L 383,-244 L 383,-1 L 398,-1 z
" stroke="#000000" fill="none" stroke-width="0.35"/>
</svg>
