<?xml version="1.0" standalone="no"?>
<!DOCTYPE svg PUBLIC "-//W3C//DTD SVG 1.1//EN" "http://www.w3.org/Graphics/SVG/1.1/DTD/svg11.dtd">
<svg width="685mm" height="3551mm" viewBox="0 -3551 685 3551" xmlns="http://www.w3.org/2000/svg" version="1.1">
<title>OpenSCAD Model</title>
<path d="
M 265,-3550 L 250,-3550 L 250,-3322 L 265,-3322 z
M 281,-3550 L 266,-3550 L 266,-3322 L 281,-3322 z
M 297,-3550 L 282,-3550 L 282,-3322 L 297,-3322 z
M 313,-3550 L 298,-3550 L 298,-3322 L 313,-3322 z
M 329,-3550 L 314,-3550 L 314,-3322 L 329,-3322 z
M 345,-3550 L 330,-3550 L 330,-3322 L 345,-3322 z
M 361,-3550 L 346,-3550 L 346,-3322 L 361,-3322 z
M 377,-3550 L 362,-3550 L 362,-3322 L 377,-3322 z
M 393,-3550 L 378,-3550 L 378,-3322 L 393,-3322 z
M 409,-3550 L 394,-3550 L 394,-3322 L 409,-3322 z
M 425,-3550 L 410,-3550 L 410,-3322 L 425,-3322 z
M 441,-3550 L 426,-3550 L 426,-3322 L 441,-3322 z
M 16,-3305 L 1,-3305 L 1,-3077 L 16,-3077 z
M 32,-3305 L 17,-3305 L 17,-3077 L 32,-3077 z
M 48,-3305 L 33,-3305 L 33,-3077 L 48,-3077 z
M 64,-3305 L 49,-3305 L 49,-3077 L 64,-3077 z
M 80,-3305 L 65,-3305 L 65,-3077 L 80,-3077 z
M 96,-3305 L 81,-3305 L 81,-3077 L 96,-3077 z
M 112,-3305 L 97,-3305 L 97,-3077 L 112,-3077 z
M 128,-3305 L 113,-3305 L 113,-3077 L 128,-3077 z
M 144,-3305 L 129,-3305 L 129,-3077 L 144,-3077 z
M 556,-3305 L 541,-3305 L 541,-3077 L 556,-3077 z
M 572,-3305 L 557,-3305 L 557,-3077 L 572,-3077 z
M 588,-3305 L 573,-3305 L 573,-3077 L 588,-3077 z
M 604,-3305 L 589,-3305 L 589,-3077 L 604,-3077 z
M 620,-3305 L 605,-3305 L 605,-3077 L 620,-3077 z
M 636,-3305 L 621,-3305 L 621,-3077 L 636,-3077 z
M 652,-3305 L 637,-3305 L 637,-3077 L 652,-3077 z
M 668,-3305 L 653,-3305 L 653,-3077 L 668,-3077 z
M 684,-3305 L 669,-3305 L 669,-3077 L 684,-3077 z
M 265,-3076 L 250,-3076 L 250,-2848 L 265,-2848 z
M 281,-3076 L 266,-3076 L 266,-2848 L 281,-2848 z
M 297,-3076 L 282,-3076 L 282,-2848 L 297,-2848 z
M 313,-3076 L 298,-3076 L 298,-2848 L 313,-2848 z
M 329,-3076 L 314,-3076 L 314,-2848 L 329,-2848 z
M 345,-3076 L 330,-3076 L 330,-2848 L 345,-2848 z
M 361,-3076 L 346,-3076 L 346,-2848 L 361,-2848 z
M 377,-3076 L 362,-3076 L 362,-2848 L 377,-2848 z
M 393,-3076 L 378,-3076 L 378,-2848 L 393,-2848 z
M 409,-3076 L 394,-3076 L 394,-2848 L 409,-2848 z
M 425,-3076 L 410,-3076 L 410,-2848 L 425,-2848 z
M 441,-3076 L 426,-3076 L 426,-2848 L 441,-2848 z
M 265,-2601 L 250,-2601 L 250,-2373 L 265,-2373 z
M 281,-2601 L 266,-2601 L 266,-2373 L 281,-2373 z
M 297,-2601 L 282,-2601 L 282,-2373 L 297,-2373 z
M 313,-2601 L 298,-2601 L 298,-2373 L 313,-2373 z
M 329,-2601 L 314,-2601 L 314,-2373 L 329,-2373 z
M 345,-2601 L 330,-2601 L 330,-2373 L 345,-2373 z
M 361,-2601 L 346,-2601 L 346,-2373 L 361,-2373 z
M 377,-2601 L 362,-2601 L 362,-2373 L 377,-2373 z
M 393,-2601 L 378,-2601 L 378,-2373 L 393,-2373 z
M 409,-2601 L 394,-2601 L 394,-2373 L 409,-2373 z
M 425,-2601 L 410,-2601 L 410,-2373 L 425,-2373 z
M 441,-2601 L 426,-2601 L 426,-2373 L 441,-2373 z
M 16,-2356 L 1,-2356 L 1,-2128 L 16,-2128 z
M 32,-2356 L 17,-2356 L 17,-2128 L 32,-2128 z
M 48,-2356 L 33,-2356 L 33,-2128 L 48,-2128 z
M 64,-2356 L 49,-2356 L 49,-2128 L 64,-2128 z
M 80,-2356 L 65,-2356 L 65,-2128 L 80,-2128 z
M 96,-2356 L 81,-2356 L 81,-2128 L 96,-2128 z
M 112,-2356 L 97,-2356 L 97,-2128 L 112,-2128 z
M 128,-2356 L 113,-2356 L 113,-2128 L 128,-2128 z
M 144,-2356 L 129,-2356 L 129,-2128 L 144,-2128 z
M 556,-2356 L 541,-2356 L 541,-2128 L 556,-2128 z
M 572,-2356 L 557,-2356 L 557,-2128 L 572,-2128 z
M 588,-2356 L 573,-2356 L 573,-2128 L 588,-2128 z
M 604,-2356 L 589,-2356 L 589,-2128 L 604,-2128 z
M 620,-2356 L 605,-2356 L 605,-2128 L 620,-2128 z
M 636,-2356 L 621,-2356 L 621,-2128 L 636,-2128 z
M 652,-2356 L 637,-2356 L 637,-2128 L 652,-2128 z
M 668,-2356 L 653,-2356 L 653,-2128 L 668,-2128 z
M 684,-2356 L 669,-2356 L 669,-2128 L 684,-2128 z
M 265,-2127 L 250,-2127 L 250,-1899 L 265,-1899 z
M 281,-2127 L 266,-2127 L 266,-1899 L 281,-1899 z
M 297,-2127 L 282,-2127 L 282,-1899 L 297,-1899 z
M 313,-2127 L 298,-2127 L 298,-1899 L 313,-1899 z
M 329,-2127 L 314,-2127 L 314,-1899 L 329,-1899 z
M 345,-2127 L 330,-2127 L 330,-1899 L 345,-1899 z
M 361,-2127 L 346,-2127 L 346,-1899 L 361,-1899 z
M 377,-2127 L 362,-2127 L 362,-1899 L 377,-1899 z
M 393,-2127 L 378,-2127 L 378,-1899 L 393,-1899 z
M 409,-2127 L 394,-2127 L 394,-1899 L 409,-1899 z
M 425,-2127 L 410,-2127 L 410,-1899 L 425,-1899 z
M 441,-2127 L 426,-2127 L 426,-1899 L 441,-1899 z
M 265,-1652 L 250,-1652 L 250,-1424 L 265,-1424 z
M 281,-1652 L 266,-1652 L 266,-1424 L 281,-1424 z
M 297,-1652 L 282,-1652 L 282,-1424 L 297,-1424 z
M 313,-1652 L 298,-1652 L 298,-1424 L 313,-1424 z
M 329,-1652 L 314,-1652 L 314,-1424 L 329,-1424 z
M 345,-1652 L 330,-1652 L 330,-1424 L 345,-1424 z
M 361,-1652 L 346,-1652 L 346,-1424 L 361,-1424 z
M 377,-1652 L 362,-1652 L 362,-1424 L 377,-1424 z
M 393,-1652 L 378,-1652 L 378,-1424 L 393,-1424 z
M 409,-1652 L 394,-1652 L 394,-1424 L 409,-1424 z
M 425,-1652 L 410,-1652 L 410,-1424 L 425,-1424 z
M 441,-1652 L 426,-1652 L 426,-1424 L 441,-1424 z
M 16,-1407 L 1,-1407 L 1,-1179 L 16,-1179 z
M 32,-1407 L 17,-1407 L 17,-1179 L 32,-1179 z
M 48,-1407 L 33,-1407 L 33,-1179 L 48,-1179 z
M 64,-1407 L 49,-1407 L 49,-1179 L 64,-1179 z
M 80,-1407 L 65,-1407 L 65,-1179 L 80,-1179 z
M 96,-1407 L 81,-1407 L 81,-1179 L 96,-1179 z
M 112,-1407 L 97,-1407 L 97,-1179 L 112,-1179 z
M 128,-1407 L 113,-1407 L 113,-1179 L 128,-1179 z
M 144,-1407 L 129,-1407 L 129,-1179 L 144,-1179 z
M 556,-1407 L 541,-1407 L 541,-1179 L 556,-1179 z
M 572,-1407 L 557,-1407 L 557,-1179 L 572,-1179 z
M 588,-1407 L 573,-1407 L 573,-1179 L 588,-1179 z
M 604,-1407 L 589,-1407 L 589,-1179 L 604,-1179 z
M 620,-1407 L 605,-1407 L 605,-1179 L 620,-1179 z
M 636,-1407 L 621,-1407 L 621,-1179 L 636,-1179 z
M 652,-1407 L 637,-1407 L 637,-1179 L 652,-1179 z
M 668,-1407 L 653,-1407 L 653,-1179 L 668,-1179 z
M 684,-1407 L 669,-1407 L 669,-1179 L 684,-1179 z
M 265,-1178 L 250,-1178 L 250,-950 L 265,-950 z
M 281,-1178 L 266,-1178 L 266,-950 L 281,-950 z
M 297,-1178 L 282,-1178 L 282,-950 L 297,-950 z
M 313,-1178 L 298,-1178 L 298,-950 L 313,-950 z
M 329,-1178 L 314,-1178 L 314,-950 L 329,-950 z
M 345,-1178 L 330,-1178 L 330,-950 L 345,-950 z
M 361,-1178 L 346,-1178 L 346,-950 L 361,-950 z
M 377,-1178 L 362,-1178 L 362,-950 L 377,-950 z
M 393,-1178 L 378,-1178 L 378,-950 L 393,-950 z
M 409,-1178 L 394,-1178 L 394,-950 L 409,-950 z
M 425,-1178 L 410,-1178 L 410,-950 L 425,-950 z
M 441,-1178 L 426,-1178 L 426,-950 L 441,-950 z
M 265,-703 L 250,-703 L 250,-475 L 265,-475 z
M 281,-703 L 266,-703 L 266,-475 L 281,-475 z
M 297,-703 L 282,-703 L 282,-475 L 297,-475 z
M 313,-703 L 298,-703 L 298,-475 L 313,-475 z
M 329,-703 L 314,-703 L 314,-475 L 329,-475 z
M 345,-703 L 330,-703 L 330,-475 L 345,-475 z
M 361,-703 L 346,-703 L 346,-475 L 361,-475 z
M 377,-703 L 362,-703 L 362,-475 L 377,-475 z
M 393,-703 L 378,-703 L 378,-475 L 393,-475 z
M 409,-703 L 394,-703 L 394,-475 L 409,-475 z
M 425,-703 L 410,-703 L 410,-475 L 425,-475 z
M 441,-703 L 426,-703 L 426,-475 L 441,-475 z
M 16,-458 L 1,-458 L 1,-230 L 16,-230 z
M 32,-458 L 17,-458 L 17,-230 L 32,-230 z
M 48,-458 L 33,-458 L 33,-230 L 48,-230 z
M 64,-458 L 49,-458 L 49,-230 L 64,-230 z
M 80,-458 L 65,-458 L 65,-230 L 80,-230 z
M 96,-458 L 81,-458 L 81,-230 L 96,-230 z
M 112,-458 L 97,-458 L 97,-230 L 112,-230 z
M 128,-458 L 113,-458 L 113,-230 L 128,-230 z
M 144,-458 L 129,-458 L 129,-230 L 144,-230 z
M 556,-458 L 541,-458 L 541,-230 L 556,-230 z
M 572,-458 L 557,-458 L 557,-230 L 572,-230 z
M 588,-458 L 573,-458 L 573,-230 L 588,-230 z
M 604,-458 L 589,-458 L 589,-230 L 604,-230 z
M 620,-458 L 605,-458 L 605,-230 L 620,-230 z
M 636,-458 L 621,-458 L 621,-230 L 636,-230 z
M 652,-458 L 637,-458 L 637,-230 L 652,-230 z
M 668,-458 L 653,-458 L 653,-230 L 668,-230 z
M 684,-458 L 669,-458 L 669,-230 L 684,-230 z
M 265,-229 L 250,-229 L 250,-1 L 265,-1 z
M 281,-229 L 266,-229 L 266,-1 L 281,-1 z
M 297,-229 L 282,-229 L 282,-1 L 297,-1 z
M 313,-229 L 298,-229 L 298,-1 L 313,-1 z
M 329,-229 L 314,-229 L 314,-1 L 329,-1 z
M 345,-229 L 330,-229 L 330,-1 L 345,-1 z
M 361,-229 L 346,-229 L 346,-1 L 361,-1 z
M 377,-229 L 362,-229 L 362,-1 L 377,-1 z
M 393,-229 L 378,-229 L 378,-1 L 393,-1 z
M 409,-229 L 394,-229 L 394,-1 L 409,-1 z
M 425,-229 L 410,-229 L 410,-1 L 425,-1 z
M 441,-229 L 426,-229 L 426,-1 L 441,-1 z
" stroke="#000000" fill="none" stroke-width="0.35"/>
</svg>
