<?xml version="1.0" standalone="no"?>
<!DOCTYPE svg PUBLIC "-//W3C//DTD SVG 1.1//EN" "http://www.w3.org/Graphics/SVG/1.1/DTD/svg11.dtd">
<svg width="778mm" height="3366mm" viewBox="0 -3366 778 3366" xmlns="http://www.w3.org/2000/svg" version="1.1">
<title>OpenSCAD Model</title>
<path d="
M 533.5,-3358.5 L 533.5,-3361.5 L 536.5,-3361.5 L 540,-3365 L 529,-3365 L 529,-3365
 L 528.998,-3364.93 L 528.993,-3364.85 L 528.984,-3364.78 L 528.971,-3364.71 L 528.955,-3364.64 L 528.935,-3364.56
 L 528.912,-3364.49 L 528.886,-3364.43 L 528.856,-3364.36 L 528.823,-3364.29 L 528.787,-3364.23 L 528.747,-3364.17
 L 528.705,-3364.11 L 528.66,-3364.05 L 528.612,-3363.99 L 528.561,-3363.94 L 528.508,-3363.89 L 528.452,-3363.84
 L 528.394,-3363.8 L 528.334,-3363.75 L 528.271,-3363.71 L 528.207,-3363.68 L 528.142,-3363.64 L 528.074,-3363.61
 L 528.006,-3363.59 L 527.936,-3363.56 L 527.865,-3363.54 L 527.793,-3363.53 L 527.721,-3363.52 L 527.647,-3363.51
 L 527.574,-3363.5 L 527.501,-3363.5 L 525.499,-3363.5 L 525.426,-3363.5 L 525.353,-3363.51 L 525.279,-3363.52
 L 525.207,-3363.53 L 525.135,-3363.54 L 525.064,-3363.56 L 524.994,-3363.59 L 524.926,-3363.61 L 524.858,-3363.64
 L 524.793,-3363.68 L 524.729,-3363.71 L 524.666,-3363.75 L 524.606,-3363.8 L 524.548,-3363.84 L 524.492,-3363.89
 L 524.439,-3363.94 L 524.388,-3363.99 L 524.34,-3364.05 L 524.295,-3364.11 L 524.253,-3364.17 L 524.213,-3364.23
 L 524.177,-3364.29 L 524.144,-3364.36 L 524.114,-3364.43 L 524.088,-3364.49 L 524.065,-3364.56 L 524.045,-3364.64
 L 524.029,-3364.71 L 524.016,-3364.78 L 524.007,-3364.85 L 524.002,-3364.93 L 524,-3365 L 524,-3365
 L 262,-3365 L 262,-3365 L 261.998,-3364.93 L 261.993,-3364.85 L 261.984,-3364.78 L 261.971,-3364.71
 L 261.955,-3364.64 L 261.935,-3364.56 L 261.912,-3364.49 L 261.886,-3364.43 L 261.856,-3364.36 L 261.823,-3364.29
 L 261.787,-3364.23 L 261.747,-3364.17 L 261.705,-3364.11 L 261.66,-3364.05 L 261.612,-3363.99 L 261.561,-3363.94
 L 261.508,-3363.89 L 261.452,-3363.84 L 261.394,-3363.8 L 261.334,-3363.75 L 261.271,-3363.71 L 261.207,-3363.68
 L 261.142,-3363.64 L 261.074,-3363.61 L 261.006,-3363.59 L 260.936,-3363.56 L 260.865,-3363.54 L 260.793,-3363.53
 L 260.721,-3363.52 L 260.647,-3363.51 L 260.574,-3363.5 L 260.501,-3363.5 L 258.499,-3363.5 L 258.426,-3363.5
 L 258.353,-3363.51 L 258.279,-3363.52 L 258.207,-3363.53 L 258.135,-3363.54 L 258.064,-3363.56 L 257.994,-3363.59
 L 257.926,-3363.61 L 257.858,-3363.64 L 257.793,-3363.68 L 257.729,-3363.71 L 257.666,-3363.75 L 257.606,-3363.8
 L 257.548,-3363.84 L 257.492,-3363.89 L 257.439,-3363.94 L 257.388,-3363.99 L 257.34,-3364.05 L 257.295,-3364.11
 L 257.253,-3364.17 L 257.213,-3364.23 L 257.177,-3364.29 L 257.144,-3364.36 L 257.114,-3364.43 L 257.088,-3364.49
 L 257.065,-3364.56 L 257.045,-3364.64 L 257.029,-3364.71 L 257.016,-3364.78 L 257.007,-3364.85 L 257.002,-3364.93
 L 257,-3365 L 257,-3365 L 246,-3365 L 249.5,-3361.5 L 252.5,-3361.5 L 252.5,-3358.5
 L 256,-3355 L 530,-3355 z
M 467.5,-3347.5 L 470.5,-3347.5 L 470.5,-3350.5 L 474,-3354 L 246,-3354 L 249.5,-3350.5
 L 249.5,-3347.5 L 252.5,-3347.5 L 256,-3344 L 464,-3344 z
M 467.5,-3336.5 L 470.5,-3336.5 L 470.5,-3339.5 L 474,-3343 L 246,-3343 L 249.5,-3339.5
 L 249.5,-3336.5 L 252.5,-3336.5 L 256,-3333 L 464,-3333 z
M 230.5,-3113.5 L 230.5,-3116.5 L 233.5,-3116.5 L 237,-3120 L 230,-3120 L 230,-3120
 L 229.998,-3119.93 L 229.993,-3119.85 L 229.984,-3119.78 L 229.971,-3119.71 L 229.955,-3119.64 L 229.935,-3119.56
 L 229.912,-3119.49 L 229.886,-3119.43 L 229.856,-3119.36 L 229.823,-3119.29 L 229.787,-3119.23 L 229.747,-3119.17
 L 229.705,-3119.11 L 229.66,-3119.05 L 229.612,-3118.99 L 229.561,-3118.94 L 229.508,-3118.89 L 229.452,-3118.84
 L 229.394,-3118.8 L 229.334,-3118.75 L 229.271,-3118.71 L 229.207,-3118.68 L 229.142,-3118.64 L 229.074,-3118.61
 L 229.006,-3118.59 L 228.936,-3118.56 L 228.865,-3118.54 L 228.793,-3118.53 L 228.721,-3118.52 L 228.647,-3118.51
 L 228.574,-3118.5 L 228.501,-3118.5 L 226.499,-3118.5 L 226.426,-3118.5 L 226.353,-3118.51 L 226.279,-3118.52
 L 226.207,-3118.53 L 226.135,-3118.54 L 226.064,-3118.56 L 225.994,-3118.59 L 225.926,-3118.61 L 225.858,-3118.64
 L 225.793,-3118.68 L 225.729,-3118.71 L 225.666,-3118.75 L 225.606,-3118.8 L 225.548,-3118.84 L 225.492,-3118.89
 L 225.439,-3118.94 L 225.388,-3118.99 L 225.34,-3119.05 L 225.295,-3119.11 L 225.253,-3119.17 L 225.213,-3119.23
 L 225.177,-3119.29 L 225.144,-3119.36 L 225.114,-3119.43 L 225.088,-3119.49 L 225.065,-3119.56 L 225.045,-3119.64
 L 225.029,-3119.71 L 225.016,-3119.78 L 225.007,-3119.85 L 225.002,-3119.93 L 225,-3120 L 225,-3120
 L 13,-3120 L 13,-3120 L 12.9982,-3119.93 L 12.9928,-3119.85 L 12.9838,-3119.78 L 12.9712,-3119.71
 L 12.9551,-3119.64 L 12.9354,-3119.56 L 12.9123,-3119.49 L 12.8859,-3119.43 L 12.856,-3119.36 L 12.8229,-3119.29
 L 12.7867,-3119.23 L 12.7473,-3119.17 L 12.7049,-3119.11 L 12.6596,-3119.05 L 12.6116,-3118.99 L 12.5608,-3118.94
 L 12.5075,-3118.89 L 12.4518,-3118.84 L 12.3938,-3118.8 L 12.3336,-3118.75 L 12.2714,-3118.71 L 12.2074,-3118.68
 L 12.1416,-3118.64 L 12.0743,-3118.61 L 12.0057,-3118.59 L 11.9358,-3118.56 L 11.8648,-3118.54 L 11.793,-3118.53
 L 11.7205,-3118.52 L 11.6475,-3118.51 L 11.5741,-3118.5 L 11.5005,-3118.5 L 9.4995,-3118.5 L 9.42592,-3118.5
 L 9.35252,-3118.51 L 9.27948,-3118.52 L 9.20696,-3118.53 L 9.13515,-3118.54 L 9.06422,-3118.56 L 8.99433,-3118.59
 L 8.92567,-3118.61 L 8.85838,-3118.64 L 8.79264,-3118.68 L 8.7286,-3118.71 L 8.66642,-3118.75 L 8.60625,-3118.8
 L 8.54823,-3118.84 L 8.4925,-3118.89 L 8.43919,-3118.94 L 8.38844,-3118.99 L 8.34037,-3119.05 L 8.29509,-3119.11
 L 8.25271,-3119.17 L 8.21334,-3119.23 L 8.17706,-3119.29 L 8.14397,-3119.36 L 8.11414,-3119.43 L 8.08765,-3119.49
 L 8.06457,-3119.56 L 8.04494,-3119.64 L 8.02881,-3119.71 L 8.01623,-3119.78 L 8.00722,-3119.85 L 8.00181,-3119.93
 L 8,-3120 L 8,-3120 L 1,-3120 L 4.5,-3116.5 L 7.5,-3116.5 L 7.5,-3113.5
 L 11,-3110 L 227,-3110 z
M 770.5,-3113.5 L 770.5,-3116.5 L 773.5,-3116.5 L 777,-3120 L 770,-3120 L 770,-3120
 L 769.998,-3119.93 L 769.993,-3119.85 L 769.984,-3119.78 L 769.971,-3119.71 L 769.955,-3119.64 L 769.935,-3119.56
 L 769.912,-3119.49 L 769.886,-3119.43 L 769.856,-3119.36 L 769.823,-3119.29 L 769.787,-3119.23 L 769.747,-3119.17
 L 769.705,-3119.11 L 769.66,-3119.05 L 769.612,-3118.99 L 769.561,-3118.94 L 769.508,-3118.89 L 769.452,-3118.84
 L 769.394,-3118.8 L 769.334,-3118.75 L 769.271,-3118.71 L 769.207,-3118.68 L 769.142,-3118.64 L 769.074,-3118.61
 L 769.006,-3118.59 L 768.936,-3118.56 L 768.865,-3118.54 L 768.793,-3118.53 L 768.721,-3118.52 L 768.647,-3118.51
 L 768.574,-3118.5 L 768.501,-3118.5 L 766.499,-3118.5 L 766.426,-3118.5 L 766.353,-3118.51 L 766.279,-3118.52
 L 766.207,-3118.53 L 766.135,-3118.54 L 766.064,-3118.56 L 765.994,-3118.59 L 765.926,-3118.61 L 765.858,-3118.64
 L 765.793,-3118.68 L 765.729,-3118.71 L 765.666,-3118.75 L 765.606,-3118.8 L 765.548,-3118.84 L 765.492,-3118.89
 L 765.439,-3118.94 L 765.388,-3118.99 L 765.34,-3119.05 L 765.295,-3119.11 L 765.253,-3119.17 L 765.213,-3119.23
 L 765.177,-3119.29 L 765.144,-3119.36 L 765.114,-3119.43 L 765.088,-3119.49 L 765.065,-3119.56 L 765.045,-3119.64
 L 765.029,-3119.71 L 765.016,-3119.78 L 765.007,-3119.85 L 765.002,-3119.93 L 765,-3120 L 765,-3120
 L 553,-3120 L 553,-3120 L 552.998,-3119.93 L 552.993,-3119.85 L 552.984,-3119.78 L 552.971,-3119.71
 L 552.955,-3119.64 L 552.935,-3119.56 L 552.912,-3119.49 L 552.886,-3119.43 L 552.856,-3119.36 L 552.823,-3119.29
 L 552.787,-3119.23 L 552.747,-3119.17 L 552.705,-3119.11 L 552.66,-3119.05 L 552.612,-3118.99 L 552.561,-3118.94
 L 552.508,-3118.89 L 552.452,-3118.84 L 552.394,-3118.8 L 552.334,-3118.75 L 552.271,-3118.71 L 552.207,-3118.68
 L 552.142,-3118.64 L 552.074,-3118.61 L 552.006,-3118.59 L 551.936,-3118.56 L 551.865,-3118.54 L 551.793,-3118.53
 L 551.721,-3118.52 L 551.647,-3118.51 L 551.574,-3118.5 L 551.501,-3118.5 L 549.499,-3118.5 L 549.426,-3118.5
 L 549.353,-3118.51 L 549.279,-3118.52 L 549.207,-3118.53 L 549.135,-3118.54 L 549.064,-3118.56 L 548.994,-3118.59
 L 548.926,-3118.61 L 548.858,-3118.64 L 548.793,-3118.68 L 548.729,-3118.71 L 548.666,-3118.75 L 548.606,-3118.8
 L 548.548,-3118.84 L 548.492,-3118.89 L 548.439,-3118.94 L 548.388,-3118.99 L 548.34,-3119.05 L 548.295,-3119.11
 L 548.253,-3119.17 L 548.213,-3119.23 L 548.177,-3119.29 L 548.144,-3119.36 L 548.114,-3119.43 L 548.088,-3119.49
 L 548.065,-3119.56 L 548.045,-3119.64 L 548.029,-3119.71 L 548.016,-3119.78 L 548.007,-3119.85 L 548.002,-3119.93
 L 548,-3120 L 548,-3120 L 541,-3120 L 544.5,-3116.5 L 547.5,-3116.5 L 547.5,-3113.5
 L 551,-3110 L 767,-3110 z
M 222.5,-3102.5 L 225.5,-3102.5 L 225.5,-3105.5 L 229,-3109 L 1,-3109 L 4.5,-3105.5
 L 4.5,-3102.5 L 7.5,-3102.5 L 11,-3099 L 219,-3099 z
M 762.5,-3102.5 L 765.5,-3102.5 L 765.5,-3105.5 L 769,-3109 L 541,-3109 L 544.5,-3105.5
 L 544.5,-3102.5 L 547.5,-3102.5 L 551,-3099 L 759,-3099 z
M 222.5,-3091.5 L 225.5,-3091.5 L 225.5,-3094.5 L 229,-3098 L 1,-3098 L 4.5,-3094.5
 L 4.5,-3091.5 L 7.5,-3091.5 L 11,-3088 L 219,-3088 z
M 762.5,-3091.5 L 765.5,-3091.5 L 765.5,-3094.5 L 769,-3098 L 541,-3098 L 544.5,-3094.5
 L 544.5,-3091.5 L 547.5,-3091.5 L 551,-3088 L 759,-3088 z
M 533.5,-2884.5 L 533.5,-2887.5 L 536.5,-2887.5 L 540,-2891 L 529,-2891 L 529,-2891
 L 528.998,-2890.93 L 528.993,-2890.85 L 528.984,-2890.78 L 528.971,-2890.71 L 528.955,-2890.64 L 528.935,-2890.56
 L 528.912,-2890.49 L 528.886,-2890.43 L 528.856,-2890.36 L 528.823,-2890.29 L 528.787,-2890.23 L 528.747,-2890.17
 L 528.705,-2890.11 L 528.66,-2890.05 L 528.612,-2889.99 L 528.561,-2889.94 L 528.508,-2889.89 L 528.452,-2889.84
 L 528.394,-2889.8 L 528.334,-2889.75 L 528.271,-2889.71 L 528.207,-2889.68 L 528.142,-2889.64 L 528.074,-2889.61
 L 528.006,-2889.59 L 527.936,-2889.56 L 527.865,-2889.54 L 527.793,-2889.53 L 527.721,-2889.52 L 527.647,-2889.51
 L 527.574,-2889.5 L 527.501,-2889.5 L 525.499,-2889.5 L 525.426,-2889.5 L 525.353,-2889.51 L 525.279,-2889.52
 L 525.207,-2889.53 L 525.135,-2889.54 L 525.064,-2889.56 L 524.994,-2889.59 L 524.926,-2889.61 L 524.858,-2889.64
 L 524.793,-2889.68 L 524.729,-2889.71 L 524.666,-2889.75 L 524.606,-2889.8 L 524.548,-2889.84 L 524.492,-2889.89
 L 524.439,-2889.94 L 524.388,-2889.99 L 524.34,-2890.05 L 524.295,-2890.11 L 524.253,-2890.17 L 524.213,-2890.23
 L 524.177,-2890.29 L 524.144,-2890.36 L 524.114,-2890.43 L 524.088,-2890.49 L 524.065,-2890.56 L 524.045,-2890.64
 L 524.029,-2890.71 L 524.016,-2890.78 L 524.007,-2890.85 L 524.002,-2890.93 L 524,-2891 L 524,-2891
 L 262,-2891 L 262,-2891 L 261.998,-2890.93 L 261.993,-2890.85 L 261.984,-2890.78 L 261.971,-2890.71
 L 261.955,-2890.64 L 261.935,-2890.56 L 261.912,-2890.49 L 261.886,-2890.43 L 261.856,-2890.36 L 261.823,-2890.29
 L 261.787,-2890.23 L 261.747,-2890.17 L 261.705,-2890.11 L 261.66,-2890.05 L 261.612,-2889.99 L 261.561,-2889.94
 L 261.508,-2889.89 L 261.452,-2889.84 L 261.394,-2889.8 L 261.334,-2889.75 L 261.271,-2889.71 L 261.207,-2889.68
 L 261.142,-2889.64 L 261.074,-2889.61 L 261.006,-2889.59 L 260.936,-2889.56 L 260.865,-2889.54 L 260.793,-2889.53
 L 260.721,-2889.52 L 260.647,-2889.51 L 260.574,-2889.5 L 260.501,-2889.5 L 258.499,-2889.5 L 258.426,-2889.5
 L 258.353,-2889.51 L 258.279,-2889.52 L 258.207,-2889.53 L 258.135,-2889.54 L 258.064,-2889.56 L 257.994,-2889.59
 L 257.926,-2889.61 L 257.858,-2889.64 L 257.793,-2889.68 L 257.729,-2889.71 L 257.666,-2889.75 L 257.606,-2889.8
 L 257.548,-2889.84 L 257.492,-2889.89 L 257.439,-2889.94 L 257.388,-2889.99 L 257.34,-2890.05 L 257.295,-2890.11
 L 257.253,-2890.17 L 257.213,-2890.23 L 257.177,-2890.29 L 257.144,-2890.36 L 257.114,-2890.43 L 257.088,-2890.49
 L 257.065,-2890.56 L 257.045,-2890.64 L 257.029,-2890.71 L 257.016,-2890.78 L 257.007,-2890.85 L 257.002,-2890.93
 L 257,-2891 L 257,-2891 L 246,-2891 L 249.5,-2887.5 L 252.5,-2887.5 L 252.5,-2884.5
 L 256,-2881 L 530,-2881 z
M 467.5,-2873.5 L 470.5,-2873.5 L 470.5,-2876.5 L 474,-2880 L 246,-2880 L 249.5,-2876.5
 L 249.5,-2873.5 L 252.5,-2873.5 L 256,-2870 L 464,-2870 z
M 467.5,-2862.5 L 470.5,-2862.5 L 470.5,-2865.5 L 474,-2869 L 246,-2869 L 249.5,-2865.5
 L 249.5,-2862.5 L 252.5,-2862.5 L 256,-2859 L 464,-2859 z
M 533.5,-2409.5 L 533.5,-2412.5 L 536.5,-2412.5 L 540,-2416 L 536.5,-2419.5 L 533.5,-2419.5
 L 533.5,-2422.5 L 530,-2426 L 256,-2426 L 252.5,-2422.5 L 252.5,-2419.5 L 249.5,-2419.5
 L 246,-2416 L 249.5,-2412.5 L 252.5,-2412.5 L 252.5,-2409.5 L 256,-2406 L 530,-2406
 z
M 258.426,-2414.5 L 258.353,-2414.51 L 258.279,-2414.52 L 258.207,-2414.53 L 258.135,-2414.54 L 258.064,-2414.56
 L 257.994,-2414.59 L 257.926,-2414.61 L 257.858,-2414.64 L 257.793,-2414.68 L 257.729,-2414.71 L 257.666,-2414.75
 L 257.606,-2414.8 L 257.548,-2414.84 L 257.492,-2414.89 L 257.439,-2414.94 L 257.388,-2414.99 L 257.34,-2415.05
 L 257.295,-2415.11 L 257.253,-2415.17 L 257.213,-2415.23 L 257.177,-2415.29 L 257.144,-2415.36 L 257.114,-2415.43
 L 257.088,-2415.49 L 257.065,-2415.56 L 257.045,-2415.64 L 257.029,-2415.71 L 257.016,-2415.78 L 257.007,-2415.85
 L 257.002,-2415.93 L 257,-2416 L 257,-2416 L 257.002,-2416.07 L 257.007,-2416.15 L 257.016,-2416.22
 L 257.029,-2416.29 L 257.045,-2416.36 L 257.065,-2416.44 L 257.088,-2416.51 L 257.114,-2416.57 L 257.144,-2416.64
 L 257.177,-2416.71 L 257.213,-2416.77 L 257.253,-2416.83 L 257.295,-2416.89 L 257.34,-2416.95 L 257.388,-2417.01
 L 257.439,-2417.06 L 257.492,-2417.11 L 257.548,-2417.16 L 257.606,-2417.2 L 257.666,-2417.25 L 257.729,-2417.29
 L 257.793,-2417.32 L 257.858,-2417.36 L 257.926,-2417.39 L 257.994,-2417.41 L 258.064,-2417.44 L 258.135,-2417.46
 L 258.207,-2417.47 L 258.279,-2417.48 L 258.353,-2417.49 L 258.426,-2417.5 L 258.499,-2417.5 L 260.501,-2417.5
 L 260.574,-2417.5 L 260.647,-2417.49 L 260.721,-2417.48 L 260.793,-2417.47 L 260.865,-2417.46 L 260.936,-2417.44
 L 261.006,-2417.41 L 261.074,-2417.39 L 261.142,-2417.36 L 261.207,-2417.32 L 261.271,-2417.29 L 261.334,-2417.25
 L 261.394,-2417.2 L 261.452,-2417.16 L 261.508,-2417.11 L 261.561,-2417.06 L 261.612,-2417.01 L 261.66,-2416.95
 L 261.705,-2416.89 L 261.747,-2416.83 L 261.787,-2416.77 L 261.823,-2416.71 L 261.856,-2416.64 L 261.886,-2416.57
 L 261.912,-2416.51 L 261.935,-2416.44 L 261.955,-2416.36 L 261.971,-2416.29 L 261.984,-2416.22 L 261.993,-2416.15
 L 261.998,-2416.07 L 262,-2416 L 262,-2416 L 261.998,-2415.93 L 261.993,-2415.85 L 261.984,-2415.78
 L 261.971,-2415.71 L 261.955,-2415.64 L 261.935,-2415.56 L 261.912,-2415.49 L 261.886,-2415.43 L 261.856,-2415.36
 L 261.823,-2415.29 L 261.787,-2415.23 L 261.747,-2415.17 L 261.705,-2415.11 L 261.66,-2415.05 L 261.612,-2414.99
 L 261.561,-2414.94 L 261.508,-2414.89 L 261.452,-2414.84 L 261.394,-2414.8 L 261.334,-2414.75 L 261.271,-2414.71
 L 261.207,-2414.68 L 261.142,-2414.64 L 261.074,-2414.61 L 261.006,-2414.59 L 260.936,-2414.56 L 260.865,-2414.54
 L 260.793,-2414.53 L 260.721,-2414.52 L 260.647,-2414.51 L 260.574,-2414.5 L 260.501,-2414.5 L 258.499,-2414.5
 z
M 525.426,-2414.5 L 525.353,-2414.51 L 525.279,-2414.52 L 525.207,-2414.53 L 525.135,-2414.54 L 525.064,-2414.56
 L 524.994,-2414.59 L 524.926,-2414.61 L 524.858,-2414.64 L 524.793,-2414.68 L 524.729,-2414.71 L 524.666,-2414.75
 L 524.606,-2414.8 L 524.548,-2414.84 L 524.492,-2414.89 L 524.439,-2414.94 L 524.388,-2414.99 L 524.34,-2415.05
 L 524.295,-2415.11 L 524.253,-2415.17 L 524.213,-2415.23 L 524.177,-2415.29 L 524.144,-2415.36 L 524.114,-2415.43
 L 524.088,-2415.49 L 524.065,-2415.56 L 524.045,-2415.64 L 524.029,-2415.71 L 524.016,-2415.78 L 524.007,-2415.85
 L 524.002,-2415.93 L 524,-2416 L 524,-2416 L 524.002,-2416.07 L 524.007,-2416.15 L 524.016,-2416.22
 L 524.029,-2416.29 L 524.045,-2416.36 L 524.065,-2416.44 L 524.088,-2416.51 L 524.114,-2416.57 L 524.144,-2416.64
 L 524.177,-2416.71 L 524.213,-2416.77 L 524.253,-2416.83 L 524.295,-2416.89 L 524.34,-2416.95 L 524.388,-2417.01
 L 524.439,-2417.06 L 524.492,-2417.11 L 524.548,-2417.16 L 524.606,-2417.2 L 524.666,-2417.25 L 524.729,-2417.29
 L 524.793,-2417.32 L 524.858,-2417.36 L 524.926,-2417.39 L 524.994,-2417.41 L 525.064,-2417.44 L 525.135,-2417.46
 L 525.207,-2417.47 L 525.279,-2417.48 L 525.353,-2417.49 L 525.426,-2417.5 L 525.499,-2417.5 L 527.501,-2417.5
 L 527.574,-2417.5 L 527.647,-2417.49 L 527.721,-2417.48 L 527.793,-2417.47 L 527.865,-2417.46 L 527.936,-2417.44
 L 528.006,-2417.41 L 528.074,-2417.39 L 528.142,-2417.36 L 528.207,-2417.32 L 528.271,-2417.29 L 528.334,-2417.25
 L 528.394,-2417.2 L 528.452,-2417.16 L 528.508,-2417.11 L 528.561,-2417.06 L 528.612,-2417.01 L 528.66,-2416.95
 L 528.705,-2416.89 L 528.747,-2416.83 L 528.787,-2416.77 L 528.823,-2416.71 L 528.856,-2416.64 L 528.886,-2416.57
 L 528.912,-2416.51 L 528.935,-2416.44 L 528.955,-2416.36 L 528.971,-2416.29 L 528.984,-2416.22 L 528.993,-2416.15
 L 528.998,-2416.07 L 529,-2416 L 529,-2416 L 528.998,-2415.93 L 528.993,-2415.85 L 528.984,-2415.78
 L 528.971,-2415.71 L 528.955,-2415.64 L 528.935,-2415.56 L 528.912,-2415.49 L 528.886,-2415.43 L 528.856,-2415.36
 L 528.823,-2415.29 L 528.787,-2415.23 L 528.747,-2415.17 L 528.705,-2415.11 L 528.66,-2415.05 L 528.612,-2414.99
 L 528.561,-2414.94 L 528.508,-2414.89 L 528.452,-2414.84 L 528.394,-2414.8 L 528.334,-2414.75 L 528.271,-2414.71
 L 528.207,-2414.68 L 528.142,-2414.64 L 528.074,-2414.61 L 528.006,-2414.59 L 527.936,-2414.56 L 527.865,-2414.54
 L 527.793,-2414.53 L 527.721,-2414.52 L 527.647,-2414.51 L 527.574,-2414.5 L 527.501,-2414.5 L 525.499,-2414.5
 z
M 467.5,-2398.5 L 470.5,-2398.5 L 470.5,-2401.5 L 474,-2405 L 246,-2405 L 249.5,-2401.5
 L 249.5,-2398.5 L 252.5,-2398.5 L 256,-2395 L 464,-2395 z
M 467.5,-2387.5 L 470.5,-2387.5 L 470.5,-2390.5 L 474,-2394 L 246,-2394 L 249.5,-2390.5
 L 249.5,-2387.5 L 252.5,-2387.5 L 256,-2384 L 464,-2384 z
M 230.5,-2164.5 L 230.5,-2167.5 L 233.5,-2167.5 L 237,-2171 L 233.5,-2174.5 L 230.5,-2174.5
 L 230.5,-2177.5 L 227,-2181 L 11,-2181 L 7.5,-2177.5 L 7.5,-2174.5 L 4.5,-2174.5
 L 1,-2171 L 4.5,-2167.5 L 7.5,-2167.5 L 7.5,-2164.5 L 11,-2161 L 227,-2161
 z
M 9.42592,-2169.5 L 9.35252,-2169.51 L 9.27948,-2169.52 L 9.20696,-2169.53 L 9.13515,-2169.54 L 9.06422,-2169.56
 L 8.99433,-2169.59 L 8.92567,-2169.61 L 8.85838,-2169.64 L 8.79264,-2169.68 L 8.7286,-2169.71 L 8.66642,-2169.75
 L 8.60625,-2169.8 L 8.54823,-2169.84 L 8.4925,-2169.89 L 8.43919,-2169.94 L 8.38844,-2169.99 L 8.34037,-2170.05
 L 8.29509,-2170.11 L 8.25271,-2170.17 L 8.21334,-2170.23 L 8.17706,-2170.29 L 8.14397,-2170.36 L 8.11414,-2170.43
 L 8.08765,-2170.49 L 8.06457,-2170.56 L 8.04494,-2170.64 L 8.02881,-2170.71 L 8.01623,-2170.78 L 8.00722,-2170.85
 L 8.00181,-2170.93 L 8,-2171 L 8,-2171 L 8.00181,-2171.07 L 8.00722,-2171.15 L 8.01623,-2171.22
 L 8.02881,-2171.29 L 8.04494,-2171.36 L 8.06457,-2171.44 L 8.08765,-2171.51 L 8.11414,-2171.57 L 8.14397,-2171.64
 L 8.17706,-2171.71 L 8.21334,-2171.77 L 8.25271,-2171.83 L 8.29509,-2171.89 L 8.34037,-2171.95 L 8.38844,-2172.01
 L 8.43919,-2172.06 L 8.4925,-2172.11 L 8.54823,-2172.16 L 8.60625,-2172.2 L 8.66642,-2172.25 L 8.7286,-2172.29
 L 8.79264,-2172.32 L 8.85838,-2172.36 L 8.92567,-2172.39 L 8.99433,-2172.41 L 9.06422,-2172.44 L 9.13515,-2172.46
 L 9.20696,-2172.47 L 9.27948,-2172.48 L 9.35252,-2172.49 L 9.42592,-2172.5 L 9.4995,-2172.5 L 11.5005,-2172.5
 L 11.5741,-2172.5 L 11.6475,-2172.49 L 11.7205,-2172.48 L 11.793,-2172.47 L 11.8648,-2172.46 L 11.9358,-2172.44
 L 12.0057,-2172.41 L 12.0743,-2172.39 L 12.1416,-2172.36 L 12.2074,-2172.32 L 12.2714,-2172.29 L 12.3336,-2172.25
 L 12.3938,-2172.2 L 12.4518,-2172.16 L 12.5075,-2172.11 L 12.5608,-2172.06 L 12.6116,-2172.01 L 12.6596,-2171.95
 L 12.7049,-2171.89 L 12.7473,-2171.83 L 12.7867,-2171.77 L 12.8229,-2171.71 L 12.856,-2171.64 L 12.8859,-2171.57
 L 12.9123,-2171.51 L 12.9354,-2171.44 L 12.9551,-2171.36 L 12.9712,-2171.29 L 12.9838,-2171.22 L 12.9928,-2171.15
 L 12.9982,-2171.07 L 13,-2171 L 13,-2171 L 12.9982,-2170.93 L 12.9928,-2170.85 L 12.9838,-2170.78
 L 12.9712,-2170.71 L 12.9551,-2170.64 L 12.9354,-2170.56 L 12.9123,-2170.49 L 12.8859,-2170.43 L 12.856,-2170.36
 L 12.8229,-2170.29 L 12.7867,-2170.23 L 12.7473,-2170.17 L 12.7049,-2170.11 L 12.6596,-2170.05 L 12.6116,-2169.99
 L 12.5608,-2169.94 L 12.5075,-2169.89 L 12.4518,-2169.84 L 12.3938,-2169.8 L 12.3336,-2169.75 L 12.2714,-2169.71
 L 12.2074,-2169.68 L 12.1416,-2169.64 L 12.0743,-2169.61 L 12.0057,-2169.59 L 11.9358,-2169.56 L 11.8648,-2169.54
 L 11.793,-2169.53 L 11.7205,-2169.52 L 11.6475,-2169.51 L 11.5741,-2169.5 L 11.5005,-2169.5 L 9.4995,-2169.5
 z
M 226.426,-2169.5 L 226.353,-2169.51 L 226.279,-2169.52 L 226.207,-2169.53 L 226.135,-2169.54 L 226.064,-2169.56
 L 225.994,-2169.59 L 225.926,-2169.61 L 225.858,-2169.64 L 225.793,-2169.68 L 225.729,-2169.71 L 225.666,-2169.75
 L 225.606,-2169.8 L 225.548,-2169.84 L 225.492,-2169.89 L 225.439,-2169.94 L 225.388,-2169.99 L 225.34,-2170.05
 L 225.295,-2170.11 L 225.253,-2170.17 L 225.213,-2170.23 L 225.177,-2170.29 L 225.144,-2170.36 L 225.114,-2170.43
 L 225.088,-2170.49 L 225.065,-2170.56 L 225.045,-2170.64 L 225.029,-2170.71 L 225.016,-2170.78 L 225.007,-2170.85
 L 225.002,-2170.93 L 225,-2171 L 225,-2171 L 225.002,-2171.07 L 225.007,-2171.15 L 225.016,-2171.22
 L 225.029,-2171.29 L 225.045,-2171.36 L 225.065,-2171.44 L 225.088,-2171.51 L 225.114,-2171.57 L 225.144,-2171.64
 L 225.177,-2171.71 L 225.213,-2171.77 L 225.253,-2171.83 L 225.295,-2171.89 L 225.34,-2171.95 L 225.388,-2172.01
 L 225.439,-2172.06 L 225.492,-2172.11 L 225.548,-2172.16 L 225.606,-2172.2 L 225.666,-2172.25 L 225.729,-2172.29
 L 225.793,-2172.32 L 225.858,-2172.36 L 225.926,-2172.39 L 225.994,-2172.41 L 226.064,-2172.44 L 226.135,-2172.46
 L 226.207,-2172.47 L 226.279,-2172.48 L 226.353,-2172.49 L 226.426,-2172.5 L 226.499,-2172.5 L 228.501,-2172.5
 L 228.574,-2172.5 L 228.647,-2172.49 L 228.721,-2172.48 L 228.793,-2172.47 L 228.865,-2172.46 L 228.936,-2172.44
 L 229.006,-2172.41 L 229.074,-2172.39 L 229.142,-2172.36 L 229.207,-2172.32 L 229.271,-2172.29 L 229.334,-2172.25
 L 229.394,-2172.2 L 229.452,-2172.16 L 229.508,-2172.11 L 229.561,-2172.06 L 229.612,-2172.01 L 229.66,-2171.95
 L 229.705,-2171.89 L 229.747,-2171.83 L 229.787,-2171.77 L 229.823,-2171.71 L 229.856,-2171.64 L 229.886,-2171.57
 L 229.912,-2171.51 L 229.935,-2171.44 L 229.955,-2171.36 L 229.971,-2171.29 L 229.984,-2171.22 L 229.993,-2171.15
 L 229.998,-2171.07 L 230,-2171 L 230,-2171 L 229.998,-2170.93 L 229.993,-2170.85 L 229.984,-2170.78
 L 229.971,-2170.71 L 229.955,-2170.64 L 229.935,-2170.56 L 229.912,-2170.49 L 229.886,-2170.43 L 229.856,-2170.36
 L 229.823,-2170.29 L 229.787,-2170.23 L 229.747,-2170.17 L 229.705,-2170.11 L 229.66,-2170.05 L 229.612,-2169.99
 L 229.561,-2169.94 L 229.508,-2169.89 L 229.452,-2169.84 L 229.394,-2169.8 L 229.334,-2169.75 L 229.271,-2169.71
 L 229.207,-2169.68 L 229.142,-2169.64 L 229.074,-2169.61 L 229.006,-2169.59 L 228.936,-2169.56 L 228.865,-2169.54
 L 228.793,-2169.53 L 228.721,-2169.52 L 228.647,-2169.51 L 228.574,-2169.5 L 228.501,-2169.5 L 226.499,-2169.5
 z
M 770.5,-2164.5 L 770.5,-2167.5 L 773.5,-2167.5 L 777,-2171 L 773.5,-2174.5 L 770.5,-2174.5
 L 770.5,-2177.5 L 767,-2181 L 551,-2181 L 547.5,-2177.5 L 547.5,-2174.5 L 544.5,-2174.5
 L 541,-2171 L 544.5,-2167.5 L 547.5,-2167.5 L 547.5,-2164.5 L 551,-2161 L 767,-2161
 z
M 549.426,-2169.5 L 549.353,-2169.51 L 549.279,-2169.52 L 549.207,-2169.53 L 549.135,-2169.54 L 549.064,-2169.56
 L 548.994,-2169.59 L 548.926,-2169.61 L 548.858,-2169.64 L 548.793,-2169.68 L 548.729,-2169.71 L 548.666,-2169.75
 L 548.606,-2169.8 L 548.548,-2169.84 L 548.492,-2169.89 L 548.439,-2169.94 L 548.388,-2169.99 L 548.34,-2170.05
 L 548.295,-2170.11 L 548.253,-2170.17 L 548.213,-2170.23 L 548.177,-2170.29 L 548.144,-2170.36 L 548.114,-2170.43
 L 548.088,-2170.49 L 548.065,-2170.56 L 548.045,-2170.64 L 548.029,-2170.71 L 548.016,-2170.78 L 548.007,-2170.85
 L 548.002,-2170.93 L 548,-2171 L 548,-2171 L 548.002,-2171.07 L 548.007,-2171.15 L 548.016,-2171.22
 L 548.029,-2171.29 L 548.045,-2171.36 L 548.065,-2171.44 L 548.088,-2171.51 L 548.114,-2171.57 L 548.144,-2171.64
 L 548.177,-2171.71 L 548.213,-2171.77 L 548.253,-2171.83 L 548.295,-2171.89 L 548.34,-2171.95 L 548.388,-2172.01
 L 548.439,-2172.06 L 548.492,-2172.11 L 548.548,-2172.16 L 548.606,-2172.2 L 548.666,-2172.25 L 548.729,-2172.29
 L 548.793,-2172.32 L 548.858,-2172.36 L 548.926,-2172.39 L 548.994,-2172.41 L 549.064,-2172.44 L 549.135,-2172.46
 L 549.207,-2172.47 L 549.279,-2172.48 L 549.353,-2172.49 L 549.426,-2172.5 L 549.499,-2172.5 L 551.501,-2172.5
 L 551.574,-2172.5 L 551.647,-2172.49 L 551.721,-2172.48 L 551.793,-2172.47 L 551.865,-2172.46 L 551.936,-2172.44
 L 552.006,-2172.41 L 552.074,-2172.39 L 552.142,-2172.36 L 552.207,-2172.32 L 552.271,-2172.29 L 552.334,-2172.25
 L 552.394,-2172.2 L 552.452,-2172.16 L 552.508,-2172.11 L 552.561,-2172.06 L 552.612,-2172.01 L 552.66,-2171.95
 L 552.705,-2171.89 L 552.747,-2171.83 L 552.787,-2171.77 L 552.823,-2171.71 L 552.856,-2171.64 L 552.886,-2171.57
 L 552.912,-2171.51 L 552.935,-2171.44 L 552.955,-2171.36 L 552.971,-2171.29 L 552.984,-2171.22 L 552.993,-2171.15
 L 552.998,-2171.07 L 553,-2171 L 553,-2171 L 552.998,-2170.93 L 552.993,-2170.85 L 552.984,-2170.78
 L 552.971,-2170.71 L 552.955,-2170.64 L 552.935,-2170.56 L 552.912,-2170.49 L 552.886,-2170.43 L 552.856,-2170.36
 L 552.823,-2170.29 L 552.787,-2170.23 L 552.747,-2170.17 L 552.705,-2170.11 L 552.66,-2170.05 L 552.612,-2169.99
 L 552.561,-2169.94 L 552.508,-2169.89 L 552.452,-2169.84 L 552.394,-2169.8 L 552.334,-2169.75 L 552.271,-2169.71
 L 552.207,-2169.68 L 552.142,-2169.64 L 552.074,-2169.61 L 552.006,-2169.59 L 551.936,-2169.56 L 551.865,-2169.54
 L 551.793,-2169.53 L 551.721,-2169.52 L 551.647,-2169.51 L 551.574,-2169.5 L 551.501,-2169.5 L 549.499,-2169.5
 z
M 766.426,-2169.5 L 766.353,-2169.51 L 766.279,-2169.52 L 766.207,-2169.53 L 766.135,-2169.54 L 766.064,-2169.56
 L 765.994,-2169.59 L 765.926,-2169.61 L 765.858,-2169.64 L 765.793,-2169.68 L 765.729,-2169.71 L 765.666,-2169.75
 L 765.606,-2169.8 L 765.548,-2169.84 L 765.492,-2169.89 L 765.439,-2169.94 L 765.388,-2169.99 L 765.34,-2170.05
 L 765.295,-2170.11 L 765.253,-2170.17 L 765.213,-2170.23 L 765.177,-2170.29 L 765.144,-2170.36 L 765.114,-2170.43
 L 765.088,-2170.49 L 765.065,-2170.56 L 765.045,-2170.64 L 765.029,-2170.71 L 765.016,-2170.78 L 765.007,-2170.85
 L 765.002,-2170.93 L 765,-2171 L 765,-2171 L 765.002,-2171.07 L 765.007,-2171.15 L 765.016,-2171.22
 L 765.029,-2171.29 L 765.045,-2171.36 L 765.065,-2171.44 L 765.088,-2171.51 L 765.114,-2171.57 L 765.144,-2171.64
 L 765.177,-2171.71 L 765.213,-2171.77 L 765.253,-2171.83 L 765.295,-2171.89 L 765.34,-2171.95 L 765.388,-2172.01
 L 765.439,-2172.06 L 765.492,-2172.11 L 765.548,-2172.16 L 765.606,-2172.2 L 765.666,-2172.25 L 765.729,-2172.29
 L 765.793,-2172.32 L 765.858,-2172.36 L 765.926,-2172.39 L 765.994,-2172.41 L 766.064,-2172.44 L 766.135,-2172.46
 L 766.207,-2172.47 L 766.279,-2172.48 L 766.353,-2172.49 L 766.426,-2172.5 L 766.499,-2172.5 L 768.501,-2172.5
 L 768.574,-2172.5 L 768.647,-2172.49 L 768.721,-2172.48 L 768.793,-2172.47 L 768.865,-2172.46 L 768.936,-2172.44
 L 769.006,-2172.41 L 769.074,-2172.39 L 769.142,-2172.36 L 769.207,-2172.32 L 769.271,-2172.29 L 769.334,-2172.25
 L 769.394,-2172.2 L 769.452,-2172.16 L 769.508,-2172.11 L 769.561,-2172.06 L 769.612,-2172.01 L 769.66,-2171.95
 L 769.705,-2171.89 L 769.747,-2171.83 L 769.787,-2171.77 L 769.823,-2171.71 L 769.856,-2171.64 L 769.886,-2171.57
 L 769.912,-2171.51 L 769.935,-2171.44 L 769.955,-2171.36 L 769.971,-2171.29 L 769.984,-2171.22 L 769.993,-2171.15
 L 769.998,-2171.07 L 770,-2171 L 770,-2171 L 769.998,-2170.93 L 769.993,-2170.85 L 769.984,-2170.78
 L 769.971,-2170.71 L 769.955,-2170.64 L 769.935,-2170.56 L 769.912,-2170.49 L 769.886,-2170.43 L 769.856,-2170.36
 L 769.823,-2170.29 L 769.787,-2170.23 L 769.747,-2170.17 L 769.705,-2170.11 L 769.66,-2170.05 L 769.612,-2169.99
 L 769.561,-2169.94 L 769.508,-2169.89 L 769.452,-2169.84 L 769.394,-2169.8 L 769.334,-2169.75 L 769.271,-2169.71
 L 769.207,-2169.68 L 769.142,-2169.64 L 769.074,-2169.61 L 769.006,-2169.59 L 768.936,-2169.56 L 768.865,-2169.54
 L 768.793,-2169.53 L 768.721,-2169.52 L 768.647,-2169.51 L 768.574,-2169.5 L 768.501,-2169.5 L 766.499,-2169.5
 z
M 222.5,-2153.5 L 225.5,-2153.5 L 225.5,-2156.5 L 229,-2160 L 1,-2160 L 4.5,-2156.5
 L 4.5,-2153.5 L 7.5,-2153.5 L 11,-2150 L 219,-2150 z
M 762.5,-2153.5 L 765.5,-2153.5 L 765.5,-2156.5 L 769,-2160 L 541,-2160 L 544.5,-2156.5
 L 544.5,-2153.5 L 547.5,-2153.5 L 551,-2150 L 759,-2150 z
M 222.5,-2142.5 L 225.5,-2142.5 L 225.5,-2145.5 L 229,-2149 L 1,-2149 L 4.5,-2145.5
 L 4.5,-2142.5 L 7.5,-2142.5 L 11,-2139 L 219,-2139 z
M 762.5,-2142.5 L 765.5,-2142.5 L 765.5,-2145.5 L 769,-2149 L 541,-2149 L 544.5,-2145.5
 L 544.5,-2142.5 L 547.5,-2142.5 L 551,-2139 L 759,-2139 z
M 533.5,-1935.5 L 533.5,-1938.5 L 536.5,-1938.5 L 540,-1942 L 536.5,-1945.5 L 533.5,-1945.5
 L 533.5,-1948.5 L 530,-1952 L 256,-1952 L 252.5,-1948.5 L 252.5,-1945.5 L 249.5,-1945.5
 L 246,-1942 L 249.5,-1938.5 L 252.5,-1938.5 L 252.5,-1935.5 L 256,-1932 L 530,-1932
 z
M 258.426,-1940.5 L 258.353,-1940.51 L 258.279,-1940.52 L 258.207,-1940.53 L 258.135,-1940.54 L 258.064,-1940.56
 L 257.994,-1940.59 L 257.926,-1940.61 L 257.858,-1940.64 L 257.793,-1940.68 L 257.729,-1940.71 L 257.666,-1940.75
 L 257.606,-1940.8 L 257.548,-1940.84 L 257.492,-1940.89 L 257.439,-1940.94 L 257.388,-1940.99 L 257.34,-1941.05
 L 257.295,-1941.11 L 257.253,-1941.17 L 257.213,-1941.23 L 257.177,-1941.29 L 257.144,-1941.36 L 257.114,-1941.43
 L 257.088,-1941.49 L 257.065,-1941.56 L 257.045,-1941.64 L 257.029,-1941.71 L 257.016,-1941.78 L 257.007,-1941.85
 L 257.002,-1941.93 L 257,-1942 L 257,-1942 L 257.002,-1942.07 L 257.007,-1942.15 L 257.016,-1942.22
 L 257.029,-1942.29 L 257.045,-1942.36 L 257.065,-1942.44 L 257.088,-1942.51 L 257.114,-1942.57 L 257.144,-1942.64
 L 257.177,-1942.71 L 257.213,-1942.77 L 257.253,-1942.83 L 257.295,-1942.89 L 257.34,-1942.95 L 257.388,-1943.01
 L 257.439,-1943.06 L 257.492,-1943.11 L 257.548,-1943.16 L 257.606,-1943.2 L 257.666,-1943.25 L 257.729,-1943.29
 L 257.793,-1943.32 L 257.858,-1943.36 L 257.926,-1943.39 L 257.994,-1943.41 L 258.064,-1943.44 L 258.135,-1943.46
 L 258.207,-1943.47 L 258.279,-1943.48 L 258.353,-1943.49 L 258.426,-1943.5 L 258.499,-1943.5 L 260.501,-1943.5
 L 260.574,-1943.5 L 260.647,-1943.49 L 260.721,-1943.48 L 260.793,-1943.47 L 260.865,-1943.46 L 260.936,-1943.44
 L 261.006,-1943.41 L 261.074,-1943.39 L 261.142,-1943.36 L 261.207,-1943.32 L 261.271,-1943.29 L 261.334,-1943.25
 L 261.394,-1943.2 L 261.452,-1943.16 L 261.508,-1943.11 L 261.561,-1943.06 L 261.612,-1943.01 L 261.66,-1942.95
 L 261.705,-1942.89 L 261.747,-1942.83 L 261.787,-1942.77 L 261.823,-1942.71 L 261.856,-1942.64 L 261.886,-1942.57
 L 261.912,-1942.51 L 261.935,-1942.44 L 261.955,-1942.36 L 261.971,-1942.29 L 261.984,-1942.22 L 261.993,-1942.15
 L 261.998,-1942.07 L 262,-1942 L 262,-1942 L 261.998,-1941.93 L 261.993,-1941.85 L 261.984,-1941.78
 L 261.971,-1941.71 L 261.955,-1941.64 L 261.935,-1941.56 L 261.912,-1941.49 L 261.886,-1941.43 L 261.856,-1941.36
 L 261.823,-1941.29 L 261.787,-1941.23 L 261.747,-1941.17 L 261.705,-1941.11 L 261.66,-1941.05 L 261.612,-1940.99
 L 261.561,-1940.94 L 261.508,-1940.89 L 261.452,-1940.84 L 261.394,-1940.8 L 261.334,-1940.75 L 261.271,-1940.71
 L 261.207,-1940.68 L 261.142,-1940.64 L 261.074,-1940.61 L 261.006,-1940.59 L 260.936,-1940.56 L 260.865,-1940.54
 L 260.793,-1940.53 L 260.721,-1940.52 L 260.647,-1940.51 L 260.574,-1940.5 L 260.501,-1940.5 L 258.499,-1940.5
 z
M 525.426,-1940.5 L 525.353,-1940.51 L 525.279,-1940.52 L 525.207,-1940.53 L 525.135,-1940.54 L 525.064,-1940.56
 L 524.994,-1940.59 L 524.926,-1940.61 L 524.858,-1940.64 L 524.793,-1940.68 L 524.729,-1940.71 L 524.666,-1940.75
 L 524.606,-1940.8 L 524.548,-1940.84 L 524.492,-1940.89 L 524.439,-1940.94 L 524.388,-1940.99 L 524.34,-1941.05
 L 524.295,-1941.11 L 524.253,-1941.17 L 524.213,-1941.23 L 524.177,-1941.29 L 524.144,-1941.36 L 524.114,-1941.43
 L 524.088,-1941.49 L 524.065,-1941.56 L 524.045,-1941.64 L 524.029,-1941.71 L 524.016,-1941.78 L 524.007,-1941.85
 L 524.002,-1941.93 L 524,-1942 L 524,-1942 L 524.002,-1942.07 L 524.007,-1942.15 L 524.016,-1942.22
 L 524.029,-1942.29 L 524.045,-1942.36 L 524.065,-1942.44 L 524.088,-1942.51 L 524.114,-1942.57 L 524.144,-1942.64
 L 524.177,-1942.71 L 524.213,-1942.77 L 524.253,-1942.83 L 524.295,-1942.89 L 524.34,-1942.95 L 524.388,-1943.01
 L 524.439,-1943.06 L 524.492,-1943.11 L 524.548,-1943.16 L 524.606,-1943.2 L 524.666,-1943.25 L 524.729,-1943.29
 L 524.793,-1943.32 L 524.858,-1943.36 L 524.926,-1943.39 L 524.994,-1943.41 L 525.064,-1943.44 L 525.135,-1943.46
 L 525.207,-1943.47 L 525.279,-1943.48 L 525.353,-1943.49 L 525.426,-1943.5 L 525.499,-1943.5 L 527.501,-1943.5
 L 527.574,-1943.5 L 527.647,-1943.49 L 527.721,-1943.48 L 527.793,-1943.47 L 527.865,-1943.46 L 527.936,-1943.44
 L 528.006,-1943.41 L 528.074,-1943.39 L 528.142,-1943.36 L 528.207,-1943.32 L 528.271,-1943.29 L 528.334,-1943.25
 L 528.394,-1943.2 L 528.452,-1943.16 L 528.508,-1943.11 L 528.561,-1943.06 L 528.612,-1943.01 L 528.66,-1942.95
 L 528.705,-1942.89 L 528.747,-1942.83 L 528.787,-1942.77 L 528.823,-1942.71 L 528.856,-1942.64 L 528.886,-1942.57
 L 528.912,-1942.51 L 528.935,-1942.44 L 528.955,-1942.36 L 528.971,-1942.29 L 528.984,-1942.22 L 528.993,-1942.15
 L 528.998,-1942.07 L 529,-1942 L 529,-1942 L 528.998,-1941.93 L 528.993,-1941.85 L 528.984,-1941.78
 L 528.971,-1941.71 L 528.955,-1941.64 L 528.935,-1941.56 L 528.912,-1941.49 L 528.886,-1941.43 L 528.856,-1941.36
 L 528.823,-1941.29 L 528.787,-1941.23 L 528.747,-1941.17 L 528.705,-1941.11 L 528.66,-1941.05 L 528.612,-1940.99
 L 528.561,-1940.94 L 528.508,-1940.89 L 528.452,-1940.84 L 528.394,-1940.8 L 528.334,-1940.75 L 528.271,-1940.71
 L 528.207,-1940.68 L 528.142,-1940.64 L 528.074,-1940.61 L 528.006,-1940.59 L 527.936,-1940.56 L 527.865,-1940.54
 L 527.793,-1940.53 L 527.721,-1940.52 L 527.647,-1940.51 L 527.574,-1940.5 L 527.501,-1940.5 L 525.499,-1940.5
 z
M 467.5,-1924.5 L 470.5,-1924.5 L 470.5,-1927.5 L 474,-1931 L 246,-1931 L 249.5,-1927.5
 L 249.5,-1924.5 L 252.5,-1924.5 L 256,-1921 L 464,-1921 z
M 467.5,-1913.5 L 470.5,-1913.5 L 470.5,-1916.5 L 474,-1920 L 246,-1920 L 249.5,-1916.5
 L 249.5,-1913.5 L 252.5,-1913.5 L 256,-1910 L 464,-1910 z
M 533.5,-1460.5 L 533.5,-1463.5 L 536.5,-1463.5 L 540,-1467 L 536.5,-1470.5 L 533.5,-1470.5
 L 533.5,-1473.5 L 530,-1477 L 256,-1477 L 252.5,-1473.5 L 252.5,-1470.5 L 249.5,-1470.5
 L 246,-1467 L 249.5,-1463.5 L 252.5,-1463.5 L 252.5,-1460.5 L 256,-1457 L 530,-1457
 z
M 258.426,-1465.5 L 258.353,-1465.51 L 258.279,-1465.52 L 258.207,-1465.53 L 258.135,-1465.54 L 258.064,-1465.56
 L 257.994,-1465.59 L 257.926,-1465.61 L 257.858,-1465.64 L 257.793,-1465.68 L 257.729,-1465.71 L 257.666,-1465.75
 L 257.606,-1465.8 L 257.548,-1465.84 L 257.492,-1465.89 L 257.439,-1465.94 L 257.388,-1465.99 L 257.34,-1466.05
 L 257.295,-1466.11 L 257.253,-1466.17 L 257.213,-1466.23 L 257.177,-1466.29 L 257.144,-1466.36 L 257.114,-1466.43
 L 257.088,-1466.49 L 257.065,-1466.56 L 257.045,-1466.64 L 257.029,-1466.71 L 257.016,-1466.78 L 257.007,-1466.85
 L 257.002,-1466.93 L 257,-1467 L 257,-1467 L 257.002,-1467.07 L 257.007,-1467.15 L 257.016,-1467.22
 L 257.029,-1467.29 L 257.045,-1467.36 L 257.065,-1467.44 L 257.088,-1467.51 L 257.114,-1467.57 L 257.144,-1467.64
 L 257.177,-1467.71 L 257.213,-1467.77 L 257.253,-1467.83 L 257.295,-1467.89 L 257.34,-1467.95 L 257.388,-1468.01
 L 257.439,-1468.06 L 257.492,-1468.11 L 257.548,-1468.16 L 257.606,-1468.2 L 257.666,-1468.25 L 257.729,-1468.29
 L 257.793,-1468.32 L 257.858,-1468.36 L 257.926,-1468.39 L 257.994,-1468.41 L 258.064,-1468.44 L 258.135,-1468.46
 L 258.207,-1468.47 L 258.279,-1468.48 L 258.353,-1468.49 L 258.426,-1468.5 L 258.499,-1468.5 L 260.501,-1468.5
 L 260.574,-1468.5 L 260.647,-1468.49 L 260.721,-1468.48 L 260.793,-1468.47 L 260.865,-1468.46 L 260.936,-1468.44
 L 261.006,-1468.41 L 261.074,-1468.39 L 261.142,-1468.36 L 261.207,-1468.32 L 261.271,-1468.29 L 261.334,-1468.25
 L 261.394,-1468.2 L 261.452,-1468.16 L 261.508,-1468.11 L 261.561,-1468.06 L 261.612,-1468.01 L 261.66,-1467.95
 L 261.705,-1467.89 L 261.747,-1467.83 L 261.787,-1467.77 L 261.823,-1467.71 L 261.856,-1467.64 L 261.886,-1467.57
 L 261.912,-1467.51 L 261.935,-1467.44 L 261.955,-1467.36 L 261.971,-1467.29 L 261.984,-1467.22 L 261.993,-1467.15
 L 261.998,-1467.07 L 262,-1467 L 262,-1467 L 261.998,-1466.93 L 261.993,-1466.85 L 261.984,-1466.78
 L 261.971,-1466.71 L 261.955,-1466.64 L 261.935,-1466.56 L 261.912,-1466.49 L 261.886,-1466.43 L 261.856,-1466.36
 L 261.823,-1466.29 L 261.787,-1466.23 L 261.747,-1466.17 L 261.705,-1466.11 L 261.66,-1466.05 L 261.612,-1465.99
 L 261.561,-1465.94 L 261.508,-1465.89 L 261.452,-1465.84 L 261.394,-1465.8 L 261.334,-1465.75 L 261.271,-1465.71
 L 261.207,-1465.68 L 261.142,-1465.64 L 261.074,-1465.61 L 261.006,-1465.59 L 260.936,-1465.56 L 260.865,-1465.54
 L 260.793,-1465.53 L 260.721,-1465.52 L 260.647,-1465.51 L 260.574,-1465.5 L 260.501,-1465.5 L 258.499,-1465.5
 z
M 525.426,-1465.5 L 525.353,-1465.51 L 525.279,-1465.52 L 525.207,-1465.53 L 525.135,-1465.54 L 525.064,-1465.56
 L 524.994,-1465.59 L 524.926,-1465.61 L 524.858,-1465.64 L 524.793,-1465.68 L 524.729,-1465.71 L 524.666,-1465.75
 L 524.606,-1465.8 L 524.548,-1465.84 L 524.492,-1465.89 L 524.439,-1465.94 L 524.388,-1465.99 L 524.34,-1466.05
 L 524.295,-1466.11 L 524.253,-1466.17 L 524.213,-1466.23 L 524.177,-1466.29 L 524.144,-1466.36 L 524.114,-1466.43
 L 524.088,-1466.49 L 524.065,-1466.56 L 524.045,-1466.64 L 524.029,-1466.71 L 524.016,-1466.78 L 524.007,-1466.85
 L 524.002,-1466.93 L 524,-1467 L 524,-1467 L 524.002,-1467.07 L 524.007,-1467.15 L 524.016,-1467.22
 L 524.029,-1467.29 L 524.045,-1467.36 L 524.065,-1467.44 L 524.088,-1467.51 L 524.114,-1467.57 L 524.144,-1467.64
 L 524.177,-1467.71 L 524.213,-1467.77 L 524.253,-1467.83 L 524.295,-1467.89 L 524.34,-1467.95 L 524.388,-1468.01
 L 524.439,-1468.06 L 524.492,-1468.11 L 524.548,-1468.16 L 524.606,-1468.2 L 524.666,-1468.25 L 524.729,-1468.29
 L 524.793,-1468.32 L 524.858,-1468.36 L 524.926,-1468.39 L 524.994,-1468.41 L 525.064,-1468.44 L 525.135,-1468.46
 L 525.207,-1468.47 L 525.279,-1468.48 L 525.353,-1468.49 L 525.426,-1468.5 L 525.499,-1468.5 L 527.501,-1468.5
 L 527.574,-1468.5 L 527.647,-1468.49 L 527.721,-1468.48 L 527.793,-1468.47 L 527.865,-1468.46 L 527.936,-1468.44
 L 528.006,-1468.41 L 528.074,-1468.39 L 528.142,-1468.36 L 528.207,-1468.32 L 528.271,-1468.29 L 528.334,-1468.25
 L 528.394,-1468.2 L 528.452,-1468.16 L 528.508,-1468.11 L 528.561,-1468.06 L 528.612,-1468.01 L 528.66,-1467.95
 L 528.705,-1467.89 L 528.747,-1467.83 L 528.787,-1467.77 L 528.823,-1467.71 L 528.856,-1467.64 L 528.886,-1467.57
 L 528.912,-1467.51 L 528.935,-1467.44 L 528.955,-1467.36 L 528.971,-1467.29 L 528.984,-1467.22 L 528.993,-1467.15
 L 528.998,-1467.07 L 529,-1467 L 529,-1467 L 528.998,-1466.93 L 528.993,-1466.85 L 528.984,-1466.78
 L 528.971,-1466.71 L 528.955,-1466.64 L 528.935,-1466.56 L 528.912,-1466.49 L 528.886,-1466.43 L 528.856,-1466.36
 L 528.823,-1466.29 L 528.787,-1466.23 L 528.747,-1466.17 L 528.705,-1466.11 L 528.66,-1466.05 L 528.612,-1465.99
 L 528.561,-1465.94 L 528.508,-1465.89 L 528.452,-1465.84 L 528.394,-1465.8 L 528.334,-1465.75 L 528.271,-1465.71
 L 528.207,-1465.68 L 528.142,-1465.64 L 528.074,-1465.61 L 528.006,-1465.59 L 527.936,-1465.56 L 527.865,-1465.54
 L 527.793,-1465.53 L 527.721,-1465.52 L 527.647,-1465.51 L 527.574,-1465.5 L 527.501,-1465.5 L 525.499,-1465.5
 z
M 467.5,-1449.5 L 470.5,-1449.5 L 470.5,-1452.5 L 474,-1456 L 246,-1456 L 249.5,-1452.5
 L 249.5,-1449.5 L 252.5,-1449.5 L 256,-1446 L 464,-1446 z
M 467.5,-1438.5 L 470.5,-1438.5 L 470.5,-1441.5 L 474,-1445 L 246,-1445 L 249.5,-1441.5
 L 249.5,-1438.5 L 252.5,-1438.5 L 256,-1435 L 464,-1435 z
M 230.5,-1215.5 L 230.5,-1218.5 L 233.5,-1218.5 L 237,-1222 L 233.5,-1225.5 L 230.5,-1225.5
 L 230.5,-1228.5 L 227,-1232 L 11,-1232 L 7.5,-1228.5 L 7.5,-1225.5 L 4.5,-1225.5
 L 1,-1222 L 4.5,-1218.5 L 7.5,-1218.5 L 7.5,-1215.5 L 11,-1212 L 227,-1212
 z
M 9.42592,-1220.5 L 9.35252,-1220.51 L 9.27948,-1220.52 L 9.20696,-1220.53 L 9.13515,-1220.54 L 9.06422,-1220.56
 L 8.99433,-1220.59 L 8.92567,-1220.61 L 8.85838,-1220.64 L 8.79264,-1220.68 L 8.7286,-1220.71 L 8.66642,-1220.75
 L 8.60625,-1220.8 L 8.54823,-1220.84 L 8.4925,-1220.89 L 8.43919,-1220.94 L 8.38844,-1220.99 L 8.34037,-1221.05
 L 8.29509,-1221.11 L 8.25271,-1221.17 L 8.21334,-1221.23 L 8.17706,-1221.29 L 8.14397,-1221.36 L 8.11414,-1221.43
 L 8.08765,-1221.49 L 8.06457,-1221.56 L 8.04494,-1221.64 L 8.02881,-1221.71 L 8.01623,-1221.78 L 8.00722,-1221.85
 L 8.00181,-1221.93 L 8,-1222 L 8,-1222 L 8.00181,-1222.07 L 8.00722,-1222.15 L 8.01623,-1222.22
 L 8.02881,-1222.29 L 8.04494,-1222.36 L 8.06457,-1222.44 L 8.08765,-1222.51 L 8.11414,-1222.57 L 8.14397,-1222.64
 L 8.17706,-1222.71 L 8.21334,-1222.77 L 8.25271,-1222.83 L 8.29509,-1222.89 L 8.34037,-1222.95 L 8.38844,-1223.01
 L 8.43919,-1223.06 L 8.4925,-1223.11 L 8.54823,-1223.16 L 8.60625,-1223.2 L 8.66642,-1223.25 L 8.7286,-1223.29
 L 8.79264,-1223.32 L 8.85838,-1223.36 L 8.92567,-1223.39 L 8.99433,-1223.41 L 9.06422,-1223.44 L 9.13515,-1223.46
 L 9.20696,-1223.47 L 9.27948,-1223.48 L 9.35252,-1223.49 L 9.42592,-1223.5 L 9.4995,-1223.5 L 11.5005,-1223.5
 L 11.5741,-1223.5 L 11.6475,-1223.49 L 11.7205,-1223.48 L 11.793,-1223.47 L 11.8648,-1223.46 L 11.9358,-1223.44
 L 12.0057,-1223.41 L 12.0743,-1223.39 L 12.1416,-1223.36 L 12.2074,-1223.32 L 12.2714,-1223.29 L 12.3336,-1223.25
 L 12.3938,-1223.2 L 12.4518,-1223.16 L 12.5075,-1223.11 L 12.5608,-1223.06 L 12.6116,-1223.01 L 12.6596,-1222.95
 L 12.7049,-1222.89 L 12.7473,-1222.83 L 12.7867,-1222.77 L 12.8229,-1222.71 L 12.856,-1222.64 L 12.8859,-1222.57
 L 12.9123,-1222.51 L 12.9354,-1222.44 L 12.9551,-1222.36 L 12.9712,-1222.29 L 12.9838,-1222.22 L 12.9928,-1222.15
 L 12.9982,-1222.07 L 13,-1222 L 13,-1222 L 12.9982,-1221.93 L 12.9928,-1221.85 L 12.9838,-1221.78
 L 12.9712,-1221.71 L 12.9551,-1221.64 L 12.9354,-1221.56 L 12.9123,-1221.49 L 12.8859,-1221.43 L 12.856,-1221.36
 L 12.8229,-1221.29 L 12.7867,-1221.23 L 12.7473,-1221.17 L 12.7049,-1221.11 L 12.6596,-1221.05 L 12.6116,-1220.99
 L 12.5608,-1220.94 L 12.5075,-1220.89 L 12.4518,-1220.84 L 12.3938,-1220.8 L 12.3336,-1220.75 L 12.2714,-1220.71
 L 12.2074,-1220.68 L 12.1416,-1220.64 L 12.0743,-1220.61 L 12.0057,-1220.59 L 11.9358,-1220.56 L 11.8648,-1220.54
 L 11.793,-1220.53 L 11.7205,-1220.52 L 11.6475,-1220.51 L 11.5741,-1220.5 L 11.5005,-1220.5 L 9.4995,-1220.5
 z
M 226.426,-1220.5 L 226.353,-1220.51 L 226.279,-1220.52 L 226.207,-1220.53 L 226.135,-1220.54 L 226.064,-1220.56
 L 225.994,-1220.59 L 225.926,-1220.61 L 225.858,-1220.64 L 225.793,-1220.68 L 225.729,-1220.71 L 225.666,-1220.75
 L 225.606,-1220.8 L 225.548,-1220.84 L 225.492,-1220.89 L 225.439,-1220.94 L 225.388,-1220.99 L 225.34,-1221.05
 L 225.295,-1221.11 L 225.253,-1221.17 L 225.213,-1221.23 L 225.177,-1221.29 L 225.144,-1221.36 L 225.114,-1221.43
 L 225.088,-1221.49 L 225.065,-1221.56 L 225.045,-1221.64 L 225.029,-1221.71 L 225.016,-1221.78 L 225.007,-1221.85
 L 225.002,-1221.93 L 225,-1222 L 225,-1222 L 225.002,-1222.07 L 225.007,-1222.15 L 225.016,-1222.22
 L 225.029,-1222.29 L 225.045,-1222.36 L 225.065,-1222.44 L 225.088,-1222.51 L 225.114,-1222.57 L 225.144,-1222.64
 L 225.177,-1222.71 L 225.213,-1222.77 L 225.253,-1222.83 L 225.295,-1222.89 L 225.34,-1222.95 L 225.388,-1223.01
 L 225.439,-1223.06 L 225.492,-1223.11 L 225.548,-1223.16 L 225.606,-1223.2 L 225.666,-1223.25 L 225.729,-1223.29
 L 225.793,-1223.32 L 225.858,-1223.36 L 225.926,-1223.39 L 225.994,-1223.41 L 226.064,-1223.44 L 226.135,-1223.46
 L 226.207,-1223.47 L 226.279,-1223.48 L 226.353,-1223.49 L 226.426,-1223.5 L 226.499,-1223.5 L 228.501,-1223.5
 L 228.574,-1223.5 L 228.647,-1223.49 L 228.721,-1223.48 L 228.793,-1223.47 L 228.865,-1223.46 L 228.936,-1223.44
 L 229.006,-1223.41 L 229.074,-1223.39 L 229.142,-1223.36 L 229.207,-1223.32 L 229.271,-1223.29 L 229.334,-1223.25
 L 229.394,-1223.2 L 229.452,-1223.16 L 229.508,-1223.11 L 229.561,-1223.06 L 229.612,-1223.01 L 229.66,-1222.95
 L 229.705,-1222.89 L 229.747,-1222.83 L 229.787,-1222.77 L 229.823,-1222.71 L 229.856,-1222.64 L 229.886,-1222.57
 L 229.912,-1222.51 L 229.935,-1222.44 L 229.955,-1222.36 L 229.971,-1222.29 L 229.984,-1222.22 L 229.993,-1222.15
 L 229.998,-1222.07 L 230,-1222 L 230,-1222 L 229.998,-1221.93 L 229.993,-1221.85 L 229.984,-1221.78
 L 229.971,-1221.71 L 229.955,-1221.64 L 229.935,-1221.56 L 229.912,-1221.49 L 229.886,-1221.43 L 229.856,-1221.36
 L 229.823,-1221.29 L 229.787,-1221.23 L 229.747,-1221.17 L 229.705,-1221.11 L 229.66,-1221.05 L 229.612,-1220.99
 L 229.561,-1220.94 L 229.508,-1220.89 L 229.452,-1220.84 L 229.394,-1220.8 L 229.334,-1220.75 L 229.271,-1220.71
 L 229.207,-1220.68 L 229.142,-1220.64 L 229.074,-1220.61 L 229.006,-1220.59 L 228.936,-1220.56 L 228.865,-1220.54
 L 228.793,-1220.53 L 228.721,-1220.52 L 228.647,-1220.51 L 228.574,-1220.5 L 228.501,-1220.5 L 226.499,-1220.5
 z
M 770.5,-1215.5 L 770.5,-1218.5 L 773.5,-1218.5 L 777,-1222 L 773.5,-1225.5 L 770.5,-1225.5
 L 770.5,-1228.5 L 767,-1232 L 551,-1232 L 547.5,-1228.5 L 547.5,-1225.5 L 544.5,-1225.5
 L 541,-1222 L 544.5,-1218.5 L 547.5,-1218.5 L 547.5,-1215.5 L 551,-1212 L 767,-1212
 z
M 549.426,-1220.5 L 549.353,-1220.51 L 549.279,-1220.52 L 549.207,-1220.53 L 549.135,-1220.54 L 549.064,-1220.56
 L 548.994,-1220.59 L 548.926,-1220.61 L 548.858,-1220.64 L 548.793,-1220.68 L 548.729,-1220.71 L 548.666,-1220.75
 L 548.606,-1220.8 L 548.548,-1220.84 L 548.492,-1220.89 L 548.439,-1220.94 L 548.388,-1220.99 L 548.34,-1221.05
 L 548.295,-1221.11 L 548.253,-1221.17 L 548.213,-1221.23 L 548.177,-1221.29 L 548.144,-1221.36 L 548.114,-1221.43
 L 548.088,-1221.49 L 548.065,-1221.56 L 548.045,-1221.64 L 548.029,-1221.71 L 548.016,-1221.78 L 548.007,-1221.85
 L 548.002,-1221.93 L 548,-1222 L 548,-1222 L 548.002,-1222.07 L 548.007,-1222.15 L 548.016,-1222.22
 L 548.029,-1222.29 L 548.045,-1222.36 L 548.065,-1222.44 L 548.088,-1222.51 L 548.114,-1222.57 L 548.144,-1222.64
 L 548.177,-1222.71 L 548.213,-1222.77 L 548.253,-1222.83 L 548.295,-1222.89 L 548.34,-1222.95 L 548.388,-1223.01
 L 548.439,-1223.06 L 548.492,-1223.11 L 548.548,-1223.16 L 548.606,-1223.2 L 548.666,-1223.25 L 548.729,-1223.29
 L 548.793,-1223.32 L 548.858,-1223.36 L 548.926,-1223.39 L 548.994,-1223.41 L 549.064,-1223.44 L 549.135,-1223.46
 L 549.207,-1223.47 L 549.279,-1223.48 L 549.353,-1223.49 L 549.426,-1223.5 L 549.499,-1223.5 L 551.501,-1223.5
 L 551.574,-1223.5 L 551.647,-1223.49 L 551.721,-1223.48 L 551.793,-1223.47 L 551.865,-1223.46 L 551.936,-1223.44
 L 552.006,-1223.41 L 552.074,-1223.39 L 552.142,-1223.36 L 552.207,-1223.32 L 552.271,-1223.29 L 552.334,-1223.25
 L 552.394,-1223.2 L 552.452,-1223.16 L 552.508,-1223.11 L 552.561,-1223.06 L 552.612,-1223.01 L 552.66,-1222.95
 L 552.705,-1222.89 L 552.747,-1222.83 L 552.787,-1222.77 L 552.823,-1222.71 L 552.856,-1222.64 L 552.886,-1222.57
 L 552.912,-1222.51 L 552.935,-1222.44 L 552.955,-1222.36 L 552.971,-1222.29 L 552.984,-1222.22 L 552.993,-1222.15
 L 552.998,-1222.07 L 553,-1222 L 553,-1222 L 552.998,-1221.93 L 552.993,-1221.85 L 552.984,-1221.78
 L 552.971,-1221.71 L 552.955,-1221.64 L 552.935,-1221.56 L 552.912,-1221.49 L 552.886,-1221.43 L 552.856,-1221.36
 L 552.823,-1221.29 L 552.787,-1221.23 L 552.747,-1221.17 L 552.705,-1221.11 L 552.66,-1221.05 L 552.612,-1220.99
 L 552.561,-1220.94 L 552.508,-1220.89 L 552.452,-1220.84 L 552.394,-1220.8 L 552.334,-1220.75 L 552.271,-1220.71
 L 552.207,-1220.68 L 552.142,-1220.64 L 552.074,-1220.61 L 552.006,-1220.59 L 551.936,-1220.56 L 551.865,-1220.54
 L 551.793,-1220.53 L 551.721,-1220.52 L 551.647,-1220.51 L 551.574,-1220.5 L 551.501,-1220.5 L 549.499,-1220.5
 z
M 766.426,-1220.5 L 766.353,-1220.51 L 766.279,-1220.52 L 766.207,-1220.53 L 766.135,-1220.54 L 766.064,-1220.56
 L 765.994,-1220.59 L 765.926,-1220.61 L 765.858,-1220.64 L 765.793,-1220.68 L 765.729,-1220.71 L 765.666,-1220.75
 L 765.606,-1220.8 L 765.548,-1220.84 L 765.492,-1220.89 L 765.439,-1220.94 L 765.388,-1220.99 L 765.34,-1221.05
 L 765.295,-1221.11 L 765.253,-1221.17 L 765.213,-1221.23 L 765.177,-1221.29 L 765.144,-1221.36 L 765.114,-1221.43
 L 765.088,-1221.49 L 765.065,-1221.56 L 765.045,-1221.64 L 765.029,-1221.71 L 765.016,-1221.78 L 765.007,-1221.85
 L 765.002,-1221.93 L 765,-1222 L 765,-1222 L 765.002,-1222.07 L 765.007,-1222.15 L 765.016,-1222.22
 L 765.029,-1222.29 L 765.045,-1222.36 L 765.065,-1222.44 L 765.088,-1222.51 L 765.114,-1222.57 L 765.144,-1222.64
 L 765.177,-1222.71 L 765.213,-1222.77 L 765.253,-1222.83 L 765.295,-1222.89 L 765.34,-1222.95 L 765.388,-1223.01
 L 765.439,-1223.06 L 765.492,-1223.11 L 765.548,-1223.16 L 765.606,-1223.2 L 765.666,-1223.25 L 765.729,-1223.29
 L 765.793,-1223.32 L 765.858,-1223.36 L 765.926,-1223.39 L 765.994,-1223.41 L 766.064,-1223.44 L 766.135,-1223.46
 L 766.207,-1223.47 L 766.279,-1223.48 L 766.353,-1223.49 L 766.426,-1223.5 L 766.499,-1223.5 L 768.501,-1223.5
 L 768.574,-1223.5 L 768.647,-1223.49 L 768.721,-1223.48 L 768.793,-1223.47 L 768.865,-1223.46 L 768.936,-1223.44
 L 769.006,-1223.41 L 769.074,-1223.39 L 769.142,-1223.36 L 769.207,-1223.32 L 769.271,-1223.29 L 769.334,-1223.25
 L 769.394,-1223.2 L 769.452,-1223.16 L 769.508,-1223.11 L 769.561,-1223.06 L 769.612,-1223.01 L 769.66,-1222.95
 L 769.705,-1222.89 L 769.747,-1222.83 L 769.787,-1222.77 L 769.823,-1222.71 L 769.856,-1222.64 L 769.886,-1222.57
 L 769.912,-1222.51 L 769.935,-1222.44 L 769.955,-1222.36 L 769.971,-1222.29 L 769.984,-1222.22 L 769.993,-1222.15
 L 769.998,-1222.07 L 770,-1222 L 770,-1222 L 769.998,-1221.93 L 769.993,-1221.85 L 769.984,-1221.78
 L 769.971,-1221.71 L 769.955,-1221.64 L 769.935,-1221.56 L 769.912,-1221.49 L 769.886,-1221.43 L 769.856,-1221.36
 L 769.823,-1221.29 L 769.787,-1221.23 L 769.747,-1221.17 L 769.705,-1221.11 L 769.66,-1221.05 L 769.612,-1220.99
 L 769.561,-1220.94 L 769.508,-1220.89 L 769.452,-1220.84 L 769.394,-1220.8 L 769.334,-1220.75 L 769.271,-1220.71
 L 769.207,-1220.68 L 769.142,-1220.64 L 769.074,-1220.61 L 769.006,-1220.59 L 768.936,-1220.56 L 768.865,-1220.54
 L 768.793,-1220.53 L 768.721,-1220.52 L 768.647,-1220.51 L 768.574,-1220.5 L 768.501,-1220.5 L 766.499,-1220.5
 z
M 222.5,-1204.5 L 225.5,-1204.5 L 225.5,-1207.5 L 229,-1211 L 1,-1211 L 4.5,-1207.5
 L 4.5,-1204.5 L 7.5,-1204.5 L 11,-1201 L 219,-1201 z
M 762.5,-1204.5 L 765.5,-1204.5 L 765.5,-1207.5 L 769,-1211 L 541,-1211 L 544.5,-1207.5
 L 544.5,-1204.5 L 547.5,-1204.5 L 551,-1201 L 759,-1201 z
M 222.5,-1193.5 L 225.5,-1193.5 L 225.5,-1196.5 L 229,-1200 L 1,-1200 L 4.5,-1196.5
 L 4.5,-1193.5 L 7.5,-1193.5 L 11,-1190 L 219,-1190 z
M 762.5,-1193.5 L 765.5,-1193.5 L 765.5,-1196.5 L 769,-1200 L 541,-1200 L 544.5,-1196.5
 L 544.5,-1193.5 L 547.5,-1193.5 L 551,-1190 L 759,-1190 z
M 533.5,-986.5 L 533.5,-989.5 L 536.5,-989.5 L 540,-993 L 536.5,-996.5 L 533.5,-996.5
 L 533.5,-999.5 L 530,-1003 L 256,-1003 L 252.5,-999.5 L 252.5,-996.5 L 249.5,-996.5
 L 246,-993 L 249.5,-989.5 L 252.5,-989.5 L 252.5,-986.5 L 256,-983 L 530,-983
 z
M 258.426,-991.502 L 258.353,-991.507 L 258.279,-991.516 L 258.207,-991.529 L 258.135,-991.545 L 258.064,-991.565
 L 257.994,-991.588 L 257.926,-991.614 L 257.858,-991.644 L 257.793,-991.677 L 257.729,-991.713 L 257.666,-991.753
 L 257.606,-991.795 L 257.548,-991.84 L 257.492,-991.888 L 257.439,-991.939 L 257.388,-991.992 L 257.34,-992.048
 L 257.295,-992.106 L 257.253,-992.166 L 257.213,-992.229 L 257.177,-992.293 L 257.144,-992.358 L 257.114,-992.426
 L 257.088,-992.494 L 257.065,-992.564 L 257.045,-992.635 L 257.029,-992.707 L 257.016,-992.779 L 257.007,-992.853
 L 257.002,-992.926 L 257,-992.999 L 257,-993.001 L 257.002,-993.074 L 257.007,-993.147 L 257.016,-993.221
 L 257.029,-993.293 L 257.045,-993.365 L 257.065,-993.436 L 257.088,-993.506 L 257.114,-993.574 L 257.144,-993.642
 L 257.177,-993.707 L 257.213,-993.771 L 257.253,-993.834 L 257.295,-993.894 L 257.34,-993.952 L 257.388,-994.008
 L 257.439,-994.061 L 257.492,-994.112 L 257.548,-994.16 L 257.606,-994.205 L 257.666,-994.247 L 257.729,-994.287
 L 257.793,-994.323 L 257.858,-994.356 L 257.926,-994.386 L 257.994,-994.412 L 258.064,-994.435 L 258.135,-994.455
 L 258.207,-994.471 L 258.279,-994.484 L 258.353,-994.493 L 258.426,-994.498 L 258.499,-994.5 L 260.501,-994.5
 L 260.574,-994.498 L 260.647,-994.493 L 260.721,-994.484 L 260.793,-994.471 L 260.865,-994.455 L 260.936,-994.435
 L 261.006,-994.412 L 261.074,-994.386 L 261.142,-994.356 L 261.207,-994.323 L 261.271,-994.287 L 261.334,-994.247
 L 261.394,-994.205 L 261.452,-994.16 L 261.508,-994.112 L 261.561,-994.061 L 261.612,-994.008 L 261.66,-993.952
 L 261.705,-993.894 L 261.747,-993.834 L 261.787,-993.771 L 261.823,-993.707 L 261.856,-993.642 L 261.886,-993.574
 L 261.912,-993.506 L 261.935,-993.436 L 261.955,-993.365 L 261.971,-993.293 L 261.984,-993.221 L 261.993,-993.147
 L 261.998,-993.074 L 262,-993.001 L 262,-992.999 L 261.998,-992.926 L 261.993,-992.853 L 261.984,-992.779
 L 261.971,-992.707 L 261.955,-992.635 L 261.935,-992.564 L 261.912,-992.494 L 261.886,-992.426 L 261.856,-992.358
 L 261.823,-992.293 L 261.787,-992.229 L 261.747,-992.166 L 261.705,-992.106 L 261.66,-992.048 L 261.612,-991.992
 L 261.561,-991.939 L 261.508,-991.888 L 261.452,-991.84 L 261.394,-991.795 L 261.334,-991.753 L 261.271,-991.713
 L 261.207,-991.677 L 261.142,-991.644 L 261.074,-991.614 L 261.006,-991.588 L 260.936,-991.565 L 260.865,-991.545
 L 260.793,-991.529 L 260.721,-991.516 L 260.647,-991.507 L 260.574,-991.502 L 260.501,-991.5 L 258.499,-991.5
 z
M 525.426,-991.502 L 525.353,-991.507 L 525.279,-991.516 L 525.207,-991.529 L 525.135,-991.545 L 525.064,-991.565
 L 524.994,-991.588 L 524.926,-991.614 L 524.858,-991.644 L 524.793,-991.677 L 524.729,-991.713 L 524.666,-991.753
 L 524.606,-991.795 L 524.548,-991.84 L 524.492,-991.888 L 524.439,-991.939 L 524.388,-991.992 L 524.34,-992.048
 L 524.295,-992.106 L 524.253,-992.166 L 524.213,-992.229 L 524.177,-992.293 L 524.144,-992.358 L 524.114,-992.426
 L 524.088,-992.494 L 524.065,-992.564 L 524.045,-992.635 L 524.029,-992.707 L 524.016,-992.779 L 524.007,-992.853
 L 524.002,-992.926 L 524,-992.999 L 524,-993.001 L 524.002,-993.074 L 524.007,-993.147 L 524.016,-993.221
 L 524.029,-993.293 L 524.045,-993.365 L 524.065,-993.436 L 524.088,-993.506 L 524.114,-993.574 L 524.144,-993.642
 L 524.177,-993.707 L 524.213,-993.771 L 524.253,-993.834 L 524.295,-993.894 L 524.34,-993.952 L 524.388,-994.008
 L 524.439,-994.061 L 524.492,-994.112 L 524.548,-994.16 L 524.606,-994.205 L 524.666,-994.247 L 524.729,-994.287
 L 524.793,-994.323 L 524.858,-994.356 L 524.926,-994.386 L 524.994,-994.412 L 525.064,-994.435 L 525.135,-994.455
 L 525.207,-994.471 L 525.279,-994.484 L 525.353,-994.493 L 525.426,-994.498 L 525.499,-994.5 L 527.501,-994.5
 L 527.574,-994.498 L 527.647,-994.493 L 527.721,-994.484 L 527.793,-994.471 L 527.865,-994.455 L 527.936,-994.435
 L 528.006,-994.412 L 528.074,-994.386 L 528.142,-994.356 L 528.207,-994.323 L 528.271,-994.287 L 528.334,-994.247
 L 528.394,-994.205 L 528.452,-994.16 L 528.508,-994.112 L 528.561,-994.061 L 528.612,-994.008 L 528.66,-993.952
 L 528.705,-993.894 L 528.747,-993.834 L 528.787,-993.771 L 528.823,-993.707 L 528.856,-993.642 L 528.886,-993.574
 L 528.912,-993.506 L 528.935,-993.436 L 528.955,-993.365 L 528.971,-993.293 L 528.984,-993.221 L 528.993,-993.147
 L 528.998,-993.074 L 529,-993.001 L 529,-992.999 L 528.998,-992.926 L 528.993,-992.853 L 528.984,-992.779
 L 528.971,-992.707 L 528.955,-992.635 L 528.935,-992.564 L 528.912,-992.494 L 528.886,-992.426 L 528.856,-992.358
 L 528.823,-992.293 L 528.787,-992.229 L 528.747,-992.166 L 528.705,-992.106 L 528.66,-992.048 L 528.612,-991.992
 L 528.561,-991.939 L 528.508,-991.888 L 528.452,-991.84 L 528.394,-991.795 L 528.334,-991.753 L 528.271,-991.713
 L 528.207,-991.677 L 528.142,-991.644 L 528.074,-991.614 L 528.006,-991.588 L 527.936,-991.565 L 527.865,-991.545
 L 527.793,-991.529 L 527.721,-991.516 L 527.647,-991.507 L 527.574,-991.502 L 527.501,-991.5 L 525.499,-991.5
 z
M 467.5,-975.5 L 470.5,-975.5 L 470.5,-978.5 L 474,-982 L 246,-982 L 249.5,-978.5
 L 249.5,-975.5 L 252.5,-975.5 L 256,-972 L 464,-972 z
M 467.5,-964.5 L 470.5,-964.5 L 470.5,-967.5 L 474,-971 L 246,-971 L 249.5,-967.5
 L 249.5,-964.5 L 252.5,-964.5 L 256,-961 L 464,-961 z
M 533.5,-511.5 L 533.5,-514.5 L 536.5,-514.5 L 540,-518 L 536.5,-521.5 L 533.5,-521.5
 L 533.5,-524.5 L 530,-528 L 256,-528 L 252.5,-524.5 L 252.5,-521.5 L 249.5,-521.5
 L 246,-518 L 249.5,-514.5 L 252.5,-514.5 L 252.5,-511.5 L 256,-508 L 530,-508
 z
M 258.426,-516.502 L 258.353,-516.507 L 258.279,-516.516 L 258.207,-516.529 L 258.135,-516.545 L 258.064,-516.565
 L 257.994,-516.588 L 257.926,-516.614 L 257.858,-516.644 L 257.793,-516.677 L 257.729,-516.713 L 257.666,-516.753
 L 257.606,-516.795 L 257.548,-516.84 L 257.492,-516.888 L 257.439,-516.939 L 257.388,-516.992 L 257.34,-517.048
 L 257.295,-517.106 L 257.253,-517.166 L 257.213,-517.229 L 257.177,-517.293 L 257.144,-517.358 L 257.114,-517.426
 L 257.088,-517.494 L 257.065,-517.564 L 257.045,-517.635 L 257.029,-517.707 L 257.016,-517.779 L 257.007,-517.853
 L 257.002,-517.926 L 257,-517.999 L 257,-518.001 L 257.002,-518.074 L 257.007,-518.147 L 257.016,-518.221
 L 257.029,-518.293 L 257.045,-518.365 L 257.065,-518.436 L 257.088,-518.506 L 257.114,-518.574 L 257.144,-518.642
 L 257.177,-518.707 L 257.213,-518.771 L 257.253,-518.834 L 257.295,-518.894 L 257.34,-518.952 L 257.388,-519.008
 L 257.439,-519.061 L 257.492,-519.112 L 257.548,-519.16 L 257.606,-519.205 L 257.666,-519.247 L 257.729,-519.287
 L 257.793,-519.323 L 257.858,-519.356 L 257.926,-519.386 L 257.994,-519.412 L 258.064,-519.435 L 258.135,-519.455
 L 258.207,-519.471 L 258.279,-519.484 L 258.353,-519.493 L 258.426,-519.498 L 258.499,-519.5 L 260.501,-519.5
 L 260.574,-519.498 L 260.647,-519.493 L 260.721,-519.484 L 260.793,-519.471 L 260.865,-519.455 L 260.936,-519.435
 L 261.006,-519.412 L 261.074,-519.386 L 261.142,-519.356 L 261.207,-519.323 L 261.271,-519.287 L 261.334,-519.247
 L 261.394,-519.205 L 261.452,-519.16 L 261.508,-519.112 L 261.561,-519.061 L 261.612,-519.008 L 261.66,-518.952
 L 261.705,-518.894 L 261.747,-518.834 L 261.787,-518.771 L 261.823,-518.707 L 261.856,-518.642 L 261.886,-518.574
 L 261.912,-518.506 L 261.935,-518.436 L 261.955,-518.365 L 261.971,-518.293 L 261.984,-518.221 L 261.993,-518.147
 L 261.998,-518.074 L 262,-518.001 L 262,-517.999 L 261.998,-517.926 L 261.993,-517.853 L 261.984,-517.779
 L 261.971,-517.707 L 261.955,-517.635 L 261.935,-517.564 L 261.912,-517.494 L 261.886,-517.426 L 261.856,-517.358
 L 261.823,-517.293 L 261.787,-517.229 L 261.747,-517.166 L 261.705,-517.106 L 261.66,-517.048 L 261.612,-516.992
 L 261.561,-516.939 L 261.508,-516.888 L 261.452,-516.84 L 261.394,-516.795 L 261.334,-516.753 L 261.271,-516.713
 L 261.207,-516.677 L 261.142,-516.644 L 261.074,-516.614 L 261.006,-516.588 L 260.936,-516.565 L 260.865,-516.545
 L 260.793,-516.529 L 260.721,-516.516 L 260.647,-516.507 L 260.574,-516.502 L 260.501,-516.5 L 258.499,-516.5
 z
M 525.426,-516.502 L 525.353,-516.507 L 525.279,-516.516 L 525.207,-516.529 L 525.135,-516.545 L 525.064,-516.565
 L 524.994,-516.588 L 524.926,-516.614 L 524.858,-516.644 L 524.793,-516.677 L 524.729,-516.713 L 524.666,-516.753
 L 524.606,-516.795 L 524.548,-516.84 L 524.492,-516.888 L 524.439,-516.939 L 524.388,-516.992 L 524.34,-517.048
 L 524.295,-517.106 L 524.253,-517.166 L 524.213,-517.229 L 524.177,-517.293 L 524.144,-517.358 L 524.114,-517.426
 L 524.088,-517.494 L 524.065,-517.564 L 524.045,-517.635 L 524.029,-517.707 L 524.016,-517.779 L 524.007,-517.853
 L 524.002,-517.926 L 524,-517.999 L 524,-518.001 L 524.002,-518.074 L 524.007,-518.147 L 524.016,-518.221
 L 524.029,-518.293 L 524.045,-518.365 L 524.065,-518.436 L 524.088,-518.506 L 524.114,-518.574 L 524.144,-518.642
 L 524.177,-518.707 L 524.213,-518.771 L 524.253,-518.834 L 524.295,-518.894 L 524.34,-518.952 L 524.388,-519.008
 L 524.439,-519.061 L 524.492,-519.112 L 524.548,-519.16 L 524.606,-519.205 L 524.666,-519.247 L 524.729,-519.287
 L 524.793,-519.323 L 524.858,-519.356 L 524.926,-519.386 L 524.994,-519.412 L 525.064,-519.435 L 525.135,-519.455
 L 525.207,-519.471 L 525.279,-519.484 L 525.353,-519.493 L 525.426,-519.498 L 525.499,-519.5 L 527.501,-519.5
 L 527.574,-519.498 L 527.647,-519.493 L 527.721,-519.484 L 527.793,-519.471 L 527.865,-519.455 L 527.936,-519.435
 L 528.006,-519.412 L 528.074,-519.386 L 528.142,-519.356 L 528.207,-519.323 L 528.271,-519.287 L 528.334,-519.247
 L 528.394,-519.205 L 528.452,-519.16 L 528.508,-519.112 L 528.561,-519.061 L 528.612,-519.008 L 528.66,-518.952
 L 528.705,-518.894 L 528.747,-518.834 L 528.787,-518.771 L 528.823,-518.707 L 528.856,-518.642 L 528.886,-518.574
 L 528.912,-518.506 L 528.935,-518.436 L 528.955,-518.365 L 528.971,-518.293 L 528.984,-518.221 L 528.993,-518.147
 L 528.998,-518.074 L 529,-518.001 L 529,-517.999 L 528.998,-517.926 L 528.993,-517.853 L 528.984,-517.779
 L 528.971,-517.707 L 528.955,-517.635 L 528.935,-517.564 L 528.912,-517.494 L 528.886,-517.426 L 528.856,-517.358
 L 528.823,-517.293 L 528.787,-517.229 L 528.747,-517.166 L 528.705,-517.106 L 528.66,-517.048 L 528.612,-516.992
 L 528.561,-516.939 L 528.508,-516.888 L 528.452,-516.84 L 528.394,-516.795 L 528.334,-516.753 L 528.271,-516.713
 L 528.207,-516.677 L 528.142,-516.644 L 528.074,-516.614 L 528.006,-516.588 L 527.936,-516.565 L 527.865,-516.545
 L 527.793,-516.529 L 527.721,-516.516 L 527.647,-516.507 L 527.574,-516.502 L 527.501,-516.5 L 525.499,-516.5
 z
M 467.5,-500.5 L 470.5,-500.5 L 470.5,-503.5 L 474,-507 L 246,-507 L 249.5,-503.5
 L 249.5,-500.5 L 252.5,-500.5 L 256,-497 L 464,-497 z
M 467.5,-489.5 L 470.5,-489.5 L 470.5,-492.5 L 474,-496 L 246,-496 L 249.5,-492.5
 L 249.5,-489.5 L 252.5,-489.5 L 256,-486 L 464,-486 z
M 533.5,-478.5 L 533.5,-481.5 L 536.5,-481.5 L 540,-485 L 529,-485 L 529,-484.999
 L 528.998,-484.926 L 528.993,-484.853 L 528.984,-484.779 L 528.971,-484.707 L 528.955,-484.635 L 528.935,-484.564
 L 528.912,-484.494 L 528.886,-484.426 L 528.856,-484.358 L 528.823,-484.293 L 528.787,-484.229 L 528.747,-484.166
 L 528.705,-484.106 L 528.66,-484.048 L 528.612,-483.992 L 528.561,-483.939 L 528.508,-483.888 L 528.452,-483.84
 L 528.394,-483.795 L 528.334,-483.753 L 528.271,-483.713 L 528.207,-483.677 L 528.142,-483.644 L 528.074,-483.614
 L 528.006,-483.588 L 527.936,-483.565 L 527.865,-483.545 L 527.793,-483.529 L 527.721,-483.516 L 527.647,-483.507
 L 527.574,-483.502 L 527.501,-483.5 L 525.499,-483.5 L 525.426,-483.502 L 525.353,-483.507 L 525.279,-483.516
 L 525.207,-483.529 L 525.135,-483.545 L 525.064,-483.565 L 524.994,-483.588 L 524.926,-483.614 L 524.858,-483.644
 L 524.793,-483.677 L 524.729,-483.713 L 524.666,-483.753 L 524.606,-483.795 L 524.548,-483.84 L 524.492,-483.888
 L 524.439,-483.939 L 524.388,-483.992 L 524.34,-484.048 L 524.295,-484.106 L 524.253,-484.166 L 524.213,-484.229
 L 524.177,-484.293 L 524.144,-484.358 L 524.114,-484.426 L 524.088,-484.494 L 524.065,-484.564 L 524.045,-484.635
 L 524.029,-484.707 L 524.016,-484.779 L 524.007,-484.853 L 524.002,-484.926 L 524,-484.999 L 524,-485
 L 262,-485 L 262,-484.999 L 261.998,-484.926 L 261.993,-484.853 L 261.984,-484.779 L 261.971,-484.707
 L 261.955,-484.635 L 261.935,-484.564 L 261.912,-484.494 L 261.886,-484.426 L 261.856,-484.358 L 261.823,-484.293
 L 261.787,-484.229 L 261.747,-484.166 L 261.705,-484.106 L 261.66,-484.048 L 261.612,-483.992 L 261.561,-483.939
 L 261.508,-483.888 L 261.452,-483.84 L 261.394,-483.795 L 261.334,-483.753 L 261.271,-483.713 L 261.207,-483.677
 L 261.142,-483.644 L 261.074,-483.614 L 261.006,-483.588 L 260.936,-483.565 L 260.865,-483.545 L 260.793,-483.529
 L 260.721,-483.516 L 260.647,-483.507 L 260.574,-483.502 L 260.501,-483.5 L 258.499,-483.5 L 258.426,-483.502
 L 258.353,-483.507 L 258.279,-483.516 L 258.207,-483.529 L 258.135,-483.545 L 258.064,-483.565 L 257.994,-483.588
 L 257.926,-483.614 L 257.858,-483.644 L 257.793,-483.677 L 257.729,-483.713 L 257.666,-483.753 L 257.606,-483.795
 L 257.548,-483.84 L 257.492,-483.888 L 257.439,-483.939 L 257.388,-483.992 L 257.34,-484.048 L 257.295,-484.106
 L 257.253,-484.166 L 257.213,-484.229 L 257.177,-484.293 L 257.144,-484.358 L 257.114,-484.426 L 257.088,-484.494
 L 257.065,-484.564 L 257.045,-484.635 L 257.029,-484.707 L 257.016,-484.779 L 257.007,-484.853 L 257.002,-484.926
 L 257,-484.999 L 257,-485 L 246,-485 L 249.5,-481.5 L 252.5,-481.5 L 252.5,-478.5
 L 256,-475 L 530,-475 z
M 230.5,-266.5 L 230.5,-269.5 L 233.5,-269.5 L 237,-273 L 233.5,-276.5 L 230.5,-276.5
 L 230.5,-279.5 L 227,-283 L 11,-283 L 7.5,-279.5 L 7.5,-276.5 L 4.5,-276.5
 L 1,-273 L 4.5,-269.5 L 7.5,-269.5 L 7.5,-266.5 L 11,-263 L 227,-263
 z
M 9.42592,-271.502 L 9.35252,-271.507 L 9.27948,-271.516 L 9.20696,-271.529 L 9.13515,-271.545 L 9.06422,-271.565
 L 8.99433,-271.588 L 8.92567,-271.614 L 8.85838,-271.644 L 8.79264,-271.677 L 8.7286,-271.713 L 8.66642,-271.753
 L 8.60625,-271.795 L 8.54823,-271.84 L 8.4925,-271.888 L 8.43919,-271.939 L 8.38844,-271.992 L 8.34037,-272.048
 L 8.29509,-272.106 L 8.25271,-272.166 L 8.21334,-272.229 L 8.17706,-272.293 L 8.14397,-272.358 L 8.11414,-272.426
 L 8.08765,-272.494 L 8.06457,-272.564 L 8.04494,-272.635 L 8.02881,-272.707 L 8.01623,-272.779 L 8.00722,-272.853
 L 8.00181,-272.926 L 8,-272.999 L 8,-273.001 L 8.00181,-273.074 L 8.00722,-273.147 L 8.01623,-273.221
 L 8.02881,-273.293 L 8.04494,-273.365 L 8.06457,-273.436 L 8.08765,-273.506 L 8.11414,-273.574 L 8.14397,-273.642
 L 8.17706,-273.707 L 8.21334,-273.771 L 8.25271,-273.834 L 8.29509,-273.894 L 8.34037,-273.952 L 8.38844,-274.008
 L 8.43919,-274.061 L 8.4925,-274.112 L 8.54823,-274.16 L 8.60625,-274.205 L 8.66642,-274.247 L 8.7286,-274.287
 L 8.79264,-274.323 L 8.85838,-274.356 L 8.92567,-274.386 L 8.99433,-274.412 L 9.06422,-274.435 L 9.13515,-274.455
 L 9.20696,-274.471 L 9.27948,-274.484 L 9.35252,-274.493 L 9.42592,-274.498 L 9.4995,-274.5 L 11.5005,-274.5
 L 11.5741,-274.498 L 11.6475,-274.493 L 11.7205,-274.484 L 11.793,-274.471 L 11.8648,-274.455 L 11.9358,-274.435
 L 12.0057,-274.412 L 12.0743,-274.386 L 12.1416,-274.356 L 12.2074,-274.323 L 12.2714,-274.287 L 12.3336,-274.247
 L 12.3938,-274.205 L 12.4518,-274.16 L 12.5075,-274.112 L 12.5608,-274.061 L 12.6116,-274.008 L 12.6596,-273.952
 L 12.7049,-273.894 L 12.7473,-273.834 L 12.7867,-273.771 L 12.8229,-273.707 L 12.856,-273.642 L 12.8859,-273.574
 L 12.9123,-273.506 L 12.9354,-273.436 L 12.9551,-273.365 L 12.9712,-273.293 L 12.9838,-273.221 L 12.9928,-273.147
 L 12.9982,-273.074 L 13,-273.001 L 13,-272.999 L 12.9982,-272.926 L 12.9928,-272.853 L 12.9838,-272.779
 L 12.9712,-272.707 L 12.9551,-272.635 L 12.9354,-272.564 L 12.9123,-272.494 L 12.8859,-272.426 L 12.856,-272.358
 L 12.8229,-272.293 L 12.7867,-272.229 L 12.7473,-272.166 L 12.7049,-272.106 L 12.6596,-272.048 L 12.6116,-271.992
 L 12.5608,-271.939 L 12.5075,-271.888 L 12.4518,-271.84 L 12.3938,-271.795 L 12.3336,-271.753 L 12.2714,-271.713
 L 12.2074,-271.677 L 12.1416,-271.644 L 12.0743,-271.614 L 12.0057,-271.588 L 11.9358,-271.565 L 11.8648,-271.545
 L 11.793,-271.529 L 11.7205,-271.516 L 11.6475,-271.507 L 11.5741,-271.502 L 11.5005,-271.5 L 9.4995,-271.5
 z
M 226.426,-271.502 L 226.353,-271.507 L 226.279,-271.516 L 226.207,-271.529 L 226.135,-271.545 L 226.064,-271.565
 L 225.994,-271.588 L 225.926,-271.614 L 225.858,-271.644 L 225.793,-271.677 L 225.729,-271.713 L 225.666,-271.753
 L 225.606,-271.795 L 225.548,-271.84 L 225.492,-271.888 L 225.439,-271.939 L 225.388,-271.992 L 225.34,-272.048
 L 225.295,-272.106 L 225.253,-272.166 L 225.213,-272.229 L 225.177,-272.293 L 225.144,-272.358 L 225.114,-272.426
 L 225.088,-272.494 L 225.065,-272.564 L 225.045,-272.635 L 225.029,-272.707 L 225.016,-272.779 L 225.007,-272.853
 L 225.002,-272.926 L 225,-272.999 L 225,-273.001 L 225.002,-273.074 L 225.007,-273.147 L 225.016,-273.221
 L 225.029,-273.293 L 225.045,-273.365 L 225.065,-273.436 L 225.088,-273.506 L 225.114,-273.574 L 225.144,-273.642
 L 225.177,-273.707 L 225.213,-273.771 L 225.253,-273.834 L 225.295,-273.894 L 225.34,-273.952 L 225.388,-274.008
 L 225.439,-274.061 L 225.492,-274.112 L 225.548,-274.16 L 225.606,-274.205 L 225.666,-274.247 L 225.729,-274.287
 L 225.793,-274.323 L 225.858,-274.356 L 225.926,-274.386 L 225.994,-274.412 L 226.064,-274.435 L 226.135,-274.455
 L 226.207,-274.471 L 226.279,-274.484 L 226.353,-274.493 L 226.426,-274.498 L 226.499,-274.5 L 228.501,-274.5
 L 228.574,-274.498 L 228.647,-274.493 L 228.721,-274.484 L 228.793,-274.471 L 228.865,-274.455 L 228.936,-274.435
 L 229.006,-274.412 L 229.074,-274.386 L 229.142,-274.356 L 229.207,-274.323 L 229.271,-274.287 L 229.334,-274.247
 L 229.394,-274.205 L 229.452,-274.16 L 229.508,-274.112 L 229.561,-274.061 L 229.612,-274.008 L 229.66,-273.952
 L 229.705,-273.894 L 229.747,-273.834 L 229.787,-273.771 L 229.823,-273.707 L 229.856,-273.642 L 229.886,-273.574
 L 229.912,-273.506 L 229.935,-273.436 L 229.955,-273.365 L 229.971,-273.293 L 229.984,-273.221 L 229.993,-273.147
 L 229.998,-273.074 L 230,-273.001 L 230,-272.999 L 229.998,-272.926 L 229.993,-272.853 L 229.984,-272.779
 L 229.971,-272.707 L 229.955,-272.635 L 229.935,-272.564 L 229.912,-272.494 L 229.886,-272.426 L 229.856,-272.358
 L 229.823,-272.293 L 229.787,-272.229 L 229.747,-272.166 L 229.705,-272.106 L 229.66,-272.048 L 229.612,-271.992
 L 229.561,-271.939 L 229.508,-271.888 L 229.452,-271.84 L 229.394,-271.795 L 229.334,-271.753 L 229.271,-271.713
 L 229.207,-271.677 L 229.142,-271.644 L 229.074,-271.614 L 229.006,-271.588 L 228.936,-271.565 L 228.865,-271.545
 L 228.793,-271.529 L 228.721,-271.516 L 228.647,-271.507 L 228.574,-271.502 L 228.501,-271.5 L 226.499,-271.5
 z
M 770.5,-266.5 L 770.5,-269.5 L 773.5,-269.5 L 777,-273 L 773.5,-276.5 L 770.5,-276.5
 L 770.5,-279.5 L 767,-283 L 551,-283 L 547.5,-279.5 L 547.5,-276.5 L 544.5,-276.5
 L 541,-273 L 544.5,-269.5 L 547.5,-269.5 L 547.5,-266.5 L 551,-263 L 767,-263
 z
M 549.426,-271.502 L 549.353,-271.507 L 549.279,-271.516 L 549.207,-271.529 L 549.135,-271.545 L 549.064,-271.565
 L 548.994,-271.588 L 548.926,-271.614 L 548.858,-271.644 L 548.793,-271.677 L 548.729,-271.713 L 548.666,-271.753
 L 548.606,-271.795 L 548.548,-271.84 L 548.492,-271.888 L 548.439,-271.939 L 548.388,-271.992 L 548.34,-272.048
 L 548.295,-272.106 L 548.253,-272.166 L 548.213,-272.229 L 548.177,-272.293 L 548.144,-272.358 L 548.114,-272.426
 L 548.088,-272.494 L 548.065,-272.564 L 548.045,-272.635 L 548.029,-272.707 L 548.016,-272.779 L 548.007,-272.853
 L 548.002,-272.926 L 548,-272.999 L 548,-273.001 L 548.002,-273.074 L 548.007,-273.147 L 548.016,-273.221
 L 548.029,-273.293 L 548.045,-273.365 L 548.065,-273.436 L 548.088,-273.506 L 548.114,-273.574 L 548.144,-273.642
 L 548.177,-273.707 L 548.213,-273.771 L 548.253,-273.834 L 548.295,-273.894 L 548.34,-273.952 L 548.388,-274.008
 L 548.439,-274.061 L 548.492,-274.112 L 548.548,-274.16 L 548.606,-274.205 L 548.666,-274.247 L 548.729,-274.287
 L 548.793,-274.323 L 548.858,-274.356 L 548.926,-274.386 L 548.994,-274.412 L 549.064,-274.435 L 549.135,-274.455
 L 549.207,-274.471 L 549.279,-274.484 L 549.353,-274.493 L 549.426,-274.498 L 549.499,-274.5 L 551.501,-274.5
 L 551.574,-274.498 L 551.647,-274.493 L 551.721,-274.484 L 551.793,-274.471 L 551.865,-274.455 L 551.936,-274.435
 L 552.006,-274.412 L 552.074,-274.386 L 552.142,-274.356 L 552.207,-274.323 L 552.271,-274.287 L 552.334,-274.247
 L 552.394,-274.205 L 552.452,-274.16 L 552.508,-274.112 L 552.561,-274.061 L 552.612,-274.008 L 552.66,-273.952
 L 552.705,-273.894 L 552.747,-273.834 L 552.787,-273.771 L 552.823,-273.707 L 552.856,-273.642 L 552.886,-273.574
 L 552.912,-273.506 L 552.935,-273.436 L 552.955,-273.365 L 552.971,-273.293 L 552.984,-273.221 L 552.993,-273.147
 L 552.998,-273.074 L 553,-273.001 L 553,-272.999 L 552.998,-272.926 L 552.993,-272.853 L 552.984,-272.779
 L 552.971,-272.707 L 552.955,-272.635 L 552.935,-272.564 L 552.912,-272.494 L 552.886,-272.426 L 552.856,-272.358
 L 552.823,-272.293 L 552.787,-272.229 L 552.747,-272.166 L 552.705,-272.106 L 552.66,-272.048 L 552.612,-271.992
 L 552.561,-271.939 L 552.508,-271.888 L 552.452,-271.84 L 552.394,-271.795 L 552.334,-271.753 L 552.271,-271.713
 L 552.207,-271.677 L 552.142,-271.644 L 552.074,-271.614 L 552.006,-271.588 L 551.936,-271.565 L 551.865,-271.545
 L 551.793,-271.529 L 551.721,-271.516 L 551.647,-271.507 L 551.574,-271.502 L 551.501,-271.5 L 549.499,-271.5
 z
M 766.426,-271.502 L 766.353,-271.507 L 766.279,-271.516 L 766.207,-271.529 L 766.135,-271.545 L 766.064,-271.565
 L 765.994,-271.588 L 765.926,-271.614 L 765.858,-271.644 L 765.793,-271.677 L 765.729,-271.713 L 765.666,-271.753
 L 765.606,-271.795 L 765.548,-271.84 L 765.492,-271.888 L 765.439,-271.939 L 765.388,-271.992 L 765.34,-272.048
 L 765.295,-272.106 L 765.253,-272.166 L 765.213,-272.229 L 765.177,-272.293 L 765.144,-272.358 L 765.114,-272.426
 L 765.088,-272.494 L 765.065,-272.564 L 765.045,-272.635 L 765.029,-272.707 L 765.016,-272.779 L 765.007,-272.853
 L 765.002,-272.926 L 765,-272.999 L 765,-273.001 L 765.002,-273.074 L 765.007,-273.147 L 765.016,-273.221
 L 765.029,-273.293 L 765.045,-273.365 L 765.065,-273.436 L 765.088,-273.506 L 765.114,-273.574 L 765.144,-273.642
 L 765.177,-273.707 L 765.213,-273.771 L 765.253,-273.834 L 765.295,-273.894 L 765.34,-273.952 L 765.388,-274.008
 L 765.439,-274.061 L 765.492,-274.112 L 765.548,-274.16 L 765.606,-274.205 L 765.666,-274.247 L 765.729,-274.287
 L 765.793,-274.323 L 765.858,-274.356 L 765.926,-274.386 L 765.994,-274.412 L 766.064,-274.435 L 766.135,-274.455
 L 766.207,-274.471 L 766.279,-274.484 L 766.353,-274.493 L 766.426,-274.498 L 766.499,-274.5 L 768.501,-274.5
 L 768.574,-274.498 L 768.647,-274.493 L 768.721,-274.484 L 768.793,-274.471 L 768.865,-274.455 L 768.936,-274.435
 L 769.006,-274.412 L 769.074,-274.386 L 769.142,-274.356 L 769.207,-274.323 L 769.271,-274.287 L 769.334,-274.247
 L 769.394,-274.205 L 769.452,-274.16 L 769.508,-274.112 L 769.561,-274.061 L 769.612,-274.008 L 769.66,-273.952
 L 769.705,-273.894 L 769.747,-273.834 L 769.787,-273.771 L 769.823,-273.707 L 769.856,-273.642 L 769.886,-273.574
 L 769.912,-273.506 L 769.935,-273.436 L 769.955,-273.365 L 769.971,-273.293 L 769.984,-273.221 L 769.993,-273.147
 L 769.998,-273.074 L 770,-273.001 L 770,-272.999 L 769.998,-272.926 L 769.993,-272.853 L 769.984,-272.779
 L 769.971,-272.707 L 769.955,-272.635 L 769.935,-272.564 L 769.912,-272.494 L 769.886,-272.426 L 769.856,-272.358
 L 769.823,-272.293 L 769.787,-272.229 L 769.747,-272.166 L 769.705,-272.106 L 769.66,-272.048 L 769.612,-271.992
 L 769.561,-271.939 L 769.508,-271.888 L 769.452,-271.84 L 769.394,-271.795 L 769.334,-271.753 L 769.271,-271.713
 L 769.207,-271.677 L 769.142,-271.644 L 769.074,-271.614 L 769.006,-271.588 L 768.936,-271.565 L 768.865,-271.545
 L 768.793,-271.529 L 768.721,-271.516 L 768.647,-271.507 L 768.574,-271.502 L 768.501,-271.5 L 766.499,-271.5
 z
M 222.5,-255.5 L 225.5,-255.5 L 225.5,-258.5 L 229,-262 L 1,-262 L 4.5,-258.5
 L 4.5,-255.5 L 7.5,-255.5 L 11,-252 L 219,-252 z
M 762.5,-255.5 L 765.5,-255.5 L 765.5,-258.5 L 769,-262 L 541,-262 L 544.5,-258.5
 L 544.5,-255.5 L 547.5,-255.5 L 551,-252 L 759,-252 z
M 222.5,-244.5 L 225.5,-244.5 L 225.5,-247.5 L 229,-251 L 1,-251 L 4.5,-247.5
 L 4.5,-244.5 L 7.5,-244.5 L 11,-241 L 219,-241 z
M 762.5,-244.5 L 765.5,-244.5 L 765.5,-247.5 L 769,-251 L 541,-251 L 544.5,-247.5
 L 544.5,-244.5 L 547.5,-244.5 L 551,-241 L 759,-241 z
M 230.5,-233.5 L 230.5,-236.5 L 233.5,-236.5 L 237,-240 L 230,-240 L 230,-239.999
 L 229.998,-239.926 L 229.993,-239.853 L 229.984,-239.779 L 229.971,-239.707 L 229.955,-239.635 L 229.935,-239.564
 L 229.912,-239.494 L 229.886,-239.426 L 229.856,-239.358 L 229.823,-239.293 L 229.787,-239.229 L 229.747,-239.166
 L 229.705,-239.106 L 229.66,-239.048 L 229.612,-238.992 L 229.561,-238.939 L 229.508,-238.888 L 229.452,-238.84
 L 229.394,-238.795 L 229.334,-238.753 L 229.271,-238.713 L 229.207,-238.677 L 229.142,-238.644 L 229.074,-238.614
 L 229.006,-238.588 L 228.936,-238.565 L 228.865,-238.545 L 228.793,-238.529 L 228.721,-238.516 L 228.647,-238.507
 L 228.574,-238.502 L 228.501,-238.5 L 226.499,-238.5 L 226.426,-238.502 L 226.353,-238.507 L 226.279,-238.516
 L 226.207,-238.529 L 226.135,-238.545 L 226.064,-238.565 L 225.994,-238.588 L 225.926,-238.614 L 225.858,-238.644
 L 225.793,-238.677 L 225.729,-238.713 L 225.666,-238.753 L 225.606,-238.795 L 225.548,-238.84 L 225.492,-238.888
 L 225.439,-238.939 L 225.388,-238.992 L 225.34,-239.048 L 225.295,-239.106 L 225.253,-239.166 L 225.213,-239.229
 L 225.177,-239.293 L 225.144,-239.358 L 225.114,-239.426 L 225.088,-239.494 L 225.065,-239.564 L 225.045,-239.635
 L 225.029,-239.707 L 225.016,-239.779 L 225.007,-239.853 L 225.002,-239.926 L 225,-239.999 L 225,-240
 L 13,-240 L 13,-239.999 L 12.9982,-239.926 L 12.9928,-239.853 L 12.9838,-239.779 L 12.9712,-239.707
 L 12.9551,-239.635 L 12.9354,-239.564 L 12.9123,-239.494 L 12.8859,-239.426 L 12.856,-239.358 L 12.8229,-239.293
 L 12.7867,-239.229 L 12.7473,-239.166 L 12.7049,-239.106 L 12.6596,-239.048 L 12.6116,-238.992 L 12.5608,-238.939
 L 12.5075,-238.888 L 12.4518,-238.84 L 12.3938,-238.795 L 12.3336,-238.753 L 12.2714,-238.713 L 12.2074,-238.677
 L 12.1416,-238.644 L 12.0743,-238.614 L 12.0057,-238.588 L 11.9358,-238.565 L 11.8648,-238.545 L 11.793,-238.529
 L 11.7205,-238.516 L 11.6475,-238.507 L 11.5741,-238.502 L 11.5005,-238.5 L 9.4995,-238.5 L 9.42592,-238.502
 L 9.35252,-238.507 L 9.27948,-238.516 L 9.20696,-238.529 L 9.13515,-238.545 L 9.06422,-238.565 L 8.99433,-238.588
 L 8.92567,-238.614 L 8.85838,-238.644 L 8.79264,-238.677 L 8.7286,-238.713 L 8.66642,-238.753 L 8.60625,-238.795
 L 8.54823,-238.84 L 8.4925,-238.888 L 8.43919,-238.939 L 8.38844,-238.992 L 8.34037,-239.048 L 8.29509,-239.106
 L 8.25271,-239.166 L 8.21334,-239.229 L 8.17706,-239.293 L 8.14397,-239.358 L 8.11414,-239.426 L 8.08765,-239.494
 L 8.06457,-239.564 L 8.04494,-239.635 L 8.02881,-239.707 L 8.01623,-239.779 L 8.00722,-239.853 L 8.00181,-239.926
 L 8,-239.999 L 8,-240 L 1,-240 L 4.5,-236.5 L 7.5,-236.5 L 7.5,-233.5
 L 11,-230 L 227,-230 z
M 770.5,-233.5 L 770.5,-236.5 L 773.5,-236.5 L 777,-240 L 770,-240 L 770,-239.999
 L 769.998,-239.926 L 769.993,-239.853 L 769.984,-239.779 L 769.971,-239.707 L 769.955,-239.635 L 769.935,-239.564
 L 769.912,-239.494 L 769.886,-239.426 L 769.856,-239.358 L 769.823,-239.293 L 769.787,-239.229 L 769.747,-239.166
 L 769.705,-239.106 L 769.66,-239.048 L 769.612,-238.992 L 769.561,-238.939 L 769.508,-238.888 L 769.452,-238.84
 L 769.394,-238.795 L 769.334,-238.753 L 769.271,-238.713 L 769.207,-238.677 L 769.142,-238.644 L 769.074,-238.614
 L 769.006,-238.588 L 768.936,-238.565 L 768.865,-238.545 L 768.793,-238.529 L 768.721,-238.516 L 768.647,-238.507
 L 768.574,-238.502 L 768.501,-238.5 L 766.499,-238.5 L 766.426,-238.502 L 766.353,-238.507 L 766.279,-238.516
 L 766.207,-238.529 L 766.135,-238.545 L 766.064,-238.565 L 765.994,-238.588 L 765.926,-238.614 L 765.858,-238.644
 L 765.793,-238.677 L 765.729,-238.713 L 765.666,-238.753 L 765.606,-238.795 L 765.548,-238.84 L 765.492,-238.888
 L 765.439,-238.939 L 765.388,-238.992 L 765.34,-239.048 L 765.295,-239.106 L 765.253,-239.166 L 765.213,-239.229
 L 765.177,-239.293 L 765.144,-239.358 L 765.114,-239.426 L 765.088,-239.494 L 765.065,-239.564 L 765.045,-239.635
 L 765.029,-239.707 L 765.016,-239.779 L 765.007,-239.853 L 765.002,-239.926 L 765,-239.999 L 765,-240
 L 553,-240 L 553,-239.999 L 552.998,-239.926 L 552.993,-239.853 L 552.984,-239.779 L 552.971,-239.707
 L 552.955,-239.635 L 552.935,-239.564 L 552.912,-239.494 L 552.886,-239.426 L 552.856,-239.358 L 552.823,-239.293
 L 552.787,-239.229 L 552.747,-239.166 L 552.705,-239.106 L 552.66,-239.048 L 552.612,-238.992 L 552.561,-238.939
 L 552.508,-238.888 L 552.452,-238.84 L 552.394,-238.795 L 552.334,-238.753 L 552.271,-238.713 L 552.207,-238.677
 L 552.142,-238.644 L 552.074,-238.614 L 552.006,-238.588 L 551.936,-238.565 L 551.865,-238.545 L 551.793,-238.529
 L 551.721,-238.516 L 551.647,-238.507 L 551.574,-238.502 L 551.501,-238.5 L 549.499,-238.5 L 549.426,-238.502
 L 549.353,-238.507 L 549.279,-238.516 L 549.207,-238.529 L 549.135,-238.545 L 549.064,-238.565 L 548.994,-238.588
 L 548.926,-238.614 L 548.858,-238.644 L 548.793,-238.677 L 548.729,-238.713 L 548.666,-238.753 L 548.606,-238.795
 L 548.548,-238.84 L 548.492,-238.888 L 548.439,-238.939 L 548.388,-238.992 L 548.34,-239.048 L 548.295,-239.106
 L 548.253,-239.166 L 548.213,-239.229 L 548.177,-239.293 L 548.144,-239.358 L 548.114,-239.426 L 548.088,-239.494
 L 548.065,-239.564 L 548.045,-239.635 L 548.029,-239.707 L 548.016,-239.779 L 548.007,-239.853 L 548.002,-239.926
 L 548,-239.999 L 548,-240 L 541,-240 L 544.5,-236.5 L 547.5,-236.5 L 547.5,-233.5
 L 551,-230 L 767,-230 z
M 533.5,-37.5 L 533.5,-40.5 L 536.5,-40.5 L 540,-44 L 536.5,-47.5 L 533.5,-47.5
 L 533.5,-50.5 L 530,-54 L 256,-54 L 252.5,-50.5 L 252.5,-47.5 L 249.5,-47.5
 L 246,-44 L 249.5,-40.5 L 252.5,-40.5 L 252.5,-37.5 L 256,-34 L 530,-34
 z
M 258.426,-42.5018 L 258.353,-42.5072 L 258.279,-42.5162 L 258.207,-42.5288 L 258.135,-42.5449 L 258.064,-42.5646
 L 257.994,-42.5877 L 257.926,-42.6141 L 257.858,-42.644 L 257.793,-42.6771 L 257.729,-42.7133 L 257.666,-42.7527
 L 257.606,-42.7951 L 257.548,-42.8404 L 257.492,-42.8884 L 257.439,-42.9392 L 257.388,-42.9925 L 257.34,-43.0482
 L 257.295,-43.1062 L 257.253,-43.1664 L 257.213,-43.2286 L 257.177,-43.2926 L 257.144,-43.3584 L 257.114,-43.4257
 L 257.088,-43.4943 L 257.065,-43.5642 L 257.045,-43.6352 L 257.029,-43.707 L 257.016,-43.7795 L 257.007,-43.8525
 L 257.002,-43.9259 L 257,-43.9995 L 257,-44.0005 L 257.002,-44.0741 L 257.007,-44.1475 L 257.016,-44.2205
 L 257.029,-44.293 L 257.045,-44.3648 L 257.065,-44.4358 L 257.088,-44.5057 L 257.114,-44.5743 L 257.144,-44.6416
 L 257.177,-44.7074 L 257.213,-44.7714 L 257.253,-44.8336 L 257.295,-44.8938 L 257.34,-44.9518 L 257.388,-45.0075
 L 257.439,-45.0608 L 257.492,-45.1116 L 257.548,-45.1596 L 257.606,-45.2049 L 257.666,-45.2473 L 257.729,-45.2867
 L 257.793,-45.3229 L 257.858,-45.356 L 257.926,-45.3859 L 257.994,-45.4123 L 258.064,-45.4354 L 258.135,-45.4551
 L 258.207,-45.4712 L 258.279,-45.4838 L 258.353,-45.4928 L 258.426,-45.4982 L 258.499,-45.5 L 260.501,-45.5
 L 260.574,-45.4982 L 260.647,-45.4928 L 260.721,-45.4838 L 260.793,-45.4712 L 260.865,-45.4551 L 260.936,-45.4354
 L 261.006,-45.4123 L 261.074,-45.3859 L 261.142,-45.356 L 261.207,-45.3229 L 261.271,-45.2867 L 261.334,-45.2473
 L 261.394,-45.2049 L 261.452,-45.1596 L 261.508,-45.1116 L 261.561,-45.0608 L 261.612,-45.0075 L 261.66,-44.9518
 L 261.705,-44.8938 L 261.747,-44.8336 L 261.787,-44.7714 L 261.823,-44.7074 L 261.856,-44.6416 L 261.886,-44.5743
 L 261.912,-44.5057 L 261.935,-44.4358 L 261.955,-44.3648 L 261.971,-44.293 L 261.984,-44.2205 L 261.993,-44.1475
 L 261.998,-44.0741 L 262,-44.0005 L 262,-43.9995 L 261.998,-43.9259 L 261.993,-43.8525 L 261.984,-43.7795
 L 261.971,-43.707 L 261.955,-43.6352 L 261.935,-43.5642 L 261.912,-43.4943 L 261.886,-43.4257 L 261.856,-43.3584
 L 261.823,-43.2926 L 261.787,-43.2286 L 261.747,-43.1664 L 261.705,-43.1062 L 261.66,-43.0482 L 261.612,-42.9925
 L 261.561,-42.9392 L 261.508,-42.8884 L 261.452,-42.8404 L 261.394,-42.7951 L 261.334,-42.7527 L 261.271,-42.7133
 L 261.207,-42.6771 L 261.142,-42.644 L 261.074,-42.6141 L 261.006,-42.5877 L 260.936,-42.5646 L 260.865,-42.5449
 L 260.793,-42.5288 L 260.721,-42.5162 L 260.647,-42.5072 L 260.574,-42.5018 L 260.501,-42.5 L 258.499,-42.5
 z
M 525.426,-42.5018 L 525.353,-42.5072 L 525.279,-42.5162 L 525.207,-42.5288 L 525.135,-42.5449 L 525.064,-42.5646
 L 524.994,-42.5877 L 524.926,-42.6141 L 524.858,-42.644 L 524.793,-42.6771 L 524.729,-42.7133 L 524.666,-42.7527
 L 524.606,-42.7951 L 524.548,-42.8404 L 524.492,-42.8884 L 524.439,-42.9392 L 524.388,-42.9925 L 524.34,-43.0482
 L 524.295,-43.1062 L 524.253,-43.1664 L 524.213,-43.2286 L 524.177,-43.2926 L 524.144,-43.3584 L 524.114,-43.4257
 L 524.088,-43.4943 L 524.065,-43.5642 L 524.045,-43.6352 L 524.029,-43.707 L 524.016,-43.7795 L 524.007,-43.8525
 L 524.002,-43.9259 L 524,-43.9995 L 524,-44.0005 L 524.002,-44.0741 L 524.007,-44.1475 L 524.016,-44.2205
 L 524.029,-44.293 L 524.045,-44.3648 L 524.065,-44.4358 L 524.088,-44.5057 L 524.114,-44.5743 L 524.144,-44.6416
 L 524.177,-44.7074 L 524.213,-44.7714 L 524.253,-44.8336 L 524.295,-44.8938 L 524.34,-44.9518 L 524.388,-45.0075
 L 524.439,-45.0608 L 524.492,-45.1116 L 524.548,-45.1596 L 524.606,-45.2049 L 524.666,-45.2473 L 524.729,-45.2867
 L 524.793,-45.3229 L 524.858,-45.356 L 524.926,-45.3859 L 524.994,-45.4123 L 525.064,-45.4354 L 525.135,-45.4551
 L 525.207,-45.4712 L 525.279,-45.4838 L 525.353,-45.4928 L 525.426,-45.4982 L 525.499,-45.5 L 527.501,-45.5
 L 527.574,-45.4982 L 527.647,-45.4928 L 527.721,-45.4838 L 527.793,-45.4712 L 527.865,-45.4551 L 527.936,-45.4354
 L 528.006,-45.4123 L 528.074,-45.3859 L 528.142,-45.356 L 528.207,-45.3229 L 528.271,-45.2867 L 528.334,-45.2473
 L 528.394,-45.2049 L 528.452,-45.1596 L 528.508,-45.1116 L 528.561,-45.0608 L 528.612,-45.0075 L 528.66,-44.9518
 L 528.705,-44.8938 L 528.747,-44.8336 L 528.787,-44.7714 L 528.823,-44.7074 L 528.856,-44.6416 L 528.886,-44.5743
 L 528.912,-44.5057 L 528.935,-44.4358 L 528.955,-44.3648 L 528.971,-44.293 L 528.984,-44.2205 L 528.993,-44.1475
 L 528.998,-44.0741 L 529,-44.0005 L 529,-43.9995 L 528.998,-43.9259 L 528.993,-43.8525 L 528.984,-43.7795
 L 528.971,-43.707 L 528.955,-43.6352 L 528.935,-43.5642 L 528.912,-43.4943 L 528.886,-43.4257 L 528.856,-43.3584
 L 528.823,-43.2926 L 528.787,-43.2286 L 528.747,-43.1664 L 528.705,-43.1062 L 528.66,-43.0482 L 528.612,-42.9925
 L 528.561,-42.9392 L 528.508,-42.8884 L 528.452,-42.8404 L 528.394,-42.7951 L 528.334,-42.7527 L 528.271,-42.7133
 L 528.207,-42.6771 L 528.142,-42.644 L 528.074,-42.6141 L 528.006,-42.5877 L 527.936,-42.5646 L 527.865,-42.5449
 L 527.793,-42.5288 L 527.721,-42.5162 L 527.647,-42.5072 L 527.574,-42.5018 L 527.501,-42.5 L 525.499,-42.5
 z
M 467.5,-26.5 L 470.5,-26.5 L 470.5,-29.5 L 474,-33 L 246,-33 L 249.5,-29.5
 L 249.5,-26.5 L 252.5,-26.5 L 256,-23 L 464,-23 z
M 467.5,-15.5 L 470.5,-15.5 L 470.5,-18.5 L 474,-22 L 246,-22 L 249.5,-18.5
 L 249.5,-15.5 L 252.5,-15.5 L 256,-12 L 464,-12 z
M 533.5,-4.5 L 533.5,-7.5 L 536.5,-7.5 L 540,-11 L 529,-11 L 529,-10.9995
 L 528.998,-10.9259 L 528.993,-10.8525 L 528.984,-10.7795 L 528.971,-10.707 L 528.955,-10.6352 L 528.935,-10.5642
 L 528.912,-10.4943 L 528.886,-10.4257 L 528.856,-10.3584 L 528.823,-10.2926 L 528.787,-10.2286 L 528.747,-10.1664
 L 528.705,-10.1062 L 528.66,-10.0482 L 528.612,-9.9925 L 528.561,-9.93919 L 528.508,-9.88844 L 528.452,-9.84037
 L 528.394,-9.79509 L 528.334,-9.75271 L 528.271,-9.71334 L 528.207,-9.67706 L 528.142,-9.64397 L 528.074,-9.61414
 L 528.006,-9.58765 L 527.936,-9.56457 L 527.865,-9.54494 L 527.793,-9.52881 L 527.721,-9.51623 L 527.647,-9.50722
 L 527.574,-9.50181 L 527.501,-9.5 L 525.499,-9.5 L 525.426,-9.50181 L 525.353,-9.50722 L 525.279,-9.51623
 L 525.207,-9.52881 L 525.135,-9.54494 L 525.064,-9.56457 L 524.994,-9.58765 L 524.926,-9.61414 L 524.858,-9.64397
 L 524.793,-9.67706 L 524.729,-9.71334 L 524.666,-9.75271 L 524.606,-9.79509 L 524.548,-9.84037 L 524.492,-9.88844
 L 524.439,-9.93919 L 524.388,-9.9925 L 524.34,-10.0482 L 524.295,-10.1062 L 524.253,-10.1664 L 524.213,-10.2286
 L 524.177,-10.2926 L 524.144,-10.3584 L 524.114,-10.4257 L 524.088,-10.4943 L 524.065,-10.5642 L 524.045,-10.6352
 L 524.029,-10.707 L 524.016,-10.7795 L 524.007,-10.8525 L 524.002,-10.9259 L 524,-10.9995 L 524,-11
 L 262,-11 L 262,-10.9995 L 261.998,-10.9259 L 261.993,-10.8525 L 261.984,-10.7795 L 261.971,-10.707
 L 261.955,-10.6352 L 261.935,-10.5642 L 261.912,-10.4943 L 261.886,-10.4257 L 261.856,-10.3584 L 261.823,-10.2926
 L 261.787,-10.2286 L 261.747,-10.1664 L 261.705,-10.1062 L 261.66,-10.0482 L 261.612,-9.9925 L 261.561,-9.93919
 L 261.508,-9.88844 L 261.452,-9.84037 L 261.394,-9.79509 L 261.334,-9.75271 L 261.271,-9.71334 L 261.207,-9.67706
 L 261.142,-9.64397 L 261.074,-9.61414 L 261.006,-9.58765 L 260.936,-9.56457 L 260.865,-9.54494 L 260.793,-9.52881
 L 260.721,-9.51623 L 260.647,-9.50722 L 260.574,-9.50181 L 260.501,-9.5 L 258.499,-9.5 L 258.426,-9.50181
 L 258.353,-9.50722 L 258.279,-9.51623 L 258.207,-9.52881 L 258.135,-9.54494 L 258.064,-9.56457 L 257.994,-9.58765
 L 257.926,-9.61414 L 257.858,-9.64397 L 257.793,-9.67706 L 257.729,-9.71334 L 257.666,-9.75271 L 257.606,-9.79509
 L 257.548,-9.84037 L 257.492,-9.88844 L 257.439,-9.93919 L 257.388,-9.9925 L 257.34,-10.0482 L 257.295,-10.1062
 L 257.253,-10.1664 L 257.213,-10.2286 L 257.177,-10.2926 L 257.144,-10.3584 L 257.114,-10.4257 L 257.088,-10.4943
 L 257.065,-10.5642 L 257.045,-10.6352 L 257.029,-10.707 L 257.016,-10.7795 L 257.007,-10.8525 L 257.002,-10.9259
 L 257,-10.9995 L 257,-11 L 246,-11 L 249.5,-7.5 L 252.5,-7.5 L 252.5,-4.5
 L 256,-1 L 530,-1 z
" stroke="#000000" fill="none" stroke-width="0.35"/>
</svg>
