<?xml version="1.0" standalone="no"?>
<!DOCTYPE svg PUBLIC "-//W3C//DTD SVG 1.1//EN" "http://www.w3.org/Graphics/SVG/1.1/DTD/svg11.dtd">
<svg width="590mm" height="1644mm" viewBox="0 -1644 590 1644" xmlns="http://www.w3.org/2000/svg" version="1.1">
<title>OpenSCAD Model</title>
<path d="
M 238.5,-1643 L 223,-1643 L 223,-1400 L 238.5,-1400 z
M 255,-1643 L 239.5,-1643 L 239.5,-1400 L 255,-1400 z
M 271.5,-1643 L 256,-1643 L 256,-1400 L 271.5,-1400 z
M 288,-1643 L 272.5,-1643 L 272.5,-1400 L 288,-1400 z
M 304.5,-1643 L 289,-1643 L 289,-1400 L 304.5,-1400 z
M 321,-1643 L 305.5,-1643 L 305.5,-1400 L 321,-1400 z
M 337.5,-1643 L 322,-1643 L 322,-1400 L 337.5,-1400 z
M 354,-1643 L 338.5,-1643 L 338.5,-1400 L 354,-1400 z
M 370.5,-1643 L 355,-1643 L 355,-1400 L 370.5,-1400 z
M 387,-1643 L 371.5,-1643 L 371.5,-1400 L 387,-1400 z
M 7.6,-1421 L 1,-1421 L 1,-1178 L 7.6,-1178 z
M 15.2,-1421 L 8.6,-1421 L 8.6,-1178 L 15.2,-1178 z
M 22.8,-1421 L 16.2,-1421 L 16.2,-1178 L 22.8,-1178 z
M 30.4,-1421 L 23.8,-1421 L 23.8,-1178 L 30.4,-1178 z
M 38,-1421 L 31.4,-1421 L 31.4,-1178 L 38,-1178 z
M 45.6,-1421 L 39,-1421 L 39,-1178 L 45.6,-1178 z
M 53.2,-1421 L 46.6,-1421 L 46.6,-1178 L 53.2,-1178 z
M 60.8,-1421 L 54.2,-1421 L 54.2,-1178 L 60.8,-1178 z
M 68.4,-1421 L 61.8,-1421 L 61.8,-1178 L 68.4,-1178 z
M 76,-1421 L 69.4,-1421 L 69.4,-1178 L 76,-1178 z
M 520.6,-1421 L 514,-1421 L 514,-1178 L 520.6,-1178 z
M 528.2,-1421 L 521.6,-1421 L 521.6,-1178 L 528.2,-1178 z
M 535.8,-1421 L 529.2,-1421 L 529.2,-1178 L 535.8,-1178 z
M 543.4,-1421 L 536.8,-1421 L 536.8,-1178 L 543.4,-1178 z
M 551,-1421 L 544.4,-1421 L 544.4,-1178 L 551,-1178 z
M 558.6,-1421 L 552,-1421 L 552,-1178 L 558.6,-1178 z
M 566.2,-1421 L 559.6,-1421 L 559.6,-1178 L 566.2,-1178 z
M 573.8,-1421 L 567.2,-1421 L 567.2,-1178 L 573.8,-1178 z
M 581.4,-1421 L 574.8,-1421 L 574.8,-1178 L 581.4,-1178 z
M 589,-1421 L 582.4,-1421 L 582.4,-1178 L 589,-1178 z
M 238.5,-1177 L 223,-1177 L 223,-934 L 238.5,-934 z
M 255,-1177 L 239.5,-1177 L 239.5,-934 L 255,-934 z
M 271.5,-1177 L 256,-1177 L 256,-934 L 271.5,-934 z
M 288,-1177 L 272.5,-1177 L 272.5,-934 L 288,-934 z
M 304.5,-1177 L 289,-1177 L 289,-934 L 304.5,-934 z
M 321,-1177 L 305.5,-1177 L 305.5,-934 L 321,-934 z
M 337.5,-1177 L 322,-1177 L 322,-934 L 337.5,-934 z
M 354,-1177 L 338.5,-1177 L 338.5,-934 L 354,-934 z
M 370.5,-1177 L 355,-1177 L 355,-934 L 370.5,-934 z
M 387,-1177 L 371.5,-1177 L 371.5,-934 L 387,-934 z
M 238.5,-710 L 223,-710 L 223,-467 L 238.5,-467 z
M 255,-710 L 239.5,-710 L 239.5,-467 L 255,-467 z
M 271.5,-710 L 256,-710 L 256,-467 L 271.5,-467 z
M 288,-710 L 272.5,-710 L 272.5,-467 L 288,-467 z
M 304.5,-710 L 289,-710 L 289,-467 L 304.5,-467 z
M 321,-710 L 305.5,-710 L 305.5,-467 L 321,-467 z
M 337.5,-710 L 322,-710 L 322,-467 L 337.5,-467 z
M 354,-710 L 338.5,-710 L 338.5,-467 L 354,-467 z
M 370.5,-710 L 355,-710 L 355,-467 L 370.5,-467 z
M 387,-710 L 371.5,-710 L 371.5,-467 L 387,-467 z
M 7.6,-488 L 1,-488 L 1,-245 L 7.6,-245 z
M 15.2,-488 L 8.6,-488 L 8.6,-245 L 15.2,-245 z
M 22.8,-488 L 16.2,-488 L 16.2,-245 L 22.8,-245 z
M 30.4,-488 L 23.8,-488 L 23.8,-245 L 30.4,-245 z
M 38,-488 L 31.4,-488 L 31.4,-245 L 38,-245 z
M 45.6,-488 L 39,-488 L 39,-245 L 45.6,-245 z
M 53.2,-488 L 46.6,-488 L 46.6,-245 L 53.2,-245 z
M 60.8,-488 L 54.2,-488 L 54.2,-245 L 60.8,-245 z
M 68.4,-488 L 61.8,-488 L 61.8,-245 L 68.4,-245 z
M 76,-488 L 69.4,-488 L 69.4,-245 L 76,-245 z
M 520.6,-488 L 514,-488 L 514,-245 L 520.6,-245 z
M 528.2,-488 L 521.6,-488 L 521.6,-245 L 528.2,-245 z
M 535.8,-488 L 529.2,-488 L 529.2,-245 L 535.8,-245 z
M 543.4,-488 L 536.8,-488 L 536.8,-245 L 543.4,-245 z
M 551,-488 L 544.4,-488 L 544.4,-245 L 551,-245 z
M 558.6,-488 L 552,-488 L 552,-245 L 558.6,-245 z
M 566.2,-488 L 559.6,-488 L 559.6,-245 L 566.2,-245 z
M 573.8,-488 L 567.2,-488 L 567.2,-245 L 573.8,-245 z
M 581.4,-488 L 574.8,-488 L 574.8,-245 L 581.4,-245 z
M 589,-488 L 582.4,-488 L 582.4,-245 L 589,-245 z
M 238.5,-244 L 223,-244 L 223,-1 L 238.5,-1 z
M 255,-244 L 239.5,-244 L 239.5,-1 L 255,-1 z
M 271.5,-244 L 256,-244 L 256,-1 L 271.5,-1 z
M 288,-244 L 272.5,-244 L 272.5,-1 L 288,-1 z
M 304.5,-244 L 289,-244 L 289,-1 L 304.5,-1 z
M 321,-244 L 305.5,-244 L 305.5,-1 L 321,-1 z
M 337.5,-244 L 322,-244 L 322,-1 L 337.5,-1 z
M 354,-244 L 338.5,-244 L 338.5,-1 L 354,-1 z
M 370.5,-244 L 355,-244 L 355,-1 L 370.5,-1 z
M 387,-244 L 371.5,-244 L 371.5,-1 L 387,-1 z
" stroke="#000000" fill="none" stroke-width="0.35"/>
</svg>
