<?xml version="1.0" standalone="no"?>
<!DOCTYPE svg PUBLIC "-//W3C//DTD SVG 1.1//EN" "http://www.w3.org/Graphics/SVG/1.1/DTD/svg11.dtd">
<svg width="758mm" height="1444mm" viewBox="0 -1444 758 1444" xmlns="http://www.w3.org/2000/svg" version="1.1">
<title>OpenSCAD Model</title>
<path d="
M 506.5,-1436.5 L 506.5,-1439.5 L 509.5,-1439.5 L 513,-1443 L 503.5,-1443 L 503.5,-1443
 L 502.464,-1441.57 L 500.463,-1441.57 L 498.786,-1442.12 L 498.786,-1443 L 237.5,-1443 L 237.5,-1443
 L 236.464,-1441.57 L 234.463,-1441.57 L 232.786,-1442.12 L 232.786,-1443 L 223,-1443 L 226.5,-1439.5
 L 229.5,-1439.5 L 229.5,-1436.5 L 233,-1433 L 503,-1433 z
M 459.5,-1425.5 L 462.5,-1425.5 L 462.5,-1428.5 L 466,-1432 L 223,-1432 L 226.5,-1428.5
 L 226.5,-1425.5 L 229.5,-1425.5 L 233,-1422 L 456,-1422 z
M 459.5,-1414.5 L 462.5,-1414.5 L 462.5,-1417.5 L 466,-1421 L 223,-1421 L 226.5,-1417.5
 L 226.5,-1414.5 L 229.5,-1414.5 L 233,-1411 L 456,-1411 z
M 506.5,-1403.5 L 506.5,-1406.5 L 509.5,-1406.5 L 513,-1410 L 503.5,-1410 L 503.5,-1410
 L 502.464,-1408.57 L 500.463,-1408.57 L 498.786,-1409.12 L 498.786,-1410 L 237.5,-1410 L 237.5,-1410
 L 236.464,-1408.57 L 234.463,-1408.57 L 232.786,-1409.12 L 232.786,-1410 L 223,-1410 L 226.5,-1406.5
 L 229.5,-1406.5 L 229.5,-1403.5 L 233,-1400 L 503,-1400 z
M 195.5,-1214.5 L 195.5,-1217.5 L 198.5,-1217.5 L 202,-1221 L 1,-1221 L 4.5,-1217.5
 L 7.5,-1217.5 L 7.5,-1214.5 L 11,-1211 L 192,-1211 z
M 708.5,-1214.5 L 708.5,-1217.5 L 711.5,-1217.5 L 715,-1221 L 514,-1221 L 517.5,-1217.5
 L 520.5,-1217.5 L 520.5,-1214.5 L 524,-1211 L 705,-1211 z
M 237.5,-1203.5 L 240.5,-1203.5 L 240.5,-1206.5 L 244,-1210 L 1,-1210 L 4.5,-1206.5
 L 4.5,-1203.5 L 7.5,-1203.5 L 11,-1200 L 234,-1200 z
M 750.5,-1203.5 L 753.5,-1203.5 L 753.5,-1206.5 L 757,-1210 L 514,-1210 L 517.5,-1206.5
 L 517.5,-1203.5 L 520.5,-1203.5 L 524,-1200 L 747,-1200 z
M 237.5,-1192.5 L 240.5,-1192.5 L 240.5,-1195.5 L 244,-1199 L 1,-1199 L 4.5,-1195.5
 L 4.5,-1192.5 L 7.5,-1192.5 L 11,-1189 L 234,-1189 z
M 750.5,-1192.5 L 753.5,-1192.5 L 753.5,-1195.5 L 757,-1199 L 514,-1199 L 517.5,-1195.5
 L 517.5,-1192.5 L 520.5,-1192.5 L 524,-1189 L 747,-1189 z
M 195.5,-1181.5 L 195.5,-1184.5 L 198.5,-1184.5 L 202,-1188 L 1,-1188 L 4.5,-1184.5
 L 7.5,-1184.5 L 7.5,-1181.5 L 11,-1178 L 192,-1178 z
M 708.5,-1181.5 L 708.5,-1184.5 L 711.5,-1184.5 L 715,-1188 L 514,-1188 L 517.5,-1184.5
 L 520.5,-1184.5 L 520.5,-1181.5 L 524,-1178 L 705,-1178 z
M 506.5,-970.5 L 506.5,-973.5 L 509.5,-973.5 L 513,-977 L 503.5,-977 L 503.5,-976.999
 L 502.464,-975.573 L 500.463,-975.573 L 498.786,-976.118 L 498.786,-977 L 237.5,-977 L 237.5,-976.999
 L 236.464,-975.573 L 234.463,-975.573 L 232.786,-976.118 L 232.786,-977 L 223,-977 L 226.5,-973.5
 L 229.5,-973.5 L 229.5,-970.5 L 233,-967 L 503,-967 z
M 459.5,-959.5 L 462.5,-959.5 L 462.5,-962.5 L 466,-966 L 223,-966 L 226.5,-962.5
 L 226.5,-959.5 L 229.5,-959.5 L 233,-956 L 456,-956 z
M 459.5,-948.5 L 462.5,-948.5 L 462.5,-951.5 L 466,-955 L 223,-955 L 226.5,-951.5
 L 226.5,-948.5 L 229.5,-948.5 L 233,-945 L 456,-945 z
M 506.5,-937.5 L 506.5,-940.5 L 509.5,-940.5 L 513,-944 L 503.5,-944 L 503.5,-943.999
 L 502.464,-942.573 L 500.463,-942.573 L 498.786,-943.118 L 498.786,-944 L 237.5,-944 L 237.5,-943.999
 L 236.464,-942.573 L 234.463,-942.573 L 232.786,-943.118 L 232.786,-944 L 223,-944 L 226.5,-940.5
 L 229.5,-940.5 L 229.5,-937.5 L 233,-934 L 503,-934 z
M 506.5,-503.5 L 506.5,-506.5 L 509.5,-506.5 L 513,-510 L 503.5,-510 L 503.5,-509.999
 L 502.464,-508.573 L 500.463,-508.573 L 498.786,-509.118 L 498.786,-510 L 237.5,-510 L 237.5,-509.999
 L 236.464,-508.573 L 234.463,-508.573 L 232.786,-509.118 L 232.786,-510 L 223,-510 L 226.5,-506.5
 L 229.5,-506.5 L 229.5,-503.5 L 233,-500 L 503,-500 z
M 459.5,-492.5 L 462.5,-492.5 L 462.5,-495.5 L 466,-499 L 223,-499 L 226.5,-495.5
 L 226.5,-492.5 L 229.5,-492.5 L 233,-489 L 456,-489 z
M 459.5,-481.5 L 462.5,-481.5 L 462.5,-484.5 L 466,-488 L 223,-488 L 226.5,-484.5
 L 226.5,-481.5 L 229.5,-481.5 L 233,-478 L 456,-478 z
M 506.5,-470.5 L 506.5,-473.5 L 509.5,-473.5 L 513,-477 L 503.5,-477 L 503.5,-476.999
 L 502.464,-475.573 L 500.463,-475.573 L 498.786,-476.118 L 498.786,-477 L 237.5,-477 L 237.5,-476.999
 L 236.464,-475.573 L 234.463,-475.573 L 232.786,-476.118 L 232.786,-477 L 223,-477 L 226.5,-473.5
 L 229.5,-473.5 L 229.5,-470.5 L 233,-467 L 503,-467 z
M 195.5,-281.5 L 195.5,-284.5 L 198.5,-284.5 L 202,-288 L 1,-288 L 4.5,-284.5
 L 7.5,-284.5 L 7.5,-281.5 L 11,-278 L 192,-278 z
M 708.5,-281.5 L 708.5,-284.5 L 711.5,-284.5 L 715,-288 L 514,-288 L 517.5,-284.5
 L 520.5,-284.5 L 520.5,-281.5 L 524,-278 L 705,-278 z
M 237.5,-270.5 L 240.5,-270.5 L 240.5,-273.5 L 244,-277 L 1,-277 L 4.5,-273.5
 L 4.5,-270.5 L 7.5,-270.5 L 11,-267 L 234,-267 z
M 750.5,-270.5 L 753.5,-270.5 L 753.5,-273.5 L 757,-277 L 514,-277 L 517.5,-273.5
 L 517.5,-270.5 L 520.5,-270.5 L 524,-267 L 747,-267 z
M 237.5,-259.5 L 240.5,-259.5 L 240.5,-262.5 L 244,-266 L 1,-266 L 4.5,-262.5
 L 4.5,-259.5 L 7.5,-259.5 L 11,-256 L 234,-256 z
M 750.5,-259.5 L 753.5,-259.5 L 753.5,-262.5 L 757,-266 L 514,-266 L 517.5,-262.5
 L 517.5,-259.5 L 520.5,-259.5 L 524,-256 L 747,-256 z
M 195.5,-248.5 L 195.5,-251.5 L 198.5,-251.5 L 202,-255 L 1,-255 L 4.5,-251.5
 L 7.5,-251.5 L 7.5,-248.5 L 11,-245 L 192,-245 z
M 708.5,-248.5 L 708.5,-251.5 L 711.5,-251.5 L 715,-255 L 514,-255 L 517.5,-251.5
 L 520.5,-251.5 L 520.5,-248.5 L 524,-245 L 705,-245 z
M 506.5,-37.5 L 506.5,-40.5 L 509.5,-40.5 L 513,-44 L 503.5,-44 L 503.5,-43.9995
 L 502.464,-42.5734 L 500.463,-42.5734 L 498.786,-43.1181 L 498.786,-44 L 237.5,-44 L 237.5,-43.9995
 L 236.464,-42.5734 L 234.463,-42.5734 L 232.786,-43.1181 L 232.786,-44 L 223,-44 L 226.5,-40.5
 L 229.5,-40.5 L 229.5,-37.5 L 233,-34 L 503,-34 z
M 459.5,-26.5 L 462.5,-26.5 L 462.5,-29.5 L 466,-33 L 223,-33 L 226.5,-29.5
 L 226.5,-26.5 L 229.5,-26.5 L 233,-23 L 456,-23 z
M 459.5,-15.5 L 462.5,-15.5 L 462.5,-18.5 L 466,-22 L 223,-22 L 226.5,-18.5
 L 226.5,-15.5 L 229.5,-15.5 L 233,-12 L 456,-12 z
M 506.5,-4.5 L 506.5,-7.5 L 509.5,-7.5 L 513,-11 L 503.5,-11 L 503.5,-10.9995
 L 502.464,-9.57339 L 500.463,-9.57339 L 498.786,-10.1181 L 498.786,-11 L 237.5,-11 L 237.5,-10.9995
 L 236.464,-9.57339 L 234.463,-9.57339 L 232.786,-10.1181 L 232.786,-11 L 223,-11 L 226.5,-7.5
 L 229.5,-7.5 L 229.5,-4.5 L 233,-1 L 503,-1 z
" stroke="#000000" fill="none" stroke-width="0.35"/>
</svg>
