<?xml version="1.0" standalone="no"?>
<!DOCTYPE svg PUBLIC "-//W3C//DTD SVG 1.1//EN" "http://www.w3.org/Graphics/SVG/1.1/DTD/svg11.dtd">
<svg width="758mm" height="3310mm" viewBox="0 -3310 758 3310" xmlns="http://www.w3.org/2000/svg" version="1.1">
<title>OpenSCAD Model</title>
<path d="
M 506.5,-3302.5 L 506.5,-3305.5 L 509.5,-3305.5 L 513,-3309 L 503.5,-3309 L 503.5,-3309
 L 503.498,-3308.93 L 503.493,-3308.85 L 503.484,-3308.78 L 503.471,-3308.71 L 503.455,-3308.64 L 503.435,-3308.56
 L 503.412,-3308.49 L 503.386,-3308.43 L 503.356,-3308.36 L 503.323,-3308.29 L 503.287,-3308.23 L 503.247,-3308.17
 L 503.205,-3308.11 L 503.16,-3308.05 L 503.112,-3307.99 L 503.061,-3307.94 L 503.008,-3307.89 L 502.952,-3307.84
 L 502.894,-3307.8 L 502.834,-3307.75 L 502.771,-3307.71 L 502.707,-3307.68 L 502.642,-3307.64 L 502.574,-3307.61
 L 502.506,-3307.59 L 502.436,-3307.56 L 502.365,-3307.54 L 502.293,-3307.53 L 502.221,-3307.52 L 502.147,-3307.51
 L 502.074,-3307.5 L 502.001,-3307.5 L 499.999,-3307.5 L 499.926,-3307.5 L 499.853,-3307.51 L 499.779,-3307.52
 L 499.707,-3307.53 L 499.635,-3307.54 L 499.564,-3307.56 L 499.494,-3307.59 L 499.426,-3307.61 L 499.358,-3307.64
 L 499.293,-3307.68 L 499.229,-3307.71 L 499.166,-3307.75 L 499.106,-3307.8 L 499.048,-3307.84 L 498.992,-3307.89
 L 498.939,-3307.94 L 498.888,-3307.99 L 498.84,-3308.05 L 498.795,-3308.11 L 498.753,-3308.17 L 498.713,-3308.23
 L 498.677,-3308.29 L 498.644,-3308.36 L 498.614,-3308.43 L 498.588,-3308.49 L 498.565,-3308.56 L 498.545,-3308.64
 L 498.529,-3308.71 L 498.516,-3308.78 L 498.507,-3308.85 L 498.502,-3308.93 L 498.5,-3309 L 498.5,-3309
 L 237.5,-3309 L 237.5,-3309 L 237.498,-3308.93 L 237.493,-3308.85 L 237.484,-3308.78 L 237.471,-3308.71
 L 237.455,-3308.64 L 237.435,-3308.56 L 237.412,-3308.49 L 237.386,-3308.43 L 237.356,-3308.36 L 237.323,-3308.29
 L 237.287,-3308.23 L 237.247,-3308.17 L 237.205,-3308.11 L 237.16,-3308.05 L 237.112,-3307.99 L 237.061,-3307.94
 L 237.008,-3307.89 L 236.952,-3307.84 L 236.894,-3307.8 L 236.834,-3307.75 L 236.771,-3307.71 L 236.707,-3307.68
 L 236.642,-3307.64 L 236.574,-3307.61 L 236.506,-3307.59 L 236.436,-3307.56 L 236.365,-3307.54 L 236.293,-3307.53
 L 236.221,-3307.52 L 236.147,-3307.51 L 236.074,-3307.5 L 236.001,-3307.5 L 233.999,-3307.5 L 233.926,-3307.5
 L 233.853,-3307.51 L 233.779,-3307.52 L 233.707,-3307.53 L 233.635,-3307.54 L 233.564,-3307.56 L 233.494,-3307.59
 L 233.426,-3307.61 L 233.358,-3307.64 L 233.293,-3307.68 L 233.229,-3307.71 L 233.166,-3307.75 L 233.106,-3307.8
 L 233.048,-3307.84 L 232.992,-3307.89 L 232.939,-3307.94 L 232.888,-3307.99 L 232.84,-3308.05 L 232.795,-3308.11
 L 232.753,-3308.17 L 232.713,-3308.23 L 232.677,-3308.29 L 232.644,-3308.36 L 232.614,-3308.43 L 232.588,-3308.49
 L 232.565,-3308.56 L 232.545,-3308.64 L 232.529,-3308.71 L 232.516,-3308.78 L 232.507,-3308.85 L 232.502,-3308.93
 L 232.5,-3309 L 232.5,-3309 L 223,-3309 L 226.5,-3305.5 L 229.5,-3305.5 L 229.5,-3302.5
 L 233,-3299 L 503,-3299 z
M 459.5,-3291.5 L 462.5,-3291.5 L 462.5,-3294.5 L 466,-3298 L 223,-3298 L 226.5,-3294.5
 L 226.5,-3291.5 L 229.5,-3291.5 L 233,-3288 L 456,-3288 z
M 459.5,-3280.5 L 462.5,-3280.5 L 462.5,-3283.5 L 466,-3287 L 223,-3287 L 226.5,-3283.5
 L 226.5,-3280.5 L 229.5,-3280.5 L 233,-3277 L 456,-3277 z
M 195.5,-3080.5 L 195.5,-3083.5 L 198.5,-3083.5 L 202,-3087 L 1,-3087 L 4.5,-3083.5
 L 7.5,-3083.5 L 7.5,-3080.5 L 11,-3077 L 192,-3077 z
M 708.5,-3080.5 L 708.5,-3083.5 L 711.5,-3083.5 L 715,-3087 L 514,-3087 L 517.5,-3083.5
 L 520.5,-3083.5 L 520.5,-3080.5 L 524,-3077 L 705,-3077 z
M 237.5,-3069.5 L 240.5,-3069.5 L 240.5,-3072.5 L 244,-3076 L 1,-3076 L 4.5,-3072.5
 L 4.5,-3069.5 L 7.5,-3069.5 L 11,-3066 L 234,-3066 z
M 750.5,-3069.5 L 753.5,-3069.5 L 753.5,-3072.5 L 757,-3076 L 514,-3076 L 517.5,-3072.5
 L 517.5,-3069.5 L 520.5,-3069.5 L 524,-3066 L 747,-3066 z
M 237.5,-3058.5 L 240.5,-3058.5 L 240.5,-3061.5 L 244,-3065 L 1,-3065 L 4.5,-3061.5
 L 4.5,-3058.5 L 7.5,-3058.5 L 11,-3055 L 234,-3055 z
M 750.5,-3058.5 L 753.5,-3058.5 L 753.5,-3061.5 L 757,-3065 L 514,-3065 L 517.5,-3061.5
 L 517.5,-3058.5 L 520.5,-3058.5 L 524,-3055 L 747,-3055 z
M 506.5,-2836.5 L 506.5,-2839.5 L 509.5,-2839.5 L 513,-2843 L 503.5,-2843 L 503.5,-2843
 L 503.498,-2842.93 L 503.493,-2842.85 L 503.484,-2842.78 L 503.471,-2842.71 L 503.455,-2842.64 L 503.435,-2842.56
 L 503.412,-2842.49 L 503.386,-2842.43 L 503.356,-2842.36 L 503.323,-2842.29 L 503.287,-2842.23 L 503.247,-2842.17
 L 503.205,-2842.11 L 503.16,-2842.05 L 503.112,-2841.99 L 503.061,-2841.94 L 503.008,-2841.89 L 502.952,-2841.84
 L 502.894,-2841.8 L 502.834,-2841.75 L 502.771,-2841.71 L 502.707,-2841.68 L 502.642,-2841.64 L 502.574,-2841.61
 L 502.506,-2841.59 L 502.436,-2841.56 L 502.365,-2841.54 L 502.293,-2841.53 L 502.221,-2841.52 L 502.147,-2841.51
 L 502.074,-2841.5 L 502.001,-2841.5 L 499.999,-2841.5 L 499.926,-2841.5 L 499.853,-2841.51 L 499.779,-2841.52
 L 499.707,-2841.53 L 499.635,-2841.54 L 499.564,-2841.56 L 499.494,-2841.59 L 499.426,-2841.61 L 499.358,-2841.64
 L 499.293,-2841.68 L 499.229,-2841.71 L 499.166,-2841.75 L 499.106,-2841.8 L 499.048,-2841.84 L 498.992,-2841.89
 L 498.939,-2841.94 L 498.888,-2841.99 L 498.84,-2842.05 L 498.795,-2842.11 L 498.753,-2842.17 L 498.713,-2842.23
 L 498.677,-2842.29 L 498.644,-2842.36 L 498.614,-2842.43 L 498.588,-2842.49 L 498.565,-2842.56 L 498.545,-2842.64
 L 498.529,-2842.71 L 498.516,-2842.78 L 498.507,-2842.85 L 498.502,-2842.93 L 498.5,-2843 L 498.5,-2843
 L 237.5,-2843 L 237.5,-2843 L 237.498,-2842.93 L 237.493,-2842.85 L 237.484,-2842.78 L 237.471,-2842.71
 L 237.455,-2842.64 L 237.435,-2842.56 L 237.412,-2842.49 L 237.386,-2842.43 L 237.356,-2842.36 L 237.323,-2842.29
 L 237.287,-2842.23 L 237.247,-2842.17 L 237.205,-2842.11 L 237.16,-2842.05 L 237.112,-2841.99 L 237.061,-2841.94
 L 237.008,-2841.89 L 236.952,-2841.84 L 236.894,-2841.8 L 236.834,-2841.75 L 236.771,-2841.71 L 236.707,-2841.68
 L 236.642,-2841.64 L 236.574,-2841.61 L 236.506,-2841.59 L 236.436,-2841.56 L 236.365,-2841.54 L 236.293,-2841.53
 L 236.221,-2841.52 L 236.147,-2841.51 L 236.074,-2841.5 L 236.001,-2841.5 L 233.999,-2841.5 L 233.926,-2841.5
 L 233.853,-2841.51 L 233.779,-2841.52 L 233.707,-2841.53 L 233.635,-2841.54 L 233.564,-2841.56 L 233.494,-2841.59
 L 233.426,-2841.61 L 233.358,-2841.64 L 233.293,-2841.68 L 233.229,-2841.71 L 233.166,-2841.75 L 233.106,-2841.8
 L 233.048,-2841.84 L 232.992,-2841.89 L 232.939,-2841.94 L 232.888,-2841.99 L 232.84,-2842.05 L 232.795,-2842.11
 L 232.753,-2842.17 L 232.713,-2842.23 L 232.677,-2842.29 L 232.644,-2842.36 L 232.614,-2842.43 L 232.588,-2842.49
 L 232.565,-2842.56 L 232.545,-2842.64 L 232.529,-2842.71 L 232.516,-2842.78 L 232.507,-2842.85 L 232.502,-2842.93
 L 232.5,-2843 L 232.5,-2843 L 223,-2843 L 226.5,-2839.5 L 229.5,-2839.5 L 229.5,-2836.5
 L 233,-2833 L 503,-2833 z
M 459.5,-2825.5 L 462.5,-2825.5 L 462.5,-2828.5 L 466,-2832 L 223,-2832 L 226.5,-2828.5
 L 226.5,-2825.5 L 229.5,-2825.5 L 233,-2822 L 456,-2822 z
M 459.5,-2814.5 L 462.5,-2814.5 L 462.5,-2817.5 L 466,-2821 L 223,-2821 L 226.5,-2817.5
 L 226.5,-2814.5 L 229.5,-2814.5 L 233,-2811 L 456,-2811 z
M 506.5,-2369.5 L 506.5,-2372.5 L 509.5,-2372.5 L 513,-2376 L 509.5,-2379.5 L 506.5,-2379.5
 L 506.5,-2382.5 L 503,-2386 L 233,-2386 L 229.5,-2382.5 L 229.5,-2379.5 L 226.5,-2379.5
 L 223,-2376 L 226.5,-2372.5 L 229.5,-2372.5 L 229.5,-2369.5 L 233,-2366 L 503,-2366
 z
M 233.926,-2374.5 L 233.853,-2374.51 L 233.779,-2374.52 L 233.707,-2374.53 L 233.635,-2374.54 L 233.564,-2374.56
 L 233.494,-2374.59 L 233.426,-2374.61 L 233.358,-2374.64 L 233.293,-2374.68 L 233.229,-2374.71 L 233.166,-2374.75
 L 233.106,-2374.8 L 233.048,-2374.84 L 232.992,-2374.89 L 232.939,-2374.94 L 232.888,-2374.99 L 232.84,-2375.05
 L 232.795,-2375.11 L 232.753,-2375.17 L 232.713,-2375.23 L 232.677,-2375.29 L 232.644,-2375.36 L 232.614,-2375.43
 L 232.588,-2375.49 L 232.565,-2375.56 L 232.545,-2375.64 L 232.529,-2375.71 L 232.516,-2375.78 L 232.507,-2375.85
 L 232.502,-2375.93 L 232.5,-2376 L 232.5,-2376 L 232.502,-2376.07 L 232.507,-2376.15 L 232.516,-2376.22
 L 232.529,-2376.29 L 232.545,-2376.36 L 232.565,-2376.44 L 232.588,-2376.51 L 232.614,-2376.57 L 232.644,-2376.64
 L 232.677,-2376.71 L 232.713,-2376.77 L 232.753,-2376.83 L 232.795,-2376.89 L 232.84,-2376.95 L 232.888,-2377.01
 L 232.939,-2377.06 L 232.992,-2377.11 L 233.048,-2377.16 L 233.106,-2377.2 L 233.166,-2377.25 L 233.229,-2377.29
 L 233.293,-2377.32 L 233.358,-2377.36 L 233.426,-2377.39 L 233.494,-2377.41 L 233.564,-2377.44 L 233.635,-2377.46
 L 233.707,-2377.47 L 233.779,-2377.48 L 233.853,-2377.49 L 233.926,-2377.5 L 233.999,-2377.5 L 236.001,-2377.5
 L 236.074,-2377.5 L 236.147,-2377.49 L 236.221,-2377.48 L 236.293,-2377.47 L 236.365,-2377.46 L 236.436,-2377.44
 L 236.506,-2377.41 L 236.574,-2377.39 L 236.642,-2377.36 L 236.707,-2377.32 L 236.771,-2377.29 L 236.834,-2377.25
 L 236.894,-2377.2 L 236.952,-2377.16 L 237.008,-2377.11 L 237.061,-2377.06 L 237.112,-2377.01 L 237.16,-2376.95
 L 237.205,-2376.89 L 237.247,-2376.83 L 237.287,-2376.77 L 237.323,-2376.71 L 237.356,-2376.64 L 237.386,-2376.57
 L 237.412,-2376.51 L 237.435,-2376.44 L 237.455,-2376.36 L 237.471,-2376.29 L 237.484,-2376.22 L 237.493,-2376.15
 L 237.498,-2376.07 L 237.5,-2376 L 237.5,-2376 L 237.498,-2375.93 L 237.493,-2375.85 L 237.484,-2375.78
 L 237.471,-2375.71 L 237.455,-2375.64 L 237.435,-2375.56 L 237.412,-2375.49 L 237.386,-2375.43 L 237.356,-2375.36
 L 237.323,-2375.29 L 237.287,-2375.23 L 237.247,-2375.17 L 237.205,-2375.11 L 237.16,-2375.05 L 237.112,-2374.99
 L 237.061,-2374.94 L 237.008,-2374.89 L 236.952,-2374.84 L 236.894,-2374.8 L 236.834,-2374.75 L 236.771,-2374.71
 L 236.707,-2374.68 L 236.642,-2374.64 L 236.574,-2374.61 L 236.506,-2374.59 L 236.436,-2374.56 L 236.365,-2374.54
 L 236.293,-2374.53 L 236.221,-2374.52 L 236.147,-2374.51 L 236.074,-2374.5 L 236.001,-2374.5 L 233.999,-2374.5
 z
M 499.926,-2374.5 L 499.853,-2374.51 L 499.779,-2374.52 L 499.707,-2374.53 L 499.635,-2374.54 L 499.564,-2374.56
 L 499.494,-2374.59 L 499.426,-2374.61 L 499.358,-2374.64 L 499.293,-2374.68 L 499.229,-2374.71 L 499.166,-2374.75
 L 499.106,-2374.8 L 499.048,-2374.84 L 498.992,-2374.89 L 498.939,-2374.94 L 498.888,-2374.99 L 498.84,-2375.05
 L 498.795,-2375.11 L 498.753,-2375.17 L 498.713,-2375.23 L 498.677,-2375.29 L 498.644,-2375.36 L 498.614,-2375.43
 L 498.588,-2375.49 L 498.565,-2375.56 L 498.545,-2375.64 L 498.529,-2375.71 L 498.516,-2375.78 L 498.507,-2375.85
 L 498.502,-2375.93 L 498.5,-2376 L 498.5,-2376 L 498.502,-2376.07 L 498.507,-2376.15 L 498.516,-2376.22
 L 498.529,-2376.29 L 498.545,-2376.36 L 498.565,-2376.44 L 498.588,-2376.51 L 498.614,-2376.57 L 498.644,-2376.64
 L 498.677,-2376.71 L 498.713,-2376.77 L 498.753,-2376.83 L 498.795,-2376.89 L 498.84,-2376.95 L 498.888,-2377.01
 L 498.939,-2377.06 L 498.992,-2377.11 L 499.048,-2377.16 L 499.106,-2377.2 L 499.166,-2377.25 L 499.229,-2377.29
 L 499.293,-2377.32 L 499.358,-2377.36 L 499.426,-2377.39 L 499.494,-2377.41 L 499.564,-2377.44 L 499.635,-2377.46
 L 499.707,-2377.47 L 499.779,-2377.48 L 499.853,-2377.49 L 499.926,-2377.5 L 499.999,-2377.5 L 502.001,-2377.5
 L 502.074,-2377.5 L 502.147,-2377.49 L 502.221,-2377.48 L 502.293,-2377.47 L 502.365,-2377.46 L 502.436,-2377.44
 L 502.506,-2377.41 L 502.574,-2377.39 L 502.642,-2377.36 L 502.707,-2377.32 L 502.771,-2377.29 L 502.834,-2377.25
 L 502.894,-2377.2 L 502.952,-2377.16 L 503.008,-2377.11 L 503.061,-2377.06 L 503.112,-2377.01 L 503.16,-2376.95
 L 503.205,-2376.89 L 503.247,-2376.83 L 503.287,-2376.77 L 503.323,-2376.71 L 503.356,-2376.64 L 503.386,-2376.57
 L 503.412,-2376.51 L 503.435,-2376.44 L 503.455,-2376.36 L 503.471,-2376.29 L 503.484,-2376.22 L 503.493,-2376.15
 L 503.498,-2376.07 L 503.5,-2376 L 503.5,-2376 L 503.498,-2375.93 L 503.493,-2375.85 L 503.484,-2375.78
 L 503.471,-2375.71 L 503.455,-2375.64 L 503.435,-2375.56 L 503.412,-2375.49 L 503.386,-2375.43 L 503.356,-2375.36
 L 503.323,-2375.29 L 503.287,-2375.23 L 503.247,-2375.17 L 503.205,-2375.11 L 503.16,-2375.05 L 503.112,-2374.99
 L 503.061,-2374.94 L 503.008,-2374.89 L 502.952,-2374.84 L 502.894,-2374.8 L 502.834,-2374.75 L 502.771,-2374.71
 L 502.707,-2374.68 L 502.642,-2374.64 L 502.574,-2374.61 L 502.506,-2374.59 L 502.436,-2374.56 L 502.365,-2374.54
 L 502.293,-2374.53 L 502.221,-2374.52 L 502.147,-2374.51 L 502.074,-2374.5 L 502.001,-2374.5 L 499.999,-2374.5
 z
M 459.5,-2358.5 L 462.5,-2358.5 L 462.5,-2361.5 L 466,-2365 L 223,-2365 L 226.5,-2361.5
 L 226.5,-2358.5 L 229.5,-2358.5 L 233,-2355 L 456,-2355 z
M 459.5,-2347.5 L 462.5,-2347.5 L 462.5,-2350.5 L 466,-2354 L 223,-2354 L 226.5,-2350.5
 L 226.5,-2347.5 L 229.5,-2347.5 L 233,-2344 L 456,-2344 z
M 195.5,-2147.5 L 195.5,-2150.5 L 198.5,-2150.5 L 202,-2154 L 198.5,-2157.5 L 195.5,-2157.5
 L 195.5,-2160.5 L 192,-2164 L 11,-2164 L 7.5,-2160.5 L 7.5,-2157.5 L 4.5,-2157.5
 L 1,-2154 L 4.5,-2150.5 L 7.5,-2150.5 L 7.5,-2147.5 L 11,-2144 L 192,-2144
 z
M 708.5,-2147.5 L 708.5,-2150.5 L 711.5,-2150.5 L 715,-2154 L 711.5,-2157.5 L 708.5,-2157.5
 L 708.5,-2160.5 L 705,-2164 L 524,-2164 L 520.5,-2160.5 L 520.5,-2157.5 L 517.5,-2157.5
 L 514,-2154 L 517.5,-2150.5 L 520.5,-2150.5 L 520.5,-2147.5 L 524,-2144 L 705,-2144
 z
M 237.5,-2136.5 L 240.5,-2136.5 L 240.5,-2139.5 L 244,-2143 L 1,-2143 L 4.5,-2139.5
 L 4.5,-2136.5 L 7.5,-2136.5 L 11,-2133 L 234,-2133 z
M 750.5,-2136.5 L 753.5,-2136.5 L 753.5,-2139.5 L 757,-2143 L 514,-2143 L 517.5,-2139.5
 L 517.5,-2136.5 L 520.5,-2136.5 L 524,-2133 L 747,-2133 z
M 237.5,-2125.5 L 240.5,-2125.5 L 240.5,-2128.5 L 244,-2132 L 1,-2132 L 4.5,-2128.5
 L 4.5,-2125.5 L 7.5,-2125.5 L 11,-2122 L 234,-2122 z
M 750.5,-2125.5 L 753.5,-2125.5 L 753.5,-2128.5 L 757,-2132 L 514,-2132 L 517.5,-2128.5
 L 517.5,-2125.5 L 520.5,-2125.5 L 524,-2122 L 747,-2122 z
M 506.5,-1903.5 L 506.5,-1906.5 L 509.5,-1906.5 L 513,-1910 L 509.5,-1913.5 L 506.5,-1913.5
 L 506.5,-1916.5 L 503,-1920 L 233,-1920 L 229.5,-1916.5 L 229.5,-1913.5 L 226.5,-1913.5
 L 223,-1910 L 226.5,-1906.5 L 229.5,-1906.5 L 229.5,-1903.5 L 233,-1900 L 503,-1900
 z
M 233.926,-1908.5 L 233.853,-1908.51 L 233.779,-1908.52 L 233.707,-1908.53 L 233.635,-1908.54 L 233.564,-1908.56
 L 233.494,-1908.59 L 233.426,-1908.61 L 233.358,-1908.64 L 233.293,-1908.68 L 233.229,-1908.71 L 233.166,-1908.75
 L 233.106,-1908.8 L 233.048,-1908.84 L 232.992,-1908.89 L 232.939,-1908.94 L 232.888,-1908.99 L 232.84,-1909.05
 L 232.795,-1909.11 L 232.753,-1909.17 L 232.713,-1909.23 L 232.677,-1909.29 L 232.644,-1909.36 L 232.614,-1909.43
 L 232.588,-1909.49 L 232.565,-1909.56 L 232.545,-1909.64 L 232.529,-1909.71 L 232.516,-1909.78 L 232.507,-1909.85
 L 232.502,-1909.93 L 232.5,-1910 L 232.5,-1910 L 232.502,-1910.07 L 232.507,-1910.15 L 232.516,-1910.22
 L 232.529,-1910.29 L 232.545,-1910.36 L 232.565,-1910.44 L 232.588,-1910.51 L 232.614,-1910.57 L 232.644,-1910.64
 L 232.677,-1910.71 L 232.713,-1910.77 L 232.753,-1910.83 L 232.795,-1910.89 L 232.84,-1910.95 L 232.888,-1911.01
 L 232.939,-1911.06 L 232.992,-1911.11 L 233.048,-1911.16 L 233.106,-1911.2 L 233.166,-1911.25 L 233.229,-1911.29
 L 233.293,-1911.32 L 233.358,-1911.36 L 233.426,-1911.39 L 233.494,-1911.41 L 233.564,-1911.44 L 233.635,-1911.46
 L 233.707,-1911.47 L 233.779,-1911.48 L 233.853,-1911.49 L 233.926,-1911.5 L 233.999,-1911.5 L 236.001,-1911.5
 L 236.074,-1911.5 L 236.147,-1911.49 L 236.221,-1911.48 L 236.293,-1911.47 L 236.365,-1911.46 L 236.436,-1911.44
 L 236.506,-1911.41 L 236.574,-1911.39 L 236.642,-1911.36 L 236.707,-1911.32 L 236.771,-1911.29 L 236.834,-1911.25
 L 236.894,-1911.2 L 236.952,-1911.16 L 237.008,-1911.11 L 237.061,-1911.06 L 237.112,-1911.01 L 237.16,-1910.95
 L 237.205,-1910.89 L 237.247,-1910.83 L 237.287,-1910.77 L 237.323,-1910.71 L 237.356,-1910.64 L 237.386,-1910.57
 L 237.412,-1910.51 L 237.435,-1910.44 L 237.455,-1910.36 L 237.471,-1910.29 L 237.484,-1910.22 L 237.493,-1910.15
 L 237.498,-1910.07 L 237.5,-1910 L 237.5,-1910 L 237.498,-1909.93 L 237.493,-1909.85 L 237.484,-1909.78
 L 237.471,-1909.71 L 237.455,-1909.64 L 237.435,-1909.56 L 237.412,-1909.49 L 237.386,-1909.43 L 237.356,-1909.36
 L 237.323,-1909.29 L 237.287,-1909.23 L 237.247,-1909.17 L 237.205,-1909.11 L 237.16,-1909.05 L 237.112,-1908.99
 L 237.061,-1908.94 L 237.008,-1908.89 L 236.952,-1908.84 L 236.894,-1908.8 L 236.834,-1908.75 L 236.771,-1908.71
 L 236.707,-1908.68 L 236.642,-1908.64 L 236.574,-1908.61 L 236.506,-1908.59 L 236.436,-1908.56 L 236.365,-1908.54
 L 236.293,-1908.53 L 236.221,-1908.52 L 236.147,-1908.51 L 236.074,-1908.5 L 236.001,-1908.5 L 233.999,-1908.5
 z
M 499.926,-1908.5 L 499.853,-1908.51 L 499.779,-1908.52 L 499.707,-1908.53 L 499.635,-1908.54 L 499.564,-1908.56
 L 499.494,-1908.59 L 499.426,-1908.61 L 499.358,-1908.64 L 499.293,-1908.68 L 499.229,-1908.71 L 499.166,-1908.75
 L 499.106,-1908.8 L 499.048,-1908.84 L 498.992,-1908.89 L 498.939,-1908.94 L 498.888,-1908.99 L 498.84,-1909.05
 L 498.795,-1909.11 L 498.753,-1909.17 L 498.713,-1909.23 L 498.677,-1909.29 L 498.644,-1909.36 L 498.614,-1909.43
 L 498.588,-1909.49 L 498.565,-1909.56 L 498.545,-1909.64 L 498.529,-1909.71 L 498.516,-1909.78 L 498.507,-1909.85
 L 498.502,-1909.93 L 498.5,-1910 L 498.5,-1910 L 498.502,-1910.07 L 498.507,-1910.15 L 498.516,-1910.22
 L 498.529,-1910.29 L 498.545,-1910.36 L 498.565,-1910.44 L 498.588,-1910.51 L 498.614,-1910.57 L 498.644,-1910.64
 L 498.677,-1910.71 L 498.713,-1910.77 L 498.753,-1910.83 L 498.795,-1910.89 L 498.84,-1910.95 L 498.888,-1911.01
 L 498.939,-1911.06 L 498.992,-1911.11 L 499.048,-1911.16 L 499.106,-1911.2 L 499.166,-1911.25 L 499.229,-1911.29
 L 499.293,-1911.32 L 499.358,-1911.36 L 499.426,-1911.39 L 499.494,-1911.41 L 499.564,-1911.44 L 499.635,-1911.46
 L 499.707,-1911.47 L 499.779,-1911.48 L 499.853,-1911.49 L 499.926,-1911.5 L 499.999,-1911.5 L 502.001,-1911.5
 L 502.074,-1911.5 L 502.147,-1911.49 L 502.221,-1911.48 L 502.293,-1911.47 L 502.365,-1911.46 L 502.436,-1911.44
 L 502.506,-1911.41 L 502.574,-1911.39 L 502.642,-1911.36 L 502.707,-1911.32 L 502.771,-1911.29 L 502.834,-1911.25
 L 502.894,-1911.2 L 502.952,-1911.16 L 503.008,-1911.11 L 503.061,-1911.06 L 503.112,-1911.01 L 503.16,-1910.95
 L 503.205,-1910.89 L 503.247,-1910.83 L 503.287,-1910.77 L 503.323,-1910.71 L 503.356,-1910.64 L 503.386,-1910.57
 L 503.412,-1910.51 L 503.435,-1910.44 L 503.455,-1910.36 L 503.471,-1910.29 L 503.484,-1910.22 L 503.493,-1910.15
 L 503.498,-1910.07 L 503.5,-1910 L 503.5,-1910 L 503.498,-1909.93 L 503.493,-1909.85 L 503.484,-1909.78
 L 503.471,-1909.71 L 503.455,-1909.64 L 503.435,-1909.56 L 503.412,-1909.49 L 503.386,-1909.43 L 503.356,-1909.36
 L 503.323,-1909.29 L 503.287,-1909.23 L 503.247,-1909.17 L 503.205,-1909.11 L 503.16,-1909.05 L 503.112,-1908.99
 L 503.061,-1908.94 L 503.008,-1908.89 L 502.952,-1908.84 L 502.894,-1908.8 L 502.834,-1908.75 L 502.771,-1908.71
 L 502.707,-1908.68 L 502.642,-1908.64 L 502.574,-1908.61 L 502.506,-1908.59 L 502.436,-1908.56 L 502.365,-1908.54
 L 502.293,-1908.53 L 502.221,-1908.52 L 502.147,-1908.51 L 502.074,-1908.5 L 502.001,-1908.5 L 499.999,-1908.5
 z
M 459.5,-1892.5 L 462.5,-1892.5 L 462.5,-1895.5 L 466,-1899 L 223,-1899 L 226.5,-1895.5
 L 226.5,-1892.5 L 229.5,-1892.5 L 233,-1889 L 456,-1889 z
M 459.5,-1881.5 L 462.5,-1881.5 L 462.5,-1884.5 L 466,-1888 L 223,-1888 L 226.5,-1884.5
 L 226.5,-1881.5 L 229.5,-1881.5 L 233,-1878 L 456,-1878 z
M 506.5,-1436.5 L 506.5,-1439.5 L 509.5,-1439.5 L 513,-1443 L 509.5,-1446.5 L 506.5,-1446.5
 L 506.5,-1449.5 L 503,-1453 L 233,-1453 L 229.5,-1449.5 L 229.5,-1446.5 L 226.5,-1446.5
 L 223,-1443 L 226.5,-1439.5 L 229.5,-1439.5 L 229.5,-1436.5 L 233,-1433 L 503,-1433
 z
M 233.926,-1441.5 L 233.853,-1441.51 L 233.779,-1441.52 L 233.707,-1441.53 L 233.635,-1441.54 L 233.564,-1441.56
 L 233.494,-1441.59 L 233.426,-1441.61 L 233.358,-1441.64 L 233.293,-1441.68 L 233.229,-1441.71 L 233.166,-1441.75
 L 233.106,-1441.8 L 233.048,-1441.84 L 232.992,-1441.89 L 232.939,-1441.94 L 232.888,-1441.99 L 232.84,-1442.05
 L 232.795,-1442.11 L 232.753,-1442.17 L 232.713,-1442.23 L 232.677,-1442.29 L 232.644,-1442.36 L 232.614,-1442.43
 L 232.588,-1442.49 L 232.565,-1442.56 L 232.545,-1442.64 L 232.529,-1442.71 L 232.516,-1442.78 L 232.507,-1442.85
 L 232.502,-1442.93 L 232.5,-1443 L 232.5,-1443 L 232.502,-1443.07 L 232.507,-1443.15 L 232.516,-1443.22
 L 232.529,-1443.29 L 232.545,-1443.36 L 232.565,-1443.44 L 232.588,-1443.51 L 232.614,-1443.57 L 232.644,-1443.64
 L 232.677,-1443.71 L 232.713,-1443.77 L 232.753,-1443.83 L 232.795,-1443.89 L 232.84,-1443.95 L 232.888,-1444.01
 L 232.939,-1444.06 L 232.992,-1444.11 L 233.048,-1444.16 L 233.106,-1444.2 L 233.166,-1444.25 L 233.229,-1444.29
 L 233.293,-1444.32 L 233.358,-1444.36 L 233.426,-1444.39 L 233.494,-1444.41 L 233.564,-1444.44 L 233.635,-1444.46
 L 233.707,-1444.47 L 233.779,-1444.48 L 233.853,-1444.49 L 233.926,-1444.5 L 233.999,-1444.5 L 236.001,-1444.5
 L 236.074,-1444.5 L 236.147,-1444.49 L 236.221,-1444.48 L 236.293,-1444.47 L 236.365,-1444.46 L 236.436,-1444.44
 L 236.506,-1444.41 L 236.574,-1444.39 L 236.642,-1444.36 L 236.707,-1444.32 L 236.771,-1444.29 L 236.834,-1444.25
 L 236.894,-1444.2 L 236.952,-1444.16 L 237.008,-1444.11 L 237.061,-1444.06 L 237.112,-1444.01 L 237.16,-1443.95
 L 237.205,-1443.89 L 237.247,-1443.83 L 237.287,-1443.77 L 237.323,-1443.71 L 237.356,-1443.64 L 237.386,-1443.57
 L 237.412,-1443.51 L 237.435,-1443.44 L 237.455,-1443.36 L 237.471,-1443.29 L 237.484,-1443.22 L 237.493,-1443.15
 L 237.498,-1443.07 L 237.5,-1443 L 237.5,-1443 L 237.498,-1442.93 L 237.493,-1442.85 L 237.484,-1442.78
 L 237.471,-1442.71 L 237.455,-1442.64 L 237.435,-1442.56 L 237.412,-1442.49 L 237.386,-1442.43 L 237.356,-1442.36
 L 237.323,-1442.29 L 237.287,-1442.23 L 237.247,-1442.17 L 237.205,-1442.11 L 237.16,-1442.05 L 237.112,-1441.99
 L 237.061,-1441.94 L 237.008,-1441.89 L 236.952,-1441.84 L 236.894,-1441.8 L 236.834,-1441.75 L 236.771,-1441.71
 L 236.707,-1441.68 L 236.642,-1441.64 L 236.574,-1441.61 L 236.506,-1441.59 L 236.436,-1441.56 L 236.365,-1441.54
 L 236.293,-1441.53 L 236.221,-1441.52 L 236.147,-1441.51 L 236.074,-1441.5 L 236.001,-1441.5 L 233.999,-1441.5
 z
M 499.926,-1441.5 L 499.853,-1441.51 L 499.779,-1441.52 L 499.707,-1441.53 L 499.635,-1441.54 L 499.564,-1441.56
 L 499.494,-1441.59 L 499.426,-1441.61 L 499.358,-1441.64 L 499.293,-1441.68 L 499.229,-1441.71 L 499.166,-1441.75
 L 499.106,-1441.8 L 499.048,-1441.84 L 498.992,-1441.89 L 498.939,-1441.94 L 498.888,-1441.99 L 498.84,-1442.05
 L 498.795,-1442.11 L 498.753,-1442.17 L 498.713,-1442.23 L 498.677,-1442.29 L 498.644,-1442.36 L 498.614,-1442.43
 L 498.588,-1442.49 L 498.565,-1442.56 L 498.545,-1442.64 L 498.529,-1442.71 L 498.516,-1442.78 L 498.507,-1442.85
 L 498.502,-1442.93 L 498.5,-1443 L 498.5,-1443 L 498.502,-1443.07 L 498.507,-1443.15 L 498.516,-1443.22
 L 498.529,-1443.29 L 498.545,-1443.36 L 498.565,-1443.44 L 498.588,-1443.51 L 498.614,-1443.57 L 498.644,-1443.64
 L 498.677,-1443.71 L 498.713,-1443.77 L 498.753,-1443.83 L 498.795,-1443.89 L 498.84,-1443.95 L 498.888,-1444.01
 L 498.939,-1444.06 L 498.992,-1444.11 L 499.048,-1444.16 L 499.106,-1444.2 L 499.166,-1444.25 L 499.229,-1444.29
 L 499.293,-1444.32 L 499.358,-1444.36 L 499.426,-1444.39 L 499.494,-1444.41 L 499.564,-1444.44 L 499.635,-1444.46
 L 499.707,-1444.47 L 499.779,-1444.48 L 499.853,-1444.49 L 499.926,-1444.5 L 499.999,-1444.5 L 502.001,-1444.5
 L 502.074,-1444.5 L 502.147,-1444.49 L 502.221,-1444.48 L 502.293,-1444.47 L 502.365,-1444.46 L 502.436,-1444.44
 L 502.506,-1444.41 L 502.574,-1444.39 L 502.642,-1444.36 L 502.707,-1444.32 L 502.771,-1444.29 L 502.834,-1444.25
 L 502.894,-1444.2 L 502.952,-1444.16 L 503.008,-1444.11 L 503.061,-1444.06 L 503.112,-1444.01 L 503.16,-1443.95
 L 503.205,-1443.89 L 503.247,-1443.83 L 503.287,-1443.77 L 503.323,-1443.71 L 503.356,-1443.64 L 503.386,-1443.57
 L 503.412,-1443.51 L 503.435,-1443.44 L 503.455,-1443.36 L 503.471,-1443.29 L 503.484,-1443.22 L 503.493,-1443.15
 L 503.498,-1443.07 L 503.5,-1443 L 503.5,-1443 L 503.498,-1442.93 L 503.493,-1442.85 L 503.484,-1442.78
 L 503.471,-1442.71 L 503.455,-1442.64 L 503.435,-1442.56 L 503.412,-1442.49 L 503.386,-1442.43 L 503.356,-1442.36
 L 503.323,-1442.29 L 503.287,-1442.23 L 503.247,-1442.17 L 503.205,-1442.11 L 503.16,-1442.05 L 503.112,-1441.99
 L 503.061,-1441.94 L 503.008,-1441.89 L 502.952,-1441.84 L 502.894,-1441.8 L 502.834,-1441.75 L 502.771,-1441.71
 L 502.707,-1441.68 L 502.642,-1441.64 L 502.574,-1441.61 L 502.506,-1441.59 L 502.436,-1441.56 L 502.365,-1441.54
 L 502.293,-1441.53 L 502.221,-1441.52 L 502.147,-1441.51 L 502.074,-1441.5 L 502.001,-1441.5 L 499.999,-1441.5
 z
M 459.5,-1425.5 L 462.5,-1425.5 L 462.5,-1428.5 L 466,-1432 L 223,-1432 L 226.5,-1428.5
 L 226.5,-1425.5 L 229.5,-1425.5 L 233,-1422 L 456,-1422 z
M 459.5,-1414.5 L 462.5,-1414.5 L 462.5,-1417.5 L 466,-1421 L 223,-1421 L 226.5,-1417.5
 L 226.5,-1414.5 L 229.5,-1414.5 L 233,-1411 L 456,-1411 z
M 195.5,-1214.5 L 195.5,-1217.5 L 198.5,-1217.5 L 202,-1221 L 198.5,-1224.5 L 195.5,-1224.5
 L 195.5,-1227.5 L 192,-1231 L 11,-1231 L 7.5,-1227.5 L 7.5,-1224.5 L 4.5,-1224.5
 L 1,-1221 L 4.5,-1217.5 L 7.5,-1217.5 L 7.5,-1214.5 L 11,-1211 L 192,-1211
 z
M 708.5,-1214.5 L 708.5,-1217.5 L 711.5,-1217.5 L 715,-1221 L 711.5,-1224.5 L 708.5,-1224.5
 L 708.5,-1227.5 L 705,-1231 L 524,-1231 L 520.5,-1227.5 L 520.5,-1224.5 L 517.5,-1224.5
 L 514,-1221 L 517.5,-1217.5 L 520.5,-1217.5 L 520.5,-1214.5 L 524,-1211 L 705,-1211
 z
M 237.5,-1203.5 L 240.5,-1203.5 L 240.5,-1206.5 L 244,-1210 L 1,-1210 L 4.5,-1206.5
 L 4.5,-1203.5 L 7.5,-1203.5 L 11,-1200 L 234,-1200 z
M 750.5,-1203.5 L 753.5,-1203.5 L 753.5,-1206.5 L 757,-1210 L 514,-1210 L 517.5,-1206.5
 L 517.5,-1203.5 L 520.5,-1203.5 L 524,-1200 L 747,-1200 z
M 237.5,-1192.5 L 240.5,-1192.5 L 240.5,-1195.5 L 244,-1199 L 1,-1199 L 4.5,-1195.5
 L 4.5,-1192.5 L 7.5,-1192.5 L 11,-1189 L 234,-1189 z
M 750.5,-1192.5 L 753.5,-1192.5 L 753.5,-1195.5 L 757,-1199 L 514,-1199 L 517.5,-1195.5
 L 517.5,-1192.5 L 520.5,-1192.5 L 524,-1189 L 747,-1189 z
M 506.5,-970.5 L 506.5,-973.5 L 509.5,-973.5 L 513,-977 L 509.5,-980.5 L 506.5,-980.5
 L 506.5,-983.5 L 503,-987 L 233,-987 L 229.5,-983.5 L 229.5,-980.5 L 226.5,-980.5
 L 223,-977 L 226.5,-973.5 L 229.5,-973.5 L 229.5,-970.5 L 233,-967 L 503,-967
 z
M 233.926,-975.502 L 233.853,-975.507 L 233.779,-975.516 L 233.707,-975.529 L 233.635,-975.545 L 233.564,-975.565
 L 233.494,-975.588 L 233.426,-975.614 L 233.358,-975.644 L 233.293,-975.677 L 233.229,-975.713 L 233.166,-975.753
 L 233.106,-975.795 L 233.048,-975.84 L 232.992,-975.888 L 232.939,-975.939 L 232.888,-975.992 L 232.84,-976.048
 L 232.795,-976.106 L 232.753,-976.166 L 232.713,-976.229 L 232.677,-976.293 L 232.644,-976.358 L 232.614,-976.426
 L 232.588,-976.494 L 232.565,-976.564 L 232.545,-976.635 L 232.529,-976.707 L 232.516,-976.779 L 232.507,-976.853
 L 232.502,-976.926 L 232.5,-976.999 L 232.5,-977.001 L 232.502,-977.074 L 232.507,-977.147 L 232.516,-977.221
 L 232.529,-977.293 L 232.545,-977.365 L 232.565,-977.436 L 232.588,-977.506 L 232.614,-977.574 L 232.644,-977.642
 L 232.677,-977.707 L 232.713,-977.771 L 232.753,-977.834 L 232.795,-977.894 L 232.84,-977.952 L 232.888,-978.008
 L 232.939,-978.061 L 232.992,-978.112 L 233.048,-978.16 L 233.106,-978.205 L 233.166,-978.247 L 233.229,-978.287
 L 233.293,-978.323 L 233.358,-978.356 L 233.426,-978.386 L 233.494,-978.412 L 233.564,-978.435 L 233.635,-978.455
 L 233.707,-978.471 L 233.779,-978.484 L 233.853,-978.493 L 233.926,-978.498 L 233.999,-978.5 L 236.001,-978.5
 L 236.074,-978.498 L 236.147,-978.493 L 236.221,-978.484 L 236.293,-978.471 L 236.365,-978.455 L 236.436,-978.435
 L 236.506,-978.412 L 236.574,-978.386 L 236.642,-978.356 L 236.707,-978.323 L 236.771,-978.287 L 236.834,-978.247
 L 236.894,-978.205 L 236.952,-978.16 L 237.008,-978.112 L 237.061,-978.061 L 237.112,-978.008 L 237.16,-977.952
 L 237.205,-977.894 L 237.247,-977.834 L 237.287,-977.771 L 237.323,-977.707 L 237.356,-977.642 L 237.386,-977.574
 L 237.412,-977.506 L 237.435,-977.436 L 237.455,-977.365 L 237.471,-977.293 L 237.484,-977.221 L 237.493,-977.147
 L 237.498,-977.074 L 237.5,-977.001 L 237.5,-976.999 L 237.498,-976.926 L 237.493,-976.853 L 237.484,-976.779
 L 237.471,-976.707 L 237.455,-976.635 L 237.435,-976.564 L 237.412,-976.494 L 237.386,-976.426 L 237.356,-976.358
 L 237.323,-976.293 L 237.287,-976.229 L 237.247,-976.166 L 237.205,-976.106 L 237.16,-976.048 L 237.112,-975.992
 L 237.061,-975.939 L 237.008,-975.888 L 236.952,-975.84 L 236.894,-975.795 L 236.834,-975.753 L 236.771,-975.713
 L 236.707,-975.677 L 236.642,-975.644 L 236.574,-975.614 L 236.506,-975.588 L 236.436,-975.565 L 236.365,-975.545
 L 236.293,-975.529 L 236.221,-975.516 L 236.147,-975.507 L 236.074,-975.502 L 236.001,-975.5 L 233.999,-975.5
 z
M 499.926,-975.502 L 499.853,-975.507 L 499.779,-975.516 L 499.707,-975.529 L 499.635,-975.545 L 499.564,-975.565
 L 499.494,-975.588 L 499.426,-975.614 L 499.358,-975.644 L 499.293,-975.677 L 499.229,-975.713 L 499.166,-975.753
 L 499.106,-975.795 L 499.048,-975.84 L 498.992,-975.888 L 498.939,-975.939 L 498.888,-975.992 L 498.84,-976.048
 L 498.795,-976.106 L 498.753,-976.166 L 498.713,-976.229 L 498.677,-976.293 L 498.644,-976.358 L 498.614,-976.426
 L 498.588,-976.494 L 498.565,-976.564 L 498.545,-976.635 L 498.529,-976.707 L 498.516,-976.779 L 498.507,-976.853
 L 498.502,-976.926 L 498.5,-976.999 L 498.5,-977.001 L 498.502,-977.074 L 498.507,-977.147 L 498.516,-977.221
 L 498.529,-977.293 L 498.545,-977.365 L 498.565,-977.436 L 498.588,-977.506 L 498.614,-977.574 L 498.644,-977.642
 L 498.677,-977.707 L 498.713,-977.771 L 498.753,-977.834 L 498.795,-977.894 L 498.84,-977.952 L 498.888,-978.008
 L 498.939,-978.061 L 498.992,-978.112 L 499.048,-978.16 L 499.106,-978.205 L 499.166,-978.247 L 499.229,-978.287
 L 499.293,-978.323 L 499.358,-978.356 L 499.426,-978.386 L 499.494,-978.412 L 499.564,-978.435 L 499.635,-978.455
 L 499.707,-978.471 L 499.779,-978.484 L 499.853,-978.493 L 499.926,-978.498 L 499.999,-978.5 L 502.001,-978.5
 L 502.074,-978.498 L 502.147,-978.493 L 502.221,-978.484 L 502.293,-978.471 L 502.365,-978.455 L 502.436,-978.435
 L 502.506,-978.412 L 502.574,-978.386 L 502.642,-978.356 L 502.707,-978.323 L 502.771,-978.287 L 502.834,-978.247
 L 502.894,-978.205 L 502.952,-978.16 L 503.008,-978.112 L 503.061,-978.061 L 503.112,-978.008 L 503.16,-977.952
 L 503.205,-977.894 L 503.247,-977.834 L 503.287,-977.771 L 503.323,-977.707 L 503.356,-977.642 L 503.386,-977.574
 L 503.412,-977.506 L 503.435,-977.436 L 503.455,-977.365 L 503.471,-977.293 L 503.484,-977.221 L 503.493,-977.147
 L 503.498,-977.074 L 503.5,-977.001 L 503.5,-976.999 L 503.498,-976.926 L 503.493,-976.853 L 503.484,-976.779
 L 503.471,-976.707 L 503.455,-976.635 L 503.435,-976.564 L 503.412,-976.494 L 503.386,-976.426 L 503.356,-976.358
 L 503.323,-976.293 L 503.287,-976.229 L 503.247,-976.166 L 503.205,-976.106 L 503.16,-976.048 L 503.112,-975.992
 L 503.061,-975.939 L 503.008,-975.888 L 502.952,-975.84 L 502.894,-975.795 L 502.834,-975.753 L 502.771,-975.713
 L 502.707,-975.677 L 502.642,-975.644 L 502.574,-975.614 L 502.506,-975.588 L 502.436,-975.565 L 502.365,-975.545
 L 502.293,-975.529 L 502.221,-975.516 L 502.147,-975.507 L 502.074,-975.502 L 502.001,-975.5 L 499.999,-975.5
 z
M 459.5,-959.5 L 462.5,-959.5 L 462.5,-962.5 L 466,-966 L 223,-966 L 226.5,-962.5
 L 226.5,-959.5 L 229.5,-959.5 L 233,-956 L 456,-956 z
M 459.5,-948.5 L 462.5,-948.5 L 462.5,-951.5 L 466,-955 L 223,-955 L 226.5,-951.5
 L 226.5,-948.5 L 229.5,-948.5 L 233,-945 L 456,-945 z
M 506.5,-503.5 L 506.5,-506.5 L 509.5,-506.5 L 513,-510 L 509.5,-513.5 L 506.5,-513.5
 L 506.5,-516.5 L 503,-520 L 233,-520 L 229.5,-516.5 L 229.5,-513.5 L 226.5,-513.5
 L 223,-510 L 226.5,-506.5 L 229.5,-506.5 L 229.5,-503.5 L 233,-500 L 503,-500
 z
M 233.926,-508.502 L 233.853,-508.507 L 233.779,-508.516 L 233.707,-508.529 L 233.635,-508.545 L 233.564,-508.565
 L 233.494,-508.588 L 233.426,-508.614 L 233.358,-508.644 L 233.293,-508.677 L 233.229,-508.713 L 233.166,-508.753
 L 233.106,-508.795 L 233.048,-508.84 L 232.992,-508.888 L 232.939,-508.939 L 232.888,-508.992 L 232.84,-509.048
 L 232.795,-509.106 L 232.753,-509.166 L 232.713,-509.229 L 232.677,-509.293 L 232.644,-509.358 L 232.614,-509.426
 L 232.588,-509.494 L 232.565,-509.564 L 232.545,-509.635 L 232.529,-509.707 L 232.516,-509.779 L 232.507,-509.853
 L 232.502,-509.926 L 232.5,-509.999 L 232.5,-510.001 L 232.502,-510.074 L 232.507,-510.147 L 232.516,-510.221
 L 232.529,-510.293 L 232.545,-510.365 L 232.565,-510.436 L 232.588,-510.506 L 232.614,-510.574 L 232.644,-510.642
 L 232.677,-510.707 L 232.713,-510.771 L 232.753,-510.834 L 232.795,-510.894 L 232.84,-510.952 L 232.888,-511.008
 L 232.939,-511.061 L 232.992,-511.112 L 233.048,-511.16 L 233.106,-511.205 L 233.166,-511.247 L 233.229,-511.287
 L 233.293,-511.323 L 233.358,-511.356 L 233.426,-511.386 L 233.494,-511.412 L 233.564,-511.435 L 233.635,-511.455
 L 233.707,-511.471 L 233.779,-511.484 L 233.853,-511.493 L 233.926,-511.498 L 233.999,-511.5 L 236.001,-511.5
 L 236.074,-511.498 L 236.147,-511.493 L 236.221,-511.484 L 236.293,-511.471 L 236.365,-511.455 L 236.436,-511.435
 L 236.506,-511.412 L 236.574,-511.386 L 236.642,-511.356 L 236.707,-511.323 L 236.771,-511.287 L 236.834,-511.247
 L 236.894,-511.205 L 236.952,-511.16 L 237.008,-511.112 L 237.061,-511.061 L 237.112,-511.008 L 237.16,-510.952
 L 237.205,-510.894 L 237.247,-510.834 L 237.287,-510.771 L 237.323,-510.707 L 237.356,-510.642 L 237.386,-510.574
 L 237.412,-510.506 L 237.435,-510.436 L 237.455,-510.365 L 237.471,-510.293 L 237.484,-510.221 L 237.493,-510.147
 L 237.498,-510.074 L 237.5,-510.001 L 237.5,-509.999 L 237.498,-509.926 L 237.493,-509.853 L 237.484,-509.779
 L 237.471,-509.707 L 237.455,-509.635 L 237.435,-509.564 L 237.412,-509.494 L 237.386,-509.426 L 237.356,-509.358
 L 237.323,-509.293 L 237.287,-509.229 L 237.247,-509.166 L 237.205,-509.106 L 237.16,-509.048 L 237.112,-508.992
 L 237.061,-508.939 L 237.008,-508.888 L 236.952,-508.84 L 236.894,-508.795 L 236.834,-508.753 L 236.771,-508.713
 L 236.707,-508.677 L 236.642,-508.644 L 236.574,-508.614 L 236.506,-508.588 L 236.436,-508.565 L 236.365,-508.545
 L 236.293,-508.529 L 236.221,-508.516 L 236.147,-508.507 L 236.074,-508.502 L 236.001,-508.5 L 233.999,-508.5
 z
M 499.926,-508.502 L 499.853,-508.507 L 499.779,-508.516 L 499.707,-508.529 L 499.635,-508.545 L 499.564,-508.565
 L 499.494,-508.588 L 499.426,-508.614 L 499.358,-508.644 L 499.293,-508.677 L 499.229,-508.713 L 499.166,-508.753
 L 499.106,-508.795 L 499.048,-508.84 L 498.992,-508.888 L 498.939,-508.939 L 498.888,-508.992 L 498.84,-509.048
 L 498.795,-509.106 L 498.753,-509.166 L 498.713,-509.229 L 498.677,-509.293 L 498.644,-509.358 L 498.614,-509.426
 L 498.588,-509.494 L 498.565,-509.564 L 498.545,-509.635 L 498.529,-509.707 L 498.516,-509.779 L 498.507,-509.853
 L 498.502,-509.926 L 498.5,-509.999 L 498.5,-510.001 L 498.502,-510.074 L 498.507,-510.147 L 498.516,-510.221
 L 498.529,-510.293 L 498.545,-510.365 L 498.565,-510.436 L 498.588,-510.506 L 498.614,-510.574 L 498.644,-510.642
 L 498.677,-510.707 L 498.713,-510.771 L 498.753,-510.834 L 498.795,-510.894 L 498.84,-510.952 L 498.888,-511.008
 L 498.939,-511.061 L 498.992,-511.112 L 499.048,-511.16 L 499.106,-511.205 L 499.166,-511.247 L 499.229,-511.287
 L 499.293,-511.323 L 499.358,-511.356 L 499.426,-511.386 L 499.494,-511.412 L 499.564,-511.435 L 499.635,-511.455
 L 499.707,-511.471 L 499.779,-511.484 L 499.853,-511.493 L 499.926,-511.498 L 499.999,-511.5 L 502.001,-511.5
 L 502.074,-511.498 L 502.147,-511.493 L 502.221,-511.484 L 502.293,-511.471 L 502.365,-511.455 L 502.436,-511.435
 L 502.506,-511.412 L 502.574,-511.386 L 502.642,-511.356 L 502.707,-511.323 L 502.771,-511.287 L 502.834,-511.247
 L 502.894,-511.205 L 502.952,-511.16 L 503.008,-511.112 L 503.061,-511.061 L 503.112,-511.008 L 503.16,-510.952
 L 503.205,-510.894 L 503.247,-510.834 L 503.287,-510.771 L 503.323,-510.707 L 503.356,-510.642 L 503.386,-510.574
 L 503.412,-510.506 L 503.435,-510.436 L 503.455,-510.365 L 503.471,-510.293 L 503.484,-510.221 L 503.493,-510.147
 L 503.498,-510.074 L 503.5,-510.001 L 503.5,-509.999 L 503.498,-509.926 L 503.493,-509.853 L 503.484,-509.779
 L 503.471,-509.707 L 503.455,-509.635 L 503.435,-509.564 L 503.412,-509.494 L 503.386,-509.426 L 503.356,-509.358
 L 503.323,-509.293 L 503.287,-509.229 L 503.247,-509.166 L 503.205,-509.106 L 503.16,-509.048 L 503.112,-508.992
 L 503.061,-508.939 L 503.008,-508.888 L 502.952,-508.84 L 502.894,-508.795 L 502.834,-508.753 L 502.771,-508.713
 L 502.707,-508.677 L 502.642,-508.644 L 502.574,-508.614 L 502.506,-508.588 L 502.436,-508.565 L 502.365,-508.545
 L 502.293,-508.529 L 502.221,-508.516 L 502.147,-508.507 L 502.074,-508.502 L 502.001,-508.5 L 499.999,-508.5
 z
M 459.5,-492.5 L 462.5,-492.5 L 462.5,-495.5 L 466,-499 L 223,-499 L 226.5,-495.5
 L 226.5,-492.5 L 229.5,-492.5 L 233,-489 L 456,-489 z
M 459.5,-481.5 L 462.5,-481.5 L 462.5,-484.5 L 466,-488 L 223,-488 L 226.5,-484.5
 L 226.5,-481.5 L 229.5,-481.5 L 233,-478 L 456,-478 z
M 506.5,-470.5 L 506.5,-473.5 L 509.5,-473.5 L 513,-477 L 503.5,-477 L 503.5,-476.999
 L 503.498,-476.926 L 503.493,-476.853 L 503.484,-476.779 L 503.471,-476.707 L 503.455,-476.635 L 503.435,-476.564
 L 503.412,-476.494 L 503.386,-476.426 L 503.356,-476.358 L 503.323,-476.293 L 503.287,-476.229 L 503.247,-476.166
 L 503.205,-476.106 L 503.16,-476.048 L 503.112,-475.992 L 503.061,-475.939 L 503.008,-475.888 L 502.952,-475.84
 L 502.894,-475.795 L 502.834,-475.753 L 502.771,-475.713 L 502.707,-475.677 L 502.642,-475.644 L 502.574,-475.614
 L 502.506,-475.588 L 502.436,-475.565 L 502.365,-475.545 L 502.293,-475.529 L 502.221,-475.516 L 502.147,-475.507
 L 502.074,-475.502 L 502.001,-475.5 L 499.999,-475.5 L 499.926,-475.502 L 499.853,-475.507 L 499.779,-475.516
 L 499.707,-475.529 L 499.635,-475.545 L 499.564,-475.565 L 499.494,-475.588 L 499.426,-475.614 L 499.358,-475.644
 L 499.293,-475.677 L 499.229,-475.713 L 499.166,-475.753 L 499.106,-475.795 L 499.048,-475.84 L 498.992,-475.888
 L 498.939,-475.939 L 498.888,-475.992 L 498.84,-476.048 L 498.795,-476.106 L 498.753,-476.166 L 498.713,-476.229
 L 498.677,-476.293 L 498.644,-476.358 L 498.614,-476.426 L 498.588,-476.494 L 498.565,-476.564 L 498.545,-476.635
 L 498.529,-476.707 L 498.516,-476.779 L 498.507,-476.853 L 498.502,-476.926 L 498.5,-476.999 L 498.5,-477
 L 237.5,-477 L 237.5,-476.999 L 237.498,-476.926 L 237.493,-476.853 L 237.484,-476.779 L 237.471,-476.707
 L 237.455,-476.635 L 237.435,-476.564 L 237.412,-476.494 L 237.386,-476.426 L 237.356,-476.358 L 237.323,-476.293
 L 237.287,-476.229 L 237.247,-476.166 L 237.205,-476.106 L 237.16,-476.048 L 237.112,-475.992 L 237.061,-475.939
 L 237.008,-475.888 L 236.952,-475.84 L 236.894,-475.795 L 236.834,-475.753 L 236.771,-475.713 L 236.707,-475.677
 L 236.642,-475.644 L 236.574,-475.614 L 236.506,-475.588 L 236.436,-475.565 L 236.365,-475.545 L 236.293,-475.529
 L 236.221,-475.516 L 236.147,-475.507 L 236.074,-475.502 L 236.001,-475.5 L 233.999,-475.5 L 233.926,-475.502
 L 233.853,-475.507 L 233.779,-475.516 L 233.707,-475.529 L 233.635,-475.545 L 233.564,-475.565 L 233.494,-475.588
 L 233.426,-475.614 L 233.358,-475.644 L 233.293,-475.677 L 233.229,-475.713 L 233.166,-475.753 L 233.106,-475.795
 L 233.048,-475.84 L 232.992,-475.888 L 232.939,-475.939 L 232.888,-475.992 L 232.84,-476.048 L 232.795,-476.106
 L 232.753,-476.166 L 232.713,-476.229 L 232.677,-476.293 L 232.644,-476.358 L 232.614,-476.426 L 232.588,-476.494
 L 232.565,-476.564 L 232.545,-476.635 L 232.529,-476.707 L 232.516,-476.779 L 232.507,-476.853 L 232.502,-476.926
 L 232.5,-476.999 L 232.5,-477 L 223,-477 L 226.5,-473.5 L 229.5,-473.5 L 229.5,-470.5
 L 233,-467 L 503,-467 z
M 195.5,-281.5 L 195.5,-284.5 L 198.5,-284.5 L 202,-288 L 198.5,-291.5 L 195.5,-291.5
 L 195.5,-294.5 L 192,-298 L 11,-298 L 7.5,-294.5 L 7.5,-291.5 L 4.5,-291.5
 L 1,-288 L 4.5,-284.5 L 7.5,-284.5 L 7.5,-281.5 L 11,-278 L 192,-278
 z
M 708.5,-281.5 L 708.5,-284.5 L 711.5,-284.5 L 715,-288 L 711.5,-291.5 L 708.5,-291.5
 L 708.5,-294.5 L 705,-298 L 524,-298 L 520.5,-294.5 L 520.5,-291.5 L 517.5,-291.5
 L 514,-288 L 517.5,-284.5 L 520.5,-284.5 L 520.5,-281.5 L 524,-278 L 705,-278
 z
M 237.5,-270.5 L 240.5,-270.5 L 240.5,-273.5 L 244,-277 L 1,-277 L 4.5,-273.5
 L 4.5,-270.5 L 7.5,-270.5 L 11,-267 L 234,-267 z
M 750.5,-270.5 L 753.5,-270.5 L 753.5,-273.5 L 757,-277 L 514,-277 L 517.5,-273.5
 L 517.5,-270.5 L 520.5,-270.5 L 524,-267 L 747,-267 z
M 237.5,-259.5 L 240.5,-259.5 L 240.5,-262.5 L 244,-266 L 1,-266 L 4.5,-262.5
 L 4.5,-259.5 L 7.5,-259.5 L 11,-256 L 234,-256 z
M 750.5,-259.5 L 753.5,-259.5 L 753.5,-262.5 L 757,-266 L 514,-266 L 517.5,-262.5
 L 517.5,-259.5 L 520.5,-259.5 L 524,-256 L 747,-256 z
M 195.5,-248.5 L 195.5,-251.5 L 198.5,-251.5 L 202,-255 L 1,-255 L 4.5,-251.5
 L 7.5,-251.5 L 7.5,-248.5 L 11,-245 L 192,-245 z
M 708.5,-248.5 L 708.5,-251.5 L 711.5,-251.5 L 715,-255 L 514,-255 L 517.5,-251.5
 L 520.5,-251.5 L 520.5,-248.5 L 524,-245 L 705,-245 z
M 506.5,-37.5 L 506.5,-40.5 L 509.5,-40.5 L 513,-44 L 509.5,-47.5 L 506.5,-47.5
 L 506.5,-50.5 L 503,-54 L 233,-54 L 229.5,-50.5 L 229.5,-47.5 L 226.5,-47.5
 L 223,-44 L 226.5,-40.5 L 229.5,-40.5 L 229.5,-37.5 L 233,-34 L 503,-34
 z
M 233.926,-42.5018 L 233.853,-42.5072 L 233.779,-42.5162 L 233.707,-42.5288 L 233.635,-42.5449 L 233.564,-42.5646
 L 233.494,-42.5877 L 233.426,-42.6141 L 233.358,-42.644 L 233.293,-42.6771 L 233.229,-42.7133 L 233.166,-42.7527
 L 233.106,-42.7951 L 233.048,-42.8404 L 232.992,-42.8884 L 232.939,-42.9392 L 232.888,-42.9925 L 232.84,-43.0482
 L 232.795,-43.1062 L 232.753,-43.1664 L 232.713,-43.2286 L 232.677,-43.2926 L 232.644,-43.3584 L 232.614,-43.4257
 L 232.588,-43.4943 L 232.565,-43.5642 L 232.545,-43.6352 L 232.529,-43.707 L 232.516,-43.7795 L 232.507,-43.8525
 L 232.502,-43.9259 L 232.5,-43.9995 L 232.5,-44.0005 L 232.502,-44.0741 L 232.507,-44.1475 L 232.516,-44.2205
 L 232.529,-44.293 L 232.545,-44.3648 L 232.565,-44.4358 L 232.588,-44.5057 L 232.614,-44.5743 L 232.644,-44.6416
 L 232.677,-44.7074 L 232.713,-44.7714 L 232.753,-44.8336 L 232.795,-44.8938 L 232.84,-44.9518 L 232.888,-45.0075
 L 232.939,-45.0608 L 232.992,-45.1116 L 233.048,-45.1596 L 233.106,-45.2049 L 233.166,-45.2473 L 233.229,-45.2867
 L 233.293,-45.3229 L 233.358,-45.356 L 233.426,-45.3859 L 233.494,-45.4123 L 233.564,-45.4354 L 233.635,-45.4551
 L 233.707,-45.4712 L 233.779,-45.4838 L 233.853,-45.4928 L 233.926,-45.4982 L 233.999,-45.5 L 236.001,-45.5
 L 236.074,-45.4982 L 236.147,-45.4928 L 236.221,-45.4838 L 236.293,-45.4712 L 236.365,-45.4551 L 236.436,-45.4354
 L 236.506,-45.4123 L 236.574,-45.3859 L 236.642,-45.356 L 236.707,-45.3229 L 236.771,-45.2867 L 236.834,-45.2473
 L 236.894,-45.2049 L 236.952,-45.1596 L 237.008,-45.1116 L 237.061,-45.0608 L 237.112,-45.0075 L 237.16,-44.9518
 L 237.205,-44.8938 L 237.247,-44.8336 L 237.287,-44.7714 L 237.323,-44.7074 L 237.356,-44.6416 L 237.386,-44.5743
 L 237.412,-44.5057 L 237.435,-44.4358 L 237.455,-44.3648 L 237.471,-44.293 L 237.484,-44.2205 L 237.493,-44.1475
 L 237.498,-44.0741 L 237.5,-44.0005 L 237.5,-43.9995 L 237.498,-43.9259 L 237.493,-43.8525 L 237.484,-43.7795
 L 237.471,-43.707 L 237.455,-43.6352 L 237.435,-43.5642 L 237.412,-43.4943 L 237.386,-43.4257 L 237.356,-43.3584
 L 237.323,-43.2926 L 237.287,-43.2286 L 237.247,-43.1664 L 237.205,-43.1062 L 237.16,-43.0482 L 237.112,-42.9925
 L 237.061,-42.9392 L 237.008,-42.8884 L 236.952,-42.8404 L 236.894,-42.7951 L 236.834,-42.7527 L 236.771,-42.7133
 L 236.707,-42.6771 L 236.642,-42.644 L 236.574,-42.6141 L 236.506,-42.5877 L 236.436,-42.5646 L 236.365,-42.5449
 L 236.293,-42.5288 L 236.221,-42.5162 L 236.147,-42.5072 L 236.074,-42.5018 L 236.001,-42.5 L 233.999,-42.5
 z
M 499.926,-42.5018 L 499.853,-42.5072 L 499.779,-42.5162 L 499.707,-42.5288 L 499.635,-42.5449 L 499.564,-42.5646
 L 499.494,-42.5877 L 499.426,-42.6141 L 499.358,-42.644 L 499.293,-42.6771 L 499.229,-42.7133 L 499.166,-42.7527
 L 499.106,-42.7951 L 499.048,-42.8404 L 498.992,-42.8884 L 498.939,-42.9392 L 498.888,-42.9925 L 498.84,-43.0482
 L 498.795,-43.1062 L 498.753,-43.1664 L 498.713,-43.2286 L 498.677,-43.2926 L 498.644,-43.3584 L 498.614,-43.4257
 L 498.588,-43.4943 L 498.565,-43.5642 L 498.545,-43.6352 L 498.529,-43.707 L 498.516,-43.7795 L 498.507,-43.8525
 L 498.502,-43.9259 L 498.5,-43.9995 L 498.5,-44.0005 L 498.502,-44.0741 L 498.507,-44.1475 L 498.516,-44.2205
 L 498.529,-44.293 L 498.545,-44.3648 L 498.565,-44.4358 L 498.588,-44.5057 L 498.614,-44.5743 L 498.644,-44.6416
 L 498.677,-44.7074 L 498.713,-44.7714 L 498.753,-44.8336 L 498.795,-44.8938 L 498.84,-44.9518 L 498.888,-45.0075
 L 498.939,-45.0608 L 498.992,-45.1116 L 499.048,-45.1596 L 499.106,-45.2049 L 499.166,-45.2473 L 499.229,-45.2867
 L 499.293,-45.3229 L 499.358,-45.356 L 499.426,-45.3859 L 499.494,-45.4123 L 499.564,-45.4354 L 499.635,-45.4551
 L 499.707,-45.4712 L 499.779,-45.4838 L 499.853,-45.4928 L 499.926,-45.4982 L 499.999,-45.5 L 502.001,-45.5
 L 502.074,-45.4982 L 502.147,-45.4928 L 502.221,-45.4838 L 502.293,-45.4712 L 502.365,-45.4551 L 502.436,-45.4354
 L 502.506,-45.4123 L 502.574,-45.3859 L 502.642,-45.356 L 502.707,-45.3229 L 502.771,-45.2867 L 502.834,-45.2473
 L 502.894,-45.2049 L 502.952,-45.1596 L 503.008,-45.1116 L 503.061,-45.0608 L 503.112,-45.0075 L 503.16,-44.9518
 L 503.205,-44.8938 L 503.247,-44.8336 L 503.287,-44.7714 L 503.323,-44.7074 L 503.356,-44.6416 L 503.386,-44.5743
 L 503.412,-44.5057 L 503.435,-44.4358 L 503.455,-44.3648 L 503.471,-44.293 L 503.484,-44.2205 L 503.493,-44.1475
 L 503.498,-44.0741 L 503.5,-44.0005 L 503.5,-43.9995 L 503.498,-43.9259 L 503.493,-43.8525 L 503.484,-43.7795
 L 503.471,-43.707 L 503.455,-43.6352 L 503.435,-43.5642 L 503.412,-43.4943 L 503.386,-43.4257 L 503.356,-43.3584
 L 503.323,-43.2926 L 503.287,-43.2286 L 503.247,-43.1664 L 503.205,-43.1062 L 503.16,-43.0482 L 503.112,-42.9925
 L 503.061,-42.9392 L 503.008,-42.8884 L 502.952,-42.8404 L 502.894,-42.7951 L 502.834,-42.7527 L 502.771,-42.7133
 L 502.707,-42.6771 L 502.642,-42.644 L 502.574,-42.6141 L 502.506,-42.5877 L 502.436,-42.5646 L 502.365,-42.5449
 L 502.293,-42.5288 L 502.221,-42.5162 L 502.147,-42.5072 L 502.074,-42.5018 L 502.001,-42.5 L 499.999,-42.5
 z
M 459.5,-26.5 L 462.5,-26.5 L 462.5,-29.5 L 466,-33 L 223,-33 L 226.5,-29.5
 L 226.5,-26.5 L 229.5,-26.5 L 233,-23 L 456,-23 z
M 459.5,-15.5 L 462.5,-15.5 L 462.5,-18.5 L 466,-22 L 223,-22 L 226.5,-18.5
 L 226.5,-15.5 L 229.5,-15.5 L 233,-12 L 456,-12 z
M 506.5,-4.5 L 506.5,-7.5 L 509.5,-7.5 L 513,-11 L 503.5,-11 L 503.5,-10.9995
 L 503.498,-10.9259 L 503.493,-10.8525 L 503.484,-10.7795 L 503.471,-10.707 L 503.455,-10.6352 L 503.435,-10.5642
 L 503.412,-10.4943 L 503.386,-10.4257 L 503.356,-10.3584 L 503.323,-10.2926 L 503.287,-10.2286 L 503.247,-10.1664
 L 503.205,-10.1062 L 503.16,-10.0482 L 503.112,-9.9925 L 503.061,-9.93919 L 503.008,-9.88844 L 502.952,-9.84037
 L 502.894,-9.79509 L 502.834,-9.75271 L 502.771,-9.71334 L 502.707,-9.67706 L 502.642,-9.64397 L 502.574,-9.61414
 L 502.506,-9.58765 L 502.436,-9.56457 L 502.365,-9.54494 L 502.293,-9.52881 L 502.221,-9.51623 L 502.147,-9.50722
 L 502.074,-9.50181 L 502.001,-9.5 L 499.999,-9.5 L 499.926,-9.50181 L 499.853,-9.50722 L 499.779,-9.51623
 L 499.707,-9.52881 L 499.635,-9.54494 L 499.564,-9.56457 L 499.494,-9.58765 L 499.426,-9.61414 L 499.358,-9.64397
 L 499.293,-9.67706 L 499.229,-9.71334 L 499.166,-9.75271 L 499.106,-9.79509 L 499.048,-9.84037 L 498.992,-9.88844
 L 498.939,-9.93919 L 498.888,-9.9925 L 498.84,-10.0482 L 498.795,-10.1062 L 498.753,-10.1664 L 498.713,-10.2286
 L 498.677,-10.2926 L 498.644,-10.3584 L 498.614,-10.4257 L 498.588,-10.4943 L 498.565,-10.5642 L 498.545,-10.6352
 L 498.529,-10.707 L 498.516,-10.7795 L 498.507,-10.8525 L 498.502,-10.9259 L 498.5,-10.9995 L 498.5,-11
 L 237.5,-11 L 237.5,-10.9995 L 237.498,-10.9259 L 237.493,-10.8525 L 237.484,-10.7795 L 237.471,-10.707
 L 237.455,-10.6352 L 237.435,-10.5642 L 237.412,-10.4943 L 237.386,-10.4257 L 237.356,-10.3584 L 237.323,-10.2926
 L 237.287,-10.2286 L 237.247,-10.1664 L 237.205,-10.1062 L 237.16,-10.0482 L 237.112,-9.9925 L 237.061,-9.93919
 L 237.008,-9.88844 L 236.952,-9.84037 L 236.894,-9.79509 L 236.834,-9.75271 L 236.771,-9.71334 L 236.707,-9.67706
 L 236.642,-9.64397 L 236.574,-9.61414 L 236.506,-9.58765 L 236.436,-9.56457 L 236.365,-9.54494 L 236.293,-9.52881
 L 236.221,-9.51623 L 236.147,-9.50722 L 236.074,-9.50181 L 236.001,-9.5 L 233.999,-9.5 L 233.926,-9.50181
 L 233.853,-9.50722 L 233.779,-9.51623 L 233.707,-9.52881 L 233.635,-9.54494 L 233.564,-9.56457 L 233.494,-9.58765
 L 233.426,-9.61414 L 233.358,-9.64397 L 233.293,-9.67706 L 233.229,-9.71334 L 233.166,-9.75271 L 233.106,-9.79509
 L 233.048,-9.84037 L 232.992,-9.88844 L 232.939,-9.93919 L 232.888,-9.9925 L 232.84,-10.0482 L 232.795,-10.1062
 L 232.753,-10.1664 L 232.713,-10.2286 L 232.677,-10.2926 L 232.644,-10.3584 L 232.614,-10.4257 L 232.588,-10.4943
 L 232.565,-10.5642 L 232.545,-10.6352 L 232.529,-10.707 L 232.516,-10.7795 L 232.507,-10.8525 L 232.502,-10.9259
 L 232.5,-10.9995 L 232.5,-11 L 223,-11 L 226.5,-7.5 L 229.5,-7.5 L 229.5,-4.5
 L 233,-1 L 503,-1 z
" stroke="#000000" fill="none" stroke-width="0.35"/>
</svg>
