<?xml version="1.0" encoding="UTF-8" standalone="no"?>
<svg
   width="778mm"
   height="3366mm"
   viewBox="0 -3366 778 3366"
   version="1.1"
   id="svg6"
   sodipodi:docname="lamp_layer_0_export.svg"
   inkscape:version="1.2.2 (b0a8486541, 2022-12-01)"
   xmlns:inkscape="http://www.inkscape.org/namespaces/inkscape"
   xmlns:sodipodi="http://sodipodi.sourceforge.net/DTD/sodipodi-0.dtd"
   xmlns="http://www.w3.org/2000/svg"
   xmlns:svg="http://www.w3.org/2000/svg"
   xmlns:rdf="http://www.w3.org/1999/02/22-rdf-syntax-ns#"
   xmlns:cc="http://creativecommons.org/ns#"
   xmlns:dc="http://purl.org/dc/elements/1.1/">
  <defs
     id="defs10" />
  <sodipodi:namedview
     id="namedview8"
     pagecolor="#ffffff"
     bordercolor="#000000"
     borderopacity="0.25"
     inkscape:showpageshadow="2"
     inkscape:pageopacity="0.0"
     inkscape:pagecheckerboard="0"
     inkscape:deskcolor="#d1d1d1"
     inkscape:document-units="mm"
     showgrid="false"
     inkscape:zoom="0.082770722"
     inkscape:cx="1467.9104"
     inkscape:cy="8306.0771"
     inkscape:window-width="3374"
     inkscape:window-height="1371"
     inkscape:window-x="0"
     inkscape:window-y="0"
     inkscape:window-maximized="1"
     inkscape:current-layer="svg6" />
  <title
     id="title2">OpenSCAD Model</title>
  <path
     d="m 533.5,-4.5 v -3 h 3 L 540,-11 h -11 v 5e-4 l -0.002,0.0736 -0.005,0.0734 -0.009,0.073 -0.013,0.0725 -0.016,0.0718 -0.02,0.071 -0.023,0.0699 -0.026,0.0686 -0.03,0.0673 -0.033,0.0658 -0.036,0.064 -0.04,0.0622 -0.042,0.0602 -0.045,0.058 -0.048,0.0557 -0.051,0.05331 -0.053,0.05075 -0.056,0.04807 -0.058,0.04528 -0.06,0.04238 -0.063,0.03937 -0.064,0.03628 -0.065,0.03309 -0.068,0.02983 -0.068,0.02649 -0.07,0.02308 -0.071,0.01963 -0.072,0.01613 -0.072,0.01258 -0.074,0.00901 -0.073,0.00541 -0.073,0.00181 h -2.002 l -0.073,-0.00181 -0.073,-0.00541 -0.074,-0.00901 -0.072,-0.01258 -0.072,-0.01613 -0.071,-0.01963 -0.07,-0.02308 -0.068,-0.02649 -0.068,-0.02983 -0.065,-0.03309 -0.064,-0.03628 -0.063,-0.03937 -0.06,-0.04238 -0.058,-0.04528 -0.056,-0.04807 -0.053,-0.05075 -0.051,-0.05331 -0.048,-0.0557 -0.045,-0.058 -0.042,-0.0602 -0.04,-0.0622 -0.036,-0.064 -0.033,-0.0658 -0.03,-0.0673 -0.026,-0.0686 -0.023,-0.0699 -0.02,-0.071 -0.016,-0.0718 -0.013,-0.0725 -0.009,-0.073 -0.005,-0.0734 L 524,-10.9995 V -11 H 262 v 5e-4 l -0.002,0.0736 -0.005,0.0734 -0.009,0.073 -0.013,0.0725 -0.016,0.0718 -0.02,0.071 -0.023,0.0699 -0.026,0.0686 -0.03,0.0673 -0.033,0.0658 -0.036,0.064 -0.04,0.0622 -0.042,0.0602 -0.045,0.058 -0.048,0.0557 -0.051,0.05331 -0.053,0.05075 -0.056,0.04807 -0.058,0.04528 -0.06,0.04238 -0.063,0.03937 -0.064,0.03628 -0.065,0.03309 -0.068,0.02983 -0.068,0.02649 -0.07,0.02308 -0.071,0.01963 -0.072,0.01613 -0.072,0.01258 -0.074,0.00901 -0.073,0.00541 -0.073,0.00181 h -2.002 l -0.073,-0.00181 -0.073,-0.00541 -0.074,-0.00901 -0.072,-0.01258 -0.072,-0.01613 -0.071,-0.01963 -0.07,-0.02308 -0.068,-0.02649 -0.068,-0.02983 -0.065,-0.03309 -0.064,-0.03628 -0.063,-0.03937 -0.06,-0.04238 -0.058,-0.04528 -0.056,-0.04807 -0.053,-0.05075 -0.051,-0.05331 -0.048,-0.0557 -0.045,-0.058 -0.042,-0.0602 -0.04,-0.0622 -0.036,-0.064 -0.033,-0.0658 -0.03,-0.0673 -0.026,-0.0686 -0.023,-0.0699 -0.02,-0.071 -0.016,-0.0718 -0.013,-0.0725 -0.009,-0.073 -0.005,-0.0734 L 257,-10.9995 V -11 h -11 l 3.5,3.5 h 3 v 3 L 256,-1 h 274 z"
     id="path1450"
     style="stroke:#ff0000;stroke-opacity:1;fill:none;fill-opacity:1" />
  <path
     d="m 467.5,-15.5 h 3 v -3 L 474,-22 H 246 l 3.5,3.5 v 3 h 3 l 3.5,3.5 h 208 z"
     id="path1448"
     style="stroke:#ff0000;stroke-opacity:1;fill:none;fill-opacity:1" />
  <path
     d="m 467.5,-26.5 h 3 v -3 L 474,-33 H 246 l 3.5,3.5 v 3 h 3 l 3.5,3.5 h 208 z"
     id="path1446"
     style="stroke:#ff0000;stroke-opacity:1;fill:none;fill-opacity:1" />
  <path
     d="m 533.5,-37.5 v -3 h 3 l 3.5,-3.5 -3.5,-3.5 h -3 v -3 L 530,-54 H 256 l -3.5,3.5 v 3 h -3 l -3.5,3.5 3.5,3.5 h 3 v 3 l 3.5,3.5 h 274 z m -275.074,-5.0018 -0.073,-0.0054 -0.074,-0.009 -0.072,-0.0126 -0.072,-0.0161 -0.071,-0.0197 -0.07,-0.0231 -0.068,-0.0264 -0.068,-0.0299 -0.065,-0.0331 -0.064,-0.0362 -0.063,-0.0394 -0.06,-0.0424 -0.058,-0.0453 -0.056,-0.048 -0.053,-0.0508 -0.051,-0.0533 -0.048,-0.0557 -0.045,-0.058 -0.042,-0.0602 -0.04,-0.0622 -0.036,-0.064 -0.033,-0.0658 -0.03,-0.0673 -0.026,-0.0686 -0.023,-0.0699 -0.02,-0.071 -0.016,-0.0718 -0.013,-0.0725 -0.009,-0.073 -0.005,-0.0734 -0.002,-0.0736 v -0.001 l 0.002,-0.0736 0.005,-0.0734 0.009,-0.073 0.013,-0.0725 0.016,-0.0718 0.02,-0.071 0.023,-0.0699 0.026,-0.0686 0.03,-0.0673 0.033,-0.0658 0.036,-0.064 0.04,-0.0622 0.042,-0.0602 0.045,-0.058 0.048,-0.0557 0.051,-0.0533 0.053,-0.0508 0.056,-0.048 0.058,-0.0453 0.06,-0.0424 0.063,-0.0394 0.064,-0.0362 0.065,-0.0331 0.068,-0.0299 0.068,-0.0264 0.07,-0.0231 0.071,-0.0197 0.072,-0.0161 0.072,-0.0126 0.074,-0.009 0.073,-0.0054 0.073,-0.0018 h 2.002 l 0.073,0.0018 0.073,0.0054 0.074,0.009 0.072,0.0126 0.072,0.0161 0.071,0.0197 0.07,0.0231 0.068,0.0264 0.068,0.0299 0.065,0.0331 0.064,0.0362 0.063,0.0394 0.06,0.0424 0.058,0.0453 0.056,0.048 0.053,0.0508 0.051,0.0533 0.048,0.0557 0.045,0.058 0.042,0.0602 0.04,0.0622 0.036,0.064 0.033,0.0658 0.03,0.0673 0.026,0.0686 0.023,0.0699 0.02,0.071 0.016,0.0718 0.013,0.0725 0.009,0.073 0.005,0.0734 0.002,0.0736 v 0.001 l -0.002,0.0736 -0.005,0.0734 -0.009,0.073 -0.013,0.0725 -0.016,0.0718 -0.02,0.071 -0.023,0.0699 -0.026,0.0686 -0.03,0.0673 -0.033,0.0658 -0.036,0.064 -0.04,0.0622 -0.042,0.0602 -0.045,0.058 -0.048,0.0557 -0.051,0.0533 -0.053,0.0508 -0.056,0.048 -0.058,0.0453 -0.06,0.0424 -0.063,0.0394 -0.064,0.0362 -0.065,0.0331 -0.068,0.0299 -0.068,0.0264 -0.07,0.0231 -0.071,0.0197 -0.072,0.0161 -0.072,0.0126 -0.074,0.009 -0.073,0.0054 -0.073,0.0018 h -2.002 z m 267,0 -0.073,-0.0054 -0.074,-0.009 -0.072,-0.0126 -0.072,-0.0161 -0.071,-0.0197 -0.07,-0.0231 -0.068,-0.0264 -0.068,-0.0299 -0.065,-0.0331 -0.064,-0.0362 -0.063,-0.0394 -0.06,-0.0424 -0.058,-0.0453 -0.056,-0.048 -0.053,-0.0508 -0.051,-0.0533 -0.048,-0.0557 -0.045,-0.058 -0.042,-0.0602 -0.04,-0.0622 -0.036,-0.064 -0.033,-0.0658 -0.03,-0.0673 -0.026,-0.0686 -0.023,-0.0699 -0.02,-0.071 -0.016,-0.0718 -0.013,-0.0725 -0.009,-0.073 -0.005,-0.0734 -0.002,-0.0736 v -0.001 l 0.002,-0.0736 0.005,-0.0734 0.009,-0.073 0.013,-0.0725 0.016,-0.0718 0.02,-0.071 0.023,-0.0699 0.026,-0.0686 0.03,-0.0673 0.033,-0.0658 0.036,-0.064 0.04,-0.0622 0.042,-0.0602 0.045,-0.058 0.048,-0.0557 0.051,-0.0533 0.053,-0.0508 0.056,-0.048 0.058,-0.0453 0.06,-0.0424 0.063,-0.0394 0.064,-0.0362 0.065,-0.0331 0.068,-0.0299 0.068,-0.0264 0.07,-0.0231 0.071,-0.0197 0.072,-0.0161 0.072,-0.0126 0.074,-0.009 0.073,-0.0054 0.073,-0.0018 h 2.002 l 0.073,0.0018 0.073,0.0054 0.074,0.009 0.072,0.0126 0.072,0.0161 0.071,0.0197 0.07,0.0231 0.068,0.0264 0.068,0.0299 0.065,0.0331 0.064,0.0362 0.063,0.0394 0.06,0.0424 0.058,0.0453 0.056,0.048 0.053,0.0508 0.051,0.0533 0.048,0.0557 0.045,0.058 0.042,0.0602 0.04,0.0622 0.036,0.064 0.033,0.0658 0.03,0.0673 0.026,0.0686 0.023,0.0699 0.02,0.071 0.016,0.0718 0.013,0.0725 0.009,0.073 0.005,0.0734 0.002,0.0736 v 0.001 l -0.002,0.0736 -0.005,0.0734 -0.009,0.073 -0.013,0.0725 -0.016,0.0718 -0.02,0.071 -0.023,0.0699 -0.026,0.0686 -0.03,0.0673 -0.033,0.0658 -0.036,0.064 -0.04,0.0622 -0.042,0.0602 -0.045,0.058 -0.048,0.0557 -0.051,0.0533 -0.053,0.0508 -0.056,0.048 -0.058,0.0453 -0.06,0.0424 -0.063,0.0394 -0.064,0.0362 -0.065,0.0331 -0.068,0.0299 -0.068,0.0264 -0.07,0.0231 -0.071,0.0197 -0.072,0.0161 -0.072,0.0126 -0.074,0.009 -0.073,0.0054 -0.073,0.0018 h -2.002 z"
     id="path1444"
     style="stroke:#ff0000;stroke-opacity:1;fill:none;fill-opacity:1" />
  <path
     d="m 770.5,-233.5 v -3 h 3 l 3.5,-3.5 h -7 v 0.001 l -0.002,0.073 -0.005,0.073 -0.009,0.074 -0.013,0.072 -0.016,0.072 -0.02,0.071 -0.023,0.07 -0.026,0.068 -0.03,0.068 -0.033,0.065 -0.036,0.064 -0.04,0.063 -0.042,0.06 -0.045,0.058 -0.048,0.056 -0.051,0.053 -0.053,0.051 -0.056,0.048 -0.058,0.045 -0.06,0.042 -0.063,0.04 -0.064,0.036 -0.065,0.033 -0.068,0.03 -0.068,0.026 -0.07,0.023 -0.071,0.02 -0.072,0.016 -0.072,0.013 -0.074,0.009 -0.073,0.005 -0.073,0.002 h -2.002 l -0.073,-0.002 -0.073,-0.005 -0.074,-0.009 -0.072,-0.013 -0.072,-0.016 -0.071,-0.02 -0.07,-0.023 -0.068,-0.026 -0.068,-0.03 -0.065,-0.033 -0.064,-0.036 -0.063,-0.04 -0.06,-0.042 -0.058,-0.045 -0.056,-0.048 -0.053,-0.051 -0.051,-0.053 -0.048,-0.056 -0.045,-0.058 -0.042,-0.06 -0.04,-0.063 -0.036,-0.064 -0.033,-0.065 -0.03,-0.068 -0.026,-0.068 -0.023,-0.07 -0.02,-0.071 -0.016,-0.072 -0.013,-0.072 -0.009,-0.074 -0.005,-0.073 -0.002,-0.073 V -240 H 553 v 0.001 l -0.002,0.073 -0.005,0.073 -0.009,0.074 -0.013,0.072 -0.016,0.072 -0.02,0.071 -0.023,0.07 -0.026,0.068 -0.03,0.068 -0.033,0.065 -0.036,0.064 -0.04,0.063 -0.042,0.06 -0.045,0.058 -0.048,0.056 -0.051,0.053 -0.053,0.051 -0.056,0.048 -0.058,0.045 -0.06,0.042 -0.063,0.04 -0.064,0.036 -0.065,0.033 -0.068,0.03 -0.068,0.026 -0.07,0.023 -0.071,0.02 -0.072,0.016 -0.072,0.013 -0.074,0.009 -0.073,0.005 -0.073,0.002 h -2.002 l -0.073,-0.002 -0.073,-0.005 -0.074,-0.009 -0.072,-0.013 -0.072,-0.016 -0.071,-0.02 -0.07,-0.023 -0.068,-0.026 -0.068,-0.03 -0.065,-0.033 -0.064,-0.036 -0.063,-0.04 -0.06,-0.042 -0.058,-0.045 -0.056,-0.048 -0.053,-0.051 -0.051,-0.053 -0.048,-0.056 -0.045,-0.058 -0.042,-0.06 -0.04,-0.063 -0.036,-0.064 -0.033,-0.065 -0.03,-0.068 -0.026,-0.068 -0.023,-0.07 -0.02,-0.071 -0.016,-0.072 -0.013,-0.072 -0.009,-0.074 -0.005,-0.073 -0.002,-0.073 V -240 h -7 l 3.5,3.5 h 3 v 3 l 3.5,3.5 h 216 z"
     id="path1442"
     style="stroke:#ff0000;stroke-opacity:1;fill:none;fill-opacity:1" />
  <path
     d="m 230.5,-233.5 v -3 h 3 l 3.5,-3.5 h -7 v 0.001 l -0.002,0.073 -0.005,0.073 -0.009,0.074 -0.013,0.072 -0.016,0.072 -0.02,0.071 -0.023,0.07 -0.026,0.068 -0.03,0.068 -0.033,0.065 -0.036,0.064 -0.04,0.063 -0.042,0.06 -0.045,0.058 -0.048,0.056 -0.051,0.053 -0.053,0.051 -0.056,0.048 -0.058,0.045 -0.06,0.042 -0.063,0.04 -0.064,0.036 -0.065,0.033 -0.068,0.03 -0.068,0.026 -0.07,0.023 -0.071,0.02 -0.072,0.016 -0.072,0.013 -0.074,0.009 -0.073,0.005 -0.073,0.002 h -2.002 l -0.073,-0.002 -0.073,-0.005 -0.074,-0.009 -0.072,-0.013 -0.072,-0.016 -0.071,-0.02 -0.07,-0.023 -0.068,-0.026 -0.068,-0.03 -0.065,-0.033 -0.064,-0.036 -0.063,-0.04 -0.06,-0.042 -0.058,-0.045 -0.056,-0.048 -0.053,-0.051 -0.051,-0.053 -0.048,-0.056 -0.045,-0.058 -0.042,-0.06 -0.04,-0.063 -0.036,-0.064 -0.033,-0.065 -0.03,-0.068 -0.026,-0.068 -0.023,-0.07 -0.02,-0.071 -0.016,-0.072 -0.013,-0.072 -0.009,-0.074 -0.005,-0.073 -0.002,-0.073 V -240 H 13 v 0.001 l -0.0018,0.073 -0.0054,0.073 -0.009,0.074 -0.0126,0.072 -0.0161,0.072 -0.0197,0.071 -0.0231,0.07 -0.0264,0.068 -0.0299,0.068 -0.0331,0.065 -0.0362,0.064 -0.0394,0.063 -0.0424,0.06 -0.0453,0.058 -0.048,0.056 -0.0508,0.053 -0.0533,0.051 -0.0557,0.048 -0.058,0.045 -0.0602,0.042 -0.0622,0.04 -0.064,0.036 -0.0658,0.033 -0.0673,0.03 -0.0686,0.026 -0.0699,0.023 -0.071,0.02 -0.0718,0.016 -0.0725,0.013 -0.073,0.009 -0.0734,0.005 -0.0736,0.002 h -2.001 l -0.07358,-0.002 -0.0734,-0.005 -0.07304,-0.009 -0.07252,-0.013 -0.07181,-0.016 -0.07093,-0.02 -0.06989,-0.023 -0.06866,-0.026 -0.06729,-0.03 -0.06574,-0.033 -0.06404,-0.036 -0.06218,-0.04 -0.06017,-0.042 -0.05802,-0.045 -0.05573,-0.048 -0.05331,-0.051 -0.05075,-0.053 -0.04807,-0.056 -0.04528,-0.058 -0.04238,-0.06 -0.03937,-0.063 -0.03628,-0.064 -0.03309,-0.065 -0.02983,-0.068 -0.02649,-0.068 -0.02308,-0.07 -0.01963,-0.071 -0.01613,-0.072 -0.01258,-0.072 -0.00901,-0.074 -0.00541,-0.073 L 8,-239.999 V -240 H 1 l 3.5,3.5 h 3 v 3 l 3.5,3.5 h 216 z"
     id="path1440"
     style="stroke:#ff0000;stroke-opacity:1;fill:none;fill-opacity:1" />
  <path
     d="m 762.5,-244.5 h 3 v -3 L 769,-251 H 541 l 3.5,3.5 v 3 h 3 l 3.5,3.5 h 208 z"
     id="path1438"
     style="stroke:#ff0000;stroke-opacity:1;fill:none;fill-opacity:1" />
  <path
     d="m 222.5,-244.5 h 3 v -3 L 229,-251 H 1 l 3.5,3.5 v 3 h 3 l 3.5,3.5 h 208 z"
     id="path1436"
     style="stroke:#ff0000;stroke-opacity:1;fill:none;fill-opacity:1" />
  <path
     d="m 762.5,-255.5 h 3 v -3 L 769,-262 H 541 l 3.5,3.5 v 3 h 3 l 3.5,3.5 h 208 z"
     id="path1434"
     style="stroke:#ff0000;stroke-opacity:1;fill:none;fill-opacity:1" />
  <path
     d="m 222.5,-255.5 h 3 v -3 L 229,-262 H 1 l 3.5,3.5 v 3 h 3 l 3.5,3.5 h 208 z"
     id="path1432"
     style="stroke:#ff0000;stroke-opacity:1;fill:none;fill-opacity:1" />
  <path
     d="m 770.5,-266.5 v -3 h 3 l 3.5,-3.5 -3.5,-3.5 h -3 v -3 L 767,-283 H 551 l -3.5,3.5 v 3 h -3 l -3.5,3.5 3.5,3.5 h 3 v 3 l 3.5,3.5 h 216 z m -221.074,-5.002 -0.073,-0.005 -0.074,-0.009 -0.072,-0.013 -0.072,-0.016 -0.071,-0.02 -0.07,-0.023 -0.068,-0.026 -0.068,-0.03 -0.065,-0.033 -0.064,-0.036 -0.063,-0.04 -0.06,-0.042 -0.058,-0.045 -0.056,-0.048 -0.053,-0.051 -0.051,-0.053 -0.048,-0.056 -0.045,-0.058 -0.042,-0.06 -0.04,-0.063 -0.036,-0.064 -0.033,-0.065 -0.03,-0.068 -0.026,-0.068 -0.023,-0.07 -0.02,-0.071 -0.016,-0.072 -0.013,-0.072 -0.009,-0.074 -0.005,-0.073 -0.002,-0.073 v -0.002 l 0.002,-0.073 0.005,-0.073 0.009,-0.074 0.013,-0.072 0.016,-0.072 0.02,-0.071 0.023,-0.07 0.026,-0.068 0.03,-0.068 0.033,-0.065 0.036,-0.064 0.04,-0.063 0.042,-0.06 0.045,-0.058 0.048,-0.056 0.051,-0.053 0.053,-0.051 0.056,-0.048 0.058,-0.045 0.06,-0.042 0.063,-0.04 0.064,-0.036 0.065,-0.033 0.068,-0.03 0.068,-0.026 0.07,-0.023 0.071,-0.02 0.072,-0.016 0.072,-0.013 0.074,-0.009 0.073,-0.005 0.073,-0.002 h 2.002 l 0.073,0.002 0.073,0.005 0.074,0.009 0.072,0.013 0.072,0.016 0.071,0.02 0.07,0.023 0.068,0.026 0.068,0.03 0.065,0.033 0.064,0.036 0.063,0.04 0.06,0.042 0.058,0.045 0.056,0.048 0.053,0.051 0.051,0.053 0.048,0.056 0.045,0.058 0.042,0.06 0.04,0.063 0.036,0.064 0.033,0.065 0.03,0.068 0.026,0.068 0.023,0.07 0.02,0.071 0.016,0.072 0.013,0.072 0.009,0.074 0.005,0.073 0.002,0.073 v 0.002 l -0.002,0.073 -0.005,0.073 -0.009,0.074 -0.013,0.072 -0.016,0.072 -0.02,0.071 -0.023,0.07 -0.026,0.068 -0.03,0.068 -0.033,0.065 -0.036,0.064 -0.04,0.063 -0.042,0.06 -0.045,0.058 -0.048,0.056 -0.051,0.053 -0.053,0.051 -0.056,0.048 -0.058,0.045 -0.06,0.042 -0.063,0.04 -0.064,0.036 -0.065,0.033 -0.068,0.03 -0.068,0.026 -0.07,0.023 -0.071,0.02 -0.072,0.016 -0.072,0.013 -0.074,0.009 -0.073,0.005 -0.073,0.002 h -2.002 z m 217,0 -0.073,-0.005 -0.074,-0.009 -0.072,-0.013 -0.072,-0.016 -0.071,-0.02 -0.07,-0.023 -0.068,-0.026 -0.068,-0.03 -0.065,-0.033 -0.064,-0.036 -0.063,-0.04 -0.06,-0.042 -0.058,-0.045 -0.056,-0.048 -0.053,-0.051 -0.051,-0.053 -0.048,-0.056 -0.045,-0.058 -0.042,-0.06 -0.04,-0.063 -0.036,-0.064 -0.033,-0.065 -0.03,-0.068 -0.026,-0.068 -0.023,-0.07 -0.02,-0.071 -0.016,-0.072 -0.013,-0.072 -0.009,-0.074 -0.005,-0.073 -0.002,-0.073 v -0.002 l 0.002,-0.073 0.005,-0.073 0.009,-0.074 0.013,-0.072 0.016,-0.072 0.02,-0.071 0.023,-0.07 0.026,-0.068 0.03,-0.068 0.033,-0.065 0.036,-0.064 0.04,-0.063 0.042,-0.06 0.045,-0.058 0.048,-0.056 0.051,-0.053 0.053,-0.051 0.056,-0.048 0.058,-0.045 0.06,-0.042 0.063,-0.04 0.064,-0.036 0.065,-0.033 0.068,-0.03 0.068,-0.026 0.07,-0.023 0.071,-0.02 0.072,-0.016 0.072,-0.013 0.074,-0.009 0.073,-0.005 0.073,-0.002 h 2.002 l 0.073,0.002 0.073,0.005 0.074,0.009 0.072,0.013 0.072,0.016 0.071,0.02 0.07,0.023 0.068,0.026 0.068,0.03 0.065,0.033 0.064,0.036 0.063,0.04 0.06,0.042 0.058,0.045 0.056,0.048 0.053,0.051 0.051,0.053 0.048,0.056 0.045,0.058 0.042,0.06 0.04,0.063 0.036,0.064 0.033,0.065 0.03,0.068 0.026,0.068 0.023,0.07 0.02,0.071 0.016,0.072 0.013,0.072 0.009,0.074 0.005,0.073 0.002,0.073 v 0.002 l -0.002,0.073 -0.005,0.073 -0.009,0.074 -0.013,0.072 -0.016,0.072 -0.02,0.071 -0.023,0.07 -0.026,0.068 -0.03,0.068 -0.033,0.065 -0.036,0.064 -0.04,0.063 -0.042,0.06 -0.045,0.058 -0.048,0.056 -0.051,0.053 -0.053,0.051 -0.056,0.048 -0.058,0.045 -0.06,0.042 -0.063,0.04 -0.064,0.036 -0.065,0.033 -0.068,0.03 -0.068,0.026 -0.07,0.023 -0.071,0.02 -0.072,0.016 -0.072,0.013 -0.074,0.009 -0.073,0.005 -0.073,0.002 h -2.002 z"
     id="path1430"
     style="stroke:#ff0000;stroke-opacity:1;fill:none;fill-opacity:1" />
  <path
     d="m 230.5,-266.5 v -3 h 3 l 3.5,-3.5 -3.5,-3.5 h -3 v -3 L 227,-283 H 11 l -3.5,3.5 v 3 h -3 l -3.5,3.5 3.5,3.5 h 3 v 3 l 3.5,3.5 h 216 z m -221.07408,-5.002 -0.0734,-0.005 -0.07304,-0.009 -0.07252,-0.013 -0.07181,-0.016 -0.07093,-0.02 -0.06989,-0.023 -0.06866,-0.026 -0.06729,-0.03 -0.06574,-0.033 -0.06404,-0.036 -0.06218,-0.04 -0.06017,-0.042 -0.05802,-0.045 -0.05573,-0.048 -0.05331,-0.051 -0.05075,-0.053 -0.04807,-0.056 -0.04528,-0.058 -0.04238,-0.06 -0.03937,-0.063 -0.03628,-0.064 -0.03309,-0.065 -0.02983,-0.068 -0.02649,-0.068 -0.02308,-0.07 -0.01963,-0.071 -0.01613,-0.072 -0.01258,-0.072 -0.00901,-0.074 -0.00541,-0.073 L 8,-272.999 v -0.002 l 0.00181,-0.073 0.00541,-0.073 0.00901,-0.074 0.01258,-0.072 0.01613,-0.072 0.01963,-0.071 0.02308,-0.07 0.02649,-0.068 0.02983,-0.068 0.03309,-0.065 0.03628,-0.064 0.03937,-0.063 0.04238,-0.06 0.04528,-0.058 0.04807,-0.056 0.05075,-0.053 0.05331,-0.051 0.05573,-0.048 0.05802,-0.045 0.06017,-0.042 0.06218,-0.04 0.06404,-0.036 0.06574,-0.033 0.06729,-0.03 0.06866,-0.026 0.06989,-0.023 0.07093,-0.02 0.07181,-0.016 0.07252,-0.013 0.07304,-0.009 0.0734,-0.005 0.07358,-0.002 h 2.001 l 0.0736,0.002 0.0734,0.005 0.073,0.009 0.0725,0.013 0.0718,0.016 0.071,0.02 0.0699,0.023 0.0686,0.026 0.0673,0.03 0.0658,0.033 0.064,0.036 0.0622,0.04 0.0602,0.042 0.058,0.045 0.0557,0.048 0.0533,0.051 0.0508,0.053 0.048,0.056 0.0453,0.058 0.0424,0.06 0.0394,0.063 0.0362,0.064 0.0331,0.065 0.0299,0.068 0.0264,0.068 0.0231,0.07 0.0197,0.071 0.0161,0.072 0.0126,0.072 0.009,0.074 0.0054,0.073 0.0018,0.073 v 0.002 l -0.0018,0.073 -0.0054,0.073 -0.009,0.074 -0.0126,0.072 -0.0161,0.072 -0.0197,0.071 -0.0231,0.07 -0.0264,0.068 -0.0299,0.068 -0.0331,0.065 -0.0362,0.064 -0.0394,0.063 -0.0424,0.06 -0.0453,0.058 -0.048,0.056 -0.0508,0.053 -0.0533,0.051 -0.0557,0.048 -0.058,0.045 -0.0602,0.042 -0.0622,0.04 -0.064,0.036 -0.0658,0.033 -0.0673,0.03 -0.0686,0.026 -0.0699,0.023 -0.071,0.02 -0.0718,0.016 -0.0725,0.013 -0.073,0.009 -0.0734,0.005 -0.0736,0.002 h -2.001 z m 217.00008,0 -0.073,-0.005 -0.074,-0.009 -0.072,-0.013 -0.072,-0.016 -0.071,-0.02 -0.07,-0.023 -0.068,-0.026 -0.068,-0.03 -0.065,-0.033 -0.064,-0.036 -0.063,-0.04 -0.06,-0.042 -0.058,-0.045 -0.056,-0.048 -0.053,-0.051 -0.051,-0.053 -0.048,-0.056 -0.045,-0.058 -0.042,-0.06 -0.04,-0.063 -0.036,-0.064 -0.033,-0.065 -0.03,-0.068 -0.026,-0.068 -0.023,-0.07 -0.02,-0.071 -0.016,-0.072 -0.013,-0.072 -0.009,-0.074 -0.005,-0.073 -0.002,-0.073 v -0.002 l 0.002,-0.073 0.005,-0.073 0.009,-0.074 0.013,-0.072 0.016,-0.072 0.02,-0.071 0.023,-0.07 0.026,-0.068 0.03,-0.068 0.033,-0.065 0.036,-0.064 0.04,-0.063 0.042,-0.06 0.045,-0.058 0.048,-0.056 0.051,-0.053 0.053,-0.051 0.056,-0.048 0.058,-0.045 0.06,-0.042 0.063,-0.04 0.064,-0.036 0.065,-0.033 0.068,-0.03 0.068,-0.026 0.07,-0.023 0.071,-0.02 0.072,-0.016 0.072,-0.013 0.074,-0.009 0.073,-0.005 0.073,-0.002 h 2.002 l 0.073,0.002 0.073,0.005 0.074,0.009 0.072,0.013 0.072,0.016 0.071,0.02 0.07,0.023 0.068,0.026 0.068,0.03 0.065,0.033 0.064,0.036 0.063,0.04 0.06,0.042 0.058,0.045 0.056,0.048 0.053,0.051 0.051,0.053 0.048,0.056 0.045,0.058 0.042,0.06 0.04,0.063 0.036,0.064 0.033,0.065 0.03,0.068 0.026,0.068 0.023,0.07 0.02,0.071 0.016,0.072 0.013,0.072 0.009,0.074 0.005,0.073 0.002,0.073 v 0.002 l -0.002,0.073 -0.005,0.073 -0.009,0.074 -0.013,0.072 -0.016,0.072 -0.02,0.071 -0.023,0.07 -0.026,0.068 -0.03,0.068 -0.033,0.065 -0.036,0.064 -0.04,0.063 -0.042,0.06 -0.045,0.058 -0.048,0.056 -0.051,0.053 -0.053,0.051 -0.056,0.048 -0.058,0.045 -0.06,0.042 -0.063,0.04 -0.064,0.036 -0.065,0.033 -0.068,0.03 -0.068,0.026 -0.07,0.023 -0.071,0.02 -0.072,0.016 -0.072,0.013 -0.074,0.009 -0.073,0.005 -0.073,0.002 h -2.002 z"
     id="path1428"
     style="stroke:#ff0000;stroke-opacity:1;fill:none;fill-opacity:1" />
  <path
     d="m 533.5,-478.5 v -3 h 3 l 3.5,-3.5 h -11 v 10e-4 l -0.002,0.073 -0.005,0.073 -0.009,0.074 -0.013,0.072 -0.016,0.072 -0.02,0.071 -0.023,0.07 -0.026,0.068 -0.03,0.068 -0.033,0.065 -0.036,0.064 -0.04,0.063 -0.042,0.06 -0.045,0.058 -0.048,0.056 -0.051,0.053 -0.053,0.051 -0.056,0.048 -0.058,0.045 -0.06,0.042 -0.063,0.04 -0.064,0.036 -0.065,0.033 -0.068,0.03 -0.068,0.026 -0.07,0.023 -0.071,0.02 -0.072,0.016 -0.072,0.013 -0.074,0.009 -0.073,0.005 -0.073,0.002 h -2.002 l -0.073,-0.002 -0.073,-0.005 -0.074,-0.009 -0.072,-0.013 -0.072,-0.016 -0.071,-0.02 -0.07,-0.023 -0.068,-0.026 -0.068,-0.03 -0.065,-0.033 -0.064,-0.036 -0.063,-0.04 -0.06,-0.042 -0.058,-0.045 -0.056,-0.048 -0.053,-0.051 -0.051,-0.053 -0.048,-0.056 -0.045,-0.058 -0.042,-0.06 -0.04,-0.063 -0.036,-0.064 -0.033,-0.065 -0.03,-0.068 -0.026,-0.068 -0.023,-0.07 -0.02,-0.071 -0.016,-0.072 -0.013,-0.072 -0.009,-0.074 -0.005,-0.073 -0.002,-0.073 V -485 H 262 v 10e-4 l -0.002,0.073 -0.005,0.073 -0.009,0.074 -0.013,0.072 -0.016,0.072 -0.02,0.071 -0.023,0.07 -0.026,0.068 -0.03,0.068 -0.033,0.065 -0.036,0.064 -0.04,0.063 -0.042,0.06 -0.045,0.058 -0.048,0.056 -0.051,0.053 -0.053,0.051 -0.056,0.048 -0.058,0.045 -0.06,0.042 -0.063,0.04 -0.064,0.036 -0.065,0.033 -0.068,0.03 -0.068,0.026 -0.07,0.023 -0.071,0.02 -0.072,0.016 -0.072,0.013 -0.074,0.009 -0.073,0.005 -0.073,0.002 h -2.002 l -0.073,-0.002 -0.073,-0.005 -0.074,-0.009 -0.072,-0.013 -0.072,-0.016 -0.071,-0.02 -0.07,-0.023 -0.068,-0.026 -0.068,-0.03 -0.065,-0.033 -0.064,-0.036 -0.063,-0.04 -0.06,-0.042 -0.058,-0.045 -0.056,-0.048 -0.053,-0.051 -0.051,-0.053 -0.048,-0.056 -0.045,-0.058 -0.042,-0.06 -0.04,-0.063 -0.036,-0.064 -0.033,-0.065 -0.03,-0.068 -0.026,-0.068 -0.023,-0.07 -0.02,-0.071 -0.016,-0.072 -0.013,-0.072 -0.009,-0.074 -0.005,-0.073 -0.002,-0.073 V -485 h -11 l 3.5,3.5 h 3 v 3 l 3.5,3.5 h 274 z"
     id="path1426"
     style="stroke:#ff0000;stroke-opacity:1;fill:none;fill-opacity:1" />
  <path
     d="m 467.5,-489.5 h 3 v -3 L 474,-496 H 246 l 3.5,3.5 v 3 h 3 l 3.5,3.5 h 208 z"
     id="path1424"
     style="stroke:#ff0000;stroke-opacity:1;fill:none;fill-opacity:1" />
  <path
     d="m 467.5,-500.5 h 3 v -3 L 474,-507 H 246 l 3.5,3.5 v 3 h 3 l 3.5,3.5 h 208 z"
     id="path1422"
     style="stroke:#ff0000;stroke-opacity:1;fill:none;fill-opacity:1" />
  <path
     d="m 533.5,-511.5 v -3 h 3 l 3.5,-3.5 -3.5,-3.5 h -3 v -3 L 530,-528 H 256 l -3.5,3.5 v 3 h -3 l -3.5,3.5 3.5,3.5 h 3 v 3 l 3.5,3.5 h 274 z m -275.074,-5.002 -0.073,-0.005 -0.074,-0.009 -0.072,-0.013 -0.072,-0.016 -0.071,-0.02 -0.07,-0.023 -0.068,-0.026 -0.068,-0.03 -0.065,-0.033 -0.064,-0.036 -0.063,-0.04 -0.06,-0.042 -0.058,-0.045 -0.056,-0.048 -0.053,-0.051 -0.051,-0.053 -0.048,-0.056 -0.045,-0.058 -0.042,-0.06 -0.04,-0.063 -0.036,-0.064 -0.033,-0.065 -0.03,-0.068 -0.026,-0.068 -0.023,-0.07 -0.02,-0.071 -0.016,-0.072 -0.013,-0.072 -0.009,-0.074 -0.005,-0.073 -0.002,-0.073 v -0.002 l 0.002,-0.073 0.005,-0.073 0.009,-0.074 0.013,-0.072 0.016,-0.072 0.02,-0.071 0.023,-0.07 0.026,-0.068 0.03,-0.068 0.033,-0.065 0.036,-0.064 0.04,-0.063 0.042,-0.06 0.045,-0.058 0.048,-0.056 0.051,-0.053 0.053,-0.051 0.056,-0.048 0.058,-0.045 0.06,-0.042 0.063,-0.04 0.064,-0.036 0.065,-0.033 0.068,-0.03 0.068,-0.026 0.07,-0.023 0.071,-0.02 0.072,-0.016 0.072,-0.013 0.074,-0.009 0.073,-0.005 0.073,-0.002 h 2.002 l 0.073,0.002 0.073,0.005 0.074,0.009 0.072,0.013 0.072,0.016 0.071,0.02 0.07,0.023 0.068,0.026 0.068,0.03 0.065,0.033 0.064,0.036 0.063,0.04 0.06,0.042 0.058,0.045 0.056,0.048 0.053,0.051 0.051,0.053 0.048,0.056 0.045,0.058 0.042,0.06 0.04,0.063 0.036,0.064 0.033,0.065 0.03,0.068 0.026,0.068 0.023,0.07 0.02,0.071 0.016,0.072 0.013,0.072 0.009,0.074 0.005,0.073 0.002,0.073 v 0.002 l -0.002,0.073 -0.005,0.073 -0.009,0.074 -0.013,0.072 -0.016,0.072 -0.02,0.071 -0.023,0.07 -0.026,0.068 -0.03,0.068 -0.033,0.065 -0.036,0.064 -0.04,0.063 -0.042,0.06 -0.045,0.058 -0.048,0.056 -0.051,0.053 -0.053,0.051 -0.056,0.048 -0.058,0.045 -0.06,0.042 -0.063,0.04 -0.064,0.036 -0.065,0.033 -0.068,0.03 -0.068,0.026 -0.07,0.023 -0.071,0.02 -0.072,0.016 -0.072,0.013 -0.074,0.009 -0.073,0.005 -0.073,0.002 h -2.002 z m 267,0 -0.073,-0.005 -0.074,-0.009 -0.072,-0.013 -0.072,-0.016 -0.071,-0.02 -0.07,-0.023 -0.068,-0.026 -0.068,-0.03 -0.065,-0.033 -0.064,-0.036 -0.063,-0.04 -0.06,-0.042 -0.058,-0.045 -0.056,-0.048 -0.053,-0.051 -0.051,-0.053 -0.048,-0.056 -0.045,-0.058 -0.042,-0.06 -0.04,-0.063 -0.036,-0.064 -0.033,-0.065 -0.03,-0.068 -0.026,-0.068 -0.023,-0.07 -0.02,-0.071 -0.016,-0.072 -0.013,-0.072 -0.009,-0.074 -0.005,-0.073 -0.002,-0.073 v -0.002 l 0.002,-0.073 0.005,-0.073 0.009,-0.074 0.013,-0.072 0.016,-0.072 0.02,-0.071 0.023,-0.07 0.026,-0.068 0.03,-0.068 0.033,-0.065 0.036,-0.064 0.04,-0.063 0.042,-0.06 0.045,-0.058 0.048,-0.056 0.051,-0.053 0.053,-0.051 0.056,-0.048 0.058,-0.045 0.06,-0.042 0.063,-0.04 0.064,-0.036 0.065,-0.033 0.068,-0.03 0.068,-0.026 0.07,-0.023 0.071,-0.02 0.072,-0.016 0.072,-0.013 0.074,-0.009 0.073,-0.005 0.073,-0.002 h 2.002 l 0.073,0.002 0.073,0.005 0.074,0.009 0.072,0.013 0.072,0.016 0.071,0.02 0.07,0.023 0.068,0.026 0.068,0.03 0.065,0.033 0.064,0.036 0.063,0.04 0.06,0.042 0.058,0.045 0.056,0.048 0.053,0.051 0.051,0.053 0.048,0.056 0.045,0.058 0.042,0.06 0.04,0.063 0.036,0.064 0.033,0.065 0.03,0.068 0.026,0.068 0.023,0.07 0.02,0.071 0.016,0.072 0.013,0.072 0.009,0.074 0.005,0.073 0.002,0.073 v 0.002 l -0.002,0.073 -0.005,0.073 -0.009,0.074 -0.013,0.072 -0.016,0.072 -0.02,0.071 -0.023,0.07 -0.026,0.068 -0.03,0.068 -0.033,0.065 -0.036,0.064 -0.04,0.063 -0.042,0.06 -0.045,0.058 -0.048,0.056 -0.051,0.053 -0.053,0.051 -0.056,0.048 -0.058,0.045 -0.06,0.042 -0.063,0.04 -0.064,0.036 -0.065,0.033 -0.068,0.03 -0.068,0.026 -0.07,0.023 -0.071,0.02 -0.072,0.016 -0.072,0.013 -0.074,0.009 -0.073,0.005 -0.073,0.002 h -2.002 z"
     id="path1420"
     style="stroke:#ff0000;stroke-opacity:1;fill:none;fill-opacity:1" />
  <path
     d="m 467.5,-964.5 h 3 v -3 L 474,-971 H 246 l 3.5,3.5 v 3 h 3 l 3.5,3.5 h 208 z"
     id="path1418"
     style="stroke:#ff0000;stroke-opacity:1;fill:none;fill-opacity:1" />
  <path
     d="m 467.5,-975.5 h 3 v -3 L 474,-982 H 246 l 3.5,3.5 v 3 h 3 l 3.5,3.5 h 208 z"
     id="path1416"
     style="stroke:#ff0000;stroke-opacity:1;fill:none;fill-opacity:1" />
  <path
     d="m 533.5,-986.5 v -3 h 3 l 3.5,-3.5 -3.5,-3.5 h -3 v -3 L 530,-1003 H 256 l -3.5,3.5 v 3 h -3 l -3.5,3.5 3.5,3.5 h 3 v 3 l 3.5,3.5 h 274 z m -275.074,-5.002 -0.073,-0.005 -0.074,-0.009 -0.072,-0.013 -0.072,-0.016 -0.071,-0.02 -0.07,-0.023 -0.068,-0.026 -0.068,-0.03 -0.065,-0.033 -0.064,-0.036 -0.063,-0.04 -0.06,-0.042 -0.058,-0.045 -0.056,-0.048 -0.053,-0.051 -0.051,-0.053 -0.048,-0.056 -0.045,-0.058 -0.042,-0.06 -0.04,-0.063 -0.036,-0.064 -0.033,-0.065 -0.03,-0.068 -0.026,-0.068 -0.023,-0.07 -0.02,-0.071 -0.016,-0.072 -0.013,-0.072 -0.009,-0.074 -0.005,-0.073 -0.002,-0.073 v -0.002 l 0.002,-0.073 0.005,-0.073 0.009,-0.074 0.013,-0.072 0.016,-0.072 0.02,-0.071 0.023,-0.07 0.026,-0.068 0.03,-0.068 0.033,-0.065 0.036,-0.064 0.04,-0.063 0.042,-0.06 0.045,-0.058 0.048,-0.056 0.051,-0.053 0.053,-0.051 0.056,-0.048 0.058,-0.045 0.06,-0.042 0.063,-0.04 0.064,-0.036 0.065,-0.033 0.068,-0.03 0.068,-0.026 0.07,-0.023 0.071,-0.02 0.072,-0.016 0.072,-0.013 0.074,-0.009 0.073,-0.005 0.073,-0.002 h 2.002 l 0.073,0.002 0.073,0.005 0.074,0.009 0.072,0.013 0.072,0.016 0.071,0.02 0.07,0.023 0.068,0.026 0.068,0.03 0.065,0.033 0.064,0.036 0.063,0.04 0.06,0.042 0.058,0.045 0.056,0.048 0.053,0.051 0.051,0.053 0.048,0.056 0.045,0.058 0.042,0.06 0.04,0.063 0.036,0.064 0.033,0.065 0.03,0.068 0.026,0.068 0.023,0.07 0.02,0.071 0.016,0.072 0.013,0.072 0.009,0.074 0.005,0.073 0.002,0.073 v 0.002 l -0.002,0.073 -0.005,0.073 -0.009,0.074 -0.013,0.072 -0.016,0.072 -0.02,0.071 -0.023,0.07 -0.026,0.068 -0.03,0.068 -0.033,0.065 -0.036,0.064 -0.04,0.063 -0.042,0.06 -0.045,0.058 -0.048,0.056 -0.051,0.053 -0.053,0.051 -0.056,0.048 -0.058,0.045 -0.06,0.042 -0.063,0.04 -0.064,0.036 -0.065,0.033 -0.068,0.03 -0.068,0.026 -0.07,0.023 -0.071,0.02 -0.072,0.016 -0.072,0.013 -0.074,0.009 -0.073,0.005 -0.073,0.002 h -2.002 z m 267,0 -0.073,-0.005 -0.074,-0.009 -0.072,-0.013 -0.072,-0.016 -0.071,-0.02 -0.07,-0.023 -0.068,-0.026 -0.068,-0.03 -0.065,-0.033 -0.064,-0.036 -0.063,-0.04 -0.06,-0.042 -0.058,-0.045 -0.056,-0.048 -0.053,-0.051 -0.051,-0.053 -0.048,-0.056 -0.045,-0.058 -0.042,-0.06 -0.04,-0.063 -0.036,-0.064 -0.033,-0.065 -0.03,-0.068 -0.026,-0.068 -0.023,-0.07 -0.02,-0.071 -0.016,-0.072 -0.013,-0.072 -0.009,-0.074 -0.005,-0.073 -0.002,-0.073 v -0.002 l 0.002,-0.073 0.005,-0.073 0.009,-0.074 0.013,-0.072 0.016,-0.072 0.02,-0.071 0.023,-0.07 0.026,-0.068 0.03,-0.068 0.033,-0.065 0.036,-0.064 0.04,-0.063 0.042,-0.06 0.045,-0.058 0.048,-0.056 0.051,-0.053 0.053,-0.051 0.056,-0.048 0.058,-0.045 0.06,-0.042 0.063,-0.04 0.064,-0.036 0.065,-0.033 0.068,-0.03 0.068,-0.026 0.07,-0.023 0.071,-0.02 0.072,-0.016 0.072,-0.013 0.074,-0.009 0.073,-0.005 0.073,-0.002 h 2.002 l 0.073,0.002 0.073,0.005 0.074,0.009 0.072,0.013 0.072,0.016 0.071,0.02 0.07,0.023 0.068,0.026 0.068,0.03 0.065,0.033 0.064,0.036 0.063,0.04 0.06,0.042 0.058,0.045 0.056,0.048 0.053,0.051 0.051,0.053 0.048,0.056 0.045,0.058 0.042,0.06 0.04,0.063 0.036,0.064 0.033,0.065 0.03,0.068 0.026,0.068 0.023,0.07 0.02,0.071 0.016,0.072 0.013,0.072 0.009,0.074 0.005,0.073 0.002,0.073 v 0.002 l -0.002,0.073 -0.005,0.073 -0.009,0.074 -0.013,0.072 -0.016,0.072 -0.02,0.071 -0.023,0.07 -0.026,0.068 -0.03,0.068 -0.033,0.065 -0.036,0.064 -0.04,0.063 -0.042,0.06 -0.045,0.058 -0.048,0.056 -0.051,0.053 -0.053,0.051 -0.056,0.048 -0.058,0.045 -0.06,0.042 -0.063,0.04 -0.064,0.036 -0.065,0.033 -0.068,0.03 -0.068,0.026 -0.07,0.023 -0.071,0.02 -0.072,0.016 -0.072,0.013 -0.074,0.009 -0.073,0.005 -0.073,0.002 h -2.002 z"
     id="path1414"
     style="stroke:#ff0000;stroke-opacity:1;fill:none;fill-opacity:1" />
  <path
     d="m 762.5,-1193.5 h 3 v -3 l 3.5,-3.5 H 541 l 3.5,3.5 v 3 h 3 l 3.5,3.5 h 208 z"
     id="path1412"
     style="stroke:#ff0000;stroke-opacity:1;fill:none;fill-opacity:1" />
  <path
     d="m 222.5,-1193.5 h 3 v -3 l 3.5,-3.5 H 1 l 3.5,3.5 v 3 h 3 l 3.5,3.5 h 208 z"
     id="path1410"
     style="stroke:#ff0000;stroke-opacity:1;fill:none;fill-opacity:1" />
  <path
     d="m 762.5,-1204.5 h 3 v -3 l 3.5,-3.5 H 541 l 3.5,3.5 v 3 h 3 l 3.5,3.5 h 208 z"
     id="path1408"
     style="stroke:#ff0000;stroke-opacity:1;fill:none;fill-opacity:1" />
  <path
     d="m 222.5,-1204.5 h 3 v -3 l 3.5,-3.5 H 1 l 3.5,3.5 v 3 h 3 l 3.5,3.5 h 208 z"
     id="path1406"
     style="stroke:#ff0000;stroke-opacity:1;fill:none;fill-opacity:1" />
  <path
     d="m 770.5,-1215.5 v -3 h 3 l 3.5,-3.5 -3.5,-3.5 h -3 v -3 L 767,-1232 H 551 l -3.5,3.5 v 3 h -3 l -3.5,3.5 3.5,3.5 h 3 v 3 l 3.5,3.5 h 216 z m -221.074,-5 -0.073,-0.01 -0.074,-0.01 -0.072,-0.01 -0.072,-0.01 -0.071,-0.02 -0.07,-0.03 -0.068,-0.02 -0.068,-0.03 -0.065,-0.04 -0.064,-0.03 -0.063,-0.04 -0.06,-0.05 -0.058,-0.04 -0.056,-0.05 -0.053,-0.05 -0.051,-0.05 -0.048,-0.06 -0.045,-0.06 -0.042,-0.06 -0.04,-0.06 -0.036,-0.06 -0.033,-0.07 -0.03,-0.07 -0.026,-0.06 -0.023,-0.07 -0.02,-0.08 -0.016,-0.07 -0.013,-0.07 -0.009,-0.07 -0.005,-0.08 L 548,-1222 v 0 l 0.002,-0.07 0.005,-0.08 0.009,-0.07 0.013,-0.07 0.016,-0.07 0.02,-0.08 0.023,-0.07 0.026,-0.06 0.03,-0.07 0.033,-0.07 0.036,-0.06 0.04,-0.06 0.042,-0.06 0.045,-0.06 0.048,-0.06 0.051,-0.05 0.053,-0.05 0.056,-0.05 0.058,-0.04 0.06,-0.05 0.063,-0.04 0.064,-0.03 0.065,-0.04 0.068,-0.03 0.068,-0.02 0.07,-0.03 0.071,-0.02 0.072,-0.01 0.072,-0.01 0.074,-0.01 0.073,-0.01 h 0.073 2.002 0.073 l 0.073,0.01 0.074,0.01 0.072,0.01 0.072,0.01 0.071,0.02 0.07,0.03 0.068,0.02 0.068,0.03 0.065,0.04 0.064,0.03 0.063,0.04 0.06,0.05 0.058,0.04 0.056,0.05 0.053,0.05 0.051,0.05 0.048,0.06 0.045,0.06 0.042,0.06 0.04,0.06 0.036,0.06 0.033,0.07 0.03,0.07 0.026,0.06 0.023,0.07 0.02,0.08 0.016,0.07 0.013,0.07 0.009,0.07 0.005,0.08 0.002,0.07 v 0 l -0.002,0.07 -0.005,0.08 -0.009,0.07 -0.013,0.07 -0.016,0.07 -0.02,0.08 -0.023,0.07 -0.026,0.06 -0.03,0.07 -0.033,0.07 -0.036,0.06 -0.04,0.06 -0.042,0.06 -0.045,0.06 -0.048,0.06 -0.051,0.05 -0.053,0.05 -0.056,0.05 -0.058,0.04 -0.06,0.05 -0.063,0.04 -0.064,0.03 -0.065,0.04 -0.068,0.03 -0.068,0.02 -0.07,0.03 -0.071,0.02 -0.072,0.01 -0.072,0.01 -0.074,0.01 -0.073,0.01 h -0.073 -2.002 z m 217,0 -0.073,-0.01 -0.074,-0.01 -0.072,-0.01 -0.072,-0.01 -0.071,-0.02 -0.07,-0.03 -0.068,-0.02 -0.068,-0.03 -0.065,-0.04 -0.064,-0.03 -0.063,-0.04 -0.06,-0.05 -0.058,-0.04 -0.056,-0.05 -0.053,-0.05 -0.051,-0.05 -0.048,-0.06 -0.045,-0.06 -0.042,-0.06 -0.04,-0.06 -0.036,-0.06 -0.033,-0.07 -0.03,-0.07 -0.026,-0.06 -0.023,-0.07 -0.02,-0.08 -0.016,-0.07 -0.013,-0.07 -0.009,-0.07 -0.005,-0.08 L 765,-1222 v 0 l 0.002,-0.07 0.005,-0.08 0.009,-0.07 0.013,-0.07 0.016,-0.07 0.02,-0.08 0.023,-0.07 0.026,-0.06 0.03,-0.07 0.033,-0.07 0.036,-0.06 0.04,-0.06 0.042,-0.06 0.045,-0.06 0.048,-0.06 0.051,-0.05 0.053,-0.05 0.056,-0.05 0.058,-0.04 0.06,-0.05 0.063,-0.04 0.064,-0.03 0.065,-0.04 0.068,-0.03 0.068,-0.02 0.07,-0.03 0.071,-0.02 0.072,-0.01 0.072,-0.01 0.074,-0.01 0.073,-0.01 h 0.073 2.002 0.073 l 0.073,0.01 0.074,0.01 0.072,0.01 0.072,0.01 0.071,0.02 0.07,0.03 0.068,0.02 0.068,0.03 0.065,0.04 0.064,0.03 0.063,0.04 0.06,0.05 0.058,0.04 0.056,0.05 0.053,0.05 0.051,0.05 0.048,0.06 0.045,0.06 0.042,0.06 0.04,0.06 0.036,0.06 0.033,0.07 0.03,0.07 0.026,0.06 0.023,0.07 0.02,0.08 0.016,0.07 0.013,0.07 0.009,0.07 0.005,0.08 0.002,0.07 v 0 l -0.002,0.07 -0.005,0.08 -0.009,0.07 -0.013,0.07 -0.016,0.07 -0.02,0.08 -0.023,0.07 -0.026,0.06 -0.03,0.07 -0.033,0.07 -0.036,0.06 -0.04,0.06 -0.042,0.06 -0.045,0.06 -0.048,0.06 -0.051,0.05 -0.053,0.05 -0.056,0.05 -0.058,0.04 -0.06,0.05 -0.063,0.04 -0.064,0.03 -0.065,0.04 -0.068,0.03 -0.068,0.02 -0.07,0.03 -0.071,0.02 -0.072,0.01 -0.072,0.01 -0.074,0.01 -0.073,0.01 h -0.073 -2.002 z"
     id="path1404"
     style="stroke:#ff0000;stroke-opacity:1;fill:none;fill-opacity:1" />
  <path
     d="m 230.5,-1215.5 v -3 h 3 l 3.5,-3.5 -3.5,-3.5 h -3 v -3 L 227,-1232 H 11 l -3.5,3.5 v 3 h -3 l -3.5,3.5 3.5,3.5 h 3 v 3 l 3.5,3.5 h 216 z m -221.07408,-5 -0.0734,-0.01 -0.07304,-0.01 -0.07252,-0.01 -0.07181,-0.01 -0.07093,-0.02 -0.06989,-0.03 -0.06866,-0.02 -0.06729,-0.03 -0.06574,-0.04 -0.06404,-0.03 -0.06218,-0.04 -0.06017,-0.05 -0.05802,-0.04 -0.05573,-0.05 -0.05331,-0.05 -0.05075,-0.05 -0.04807,-0.06 -0.04528,-0.06 -0.04238,-0.06 -0.03937,-0.06 -0.03628,-0.06 -0.03309,-0.07 -0.02983,-0.07 -0.02649,-0.06 -0.02308,-0.07 -0.01963,-0.08 -0.01613,-0.07 -0.01258,-0.07 -0.00901,-0.07 -0.00541,-0.08 L 8,-1222 v 0 l 0.00181,-0.07 0.00541,-0.08 0.00901,-0.07 0.01258,-0.07 0.01613,-0.07 0.01963,-0.08 0.02308,-0.07 0.02649,-0.06 0.02983,-0.07 0.03309,-0.07 0.03628,-0.06 0.03937,-0.06 0.04238,-0.06 0.04528,-0.06 0.04807,-0.06 0.05075,-0.05 0.05331,-0.05 0.05573,-0.05 0.05802,-0.04 0.06017,-0.05 0.06218,-0.04 0.06404,-0.03 0.06574,-0.04 0.06729,-0.03 0.06866,-0.02 0.06989,-0.03 0.07093,-0.02 0.07181,-0.01 0.07252,-0.01 0.07304,-0.01 0.0734,-0.01 h 0.07358 2.001 0.0736 l 0.0734,0.01 0.073,0.01 0.0725,0.01 0.0718,0.01 0.071,0.02 0.0699,0.03 0.0686,0.02 0.0673,0.03 0.0658,0.04 0.064,0.03 0.0622,0.04 0.0602,0.05 0.058,0.04 0.0557,0.05 0.0533,0.05 0.0508,0.05 0.048,0.06 0.0453,0.06 0.0424,0.06 0.0394,0.06 0.0362,0.06 0.0331,0.07 0.0299,0.07 0.0264,0.06 0.0231,0.07 0.0197,0.08 0.0161,0.07 0.0126,0.07 0.009,0.07 0.0054,0.08 L 13,-1222 v 0 l -0.0018,0.07 -0.0054,0.08 -0.009,0.07 -0.0126,0.07 -0.0161,0.07 -0.0197,0.08 -0.0231,0.07 -0.0264,0.06 -0.0299,0.07 -0.0331,0.07 -0.0362,0.06 -0.0394,0.06 -0.0424,0.06 -0.0453,0.06 -0.048,0.06 -0.0508,0.05 -0.0533,0.05 -0.0557,0.05 -0.058,0.04 -0.0602,0.05 -0.0622,0.04 -0.064,0.03 -0.0658,0.04 -0.0673,0.03 -0.0686,0.02 -0.0699,0.03 -0.071,0.02 -0.0718,0.01 -0.0725,0.01 -0.073,0.01 -0.0734,0.01 h -0.0736 -2.001 z m 217.00008,0 -0.073,-0.01 -0.074,-0.01 -0.072,-0.01 -0.072,-0.01 -0.071,-0.02 -0.07,-0.03 -0.068,-0.02 -0.068,-0.03 -0.065,-0.04 -0.064,-0.03 -0.063,-0.04 -0.06,-0.05 -0.058,-0.04 -0.056,-0.05 -0.053,-0.05 -0.051,-0.05 -0.048,-0.06 -0.045,-0.06 -0.042,-0.06 -0.04,-0.06 -0.036,-0.06 -0.033,-0.07 -0.03,-0.07 -0.026,-0.06 -0.023,-0.07 -0.02,-0.08 -0.016,-0.07 -0.013,-0.07 -0.009,-0.07 -0.005,-0.08 L 225,-1222 v 0 l 0.002,-0.07 0.005,-0.08 0.009,-0.07 0.013,-0.07 0.016,-0.07 0.02,-0.08 0.023,-0.07 0.026,-0.06 0.03,-0.07 0.033,-0.07 0.036,-0.06 0.04,-0.06 0.042,-0.06 0.045,-0.06 0.048,-0.06 0.051,-0.05 0.053,-0.05 0.056,-0.05 0.058,-0.04 0.06,-0.05 0.063,-0.04 0.064,-0.03 0.065,-0.04 0.068,-0.03 0.068,-0.02 0.07,-0.03 0.071,-0.02 0.072,-0.01 0.072,-0.01 0.074,-0.01 0.073,-0.01 h 0.073 2.002 0.073 l 0.073,0.01 0.074,0.01 0.072,0.01 0.072,0.01 0.071,0.02 0.07,0.03 0.068,0.02 0.068,0.03 0.065,0.04 0.064,0.03 0.063,0.04 0.06,0.05 0.058,0.04 0.056,0.05 0.053,0.05 0.051,0.05 0.048,0.06 0.045,0.06 0.042,0.06 0.04,0.06 0.036,0.06 0.033,0.07 0.03,0.07 0.026,0.06 0.023,0.07 0.02,0.08 0.016,0.07 0.013,0.07 0.009,0.07 0.005,0.08 0.002,0.07 v 0 l -0.002,0.07 -0.005,0.08 -0.009,0.07 -0.013,0.07 -0.016,0.07 -0.02,0.08 -0.023,0.07 -0.026,0.06 -0.03,0.07 -0.033,0.07 -0.036,0.06 -0.04,0.06 -0.042,0.06 -0.045,0.06 -0.048,0.06 -0.051,0.05 -0.053,0.05 -0.056,0.05 -0.058,0.04 -0.06,0.05 -0.063,0.04 -0.064,0.03 -0.065,0.04 -0.068,0.03 -0.068,0.02 -0.07,0.03 -0.071,0.02 -0.072,0.01 -0.072,0.01 -0.074,0.01 -0.073,0.01 h -0.073 -2.002 z"
     id="path1402"
     style="stroke:#ff0000;stroke-opacity:1;fill:none;fill-opacity:1" />
  <path
     d="m 467.5,-1438.5 h 3 v -3 l 3.5,-3.5 H 246 l 3.5,3.5 v 3 h 3 l 3.5,3.5 h 208 z"
     id="path1400"
     style="stroke:#ff0000;stroke-opacity:1;fill:none;fill-opacity:1" />
  <path
     d="m 467.5,-1449.5 h 3 v -3 l 3.5,-3.5 H 246 l 3.5,3.5 v 3 h 3 l 3.5,3.5 h 208 z"
     id="path1398"
     style="stroke:#ff0000;stroke-opacity:1;fill:none;fill-opacity:1" />
  <path
     d="m 533.5,-1460.5 v -3 h 3 l 3.5,-3.5 -3.5,-3.5 h -3 v -3 L 530,-1477 H 256 l -3.5,3.5 v 3 h -3 l -3.5,3.5 3.5,3.5 h 3 v 3 l 3.5,3.5 h 274 z m -275.074,-5 -0.073,-0.01 -0.074,-0.01 -0.072,-0.01 -0.072,-0.01 -0.071,-0.02 -0.07,-0.03 -0.068,-0.02 -0.068,-0.03 -0.065,-0.04 -0.064,-0.03 -0.063,-0.04 -0.06,-0.05 -0.058,-0.04 -0.056,-0.05 -0.053,-0.05 -0.051,-0.05 -0.048,-0.06 -0.045,-0.06 -0.042,-0.06 -0.04,-0.06 -0.036,-0.06 -0.033,-0.07 -0.03,-0.07 -0.026,-0.06 -0.023,-0.07 -0.02,-0.08 -0.016,-0.07 -0.013,-0.07 -0.009,-0.07 -0.005,-0.08 L 257,-1467 v 0 l 0.002,-0.07 0.005,-0.08 0.009,-0.07 0.013,-0.07 0.016,-0.07 0.02,-0.08 0.023,-0.07 0.026,-0.06 0.03,-0.07 0.033,-0.07 0.036,-0.06 0.04,-0.06 0.042,-0.06 0.045,-0.06 0.048,-0.06 0.051,-0.05 0.053,-0.05 0.056,-0.05 0.058,-0.04 0.06,-0.05 0.063,-0.04 0.064,-0.03 0.065,-0.04 0.068,-0.03 0.068,-0.02 0.07,-0.03 0.071,-0.02 0.072,-0.01 0.072,-0.01 0.074,-0.01 0.073,-0.01 h 0.073 2.002 0.073 l 0.073,0.01 0.074,0.01 0.072,0.01 0.072,0.01 0.071,0.02 0.07,0.03 0.068,0.02 0.068,0.03 0.065,0.04 0.064,0.03 0.063,0.04 0.06,0.05 0.058,0.04 0.056,0.05 0.053,0.05 0.051,0.05 0.048,0.06 0.045,0.06 0.042,0.06 0.04,0.06 0.036,0.06 0.033,0.07 0.03,0.07 0.026,0.06 0.023,0.07 0.02,0.08 0.016,0.07 0.013,0.07 0.009,0.07 0.005,0.08 0.002,0.07 v 0 l -0.002,0.07 -0.005,0.08 -0.009,0.07 -0.013,0.07 -0.016,0.07 -0.02,0.08 -0.023,0.07 -0.026,0.06 -0.03,0.07 -0.033,0.07 -0.036,0.06 -0.04,0.06 -0.042,0.06 -0.045,0.06 -0.048,0.06 -0.051,0.05 -0.053,0.05 -0.056,0.05 -0.058,0.04 -0.06,0.05 -0.063,0.04 -0.064,0.03 -0.065,0.04 -0.068,0.03 -0.068,0.02 -0.07,0.03 -0.071,0.02 -0.072,0.01 -0.072,0.01 -0.074,0.01 -0.073,0.01 h -0.073 -2.002 z m 267,0 -0.073,-0.01 -0.074,-0.01 -0.072,-0.01 -0.072,-0.01 -0.071,-0.02 -0.07,-0.03 -0.068,-0.02 -0.068,-0.03 -0.065,-0.04 -0.064,-0.03 -0.063,-0.04 -0.06,-0.05 -0.058,-0.04 -0.056,-0.05 -0.053,-0.05 -0.051,-0.05 -0.048,-0.06 -0.045,-0.06 -0.042,-0.06 -0.04,-0.06 -0.036,-0.06 -0.033,-0.07 -0.03,-0.07 -0.026,-0.06 -0.023,-0.07 -0.02,-0.08 -0.016,-0.07 -0.013,-0.07 -0.009,-0.07 -0.005,-0.08 L 524,-1467 v 0 l 0.002,-0.07 0.005,-0.08 0.009,-0.07 0.013,-0.07 0.016,-0.07 0.02,-0.08 0.023,-0.07 0.026,-0.06 0.03,-0.07 0.033,-0.07 0.036,-0.06 0.04,-0.06 0.042,-0.06 0.045,-0.06 0.048,-0.06 0.051,-0.05 0.053,-0.05 0.056,-0.05 0.058,-0.04 0.06,-0.05 0.063,-0.04 0.064,-0.03 0.065,-0.04 0.068,-0.03 0.068,-0.02 0.07,-0.03 0.071,-0.02 0.072,-0.01 0.072,-0.01 0.074,-0.01 0.073,-0.01 h 0.073 2.002 0.073 l 0.073,0.01 0.074,0.01 0.072,0.01 0.072,0.01 0.071,0.02 0.07,0.03 0.068,0.02 0.068,0.03 0.065,0.04 0.064,0.03 0.063,0.04 0.06,0.05 0.058,0.04 0.056,0.05 0.053,0.05 0.051,0.05 0.048,0.06 0.045,0.06 0.042,0.06 0.04,0.06 0.036,0.06 0.033,0.07 0.03,0.07 0.026,0.06 0.023,0.07 0.02,0.08 0.016,0.07 0.013,0.07 0.009,0.07 0.005,0.08 0.002,0.07 v 0 l -0.002,0.07 -0.005,0.08 -0.009,0.07 -0.013,0.07 -0.016,0.07 -0.02,0.08 -0.023,0.07 -0.026,0.06 -0.03,0.07 -0.033,0.07 -0.036,0.06 -0.04,0.06 -0.042,0.06 -0.045,0.06 -0.048,0.06 -0.051,0.05 -0.053,0.05 -0.056,0.05 -0.058,0.04 -0.06,0.05 -0.063,0.04 -0.064,0.03 -0.065,0.04 -0.068,0.03 -0.068,0.02 -0.07,0.03 -0.071,0.02 -0.072,0.01 -0.072,0.01 -0.074,0.01 -0.073,0.01 h -0.073 -2.002 z"
     id="path1396"
     style="stroke:#ff0000;stroke-opacity:1;fill:none;fill-opacity:1" />
  <path
     d="m 467.5,-1913.5 h 3 v -3 l 3.5,-3.5 H 246 l 3.5,3.5 v 3 h 3 l 3.5,3.5 h 208 z"
     id="path1394"
     style="stroke:#ff0000;stroke-opacity:1;fill:none;fill-opacity:1" />
  <path
     d="m 467.5,-1924.5 h 3 v -3 l 3.5,-3.5 H 246 l 3.5,3.5 v 3 h 3 l 3.5,3.5 h 208 z"
     id="path1392"
     style="stroke:#ff0000;stroke-opacity:1;fill:none;fill-opacity:1" />
  <path
     d="m 533.5,-1935.5 v -3 h 3 l 3.5,-3.5 -3.5,-3.5 h -3 v -3 L 530,-1952 H 256 l -3.5,3.5 v 3 h -3 l -3.5,3.5 3.5,3.5 h 3 v 3 l 3.5,3.5 h 274 z m -275.074,-5 -0.073,-0.01 -0.074,-0.01 -0.072,-0.01 -0.072,-0.01 -0.071,-0.02 -0.07,-0.03 -0.068,-0.02 -0.068,-0.03 -0.065,-0.04 -0.064,-0.03 -0.063,-0.04 -0.06,-0.05 -0.058,-0.04 -0.056,-0.05 -0.053,-0.05 -0.051,-0.05 -0.048,-0.06 -0.045,-0.06 -0.042,-0.06 -0.04,-0.06 -0.036,-0.06 -0.033,-0.07 -0.03,-0.07 -0.026,-0.06 -0.023,-0.07 -0.02,-0.08 -0.016,-0.07 -0.013,-0.07 -0.009,-0.07 -0.005,-0.08 L 257,-1942 v 0 l 0.002,-0.07 0.005,-0.08 0.009,-0.07 0.013,-0.07 0.016,-0.07 0.02,-0.08 0.023,-0.07 0.026,-0.06 0.03,-0.07 0.033,-0.07 0.036,-0.06 0.04,-0.06 0.042,-0.06 0.045,-0.06 0.048,-0.06 0.051,-0.05 0.053,-0.05 0.056,-0.05 0.058,-0.04 0.06,-0.05 0.063,-0.04 0.064,-0.03 0.065,-0.04 0.068,-0.03 0.068,-0.02 0.07,-0.03 0.071,-0.02 0.072,-0.01 0.072,-0.01 0.074,-0.01 0.073,-0.01 h 0.073 2.002 0.073 l 0.073,0.01 0.074,0.01 0.072,0.01 0.072,0.01 0.071,0.02 0.07,0.03 0.068,0.02 0.068,0.03 0.065,0.04 0.064,0.03 0.063,0.04 0.06,0.05 0.058,0.04 0.056,0.05 0.053,0.05 0.051,0.05 0.048,0.06 0.045,0.06 0.042,0.06 0.04,0.06 0.036,0.06 0.033,0.07 0.03,0.07 0.026,0.06 0.023,0.07 0.02,0.08 0.016,0.07 0.013,0.07 0.009,0.07 0.005,0.08 0.002,0.07 v 0 l -0.002,0.07 -0.005,0.08 -0.009,0.07 -0.013,0.07 -0.016,0.07 -0.02,0.08 -0.023,0.07 -0.026,0.06 -0.03,0.07 -0.033,0.07 -0.036,0.06 -0.04,0.06 -0.042,0.06 -0.045,0.06 -0.048,0.06 -0.051,0.05 -0.053,0.05 -0.056,0.05 -0.058,0.04 -0.06,0.05 -0.063,0.04 -0.064,0.03 -0.065,0.04 -0.068,0.03 -0.068,0.02 -0.07,0.03 -0.071,0.02 -0.072,0.01 -0.072,0.01 -0.074,0.01 -0.073,0.01 h -0.073 -2.002 z m 267,0 -0.073,-0.01 -0.074,-0.01 -0.072,-0.01 -0.072,-0.01 -0.071,-0.02 -0.07,-0.03 -0.068,-0.02 -0.068,-0.03 -0.065,-0.04 -0.064,-0.03 -0.063,-0.04 -0.06,-0.05 -0.058,-0.04 -0.056,-0.05 -0.053,-0.05 -0.051,-0.05 -0.048,-0.06 -0.045,-0.06 -0.042,-0.06 -0.04,-0.06 -0.036,-0.06 -0.033,-0.07 -0.03,-0.07 -0.026,-0.06 -0.023,-0.07 -0.02,-0.08 -0.016,-0.07 -0.013,-0.07 -0.009,-0.07 -0.005,-0.08 L 524,-1942 v 0 l 0.002,-0.07 0.005,-0.08 0.009,-0.07 0.013,-0.07 0.016,-0.07 0.02,-0.08 0.023,-0.07 0.026,-0.06 0.03,-0.07 0.033,-0.07 0.036,-0.06 0.04,-0.06 0.042,-0.06 0.045,-0.06 0.048,-0.06 0.051,-0.05 0.053,-0.05 0.056,-0.05 0.058,-0.04 0.06,-0.05 0.063,-0.04 0.064,-0.03 0.065,-0.04 0.068,-0.03 0.068,-0.02 0.07,-0.03 0.071,-0.02 0.072,-0.01 0.072,-0.01 0.074,-0.01 0.073,-0.01 h 0.073 2.002 0.073 l 0.073,0.01 0.074,0.01 0.072,0.01 0.072,0.01 0.071,0.02 0.07,0.03 0.068,0.02 0.068,0.03 0.065,0.04 0.064,0.03 0.063,0.04 0.06,0.05 0.058,0.04 0.056,0.05 0.053,0.05 0.051,0.05 0.048,0.06 0.045,0.06 0.042,0.06 0.04,0.06 0.036,0.06 0.033,0.07 0.03,0.07 0.026,0.06 0.023,0.07 0.02,0.08 0.016,0.07 0.013,0.07 0.009,0.07 0.005,0.08 0.002,0.07 v 0 l -0.002,0.07 -0.005,0.08 -0.009,0.07 -0.013,0.07 -0.016,0.07 -0.02,0.08 -0.023,0.07 -0.026,0.06 -0.03,0.07 -0.033,0.07 -0.036,0.06 -0.04,0.06 -0.042,0.06 -0.045,0.06 -0.048,0.06 -0.051,0.05 -0.053,0.05 -0.056,0.05 -0.058,0.04 -0.06,0.05 -0.063,0.04 -0.064,0.03 -0.065,0.04 -0.068,0.03 -0.068,0.02 -0.07,0.03 -0.071,0.02 -0.072,0.01 -0.072,0.01 -0.074,0.01 -0.073,0.01 h -0.073 -2.002 z"
     id="path1390"
     style="stroke:#ff0000;stroke-opacity:1;fill:none;fill-opacity:1" />
  <path
     d="m 762.5,-2142.5 h 3 v -3 l 3.5,-3.5 H 541 l 3.5,3.5 v 3 h 3 l 3.5,3.5 h 208 z"
     id="path1388"
     style="stroke:#ff0000;stroke-opacity:1;fill:none;fill-opacity:1" />
  <path
     d="m 222.5,-2142.5 h 3 v -3 l 3.5,-3.5 H 1 l 3.5,3.5 v 3 h 3 l 3.5,3.5 h 208 z"
     id="path1386"
     style="stroke:#ff0000;stroke-opacity:1;fill:none;fill-opacity:1" />
  <path
     d="m 762.5,-2153.5 h 3 v -3 l 3.5,-3.5 H 541 l 3.5,3.5 v 3 h 3 l 3.5,3.5 h 208 z"
     id="path1384"
     style="stroke:#ff0000;stroke-opacity:1;fill:none;fill-opacity:1" />
  <path
     d="m 222.5,-2153.5 h 3 v -3 l 3.5,-3.5 H 1 l 3.5,3.5 v 3 h 3 l 3.5,3.5 h 208 z"
     id="path1382"
     style="stroke:#ff0000;stroke-opacity:1;fill:none;fill-opacity:1" />
  <path
     d="m 770.5,-2164.5 v -3 h 3 l 3.5,-3.5 -3.5,-3.5 h -3 v -3 L 767,-2181 H 551 l -3.5,3.5 v 3 h -3 l -3.5,3.5 3.5,3.5 h 3 v 3 l 3.5,3.5 h 216 z m -221.074,-5 -0.073,-0.01 -0.074,-0.01 -0.072,-0.01 -0.072,-0.01 -0.071,-0.02 -0.07,-0.03 -0.068,-0.02 -0.068,-0.03 -0.065,-0.04 -0.064,-0.03 -0.063,-0.04 -0.06,-0.05 -0.058,-0.04 -0.056,-0.05 -0.053,-0.05 -0.051,-0.05 -0.048,-0.06 -0.045,-0.06 -0.042,-0.06 -0.04,-0.06 -0.036,-0.06 -0.033,-0.07 -0.03,-0.07 -0.026,-0.06 -0.023,-0.07 -0.02,-0.08 -0.016,-0.07 -0.013,-0.07 -0.009,-0.07 -0.005,-0.08 L 548,-2171 v 0 l 0.002,-0.07 0.005,-0.08 0.009,-0.07 0.013,-0.07 0.016,-0.07 0.02,-0.08 0.023,-0.07 0.026,-0.06 0.03,-0.07 0.033,-0.07 0.036,-0.06 0.04,-0.06 0.042,-0.06 0.045,-0.06 0.048,-0.06 0.051,-0.05 0.053,-0.05 0.056,-0.05 0.058,-0.04 0.06,-0.05 0.063,-0.04 0.064,-0.03 0.065,-0.04 0.068,-0.03 0.068,-0.02 0.07,-0.03 0.071,-0.02 0.072,-0.01 0.072,-0.01 0.074,-0.01 0.073,-0.01 h 0.073 2.002 0.073 l 0.073,0.01 0.074,0.01 0.072,0.01 0.072,0.01 0.071,0.02 0.07,0.03 0.068,0.02 0.068,0.03 0.065,0.04 0.064,0.03 0.063,0.04 0.06,0.05 0.058,0.04 0.056,0.05 0.053,0.05 0.051,0.05 0.048,0.06 0.045,0.06 0.042,0.06 0.04,0.06 0.036,0.06 0.033,0.07 0.03,0.07 0.026,0.06 0.023,0.07 0.02,0.08 0.016,0.07 0.013,0.07 0.009,0.07 0.005,0.08 0.002,0.07 v 0 l -0.002,0.07 -0.005,0.08 -0.009,0.07 -0.013,0.07 -0.016,0.07 -0.02,0.08 -0.023,0.07 -0.026,0.06 -0.03,0.07 -0.033,0.07 -0.036,0.06 -0.04,0.06 -0.042,0.06 -0.045,0.06 -0.048,0.06 -0.051,0.05 -0.053,0.05 -0.056,0.05 -0.058,0.04 -0.06,0.05 -0.063,0.04 -0.064,0.03 -0.065,0.04 -0.068,0.03 -0.068,0.02 -0.07,0.03 -0.071,0.02 -0.072,0.01 -0.072,0.01 -0.074,0.01 -0.073,0.01 h -0.073 -2.002 z m 217,0 -0.073,-0.01 -0.074,-0.01 -0.072,-0.01 -0.072,-0.01 -0.071,-0.02 -0.07,-0.03 -0.068,-0.02 -0.068,-0.03 -0.065,-0.04 -0.064,-0.03 -0.063,-0.04 -0.06,-0.05 -0.058,-0.04 -0.056,-0.05 -0.053,-0.05 -0.051,-0.05 -0.048,-0.06 -0.045,-0.06 -0.042,-0.06 -0.04,-0.06 -0.036,-0.06 -0.033,-0.07 -0.03,-0.07 -0.026,-0.06 -0.023,-0.07 -0.02,-0.08 -0.016,-0.07 -0.013,-0.07 -0.009,-0.07 -0.005,-0.08 L 765,-2171 v 0 l 0.002,-0.07 0.005,-0.08 0.009,-0.07 0.013,-0.07 0.016,-0.07 0.02,-0.08 0.023,-0.07 0.026,-0.06 0.03,-0.07 0.033,-0.07 0.036,-0.06 0.04,-0.06 0.042,-0.06 0.045,-0.06 0.048,-0.06 0.051,-0.05 0.053,-0.05 0.056,-0.05 0.058,-0.04 0.06,-0.05 0.063,-0.04 0.064,-0.03 0.065,-0.04 0.068,-0.03 0.068,-0.02 0.07,-0.03 0.071,-0.02 0.072,-0.01 0.072,-0.01 0.074,-0.01 0.073,-0.01 h 0.073 2.002 0.073 l 0.073,0.01 0.074,0.01 0.072,0.01 0.072,0.01 0.071,0.02 0.07,0.03 0.068,0.02 0.068,0.03 0.065,0.04 0.064,0.03 0.063,0.04 0.06,0.05 0.058,0.04 0.056,0.05 0.053,0.05 0.051,0.05 0.048,0.06 0.045,0.06 0.042,0.06 0.04,0.06 0.036,0.06 0.033,0.07 0.03,0.07 0.026,0.06 0.023,0.07 0.02,0.08 0.016,0.07 0.013,0.07 0.009,0.07 0.005,0.08 0.002,0.07 v 0 l -0.002,0.07 -0.005,0.08 -0.009,0.07 -0.013,0.07 -0.016,0.07 -0.02,0.08 -0.023,0.07 -0.026,0.06 -0.03,0.07 -0.033,0.07 -0.036,0.06 -0.04,0.06 -0.042,0.06 -0.045,0.06 -0.048,0.06 -0.051,0.05 -0.053,0.05 -0.056,0.05 -0.058,0.04 -0.06,0.05 -0.063,0.04 -0.064,0.03 -0.065,0.04 -0.068,0.03 -0.068,0.02 -0.07,0.03 -0.071,0.02 -0.072,0.01 -0.072,0.01 -0.074,0.01 -0.073,0.01 h -0.073 -2.002 z"
     id="path1380"
     style="stroke:#ff0000;stroke-opacity:1;fill:none;fill-opacity:1" />
  <path
     d="m 230.5,-2164.5 v -3 h 3 l 3.5,-3.5 -3.5,-3.5 h -3 v -3 L 227,-2181 H 11 l -3.5,3.5 v 3 h -3 l -3.5,3.5 3.5,3.5 h 3 v 3 l 3.5,3.5 h 216 z m -221.07408,-5 -0.0734,-0.01 -0.07304,-0.01 -0.07252,-0.01 -0.07181,-0.01 -0.07093,-0.02 -0.06989,-0.03 -0.06866,-0.02 -0.06729,-0.03 -0.06574,-0.04 -0.06404,-0.03 -0.06218,-0.04 -0.06017,-0.05 -0.05802,-0.04 -0.05573,-0.05 -0.05331,-0.05 -0.05075,-0.05 -0.04807,-0.06 -0.04528,-0.06 -0.04238,-0.06 -0.03937,-0.06 -0.03628,-0.06 -0.03309,-0.07 -0.02983,-0.07 -0.02649,-0.06 -0.02308,-0.07 -0.01963,-0.08 -0.01613,-0.07 -0.01258,-0.07 -0.00901,-0.07 -0.00541,-0.08 L 8,-2171 v 0 l 0.00181,-0.07 0.00541,-0.08 0.00901,-0.07 0.01258,-0.07 0.01613,-0.07 0.01963,-0.08 0.02308,-0.07 0.02649,-0.06 0.02983,-0.07 0.03309,-0.07 0.03628,-0.06 0.03937,-0.06 0.04238,-0.06 0.04528,-0.06 0.04807,-0.06 0.05075,-0.05 0.05331,-0.05 0.05573,-0.05 0.05802,-0.04 0.06017,-0.05 0.06218,-0.04 0.06404,-0.03 0.06574,-0.04 0.06729,-0.03 0.06866,-0.02 0.06989,-0.03 0.07093,-0.02 0.07181,-0.01 0.07252,-0.01 0.07304,-0.01 0.0734,-0.01 h 0.07358 2.001 0.0736 l 0.0734,0.01 0.073,0.01 0.0725,0.01 0.0718,0.01 0.071,0.02 0.0699,0.03 0.0686,0.02 0.0673,0.03 0.0658,0.04 0.064,0.03 0.0622,0.04 0.0602,0.05 0.058,0.04 0.0557,0.05 0.0533,0.05 0.0508,0.05 0.048,0.06 0.0453,0.06 0.0424,0.06 0.0394,0.06 0.0362,0.06 0.0331,0.07 0.0299,0.07 0.0264,0.06 0.0231,0.07 0.0197,0.08 0.0161,0.07 0.0126,0.07 0.009,0.07 0.0054,0.08 L 13,-2171 v 0 l -0.0018,0.07 -0.0054,0.08 -0.009,0.07 -0.0126,0.07 -0.0161,0.07 -0.0197,0.08 -0.0231,0.07 -0.0264,0.06 -0.0299,0.07 -0.0331,0.07 -0.0362,0.06 -0.0394,0.06 -0.0424,0.06 -0.0453,0.06 -0.048,0.06 -0.0508,0.05 -0.0533,0.05 -0.0557,0.05 -0.058,0.04 -0.0602,0.05 -0.0622,0.04 -0.064,0.03 -0.0658,0.04 -0.0673,0.03 -0.0686,0.02 -0.0699,0.03 -0.071,0.02 -0.0718,0.01 -0.0725,0.01 -0.073,0.01 -0.0734,0.01 h -0.0736 -2.001 z m 217.00008,0 -0.073,-0.01 -0.074,-0.01 -0.072,-0.01 -0.072,-0.01 -0.071,-0.02 -0.07,-0.03 -0.068,-0.02 -0.068,-0.03 -0.065,-0.04 -0.064,-0.03 -0.063,-0.04 -0.06,-0.05 -0.058,-0.04 -0.056,-0.05 -0.053,-0.05 -0.051,-0.05 -0.048,-0.06 -0.045,-0.06 -0.042,-0.06 -0.04,-0.06 -0.036,-0.06 -0.033,-0.07 -0.03,-0.07 -0.026,-0.06 -0.023,-0.07 -0.02,-0.08 -0.016,-0.07 -0.013,-0.07 -0.009,-0.07 -0.005,-0.08 L 225,-2171 v 0 l 0.002,-0.07 0.005,-0.08 0.009,-0.07 0.013,-0.07 0.016,-0.07 0.02,-0.08 0.023,-0.07 0.026,-0.06 0.03,-0.07 0.033,-0.07 0.036,-0.06 0.04,-0.06 0.042,-0.06 0.045,-0.06 0.048,-0.06 0.051,-0.05 0.053,-0.05 0.056,-0.05 0.058,-0.04 0.06,-0.05 0.063,-0.04 0.064,-0.03 0.065,-0.04 0.068,-0.03 0.068,-0.02 0.07,-0.03 0.071,-0.02 0.072,-0.01 0.072,-0.01 0.074,-0.01 0.073,-0.01 h 0.073 2.002 0.073 l 0.073,0.01 0.074,0.01 0.072,0.01 0.072,0.01 0.071,0.02 0.07,0.03 0.068,0.02 0.068,0.03 0.065,0.04 0.064,0.03 0.063,0.04 0.06,0.05 0.058,0.04 0.056,0.05 0.053,0.05 0.051,0.05 0.048,0.06 0.045,0.06 0.042,0.06 0.04,0.06 0.036,0.06 0.033,0.07 0.03,0.07 0.026,0.06 0.023,0.07 0.02,0.08 0.016,0.07 0.013,0.07 0.009,0.07 0.005,0.08 0.002,0.07 v 0 l -0.002,0.07 -0.005,0.08 -0.009,0.07 -0.013,0.07 -0.016,0.07 -0.02,0.08 -0.023,0.07 -0.026,0.06 -0.03,0.07 -0.033,0.07 -0.036,0.06 -0.04,0.06 -0.042,0.06 -0.045,0.06 -0.048,0.06 -0.051,0.05 -0.053,0.05 -0.056,0.05 -0.058,0.04 -0.06,0.05 -0.063,0.04 -0.064,0.03 -0.065,0.04 -0.068,0.03 -0.068,0.02 -0.07,0.03 -0.071,0.02 -0.072,0.01 -0.072,0.01 -0.074,0.01 -0.073,0.01 h -0.073 -2.002 z"
     id="path1378"
     style="stroke:#ff0000;stroke-opacity:1;fill:none;fill-opacity:1" />
  <path
     d="m 467.5,-2387.5 h 3 v -3 l 3.5,-3.5 H 246 l 3.5,3.5 v 3 h 3 l 3.5,3.5 h 208 z"
     id="path1376"
     style="stroke:#ff0000;stroke-opacity:1;fill:none;fill-opacity:1" />
  <path
     d="m 467.5,-2398.5 h 3 v -3 l 3.5,-3.5 H 246 l 3.5,3.5 v 3 h 3 l 3.5,3.5 h 208 z"
     id="path1374"
     style="stroke:#ff0000;stroke-opacity:1;fill:none;fill-opacity:1" />
  <path
     d="m 533.5,-2409.5 v -3 h 3 l 3.5,-3.5 -3.5,-3.5 h -3 v -3 L 530,-2426 H 256 l -3.5,3.5 v 3 h -3 l -3.5,3.5 3.5,3.5 h 3 v 3 l 3.5,3.5 h 274 z m -275.074,-5 -0.073,-0.01 -0.074,-0.01 -0.072,-0.01 -0.072,-0.01 -0.071,-0.02 -0.07,-0.03 -0.068,-0.02 -0.068,-0.03 -0.065,-0.04 -0.064,-0.03 -0.063,-0.04 -0.06,-0.05 -0.058,-0.04 -0.056,-0.05 -0.053,-0.05 -0.051,-0.05 -0.048,-0.06 -0.045,-0.06 -0.042,-0.06 -0.04,-0.06 -0.036,-0.06 -0.033,-0.07 -0.03,-0.07 -0.026,-0.06 -0.023,-0.07 -0.02,-0.08 -0.016,-0.07 -0.013,-0.07 -0.009,-0.07 -0.005,-0.08 L 257,-2416 v 0 l 0.002,-0.07 0.005,-0.08 0.009,-0.07 0.013,-0.07 0.016,-0.07 0.02,-0.08 0.023,-0.07 0.026,-0.06 0.03,-0.07 0.033,-0.07 0.036,-0.06 0.04,-0.06 0.042,-0.06 0.045,-0.06 0.048,-0.06 0.051,-0.05 0.053,-0.05 0.056,-0.05 0.058,-0.04 0.06,-0.05 0.063,-0.04 0.064,-0.03 0.065,-0.04 0.068,-0.03 0.068,-0.02 0.07,-0.03 0.071,-0.02 0.072,-0.01 0.072,-0.01 0.074,-0.01 0.073,-0.01 h 0.073 2.002 0.073 l 0.073,0.01 0.074,0.01 0.072,0.01 0.072,0.01 0.071,0.02 0.07,0.03 0.068,0.02 0.068,0.03 0.065,0.04 0.064,0.03 0.063,0.04 0.06,0.05 0.058,0.04 0.056,0.05 0.053,0.05 0.051,0.05 0.048,0.06 0.045,0.06 0.042,0.06 0.04,0.06 0.036,0.06 0.033,0.07 0.03,0.07 0.026,0.06 0.023,0.07 0.02,0.08 0.016,0.07 0.013,0.07 0.009,0.07 0.005,0.08 0.002,0.07 v 0 l -0.002,0.07 -0.005,0.08 -0.009,0.07 -0.013,0.07 -0.016,0.07 -0.02,0.08 -0.023,0.07 -0.026,0.06 -0.03,0.07 -0.033,0.07 -0.036,0.06 -0.04,0.06 -0.042,0.06 -0.045,0.06 -0.048,0.06 -0.051,0.05 -0.053,0.05 -0.056,0.05 -0.058,0.04 -0.06,0.05 -0.063,0.04 -0.064,0.03 -0.065,0.04 -0.068,0.03 -0.068,0.02 -0.07,0.03 -0.071,0.02 -0.072,0.01 -0.072,0.01 -0.074,0.01 -0.073,0.01 h -0.073 -2.002 z m 267,0 -0.073,-0.01 -0.074,-0.01 -0.072,-0.01 -0.072,-0.01 -0.071,-0.02 -0.07,-0.03 -0.068,-0.02 -0.068,-0.03 -0.065,-0.04 -0.064,-0.03 -0.063,-0.04 -0.06,-0.05 -0.058,-0.04 -0.056,-0.05 -0.053,-0.05 -0.051,-0.05 -0.048,-0.06 -0.045,-0.06 -0.042,-0.06 -0.04,-0.06 -0.036,-0.06 -0.033,-0.07 -0.03,-0.07 -0.026,-0.06 -0.023,-0.07 -0.02,-0.08 -0.016,-0.07 -0.013,-0.07 -0.009,-0.07 -0.005,-0.08 L 524,-2416 v 0 l 0.002,-0.07 0.005,-0.08 0.009,-0.07 0.013,-0.07 0.016,-0.07 0.02,-0.08 0.023,-0.07 0.026,-0.06 0.03,-0.07 0.033,-0.07 0.036,-0.06 0.04,-0.06 0.042,-0.06 0.045,-0.06 0.048,-0.06 0.051,-0.05 0.053,-0.05 0.056,-0.05 0.058,-0.04 0.06,-0.05 0.063,-0.04 0.064,-0.03 0.065,-0.04 0.068,-0.03 0.068,-0.02 0.07,-0.03 0.071,-0.02 0.072,-0.01 0.072,-0.01 0.074,-0.01 0.073,-0.01 h 0.073 2.002 0.073 l 0.073,0.01 0.074,0.01 0.072,0.01 0.072,0.01 0.071,0.02 0.07,0.03 0.068,0.02 0.068,0.03 0.065,0.04 0.064,0.03 0.063,0.04 0.06,0.05 0.058,0.04 0.056,0.05 0.053,0.05 0.051,0.05 0.048,0.06 0.045,0.06 0.042,0.06 0.04,0.06 0.036,0.06 0.033,0.07 0.03,0.07 0.026,0.06 0.023,0.07 0.02,0.08 0.016,0.07 0.013,0.07 0.009,0.07 0.005,0.08 0.002,0.07 v 0 l -0.002,0.07 -0.005,0.08 -0.009,0.07 -0.013,0.07 -0.016,0.07 -0.02,0.08 -0.023,0.07 -0.026,0.06 -0.03,0.07 -0.033,0.07 -0.036,0.06 -0.04,0.06 -0.042,0.06 -0.045,0.06 -0.048,0.06 -0.051,0.05 -0.053,0.05 -0.056,0.05 -0.058,0.04 -0.06,0.05 -0.063,0.04 -0.064,0.03 -0.065,0.04 -0.068,0.03 -0.068,0.02 -0.07,0.03 -0.071,0.02 -0.072,0.01 -0.072,0.01 -0.074,0.01 -0.073,0.01 h -0.073 -2.002 z"
     id="path1372"
     style="stroke:#ff0000;stroke-opacity:1;fill:none;fill-opacity:1" />
  <path
     d="m 467.5,-2862.5 h 3 v -3 l 3.5,-3.5 H 246 l 3.5,3.5 v 3 h 3 l 3.5,3.5 h 208 z"
     id="path1370"
     style="stroke:#ff0000;stroke-opacity:1;fill:none;fill-opacity:1" />
  <path
     d="m 467.5,-2873.5 h 3 v -3 l 3.5,-3.5 H 246 l 3.5,3.5 v 3 h 3 l 3.5,3.5 h 208 z"
     id="path1368"
     style="stroke:#ff0000;stroke-opacity:1;fill:none;fill-opacity:1" />
  <path
     d="m 533.5,-2884.5 v -3 h 3 l 3.5,-3.5 h -11 v 0 l -0.002,0.07 -0.005,0.08 -0.009,0.07 -0.013,0.07 -0.016,0.07 -0.02,0.08 -0.023,0.07 -0.026,0.06 -0.03,0.07 -0.033,0.07 -0.036,0.06 -0.04,0.06 -0.042,0.06 -0.045,0.06 -0.048,0.06 -0.051,0.05 -0.053,0.05 -0.056,0.05 -0.058,0.04 -0.06,0.05 -0.063,0.04 -0.064,0.03 -0.065,0.04 -0.068,0.03 -0.068,0.02 -0.07,0.03 -0.071,0.02 -0.072,0.01 -0.072,0.01 -0.074,0.01 -0.073,0.01 h -0.073 -2.002 -0.073 l -0.073,-0.01 -0.074,-0.01 -0.072,-0.01 -0.072,-0.01 -0.071,-0.02 -0.07,-0.03 -0.068,-0.02 -0.068,-0.03 -0.065,-0.04 -0.064,-0.03 -0.063,-0.04 -0.06,-0.05 -0.058,-0.04 -0.056,-0.05 -0.053,-0.05 -0.051,-0.05 -0.048,-0.06 -0.045,-0.06 -0.042,-0.06 -0.04,-0.06 -0.036,-0.06 -0.033,-0.07 -0.03,-0.07 -0.026,-0.06 -0.023,-0.07 -0.02,-0.08 -0.016,-0.07 -0.013,-0.07 -0.009,-0.07 -0.005,-0.08 L 524,-2891 v 0 H 262 v 0 l -0.002,0.07 -0.005,0.08 -0.009,0.07 -0.013,0.07 -0.016,0.07 -0.02,0.08 -0.023,0.07 -0.026,0.06 -0.03,0.07 -0.033,0.07 -0.036,0.06 -0.04,0.06 -0.042,0.06 -0.045,0.06 -0.048,0.06 -0.051,0.05 -0.053,0.05 -0.056,0.05 -0.058,0.04 -0.06,0.05 -0.063,0.04 -0.064,0.03 -0.065,0.04 -0.068,0.03 -0.068,0.02 -0.07,0.03 -0.071,0.02 -0.072,0.01 -0.072,0.01 -0.074,0.01 -0.073,0.01 h -0.073 -2.002 -0.073 l -0.073,-0.01 -0.074,-0.01 -0.072,-0.01 -0.072,-0.01 -0.071,-0.02 -0.07,-0.03 -0.068,-0.02 -0.068,-0.03 -0.065,-0.04 -0.064,-0.03 -0.063,-0.04 -0.06,-0.05 -0.058,-0.04 -0.056,-0.05 -0.053,-0.05 -0.051,-0.05 -0.048,-0.06 -0.045,-0.06 -0.042,-0.06 -0.04,-0.06 -0.036,-0.06 -0.033,-0.07 -0.03,-0.07 -0.026,-0.06 -0.023,-0.07 -0.02,-0.08 -0.016,-0.07 -0.013,-0.07 -0.009,-0.07 -0.005,-0.08 L 257,-2891 v 0 h -11 l 3.5,3.5 h 3 v 3 l 3.5,3.5 h 274 z"
     id="path1366"
     style="stroke:#ff0000;stroke-opacity:1;fill:none;fill-opacity:1" />
  <path
     d="m 762.5,-3091.5 h 3 v -3 l 3.5,-3.5 H 541 l 3.5,3.5 v 3 h 3 l 3.5,3.5 h 208 z"
     id="path1364"
     style="stroke:#ff0000;stroke-opacity:1;fill:none;fill-opacity:1" />
  <path
     d="m 222.5,-3091.5 h 3 v -3 l 3.5,-3.5 H 1 l 3.5,3.5 v 3 h 3 l 3.5,3.5 h 208 z"
     id="path1362"
     style="stroke:#ff0000;stroke-opacity:1;fill:none;fill-opacity:1" />
  <path
     d="m 762.5,-3102.5 h 3 v -3 l 3.5,-3.5 H 541 l 3.5,3.5 v 3 h 3 l 3.5,3.5 h 208 z"
     id="path1360"
     style="stroke:#ff0000;stroke-opacity:1;fill:none;fill-opacity:1" />
  <path
     d="m 222.5,-3102.5 h 3 v -3 l 3.5,-3.5 H 1 l 3.5,3.5 v 3 h 3 l 3.5,3.5 h 208 z"
     id="path1358"
     style="stroke:#ff0000;stroke-opacity:1;fill:none;fill-opacity:1" />
  <path
     d="m 770.5,-3113.5 v -3 h 3 l 3.5,-3.5 h -7 v 0 l -0.002,0.07 -0.005,0.08 -0.009,0.07 -0.013,0.07 -0.016,0.07 -0.02,0.08 -0.023,0.07 -0.026,0.06 -0.03,0.07 -0.033,0.07 -0.036,0.06 -0.04,0.06 -0.042,0.06 -0.045,0.06 -0.048,0.06 -0.051,0.05 -0.053,0.05 -0.056,0.05 -0.058,0.04 -0.06,0.05 -0.063,0.04 -0.064,0.03 -0.065,0.04 -0.068,0.03 -0.068,0.02 -0.07,0.03 -0.071,0.02 -0.072,0.01 -0.072,0.01 -0.074,0.01 -0.073,0.01 h -0.073 -2.002 -0.073 l -0.073,-0.01 -0.074,-0.01 -0.072,-0.01 -0.072,-0.01 -0.071,-0.02 -0.07,-0.03 -0.068,-0.02 -0.068,-0.03 -0.065,-0.04 -0.064,-0.03 -0.063,-0.04 -0.06,-0.05 -0.058,-0.04 -0.056,-0.05 -0.053,-0.05 -0.051,-0.05 -0.048,-0.06 -0.045,-0.06 -0.042,-0.06 -0.04,-0.06 -0.036,-0.06 -0.033,-0.07 -0.03,-0.07 -0.026,-0.06 -0.023,-0.07 -0.02,-0.08 -0.016,-0.07 -0.013,-0.07 -0.009,-0.07 -0.005,-0.08 L 765,-3120 v 0 H 553 v 0 l -0.002,0.07 -0.005,0.08 -0.009,0.07 -0.013,0.07 -0.016,0.07 -0.02,0.08 -0.023,0.07 -0.026,0.06 -0.03,0.07 -0.033,0.07 -0.036,0.06 -0.04,0.06 -0.042,0.06 -0.045,0.06 -0.048,0.06 -0.051,0.05 -0.053,0.05 -0.056,0.05 -0.058,0.04 -0.06,0.05 -0.063,0.04 -0.064,0.03 -0.065,0.04 -0.068,0.03 -0.068,0.02 -0.07,0.03 -0.071,0.02 -0.072,0.01 -0.072,0.01 -0.074,0.01 -0.073,0.01 h -0.073 -2.002 -0.073 l -0.073,-0.01 -0.074,-0.01 -0.072,-0.01 -0.072,-0.01 -0.071,-0.02 -0.07,-0.03 -0.068,-0.02 -0.068,-0.03 -0.065,-0.04 -0.064,-0.03 -0.063,-0.04 -0.06,-0.05 -0.058,-0.04 -0.056,-0.05 -0.053,-0.05 -0.051,-0.05 -0.048,-0.06 -0.045,-0.06 -0.042,-0.06 -0.04,-0.06 -0.036,-0.06 -0.033,-0.07 -0.03,-0.07 -0.026,-0.06 -0.023,-0.07 -0.02,-0.08 -0.016,-0.07 -0.013,-0.07 -0.009,-0.07 -0.005,-0.08 L 548,-3120 v 0 h -7 l 3.5,3.5 h 3 v 3 l 3.5,3.5 h 216 z"
     id="path1356"
     style="stroke:#ff0000;stroke-opacity:1;fill:none;fill-opacity:1" />
  <path
     d="m 230.5,-3113.5 v -3 h 3 l 3.5,-3.5 h -7 v 0 l -0.002,0.07 -0.005,0.08 -0.009,0.07 -0.013,0.07 -0.016,0.07 -0.02,0.08 -0.023,0.07 -0.026,0.06 -0.03,0.07 -0.033,0.07 -0.036,0.06 -0.04,0.06 -0.042,0.06 -0.045,0.06 -0.048,0.06 -0.051,0.05 -0.053,0.05 -0.056,0.05 -0.058,0.04 -0.06,0.05 -0.063,0.04 -0.064,0.03 -0.065,0.04 -0.068,0.03 -0.068,0.02 -0.07,0.03 -0.071,0.02 -0.072,0.01 -0.072,0.01 -0.074,0.01 -0.073,0.01 h -0.073 -2.002 -0.073 l -0.073,-0.01 -0.074,-0.01 -0.072,-0.01 -0.072,-0.01 -0.071,-0.02 -0.07,-0.03 -0.068,-0.02 -0.068,-0.03 -0.065,-0.04 -0.064,-0.03 -0.063,-0.04 -0.06,-0.05 -0.058,-0.04 -0.056,-0.05 -0.053,-0.05 -0.051,-0.05 -0.048,-0.06 -0.045,-0.06 -0.042,-0.06 -0.04,-0.06 -0.036,-0.06 -0.033,-0.07 -0.03,-0.07 -0.026,-0.06 -0.023,-0.07 -0.02,-0.08 -0.016,-0.07 -0.013,-0.07 -0.009,-0.07 -0.005,-0.08 L 225,-3120 v 0 H 13 v 0 l -0.0018,0.07 -0.0054,0.08 -0.009,0.07 -0.0126,0.07 -0.0161,0.07 -0.0197,0.08 -0.0231,0.07 -0.0264,0.06 -0.0299,0.07 -0.0331,0.07 -0.0362,0.06 -0.0394,0.06 -0.0424,0.06 -0.0453,0.06 -0.048,0.06 -0.0508,0.05 -0.0533,0.05 -0.0557,0.05 -0.058,0.04 -0.0602,0.05 -0.0622,0.04 -0.064,0.03 -0.0658,0.04 -0.0673,0.03 -0.0686,0.02 -0.0699,0.03 -0.071,0.02 -0.0718,0.01 -0.0725,0.01 -0.073,0.01 -0.0734,0.01 H 11.5005 9.4995 9.42592 l -0.0734,-0.01 -0.07304,-0.01 -0.07252,-0.01 -0.07181,-0.01 -0.07093,-0.02 -0.06989,-0.03 -0.06866,-0.02 -0.06729,-0.03 -0.06574,-0.04 -0.06404,-0.03 -0.06218,-0.04 -0.06017,-0.05 -0.05802,-0.04 -0.05573,-0.05 -0.05331,-0.05 -0.05075,-0.05 -0.04807,-0.06 -0.04528,-0.06 -0.04238,-0.06 -0.03937,-0.06 -0.03628,-0.06 -0.03309,-0.07 -0.02983,-0.07 -0.02649,-0.06 -0.02308,-0.07 -0.01963,-0.08 -0.01613,-0.07 -0.01258,-0.07 -0.00901,-0.07 -0.00541,-0.08 L 8,-3120 v 0 H 1 l 3.5,3.5 h 3 v 3 l 3.5,3.5 h 216 z"
     id="path1354"
     style="stroke:#ff0000;stroke-opacity:1;fill:none;fill-opacity:1" />
  <path
     d="m 467.5,-3336.5 h 3 v -3 l 3.5,-3.5 H 246 l 3.5,3.5 v 3 h 3 l 3.5,3.5 h 208 z"
     id="path1352"
     style="stroke:#ff0000;stroke-opacity:1;fill:none;fill-opacity:1" />
  <path
     d="m 467.5,-3347.5 h 3 v -3 l 3.5,-3.5 H 246 l 3.5,3.5 v 3 h 3 l 3.5,3.5 h 208 z"
     id="path1350"
     style="stroke:#ff0000;stroke-opacity:1;fill:none;fill-opacity:1" />
  <path
     d="m 533.5,-3358.5 v -3 h 3 l 3.5,-3.5 h -11 v 0 l -0.002,0.07 -0.005,0.08 -0.009,0.07 -0.013,0.07 -0.016,0.07 -0.02,0.08 -0.023,0.07 -0.026,0.06 -0.03,0.07 -0.033,0.07 -0.036,0.06 -0.04,0.06 -0.042,0.06 -0.045,0.06 -0.048,0.06 -0.051,0.05 -0.053,0.05 -0.056,0.05 -0.058,0.04 -0.06,0.05 -0.063,0.04 -0.064,0.03 -0.065,0.04 -0.068,0.03 -0.068,0.02 -0.07,0.03 -0.071,0.02 -0.072,0.01 -0.072,0.01 -0.074,0.01 -0.073,0.01 h -0.073 -2.002 -0.073 l -0.073,-0.01 -0.074,-0.01 -0.072,-0.01 -0.072,-0.01 -0.071,-0.02 -0.07,-0.03 -0.068,-0.02 -0.068,-0.03 -0.065,-0.04 -0.064,-0.03 -0.063,-0.04 -0.06,-0.05 -0.058,-0.04 -0.056,-0.05 -0.053,-0.05 -0.051,-0.05 -0.048,-0.06 -0.045,-0.06 -0.042,-0.06 -0.04,-0.06 -0.036,-0.06 -0.033,-0.07 -0.03,-0.07 -0.026,-0.06 -0.023,-0.07 -0.02,-0.08 -0.016,-0.07 -0.013,-0.07 -0.009,-0.07 -0.005,-0.08 L 524,-3365 v 0 H 262 v 0 l -0.002,0.07 -0.005,0.08 -0.009,0.07 -0.013,0.07 -0.016,0.07 -0.02,0.08 -0.023,0.07 -0.026,0.06 -0.03,0.07 -0.033,0.07 -0.036,0.06 -0.04,0.06 -0.042,0.06 -0.045,0.06 -0.048,0.06 -0.051,0.05 -0.053,0.05 -0.056,0.05 -0.058,0.04 -0.06,0.05 -0.063,0.04 -0.064,0.03 -0.065,0.04 -0.068,0.03 -0.068,0.02 -0.07,0.03 -0.071,0.02 -0.072,0.01 -0.072,0.01 -0.074,0.01 -0.073,0.01 h -0.073 -2.002 -0.073 l -0.073,-0.01 -0.074,-0.01 -0.072,-0.01 -0.072,-0.01 -0.071,-0.02 -0.07,-0.03 -0.068,-0.02 -0.068,-0.03 -0.065,-0.04 -0.064,-0.03 -0.063,-0.04 -0.06,-0.05 -0.058,-0.04 -0.056,-0.05 -0.053,-0.05 -0.051,-0.05 -0.048,-0.06 -0.045,-0.06 -0.042,-0.06 -0.04,-0.06 -0.036,-0.06 -0.033,-0.07 -0.03,-0.07 -0.026,-0.06 -0.023,-0.07 -0.02,-0.08 -0.016,-0.07 -0.013,-0.07 -0.009,-0.07 -0.005,-0.08 L 257,-3365 v 0 h -11 l 3.5,3.5 h 3 v 3 l 3.5,3.5 h 274 z"
     id="path4"
     style="stroke:#ff0000;stroke-opacity:1;fill:none;fill-opacity:1" />
  <metadata
     id="metadata1340">
    <rdf:RDF>
      <cc:Work
         rdf:about="">
        <dc:title>OpenSCAD Model</dc:title>
      </cc:Work>
    </rdf:RDF>
  </metadata>
</svg>
