<?xml version="1.0" standalone="no"?>
<!DOCTYPE svg PUBLIC "-//W3C//DTD SVG 1.1//EN" "http://www.w3.org/Graphics/SVG/1.1/DTD/svg11.dtd">
<svg width="642mm" height="3510mm" viewBox="0 -3510 642 3510" xmlns="http://www.w3.org/2000/svg" version="1.1">
<title>OpenSCAD Model</title>
<path d="
M 248,-3509 L 233,-3509 L 233,-3266 L 248,-3266 z
M 264,-3509 L 249,-3509 L 249,-3266 L 264,-3266 z
M 280,-3509 L 265,-3509 L 265,-3266 L 280,-3266 z
M 296,-3509 L 281,-3509 L 281,-3266 L 296,-3266 z
M 312,-3509 L 297,-3509 L 297,-3266 L 312,-3266 z
M 328,-3509 L 313,-3509 L 313,-3266 L 328,-3266 z
M 344,-3509 L 329,-3509 L 329,-3266 L 344,-3266 z
M 360,-3509 L 345,-3509 L 345,-3266 L 360,-3266 z
M 376,-3509 L 361,-3509 L 361,-3266 L 376,-3266 z
M 392,-3509 L 377,-3509 L 377,-3266 L 392,-3266 z
M 408,-3509 L 393,-3509 L 393,-3266 L 408,-3266 z
M 16,-3287 L 1,-3287 L 1,-3044 L 16,-3044 z
M 32,-3287 L 17,-3287 L 17,-3044 L 32,-3044 z
M 48,-3287 L 33,-3287 L 33,-3044 L 48,-3044 z
M 64,-3287 L 49,-3287 L 49,-3044 L 64,-3044 z
M 80,-3287 L 65,-3287 L 65,-3044 L 80,-3044 z
M 96,-3287 L 81,-3287 L 81,-3044 L 96,-3044 z
M 112,-3287 L 97,-3287 L 97,-3044 L 112,-3044 z
M 128,-3287 L 113,-3287 L 113,-3044 L 128,-3044 z
M 529,-3287 L 514,-3287 L 514,-3044 L 529,-3044 z
M 545,-3287 L 530,-3287 L 530,-3044 L 545,-3044 z
M 561,-3287 L 546,-3287 L 546,-3044 L 561,-3044 z
M 577,-3287 L 562,-3287 L 562,-3044 L 577,-3044 z
M 593,-3287 L 578,-3287 L 578,-3044 L 593,-3044 z
M 609,-3287 L 594,-3287 L 594,-3044 L 609,-3044 z
M 625,-3287 L 610,-3287 L 610,-3044 L 625,-3044 z
M 641,-3287 L 626,-3287 L 626,-3044 L 641,-3044 z
M 248,-3043 L 233,-3043 L 233,-2800 L 248,-2800 z
M 264,-3043 L 249,-3043 L 249,-2800 L 264,-2800 z
M 280,-3043 L 265,-3043 L 265,-2800 L 280,-2800 z
M 296,-3043 L 281,-3043 L 281,-2800 L 296,-2800 z
M 312,-3043 L 297,-3043 L 297,-2800 L 312,-2800 z
M 328,-3043 L 313,-3043 L 313,-2800 L 328,-2800 z
M 344,-3043 L 329,-3043 L 329,-2800 L 344,-2800 z
M 360,-3043 L 345,-3043 L 345,-2800 L 360,-2800 z
M 376,-3043 L 361,-3043 L 361,-2800 L 376,-2800 z
M 392,-3043 L 377,-3043 L 377,-2800 L 392,-2800 z
M 408,-3043 L 393,-3043 L 393,-2800 L 408,-2800 z
M 248,-2576 L 233,-2576 L 233,-2333 L 248,-2333 z
M 264,-2576 L 249,-2576 L 249,-2333 L 264,-2333 z
M 280,-2576 L 265,-2576 L 265,-2333 L 280,-2333 z
M 296,-2576 L 281,-2576 L 281,-2333 L 296,-2333 z
M 312,-2576 L 297,-2576 L 297,-2333 L 312,-2333 z
M 328,-2576 L 313,-2576 L 313,-2333 L 328,-2333 z
M 344,-2576 L 329,-2576 L 329,-2333 L 344,-2333 z
M 360,-2576 L 345,-2576 L 345,-2333 L 360,-2333 z
M 376,-2576 L 361,-2576 L 361,-2333 L 376,-2333 z
M 392,-2576 L 377,-2576 L 377,-2333 L 392,-2333 z
M 408,-2576 L 393,-2576 L 393,-2333 L 408,-2333 z
M 16,-2354 L 1,-2354 L 1,-2111 L 16,-2111 z
M 32,-2354 L 17,-2354 L 17,-2111 L 32,-2111 z
M 48,-2354 L 33,-2354 L 33,-2111 L 48,-2111 z
M 64,-2354 L 49,-2354 L 49,-2111 L 64,-2111 z
M 80,-2354 L 65,-2354 L 65,-2111 L 80,-2111 z
M 96,-2354 L 81,-2354 L 81,-2111 L 96,-2111 z
M 112,-2354 L 97,-2354 L 97,-2111 L 112,-2111 z
M 128,-2354 L 113,-2354 L 113,-2111 L 128,-2111 z
M 529,-2354 L 514,-2354 L 514,-2111 L 529,-2111 z
M 545,-2354 L 530,-2354 L 530,-2111 L 545,-2111 z
M 561,-2354 L 546,-2354 L 546,-2111 L 561,-2111 z
M 577,-2354 L 562,-2354 L 562,-2111 L 577,-2111 z
M 593,-2354 L 578,-2354 L 578,-2111 L 593,-2111 z
M 609,-2354 L 594,-2354 L 594,-2111 L 609,-2111 z
M 625,-2354 L 610,-2354 L 610,-2111 L 625,-2111 z
M 641,-2354 L 626,-2354 L 626,-2111 L 641,-2111 z
M 248,-2110 L 233,-2110 L 233,-1867 L 248,-1867 z
M 264,-2110 L 249,-2110 L 249,-1867 L 264,-1867 z
M 280,-2110 L 265,-2110 L 265,-1867 L 280,-1867 z
M 296,-2110 L 281,-2110 L 281,-1867 L 296,-1867 z
M 312,-2110 L 297,-2110 L 297,-1867 L 312,-1867 z
M 328,-2110 L 313,-2110 L 313,-1867 L 328,-1867 z
M 344,-2110 L 329,-2110 L 329,-1867 L 344,-1867 z
M 360,-2110 L 345,-2110 L 345,-1867 L 360,-1867 z
M 376,-2110 L 361,-2110 L 361,-1867 L 376,-1867 z
M 392,-2110 L 377,-2110 L 377,-1867 L 392,-1867 z
M 408,-2110 L 393,-2110 L 393,-1867 L 408,-1867 z
M 248,-1643 L 233,-1643 L 233,-1400 L 248,-1400 z
M 264,-1643 L 249,-1643 L 249,-1400 L 264,-1400 z
M 280,-1643 L 265,-1643 L 265,-1400 L 280,-1400 z
M 296,-1643 L 281,-1643 L 281,-1400 L 296,-1400 z
M 312,-1643 L 297,-1643 L 297,-1400 L 312,-1400 z
M 328,-1643 L 313,-1643 L 313,-1400 L 328,-1400 z
M 344,-1643 L 329,-1643 L 329,-1400 L 344,-1400 z
M 360,-1643 L 345,-1643 L 345,-1400 L 360,-1400 z
M 376,-1643 L 361,-1643 L 361,-1400 L 376,-1400 z
M 392,-1643 L 377,-1643 L 377,-1400 L 392,-1400 z
M 408,-1643 L 393,-1643 L 393,-1400 L 408,-1400 z
M 16,-1421 L 1,-1421 L 1,-1178 L 16,-1178 z
M 32,-1421 L 17,-1421 L 17,-1178 L 32,-1178 z
M 48,-1421 L 33,-1421 L 33,-1178 L 48,-1178 z
M 64,-1421 L 49,-1421 L 49,-1178 L 64,-1178 z
M 80,-1421 L 65,-1421 L 65,-1178 L 80,-1178 z
M 96,-1421 L 81,-1421 L 81,-1178 L 96,-1178 z
M 112,-1421 L 97,-1421 L 97,-1178 L 112,-1178 z
M 128,-1421 L 113,-1421 L 113,-1178 L 128,-1178 z
M 529,-1421 L 514,-1421 L 514,-1178 L 529,-1178 z
M 545,-1421 L 530,-1421 L 530,-1178 L 545,-1178 z
M 561,-1421 L 546,-1421 L 546,-1178 L 561,-1178 z
M 577,-1421 L 562,-1421 L 562,-1178 L 577,-1178 z
M 593,-1421 L 578,-1421 L 578,-1178 L 593,-1178 z
M 609,-1421 L 594,-1421 L 594,-1178 L 609,-1178 z
M 625,-1421 L 610,-1421 L 610,-1178 L 625,-1178 z
M 641,-1421 L 626,-1421 L 626,-1178 L 641,-1178 z
M 248,-1177 L 233,-1177 L 233,-934 L 248,-934 z
M 264,-1177 L 249,-1177 L 249,-934 L 264,-934 z
M 280,-1177 L 265,-1177 L 265,-934 L 280,-934 z
M 296,-1177 L 281,-1177 L 281,-934 L 296,-934 z
M 312,-1177 L 297,-1177 L 297,-934 L 312,-934 z
M 328,-1177 L 313,-1177 L 313,-934 L 328,-934 z
M 344,-1177 L 329,-1177 L 329,-934 L 344,-934 z
M 360,-1177 L 345,-1177 L 345,-934 L 360,-934 z
M 376,-1177 L 361,-1177 L 361,-934 L 376,-934 z
M 392,-1177 L 377,-1177 L 377,-934 L 392,-934 z
M 408,-1177 L 393,-1177 L 393,-934 L 408,-934 z
M 248,-710 L 233,-710 L 233,-467 L 248,-467 z
M 264,-710 L 249,-710 L 249,-467 L 264,-467 z
M 280,-710 L 265,-710 L 265,-467 L 280,-467 z
M 296,-710 L 281,-710 L 281,-467 L 296,-467 z
M 312,-710 L 297,-710 L 297,-467 L 312,-467 z
M 328,-710 L 313,-710 L 313,-467 L 328,-467 z
M 344,-710 L 329,-710 L 329,-467 L 344,-467 z
M 360,-710 L 345,-710 L 345,-467 L 360,-467 z
M 376,-710 L 361,-710 L 361,-467 L 376,-467 z
M 392,-710 L 377,-710 L 377,-467 L 392,-467 z
M 408,-710 L 393,-710 L 393,-467 L 408,-467 z
M 16,-488 L 1,-488 L 1,-245 L 16,-245 z
M 32,-488 L 17,-488 L 17,-245 L 32,-245 z
M 48,-488 L 33,-488 L 33,-245 L 48,-245 z
M 64,-488 L 49,-488 L 49,-245 L 64,-245 z
M 80,-488 L 65,-488 L 65,-245 L 80,-245 z
M 96,-488 L 81,-488 L 81,-245 L 96,-245 z
M 112,-488 L 97,-488 L 97,-245 L 112,-245 z
M 128,-488 L 113,-488 L 113,-245 L 128,-245 z
M 529,-488 L 514,-488 L 514,-245 L 529,-245 z
M 545,-488 L 530,-488 L 530,-245 L 545,-245 z
M 561,-488 L 546,-488 L 546,-245 L 561,-245 z
M 577,-488 L 562,-488 L 562,-245 L 577,-245 z
M 593,-488 L 578,-488 L 578,-245 L 593,-245 z
M 609,-488 L 594,-488 L 594,-245 L 609,-245 z
M 625,-488 L 610,-488 L 610,-245 L 625,-245 z
M 641,-488 L 626,-488 L 626,-245 L 641,-245 z
M 248,-244 L 233,-244 L 233,-1 L 248,-1 z
M 264,-244 L 249,-244 L 249,-1 L 264,-1 z
M 280,-244 L 265,-244 L 265,-1 L 280,-1 z
M 296,-244 L 281,-244 L 281,-1 L 296,-1 z
M 312,-244 L 297,-244 L 297,-1 L 312,-1 z
M 328,-244 L 313,-244 L 313,-1 L 328,-1 z
M 344,-244 L 329,-244 L 329,-1 L 344,-1 z
M 360,-244 L 345,-244 L 345,-1 L 360,-1 z
M 376,-244 L 361,-244 L 361,-1 L 376,-1 z
M 392,-244 L 377,-244 L 377,-1 L 392,-1 z
M 408,-244 L 393,-244 L 393,-1 L 408,-1 z
" stroke="#000000" fill="none" stroke-width="0.35"/>
</svg>
