<?xml version="1.0" encoding="UTF-8" standalone="no"?>
<svg
   width="685mm"
   height="3551mm"
   viewBox="0 -3551 685 3551"
   version="1.1"
   id="svg6"
   sodipodi:docname="lamp_layer_2_export.svg"
   inkscape:version="1.2.2 (b0a8486541, 2022-12-01)"
   xmlns:inkscape="http://www.inkscape.org/namespaces/inkscape"
   xmlns:sodipodi="http://sodipodi.sourceforge.net/DTD/sodipodi-0.dtd"
   xmlns="http://www.w3.org/2000/svg"
   xmlns:svg="http://www.w3.org/2000/svg"
   xmlns:rdf="http://www.w3.org/1999/02/22-rdf-syntax-ns#"
   xmlns:cc="http://creativecommons.org/ns#"
   xmlns:dc="http://purl.org/dc/elements/1.1/">
  <defs
     id="defs10" />
  <sodipodi:namedview
     id="namedview8"
     pagecolor="#ffffff"
     bordercolor="#000000"
     borderopacity="0.25"
     inkscape:showpageshadow="2"
     inkscape:pageopacity="0.0"
     inkscape:pagecheckerboard="0"
     inkscape:deskcolor="#d1d1d1"
     inkscape:document-units="mm"
     showgrid="false"
     inkscape:zoom="0.078458533"
     inkscape:cx="1293.677"
     inkscape:cy="8762.5906"
     inkscape:window-width="3374"
     inkscape:window-height="1371"
     inkscape:window-x="0"
     inkscape:window-y="0"
     inkscape:window-maximized="1"
     inkscape:current-layer="svg6" />
  <title
     id="title2">OpenSCAD Model</title>
  <path
     d="M 441,-229 H 426 V -1 h 15 z"
     id="path1544"
     style="stroke:#ff0000;stroke-opacity:1;fill:none" />
  <path
     d="M 425,-229 H 410 V -1 h 15 z"
     id="path1542"
     style="stroke:#ff0000;stroke-opacity:1;fill:none" />
  <path
     d="M 409,-229 H 394 V -1 h 15 z"
     id="path1540"
     style="stroke:#ff0000;stroke-opacity:1;fill:none" />
  <path
     d="M 393,-229 H 378 V -1 h 15 z"
     id="path1538"
     style="stroke:#ff0000;stroke-opacity:1;fill:none" />
  <path
     d="M 377,-229 H 362 V -1 h 15 z"
     id="path1536"
     style="stroke:#ff0000;stroke-opacity:1;fill:none" />
  <path
     d="M 361,-229 H 346 V -1 h 15 z"
     id="path1534"
     style="stroke:#ff0000;stroke-opacity:1;fill:none" />
  <path
     d="M 345,-229 H 330 V -1 h 15 z"
     id="path1532"
     style="stroke:#ff0000;stroke-opacity:1;fill:none" />
  <path
     d="M 329,-229 H 314 V -1 h 15 z"
     id="path1530"
     style="stroke:#ff0000;stroke-opacity:1;fill:none" />
  <path
     d="M 313,-229 H 298 V -1 h 15 z"
     id="path1528"
     style="stroke:#ff0000;stroke-opacity:1;fill:none" />
  <path
     d="M 297,-229 H 282 V -1 h 15 z"
     id="path1526"
     style="stroke:#ff0000;stroke-opacity:1;fill:none" />
  <path
     d="M 281,-229 H 266 V -1 h 15 z"
     id="path1524"
     style="stroke:#ff0000;stroke-opacity:1;fill:none" />
  <path
     d="M 265,-229 H 250 V -1 h 15 z"
     id="path1522"
     style="stroke:#ff0000;stroke-opacity:1;fill:none" />
  <path
     d="m 684,-458 h -15 v 228 h 15 z"
     id="path1520"
     style="stroke:#ff0000;stroke-opacity:1;fill:none" />
  <path
     d="m 668,-458 h -15 v 228 h 15 z"
     id="path1518"
     style="stroke:#ff0000;stroke-opacity:1;fill:none" />
  <path
     d="m 652,-458 h -15 v 228 h 15 z"
     id="path1516"
     style="stroke:#ff0000;stroke-opacity:1;fill:none" />
  <path
     d="m 636,-458 h -15 v 228 h 15 z"
     id="path1514"
     style="stroke:#ff0000;stroke-opacity:1;fill:none" />
  <path
     d="m 620,-458 h -15 v 228 h 15 z"
     id="path1512"
     style="stroke:#ff0000;stroke-opacity:1;fill:none" />
  <path
     d="m 604,-458 h -15 v 228 h 15 z"
     id="path1510"
     style="stroke:#ff0000;stroke-opacity:1;fill:none" />
  <path
     d="m 588,-458 h -15 v 228 h 15 z"
     id="path1508"
     style="stroke:#ff0000;stroke-opacity:1;fill:none" />
  <path
     d="m 572,-458 h -15 v 228 h 15 z"
     id="path1506"
     style="stroke:#ff0000;stroke-opacity:1;fill:none" />
  <path
     d="m 556,-458 h -15 v 228 h 15 z"
     id="path1504"
     style="stroke:#ff0000;stroke-opacity:1;fill:none" />
  <path
     d="m 144,-458 h -15 v 228 h 15 z"
     id="path1502"
     style="stroke:#ff0000;stroke-opacity:1;fill:none" />
  <path
     d="m 128,-458 h -15 v 228 h 15 z"
     id="path1500"
     style="stroke:#ff0000;stroke-opacity:1;fill:none" />
  <path
     d="M 112,-458 H 97 v 228 h 15 z"
     id="path1498"
     style="stroke:#ff0000;stroke-opacity:1;fill:none" />
  <path
     d="M 96,-458 H 81 v 228 h 15 z"
     id="path1496"
     style="stroke:#ff0000;stroke-opacity:1;fill:none" />
  <path
     d="M 80,-458 H 65 v 228 h 15 z"
     id="path1494"
     style="stroke:#ff0000;stroke-opacity:1;fill:none" />
  <path
     d="M 64,-458 H 49 v 228 h 15 z"
     id="path1492"
     style="stroke:#ff0000;stroke-opacity:1;fill:none" />
  <path
     d="M 48,-458 H 33 v 228 h 15 z"
     id="path1490"
     style="stroke:#ff0000;stroke-opacity:1;fill:none" />
  <path
     d="M 32,-458 H 17 v 228 h 15 z"
     id="path1488"
     style="stroke:#ff0000;stroke-opacity:1;fill:none" />
  <path
     d="M 16,-458 H 1 v 228 h 15 z"
     id="path1486"
     style="stroke:#ff0000;stroke-opacity:1;fill:none" />
  <path
     d="m 441,-703 h -15 v 228 h 15 z"
     id="path1484"
     style="stroke:#ff0000;stroke-opacity:1;fill:none" />
  <path
     d="m 425,-703 h -15 v 228 h 15 z"
     id="path1482"
     style="stroke:#ff0000;stroke-opacity:1;fill:none" />
  <path
     d="m 409,-703 h -15 v 228 h 15 z"
     id="path1480"
     style="stroke:#ff0000;stroke-opacity:1;fill:none" />
  <path
     d="m 393,-703 h -15 v 228 h 15 z"
     id="path1478"
     style="stroke:#ff0000;stroke-opacity:1;fill:none" />
  <path
     d="m 377,-703 h -15 v 228 h 15 z"
     id="path1476"
     style="stroke:#ff0000;stroke-opacity:1;fill:none" />
  <path
     d="m 361,-703 h -15 v 228 h 15 z"
     id="path1474"
     style="stroke:#ff0000;stroke-opacity:1;fill:none" />
  <path
     d="m 345,-703 h -15 v 228 h 15 z"
     id="path1472"
     style="stroke:#ff0000;stroke-opacity:1;fill:none" />
  <path
     d="m 329,-703 h -15 v 228 h 15 z"
     id="path1470"
     style="stroke:#ff0000;stroke-opacity:1;fill:none" />
  <path
     d="m 313,-703 h -15 v 228 h 15 z"
     id="path1468"
     style="stroke:#ff0000;stroke-opacity:1;fill:none" />
  <path
     d="m 297,-703 h -15 v 228 h 15 z"
     id="path1466"
     style="stroke:#ff0000;stroke-opacity:1;fill:none" />
  <path
     d="m 281,-703 h -15 v 228 h 15 z"
     id="path1464"
     style="stroke:#ff0000;stroke-opacity:1;fill:none" />
  <path
     d="m 265,-703 h -15 v 228 h 15 z"
     id="path1462"
     style="stroke:#ff0000;stroke-opacity:1;fill:none" />
  <path
     d="m 441,-1178 h -15 v 228 h 15 z"
     id="path1460"
     style="stroke:#ff0000;stroke-opacity:1;fill:none" />
  <path
     d="m 425,-1178 h -15 v 228 h 15 z"
     id="path1458"
     style="stroke:#ff0000;stroke-opacity:1;fill:none" />
  <path
     d="m 409,-1178 h -15 v 228 h 15 z"
     id="path1456"
     style="stroke:#ff0000;stroke-opacity:1;fill:none" />
  <path
     d="m 393,-1178 h -15 v 228 h 15 z"
     id="path1454"
     style="stroke:#ff0000;stroke-opacity:1;fill:none" />
  <path
     d="m 377,-1178 h -15 v 228 h 15 z"
     id="path1452"
     style="stroke:#ff0000;stroke-opacity:1;fill:none" />
  <path
     d="m 361,-1178 h -15 v 228 h 15 z"
     id="path1450"
     style="stroke:#ff0000;stroke-opacity:1;fill:none" />
  <path
     d="m 345,-1178 h -15 v 228 h 15 z"
     id="path1448"
     style="stroke:#ff0000;stroke-opacity:1;fill:none" />
  <path
     d="m 329,-1178 h -15 v 228 h 15 z"
     id="path1446"
     style="stroke:#ff0000;stroke-opacity:1;fill:none" />
  <path
     d="m 313,-1178 h -15 v 228 h 15 z"
     id="path1444"
     style="stroke:#ff0000;stroke-opacity:1;fill:none" />
  <path
     d="m 297,-1178 h -15 v 228 h 15 z"
     id="path1442"
     style="stroke:#ff0000;stroke-opacity:1;fill:none" />
  <path
     d="m 281,-1178 h -15 v 228 h 15 z"
     id="path1440"
     style="stroke:#ff0000;stroke-opacity:1;fill:none" />
  <path
     d="m 265,-1178 h -15 v 228 h 15 z"
     id="path1438"
     style="stroke:#ff0000;stroke-opacity:1;fill:none" />
  <path
     d="m 684,-1407 h -15 v 228 h 15 z"
     id="path1436"
     style="stroke:#ff0000;stroke-opacity:1;fill:none" />
  <path
     d="m 668,-1407 h -15 v 228 h 15 z"
     id="path1434"
     style="stroke:#ff0000;stroke-opacity:1;fill:none" />
  <path
     d="m 652,-1407 h -15 v 228 h 15 z"
     id="path1432"
     style="stroke:#ff0000;stroke-opacity:1;fill:none" />
  <path
     d="m 636,-1407 h -15 v 228 h 15 z"
     id="path1430"
     style="stroke:#ff0000;stroke-opacity:1;fill:none" />
  <path
     d="m 620,-1407 h -15 v 228 h 15 z"
     id="path1428"
     style="stroke:#ff0000;stroke-opacity:1;fill:none" />
  <path
     d="m 604,-1407 h -15 v 228 h 15 z"
     id="path1426"
     style="stroke:#ff0000;stroke-opacity:1;fill:none" />
  <path
     d="m 588,-1407 h -15 v 228 h 15 z"
     id="path1424"
     style="stroke:#ff0000;stroke-opacity:1;fill:none" />
  <path
     d="m 572,-1407 h -15 v 228 h 15 z"
     id="path1422"
     style="stroke:#ff0000;stroke-opacity:1;fill:none" />
  <path
     d="m 556,-1407 h -15 v 228 h 15 z"
     id="path1420"
     style="stroke:#ff0000;stroke-opacity:1;fill:none" />
  <path
     d="m 144,-1407 h -15 v 228 h 15 z"
     id="path1418"
     style="stroke:#ff0000;stroke-opacity:1;fill:none" />
  <path
     d="m 128,-1407 h -15 v 228 h 15 z"
     id="path1416"
     style="stroke:#ff0000;stroke-opacity:1;fill:none" />
  <path
     d="M 112,-1407 H 97 v 228 h 15 z"
     id="path1414"
     style="stroke:#ff0000;stroke-opacity:1;fill:none" />
  <path
     d="M 96,-1407 H 81 v 228 h 15 z"
     id="path1412"
     style="stroke:#ff0000;stroke-opacity:1;fill:none" />
  <path
     d="M 80,-1407 H 65 v 228 h 15 z"
     id="path1410"
     style="stroke:#ff0000;stroke-opacity:1;fill:none" />
  <path
     d="M 64,-1407 H 49 v 228 h 15 z"
     id="path1408"
     style="stroke:#ff0000;stroke-opacity:1;fill:none" />
  <path
     d="M 48,-1407 H 33 v 228 h 15 z"
     id="path1406"
     style="stroke:#ff0000;stroke-opacity:1;fill:none" />
  <path
     d="M 32,-1407 H 17 v 228 h 15 z"
     id="path1404"
     style="stroke:#ff0000;stroke-opacity:1;fill:none" />
  <path
     d="M 16,-1407 H 1 v 228 h 15 z"
     id="path1402"
     style="stroke:#ff0000;stroke-opacity:1;fill:none" />
  <path
     d="m 441,-1652 h -15 v 228 h 15 z"
     id="path1400"
     style="stroke:#ff0000;stroke-opacity:1;fill:none" />
  <path
     d="m 425,-1652 h -15 v 228 h 15 z"
     id="path1398"
     style="stroke:#ff0000;stroke-opacity:1;fill:none" />
  <path
     d="m 409,-1652 h -15 v 228 h 15 z"
     id="path1396"
     style="stroke:#ff0000;stroke-opacity:1;fill:none" />
  <path
     d="m 393,-1652 h -15 v 228 h 15 z"
     id="path1394"
     style="stroke:#ff0000;stroke-opacity:1;fill:none" />
  <path
     d="m 377,-1652 h -15 v 228 h 15 z"
     id="path1392"
     style="stroke:#ff0000;stroke-opacity:1;fill:none" />
  <path
     d="m 361,-1652 h -15 v 228 h 15 z"
     id="path1390"
     style="stroke:#ff0000;stroke-opacity:1;fill:none" />
  <path
     d="m 345,-1652 h -15 v 228 h 15 z"
     id="path1388"
     style="stroke:#ff0000;stroke-opacity:1;fill:none" />
  <path
     d="m 329,-1652 h -15 v 228 h 15 z"
     id="path1386"
     style="stroke:#ff0000;stroke-opacity:1;fill:none" />
  <path
     d="m 313,-1652 h -15 v 228 h 15 z"
     id="path1384"
     style="stroke:#ff0000;stroke-opacity:1;fill:none" />
  <path
     d="m 297,-1652 h -15 v 228 h 15 z"
     id="path1382"
     style="stroke:#ff0000;stroke-opacity:1;fill:none" />
  <path
     d="m 281,-1652 h -15 v 228 h 15 z"
     id="path1380"
     style="stroke:#ff0000;stroke-opacity:1;fill:none" />
  <path
     d="m 265,-1652 h -15 v 228 h 15 z"
     id="path1378"
     style="stroke:#ff0000;stroke-opacity:1;fill:none" />
  <path
     d="m 441,-2127 h -15 v 228 h 15 z"
     id="path1376"
     style="stroke:#ff0000;stroke-opacity:1;fill:none" />
  <path
     d="m 425,-2127 h -15 v 228 h 15 z"
     id="path1374"
     style="stroke:#ff0000;stroke-opacity:1;fill:none" />
  <path
     d="m 409,-2127 h -15 v 228 h 15 z"
     id="path1372"
     style="stroke:#ff0000;stroke-opacity:1;fill:none" />
  <path
     d="m 393,-2127 h -15 v 228 h 15 z"
     id="path1370"
     style="stroke:#ff0000;stroke-opacity:1;fill:none" />
  <path
     d="m 377,-2127 h -15 v 228 h 15 z"
     id="path1368"
     style="stroke:#ff0000;stroke-opacity:1;fill:none" />
  <path
     d="m 361,-2127 h -15 v 228 h 15 z"
     id="path1366"
     style="stroke:#ff0000;stroke-opacity:1;fill:none" />
  <path
     d="m 345,-2127 h -15 v 228 h 15 z"
     id="path1364"
     style="stroke:#ff0000;stroke-opacity:1;fill:none" />
  <path
     d="m 329,-2127 h -15 v 228 h 15 z"
     id="path1362"
     style="stroke:#ff0000;stroke-opacity:1;fill:none" />
  <path
     d="m 313,-2127 h -15 v 228 h 15 z"
     id="path1360"
     style="stroke:#ff0000;stroke-opacity:1;fill:none" />
  <path
     d="m 297,-2127 h -15 v 228 h 15 z"
     id="path1358"
     style="stroke:#ff0000;stroke-opacity:1;fill:none" />
  <path
     d="m 281,-2127 h -15 v 228 h 15 z"
     id="path1356"
     style="stroke:#ff0000;stroke-opacity:1;fill:none" />
  <path
     d="m 265,-2127 h -15 v 228 h 15 z"
     id="path1354"
     style="stroke:#ff0000;stroke-opacity:1;fill:none" />
  <path
     d="m 684,-2356 h -15 v 228 h 15 z"
     id="path1352"
     style="stroke:#ff0000;stroke-opacity:1;fill:none" />
  <path
     d="m 668,-2356 h -15 v 228 h 15 z"
     id="path1350"
     style="stroke:#ff0000;stroke-opacity:1;fill:none" />
  <path
     d="m 652,-2356 h -15 v 228 h 15 z"
     id="path1348"
     style="stroke:#ff0000;stroke-opacity:1;fill:none" />
  <path
     d="m 636,-2356 h -15 v 228 h 15 z"
     id="path1346"
     style="stroke:#ff0000;stroke-opacity:1;fill:none" />
  <path
     d="m 620,-2356 h -15 v 228 h 15 z"
     id="path1344"
     style="stroke:#ff0000;stroke-opacity:1;fill:none" />
  <path
     d="m 604,-2356 h -15 v 228 h 15 z"
     id="path1342"
     style="stroke:#ff0000;stroke-opacity:1;fill:none" />
  <path
     d="m 588,-2356 h -15 v 228 h 15 z"
     id="path1340"
     style="stroke:#ff0000;stroke-opacity:1;fill:none" />
  <path
     d="m 572,-2356 h -15 v 228 h 15 z"
     id="path1338"
     style="stroke:#ff0000;stroke-opacity:1;fill:none" />
  <path
     d="m 556,-2356 h -15 v 228 h 15 z"
     id="path1336"
     style="stroke:#ff0000;stroke-opacity:1;fill:none" />
  <path
     d="m 144,-2356 h -15 v 228 h 15 z"
     id="path1334"
     style="stroke:#ff0000;stroke-opacity:1;fill:none" />
  <path
     d="m 128,-2356 h -15 v 228 h 15 z"
     id="path1332"
     style="stroke:#ff0000;stroke-opacity:1;fill:none" />
  <path
     d="M 112,-2356 H 97 v 228 h 15 z"
     id="path1330"
     style="stroke:#ff0000;stroke-opacity:1;fill:none" />
  <path
     d="M 96,-2356 H 81 v 228 h 15 z"
     id="path1328"
     style="stroke:#ff0000;stroke-opacity:1;fill:none" />
  <path
     d="M 80,-2356 H 65 v 228 h 15 z"
     id="path1326"
     style="stroke:#ff0000;stroke-opacity:1;fill:none" />
  <path
     d="M 64,-2356 H 49 v 228 h 15 z"
     id="path1324"
     style="stroke:#ff0000;stroke-opacity:1;fill:none" />
  <path
     d="M 48,-2356 H 33 v 228 h 15 z"
     id="path1322"
     style="stroke:#ff0000;stroke-opacity:1;fill:none" />
  <path
     d="M 32,-2356 H 17 v 228 h 15 z"
     id="path1320"
     style="stroke:#ff0000;stroke-opacity:1;fill:none" />
  <path
     d="M 16,-2356 H 1 v 228 h 15 z"
     id="path1318"
     style="stroke:#ff0000;stroke-opacity:1;fill:none" />
  <path
     d="m 441,-2601 h -15 v 228 h 15 z"
     id="path1316"
     style="stroke:#ff0000;stroke-opacity:1;fill:none" />
  <path
     d="m 425,-2601 h -15 v 228 h 15 z"
     id="path1314"
     style="stroke:#ff0000;stroke-opacity:1;fill:none" />
  <path
     d="m 409,-2601 h -15 v 228 h 15 z"
     id="path1312"
     style="stroke:#ff0000;stroke-opacity:1;fill:none" />
  <path
     d="m 393,-2601 h -15 v 228 h 15 z"
     id="path1310"
     style="stroke:#ff0000;stroke-opacity:1;fill:none" />
  <path
     d="m 377,-2601 h -15 v 228 h 15 z"
     id="path1308"
     style="stroke:#ff0000;stroke-opacity:1;fill:none" />
  <path
     d="m 361,-2601 h -15 v 228 h 15 z"
     id="path1306"
     style="stroke:#ff0000;stroke-opacity:1;fill:none" />
  <path
     d="m 345,-2601 h -15 v 228 h 15 z"
     id="path1304"
     style="stroke:#ff0000;stroke-opacity:1;fill:none" />
  <path
     d="m 329,-2601 h -15 v 228 h 15 z"
     id="path1302"
     style="stroke:#ff0000;stroke-opacity:1;fill:none" />
  <path
     d="m 313,-2601 h -15 v 228 h 15 z"
     id="path1300"
     style="stroke:#ff0000;stroke-opacity:1;fill:none" />
  <path
     d="m 297,-2601 h -15 v 228 h 15 z"
     id="path1298"
     style="stroke:#ff0000;stroke-opacity:1;fill:none" />
  <path
     d="m 281,-2601 h -15 v 228 h 15 z"
     id="path1296"
     style="stroke:#ff0000;stroke-opacity:1;fill:none" />
  <path
     d="m 265,-2601 h -15 v 228 h 15 z"
     id="path1294"
     style="stroke:#ff0000;stroke-opacity:1;fill:none" />
  <path
     d="m 441,-3076 h -15 v 228 h 15 z"
     id="path1292"
     style="stroke:#ff0000;stroke-opacity:1;fill:none" />
  <path
     d="m 425,-3076 h -15 v 228 h 15 z"
     id="path1290"
     style="stroke:#ff0000;stroke-opacity:1;fill:none" />
  <path
     d="m 409,-3076 h -15 v 228 h 15 z"
     id="path1288"
     style="stroke:#ff0000;stroke-opacity:1;fill:none" />
  <path
     d="m 393,-3076 h -15 v 228 h 15 z"
     id="path1286"
     style="stroke:#ff0000;stroke-opacity:1;fill:none" />
  <path
     d="m 377,-3076 h -15 v 228 h 15 z"
     id="path1284"
     style="stroke:#ff0000;stroke-opacity:1;fill:none" />
  <path
     d="m 361,-3076 h -15 v 228 h 15 z"
     id="path1282"
     style="stroke:#ff0000;stroke-opacity:1;fill:none" />
  <path
     d="m 345,-3076 h -15 v 228 h 15 z"
     id="path1280"
     style="stroke:#ff0000;stroke-opacity:1;fill:none" />
  <path
     d="m 329,-3076 h -15 v 228 h 15 z"
     id="path1278"
     style="stroke:#ff0000;stroke-opacity:1;fill:none" />
  <path
     d="m 313,-3076 h -15 v 228 h 15 z"
     id="path1276"
     style="stroke:#ff0000;stroke-opacity:1;fill:none" />
  <path
     d="m 297,-3076 h -15 v 228 h 15 z"
     id="path1274"
     style="stroke:#ff0000;stroke-opacity:1;fill:none" />
  <path
     d="m 281,-3076 h -15 v 228 h 15 z"
     id="path1272"
     style="stroke:#ff0000;stroke-opacity:1;fill:none" />
  <path
     d="m 265,-3076 h -15 v 228 h 15 z"
     id="path1270"
     style="stroke:#ff0000;stroke-opacity:1;fill:none" />
  <path
     d="m 684,-3305 h -15 v 228 h 15 z"
     id="path1268"
     style="stroke:#ff0000;stroke-opacity:1;fill:none" />
  <path
     d="m 668,-3305 h -15 v 228 h 15 z"
     id="path1266"
     style="stroke:#ff0000;stroke-opacity:1;fill:none" />
  <path
     d="m 652,-3305 h -15 v 228 h 15 z"
     id="path1264"
     style="stroke:#ff0000;stroke-opacity:1;fill:none" />
  <path
     d="m 636,-3305 h -15 v 228 h 15 z"
     id="path1262"
     style="stroke:#ff0000;stroke-opacity:1;fill:none" />
  <path
     d="m 620,-3305 h -15 v 228 h 15 z"
     id="path1260"
     style="stroke:#ff0000;stroke-opacity:1;fill:none" />
  <path
     d="m 604,-3305 h -15 v 228 h 15 z"
     id="path1258"
     style="stroke:#ff0000;stroke-opacity:1;fill:none" />
  <path
     d="m 588,-3305 h -15 v 228 h 15 z"
     id="path1256"
     style="stroke:#ff0000;stroke-opacity:1;fill:none" />
  <path
     d="m 572,-3305 h -15 v 228 h 15 z"
     id="path1254"
     style="stroke:#ff0000;stroke-opacity:1;fill:none" />
  <path
     d="m 556,-3305 h -15 v 228 h 15 z"
     id="path1252"
     style="stroke:#ff0000;stroke-opacity:1;fill:none" />
  <path
     d="m 144,-3305 h -15 v 228 h 15 z"
     id="path1250"
     style="stroke:#ff0000;stroke-opacity:1;fill:none" />
  <path
     d="m 128,-3305 h -15 v 228 h 15 z"
     id="path1248"
     style="stroke:#ff0000;stroke-opacity:1;fill:none" />
  <path
     d="M 112,-3305 H 97 v 228 h 15 z"
     id="path1246"
     style="stroke:#ff0000;stroke-opacity:1;fill:none" />
  <path
     d="M 96,-3305 H 81 v 228 h 15 z"
     id="path1244"
     style="stroke:#ff0000;stroke-opacity:1;fill:none" />
  <path
     d="M 80,-3305 H 65 v 228 h 15 z"
     id="path1242"
     style="stroke:#ff0000;stroke-opacity:1;fill:none" />
  <path
     d="M 64,-3305 H 49 v 228 h 15 z"
     id="path1240"
     style="stroke:#ff0000;stroke-opacity:1;fill:none" />
  <path
     d="M 48,-3305 H 33 v 228 h 15 z"
     id="path1238"
     style="stroke:#ff0000;stroke-opacity:1;fill:none" />
  <path
     d="M 32,-3305 H 17 v 228 h 15 z"
     id="path1236"
     style="stroke:#ff0000;stroke-opacity:1;fill:none" />
  <path
     d="M 16,-3305 H 1 v 228 h 15 z"
     id="path1234"
     style="stroke:#ff0000;stroke-opacity:1;fill:none" />
  <path
     d="m 441,-3550 h -15 v 228 h 15 z"
     id="path1232"
     style="stroke:#ff0000;stroke-opacity:1;fill:none" />
  <path
     d="m 425,-3550 h -15 v 228 h 15 z"
     id="path1230"
     style="stroke:#ff0000;stroke-opacity:1;fill:none" />
  <path
     d="m 409,-3550 h -15 v 228 h 15 z"
     id="path1228"
     style="stroke:#ff0000;stroke-opacity:1;fill:none" />
  <path
     d="m 393,-3550 h -15 v 228 h 15 z"
     id="path1226"
     style="stroke:#ff0000;stroke-opacity:1;fill:none" />
  <path
     d="m 377,-3550 h -15 v 228 h 15 z"
     id="path1224"
     style="stroke:#ff0000;stroke-opacity:1;fill:none" />
  <path
     d="m 361,-3550 h -15 v 228 h 15 z"
     id="path1222"
     style="stroke:#ff0000;stroke-opacity:1;fill:none" />
  <path
     d="m 345,-3550 h -15 v 228 h 15 z"
     id="path1220"
     style="stroke:#ff0000;stroke-opacity:1;fill:none" />
  <path
     d="m 329,-3550 h -15 v 228 h 15 z"
     id="path1218"
     style="stroke:#ff0000;stroke-opacity:1;fill:none" />
  <path
     d="m 313,-3550 h -15 v 228 h 15 z"
     id="path1216"
     style="stroke:#ff0000;stroke-opacity:1;fill:none" />
  <path
     d="m 297,-3550 h -15 v 228 h 15 z"
     id="path1214"
     style="stroke:#ff0000;stroke-opacity:1;fill:none" />
  <path
     d="m 281,-3550 h -15 v 228 h 15 z"
     id="path1212"
     style="stroke:#ff0000;stroke-opacity:1;fill:none" />
  <path
     d="m 265,-3550 h -15 v 228 h 15 z"
     id="path4"
     style="stroke:#ff0000;stroke-opacity:1;fill:none" />
  <metadata
     id="metadata1562">
    <rdf:RDF>
      <cc:Work
         rdf:about="">
        <dc:title>OpenSCAD Model</dc:title>
      </cc:Work>
    </rdf:RDF>
  </metadata>
</svg>
