<?xml version="1.0" standalone="no"?>
<!DOCTYPE svg PUBLIC "-//W3C//DTD SVG 1.1//EN" "http://www.w3.org/Graphics/SVG/1.1/DTD/svg11.dtd">
<svg width="685mm" height="3551mm" viewBox="-4 -3551 685 3551" xmlns="http://www.w3.org/2000/svg" version="1.1">
<title>OpenSCAD Model</title>
<path d="
M 261,-3550 L 246,-3550 L 246,-3322 L 261,-3322 z
M 277,-3550 L 262,-3550 L 262,-3322 L 277,-3322 z
M 293,-3550 L 278,-3550 L 278,-3322 L 293,-3322 z
M 309,-3550 L 294,-3550 L 294,-3322 L 309,-3322 z
M 325,-3550 L 310,-3550 L 310,-3322 L 325,-3322 z
M 341,-3550 L 326,-3550 L 326,-3322 L 341,-3322 z
M 357,-3550 L 342,-3550 L 342,-3322 L 357,-3322 z
M 373,-3550 L 358,-3550 L 358,-3322 L 373,-3322 z
M 389,-3550 L 374,-3550 L 374,-3322 L 389,-3322 z
M 405,-3550 L 390,-3550 L 390,-3322 L 405,-3322 z
M 421,-3550 L 406,-3550 L 406,-3322 L 421,-3322 z
M 437,-3550 L 422,-3550 L 422,-3322 L 437,-3322 z
M 12,-3305 L -3,-3305 L -3,-3077 L 12,-3077 z
M 28,-3305 L 13,-3305 L 13,-3077 L 28,-3077 z
M 44,-3305 L 29,-3305 L 29,-3077 L 44,-3077 z
M 60,-3305 L 45,-3305 L 45,-3077 L 60,-3077 z
M 76,-3305 L 61,-3305 L 61,-3077 L 76,-3077 z
M 92,-3305 L 77,-3305 L 77,-3077 L 92,-3077 z
M 108,-3305 L 93,-3305 L 93,-3077 L 108,-3077 z
M 124,-3305 L 109,-3305 L 109,-3077 L 124,-3077 z
M 140,-3305 L 125,-3305 L 125,-3077 L 140,-3077 z
M 552,-3305 L 537,-3305 L 537,-3077 L 552,-3077 z
M 568,-3305 L 553,-3305 L 553,-3077 L 568,-3077 z
M 584,-3305 L 569,-3305 L 569,-3077 L 584,-3077 z
M 600,-3305 L 585,-3305 L 585,-3077 L 600,-3077 z
M 616,-3305 L 601,-3305 L 601,-3077 L 616,-3077 z
M 632,-3305 L 617,-3305 L 617,-3077 L 632,-3077 z
M 648,-3305 L 633,-3305 L 633,-3077 L 648,-3077 z
M 664,-3305 L 649,-3305 L 649,-3077 L 664,-3077 z
M 680,-3305 L 665,-3305 L 665,-3077 L 680,-3077 z
M 261,-3076 L 246,-3076 L 246,-2848 L 261,-2848 z
M 277,-3076 L 262,-3076 L 262,-2848 L 277,-2848 z
M 293,-3076 L 278,-3076 L 278,-2848 L 293,-2848 z
M 309,-3076 L 294,-3076 L 294,-2848 L 309,-2848 z
M 325,-3076 L 310,-3076 L 310,-2848 L 325,-2848 z
M 341,-3076 L 326,-3076 L 326,-2848 L 341,-2848 z
M 357,-3076 L 342,-3076 L 342,-2848 L 357,-2848 z
M 373,-3076 L 358,-3076 L 358,-2848 L 373,-2848 z
M 389,-3076 L 374,-3076 L 374,-2848 L 389,-2848 z
M 405,-3076 L 390,-3076 L 390,-2848 L 405,-2848 z
M 421,-3076 L 406,-3076 L 406,-2848 L 421,-2848 z
M 437,-3076 L 422,-3076 L 422,-2848 L 437,-2848 z
M 261,-2601 L 246,-2601 L 246,-2373 L 261,-2373 z
M 277,-2601 L 262,-2601 L 262,-2373 L 277,-2373 z
M 293,-2601 L 278,-2601 L 278,-2373 L 293,-2373 z
M 309,-2601 L 294,-2601 L 294,-2373 L 309,-2373 z
M 325,-2601 L 310,-2601 L 310,-2373 L 325,-2373 z
M 341,-2601 L 326,-2601 L 326,-2373 L 341,-2373 z
M 357,-2601 L 342,-2601 L 342,-2373 L 357,-2373 z
M 373,-2601 L 358,-2601 L 358,-2373 L 373,-2373 z
M 389,-2601 L 374,-2601 L 374,-2373 L 389,-2373 z
M 405,-2601 L 390,-2601 L 390,-2373 L 405,-2373 z
M 421,-2601 L 406,-2601 L 406,-2373 L 421,-2373 z
M 437,-2601 L 422,-2601 L 422,-2373 L 437,-2373 z
M 12,-2356 L -3,-2356 L -3,-2128 L 12,-2128 z
M 28,-2356 L 13,-2356 L 13,-2128 L 28,-2128 z
M 44,-2356 L 29,-2356 L 29,-2128 L 44,-2128 z
M 60,-2356 L 45,-2356 L 45,-2128 L 60,-2128 z
M 76,-2356 L 61,-2356 L 61,-2128 L 76,-2128 z
M 92,-2356 L 77,-2356 L 77,-2128 L 92,-2128 z
M 108,-2356 L 93,-2356 L 93,-2128 L 108,-2128 z
M 124,-2356 L 109,-2356 L 109,-2128 L 124,-2128 z
M 140,-2356 L 125,-2356 L 125,-2128 L 140,-2128 z
M 552,-2356 L 537,-2356 L 537,-2128 L 552,-2128 z
M 568,-2356 L 553,-2356 L 553,-2128 L 568,-2128 z
M 584,-2356 L 569,-2356 L 569,-2128 L 584,-2128 z
M 600,-2356 L 585,-2356 L 585,-2128 L 600,-2128 z
M 616,-2356 L 601,-2356 L 601,-2128 L 616,-2128 z
M 632,-2356 L 617,-2356 L 617,-2128 L 632,-2128 z
M 648,-2356 L 633,-2356 L 633,-2128 L 648,-2128 z
M 664,-2356 L 649,-2356 L 649,-2128 L 664,-2128 z
M 680,-2356 L 665,-2356 L 665,-2128 L 680,-2128 z
M 261,-2127 L 246,-2127 L 246,-1899 L 261,-1899 z
M 277,-2127 L 262,-2127 L 262,-1899 L 277,-1899 z
M 293,-2127 L 278,-2127 L 278,-1899 L 293,-1899 z
M 309,-2127 L 294,-2127 L 294,-1899 L 309,-1899 z
M 325,-2127 L 310,-2127 L 310,-1899 L 325,-1899 z
M 341,-2127 L 326,-2127 L 326,-1899 L 341,-1899 z
M 357,-2127 L 342,-2127 L 342,-1899 L 357,-1899 z
M 373,-2127 L 358,-2127 L 358,-1899 L 373,-1899 z
M 389,-2127 L 374,-2127 L 374,-1899 L 389,-1899 z
M 405,-2127 L 390,-2127 L 390,-1899 L 405,-1899 z
M 421,-2127 L 406,-2127 L 406,-1899 L 421,-1899 z
M 437,-2127 L 422,-2127 L 422,-1899 L 437,-1899 z
M 261,-1652 L 246,-1652 L 246,-1424 L 261,-1424 z
M 277,-1652 L 262,-1652 L 262,-1424 L 277,-1424 z
M 293,-1652 L 278,-1652 L 278,-1424 L 293,-1424 z
M 309,-1652 L 294,-1652 L 294,-1424 L 309,-1424 z
M 325,-1652 L 310,-1652 L 310,-1424 L 325,-1424 z
M 341,-1652 L 326,-1652 L 326,-1424 L 341,-1424 z
M 357,-1652 L 342,-1652 L 342,-1424 L 357,-1424 z
M 373,-1652 L 358,-1652 L 358,-1424 L 373,-1424 z
M 389,-1652 L 374,-1652 L 374,-1424 L 389,-1424 z
M 405,-1652 L 390,-1652 L 390,-1424 L 405,-1424 z
M 421,-1652 L 406,-1652 L 406,-1424 L 421,-1424 z
M 437,-1652 L 422,-1652 L 422,-1424 L 437,-1424 z
M 12,-1407 L -3,-1407 L -3,-1179 L 12,-1179 z
M 28,-1407 L 13,-1407 L 13,-1179 L 28,-1179 z
M 44,-1407 L 29,-1407 L 29,-1179 L 44,-1179 z
M 60,-1407 L 45,-1407 L 45,-1179 L 60,-1179 z
M 76,-1407 L 61,-1407 L 61,-1179 L 76,-1179 z
M 92,-1407 L 77,-1407 L 77,-1179 L 92,-1179 z
M 108,-1407 L 93,-1407 L 93,-1179 L 108,-1179 z
M 124,-1407 L 109,-1407 L 109,-1179 L 124,-1179 z
M 140,-1407 L 125,-1407 L 125,-1179 L 140,-1179 z
M 552,-1407 L 537,-1407 L 537,-1179 L 552,-1179 z
M 568,-1407 L 553,-1407 L 553,-1179 L 568,-1179 z
M 584,-1407 L 569,-1407 L 569,-1179 L 584,-1179 z
M 600,-1407 L 585,-1407 L 585,-1179 L 600,-1179 z
M 616,-1407 L 601,-1407 L 601,-1179 L 616,-1179 z
M 632,-1407 L 617,-1407 L 617,-1179 L 632,-1179 z
M 648,-1407 L 633,-1407 L 633,-1179 L 648,-1179 z
M 664,-1407 L 649,-1407 L 649,-1179 L 664,-1179 z
M 680,-1407 L 665,-1407 L 665,-1179 L 680,-1179 z
M 261,-1178 L 246,-1178 L 246,-950 L 261,-950 z
M 277,-1178 L 262,-1178 L 262,-950 L 277,-950 z
M 293,-1178 L 278,-1178 L 278,-950 L 293,-950 z
M 309,-1178 L 294,-1178 L 294,-950 L 309,-950 z
M 325,-1178 L 310,-1178 L 310,-950 L 325,-950 z
M 341,-1178 L 326,-1178 L 326,-950 L 341,-950 z
M 357,-1178 L 342,-1178 L 342,-950 L 357,-950 z
M 373,-1178 L 358,-1178 L 358,-950 L 373,-950 z
M 389,-1178 L 374,-1178 L 374,-950 L 389,-950 z
M 405,-1178 L 390,-1178 L 390,-950 L 405,-950 z
M 421,-1178 L 406,-1178 L 406,-950 L 421,-950 z
M 437,-1178 L 422,-1178 L 422,-950 L 437,-950 z
M 261,-703 L 246,-703 L 246,-475 L 261,-475 z
M 277,-703 L 262,-703 L 262,-475 L 277,-475 z
M 293,-703 L 278,-703 L 278,-475 L 293,-475 z
M 309,-703 L 294,-703 L 294,-475 L 309,-475 z
M 325,-703 L 310,-703 L 310,-475 L 325,-475 z
M 341,-703 L 326,-703 L 326,-475 L 341,-475 z
M 357,-703 L 342,-703 L 342,-475 L 357,-475 z
M 373,-703 L 358,-703 L 358,-475 L 373,-475 z
M 389,-703 L 374,-703 L 374,-475 L 389,-475 z
M 405,-703 L 390,-703 L 390,-475 L 405,-475 z
M 421,-703 L 406,-703 L 406,-475 L 421,-475 z
M 437,-703 L 422,-703 L 422,-475 L 437,-475 z
M 12,-458 L -3,-458 L -3,-230 L 12,-230 z
M 28,-458 L 13,-458 L 13,-230 L 28,-230 z
M 44,-458 L 29,-458 L 29,-230 L 44,-230 z
M 60,-458 L 45,-458 L 45,-230 L 60,-230 z
M 76,-458 L 61,-458 L 61,-230 L 76,-230 z
M 92,-458 L 77,-458 L 77,-230 L 92,-230 z
M 108,-458 L 93,-458 L 93,-230 L 108,-230 z
M 124,-458 L 109,-458 L 109,-230 L 124,-230 z
M 140,-458 L 125,-458 L 125,-230 L 140,-230 z
M 552,-458 L 537,-458 L 537,-230 L 552,-230 z
M 568,-458 L 553,-458 L 553,-230 L 568,-230 z
M 584,-458 L 569,-458 L 569,-230 L 584,-230 z
M 600,-458 L 585,-458 L 585,-230 L 600,-230 z
M 616,-458 L 601,-458 L 601,-230 L 616,-230 z
M 632,-458 L 617,-458 L 617,-230 L 632,-230 z
M 648,-458 L 633,-458 L 633,-230 L 648,-230 z
M 664,-458 L 649,-458 L 649,-230 L 664,-230 z
M 680,-458 L 665,-458 L 665,-230 L 680,-230 z
M 261,-229 L 246,-229 L 246,-1 L 261,-1 z
M 277,-229 L 262,-229 L 262,-1 L 277,-1 z
M 293,-229 L 278,-229 L 278,-1 L 293,-1 z
M 309,-229 L 294,-229 L 294,-1 L 309,-1 z
M 325,-229 L 310,-229 L 310,-1 L 325,-1 z
M 341,-229 L 326,-229 L 326,-1 L 341,-1 z
M 357,-229 L 342,-229 L 342,-1 L 357,-1 z
M 373,-229 L 358,-229 L 358,-1 L 373,-1 z
M 389,-229 L 374,-229 L 374,-1 L 389,-1 z
M 405,-229 L 390,-229 L 390,-1 L 405,-1 z
M 421,-229 L 406,-229 L 406,-1 L 421,-1 z
M 437,-229 L 422,-229 L 422,-1 L 437,-1 z
" stroke="#000000" fill="none" stroke-width="0.35"/>
</svg>
